G04 (created by PCBNEW-RS274X (2012-05-21 BZR 3261)-stable) date Thu 02 May 2013 12:01:43 PM PDT*
G01*
G70*
G90*
%MOIN*%
G04 Gerber Fmt 3.4, Leading zero omitted, Abs format*
%FSLAX34Y34*%
G04 APERTURE LIST*
%ADD10C,0.006000*%
%ADD11C,0.063000*%
%ADD12C,0.057100*%
%ADD13C,0.039400*%
%ADD14C,0.094000*%
%ADD15C,0.074800*%
%ADD16C,0.023000*%
%ADD17C,0.017700*%
%ADD18C,0.118100*%
%ADD19C,0.023600*%
%ADD20C,0.030000*%
%ADD21C,0.005000*%
%ADD22C,0.008000*%
G04 APERTURE END LIST*
G54D10*
G54D11*
X70197Y-41161D03*
X70197Y-38995D03*
G54D12*
X69027Y-41057D03*
X69027Y-39099D03*
G54D13*
X67282Y-20271D03*
X42994Y-20271D03*
G54D14*
X68654Y-20472D03*
X41622Y-20472D03*
G54D15*
X32067Y-31770D03*
X32067Y-36711D03*
G54D16*
X41181Y-25039D03*
X41378Y-24744D03*
X40984Y-24744D03*
X40984Y-25334D03*
X41378Y-25334D03*
G54D17*
X38619Y-19468D03*
X39013Y-19468D03*
X38816Y-19763D03*
X38619Y-20058D03*
X39013Y-20058D03*
X34783Y-26456D03*
X34429Y-26456D03*
X34606Y-26220D03*
X34783Y-25984D03*
X34429Y-25984D03*
G54D18*
X36890Y-22441D03*
X34528Y-22441D03*
X35709Y-24291D03*
G54D19*
X67245Y-24252D03*
X66851Y-24252D03*
X66457Y-24252D03*
X67245Y-23858D03*
X66851Y-23858D03*
X66457Y-23858D03*
X67245Y-23464D03*
X66851Y-23464D03*
X66457Y-23464D03*
G54D17*
X67321Y-48150D03*
X67321Y-47756D03*
X67518Y-47953D03*
X67715Y-48150D03*
X67715Y-47756D03*
X67008Y-33622D03*
X67913Y-23858D03*
X66614Y-32716D03*
X67047Y-22795D03*
X66220Y-19803D03*
X65000Y-22362D03*
X65000Y-19961D03*
X65354Y-22362D03*
X65354Y-19961D03*
X66850Y-24882D03*
X65945Y-25197D03*
X65945Y-25590D03*
X65827Y-24055D03*
X50394Y-35827D03*
X50354Y-44842D03*
X51575Y-34646D03*
X50354Y-41614D03*
X50394Y-34646D03*
X49882Y-41614D03*
X51772Y-44842D03*
X50787Y-35433D03*
X53150Y-35433D03*
X51772Y-41614D03*
X48701Y-44842D03*
X49409Y-37126D03*
X52362Y-35039D03*
X52244Y-44842D03*
X51968Y-35827D03*
X52480Y-44842D03*
X52756Y-36220D03*
X50590Y-45197D03*
X51575Y-35433D03*
X50590Y-41968D03*
X50787Y-36220D03*
X50827Y-44842D03*
X51575Y-35827D03*
X50827Y-41614D03*
X51299Y-44842D03*
X50787Y-35827D03*
X51535Y-45197D03*
X53150Y-36614D03*
X51299Y-41614D03*
X53150Y-36220D03*
X53543Y-35827D03*
X51535Y-41968D03*
X49646Y-41968D03*
X50000Y-35433D03*
X50394Y-37323D03*
X49882Y-44842D03*
X52244Y-41614D03*
X53937Y-36220D03*
X48937Y-41614D03*
X49606Y-35039D03*
X54331Y-35827D03*
X60039Y-44842D03*
X42795Y-45079D03*
X48425Y-35827D03*
X60275Y-44842D03*
X54331Y-35433D03*
X48031Y-35827D03*
X43031Y-44567D03*
X54724Y-36220D03*
X52953Y-41614D03*
X54724Y-36614D03*
X52953Y-44842D03*
X62638Y-44842D03*
X56693Y-34646D03*
X55118Y-34646D03*
X60748Y-44842D03*
X55512Y-36220D03*
X56260Y-44842D03*
X53150Y-37008D03*
X54370Y-41653D03*
X51575Y-35039D03*
X47047Y-44842D03*
X48425Y-36220D03*
X44921Y-41653D03*
X42323Y-44842D03*
X48819Y-34646D03*
X40433Y-41653D03*
X47638Y-35827D03*
X61535Y-44842D03*
X55905Y-34646D03*
X61142Y-44842D03*
X55118Y-33858D03*
X55905Y-35433D03*
X59646Y-44842D03*
X56693Y-35827D03*
X59252Y-44842D03*
X54527Y-37205D03*
X54331Y-36220D03*
X54527Y-37520D03*
X53937Y-35827D03*
X57283Y-44842D03*
X55512Y-35827D03*
X55118Y-35827D03*
X56890Y-44842D03*
X53543Y-36220D03*
X55866Y-44842D03*
X52756Y-35433D03*
X55472Y-44842D03*
X55118Y-36220D03*
X55157Y-44842D03*
X54724Y-37008D03*
X54764Y-44842D03*
X53150Y-35827D03*
X53740Y-44842D03*
X52362Y-35433D03*
X53346Y-44842D03*
X47835Y-44842D03*
X52362Y-35827D03*
X47441Y-44842D03*
X51968Y-36220D03*
X46653Y-44842D03*
X51575Y-36220D03*
X46260Y-44842D03*
X51968Y-34646D03*
X55512Y-33071D03*
X63425Y-44842D03*
X50000Y-35827D03*
X45945Y-44842D03*
X45551Y-44842D03*
X49606Y-35827D03*
X48819Y-35827D03*
X44527Y-44842D03*
X44134Y-44842D03*
X49212Y-36220D03*
X55905Y-33465D03*
X63031Y-44842D03*
X43819Y-44842D03*
X48819Y-36220D03*
X49212Y-35433D03*
X43425Y-44842D03*
X41929Y-44842D03*
X48425Y-35039D03*
X41535Y-44842D03*
X48031Y-36220D03*
X55905Y-33858D03*
X62244Y-44842D03*
X41220Y-44842D03*
X48425Y-35433D03*
X47638Y-36220D03*
X40827Y-44842D03*
X39803Y-44842D03*
X46850Y-36220D03*
X46457Y-36614D03*
X39409Y-44842D03*
X56299Y-34646D03*
X61850Y-44842D03*
X55512Y-32283D03*
X62165Y-41614D03*
X60039Y-41614D03*
X56299Y-36220D03*
X56260Y-41653D03*
X55905Y-36220D03*
X52756Y-35827D03*
X54134Y-44842D03*
X52362Y-36220D03*
X52362Y-39016D03*
X44921Y-44842D03*
X49606Y-36220D03*
X49212Y-35827D03*
X43307Y-41653D03*
X48031Y-35433D03*
X40197Y-44842D03*
X50000Y-36220D03*
X48937Y-44842D03*
X47244Y-35827D03*
X48228Y-41614D03*
X49646Y-45197D03*
X50787Y-35039D03*
X50394Y-36220D03*
X49409Y-44842D03*
X48701Y-41614D03*
X49212Y-35039D03*
X53543Y-34646D03*
X54331Y-32677D03*
X50000Y-34646D03*
X55118Y-32677D03*
X54331Y-32283D03*
X51575Y-34252D03*
X55118Y-31890D03*
X50000Y-34252D03*
X55118Y-34252D03*
X50787Y-34252D03*
X52756Y-35039D03*
X49212Y-33858D03*
X63583Y-43031D03*
X52362Y-33858D03*
X54724Y-32677D03*
X49606Y-35433D03*
X49409Y-41614D03*
X48031Y-30709D03*
X46457Y-31102D03*
X64173Y-32716D03*
X47638Y-30315D03*
X47244Y-31102D03*
X70236Y-36339D03*
X64016Y-36575D03*
X69212Y-36339D03*
X64685Y-37126D03*
X48031Y-31102D03*
X61378Y-32953D03*
X47638Y-31102D03*
X64724Y-35276D03*
X68307Y-35748D03*
X48425Y-31102D03*
X48425Y-31890D03*
X46850Y-31102D03*
X38425Y-31732D03*
X46457Y-30709D03*
X38110Y-31417D03*
X46850Y-29527D03*
X46850Y-30315D03*
X39370Y-31732D03*
X37480Y-31417D03*
X46457Y-29527D03*
X37165Y-31102D03*
X46457Y-28740D03*
X36535Y-31102D03*
X46850Y-28346D03*
X46457Y-30315D03*
X39055Y-31417D03*
X38425Y-31102D03*
X46850Y-29921D03*
X38110Y-31102D03*
X46457Y-29921D03*
X46457Y-29134D03*
X37480Y-31102D03*
X64882Y-24685D03*
X50787Y-37008D03*
X55905Y-32677D03*
X67126Y-25827D03*
X56693Y-33858D03*
X56299Y-32677D03*
X64882Y-24331D03*
X50787Y-36614D03*
X56299Y-33858D03*
X66575Y-25827D03*
X66378Y-32598D03*
X64567Y-32244D03*
X64212Y-33937D03*
X62795Y-31850D03*
X54331Y-27559D03*
X57992Y-20000D03*
X54331Y-26772D03*
X56811Y-20000D03*
X53937Y-27165D03*
X56614Y-19685D03*
X53543Y-26772D03*
X56417Y-20000D03*
X53150Y-26772D03*
X56220Y-19685D03*
X53543Y-27165D03*
X56024Y-20000D03*
X55512Y-26772D03*
X52756Y-27165D03*
X55630Y-20000D03*
X52362Y-26772D03*
X55433Y-19685D03*
X53937Y-28346D03*
X55236Y-22126D03*
X54331Y-27165D03*
X55236Y-20001D03*
X51968Y-27165D03*
X55039Y-19685D03*
X51968Y-26772D03*
X54842Y-20000D03*
X57795Y-19685D03*
X51575Y-27165D03*
X54449Y-20000D03*
X51181Y-27165D03*
X54252Y-19685D03*
X53543Y-28346D03*
X54055Y-22126D03*
X52756Y-27559D03*
X54055Y-20000D03*
X53858Y-22559D03*
X53150Y-27165D03*
X53858Y-19685D03*
X53937Y-26772D03*
X53858Y-22835D03*
X53661Y-20000D03*
X55118Y-26772D03*
X53937Y-27953D03*
X53268Y-23150D03*
X53268Y-20000D03*
X52362Y-27165D03*
X53071Y-23465D03*
X53937Y-27559D03*
X52362Y-27953D03*
X53071Y-19685D03*
X52362Y-29134D03*
X52874Y-23858D03*
X52874Y-20197D03*
X52756Y-28346D03*
X52283Y-22677D03*
X51968Y-28740D03*
X51575Y-27953D03*
X52677Y-19685D03*
X52283Y-22402D03*
X51968Y-29134D03*
X52677Y-19961D03*
X51968Y-28346D03*
X57598Y-20000D03*
X52283Y-22126D03*
X52362Y-27559D03*
X51575Y-27559D03*
X52283Y-19685D03*
X54724Y-27165D03*
X57401Y-19685D03*
X54724Y-26772D03*
X57205Y-20000D03*
X47953Y-18465D03*
X61338Y-18504D03*
X55827Y-18465D03*
X57441Y-18465D03*
X51575Y-28346D03*
X52362Y-28346D03*
X54331Y-28740D03*
X54331Y-28346D03*
X52756Y-27953D03*
X50354Y-22441D03*
X48425Y-27559D03*
X50000Y-27953D03*
X50118Y-19685D03*
X50394Y-27165D03*
X48937Y-19961D03*
X49212Y-27953D03*
X50394Y-26772D03*
X49212Y-27165D03*
X48740Y-19685D03*
X49212Y-28346D03*
X48543Y-22126D03*
X48543Y-20118D03*
X48425Y-27165D03*
X50000Y-27165D03*
X48031Y-27953D03*
X48149Y-20157D03*
X50000Y-26772D03*
X48425Y-27953D03*
X48150Y-19882D03*
X50354Y-22716D03*
X49606Y-27559D03*
X49606Y-26772D03*
X47559Y-19961D03*
X49606Y-27165D03*
X47559Y-19685D03*
X49212Y-26772D03*
X47362Y-20157D03*
X48819Y-27165D03*
X46968Y-20158D03*
X48819Y-26772D03*
X46968Y-19882D03*
X49921Y-19961D03*
X50000Y-27559D03*
X48031Y-27165D03*
X46378Y-19961D03*
X48031Y-26772D03*
X46378Y-19685D03*
X46181Y-23150D03*
X48425Y-28346D03*
X46181Y-20157D03*
X47638Y-27165D03*
X45984Y-19685D03*
X47638Y-26772D03*
X45787Y-20000D03*
X50787Y-27559D03*
X50354Y-22993D03*
X47244Y-27165D03*
X45394Y-19842D03*
X47244Y-26772D03*
X45394Y-20118D03*
X46850Y-26772D03*
X45394Y-21102D03*
X46850Y-27165D03*
X44606Y-19961D03*
X46457Y-26772D03*
X44606Y-19685D03*
X49724Y-19685D03*
X48425Y-26772D03*
X44409Y-22126D03*
X44291Y-19803D03*
X48031Y-27559D03*
X49527Y-22441D03*
X50787Y-27165D03*
X49527Y-22716D03*
X49212Y-27559D03*
X50787Y-26772D03*
X49212Y-28740D03*
X50000Y-28346D03*
X50787Y-29134D03*
X50787Y-28740D03*
X50000Y-28740D03*
X55905Y-29921D03*
X64685Y-20000D03*
X54724Y-30315D03*
X55905Y-28740D03*
X63504Y-20000D03*
X55118Y-30315D03*
X55512Y-28346D03*
X63307Y-19685D03*
X55512Y-29921D03*
X55905Y-28346D03*
X55118Y-29921D03*
X63110Y-20000D03*
X55512Y-27953D03*
X62913Y-19685D03*
X55118Y-29134D03*
X55905Y-27953D03*
X62716Y-20000D03*
X55512Y-28740D03*
X55512Y-29527D03*
X55512Y-27559D03*
X62323Y-20000D03*
X55118Y-28740D03*
X55905Y-27559D03*
X55118Y-28346D03*
X62126Y-19685D03*
X55512Y-27165D03*
X61929Y-20000D03*
X55118Y-27953D03*
X55905Y-27165D03*
X61732Y-19685D03*
X55118Y-27559D03*
X55905Y-26772D03*
X55118Y-27165D03*
X61535Y-20000D03*
X64488Y-19685D03*
X54724Y-29921D03*
X61142Y-22480D03*
X61142Y-20000D03*
X60945Y-22126D03*
X60945Y-19685D03*
X60748Y-22480D03*
X60748Y-20000D03*
X60551Y-22126D03*
X60551Y-19685D03*
X60354Y-22283D03*
X60354Y-20000D03*
X55905Y-29527D03*
X60157Y-22480D03*
X60157Y-19685D03*
X54724Y-29134D03*
X64291Y-20000D03*
X55512Y-29134D03*
X64094Y-19685D03*
X54724Y-28740D03*
X55905Y-29134D03*
X63898Y-20000D03*
X54724Y-28346D03*
X64370Y-32480D03*
X55118Y-31102D03*
X53937Y-30315D03*
X55512Y-30315D03*
X53937Y-30709D03*
X54331Y-29527D03*
X53543Y-33858D03*
X53937Y-31102D03*
X53543Y-29134D03*
X48819Y-33858D03*
X48819Y-29134D03*
X39055Y-32677D03*
X48031Y-31890D03*
X39370Y-32677D03*
X47244Y-31890D03*
X47244Y-34646D03*
X36535Y-32677D03*
X36535Y-32362D03*
X47638Y-34646D03*
X46850Y-32283D03*
X40945Y-33189D03*
X46457Y-32677D03*
X41417Y-33189D03*
X46850Y-35039D03*
X43819Y-35787D03*
X42677Y-35787D03*
X46457Y-34252D03*
X46457Y-35433D03*
X44645Y-35787D03*
X44646Y-36339D03*
X46850Y-35827D03*
X46457Y-36220D03*
X44842Y-36772D03*
X46457Y-35827D03*
X45000Y-36339D03*
X41181Y-33189D03*
X46850Y-32677D03*
X41614Y-33976D03*
X46850Y-33071D03*
X41850Y-33976D03*
X46457Y-33071D03*
X42087Y-33976D03*
X46850Y-33465D03*
X42283Y-34527D03*
X46457Y-33465D03*
X42992Y-34527D03*
X46850Y-33858D03*
X42520Y-34527D03*
X46457Y-33858D03*
X46457Y-34646D03*
X42953Y-35787D03*
X44369Y-35787D03*
X46850Y-35433D03*
X44094Y-35787D03*
X46457Y-35039D03*
X47638Y-31890D03*
X39055Y-32992D03*
X37480Y-33937D03*
X47244Y-35039D03*
X48031Y-33071D03*
X38740Y-34252D03*
X47638Y-33858D03*
X38110Y-34252D03*
X38110Y-33937D03*
X47638Y-34252D03*
X47244Y-32677D03*
X39055Y-33622D03*
X46850Y-31890D03*
X40709Y-33189D03*
X47244Y-34252D03*
X36850Y-31732D03*
X36535Y-32047D03*
X48031Y-34252D03*
X64882Y-18504D03*
X65039Y-34646D03*
X59606Y-18819D03*
X38858Y-43150D03*
X47244Y-36220D03*
X68111Y-23661D03*
X64567Y-36024D03*
X46850Y-36614D03*
X39252Y-43150D03*
X64961Y-36024D03*
X67914Y-23465D03*
X62520Y-22126D03*
X61338Y-21260D03*
X55512Y-30709D03*
X64882Y-22126D03*
X64882Y-21260D03*
X53937Y-29921D03*
X63701Y-22126D03*
X56693Y-30709D03*
X60157Y-18779D03*
X56693Y-28740D03*
X62520Y-21260D03*
X55118Y-30709D03*
X60157Y-18504D03*
X54331Y-29921D03*
X56693Y-26378D03*
X61338Y-22126D03*
X55118Y-29527D03*
X63701Y-21260D03*
X53464Y-22126D03*
X55827Y-22126D03*
X51968Y-27559D03*
X54646Y-18465D03*
X53543Y-27559D03*
X54646Y-21260D03*
X53150Y-28740D03*
X55827Y-21260D03*
X52756Y-28740D03*
X57008Y-21260D03*
X54724Y-27559D03*
X51968Y-25984D03*
X52362Y-28740D03*
X53543Y-25984D03*
X55118Y-25984D03*
X57008Y-18819D03*
X57008Y-19685D03*
X53464Y-18819D03*
X55827Y-18819D03*
X55827Y-19685D03*
X53464Y-19685D03*
X56299Y-25984D03*
X57008Y-22126D03*
X51575Y-29134D03*
X54646Y-19685D03*
X53464Y-21260D03*
X54646Y-18819D03*
X51575Y-28740D03*
X54646Y-22126D03*
X47953Y-19685D03*
X50394Y-27559D03*
X50000Y-29134D03*
X47953Y-22126D03*
X46772Y-18819D03*
X47953Y-21260D03*
X48819Y-27559D03*
X49134Y-22126D03*
X50787Y-28346D03*
X46063Y-25984D03*
X46772Y-22126D03*
X49134Y-21260D03*
X50394Y-25984D03*
X45590Y-22126D03*
X50394Y-29134D03*
X46772Y-21260D03*
X46772Y-18465D03*
X47953Y-18819D03*
X47638Y-27559D03*
X45590Y-18819D03*
X45590Y-21260D03*
X49606Y-28740D03*
X48819Y-25984D03*
X49134Y-19685D03*
X47244Y-25984D03*
X49134Y-18819D03*
X45590Y-19685D03*
X46772Y-19685D03*
X63701Y-19685D03*
X63701Y-18819D03*
X64882Y-18819D03*
X61338Y-18819D03*
X62520Y-18819D03*
X63701Y-18504D03*
X62520Y-19685D03*
X61338Y-19685D03*
X64882Y-19685D03*
X68346Y-34764D03*
X37913Y-19370D03*
X65748Y-37559D03*
X38661Y-46535D03*
X38622Y-45039D03*
X69331Y-33819D03*
X66378Y-37205D03*
X62519Y-32757D03*
X66496Y-35079D03*
X62519Y-33150D03*
X66496Y-35945D03*
X64527Y-34527D03*
X67087Y-36693D03*
X66693Y-28937D03*
X68386Y-37441D03*
X64016Y-36260D03*
X64488Y-35512D03*
X69567Y-28779D03*
X66102Y-31811D03*
X67835Y-35472D03*
X69567Y-30945D03*
X67598Y-35354D03*
X69567Y-29213D03*
X69567Y-30079D03*
X67953Y-34961D03*
X66693Y-28543D03*
X66693Y-30236D03*
X69212Y-38071D03*
X63701Y-36260D03*
X35551Y-25433D03*
X67559Y-34173D03*
X33779Y-25551D03*
X68346Y-34331D03*
X66417Y-47756D03*
X67008Y-36299D03*
X38661Y-24606D03*
X63976Y-33110D03*
X64961Y-32638D03*
X42126Y-25354D03*
X42126Y-24724D03*
X64764Y-32480D03*
X66693Y-36575D03*
X66181Y-48031D03*
X59488Y-29370D03*
X65787Y-32756D03*
X68189Y-21024D03*
X67520Y-33898D03*
X34409Y-35728D03*
X34409Y-35138D03*
X37165Y-33937D03*
X47244Y-35433D03*
X37165Y-31417D03*
X46457Y-28346D03*
X46063Y-33858D03*
X40158Y-35787D03*
X46850Y-30709D03*
X39055Y-32362D03*
X39370Y-33622D03*
X47244Y-33071D03*
X35079Y-33150D03*
X35079Y-33465D03*
X35079Y-32205D03*
X35079Y-32520D03*
X35197Y-29921D03*
X35905Y-32677D03*
X35905Y-33937D03*
X35472Y-29921D03*
X35905Y-31732D03*
X36535Y-33937D03*
X36220Y-34252D03*
X35590Y-31102D03*
X35905Y-32992D03*
X35590Y-30787D03*
X37165Y-34252D03*
X35905Y-35000D03*
X35905Y-34567D03*
X35669Y-35000D03*
X35433Y-35000D03*
X36378Y-30433D03*
G54D20*
X33740Y-35433D03*
G54D17*
X68622Y-22047D03*
X59961Y-20236D03*
X52756Y-29134D03*
X54606Y-45197D03*
G54D20*
X69291Y-49370D03*
G54D17*
X54331Y-33071D03*
X53937Y-34252D03*
X35590Y-34567D03*
G54D20*
X70433Y-47992D03*
X69921Y-50039D03*
G54D17*
X45157Y-45197D03*
X52362Y-29921D03*
X52362Y-30709D03*
X38110Y-32677D03*
X59803Y-45197D03*
X54331Y-30315D03*
X54606Y-41968D03*
X54724Y-33465D03*
X39055Y-31102D03*
X50315Y-20236D03*
X49606Y-33858D03*
X49212Y-34252D03*
X48819Y-29921D03*
G54D20*
X42165Y-25039D03*
G54D17*
X47638Y-29527D03*
G54D20*
X40147Y-18966D03*
G54D17*
X66063Y-20709D03*
X44685Y-45197D03*
X37913Y-19646D03*
X36220Y-32047D03*
G54D20*
X68622Y-49370D03*
G54D17*
X49173Y-43307D03*
X50787Y-29527D03*
X64724Y-31220D03*
X64331Y-24921D03*
X49606Y-32677D03*
X62520Y-20709D03*
X50000Y-29527D03*
X53543Y-29527D03*
X51575Y-29921D03*
X44212Y-20709D03*
X52756Y-32283D03*
X56299Y-34252D03*
X38425Y-33622D03*
X69527Y-20905D03*
X46378Y-18465D03*
X51575Y-33465D03*
X49134Y-20984D03*
X43622Y-20236D03*
X63110Y-30827D03*
X51968Y-31102D03*
X60512Y-41968D03*
X37480Y-32362D03*
X52756Y-33858D03*
X49134Y-20709D03*
X64094Y-30039D03*
X54331Y-27953D03*
X47244Y-36614D03*
X34646Y-29527D03*
X61338Y-20236D03*
X65669Y-28898D03*
X53898Y-41968D03*
X53150Y-31890D03*
X61338Y-20709D03*
X61259Y-32638D03*
X67598Y-31929D03*
X53464Y-20984D03*
X68327Y-22047D03*
X38425Y-33937D03*
X57441Y-41968D03*
G54D20*
X36811Y-27047D03*
G54D17*
X66693Y-20709D03*
X68425Y-24961D03*
X52756Y-33071D03*
X53543Y-31102D03*
X38425Y-32362D03*
X37500Y-36968D03*
X35079Y-31890D03*
X51968Y-35039D03*
X37480Y-32047D03*
X56024Y-41968D03*
X43268Y-41968D03*
X54331Y-31102D03*
X55315Y-45197D03*
X51968Y-32283D03*
X55827Y-20984D03*
G54D20*
X39842Y-18661D03*
G54D17*
X52716Y-43307D03*
X53150Y-29921D03*
X54646Y-20709D03*
G54D20*
X33110Y-33779D03*
G54D17*
X37480Y-32992D03*
G54D20*
X69921Y-49370D03*
G54D17*
X68425Y-23346D03*
X54724Y-32283D03*
X50315Y-19961D03*
X64370Y-30039D03*
X66850Y-37441D03*
X66851Y-23858D03*
X36378Y-30118D03*
X47953Y-20709D03*
X47638Y-27953D03*
X47992Y-45197D03*
X54331Y-30709D03*
X48819Y-27953D03*
X46457Y-27165D03*
X47244Y-26378D03*
X63779Y-25827D03*
X36220Y-33307D03*
G54D20*
X70433Y-47008D03*
G54D17*
X50394Y-26378D03*
X59331Y-19961D03*
X66850Y-25197D03*
G54D20*
X38307Y-26063D03*
G54D17*
X38425Y-33307D03*
X44685Y-41968D03*
X58189Y-20236D03*
X35079Y-32835D03*
X50000Y-31102D03*
X60157Y-29724D03*
X57441Y-45197D03*
X49606Y-29921D03*
X52756Y-30315D03*
X51063Y-46575D03*
X53464Y-20236D03*
X43976Y-41968D03*
X47638Y-32283D03*
X49212Y-29527D03*
X48464Y-46575D03*
X36850Y-31102D03*
G54D20*
X33307Y-37638D03*
G54D17*
X64172Y-34626D03*
G54D20*
X69961Y-47008D03*
G54D17*
X47953Y-20984D03*
X48425Y-33465D03*
X53937Y-28740D03*
X39252Y-45197D03*
X48819Y-26378D03*
X58937Y-30000D03*
X51063Y-43307D03*
X62638Y-41968D03*
X56732Y-41968D03*
X56299Y-32283D03*
X47638Y-30709D03*
X60669Y-30354D03*
X62559Y-33661D03*
X63110Y-35748D03*
X52756Y-31102D03*
X63346Y-41968D03*
X56496Y-41968D03*
X62520Y-20236D03*
X56299Y-28740D03*
X50118Y-46575D03*
X56299Y-30709D03*
G54D20*
X69291Y-50039D03*
G54D17*
X39055Y-33937D03*
X35039Y-28937D03*
X46063Y-28740D03*
X34291Y-32657D03*
X48425Y-29921D03*
X37500Y-37205D03*
X50394Y-25590D03*
X50000Y-33071D03*
X48425Y-34252D03*
X52716Y-46575D03*
X63583Y-43346D03*
G54D20*
X39409Y-20394D03*
G54D17*
X35551Y-33937D03*
X38425Y-34252D03*
X51457Y-20709D03*
X48819Y-31890D03*
X59527Y-31535D03*
X35079Y-33779D03*
X40020Y-34587D03*
X53543Y-30315D03*
X70315Y-33465D03*
G54D20*
X36024Y-26772D03*
G54D17*
X50394Y-35039D03*
X59094Y-45197D03*
X36535Y-31732D03*
X38816Y-19763D03*
X64882Y-20709D03*
X67518Y-47953D03*
X52008Y-46575D03*
X46811Y-45197D03*
X35905Y-30787D03*
X51575Y-32677D03*
G54D20*
X39842Y-20630D03*
G54D17*
X65650Y-33740D03*
X37165Y-32992D03*
X56299Y-26378D03*
X68898Y-22047D03*
X59331Y-20236D03*
X61220Y-41968D03*
X53543Y-35039D03*
X40118Y-26772D03*
X66457Y-22520D03*
X58189Y-20984D03*
X47283Y-45197D03*
X58819Y-20236D03*
X65669Y-31220D03*
X46063Y-34252D03*
X40197Y-41968D03*
X66693Y-20236D03*
X63110Y-34094D03*
X55118Y-36614D03*
X37795Y-20630D03*
X38819Y-30079D03*
X69173Y-22047D03*
X42795Y-41968D03*
X56693Y-36220D03*
X37165Y-34567D03*
X59803Y-41968D03*
X52362Y-32677D03*
X53543Y-28740D03*
X39370Y-32047D03*
X53543Y-29921D03*
X39370Y-33937D03*
X40394Y-31614D03*
X49606Y-31890D03*
G54D20*
X70433Y-47520D03*
G54D17*
X70000Y-20512D03*
X59331Y-20984D03*
X42087Y-45197D03*
X46575Y-41968D03*
X61929Y-41968D03*
X53464Y-20709D03*
X48819Y-34252D03*
X37165Y-32362D03*
X53150Y-27953D03*
X36220Y-32677D03*
X41378Y-45197D03*
X49606Y-33465D03*
X68583Y-29646D03*
X33484Y-32657D03*
X48819Y-28740D03*
X37165Y-32047D03*
X53189Y-41968D03*
X38740Y-31102D03*
G54D20*
X38307Y-26496D03*
G54D17*
X38740Y-31417D03*
X38110Y-32047D03*
X59094Y-41968D03*
X43346Y-20472D03*
G54D20*
X33307Y-38425D03*
G54D17*
X61693Y-45197D03*
X45669Y-26772D03*
X58819Y-19961D03*
G54D20*
X40748Y-27087D03*
G54D17*
X40669Y-41968D03*
X39370Y-33307D03*
X50945Y-19961D03*
X49173Y-46575D03*
X58937Y-30315D03*
X68583Y-30079D03*
G54D20*
X33110Y-34134D03*
G54D17*
X59961Y-20709D03*
X61535Y-35276D03*
X43268Y-45197D03*
X64724Y-26968D03*
X38976Y-23898D03*
X48425Y-28740D03*
X52087Y-20709D03*
X46772Y-20984D03*
X40354Y-33386D03*
X56732Y-45197D03*
X52756Y-29527D03*
X50945Y-20236D03*
X46102Y-45197D03*
X60984Y-45197D03*
X70000Y-24252D03*
X64724Y-28898D03*
X62401Y-41968D03*
G54D20*
X67047Y-41299D03*
G54D17*
X49606Y-30709D03*
X64016Y-36890D03*
X43976Y-45197D03*
X39488Y-41968D03*
X61810Y-32638D03*
X54370Y-45197D03*
X34606Y-26220D03*
X49212Y-31102D03*
X58346Y-18504D03*
X36220Y-31417D03*
X38425Y-32677D03*
X69449Y-22047D03*
X51457Y-20236D03*
X45590Y-36772D03*
X54724Y-31102D03*
G54D20*
X69961Y-47992D03*
G54D17*
X40433Y-45197D03*
X35905Y-33622D03*
X35905Y-34252D03*
X54646Y-20984D03*
X50315Y-20709D03*
X51968Y-29527D03*
X50394Y-30709D03*
X50394Y-29921D03*
X52362Y-31890D03*
X37165Y-33307D03*
X69567Y-27382D03*
X57008Y-20236D03*
X39370Y-23898D03*
X56693Y-26772D03*
X51575Y-30709D03*
X53150Y-32677D03*
X36220Y-33937D03*
X46772Y-20709D03*
X50394Y-29527D03*
X36220Y-32992D03*
X53937Y-29527D03*
X36850Y-34567D03*
X62401Y-45197D03*
G54D20*
X67047Y-42087D03*
G54D17*
X35905Y-32047D03*
X51457Y-20984D03*
X43622Y-20709D03*
X60275Y-41968D03*
X66850Y-27598D03*
X63543Y-30039D03*
X69567Y-30512D03*
X59331Y-20709D03*
X65866Y-47362D03*
X65827Y-24449D03*
X44212Y-20984D03*
X62992Y-18150D03*
X51457Y-19961D03*
X56299Y-36614D03*
X52087Y-19961D03*
X45157Y-41968D03*
X47638Y-35039D03*
X54724Y-35039D03*
X38425Y-32047D03*
X48819Y-35039D03*
X51968Y-33465D03*
X53543Y-32283D03*
X53150Y-30709D03*
X53150Y-33465D03*
X70236Y-38071D03*
X50394Y-36614D03*
X45512Y-28150D03*
X54724Y-29527D03*
X49212Y-30315D03*
X32756Y-32657D03*
X66063Y-20236D03*
X36220Y-32362D03*
X47283Y-41968D03*
X52087Y-20236D03*
X40669Y-45197D03*
X64055Y-25197D03*
X60669Y-30590D03*
X37500Y-36732D03*
X51968Y-36614D03*
X50394Y-31890D03*
X58937Y-30630D03*
X48819Y-36614D03*
X53543Y-34252D03*
X50000Y-30315D03*
X50787Y-31102D03*
X38110Y-33307D03*
X46063Y-36614D03*
X58937Y-30905D03*
X55827Y-20236D03*
X43622Y-20984D03*
X52756Y-34646D03*
X48819Y-32677D03*
X50118Y-43307D03*
G54D20*
X40748Y-22992D03*
G54D17*
X63819Y-30039D03*
X37008Y-35276D03*
X67008Y-27835D03*
X50394Y-32677D03*
X38543Y-35276D03*
X51968Y-26378D03*
X55827Y-20709D03*
X55118Y-26378D03*
X53543Y-26378D03*
X68976Y-24882D03*
X45590Y-20709D03*
X37480Y-33307D03*
X53543Y-36614D03*
X41378Y-41968D03*
X36378Y-29764D03*
X48464Y-43307D03*
X58189Y-20709D03*
X45866Y-41968D03*
X45590Y-36024D03*
G54D20*
X37874Y-26496D03*
G54D17*
X57008Y-20709D03*
X49606Y-29134D03*
X47047Y-41968D03*
X52362Y-33465D03*
X50787Y-33071D03*
X39961Y-45197D03*
X35275Y-28937D03*
X47638Y-33465D03*
X51575Y-29527D03*
X38110Y-32362D03*
X49134Y-20236D03*
X59527Y-31929D03*
X50945Y-20709D03*
X51968Y-33071D03*
X53189Y-45197D03*
X53543Y-27953D03*
X62874Y-45197D03*
X42087Y-41968D03*
X65827Y-23110D03*
X46457Y-31890D03*
G54D20*
X41181Y-27087D03*
G54D17*
X50000Y-33858D03*
X50787Y-32283D03*
X48819Y-30709D03*
X50000Y-26378D03*
G54D20*
X69961Y-47520D03*
X33110Y-34488D03*
G54D17*
X37165Y-30787D03*
X60512Y-45197D03*
X67401Y-24980D03*
X49212Y-33071D03*
X45394Y-45197D03*
X51968Y-30315D03*
X54724Y-34252D03*
X50394Y-33465D03*
X54252Y-18465D03*
X54724Y-33071D03*
X58819Y-20984D03*
X50945Y-20984D03*
X65669Y-29134D03*
X63701Y-20709D03*
X49212Y-29134D03*
X42559Y-41968D03*
X58819Y-20709D03*
X49212Y-32283D03*
X54646Y-20236D03*
X46063Y-29134D03*
X52087Y-20984D03*
X51968Y-27953D03*
X59764Y-18465D03*
X44212Y-20236D03*
X50394Y-27953D03*
X65669Y-30984D03*
X56024Y-45197D03*
X40157Y-20315D03*
X64882Y-20236D03*
X54724Y-30709D03*
X52008Y-43307D03*
X42559Y-45197D03*
X69567Y-31850D03*
X50787Y-30315D03*
X64646Y-30039D03*
X46063Y-26378D03*
G54D20*
X41181Y-22992D03*
G54D17*
X50000Y-32283D03*
G54D20*
X68622Y-50039D03*
G54D17*
X51575Y-31890D03*
X46063Y-30709D03*
X63701Y-20236D03*
X68307Y-39960D03*
X66102Y-40354D03*
X47992Y-41968D03*
X63583Y-45197D03*
X55315Y-41968D03*
G54D20*
X68464Y-39331D03*
G54D17*
X54724Y-27953D03*
G54D20*
X37874Y-26063D03*
G54D17*
X57008Y-20984D03*
X53543Y-32677D03*
X35905Y-31102D03*
X53898Y-45197D03*
X70315Y-33938D03*
X38740Y-31732D03*
X54724Y-34646D03*
X54331Y-34252D03*
X52362Y-34252D03*
X52362Y-34646D03*
X48031Y-35039D03*
X37520Y-37598D03*
X53150Y-27559D03*
X53150Y-28346D03*
X69567Y-31378D03*
X69567Y-28346D03*
X36850Y-30787D03*
X37126Y-30472D03*
X40039Y-33386D03*
X38425Y-34567D03*
X36220Y-31732D03*
X36220Y-33622D03*
X39685Y-32047D03*
X39055Y-34252D03*
X37008Y-34961D03*
G54D20*
X41929Y-27087D03*
G54D17*
X38740Y-30787D03*
X36850Y-34252D03*
G54D20*
X42362Y-27087D03*
G54D17*
X38819Y-30394D03*
G54D20*
X42795Y-27087D03*
G54D17*
X36102Y-29921D03*
X35827Y-29921D03*
X40079Y-31614D03*
X39685Y-33307D03*
X39803Y-25433D03*
X38543Y-34961D03*
X49212Y-32677D03*
X50000Y-30709D03*
X50787Y-32677D03*
X48819Y-29527D03*
X50000Y-33465D03*
X52756Y-31890D03*
X49606Y-33071D03*
X50787Y-33465D03*
X53150Y-31102D03*
X50394Y-31102D03*
X49606Y-32283D03*
X50394Y-33071D03*
X52756Y-29921D03*
X50394Y-32283D03*
X51575Y-30315D03*
X51575Y-31102D03*
X53150Y-32283D03*
X51968Y-31890D03*
X52756Y-33465D03*
X40157Y-23898D03*
X49212Y-29921D03*
G54D20*
X42362Y-22992D03*
G54D17*
X49606Y-29527D03*
X49212Y-31890D03*
X53150Y-29527D03*
X50394Y-30315D03*
X49212Y-30709D03*
X53543Y-30709D03*
X52756Y-30709D03*
X52362Y-32283D03*
X51968Y-32677D03*
X50000Y-29921D03*
X51968Y-30709D03*
X53543Y-31890D03*
X52756Y-32677D03*
X51575Y-32283D03*
G54D20*
X41929Y-22992D03*
G54D17*
X50787Y-30709D03*
X51575Y-33071D03*
X49606Y-30315D03*
X50787Y-29921D03*
X52362Y-31102D03*
X53543Y-31496D03*
X49606Y-31102D03*
X50000Y-31890D03*
X52362Y-29527D03*
G54D20*
X42795Y-22992D03*
G54D17*
X53150Y-33071D03*
X50787Y-31890D03*
X50000Y-32677D03*
X51968Y-29921D03*
X48819Y-31102D03*
X52362Y-30315D03*
X52362Y-33071D03*
X53150Y-30315D03*
G54D20*
X54016Y-43110D03*
G54D17*
X38740Y-33307D03*
X50118Y-46260D03*
X48819Y-35433D03*
X45669Y-28740D03*
X49212Y-34646D03*
X39055Y-31732D03*
G54D20*
X62638Y-43110D03*
G54D17*
X53543Y-35433D03*
X51575Y-33858D03*
X48464Y-46260D03*
G54D20*
X69961Y-44173D03*
G54D17*
X69409Y-45709D03*
X56299Y-37008D03*
X51968Y-35433D03*
X47244Y-29527D03*
X53543Y-37008D03*
X49606Y-34252D03*
G54D20*
X70433Y-44173D03*
X69961Y-44646D03*
X56614Y-43110D03*
X44685Y-43110D03*
X49646Y-43110D03*
X55433Y-43110D03*
X51653Y-46417D03*
X47047Y-46417D03*
G54D17*
X45669Y-26378D03*
G54D20*
X45748Y-46417D03*
X42913Y-46417D03*
X69961Y-43701D03*
G54D17*
X56693Y-34252D03*
X46063Y-37008D03*
X47244Y-37008D03*
G54D20*
X41338Y-43110D03*
X44331Y-46417D03*
G54D17*
X49173Y-46260D03*
X49606Y-34646D03*
X69291Y-48504D03*
X55118Y-33465D03*
G54D20*
X49527Y-46417D03*
G54D17*
X48819Y-37008D03*
X61259Y-33268D03*
X47244Y-32283D03*
G54D20*
X50590Y-46417D03*
G54D17*
X51968Y-33858D03*
X50394Y-37008D03*
X48425Y-29527D03*
X52716Y-42992D03*
G54D20*
X43268Y-43110D03*
G54D17*
X54331Y-34646D03*
G54D20*
X47165Y-43110D03*
G54D17*
X47244Y-33465D03*
X50118Y-42992D03*
X38740Y-32677D03*
G54D20*
X45866Y-43110D03*
G54D17*
X51063Y-46260D03*
X37480Y-33622D03*
G54D20*
X70433Y-43228D03*
G54D17*
X38740Y-33937D03*
X38740Y-32362D03*
X56693Y-36614D03*
X54724Y-35433D03*
X53937Y-32677D03*
G54D20*
X61929Y-43110D03*
X70433Y-43701D03*
X40551Y-46417D03*
G54D17*
X39370Y-31102D03*
X51968Y-37008D03*
X47638Y-35433D03*
G54D20*
X60512Y-43110D03*
G54D17*
X38740Y-33622D03*
G54D20*
X59842Y-43110D03*
X59803Y-46417D03*
X69961Y-43228D03*
G54D17*
X52756Y-34252D03*
G54D20*
X60748Y-46417D03*
X63583Y-46417D03*
G54D17*
X38110Y-33622D03*
X38110Y-31732D03*
G54D20*
X62638Y-46417D03*
G54D17*
X37146Y-36732D03*
G54D20*
X61693Y-46417D03*
X58307Y-46417D03*
X41732Y-46417D03*
G54D17*
X39685Y-34567D03*
X56693Y-32283D03*
G54D20*
X54488Y-46417D03*
G54D17*
X49173Y-42992D03*
X52008Y-42992D03*
G54D20*
X56732Y-46417D03*
X55669Y-46417D03*
X53543Y-46417D03*
G54D17*
X45590Y-32087D03*
X37165Y-33622D03*
G54D20*
X47874Y-46417D03*
G54D17*
X52716Y-46260D03*
X37480Y-31732D03*
X45669Y-34252D03*
X53937Y-32283D03*
X50394Y-35433D03*
X37146Y-37205D03*
X45590Y-36457D03*
X37146Y-36968D03*
X48464Y-42992D03*
X55118Y-33071D03*
X64055Y-25512D03*
X38425Y-31417D03*
X52008Y-46260D03*
X48031Y-33465D03*
X51968Y-34252D03*
X45669Y-30709D03*
X55118Y-32283D03*
X39370Y-34252D03*
G54D20*
X70433Y-44646D03*
G54D17*
X51063Y-42992D03*
X47244Y-30709D03*
X37165Y-31732D03*
X55118Y-37008D03*
X57953Y-31142D03*
X53937Y-33858D03*
X48425Y-33858D03*
X48425Y-29134D03*
X53937Y-29134D03*
X57953Y-31890D03*
X57953Y-31457D03*
X58425Y-30630D03*
X69567Y-23071D03*
X67598Y-25354D03*
X67401Y-24626D03*
X68898Y-22716D03*
X68898Y-22441D03*
X68464Y-25354D03*
X66457Y-22835D03*
X65827Y-23465D03*
X67008Y-29646D03*
X62205Y-18779D03*
X63425Y-32441D03*
X38779Y-41968D03*
X66496Y-38386D03*
X65157Y-31811D03*
G54D20*
X65354Y-27402D03*
G54D17*
X64094Y-31575D03*
X67716Y-35984D03*
X64173Y-35216D03*
X68583Y-29213D03*
X68583Y-28346D03*
X65472Y-21260D03*
X67835Y-27598D03*
X65669Y-30512D03*
X68583Y-31378D03*
X64094Y-30709D03*
X61810Y-33268D03*
X48740Y-18740D03*
X63386Y-31181D03*
X64764Y-30512D03*
X64094Y-30433D03*
G54D20*
X65354Y-27835D03*
X65354Y-26968D03*
G54D17*
X34449Y-28622D03*
X68740Y-27598D03*
X56693Y-18740D03*
X69724Y-38071D03*
X63386Y-31575D03*
X65669Y-30276D03*
X69055Y-33976D03*
X58346Y-18976D03*
X68583Y-28779D03*
X65059Y-33740D03*
X68583Y-30945D03*
X69567Y-29646D03*
X34370Y-18425D03*
X35866Y-18425D03*
G54D20*
X32480Y-53543D03*
X33661Y-48425D03*
X32480Y-48819D03*
X33268Y-48819D03*
X33661Y-53150D03*
X32087Y-48425D03*
X32874Y-48425D03*
X66417Y-50039D03*
X66220Y-18661D03*
G54D17*
X64764Y-29606D03*
G54D20*
X32480Y-52756D03*
X33268Y-52756D03*
X32874Y-53150D03*
X32087Y-53150D03*
X33268Y-53543D03*
X32480Y-51968D03*
X33268Y-51968D03*
X33661Y-50000D03*
X33661Y-51575D03*
X32480Y-51181D03*
X33268Y-51181D03*
X32874Y-51575D03*
X32087Y-51575D03*
X32480Y-50394D03*
X33268Y-50394D03*
X38307Y-25157D03*
X32874Y-50000D03*
X32087Y-50000D03*
X32480Y-49606D03*
X33268Y-49606D03*
X33661Y-49213D03*
X32874Y-49213D03*
X32087Y-49213D03*
X66417Y-49370D03*
X66417Y-48701D03*
X33661Y-50787D03*
X32874Y-50787D03*
X32087Y-50787D03*
X65748Y-50039D03*
G54D17*
X69272Y-21102D03*
G54D20*
X67756Y-18661D03*
X37874Y-25157D03*
G54D17*
X60669Y-31063D03*
G54D20*
X66732Y-18661D03*
X40079Y-19646D03*
X33661Y-52362D03*
X32874Y-52362D03*
X32087Y-52362D03*
X67244Y-18661D03*
X65748Y-50709D03*
G54D17*
X65669Y-29606D03*
G54D20*
X37874Y-25590D03*
X66417Y-50709D03*
G54D17*
X69567Y-21535D03*
G54D20*
X65748Y-49370D03*
X38307Y-25590D03*
G54D17*
X65669Y-29842D03*
X60669Y-31299D03*
X39764Y-19646D03*
G54D20*
X33071Y-25945D03*
X33071Y-26732D03*
G54D17*
X33071Y-29803D03*
G54D20*
X32913Y-26339D03*
X40512Y-20000D03*
X40157Y-20000D03*
X34409Y-37874D03*
X33898Y-38386D03*
X33898Y-37874D03*
X34409Y-38386D03*
G54D21*
X50590Y-41654D02*
X50590Y-36024D01*
X50354Y-41890D02*
X50590Y-41654D01*
X50394Y-35827D02*
X50394Y-35828D01*
X50354Y-44842D02*
X50354Y-41890D01*
X50394Y-35828D02*
X50590Y-36024D01*
X52008Y-41654D02*
X52008Y-41496D01*
X51378Y-40866D02*
X52008Y-41496D01*
X50787Y-35433D02*
X51378Y-36024D01*
X51772Y-41890D02*
X52008Y-41654D01*
X51378Y-36024D02*
X51378Y-40866D01*
X51772Y-44842D02*
X51772Y-41890D01*
X48464Y-41654D02*
X48464Y-39252D01*
X49173Y-37874D02*
X49134Y-37913D01*
X48937Y-37441D02*
X49134Y-37441D01*
X49095Y-37126D02*
X48898Y-37323D01*
X49134Y-37913D02*
X48938Y-37913D01*
X48464Y-39252D02*
X48898Y-38818D01*
X49173Y-37559D02*
X49134Y-37598D01*
X49409Y-37126D02*
X49095Y-37126D01*
X48701Y-44842D02*
X48701Y-41891D01*
X48898Y-37717D02*
X48937Y-37756D01*
X48898Y-37402D02*
X48937Y-37441D01*
X49134Y-37598D02*
X48938Y-37598D01*
X48701Y-41891D02*
X48464Y-41654D01*
X48937Y-37756D02*
X49134Y-37756D01*
X48898Y-37953D02*
X48898Y-38818D01*
X48898Y-37638D02*
X48898Y-37717D01*
X49173Y-37480D02*
X49173Y-37559D01*
X48938Y-37913D02*
X48898Y-37953D01*
X48898Y-37323D02*
X48898Y-37402D01*
X49134Y-37441D02*
X49173Y-37480D01*
X48938Y-37598D02*
X48898Y-37638D01*
X49173Y-37795D02*
X49173Y-37874D01*
X49134Y-37756D02*
X49173Y-37795D01*
X52244Y-41890D02*
X52480Y-41654D01*
X51890Y-35236D02*
X51772Y-35354D01*
X51772Y-35354D02*
X51772Y-40789D01*
X52362Y-35039D02*
X52165Y-35236D01*
X52480Y-41654D02*
X52480Y-41497D01*
X52165Y-35236D02*
X51890Y-35236D01*
X51772Y-40789D02*
X52480Y-41497D01*
X52244Y-44842D02*
X52244Y-41890D01*
X52165Y-36024D02*
X52165Y-40787D01*
X52480Y-41890D02*
X52716Y-41654D01*
X52716Y-41654D02*
X52716Y-41338D01*
X51968Y-35827D02*
X52165Y-36024D01*
X52165Y-40787D02*
X52716Y-41338D01*
X52480Y-44842D02*
X52480Y-41890D01*
X50827Y-44842D02*
X50827Y-41890D01*
X51063Y-41418D02*
X50984Y-41339D01*
X50827Y-41890D02*
X51063Y-41654D01*
X50984Y-41339D02*
X50984Y-36417D01*
X51063Y-41654D02*
X51063Y-41418D01*
X50787Y-36220D02*
X50984Y-36417D01*
X51535Y-41654D02*
X51535Y-41496D01*
X50788Y-35827D02*
X51181Y-36220D01*
X50787Y-35827D02*
X50788Y-35827D01*
X51181Y-41142D02*
X51535Y-41496D01*
X51299Y-44842D02*
X51299Y-41890D01*
X51299Y-41890D02*
X51535Y-41654D01*
X51181Y-36220D02*
X51181Y-41142D01*
X49882Y-44842D02*
X49882Y-41889D01*
X49882Y-41889D02*
X50118Y-41653D01*
X50118Y-41653D02*
X50118Y-41497D01*
X50394Y-38268D02*
X50393Y-38268D01*
X49842Y-41221D02*
X50118Y-41497D01*
X49842Y-39449D02*
X49842Y-41221D01*
X49882Y-39409D02*
X49842Y-39449D01*
X50079Y-39409D02*
X49882Y-39409D01*
X50118Y-39370D02*
X50079Y-39409D01*
X50118Y-39291D02*
X50118Y-39370D01*
X50079Y-39252D02*
X50118Y-39291D01*
X49882Y-39252D02*
X50079Y-39252D01*
X49842Y-39212D02*
X49882Y-39252D01*
X49842Y-39134D02*
X49842Y-39212D01*
X49882Y-39094D02*
X49842Y-39134D01*
X50079Y-39094D02*
X49882Y-39094D01*
X50118Y-39055D02*
X50079Y-39094D01*
X50118Y-38976D02*
X50118Y-39055D01*
X50079Y-38937D02*
X50118Y-38976D01*
X49882Y-38937D02*
X50079Y-38937D01*
X49842Y-38897D02*
X49882Y-38937D01*
X49842Y-38819D02*
X49842Y-38897D01*
X50393Y-38268D02*
X49842Y-38819D01*
X50394Y-38268D02*
X50394Y-37323D01*
X62638Y-44842D02*
X62638Y-44844D01*
X60748Y-38701D02*
X60748Y-42954D01*
X60748Y-38701D02*
X56693Y-34646D01*
X60748Y-42954D02*
X62638Y-44844D01*
X55512Y-41181D02*
X56260Y-41929D01*
X56260Y-44842D02*
X56260Y-41929D01*
X55512Y-36220D02*
X55512Y-41181D01*
X53386Y-38031D02*
X53189Y-38031D01*
X53386Y-38504D02*
X53425Y-38543D01*
X53425Y-37283D02*
X53425Y-37362D01*
X53150Y-39330D02*
X53150Y-39410D01*
X53386Y-37874D02*
X53425Y-37913D01*
X53386Y-39291D02*
X53189Y-39291D01*
X53150Y-38700D02*
X53150Y-38780D01*
X53386Y-38346D02*
X53189Y-38346D01*
X53150Y-38150D02*
X53189Y-38189D01*
X53150Y-37441D02*
X53150Y-37520D01*
X53425Y-37992D02*
X53386Y-38031D01*
X53189Y-38504D02*
X53386Y-38504D01*
X53386Y-38189D02*
X53425Y-38228D01*
X53386Y-39449D02*
X53425Y-39488D01*
X53150Y-38070D02*
X53150Y-38150D01*
X53189Y-37559D02*
X53386Y-37559D01*
X53386Y-39134D02*
X53425Y-39173D01*
X53189Y-38189D02*
X53386Y-38189D01*
X53189Y-39449D02*
X53386Y-39449D01*
X53189Y-39291D02*
X53150Y-39330D01*
X53150Y-39410D02*
X53189Y-39449D01*
X53189Y-37874D02*
X53386Y-37874D01*
X53386Y-37716D02*
X53189Y-37716D01*
X53425Y-37913D02*
X53425Y-37992D01*
X53425Y-38543D02*
X53425Y-38622D01*
X53425Y-37677D02*
X53386Y-37716D01*
X53150Y-37520D02*
X53189Y-37559D01*
X53189Y-37244D02*
X53386Y-37244D01*
X53189Y-38031D02*
X53150Y-38070D01*
X53425Y-39252D02*
X53386Y-39291D01*
X53425Y-37598D02*
X53425Y-37677D01*
X53150Y-38780D02*
X53189Y-38819D01*
X53150Y-37008D02*
X53150Y-37205D01*
X53150Y-38465D02*
X53189Y-38504D01*
X53150Y-38385D02*
X53150Y-38465D01*
X53425Y-38937D02*
X53386Y-38976D01*
X53386Y-37559D02*
X53425Y-37598D01*
X53189Y-37716D02*
X53150Y-37755D01*
X53189Y-38976D02*
X53150Y-39015D01*
X53425Y-38307D02*
X53386Y-38346D01*
X53386Y-38819D02*
X53425Y-38858D01*
X53150Y-40433D02*
X54370Y-41653D01*
X53150Y-37755D02*
X53150Y-37835D01*
X53386Y-37244D02*
X53425Y-37283D01*
X53386Y-39606D02*
X53189Y-39606D01*
X53425Y-38228D02*
X53425Y-38307D01*
X53150Y-37835D02*
X53189Y-37874D01*
X53189Y-39134D02*
X53386Y-39134D01*
X53386Y-38661D02*
X53189Y-38661D01*
X53190Y-37401D02*
X53150Y-37441D01*
X53150Y-37205D02*
X53189Y-37244D01*
X53425Y-38858D02*
X53425Y-38937D01*
X53189Y-38661D02*
X53150Y-38700D01*
X53425Y-37362D02*
X53386Y-37401D01*
X53425Y-39173D02*
X53425Y-39252D01*
X53189Y-38819D02*
X53386Y-38819D01*
X53425Y-39567D02*
X53386Y-39606D01*
X53150Y-39015D02*
X53150Y-39095D01*
X53189Y-39606D02*
X53150Y-39645D01*
X53189Y-38346D02*
X53150Y-38385D01*
X53425Y-39488D02*
X53425Y-39567D01*
X53150Y-39095D02*
X53189Y-39134D01*
X53425Y-38622D02*
X53386Y-38661D01*
X53386Y-38976D02*
X53189Y-38976D01*
X53150Y-39645D02*
X53150Y-40433D01*
X53386Y-37401D02*
X53190Y-37401D01*
X48701Y-38268D02*
X48701Y-38346D01*
X48464Y-38701D02*
X45512Y-41653D01*
X48661Y-38386D02*
X48464Y-38386D01*
X48464Y-38071D02*
X48425Y-38110D01*
X48701Y-37402D02*
X48662Y-37441D01*
X48425Y-37795D02*
X48425Y-37874D01*
X48425Y-37244D02*
X48464Y-37283D01*
X48661Y-37598D02*
X48701Y-37638D01*
X48701Y-38031D02*
X48661Y-38071D01*
X48425Y-38425D02*
X48425Y-38504D01*
X48701Y-38661D02*
X48661Y-38701D01*
X48425Y-37480D02*
X48425Y-37559D01*
X48425Y-37874D02*
X48464Y-37913D01*
X48662Y-37441D02*
X48464Y-37441D01*
X48464Y-37913D02*
X48661Y-37913D01*
X48425Y-37559D02*
X48464Y-37598D01*
X48425Y-38110D02*
X48425Y-38189D01*
X48661Y-37756D02*
X48464Y-37756D01*
X48425Y-38189D02*
X48464Y-38228D01*
X48425Y-38425D02*
X48464Y-38386D01*
X48464Y-37441D02*
X48425Y-37480D01*
X48661Y-38701D02*
X48464Y-38701D01*
X48464Y-37756D02*
X48425Y-37795D01*
X48661Y-38071D02*
X48464Y-38071D01*
X48661Y-38228D02*
X48701Y-38268D01*
X48701Y-37716D02*
X48661Y-37756D01*
X48701Y-38583D02*
X48701Y-38661D01*
X48425Y-38504D02*
X48464Y-38543D01*
X45512Y-41653D02*
X44921Y-41653D01*
X48464Y-37598D02*
X48661Y-37598D01*
X48464Y-37283D02*
X48661Y-37283D01*
X48701Y-37323D02*
X48701Y-37402D01*
X48464Y-38543D02*
X48661Y-38543D01*
X48701Y-37953D02*
X48701Y-38031D01*
X48701Y-38346D02*
X48661Y-38386D01*
X48661Y-37913D02*
X48701Y-37953D01*
X48425Y-36220D02*
X48425Y-37244D01*
X48701Y-37638D02*
X48701Y-37716D01*
X48464Y-38228D02*
X48661Y-38228D01*
X48661Y-37283D02*
X48701Y-37323D01*
X48661Y-38543D02*
X48701Y-38583D01*
X47835Y-36811D02*
X43031Y-41615D01*
X42323Y-44843D02*
X43031Y-44135D01*
X47835Y-36811D02*
X47835Y-36141D01*
X43031Y-44135D02*
X43031Y-41615D01*
X42323Y-44842D02*
X42323Y-44843D01*
X48622Y-34843D02*
X48819Y-34646D01*
X48150Y-36024D02*
X47952Y-36024D01*
X48228Y-34961D02*
X48228Y-35946D01*
X48621Y-34842D02*
X48347Y-34842D01*
X48347Y-34842D02*
X48228Y-34961D01*
X48228Y-35946D02*
X48150Y-36024D01*
X47952Y-36024D02*
X47835Y-36141D01*
X48622Y-34843D02*
X48621Y-34842D01*
X53779Y-40038D02*
X55787Y-42046D01*
X55866Y-44842D02*
X55866Y-42126D01*
X55866Y-42126D02*
X55787Y-42047D01*
X55787Y-42046D02*
X55787Y-42047D01*
X53779Y-36456D02*
X53779Y-40038D01*
X53543Y-36220D02*
X53779Y-36456D01*
X52953Y-40630D02*
X54331Y-42008D01*
X54331Y-42008D02*
X54331Y-43701D01*
X52756Y-35433D02*
X52953Y-35630D01*
X54331Y-43701D02*
X55472Y-44842D01*
X52953Y-35630D02*
X52953Y-40630D01*
X55709Y-32480D02*
X55709Y-34055D01*
X56102Y-34449D02*
X56890Y-34449D01*
X55709Y-32480D02*
X55512Y-32283D01*
X55747Y-34094D02*
X56102Y-34449D01*
X62165Y-41614D02*
X62165Y-39724D01*
X56890Y-34449D02*
X62165Y-39724D01*
X55709Y-34055D02*
X55747Y-34094D01*
X56772Y-37795D02*
X56772Y-37873D01*
X56536Y-37597D02*
X56496Y-37637D01*
X56733Y-38071D02*
X56772Y-38110D01*
X56496Y-36417D02*
X56299Y-36220D01*
X56535Y-36811D02*
X56732Y-36811D01*
X56733Y-37756D02*
X56772Y-37795D01*
X56772Y-36928D02*
X56732Y-36968D01*
X56732Y-36968D02*
X56535Y-36968D01*
X56535Y-38386D02*
X56811Y-38386D01*
X56496Y-37637D02*
X56496Y-37717D01*
X56496Y-36772D02*
X56535Y-36811D01*
X56732Y-37913D02*
X56535Y-37913D01*
X56732Y-37441D02*
X56771Y-37480D01*
X56496Y-36417D02*
X56496Y-36772D01*
X56535Y-37126D02*
X56732Y-37126D01*
X56732Y-38228D02*
X56536Y-38228D01*
X56732Y-36811D02*
X56772Y-36851D01*
X56496Y-37087D02*
X56535Y-37126D01*
X56771Y-37243D02*
X56732Y-37282D01*
X56811Y-38386D02*
X60039Y-41614D01*
X56771Y-38189D02*
X56732Y-38228D01*
X56496Y-37952D02*
X56496Y-38032D01*
X56496Y-37717D02*
X56535Y-37756D01*
X56772Y-36851D02*
X56772Y-36928D01*
X56771Y-37165D02*
X56771Y-37243D01*
X56771Y-37480D02*
X56771Y-37558D01*
X56772Y-38189D02*
X56771Y-38189D01*
X56496Y-38032D02*
X56535Y-38071D01*
X56496Y-37322D02*
X56496Y-37402D01*
X56772Y-37873D02*
X56732Y-37913D01*
X56535Y-37441D02*
X56732Y-37441D01*
X56496Y-38347D02*
X56535Y-38386D01*
X56536Y-37282D02*
X56496Y-37322D01*
X56496Y-38268D02*
X56496Y-38347D01*
X56771Y-37558D02*
X56732Y-37597D01*
X56732Y-37597D02*
X56536Y-37597D01*
X56535Y-37756D02*
X56733Y-37756D01*
X56535Y-38071D02*
X56733Y-38071D01*
X56535Y-36968D02*
X56496Y-37007D01*
X56732Y-37282D02*
X56536Y-37282D01*
X56496Y-37007D02*
X56496Y-37087D01*
X56536Y-38228D02*
X56496Y-38268D01*
X56496Y-37402D02*
X56535Y-37441D01*
X56732Y-37126D02*
X56771Y-37165D01*
X56772Y-38110D02*
X56772Y-38189D01*
X56535Y-37913D02*
X56496Y-37952D01*
X56063Y-38976D02*
X56063Y-39055D01*
X56063Y-38661D02*
X56063Y-38740D01*
X56063Y-36851D02*
X56024Y-36890D01*
X55828Y-38149D02*
X55788Y-38189D01*
X56023Y-38306D02*
X56063Y-38346D01*
X56063Y-37166D02*
X56024Y-37205D01*
X55827Y-37991D02*
X56023Y-37991D01*
X55787Y-38819D02*
X55787Y-38897D01*
X55788Y-38582D02*
X55827Y-38621D01*
X55905Y-36220D02*
X55905Y-36378D01*
X56063Y-36457D02*
X56063Y-36536D01*
X55827Y-38306D02*
X56023Y-38306D01*
X55905Y-39134D02*
X55905Y-41299D01*
X56063Y-37481D02*
X56024Y-37520D01*
X55788Y-37952D02*
X55827Y-37991D01*
X55787Y-37007D02*
X55827Y-37047D01*
X56023Y-37047D02*
X56063Y-37087D01*
X56260Y-41653D02*
X56260Y-41654D01*
X56024Y-39094D02*
X55945Y-39094D01*
X55827Y-37677D02*
X56024Y-37677D01*
X56024Y-36890D02*
X55826Y-36890D01*
X55945Y-36417D02*
X56023Y-36417D01*
X55788Y-37874D02*
X55788Y-37952D01*
X55788Y-38189D02*
X55788Y-38267D01*
X56063Y-36772D02*
X56063Y-36851D01*
X56024Y-37677D02*
X56063Y-37716D01*
X55905Y-36378D02*
X55906Y-36378D01*
X56063Y-37796D02*
X56024Y-37835D01*
X56063Y-38740D02*
X56024Y-38779D01*
X56024Y-38464D02*
X55828Y-38464D01*
X56024Y-38779D02*
X55827Y-38779D01*
X55787Y-36929D02*
X55787Y-37007D01*
X56023Y-37362D02*
X56063Y-37402D01*
X56024Y-38149D02*
X55828Y-38149D01*
X55787Y-37559D02*
X55787Y-37637D01*
X55826Y-36575D02*
X55787Y-36614D01*
X55787Y-38897D02*
X55827Y-38937D01*
X55827Y-38621D02*
X56023Y-38621D01*
X55905Y-41299D02*
X56260Y-41654D01*
X56063Y-38031D02*
X56063Y-38110D01*
X56063Y-37087D02*
X56063Y-37166D01*
X56063Y-37716D02*
X56063Y-37796D01*
X56063Y-37402D02*
X56063Y-37481D01*
X56063Y-39055D02*
X56024Y-39094D01*
X56063Y-38110D02*
X56024Y-38149D01*
X56063Y-38425D02*
X56024Y-38464D01*
X55826Y-37205D02*
X55787Y-37244D01*
X55788Y-38504D02*
X55788Y-38582D01*
X55827Y-37047D02*
X56023Y-37047D01*
X55945Y-39094D02*
X55905Y-39134D01*
X55828Y-38464D02*
X55788Y-38504D01*
X55827Y-37362D02*
X56023Y-37362D01*
X55787Y-37637D02*
X55827Y-37677D01*
X55787Y-36692D02*
X55827Y-36732D01*
X56063Y-36536D02*
X56024Y-36575D01*
X56063Y-38346D02*
X56063Y-38425D01*
X56023Y-37991D02*
X56063Y-38031D01*
X55827Y-38779D02*
X55787Y-38819D01*
X55826Y-37520D02*
X55787Y-37559D01*
X55826Y-36890D02*
X55787Y-36929D01*
X55827Y-36732D02*
X56023Y-36732D01*
X56024Y-37205D02*
X55826Y-37205D01*
X56023Y-36417D02*
X56063Y-36457D01*
X56024Y-38937D02*
X56063Y-38976D01*
X55827Y-37835D02*
X55788Y-37874D01*
X55787Y-37322D02*
X55827Y-37362D01*
X55906Y-36378D02*
X55945Y-36417D01*
X55827Y-38937D02*
X56024Y-38937D01*
X56024Y-37835D02*
X55827Y-37835D01*
X55788Y-38267D02*
X55827Y-38306D01*
X55787Y-37244D02*
X55787Y-37322D01*
X56024Y-37520D02*
X55826Y-37520D01*
X56023Y-36732D02*
X56063Y-36772D01*
X55787Y-36614D02*
X55787Y-36692D01*
X56023Y-38621D02*
X56063Y-38661D01*
X56024Y-36575D02*
X55826Y-36575D01*
X52559Y-40787D02*
X53662Y-41890D01*
X52756Y-35827D02*
X52559Y-36024D01*
X53662Y-44370D02*
X53662Y-41890D01*
X54134Y-44842D02*
X53662Y-44370D01*
X52559Y-36024D02*
X52559Y-40787D01*
X52362Y-39016D02*
X52362Y-36220D01*
X48228Y-36732D02*
X43307Y-41653D01*
X48346Y-36024D02*
X48228Y-36142D01*
X48228Y-36732D02*
X48228Y-36142D01*
X49015Y-36024D02*
X48346Y-36024D01*
X49212Y-35827D02*
X49015Y-36024D01*
X47834Y-35630D02*
X48031Y-35433D01*
X42323Y-41929D02*
X47008Y-37244D01*
X47165Y-36811D02*
X47008Y-36968D01*
X47441Y-36732D02*
X47362Y-36811D01*
X47441Y-35748D02*
X47559Y-35630D01*
X47008Y-37244D02*
X47008Y-36968D01*
X47559Y-35630D02*
X47834Y-35630D01*
X40197Y-44842D02*
X42323Y-42716D01*
X47441Y-35748D02*
X47441Y-36732D01*
X47362Y-36811D02*
X47165Y-36811D01*
X42323Y-42716D02*
X42323Y-41929D01*
X48937Y-44842D02*
X48937Y-41890D01*
X48937Y-41890D02*
X49173Y-41654D01*
X49173Y-41654D02*
X49173Y-38858D01*
X49173Y-38858D02*
X50000Y-38031D01*
X50000Y-38031D02*
X50000Y-36220D01*
X49646Y-38700D02*
X50197Y-38149D01*
X50197Y-38149D02*
X50197Y-36417D01*
X49409Y-44842D02*
X49409Y-41891D01*
X49409Y-41891D02*
X49646Y-41654D01*
X50394Y-36220D02*
X50197Y-36417D01*
X49646Y-41654D02*
X49646Y-38700D01*
G54D22*
X52559Y-34055D02*
X52362Y-33858D01*
X54724Y-31890D02*
X54331Y-32283D01*
X50000Y-34252D02*
X50000Y-34055D01*
X53346Y-34055D02*
X53346Y-34449D01*
X52559Y-34842D02*
X52559Y-34055D01*
X54331Y-32283D02*
X54331Y-32677D01*
X52362Y-33858D02*
X52165Y-34055D01*
X55118Y-31890D02*
X54724Y-31890D01*
X54016Y-34055D02*
X53346Y-34055D01*
X50000Y-34055D02*
X49409Y-34055D01*
X54134Y-32874D02*
X54134Y-33937D01*
X50000Y-34646D02*
X50000Y-34252D01*
X51575Y-34055D02*
X51575Y-34252D01*
X49409Y-34055D02*
X49212Y-33858D01*
X54331Y-32677D02*
X54134Y-32874D01*
X50787Y-34055D02*
X50000Y-34055D01*
X54252Y-34055D02*
X54921Y-34055D01*
X54134Y-33937D02*
X54016Y-34055D01*
X54134Y-33937D02*
X54252Y-34055D01*
X50787Y-34055D02*
X51575Y-34055D01*
X52165Y-34055D02*
X51575Y-34055D01*
X54331Y-32677D02*
X54724Y-32677D01*
X52756Y-35039D02*
X52559Y-34842D01*
X54724Y-32677D02*
X55118Y-32677D01*
X50787Y-34252D02*
X50787Y-34055D01*
X52559Y-34055D02*
X53346Y-34055D01*
X54921Y-34055D02*
X55118Y-34252D01*
X53346Y-34449D02*
X53543Y-34646D01*
G54D21*
X65158Y-34842D02*
X66653Y-34842D01*
X64724Y-35276D02*
X65158Y-34842D01*
X66653Y-34842D02*
X67559Y-35748D01*
X67559Y-35748D02*
X68307Y-35748D01*
X56102Y-32874D02*
X55905Y-32677D01*
X64252Y-24685D02*
X61220Y-27717D01*
X64882Y-24685D02*
X64252Y-24685D01*
X59843Y-32874D02*
X56102Y-32874D01*
X61220Y-27717D02*
X61220Y-31497D01*
X61220Y-31497D02*
X59843Y-32874D01*
X66929Y-26024D02*
X67126Y-25827D01*
X56693Y-33858D02*
X59645Y-33858D01*
X64842Y-26024D02*
X66929Y-26024D01*
X61890Y-28976D02*
X64842Y-26024D01*
X61890Y-31613D02*
X61890Y-28976D01*
X59645Y-33858D02*
X61890Y-31613D01*
X64882Y-24331D02*
X64331Y-24331D01*
X61024Y-27637D02*
X61024Y-31417D01*
X63582Y-25079D02*
X61024Y-27637D01*
X64331Y-24331D02*
X63583Y-25079D01*
X59764Y-32677D02*
X56299Y-32677D01*
X61024Y-31417D02*
X59764Y-32677D01*
X63583Y-25079D02*
X63582Y-25079D01*
X61693Y-28899D02*
X64765Y-25827D01*
X56496Y-33661D02*
X59567Y-33661D01*
X66457Y-25630D02*
X66260Y-25827D01*
X66260Y-25827D02*
X64765Y-25827D01*
X66732Y-25827D02*
X66772Y-25787D01*
X59567Y-33661D02*
X61693Y-31535D01*
X56299Y-33858D02*
X56496Y-33661D01*
X66772Y-25670D02*
X66732Y-25630D01*
X61693Y-31535D02*
X61693Y-28899D01*
X66772Y-25787D02*
X66772Y-25670D01*
X66575Y-25827D02*
X66732Y-25827D01*
X66732Y-25630D02*
X66457Y-25630D01*
X66378Y-32598D02*
X66024Y-32244D01*
X66024Y-32244D02*
X64567Y-32244D01*
X54527Y-25631D02*
X54527Y-26969D01*
X55236Y-20001D02*
X55039Y-20198D01*
X55039Y-25119D02*
X54527Y-25631D01*
X54527Y-26969D02*
X54331Y-27165D01*
X55039Y-20198D02*
X55039Y-25119D01*
X53779Y-22244D02*
X53779Y-20276D01*
X52953Y-27362D02*
X52953Y-25668D01*
X53504Y-22519D02*
X53779Y-22244D01*
X52756Y-27559D02*
X52953Y-27362D01*
X53779Y-20276D02*
X54055Y-20000D01*
X53504Y-25117D02*
X53504Y-22519D01*
X52953Y-25668D02*
X53504Y-25117D01*
X53740Y-22992D02*
X53661Y-22913D01*
X53150Y-27165D02*
X53150Y-27164D01*
X53622Y-26968D02*
X53740Y-26850D01*
X53661Y-22913D02*
X53661Y-22756D01*
X53346Y-26968D02*
X53622Y-26968D01*
X53740Y-26850D02*
X53740Y-22992D01*
X53661Y-22756D02*
X53858Y-22559D01*
X53150Y-27164D02*
X53346Y-26968D01*
X53937Y-22914D02*
X53858Y-22835D01*
X53937Y-22914D02*
X53937Y-26772D01*
X52362Y-27165D02*
X52559Y-26968D01*
X53268Y-22283D02*
X52559Y-22992D01*
X53268Y-20000D02*
X53268Y-22283D01*
X52559Y-26968D02*
X52559Y-22992D01*
X53071Y-22205D02*
X52165Y-23111D01*
X53071Y-19685D02*
X53071Y-22205D01*
X52362Y-27953D02*
X52165Y-27756D01*
X52165Y-27756D02*
X52165Y-23111D01*
X51378Y-22126D02*
X52480Y-21024D01*
X52480Y-21024D02*
X52480Y-19882D01*
X51378Y-27756D02*
X51575Y-27953D01*
X51378Y-22126D02*
X51378Y-27756D01*
X52480Y-19882D02*
X52677Y-19685D01*
X52677Y-21103D02*
X52677Y-19961D01*
X51772Y-28150D02*
X51772Y-22008D01*
X51772Y-22008D02*
X52677Y-21103D01*
X51968Y-28346D02*
X51772Y-28150D01*
X61063Y-18228D02*
X61339Y-18504D01*
X57441Y-18465D02*
X57678Y-18228D01*
X61339Y-18504D02*
X61338Y-18504D01*
X47953Y-18465D02*
X53897Y-18465D01*
X54724Y-18228D02*
X54961Y-18465D01*
X55827Y-18465D02*
X57441Y-18465D01*
X54134Y-18228D02*
X54724Y-18228D01*
X53897Y-18465D02*
X54134Y-18228D01*
X54961Y-18465D02*
X55827Y-18465D01*
X57678Y-18228D02*
X61063Y-18228D01*
G54D22*
X52953Y-28937D02*
X54134Y-28937D01*
X54331Y-28740D02*
X54331Y-28346D01*
X52756Y-27953D02*
X52953Y-28150D01*
X52165Y-28543D02*
X52362Y-28346D01*
X51890Y-28937D02*
X52165Y-28937D01*
X51575Y-28346D02*
X51772Y-28543D01*
X52953Y-28937D02*
X52165Y-28937D01*
X54134Y-28937D02*
X54331Y-28740D01*
X52953Y-28150D02*
X52953Y-28937D01*
X51772Y-28543D02*
X51772Y-28819D01*
X52165Y-28937D02*
X52165Y-28543D01*
X51772Y-28819D02*
X51890Y-28937D01*
G54D21*
X50000Y-27953D02*
X50197Y-27756D01*
X50118Y-25354D02*
X50197Y-25433D01*
X50118Y-19685D02*
X50118Y-25354D01*
X50197Y-27756D02*
X50197Y-25433D01*
X48937Y-25000D02*
X49409Y-25472D01*
X49409Y-27756D02*
X49212Y-27953D01*
X48937Y-19961D02*
X48937Y-25000D01*
X49409Y-25472D02*
X49409Y-27756D01*
X48740Y-25275D02*
X49016Y-25551D01*
X49016Y-25551D02*
X49016Y-26969D01*
X49016Y-26969D02*
X49212Y-27165D01*
X48740Y-19685D02*
X48740Y-25275D01*
X48543Y-21693D02*
X48346Y-21890D01*
X48425Y-27165D02*
X48622Y-26968D01*
X48622Y-25591D02*
X48543Y-25512D01*
X48622Y-26968D02*
X48622Y-25591D01*
X48346Y-21890D02*
X48346Y-22401D01*
X48346Y-22401D02*
X48543Y-22598D01*
X48543Y-25512D02*
X48543Y-22598D01*
X48543Y-21693D02*
X48543Y-20118D01*
X48031Y-27953D02*
X47835Y-27757D01*
X47756Y-21890D02*
X47756Y-22363D01*
X47835Y-21810D02*
X48150Y-21495D01*
X47835Y-21811D02*
X47756Y-21890D01*
X48149Y-20157D02*
X48150Y-21495D01*
X47756Y-22363D02*
X47835Y-22442D01*
X47835Y-27757D02*
X47835Y-22442D01*
X47835Y-21811D02*
X47835Y-21810D01*
X48150Y-21771D02*
X48150Y-22559D01*
X48150Y-19882D02*
X48346Y-20078D01*
X48425Y-27953D02*
X48228Y-27756D01*
X48346Y-21575D02*
X48150Y-21771D01*
X48228Y-27756D02*
X48228Y-22637D01*
X48346Y-20078D02*
X48346Y-21575D01*
X48150Y-22559D02*
X48228Y-22637D01*
X49921Y-25315D02*
X49803Y-25433D01*
X50000Y-27559D02*
X49803Y-27362D01*
X49803Y-27362D02*
X49803Y-25433D01*
X49921Y-19961D02*
X49921Y-25315D01*
X50590Y-27362D02*
X50590Y-23228D01*
X50590Y-23228D02*
X50354Y-22993D01*
X50787Y-27559D02*
X50590Y-27362D01*
G54D22*
X50000Y-28740D02*
X50787Y-28740D01*
X49803Y-28937D02*
X50000Y-28740D01*
X50787Y-28740D02*
X50787Y-29134D01*
X50000Y-28740D02*
X50000Y-28346D01*
X49212Y-28740D02*
X49409Y-28937D01*
X49409Y-28937D02*
X49803Y-28937D01*
G54D21*
X54724Y-30315D02*
X54921Y-30118D01*
X54921Y-30118D02*
X57087Y-30118D01*
X64685Y-22520D02*
X57087Y-30118D01*
X64685Y-20000D02*
X64685Y-22520D01*
X64488Y-22441D02*
X57205Y-29724D01*
X54921Y-29724D02*
X57205Y-29724D01*
X54724Y-29921D02*
X54921Y-29724D01*
X64488Y-19685D02*
X64488Y-22441D01*
X64291Y-22362D02*
X57716Y-28937D01*
X64291Y-20000D02*
X64291Y-22362D01*
X54921Y-28937D02*
X57716Y-28937D01*
X54724Y-29134D02*
X54921Y-28937D01*
X64094Y-22284D02*
X57835Y-28543D01*
X54724Y-28740D02*
X54921Y-28543D01*
X54921Y-28543D02*
X57835Y-28543D01*
X64094Y-19685D02*
X64094Y-22284D01*
X63898Y-22204D02*
X57952Y-28150D01*
X63898Y-20000D02*
X63898Y-22204D01*
X54921Y-28150D02*
X57952Y-28150D01*
X54724Y-28346D02*
X54725Y-28346D01*
X54725Y-28346D02*
X54921Y-28150D01*
G54D22*
X54331Y-29527D02*
X54134Y-29724D01*
X55315Y-30512D02*
X53937Y-30512D01*
X53937Y-30315D02*
X53937Y-30512D01*
X54134Y-29724D02*
X54134Y-30118D01*
X54134Y-30118D02*
X53937Y-30315D01*
X53937Y-30512D02*
X53937Y-30709D01*
X55512Y-30315D02*
X55315Y-30512D01*
X53740Y-29331D02*
X53543Y-29134D01*
X53543Y-33858D02*
X53740Y-33661D01*
X53346Y-29331D02*
X53543Y-29134D01*
X53937Y-31102D02*
X53740Y-31102D01*
X49016Y-33661D02*
X53346Y-33661D01*
X48819Y-33858D02*
X49016Y-33661D01*
X48819Y-29134D02*
X49016Y-29331D01*
X53740Y-31102D02*
X53740Y-29331D01*
X53740Y-33661D02*
X53740Y-31102D01*
X49016Y-29331D02*
X53346Y-29331D01*
X53346Y-33661D02*
X53543Y-33858D01*
G54D21*
X38543Y-36142D02*
X45079Y-36142D01*
X47638Y-34646D02*
X47637Y-34646D01*
X45079Y-36142D02*
X46378Y-34842D01*
X36535Y-32362D02*
X36968Y-32795D01*
X36968Y-32795D02*
X37559Y-32795D01*
X37677Y-35276D02*
X38543Y-36142D01*
X47441Y-34842D02*
X46378Y-34842D01*
X37559Y-32795D02*
X37677Y-32913D01*
X47637Y-34646D02*
X47441Y-34842D01*
X37677Y-32913D02*
X37677Y-35276D01*
X38385Y-35590D02*
X44056Y-35590D01*
X44056Y-35590D02*
X45591Y-34055D01*
X47638Y-34252D02*
X47441Y-34055D01*
X38110Y-33937D02*
X37913Y-34134D01*
X37913Y-35118D02*
X38385Y-35590D01*
X47441Y-34055D02*
X45591Y-34055D01*
X37913Y-34134D02*
X37913Y-35118D01*
X46378Y-34449D02*
X44843Y-35984D01*
X48031Y-34253D02*
X47835Y-34449D01*
X37009Y-32520D02*
X37166Y-32677D01*
X38583Y-35984D02*
X44843Y-35984D01*
X37795Y-32835D02*
X37795Y-34999D01*
X38583Y-35984D02*
X37796Y-35197D01*
X37008Y-32520D02*
X37009Y-32520D01*
X37796Y-35000D02*
X37796Y-35197D01*
X48031Y-34252D02*
X48031Y-34253D01*
X37637Y-32677D02*
X37795Y-32835D01*
X37795Y-34999D02*
X37796Y-35000D01*
X36535Y-32047D02*
X37008Y-32520D01*
X47835Y-34449D02*
X46378Y-34449D01*
X37166Y-32677D02*
X37637Y-32677D01*
X69370Y-23623D02*
X69370Y-31575D01*
X64331Y-19055D02*
X64882Y-18504D01*
X67481Y-19016D02*
X67913Y-19448D01*
X65394Y-19016D02*
X67481Y-19016D01*
X65394Y-19016D02*
X64882Y-18504D01*
X65039Y-34646D02*
X66260Y-33425D01*
X59842Y-19055D02*
X64331Y-19055D01*
X67913Y-19448D02*
X67913Y-22166D01*
X66260Y-33425D02*
X67520Y-33425D01*
X67913Y-22166D02*
X69370Y-23623D01*
X59606Y-18819D02*
X59842Y-19055D01*
X67520Y-33425D02*
X69370Y-31575D01*
X68583Y-33621D02*
X70511Y-31693D01*
X39527Y-17756D02*
X69725Y-17756D01*
X68583Y-34527D02*
X68583Y-33621D01*
X70511Y-31693D02*
X70511Y-18544D01*
X69725Y-17756D02*
X70511Y-18544D01*
X68346Y-34764D02*
X68583Y-34527D01*
X37913Y-19370D02*
X39527Y-17756D01*
X62519Y-32757D02*
X63543Y-33781D01*
X63778Y-35709D02*
X63543Y-35474D01*
X66496Y-35079D02*
X65866Y-35709D01*
X63543Y-35474D02*
X63543Y-33781D01*
X65866Y-35709D02*
X63778Y-35709D01*
X63701Y-35827D02*
X66378Y-35827D01*
X66496Y-35945D02*
X66378Y-35827D01*
X63346Y-33977D02*
X63346Y-35472D01*
X62519Y-33150D02*
X63346Y-33977D01*
X63346Y-35472D02*
X63701Y-35827D01*
X62874Y-18386D02*
X63110Y-18386D01*
X40905Y-21930D02*
X39764Y-23071D01*
X68307Y-18504D02*
X67874Y-18071D01*
X62559Y-18071D02*
X62874Y-18386D01*
X63425Y-18071D02*
X67874Y-18071D01*
X39764Y-23071D02*
X38465Y-23071D01*
X40905Y-19331D02*
X42165Y-18071D01*
X70197Y-31535D02*
X67559Y-34173D01*
X63110Y-18386D02*
X63425Y-18071D01*
X42165Y-18071D02*
X62559Y-18071D01*
X69607Y-19764D02*
X68819Y-19764D01*
X40905Y-19331D02*
X40905Y-21930D01*
X70197Y-20354D02*
X69607Y-19764D01*
X70197Y-20354D02*
X70197Y-31535D01*
X68819Y-19764D02*
X68307Y-19252D01*
X68307Y-19252D02*
X68307Y-18504D01*
X35551Y-25433D02*
X36103Y-25433D01*
X38465Y-23071D02*
X36103Y-25433D01*
X38307Y-19764D02*
X38307Y-19331D01*
X33543Y-21929D02*
X35354Y-20118D01*
X37953Y-20118D02*
X38307Y-19764D01*
X38307Y-19331D02*
X39725Y-17913D01*
X69644Y-17913D02*
X70354Y-18623D01*
X68346Y-33623D02*
X70354Y-31615D01*
X68346Y-34331D02*
X68346Y-33623D01*
X70354Y-18623D02*
X70354Y-31615D01*
X69644Y-17913D02*
X39725Y-17913D01*
X33779Y-23070D02*
X33543Y-22834D01*
X33779Y-25551D02*
X33779Y-23070D01*
X33543Y-22834D02*
X33543Y-21929D01*
X35354Y-20118D02*
X37953Y-20118D01*
X67638Y-46535D02*
X67638Y-36929D01*
X66417Y-47756D02*
X67638Y-46535D01*
X67638Y-36929D02*
X67008Y-36299D01*
X38936Y-23386D02*
X39803Y-23386D01*
X43268Y-19055D02*
X57913Y-19055D01*
X67441Y-19252D02*
X67756Y-19567D01*
X38661Y-23661D02*
X38936Y-23386D01*
X42441Y-20748D02*
X42441Y-19882D01*
X42441Y-19882D02*
X43268Y-19055D01*
X63976Y-33110D02*
X67559Y-33110D01*
X67441Y-19252D02*
X58110Y-19252D01*
X39803Y-23386D02*
X42441Y-20748D01*
X67756Y-19567D02*
X67756Y-22244D01*
X67559Y-33110D02*
X69212Y-31457D01*
X69212Y-23700D02*
X69212Y-31457D01*
X67756Y-22244D02*
X69212Y-23700D01*
X38661Y-24606D02*
X38661Y-23661D01*
X57913Y-19055D02*
X58110Y-19252D01*
X67441Y-46417D02*
X67441Y-37323D01*
X67441Y-37323D02*
X66693Y-36575D01*
X66181Y-47677D02*
X67441Y-46417D01*
X66181Y-48031D02*
X66181Y-47677D01*
X48031Y-35039D02*
X47834Y-35236D01*
X45748Y-36220D02*
X46181Y-35787D01*
X37520Y-37598D02*
X38583Y-36535D01*
X46181Y-35354D02*
X46299Y-35236D01*
X38583Y-36535D02*
X45118Y-36535D01*
X45118Y-36535D02*
X45433Y-36220D01*
X45433Y-36220D02*
X45748Y-36220D01*
X46181Y-35787D02*
X46181Y-35354D01*
X46299Y-35236D02*
X47834Y-35236D01*
G54D10*
G36*
X43238Y-27429D02*
X41420Y-29246D01*
X41420Y-27135D01*
X41420Y-27040D01*
X41384Y-26952D01*
X41317Y-26885D01*
X41229Y-26848D01*
X41134Y-26848D01*
X41046Y-26884D01*
X40979Y-26951D01*
X40964Y-26985D01*
X40951Y-26952D01*
X40884Y-26885D01*
X40796Y-26848D01*
X40701Y-26848D01*
X40613Y-26884D01*
X40546Y-26951D01*
X40509Y-27039D01*
X40509Y-27134D01*
X40545Y-27222D01*
X40612Y-27289D01*
X40700Y-27326D01*
X40795Y-27326D01*
X40883Y-27290D01*
X40950Y-27223D01*
X40964Y-27188D01*
X40978Y-27222D01*
X41045Y-27289D01*
X41133Y-27326D01*
X41228Y-27326D01*
X41316Y-27290D01*
X41383Y-27223D01*
X41420Y-27135D01*
X41420Y-29246D01*
X40245Y-30421D01*
X40245Y-31511D01*
X40243Y-31513D01*
X40216Y-31578D01*
X40216Y-31649D01*
X40243Y-31714D01*
X40245Y-31716D01*
X40245Y-33243D01*
X40203Y-33285D01*
X40176Y-33350D01*
X40176Y-33421D01*
X40203Y-33486D01*
X40245Y-33528D01*
X40245Y-35127D01*
X40198Y-35127D01*
X40198Y-34623D01*
X40198Y-34552D01*
X40171Y-34487D01*
X40121Y-34436D01*
X40056Y-34409D01*
X39985Y-34409D01*
X39920Y-34436D01*
X39869Y-34486D01*
X39856Y-34516D01*
X39836Y-34467D01*
X39786Y-34416D01*
X39721Y-34389D01*
X39650Y-34389D01*
X39585Y-34416D01*
X39534Y-34466D01*
X39507Y-34531D01*
X39507Y-34602D01*
X39534Y-34667D01*
X39584Y-34718D01*
X39649Y-34745D01*
X39720Y-34745D01*
X39785Y-34718D01*
X39836Y-34668D01*
X39848Y-34637D01*
X39869Y-34687D01*
X39919Y-34738D01*
X39984Y-34765D01*
X40055Y-34765D01*
X40120Y-34738D01*
X40171Y-34688D01*
X40198Y-34623D01*
X40198Y-35127D01*
X38645Y-35127D01*
X38644Y-35125D01*
X38579Y-35098D01*
X38508Y-35098D01*
X38443Y-35125D01*
X38440Y-35127D01*
X38084Y-35127D01*
X38028Y-35070D01*
X38028Y-34410D01*
X38074Y-34430D01*
X38145Y-34430D01*
X38210Y-34403D01*
X38261Y-34353D01*
X38267Y-34336D01*
X38274Y-34352D01*
X38324Y-34403D01*
X38389Y-34430D01*
X38460Y-34430D01*
X38525Y-34403D01*
X38576Y-34353D01*
X38582Y-34336D01*
X38589Y-34352D01*
X38639Y-34403D01*
X38704Y-34430D01*
X38775Y-34430D01*
X38840Y-34403D01*
X38891Y-34353D01*
X38918Y-34288D01*
X38918Y-34217D01*
X38891Y-34152D01*
X38841Y-34101D01*
X38824Y-34094D01*
X38840Y-34088D01*
X38891Y-34038D01*
X38897Y-34021D01*
X38904Y-34037D01*
X38954Y-34088D01*
X39019Y-34115D01*
X39090Y-34115D01*
X39155Y-34088D01*
X39206Y-34038D01*
X39212Y-34021D01*
X39219Y-34037D01*
X39269Y-34088D01*
X39285Y-34094D01*
X39270Y-34101D01*
X39219Y-34151D01*
X39192Y-34216D01*
X39192Y-34287D01*
X39219Y-34352D01*
X39269Y-34403D01*
X39334Y-34430D01*
X39405Y-34430D01*
X39470Y-34403D01*
X39521Y-34353D01*
X39548Y-34288D01*
X39548Y-34217D01*
X39521Y-34152D01*
X39471Y-34101D01*
X39454Y-34094D01*
X39470Y-34088D01*
X39521Y-34038D01*
X39548Y-33973D01*
X39548Y-33902D01*
X39521Y-33837D01*
X39471Y-33786D01*
X39454Y-33779D01*
X39470Y-33773D01*
X39521Y-33723D01*
X39548Y-33658D01*
X39548Y-33587D01*
X39521Y-33522D01*
X39471Y-33471D01*
X39454Y-33464D01*
X39470Y-33458D01*
X39521Y-33408D01*
X39548Y-33343D01*
X39548Y-33272D01*
X39548Y-32713D01*
X39548Y-32642D01*
X39521Y-32577D01*
X39471Y-32526D01*
X39406Y-32499D01*
X39335Y-32499D01*
X39270Y-32526D01*
X39219Y-32576D01*
X39212Y-32592D01*
X39206Y-32577D01*
X39156Y-32526D01*
X39139Y-32519D01*
X39155Y-32513D01*
X39206Y-32463D01*
X39233Y-32398D01*
X39233Y-32327D01*
X39206Y-32262D01*
X39156Y-32211D01*
X39091Y-32184D01*
X39020Y-32184D01*
X38955Y-32211D01*
X38904Y-32261D01*
X38897Y-32277D01*
X38891Y-32262D01*
X38841Y-32211D01*
X38776Y-32184D01*
X38705Y-32184D01*
X38640Y-32211D01*
X38589Y-32261D01*
X38582Y-32277D01*
X38576Y-32262D01*
X38526Y-32211D01*
X38509Y-32204D01*
X38525Y-32198D01*
X38576Y-32148D01*
X38603Y-32083D01*
X38603Y-32012D01*
X38576Y-31947D01*
X38526Y-31896D01*
X38509Y-31889D01*
X38525Y-31883D01*
X38576Y-31833D01*
X38582Y-31816D01*
X38589Y-31832D01*
X38639Y-31883D01*
X38704Y-31910D01*
X38775Y-31910D01*
X38840Y-31883D01*
X38891Y-31833D01*
X38897Y-31816D01*
X38904Y-31832D01*
X38954Y-31883D01*
X39019Y-31910D01*
X39090Y-31910D01*
X39155Y-31883D01*
X39206Y-31833D01*
X39212Y-31816D01*
X39219Y-31832D01*
X39269Y-31883D01*
X39285Y-31889D01*
X39270Y-31896D01*
X39219Y-31946D01*
X39192Y-32011D01*
X39192Y-32082D01*
X39219Y-32147D01*
X39269Y-32198D01*
X39334Y-32225D01*
X39405Y-32225D01*
X39470Y-32198D01*
X39521Y-32148D01*
X39548Y-32083D01*
X39548Y-32012D01*
X39521Y-31947D01*
X39471Y-31896D01*
X39454Y-31889D01*
X39470Y-31883D01*
X39521Y-31833D01*
X39548Y-31768D01*
X39548Y-31697D01*
X39521Y-31632D01*
X39471Y-31581D01*
X39406Y-31554D01*
X39335Y-31554D01*
X39270Y-31581D01*
X39219Y-31631D01*
X39212Y-31647D01*
X39206Y-31632D01*
X39156Y-31581D01*
X39139Y-31574D01*
X39155Y-31568D01*
X39206Y-31518D01*
X39233Y-31453D01*
X39233Y-31382D01*
X39206Y-31317D01*
X39156Y-31266D01*
X39139Y-31259D01*
X39155Y-31253D01*
X39206Y-31203D01*
X39212Y-31186D01*
X39219Y-31202D01*
X39269Y-31253D01*
X39334Y-31280D01*
X39405Y-31280D01*
X39470Y-31253D01*
X39521Y-31203D01*
X39548Y-31138D01*
X39548Y-31067D01*
X39521Y-31002D01*
X39471Y-30951D01*
X39406Y-30924D01*
X39335Y-30924D01*
X39270Y-30951D01*
X39219Y-31001D01*
X39212Y-31017D01*
X39206Y-31002D01*
X39156Y-30951D01*
X39091Y-30924D01*
X39020Y-30924D01*
X38997Y-30933D01*
X38997Y-30115D01*
X38997Y-30044D01*
X38970Y-29979D01*
X38920Y-29928D01*
X38855Y-29901D01*
X38784Y-29901D01*
X38719Y-29928D01*
X38668Y-29978D01*
X38641Y-30043D01*
X38641Y-30114D01*
X38668Y-30179D01*
X38718Y-30230D01*
X38783Y-30257D01*
X38854Y-30257D01*
X38919Y-30230D01*
X38970Y-30180D01*
X38997Y-30115D01*
X38997Y-30933D01*
X38955Y-30951D01*
X38904Y-31001D01*
X38897Y-31017D01*
X38891Y-31002D01*
X38841Y-30951D01*
X38776Y-30924D01*
X38705Y-30924D01*
X38640Y-30951D01*
X38589Y-31001D01*
X38582Y-31017D01*
X38576Y-31002D01*
X38526Y-30951D01*
X38461Y-30924D01*
X38390Y-30924D01*
X38325Y-30951D01*
X38274Y-31001D01*
X38267Y-31017D01*
X38261Y-31002D01*
X38211Y-30951D01*
X38146Y-30924D01*
X38075Y-30924D01*
X38010Y-30951D01*
X37959Y-31001D01*
X37932Y-31066D01*
X37932Y-31137D01*
X37959Y-31202D01*
X38009Y-31253D01*
X38025Y-31259D01*
X38010Y-31266D01*
X37959Y-31316D01*
X37932Y-31381D01*
X37932Y-31452D01*
X37959Y-31517D01*
X38009Y-31568D01*
X38025Y-31574D01*
X38010Y-31581D01*
X37959Y-31631D01*
X37932Y-31696D01*
X37932Y-31767D01*
X37959Y-31832D01*
X38009Y-31883D01*
X38025Y-31889D01*
X38010Y-31896D01*
X37959Y-31946D01*
X37932Y-32011D01*
X37932Y-32082D01*
X37959Y-32147D01*
X38009Y-32198D01*
X38025Y-32204D01*
X38010Y-32211D01*
X37959Y-32261D01*
X37932Y-32326D01*
X37932Y-32397D01*
X37959Y-32462D01*
X38009Y-32513D01*
X38025Y-32519D01*
X38010Y-32526D01*
X37959Y-32576D01*
X37932Y-32641D01*
X37932Y-32712D01*
X37959Y-32777D01*
X38009Y-32828D01*
X38074Y-32855D01*
X38145Y-32855D01*
X38210Y-32828D01*
X38261Y-32778D01*
X38267Y-32761D01*
X38274Y-32777D01*
X38324Y-32828D01*
X38389Y-32855D01*
X38460Y-32855D01*
X38525Y-32828D01*
X38576Y-32778D01*
X38582Y-32761D01*
X38589Y-32777D01*
X38639Y-32828D01*
X38704Y-32855D01*
X38775Y-32855D01*
X38840Y-32828D01*
X38891Y-32778D01*
X38897Y-32761D01*
X38904Y-32777D01*
X38954Y-32828D01*
X38970Y-32834D01*
X38955Y-32841D01*
X38904Y-32891D01*
X38877Y-32956D01*
X38877Y-33027D01*
X38904Y-33092D01*
X38954Y-33143D01*
X39019Y-33170D01*
X39090Y-33170D01*
X39155Y-33143D01*
X39206Y-33093D01*
X39233Y-33028D01*
X39233Y-32957D01*
X39206Y-32892D01*
X39156Y-32841D01*
X39139Y-32834D01*
X39155Y-32828D01*
X39206Y-32778D01*
X39212Y-32761D01*
X39219Y-32777D01*
X39269Y-32828D01*
X39334Y-32855D01*
X39405Y-32855D01*
X39470Y-32828D01*
X39521Y-32778D01*
X39548Y-32713D01*
X39548Y-33272D01*
X39521Y-33207D01*
X39471Y-33156D01*
X39406Y-33129D01*
X39335Y-33129D01*
X39270Y-33156D01*
X39219Y-33206D01*
X39192Y-33271D01*
X39192Y-33342D01*
X39219Y-33407D01*
X39269Y-33458D01*
X39285Y-33464D01*
X39270Y-33471D01*
X39219Y-33521D01*
X39212Y-33537D01*
X39206Y-33522D01*
X39156Y-33471D01*
X39091Y-33444D01*
X39020Y-33444D01*
X38955Y-33471D01*
X38904Y-33521D01*
X38897Y-33537D01*
X38891Y-33522D01*
X38841Y-33471D01*
X38824Y-33464D01*
X38840Y-33458D01*
X38891Y-33408D01*
X38918Y-33343D01*
X38918Y-33272D01*
X38891Y-33207D01*
X38841Y-33156D01*
X38776Y-33129D01*
X38705Y-33129D01*
X38640Y-33156D01*
X38589Y-33206D01*
X38582Y-33222D01*
X38576Y-33207D01*
X38526Y-33156D01*
X38461Y-33129D01*
X38390Y-33129D01*
X38325Y-33156D01*
X38274Y-33206D01*
X38267Y-33222D01*
X38261Y-33207D01*
X38211Y-33156D01*
X38146Y-33129D01*
X38075Y-33129D01*
X38010Y-33156D01*
X37959Y-33206D01*
X37932Y-33271D01*
X37932Y-33342D01*
X37959Y-33407D01*
X38009Y-33458D01*
X38025Y-33464D01*
X38010Y-33471D01*
X37959Y-33521D01*
X37932Y-33586D01*
X37932Y-33657D01*
X37959Y-33722D01*
X38009Y-33773D01*
X38025Y-33779D01*
X38010Y-33786D01*
X37959Y-33836D01*
X37932Y-33901D01*
X37932Y-33952D01*
X37910Y-33974D01*
X37910Y-32835D01*
X37901Y-32791D01*
X37876Y-32754D01*
X37876Y-32753D01*
X37718Y-32596D01*
X37681Y-32571D01*
X37637Y-32562D01*
X37213Y-32562D01*
X37191Y-32540D01*
X37200Y-32540D01*
X37265Y-32513D01*
X37316Y-32463D01*
X37322Y-32446D01*
X37329Y-32462D01*
X37379Y-32513D01*
X37444Y-32540D01*
X37515Y-32540D01*
X37580Y-32513D01*
X37631Y-32463D01*
X37658Y-32398D01*
X37658Y-32327D01*
X37631Y-32262D01*
X37581Y-32211D01*
X37564Y-32204D01*
X37580Y-32198D01*
X37631Y-32148D01*
X37658Y-32083D01*
X37658Y-32012D01*
X37631Y-31947D01*
X37581Y-31896D01*
X37564Y-31889D01*
X37580Y-31883D01*
X37631Y-31833D01*
X37658Y-31768D01*
X37658Y-31697D01*
X37631Y-31632D01*
X37581Y-31581D01*
X37564Y-31574D01*
X37580Y-31568D01*
X37631Y-31518D01*
X37658Y-31453D01*
X37658Y-31382D01*
X37631Y-31317D01*
X37581Y-31266D01*
X37564Y-31259D01*
X37580Y-31253D01*
X37631Y-31203D01*
X37658Y-31138D01*
X37658Y-31067D01*
X37631Y-31002D01*
X37581Y-30951D01*
X37516Y-30924D01*
X37445Y-30924D01*
X37380Y-30951D01*
X37329Y-31001D01*
X37322Y-31017D01*
X37316Y-31002D01*
X37266Y-30951D01*
X37249Y-30944D01*
X37265Y-30938D01*
X37316Y-30888D01*
X37343Y-30823D01*
X37343Y-30752D01*
X37316Y-30687D01*
X37266Y-30636D01*
X37201Y-30609D01*
X37130Y-30609D01*
X37065Y-30636D01*
X37014Y-30686D01*
X36987Y-30751D01*
X36987Y-30822D01*
X37014Y-30887D01*
X37064Y-30938D01*
X37080Y-30944D01*
X37065Y-30951D01*
X37014Y-31001D01*
X37007Y-31017D01*
X37001Y-31002D01*
X36951Y-30951D01*
X36886Y-30924D01*
X36815Y-30924D01*
X36750Y-30951D01*
X36699Y-31001D01*
X36692Y-31017D01*
X36686Y-31002D01*
X36636Y-30951D01*
X36571Y-30924D01*
X36556Y-30924D01*
X36556Y-30469D01*
X36556Y-30398D01*
X36529Y-30333D01*
X36479Y-30282D01*
X36462Y-30275D01*
X36478Y-30269D01*
X36529Y-30219D01*
X36556Y-30154D01*
X36556Y-30083D01*
X36529Y-30018D01*
X36479Y-29967D01*
X36415Y-29940D01*
X36478Y-29915D01*
X36529Y-29865D01*
X36556Y-29800D01*
X36556Y-29729D01*
X36529Y-29664D01*
X36479Y-29613D01*
X36414Y-29586D01*
X36343Y-29586D01*
X36278Y-29613D01*
X36227Y-29663D01*
X36200Y-29728D01*
X36200Y-29799D01*
X36227Y-29864D01*
X36277Y-29915D01*
X36340Y-29941D01*
X36278Y-29967D01*
X36227Y-30017D01*
X36200Y-30082D01*
X36200Y-30153D01*
X36227Y-30218D01*
X36277Y-30269D01*
X36293Y-30275D01*
X36278Y-30282D01*
X36227Y-30332D01*
X36200Y-30397D01*
X36200Y-30468D01*
X36227Y-30533D01*
X36277Y-30584D01*
X36342Y-30611D01*
X36413Y-30611D01*
X36478Y-30584D01*
X36529Y-30534D01*
X36556Y-30469D01*
X36556Y-30924D01*
X36500Y-30924D01*
X36435Y-30951D01*
X36384Y-31001D01*
X36357Y-31066D01*
X36357Y-31137D01*
X36384Y-31202D01*
X36434Y-31253D01*
X36499Y-31280D01*
X36570Y-31280D01*
X36635Y-31253D01*
X36686Y-31203D01*
X36692Y-31186D01*
X36699Y-31202D01*
X36749Y-31253D01*
X36814Y-31280D01*
X36885Y-31280D01*
X36950Y-31253D01*
X37001Y-31203D01*
X37007Y-31186D01*
X37014Y-31202D01*
X37064Y-31253D01*
X37080Y-31259D01*
X37065Y-31266D01*
X37014Y-31316D01*
X36987Y-31381D01*
X36987Y-31452D01*
X37014Y-31517D01*
X37064Y-31568D01*
X37080Y-31574D01*
X37065Y-31581D01*
X37014Y-31631D01*
X37007Y-31647D01*
X37001Y-31632D01*
X36951Y-31581D01*
X36886Y-31554D01*
X36815Y-31554D01*
X36750Y-31581D01*
X36699Y-31631D01*
X36692Y-31647D01*
X36686Y-31632D01*
X36636Y-31581D01*
X36571Y-31554D01*
X36500Y-31554D01*
X36435Y-31581D01*
X36398Y-31617D01*
X36398Y-31453D01*
X36398Y-31382D01*
X36371Y-31317D01*
X36321Y-31266D01*
X36256Y-31239D01*
X36185Y-31239D01*
X36120Y-31266D01*
X36083Y-31302D01*
X36083Y-31138D01*
X36083Y-31067D01*
X36056Y-31002D01*
X36006Y-30951D01*
X35989Y-30944D01*
X36005Y-30938D01*
X36056Y-30888D01*
X36083Y-30823D01*
X36083Y-30752D01*
X36056Y-30687D01*
X36006Y-30636D01*
X35941Y-30609D01*
X35870Y-30609D01*
X35805Y-30636D01*
X35754Y-30686D01*
X35747Y-30702D01*
X35741Y-30687D01*
X35691Y-30636D01*
X35626Y-30609D01*
X35555Y-30609D01*
X35490Y-30636D01*
X35439Y-30686D01*
X35412Y-30751D01*
X35412Y-30822D01*
X35439Y-30887D01*
X35489Y-30938D01*
X35505Y-30944D01*
X35490Y-30951D01*
X35439Y-31001D01*
X35412Y-31066D01*
X35412Y-31137D01*
X35439Y-31202D01*
X35489Y-31253D01*
X35554Y-31280D01*
X35625Y-31280D01*
X35690Y-31253D01*
X35741Y-31203D01*
X35747Y-31186D01*
X35754Y-31202D01*
X35804Y-31253D01*
X35869Y-31280D01*
X35940Y-31280D01*
X36005Y-31253D01*
X36056Y-31203D01*
X36083Y-31138D01*
X36083Y-31302D01*
X36069Y-31316D01*
X36042Y-31381D01*
X36042Y-31452D01*
X36069Y-31517D01*
X36119Y-31568D01*
X36184Y-31595D01*
X36255Y-31595D01*
X36320Y-31568D01*
X36371Y-31518D01*
X36398Y-31453D01*
X36398Y-31617D01*
X36384Y-31631D01*
X36357Y-31696D01*
X36357Y-31767D01*
X36384Y-31832D01*
X36434Y-31883D01*
X36450Y-31889D01*
X36435Y-31896D01*
X36384Y-31946D01*
X36377Y-31962D01*
X36371Y-31947D01*
X36321Y-31896D01*
X36256Y-31869D01*
X36185Y-31869D01*
X36120Y-31896D01*
X36069Y-31946D01*
X36062Y-31962D01*
X36056Y-31947D01*
X36006Y-31896D01*
X35989Y-31889D01*
X36005Y-31883D01*
X36056Y-31833D01*
X36083Y-31768D01*
X36083Y-31697D01*
X36056Y-31632D01*
X36006Y-31581D01*
X35941Y-31554D01*
X35870Y-31554D01*
X35805Y-31581D01*
X35754Y-31631D01*
X35727Y-31696D01*
X35727Y-31767D01*
X35754Y-31832D01*
X35804Y-31883D01*
X35820Y-31889D01*
X35805Y-31896D01*
X35754Y-31946D01*
X35727Y-32011D01*
X35727Y-32082D01*
X35754Y-32147D01*
X35804Y-32198D01*
X35869Y-32225D01*
X35940Y-32225D01*
X36005Y-32198D01*
X36056Y-32148D01*
X36062Y-32131D01*
X36069Y-32147D01*
X36119Y-32198D01*
X36135Y-32204D01*
X36120Y-32211D01*
X36069Y-32261D01*
X36042Y-32326D01*
X36042Y-32397D01*
X36069Y-32462D01*
X36119Y-32513D01*
X36135Y-32519D01*
X36120Y-32526D01*
X36069Y-32576D01*
X36062Y-32592D01*
X36056Y-32577D01*
X36006Y-32526D01*
X35941Y-32499D01*
X35870Y-32499D01*
X35805Y-32526D01*
X35754Y-32576D01*
X35727Y-32641D01*
X35727Y-32712D01*
X35754Y-32777D01*
X35804Y-32828D01*
X35820Y-32834D01*
X35805Y-32841D01*
X35754Y-32891D01*
X35727Y-32956D01*
X35727Y-33027D01*
X35754Y-33092D01*
X35804Y-33143D01*
X35869Y-33170D01*
X35940Y-33170D01*
X36005Y-33143D01*
X36056Y-33093D01*
X36062Y-33076D01*
X36069Y-33092D01*
X36119Y-33143D01*
X36135Y-33149D01*
X36120Y-33156D01*
X36069Y-33206D01*
X36042Y-33271D01*
X36042Y-33342D01*
X36069Y-33407D01*
X36119Y-33458D01*
X36184Y-33485D01*
X36255Y-33485D01*
X36320Y-33458D01*
X36371Y-33408D01*
X36398Y-33343D01*
X36398Y-33272D01*
X36371Y-33207D01*
X36321Y-33156D01*
X36304Y-33149D01*
X36320Y-33143D01*
X36371Y-33093D01*
X36398Y-33028D01*
X36398Y-32957D01*
X36371Y-32892D01*
X36321Y-32841D01*
X36304Y-32834D01*
X36320Y-32828D01*
X36371Y-32778D01*
X36377Y-32761D01*
X36384Y-32777D01*
X36434Y-32828D01*
X36499Y-32855D01*
X36570Y-32855D01*
X36635Y-32828D01*
X36686Y-32778D01*
X36713Y-32713D01*
X36713Y-32702D01*
X36886Y-32876D01*
X36887Y-32876D01*
X36924Y-32901D01*
X36968Y-32910D01*
X37006Y-32910D01*
X36987Y-32956D01*
X36987Y-33027D01*
X37014Y-33092D01*
X37064Y-33143D01*
X37080Y-33149D01*
X37065Y-33156D01*
X37014Y-33206D01*
X36987Y-33271D01*
X36987Y-33342D01*
X37014Y-33407D01*
X37064Y-33458D01*
X37080Y-33464D01*
X37065Y-33471D01*
X37014Y-33521D01*
X36987Y-33586D01*
X36987Y-33657D01*
X37014Y-33722D01*
X37064Y-33773D01*
X37080Y-33779D01*
X37065Y-33786D01*
X37014Y-33836D01*
X36987Y-33901D01*
X36987Y-33972D01*
X37014Y-34037D01*
X37064Y-34088D01*
X37080Y-34094D01*
X37065Y-34101D01*
X37014Y-34151D01*
X36987Y-34216D01*
X36987Y-34287D01*
X37014Y-34352D01*
X37064Y-34403D01*
X37080Y-34409D01*
X37065Y-34416D01*
X37014Y-34466D01*
X37007Y-34482D01*
X37001Y-34467D01*
X36951Y-34416D01*
X36886Y-34389D01*
X36815Y-34389D01*
X36750Y-34416D01*
X36713Y-34452D01*
X36713Y-33973D01*
X36713Y-33902D01*
X36686Y-33837D01*
X36636Y-33786D01*
X36571Y-33759D01*
X36500Y-33759D01*
X36435Y-33786D01*
X36384Y-33836D01*
X36377Y-33852D01*
X36371Y-33837D01*
X36321Y-33786D01*
X36256Y-33759D01*
X36185Y-33759D01*
X36120Y-33786D01*
X36069Y-33836D01*
X36062Y-33852D01*
X36056Y-33837D01*
X36006Y-33786D01*
X35989Y-33779D01*
X36005Y-33773D01*
X36056Y-33723D01*
X36083Y-33658D01*
X36083Y-33587D01*
X36056Y-33522D01*
X36006Y-33471D01*
X35941Y-33444D01*
X35870Y-33444D01*
X35805Y-33471D01*
X35754Y-33521D01*
X35727Y-33586D01*
X35727Y-33657D01*
X35754Y-33722D01*
X35804Y-33773D01*
X35820Y-33779D01*
X35805Y-33786D01*
X35754Y-33836D01*
X35727Y-33899D01*
X35702Y-33837D01*
X35652Y-33786D01*
X35587Y-33759D01*
X35516Y-33759D01*
X35451Y-33786D01*
X35400Y-33836D01*
X35373Y-33901D01*
X35373Y-33972D01*
X35400Y-34037D01*
X35450Y-34088D01*
X35515Y-34115D01*
X35586Y-34115D01*
X35651Y-34088D01*
X35702Y-34038D01*
X35728Y-33974D01*
X35754Y-34037D01*
X35804Y-34088D01*
X35820Y-34094D01*
X35805Y-34101D01*
X35754Y-34151D01*
X35727Y-34216D01*
X35727Y-34287D01*
X35754Y-34352D01*
X35804Y-34403D01*
X35820Y-34409D01*
X35805Y-34416D01*
X35754Y-34466D01*
X35747Y-34482D01*
X35741Y-34467D01*
X35691Y-34416D01*
X35626Y-34389D01*
X35555Y-34389D01*
X35490Y-34416D01*
X35439Y-34466D01*
X35412Y-34531D01*
X35412Y-34602D01*
X35439Y-34667D01*
X35489Y-34718D01*
X35554Y-34745D01*
X35625Y-34745D01*
X35690Y-34718D01*
X35741Y-34668D01*
X35747Y-34651D01*
X35754Y-34667D01*
X35804Y-34718D01*
X35869Y-34745D01*
X35940Y-34745D01*
X36005Y-34718D01*
X36056Y-34668D01*
X36083Y-34603D01*
X36083Y-34532D01*
X36056Y-34467D01*
X36006Y-34416D01*
X35989Y-34409D01*
X36005Y-34403D01*
X36056Y-34353D01*
X36062Y-34336D01*
X36069Y-34352D01*
X36119Y-34403D01*
X36184Y-34430D01*
X36255Y-34430D01*
X36320Y-34403D01*
X36371Y-34353D01*
X36398Y-34288D01*
X36398Y-34217D01*
X36371Y-34152D01*
X36321Y-34101D01*
X36304Y-34094D01*
X36320Y-34088D01*
X36371Y-34038D01*
X36377Y-34021D01*
X36384Y-34037D01*
X36434Y-34088D01*
X36499Y-34115D01*
X36570Y-34115D01*
X36635Y-34088D01*
X36686Y-34038D01*
X36713Y-33973D01*
X36713Y-34452D01*
X36699Y-34466D01*
X36672Y-34531D01*
X36672Y-34602D01*
X36699Y-34667D01*
X36749Y-34718D01*
X36814Y-34745D01*
X36885Y-34745D01*
X36950Y-34718D01*
X37001Y-34668D01*
X37007Y-34651D01*
X37014Y-34667D01*
X37064Y-34718D01*
X37129Y-34745D01*
X37200Y-34745D01*
X37265Y-34718D01*
X37316Y-34668D01*
X37343Y-34603D01*
X37343Y-34532D01*
X37316Y-34467D01*
X37266Y-34416D01*
X37249Y-34409D01*
X37265Y-34403D01*
X37316Y-34353D01*
X37343Y-34288D01*
X37343Y-34217D01*
X37316Y-34152D01*
X37266Y-34101D01*
X37249Y-34094D01*
X37265Y-34088D01*
X37316Y-34038D01*
X37322Y-34021D01*
X37329Y-34037D01*
X37379Y-34088D01*
X37444Y-34115D01*
X37515Y-34115D01*
X37562Y-34095D01*
X37562Y-35127D01*
X37110Y-35127D01*
X37109Y-35125D01*
X37044Y-35098D01*
X36973Y-35098D01*
X36908Y-35125D01*
X36905Y-35127D01*
X36029Y-35127D01*
X36056Y-35101D01*
X36083Y-35036D01*
X36083Y-34965D01*
X36056Y-34900D01*
X36006Y-34849D01*
X35941Y-34822D01*
X35870Y-34822D01*
X35805Y-34849D01*
X35787Y-34866D01*
X35770Y-34849D01*
X35705Y-34822D01*
X35634Y-34822D01*
X35569Y-34849D01*
X35551Y-34866D01*
X35534Y-34849D01*
X35469Y-34822D01*
X35398Y-34822D01*
X35333Y-34849D01*
X35282Y-34899D01*
X35266Y-34937D01*
X35266Y-30084D01*
X35297Y-30072D01*
X35334Y-30035D01*
X35371Y-30072D01*
X35436Y-30099D01*
X35507Y-30099D01*
X35572Y-30072D01*
X35623Y-30022D01*
X35650Y-29957D01*
X35650Y-29886D01*
X35623Y-29821D01*
X35573Y-29770D01*
X35508Y-29743D01*
X35437Y-29743D01*
X35372Y-29770D01*
X35334Y-29806D01*
X35298Y-29770D01*
X35266Y-29756D01*
X35266Y-29461D01*
X38083Y-26644D01*
X38117Y-26644D01*
X38171Y-26698D01*
X38259Y-26735D01*
X38354Y-26735D01*
X38442Y-26699D01*
X38497Y-26644D01*
X39994Y-26644D01*
X39967Y-26671D01*
X39940Y-26736D01*
X39940Y-26807D01*
X39967Y-26872D01*
X40017Y-26923D01*
X40082Y-26950D01*
X40153Y-26950D01*
X40218Y-26923D01*
X40269Y-26873D01*
X40296Y-26808D01*
X40296Y-26737D01*
X40269Y-26672D01*
X40241Y-26644D01*
X43238Y-26644D01*
X43238Y-27429D01*
X43238Y-27429D01*
G37*
X43238Y-27429D02*
X41420Y-29246D01*
X41420Y-27135D01*
X41420Y-27040D01*
X41384Y-26952D01*
X41317Y-26885D01*
X41229Y-26848D01*
X41134Y-26848D01*
X41046Y-26884D01*
X40979Y-26951D01*
X40964Y-26985D01*
X40951Y-26952D01*
X40884Y-26885D01*
X40796Y-26848D01*
X40701Y-26848D01*
X40613Y-26884D01*
X40546Y-26951D01*
X40509Y-27039D01*
X40509Y-27134D01*
X40545Y-27222D01*
X40612Y-27289D01*
X40700Y-27326D01*
X40795Y-27326D01*
X40883Y-27290D01*
X40950Y-27223D01*
X40964Y-27188D01*
X40978Y-27222D01*
X41045Y-27289D01*
X41133Y-27326D01*
X41228Y-27326D01*
X41316Y-27290D01*
X41383Y-27223D01*
X41420Y-27135D01*
X41420Y-29246D01*
X40245Y-30421D01*
X40245Y-31511D01*
X40243Y-31513D01*
X40216Y-31578D01*
X40216Y-31649D01*
X40243Y-31714D01*
X40245Y-31716D01*
X40245Y-33243D01*
X40203Y-33285D01*
X40176Y-33350D01*
X40176Y-33421D01*
X40203Y-33486D01*
X40245Y-33528D01*
X40245Y-35127D01*
X40198Y-35127D01*
X40198Y-34623D01*
X40198Y-34552D01*
X40171Y-34487D01*
X40121Y-34436D01*
X40056Y-34409D01*
X39985Y-34409D01*
X39920Y-34436D01*
X39869Y-34486D01*
X39856Y-34516D01*
X39836Y-34467D01*
X39786Y-34416D01*
X39721Y-34389D01*
X39650Y-34389D01*
X39585Y-34416D01*
X39534Y-34466D01*
X39507Y-34531D01*
X39507Y-34602D01*
X39534Y-34667D01*
X39584Y-34718D01*
X39649Y-34745D01*
X39720Y-34745D01*
X39785Y-34718D01*
X39836Y-34668D01*
X39848Y-34637D01*
X39869Y-34687D01*
X39919Y-34738D01*
X39984Y-34765D01*
X40055Y-34765D01*
X40120Y-34738D01*
X40171Y-34688D01*
X40198Y-34623D01*
X40198Y-35127D01*
X38645Y-35127D01*
X38644Y-35125D01*
X38579Y-35098D01*
X38508Y-35098D01*
X38443Y-35125D01*
X38440Y-35127D01*
X38084Y-35127D01*
X38028Y-35070D01*
X38028Y-34410D01*
X38074Y-34430D01*
X38145Y-34430D01*
X38210Y-34403D01*
X38261Y-34353D01*
X38267Y-34336D01*
X38274Y-34352D01*
X38324Y-34403D01*
X38389Y-34430D01*
X38460Y-34430D01*
X38525Y-34403D01*
X38576Y-34353D01*
X38582Y-34336D01*
X38589Y-34352D01*
X38639Y-34403D01*
X38704Y-34430D01*
X38775Y-34430D01*
X38840Y-34403D01*
X38891Y-34353D01*
X38918Y-34288D01*
X38918Y-34217D01*
X38891Y-34152D01*
X38841Y-34101D01*
X38824Y-34094D01*
X38840Y-34088D01*
X38891Y-34038D01*
X38897Y-34021D01*
X38904Y-34037D01*
X38954Y-34088D01*
X39019Y-34115D01*
X39090Y-34115D01*
X39155Y-34088D01*
X39206Y-34038D01*
X39212Y-34021D01*
X39219Y-34037D01*
X39269Y-34088D01*
X39285Y-34094D01*
X39270Y-34101D01*
X39219Y-34151D01*
X39192Y-34216D01*
X39192Y-34287D01*
X39219Y-34352D01*
X39269Y-34403D01*
X39334Y-34430D01*
X39405Y-34430D01*
X39470Y-34403D01*
X39521Y-34353D01*
X39548Y-34288D01*
X39548Y-34217D01*
X39521Y-34152D01*
X39471Y-34101D01*
X39454Y-34094D01*
X39470Y-34088D01*
X39521Y-34038D01*
X39548Y-33973D01*
X39548Y-33902D01*
X39521Y-33837D01*
X39471Y-33786D01*
X39454Y-33779D01*
X39470Y-33773D01*
X39521Y-33723D01*
X39548Y-33658D01*
X39548Y-33587D01*
X39521Y-33522D01*
X39471Y-33471D01*
X39454Y-33464D01*
X39470Y-33458D01*
X39521Y-33408D01*
X39548Y-33343D01*
X39548Y-33272D01*
X39548Y-32713D01*
X39548Y-32642D01*
X39521Y-32577D01*
X39471Y-32526D01*
X39406Y-32499D01*
X39335Y-32499D01*
X39270Y-32526D01*
X39219Y-32576D01*
X39212Y-32592D01*
X39206Y-32577D01*
X39156Y-32526D01*
X39139Y-32519D01*
X39155Y-32513D01*
X39206Y-32463D01*
X39233Y-32398D01*
X39233Y-32327D01*
X39206Y-32262D01*
X39156Y-32211D01*
X39091Y-32184D01*
X39020Y-32184D01*
X38955Y-32211D01*
X38904Y-32261D01*
X38897Y-32277D01*
X38891Y-32262D01*
X38841Y-32211D01*
X38776Y-32184D01*
X38705Y-32184D01*
X38640Y-32211D01*
X38589Y-32261D01*
X38582Y-32277D01*
X38576Y-32262D01*
X38526Y-32211D01*
X38509Y-32204D01*
X38525Y-32198D01*
X38576Y-32148D01*
X38603Y-32083D01*
X38603Y-32012D01*
X38576Y-31947D01*
X38526Y-31896D01*
X38509Y-31889D01*
X38525Y-31883D01*
X38576Y-31833D01*
X38582Y-31816D01*
X38589Y-31832D01*
X38639Y-31883D01*
X38704Y-31910D01*
X38775Y-31910D01*
X38840Y-31883D01*
X38891Y-31833D01*
X38897Y-31816D01*
X38904Y-31832D01*
X38954Y-31883D01*
X39019Y-31910D01*
X39090Y-31910D01*
X39155Y-31883D01*
X39206Y-31833D01*
X39212Y-31816D01*
X39219Y-31832D01*
X39269Y-31883D01*
X39285Y-31889D01*
X39270Y-31896D01*
X39219Y-31946D01*
X39192Y-32011D01*
X39192Y-32082D01*
X39219Y-32147D01*
X39269Y-32198D01*
X39334Y-32225D01*
X39405Y-32225D01*
X39470Y-32198D01*
X39521Y-32148D01*
X39548Y-32083D01*
X39548Y-32012D01*
X39521Y-31947D01*
X39471Y-31896D01*
X39454Y-31889D01*
X39470Y-31883D01*
X39521Y-31833D01*
X39548Y-31768D01*
X39548Y-31697D01*
X39521Y-31632D01*
X39471Y-31581D01*
X39406Y-31554D01*
X39335Y-31554D01*
X39270Y-31581D01*
X39219Y-31631D01*
X39212Y-31647D01*
X39206Y-31632D01*
X39156Y-31581D01*
X39139Y-31574D01*
X39155Y-31568D01*
X39206Y-31518D01*
X39233Y-31453D01*
X39233Y-31382D01*
X39206Y-31317D01*
X39156Y-31266D01*
X39139Y-31259D01*
X39155Y-31253D01*
X39206Y-31203D01*
X39212Y-31186D01*
X39219Y-31202D01*
X39269Y-31253D01*
X39334Y-31280D01*
X39405Y-31280D01*
X39470Y-31253D01*
X39521Y-31203D01*
X39548Y-31138D01*
X39548Y-31067D01*
X39521Y-31002D01*
X39471Y-30951D01*
X39406Y-30924D01*
X39335Y-30924D01*
X39270Y-30951D01*
X39219Y-31001D01*
X39212Y-31017D01*
X39206Y-31002D01*
X39156Y-30951D01*
X39091Y-30924D01*
X39020Y-30924D01*
X38997Y-30933D01*
X38997Y-30115D01*
X38997Y-30044D01*
X38970Y-29979D01*
X38920Y-29928D01*
X38855Y-29901D01*
X38784Y-29901D01*
X38719Y-29928D01*
X38668Y-29978D01*
X38641Y-30043D01*
X38641Y-30114D01*
X38668Y-30179D01*
X38718Y-30230D01*
X38783Y-30257D01*
X38854Y-30257D01*
X38919Y-30230D01*
X38970Y-30180D01*
X38997Y-30115D01*
X38997Y-30933D01*
X38955Y-30951D01*
X38904Y-31001D01*
X38897Y-31017D01*
X38891Y-31002D01*
X38841Y-30951D01*
X38776Y-30924D01*
X38705Y-30924D01*
X38640Y-30951D01*
X38589Y-31001D01*
X38582Y-31017D01*
X38576Y-31002D01*
X38526Y-30951D01*
X38461Y-30924D01*
X38390Y-30924D01*
X38325Y-30951D01*
X38274Y-31001D01*
X38267Y-31017D01*
X38261Y-31002D01*
X38211Y-30951D01*
X38146Y-30924D01*
X38075Y-30924D01*
X38010Y-30951D01*
X37959Y-31001D01*
X37932Y-31066D01*
X37932Y-31137D01*
X37959Y-31202D01*
X38009Y-31253D01*
X38025Y-31259D01*
X38010Y-31266D01*
X37959Y-31316D01*
X37932Y-31381D01*
X37932Y-31452D01*
X37959Y-31517D01*
X38009Y-31568D01*
X38025Y-31574D01*
X38010Y-31581D01*
X37959Y-31631D01*
X37932Y-31696D01*
X37932Y-31767D01*
X37959Y-31832D01*
X38009Y-31883D01*
X38025Y-31889D01*
X38010Y-31896D01*
X37959Y-31946D01*
X37932Y-32011D01*
X37932Y-32082D01*
X37959Y-32147D01*
X38009Y-32198D01*
X38025Y-32204D01*
X38010Y-32211D01*
X37959Y-32261D01*
X37932Y-32326D01*
X37932Y-32397D01*
X37959Y-32462D01*
X38009Y-32513D01*
X38025Y-32519D01*
X38010Y-32526D01*
X37959Y-32576D01*
X37932Y-32641D01*
X37932Y-32712D01*
X37959Y-32777D01*
X38009Y-32828D01*
X38074Y-32855D01*
X38145Y-32855D01*
X38210Y-32828D01*
X38261Y-32778D01*
X38267Y-32761D01*
X38274Y-32777D01*
X38324Y-32828D01*
X38389Y-32855D01*
X38460Y-32855D01*
X38525Y-32828D01*
X38576Y-32778D01*
X38582Y-32761D01*
X38589Y-32777D01*
X38639Y-32828D01*
X38704Y-32855D01*
X38775Y-32855D01*
X38840Y-32828D01*
X38891Y-32778D01*
X38897Y-32761D01*
X38904Y-32777D01*
X38954Y-32828D01*
X38970Y-32834D01*
X38955Y-32841D01*
X38904Y-32891D01*
X38877Y-32956D01*
X38877Y-33027D01*
X38904Y-33092D01*
X38954Y-33143D01*
X39019Y-33170D01*
X39090Y-33170D01*
X39155Y-33143D01*
X39206Y-33093D01*
X39233Y-33028D01*
X39233Y-32957D01*
X39206Y-32892D01*
X39156Y-32841D01*
X39139Y-32834D01*
X39155Y-32828D01*
X39206Y-32778D01*
X39212Y-32761D01*
X39219Y-32777D01*
X39269Y-32828D01*
X39334Y-32855D01*
X39405Y-32855D01*
X39470Y-32828D01*
X39521Y-32778D01*
X39548Y-32713D01*
X39548Y-33272D01*
X39521Y-33207D01*
X39471Y-33156D01*
X39406Y-33129D01*
X39335Y-33129D01*
X39270Y-33156D01*
X39219Y-33206D01*
X39192Y-33271D01*
X39192Y-33342D01*
X39219Y-33407D01*
X39269Y-33458D01*
X39285Y-33464D01*
X39270Y-33471D01*
X39219Y-33521D01*
X39212Y-33537D01*
X39206Y-33522D01*
X39156Y-33471D01*
X39091Y-33444D01*
X39020Y-33444D01*
X38955Y-33471D01*
X38904Y-33521D01*
X38897Y-33537D01*
X38891Y-33522D01*
X38841Y-33471D01*
X38824Y-33464D01*
X38840Y-33458D01*
X38891Y-33408D01*
X38918Y-33343D01*
X38918Y-33272D01*
X38891Y-33207D01*
X38841Y-33156D01*
X38776Y-33129D01*
X38705Y-33129D01*
X38640Y-33156D01*
X38589Y-33206D01*
X38582Y-33222D01*
X38576Y-33207D01*
X38526Y-33156D01*
X38461Y-33129D01*
X38390Y-33129D01*
X38325Y-33156D01*
X38274Y-33206D01*
X38267Y-33222D01*
X38261Y-33207D01*
X38211Y-33156D01*
X38146Y-33129D01*
X38075Y-33129D01*
X38010Y-33156D01*
X37959Y-33206D01*
X37932Y-33271D01*
X37932Y-33342D01*
X37959Y-33407D01*
X38009Y-33458D01*
X38025Y-33464D01*
X38010Y-33471D01*
X37959Y-33521D01*
X37932Y-33586D01*
X37932Y-33657D01*
X37959Y-33722D01*
X38009Y-33773D01*
X38025Y-33779D01*
X38010Y-33786D01*
X37959Y-33836D01*
X37932Y-33901D01*
X37932Y-33952D01*
X37910Y-33974D01*
X37910Y-32835D01*
X37901Y-32791D01*
X37876Y-32754D01*
X37876Y-32753D01*
X37718Y-32596D01*
X37681Y-32571D01*
X37637Y-32562D01*
X37213Y-32562D01*
X37191Y-32540D01*
X37200Y-32540D01*
X37265Y-32513D01*
X37316Y-32463D01*
X37322Y-32446D01*
X37329Y-32462D01*
X37379Y-32513D01*
X37444Y-32540D01*
X37515Y-32540D01*
X37580Y-32513D01*
X37631Y-32463D01*
X37658Y-32398D01*
X37658Y-32327D01*
X37631Y-32262D01*
X37581Y-32211D01*
X37564Y-32204D01*
X37580Y-32198D01*
X37631Y-32148D01*
X37658Y-32083D01*
X37658Y-32012D01*
X37631Y-31947D01*
X37581Y-31896D01*
X37564Y-31889D01*
X37580Y-31883D01*
X37631Y-31833D01*
X37658Y-31768D01*
X37658Y-31697D01*
X37631Y-31632D01*
X37581Y-31581D01*
X37564Y-31574D01*
X37580Y-31568D01*
X37631Y-31518D01*
X37658Y-31453D01*
X37658Y-31382D01*
X37631Y-31317D01*
X37581Y-31266D01*
X37564Y-31259D01*
X37580Y-31253D01*
X37631Y-31203D01*
X37658Y-31138D01*
X37658Y-31067D01*
X37631Y-31002D01*
X37581Y-30951D01*
X37516Y-30924D01*
X37445Y-30924D01*
X37380Y-30951D01*
X37329Y-31001D01*
X37322Y-31017D01*
X37316Y-31002D01*
X37266Y-30951D01*
X37249Y-30944D01*
X37265Y-30938D01*
X37316Y-30888D01*
X37343Y-30823D01*
X37343Y-30752D01*
X37316Y-30687D01*
X37266Y-30636D01*
X37201Y-30609D01*
X37130Y-30609D01*
X37065Y-30636D01*
X37014Y-30686D01*
X36987Y-30751D01*
X36987Y-30822D01*
X37014Y-30887D01*
X37064Y-30938D01*
X37080Y-30944D01*
X37065Y-30951D01*
X37014Y-31001D01*
X37007Y-31017D01*
X37001Y-31002D01*
X36951Y-30951D01*
X36886Y-30924D01*
X36815Y-30924D01*
X36750Y-30951D01*
X36699Y-31001D01*
X36692Y-31017D01*
X36686Y-31002D01*
X36636Y-30951D01*
X36571Y-30924D01*
X36556Y-30924D01*
X36556Y-30469D01*
X36556Y-30398D01*
X36529Y-30333D01*
X36479Y-30282D01*
X36462Y-30275D01*
X36478Y-30269D01*
X36529Y-30219D01*
X36556Y-30154D01*
X36556Y-30083D01*
X36529Y-30018D01*
X36479Y-29967D01*
X36415Y-29940D01*
X36478Y-29915D01*
X36529Y-29865D01*
X36556Y-29800D01*
X36556Y-29729D01*
X36529Y-29664D01*
X36479Y-29613D01*
X36414Y-29586D01*
X36343Y-29586D01*
X36278Y-29613D01*
X36227Y-29663D01*
X36200Y-29728D01*
X36200Y-29799D01*
X36227Y-29864D01*
X36277Y-29915D01*
X36340Y-29941D01*
X36278Y-29967D01*
X36227Y-30017D01*
X36200Y-30082D01*
X36200Y-30153D01*
X36227Y-30218D01*
X36277Y-30269D01*
X36293Y-30275D01*
X36278Y-30282D01*
X36227Y-30332D01*
X36200Y-30397D01*
X36200Y-30468D01*
X36227Y-30533D01*
X36277Y-30584D01*
X36342Y-30611D01*
X36413Y-30611D01*
X36478Y-30584D01*
X36529Y-30534D01*
X36556Y-30469D01*
X36556Y-30924D01*
X36500Y-30924D01*
X36435Y-30951D01*
X36384Y-31001D01*
X36357Y-31066D01*
X36357Y-31137D01*
X36384Y-31202D01*
X36434Y-31253D01*
X36499Y-31280D01*
X36570Y-31280D01*
X36635Y-31253D01*
X36686Y-31203D01*
X36692Y-31186D01*
X36699Y-31202D01*
X36749Y-31253D01*
X36814Y-31280D01*
X36885Y-31280D01*
X36950Y-31253D01*
X37001Y-31203D01*
X37007Y-31186D01*
X37014Y-31202D01*
X37064Y-31253D01*
X37080Y-31259D01*
X37065Y-31266D01*
X37014Y-31316D01*
X36987Y-31381D01*
X36987Y-31452D01*
X37014Y-31517D01*
X37064Y-31568D01*
X37080Y-31574D01*
X37065Y-31581D01*
X37014Y-31631D01*
X37007Y-31647D01*
X37001Y-31632D01*
X36951Y-31581D01*
X36886Y-31554D01*
X36815Y-31554D01*
X36750Y-31581D01*
X36699Y-31631D01*
X36692Y-31647D01*
X36686Y-31632D01*
X36636Y-31581D01*
X36571Y-31554D01*
X36500Y-31554D01*
X36435Y-31581D01*
X36398Y-31617D01*
X36398Y-31453D01*
X36398Y-31382D01*
X36371Y-31317D01*
X36321Y-31266D01*
X36256Y-31239D01*
X36185Y-31239D01*
X36120Y-31266D01*
X36083Y-31302D01*
X36083Y-31138D01*
X36083Y-31067D01*
X36056Y-31002D01*
X36006Y-30951D01*
X35989Y-30944D01*
X36005Y-30938D01*
X36056Y-30888D01*
X36083Y-30823D01*
X36083Y-30752D01*
X36056Y-30687D01*
X36006Y-30636D01*
X35941Y-30609D01*
X35870Y-30609D01*
X35805Y-30636D01*
X35754Y-30686D01*
X35747Y-30702D01*
X35741Y-30687D01*
X35691Y-30636D01*
X35626Y-30609D01*
X35555Y-30609D01*
X35490Y-30636D01*
X35439Y-30686D01*
X35412Y-30751D01*
X35412Y-30822D01*
X35439Y-30887D01*
X35489Y-30938D01*
X35505Y-30944D01*
X35490Y-30951D01*
X35439Y-31001D01*
X35412Y-31066D01*
X35412Y-31137D01*
X35439Y-31202D01*
X35489Y-31253D01*
X35554Y-31280D01*
X35625Y-31280D01*
X35690Y-31253D01*
X35741Y-31203D01*
X35747Y-31186D01*
X35754Y-31202D01*
X35804Y-31253D01*
X35869Y-31280D01*
X35940Y-31280D01*
X36005Y-31253D01*
X36056Y-31203D01*
X36083Y-31138D01*
X36083Y-31302D01*
X36069Y-31316D01*
X36042Y-31381D01*
X36042Y-31452D01*
X36069Y-31517D01*
X36119Y-31568D01*
X36184Y-31595D01*
X36255Y-31595D01*
X36320Y-31568D01*
X36371Y-31518D01*
X36398Y-31453D01*
X36398Y-31617D01*
X36384Y-31631D01*
X36357Y-31696D01*
X36357Y-31767D01*
X36384Y-31832D01*
X36434Y-31883D01*
X36450Y-31889D01*
X36435Y-31896D01*
X36384Y-31946D01*
X36377Y-31962D01*
X36371Y-31947D01*
X36321Y-31896D01*
X36256Y-31869D01*
X36185Y-31869D01*
X36120Y-31896D01*
X36069Y-31946D01*
X36062Y-31962D01*
X36056Y-31947D01*
X36006Y-31896D01*
X35989Y-31889D01*
X36005Y-31883D01*
X36056Y-31833D01*
X36083Y-31768D01*
X36083Y-31697D01*
X36056Y-31632D01*
X36006Y-31581D01*
X35941Y-31554D01*
X35870Y-31554D01*
X35805Y-31581D01*
X35754Y-31631D01*
X35727Y-31696D01*
X35727Y-31767D01*
X35754Y-31832D01*
X35804Y-31883D01*
X35820Y-31889D01*
X35805Y-31896D01*
X35754Y-31946D01*
X35727Y-32011D01*
X35727Y-32082D01*
X35754Y-32147D01*
X35804Y-32198D01*
X35869Y-32225D01*
X35940Y-32225D01*
X36005Y-32198D01*
X36056Y-32148D01*
X36062Y-32131D01*
X36069Y-32147D01*
X36119Y-32198D01*
X36135Y-32204D01*
X36120Y-32211D01*
X36069Y-32261D01*
X36042Y-32326D01*
X36042Y-32397D01*
X36069Y-32462D01*
X36119Y-32513D01*
X36135Y-32519D01*
X36120Y-32526D01*
X36069Y-32576D01*
X36062Y-32592D01*
X36056Y-32577D01*
X36006Y-32526D01*
X35941Y-32499D01*
X35870Y-32499D01*
X35805Y-32526D01*
X35754Y-32576D01*
X35727Y-32641D01*
X35727Y-32712D01*
X35754Y-32777D01*
X35804Y-32828D01*
X35820Y-32834D01*
X35805Y-32841D01*
X35754Y-32891D01*
X35727Y-32956D01*
X35727Y-33027D01*
X35754Y-33092D01*
X35804Y-33143D01*
X35869Y-33170D01*
X35940Y-33170D01*
X36005Y-33143D01*
X36056Y-33093D01*
X36062Y-33076D01*
X36069Y-33092D01*
X36119Y-33143D01*
X36135Y-33149D01*
X36120Y-33156D01*
X36069Y-33206D01*
X36042Y-33271D01*
X36042Y-33342D01*
X36069Y-33407D01*
X36119Y-33458D01*
X36184Y-33485D01*
X36255Y-33485D01*
X36320Y-33458D01*
X36371Y-33408D01*
X36398Y-33343D01*
X36398Y-33272D01*
X36371Y-33207D01*
X36321Y-33156D01*
X36304Y-33149D01*
X36320Y-33143D01*
X36371Y-33093D01*
X36398Y-33028D01*
X36398Y-32957D01*
X36371Y-32892D01*
X36321Y-32841D01*
X36304Y-32834D01*
X36320Y-32828D01*
X36371Y-32778D01*
X36377Y-32761D01*
X36384Y-32777D01*
X36434Y-32828D01*
X36499Y-32855D01*
X36570Y-32855D01*
X36635Y-32828D01*
X36686Y-32778D01*
X36713Y-32713D01*
X36713Y-32702D01*
X36886Y-32876D01*
X36887Y-32876D01*
X36924Y-32901D01*
X36968Y-32910D01*
X37006Y-32910D01*
X36987Y-32956D01*
X36987Y-33027D01*
X37014Y-33092D01*
X37064Y-33143D01*
X37080Y-33149D01*
X37065Y-33156D01*
X37014Y-33206D01*
X36987Y-33271D01*
X36987Y-33342D01*
X37014Y-33407D01*
X37064Y-33458D01*
X37080Y-33464D01*
X37065Y-33471D01*
X37014Y-33521D01*
X36987Y-33586D01*
X36987Y-33657D01*
X37014Y-33722D01*
X37064Y-33773D01*
X37080Y-33779D01*
X37065Y-33786D01*
X37014Y-33836D01*
X36987Y-33901D01*
X36987Y-33972D01*
X37014Y-34037D01*
X37064Y-34088D01*
X37080Y-34094D01*
X37065Y-34101D01*
X37014Y-34151D01*
X36987Y-34216D01*
X36987Y-34287D01*
X37014Y-34352D01*
X37064Y-34403D01*
X37080Y-34409D01*
X37065Y-34416D01*
X37014Y-34466D01*
X37007Y-34482D01*
X37001Y-34467D01*
X36951Y-34416D01*
X36886Y-34389D01*
X36815Y-34389D01*
X36750Y-34416D01*
X36713Y-34452D01*
X36713Y-33973D01*
X36713Y-33902D01*
X36686Y-33837D01*
X36636Y-33786D01*
X36571Y-33759D01*
X36500Y-33759D01*
X36435Y-33786D01*
X36384Y-33836D01*
X36377Y-33852D01*
X36371Y-33837D01*
X36321Y-33786D01*
X36256Y-33759D01*
X36185Y-33759D01*
X36120Y-33786D01*
X36069Y-33836D01*
X36062Y-33852D01*
X36056Y-33837D01*
X36006Y-33786D01*
X35989Y-33779D01*
X36005Y-33773D01*
X36056Y-33723D01*
X36083Y-33658D01*
X36083Y-33587D01*
X36056Y-33522D01*
X36006Y-33471D01*
X35941Y-33444D01*
X35870Y-33444D01*
X35805Y-33471D01*
X35754Y-33521D01*
X35727Y-33586D01*
X35727Y-33657D01*
X35754Y-33722D01*
X35804Y-33773D01*
X35820Y-33779D01*
X35805Y-33786D01*
X35754Y-33836D01*
X35727Y-33899D01*
X35702Y-33837D01*
X35652Y-33786D01*
X35587Y-33759D01*
X35516Y-33759D01*
X35451Y-33786D01*
X35400Y-33836D01*
X35373Y-33901D01*
X35373Y-33972D01*
X35400Y-34037D01*
X35450Y-34088D01*
X35515Y-34115D01*
X35586Y-34115D01*
X35651Y-34088D01*
X35702Y-34038D01*
X35728Y-33974D01*
X35754Y-34037D01*
X35804Y-34088D01*
X35820Y-34094D01*
X35805Y-34101D01*
X35754Y-34151D01*
X35727Y-34216D01*
X35727Y-34287D01*
X35754Y-34352D01*
X35804Y-34403D01*
X35820Y-34409D01*
X35805Y-34416D01*
X35754Y-34466D01*
X35747Y-34482D01*
X35741Y-34467D01*
X35691Y-34416D01*
X35626Y-34389D01*
X35555Y-34389D01*
X35490Y-34416D01*
X35439Y-34466D01*
X35412Y-34531D01*
X35412Y-34602D01*
X35439Y-34667D01*
X35489Y-34718D01*
X35554Y-34745D01*
X35625Y-34745D01*
X35690Y-34718D01*
X35741Y-34668D01*
X35747Y-34651D01*
X35754Y-34667D01*
X35804Y-34718D01*
X35869Y-34745D01*
X35940Y-34745D01*
X36005Y-34718D01*
X36056Y-34668D01*
X36083Y-34603D01*
X36083Y-34532D01*
X36056Y-34467D01*
X36006Y-34416D01*
X35989Y-34409D01*
X36005Y-34403D01*
X36056Y-34353D01*
X36062Y-34336D01*
X36069Y-34352D01*
X36119Y-34403D01*
X36184Y-34430D01*
X36255Y-34430D01*
X36320Y-34403D01*
X36371Y-34353D01*
X36398Y-34288D01*
X36398Y-34217D01*
X36371Y-34152D01*
X36321Y-34101D01*
X36304Y-34094D01*
X36320Y-34088D01*
X36371Y-34038D01*
X36377Y-34021D01*
X36384Y-34037D01*
X36434Y-34088D01*
X36499Y-34115D01*
X36570Y-34115D01*
X36635Y-34088D01*
X36686Y-34038D01*
X36713Y-33973D01*
X36713Y-34452D01*
X36699Y-34466D01*
X36672Y-34531D01*
X36672Y-34602D01*
X36699Y-34667D01*
X36749Y-34718D01*
X36814Y-34745D01*
X36885Y-34745D01*
X36950Y-34718D01*
X37001Y-34668D01*
X37007Y-34651D01*
X37014Y-34667D01*
X37064Y-34718D01*
X37129Y-34745D01*
X37200Y-34745D01*
X37265Y-34718D01*
X37316Y-34668D01*
X37343Y-34603D01*
X37343Y-34532D01*
X37316Y-34467D01*
X37266Y-34416D01*
X37249Y-34409D01*
X37265Y-34403D01*
X37316Y-34353D01*
X37343Y-34288D01*
X37343Y-34217D01*
X37316Y-34152D01*
X37266Y-34101D01*
X37249Y-34094D01*
X37265Y-34088D01*
X37316Y-34038D01*
X37322Y-34021D01*
X37329Y-34037D01*
X37379Y-34088D01*
X37444Y-34115D01*
X37515Y-34115D01*
X37562Y-34095D01*
X37562Y-35127D01*
X37110Y-35127D01*
X37109Y-35125D01*
X37044Y-35098D01*
X36973Y-35098D01*
X36908Y-35125D01*
X36905Y-35127D01*
X36029Y-35127D01*
X36056Y-35101D01*
X36083Y-35036D01*
X36083Y-34965D01*
X36056Y-34900D01*
X36006Y-34849D01*
X35941Y-34822D01*
X35870Y-34822D01*
X35805Y-34849D01*
X35787Y-34866D01*
X35770Y-34849D01*
X35705Y-34822D01*
X35634Y-34822D01*
X35569Y-34849D01*
X35551Y-34866D01*
X35534Y-34849D01*
X35469Y-34822D01*
X35398Y-34822D01*
X35333Y-34849D01*
X35282Y-34899D01*
X35266Y-34937D01*
X35266Y-30084D01*
X35297Y-30072D01*
X35334Y-30035D01*
X35371Y-30072D01*
X35436Y-30099D01*
X35507Y-30099D01*
X35572Y-30072D01*
X35623Y-30022D01*
X35650Y-29957D01*
X35650Y-29886D01*
X35623Y-29821D01*
X35573Y-29770D01*
X35508Y-29743D01*
X35437Y-29743D01*
X35372Y-29770D01*
X35334Y-29806D01*
X35298Y-29770D01*
X35266Y-29756D01*
X35266Y-29461D01*
X38083Y-26644D01*
X38117Y-26644D01*
X38171Y-26698D01*
X38259Y-26735D01*
X38354Y-26735D01*
X38442Y-26699D01*
X38497Y-26644D01*
X39994Y-26644D01*
X39967Y-26671D01*
X39940Y-26736D01*
X39940Y-26807D01*
X39967Y-26872D01*
X40017Y-26923D01*
X40082Y-26950D01*
X40153Y-26950D01*
X40218Y-26923D01*
X40269Y-26873D01*
X40296Y-26808D01*
X40296Y-26737D01*
X40269Y-26672D01*
X40241Y-26644D01*
X43238Y-26644D01*
X43238Y-27429D01*
G36*
X53610Y-33553D02*
X53414Y-33553D01*
X53396Y-33541D01*
X53346Y-33531D01*
X53315Y-33531D01*
X53328Y-33501D01*
X53328Y-33430D01*
X53328Y-32713D01*
X53328Y-32642D01*
X53328Y-31926D01*
X53328Y-31855D01*
X53328Y-30745D01*
X53328Y-30674D01*
X53328Y-29957D01*
X53328Y-29886D01*
X53301Y-29821D01*
X53251Y-29770D01*
X53186Y-29743D01*
X53115Y-29743D01*
X53050Y-29770D01*
X52999Y-29820D01*
X52972Y-29885D01*
X52972Y-29956D01*
X52999Y-30021D01*
X53049Y-30072D01*
X53114Y-30099D01*
X53185Y-30099D01*
X53250Y-30072D01*
X53301Y-30022D01*
X53328Y-29957D01*
X53328Y-30674D01*
X53301Y-30609D01*
X53251Y-30558D01*
X53186Y-30531D01*
X53115Y-30531D01*
X53050Y-30558D01*
X52999Y-30608D01*
X52972Y-30673D01*
X52972Y-30744D01*
X52999Y-30809D01*
X53049Y-30860D01*
X53114Y-30887D01*
X53185Y-30887D01*
X53250Y-30860D01*
X53301Y-30810D01*
X53328Y-30745D01*
X53328Y-31855D01*
X53301Y-31790D01*
X53251Y-31739D01*
X53186Y-31712D01*
X53115Y-31712D01*
X53050Y-31739D01*
X52999Y-31789D01*
X52972Y-31854D01*
X52972Y-31925D01*
X52999Y-31990D01*
X53049Y-32041D01*
X53114Y-32068D01*
X53185Y-32068D01*
X53250Y-32041D01*
X53301Y-31991D01*
X53328Y-31926D01*
X53328Y-32642D01*
X53301Y-32577D01*
X53251Y-32526D01*
X53186Y-32499D01*
X53115Y-32499D01*
X53050Y-32526D01*
X52999Y-32576D01*
X52972Y-32641D01*
X52972Y-32712D01*
X52999Y-32777D01*
X53049Y-32828D01*
X53114Y-32855D01*
X53185Y-32855D01*
X53250Y-32828D01*
X53301Y-32778D01*
X53328Y-32713D01*
X53328Y-33430D01*
X53301Y-33365D01*
X53251Y-33314D01*
X53186Y-33287D01*
X53115Y-33287D01*
X53050Y-33314D01*
X52999Y-33364D01*
X52972Y-33429D01*
X52972Y-33500D01*
X52984Y-33531D01*
X52934Y-33531D01*
X52934Y-33107D01*
X52934Y-33036D01*
X52934Y-32319D01*
X52934Y-32248D01*
X52934Y-31138D01*
X52934Y-31067D01*
X52934Y-30351D01*
X52934Y-30280D01*
X52907Y-30215D01*
X52857Y-30164D01*
X52792Y-30137D01*
X52721Y-30137D01*
X52656Y-30164D01*
X52605Y-30214D01*
X52578Y-30279D01*
X52578Y-30350D01*
X52605Y-30415D01*
X52655Y-30466D01*
X52720Y-30493D01*
X52791Y-30493D01*
X52856Y-30466D01*
X52907Y-30416D01*
X52934Y-30351D01*
X52934Y-31067D01*
X52907Y-31002D01*
X52857Y-30951D01*
X52792Y-30924D01*
X52721Y-30924D01*
X52656Y-30951D01*
X52605Y-31001D01*
X52578Y-31066D01*
X52578Y-31137D01*
X52605Y-31202D01*
X52655Y-31253D01*
X52720Y-31280D01*
X52791Y-31280D01*
X52856Y-31253D01*
X52907Y-31203D01*
X52934Y-31138D01*
X52934Y-32248D01*
X52907Y-32183D01*
X52857Y-32132D01*
X52792Y-32105D01*
X52721Y-32105D01*
X52656Y-32132D01*
X52605Y-32182D01*
X52578Y-32247D01*
X52578Y-32318D01*
X52605Y-32383D01*
X52655Y-32434D01*
X52720Y-32461D01*
X52791Y-32461D01*
X52856Y-32434D01*
X52907Y-32384D01*
X52934Y-32319D01*
X52934Y-33036D01*
X52907Y-32971D01*
X52857Y-32920D01*
X52792Y-32893D01*
X52721Y-32893D01*
X52656Y-32920D01*
X52605Y-32970D01*
X52578Y-33035D01*
X52578Y-33106D01*
X52605Y-33171D01*
X52655Y-33222D01*
X52720Y-33249D01*
X52791Y-33249D01*
X52856Y-33222D01*
X52907Y-33172D01*
X52934Y-33107D01*
X52934Y-33531D01*
X52527Y-33531D01*
X52540Y-33501D01*
X52540Y-33430D01*
X52540Y-32713D01*
X52540Y-32642D01*
X52540Y-31926D01*
X52540Y-31855D01*
X52540Y-30745D01*
X52540Y-30674D01*
X52540Y-29957D01*
X52540Y-29886D01*
X52513Y-29821D01*
X52463Y-29770D01*
X52398Y-29743D01*
X52327Y-29743D01*
X52262Y-29770D01*
X52211Y-29820D01*
X52184Y-29885D01*
X52184Y-29956D01*
X52211Y-30021D01*
X52261Y-30072D01*
X52326Y-30099D01*
X52397Y-30099D01*
X52462Y-30072D01*
X52513Y-30022D01*
X52540Y-29957D01*
X52540Y-30674D01*
X52513Y-30609D01*
X52463Y-30558D01*
X52398Y-30531D01*
X52327Y-30531D01*
X52262Y-30558D01*
X52211Y-30608D01*
X52184Y-30673D01*
X52184Y-30744D01*
X52211Y-30809D01*
X52261Y-30860D01*
X52326Y-30887D01*
X52397Y-30887D01*
X52462Y-30860D01*
X52513Y-30810D01*
X52540Y-30745D01*
X52540Y-31855D01*
X52513Y-31790D01*
X52463Y-31739D01*
X52398Y-31712D01*
X52327Y-31712D01*
X52262Y-31739D01*
X52211Y-31789D01*
X52184Y-31854D01*
X52184Y-31925D01*
X52211Y-31990D01*
X52261Y-32041D01*
X52326Y-32068D01*
X52397Y-32068D01*
X52462Y-32041D01*
X52513Y-31991D01*
X52540Y-31926D01*
X52540Y-32642D01*
X52513Y-32577D01*
X52463Y-32526D01*
X52398Y-32499D01*
X52327Y-32499D01*
X52262Y-32526D01*
X52211Y-32576D01*
X52184Y-32641D01*
X52184Y-32712D01*
X52211Y-32777D01*
X52261Y-32828D01*
X52326Y-32855D01*
X52397Y-32855D01*
X52462Y-32828D01*
X52513Y-32778D01*
X52540Y-32713D01*
X52540Y-33430D01*
X52513Y-33365D01*
X52463Y-33314D01*
X52398Y-33287D01*
X52327Y-33287D01*
X52262Y-33314D01*
X52211Y-33364D01*
X52184Y-33429D01*
X52184Y-33500D01*
X52196Y-33531D01*
X52133Y-33531D01*
X52146Y-33501D01*
X52146Y-33430D01*
X52146Y-33107D01*
X52146Y-33036D01*
X52146Y-32319D01*
X52146Y-32248D01*
X52146Y-31138D01*
X52146Y-31067D01*
X52146Y-30351D01*
X52146Y-30280D01*
X52119Y-30215D01*
X52069Y-30164D01*
X52004Y-30137D01*
X51933Y-30137D01*
X51868Y-30164D01*
X51817Y-30214D01*
X51790Y-30279D01*
X51790Y-30350D01*
X51817Y-30415D01*
X51867Y-30466D01*
X51932Y-30493D01*
X52003Y-30493D01*
X52068Y-30466D01*
X52119Y-30416D01*
X52146Y-30351D01*
X52146Y-31067D01*
X52119Y-31002D01*
X52069Y-30951D01*
X52004Y-30924D01*
X51933Y-30924D01*
X51868Y-30951D01*
X51817Y-31001D01*
X51790Y-31066D01*
X51790Y-31137D01*
X51817Y-31202D01*
X51867Y-31253D01*
X51932Y-31280D01*
X52003Y-31280D01*
X52068Y-31253D01*
X52119Y-31203D01*
X52146Y-31138D01*
X52146Y-32248D01*
X52119Y-32183D01*
X52069Y-32132D01*
X52004Y-32105D01*
X51933Y-32105D01*
X51868Y-32132D01*
X51817Y-32182D01*
X51790Y-32247D01*
X51790Y-32318D01*
X51817Y-32383D01*
X51867Y-32434D01*
X51932Y-32461D01*
X52003Y-32461D01*
X52068Y-32434D01*
X52119Y-32384D01*
X52146Y-32319D01*
X52146Y-33036D01*
X52119Y-32971D01*
X52069Y-32920D01*
X52004Y-32893D01*
X51933Y-32893D01*
X51868Y-32920D01*
X51817Y-32970D01*
X51790Y-33035D01*
X51790Y-33106D01*
X51817Y-33171D01*
X51867Y-33222D01*
X51932Y-33249D01*
X52003Y-33249D01*
X52068Y-33222D01*
X52119Y-33172D01*
X52146Y-33107D01*
X52146Y-33430D01*
X52119Y-33365D01*
X52069Y-33314D01*
X52004Y-33287D01*
X51933Y-33287D01*
X51868Y-33314D01*
X51817Y-33364D01*
X51790Y-33429D01*
X51790Y-33500D01*
X51802Y-33531D01*
X51740Y-33531D01*
X51753Y-33501D01*
X51753Y-33430D01*
X51753Y-32713D01*
X51753Y-32642D01*
X51753Y-31926D01*
X51753Y-31855D01*
X51753Y-30745D01*
X51753Y-30674D01*
X51753Y-29957D01*
X51753Y-29886D01*
X51726Y-29821D01*
X51676Y-29770D01*
X51611Y-29743D01*
X51540Y-29743D01*
X51475Y-29770D01*
X51424Y-29820D01*
X51397Y-29885D01*
X51397Y-29956D01*
X51424Y-30021D01*
X51474Y-30072D01*
X51539Y-30099D01*
X51610Y-30099D01*
X51675Y-30072D01*
X51726Y-30022D01*
X51753Y-29957D01*
X51753Y-30674D01*
X51726Y-30609D01*
X51676Y-30558D01*
X51611Y-30531D01*
X51540Y-30531D01*
X51475Y-30558D01*
X51424Y-30608D01*
X51397Y-30673D01*
X51397Y-30744D01*
X51424Y-30809D01*
X51474Y-30860D01*
X51539Y-30887D01*
X51610Y-30887D01*
X51675Y-30860D01*
X51726Y-30810D01*
X51753Y-30745D01*
X51753Y-31855D01*
X51726Y-31790D01*
X51676Y-31739D01*
X51611Y-31712D01*
X51540Y-31712D01*
X51475Y-31739D01*
X51424Y-31789D01*
X51397Y-31854D01*
X51397Y-31925D01*
X51424Y-31990D01*
X51474Y-32041D01*
X51539Y-32068D01*
X51610Y-32068D01*
X51675Y-32041D01*
X51726Y-31991D01*
X51753Y-31926D01*
X51753Y-32642D01*
X51726Y-32577D01*
X51676Y-32526D01*
X51611Y-32499D01*
X51540Y-32499D01*
X51475Y-32526D01*
X51424Y-32576D01*
X51397Y-32641D01*
X51397Y-32712D01*
X51424Y-32777D01*
X51474Y-32828D01*
X51539Y-32855D01*
X51610Y-32855D01*
X51675Y-32828D01*
X51726Y-32778D01*
X51753Y-32713D01*
X51753Y-33430D01*
X51726Y-33365D01*
X51676Y-33314D01*
X51611Y-33287D01*
X51540Y-33287D01*
X51475Y-33314D01*
X51424Y-33364D01*
X51397Y-33429D01*
X51397Y-33500D01*
X51409Y-33531D01*
X50965Y-33531D01*
X50965Y-33107D01*
X50965Y-33036D01*
X50965Y-32319D01*
X50965Y-32248D01*
X50965Y-31138D01*
X50965Y-31067D01*
X50965Y-30351D01*
X50965Y-30280D01*
X50938Y-30215D01*
X50888Y-30164D01*
X50823Y-30137D01*
X50752Y-30137D01*
X50687Y-30164D01*
X50636Y-30214D01*
X50609Y-30279D01*
X50609Y-30350D01*
X50636Y-30415D01*
X50686Y-30466D01*
X50751Y-30493D01*
X50822Y-30493D01*
X50887Y-30466D01*
X50938Y-30416D01*
X50965Y-30351D01*
X50965Y-31067D01*
X50938Y-31002D01*
X50888Y-30951D01*
X50823Y-30924D01*
X50752Y-30924D01*
X50687Y-30951D01*
X50636Y-31001D01*
X50609Y-31066D01*
X50609Y-31137D01*
X50636Y-31202D01*
X50686Y-31253D01*
X50751Y-31280D01*
X50822Y-31280D01*
X50887Y-31253D01*
X50938Y-31203D01*
X50965Y-31138D01*
X50965Y-32248D01*
X50938Y-32183D01*
X50888Y-32132D01*
X50823Y-32105D01*
X50752Y-32105D01*
X50687Y-32132D01*
X50636Y-32182D01*
X50609Y-32247D01*
X50609Y-32318D01*
X50636Y-32383D01*
X50686Y-32434D01*
X50751Y-32461D01*
X50822Y-32461D01*
X50887Y-32434D01*
X50938Y-32384D01*
X50965Y-32319D01*
X50965Y-33036D01*
X50938Y-32971D01*
X50888Y-32920D01*
X50823Y-32893D01*
X50752Y-32893D01*
X50687Y-32920D01*
X50636Y-32970D01*
X50609Y-33035D01*
X50609Y-33106D01*
X50636Y-33171D01*
X50686Y-33222D01*
X50751Y-33249D01*
X50822Y-33249D01*
X50887Y-33222D01*
X50938Y-33172D01*
X50965Y-33107D01*
X50965Y-33531D01*
X50559Y-33531D01*
X50572Y-33501D01*
X50572Y-33430D01*
X50572Y-32713D01*
X50572Y-32642D01*
X50572Y-31926D01*
X50572Y-31855D01*
X50572Y-30745D01*
X50572Y-30674D01*
X50572Y-29957D01*
X50572Y-29886D01*
X50545Y-29821D01*
X50495Y-29770D01*
X50430Y-29743D01*
X50359Y-29743D01*
X50294Y-29770D01*
X50243Y-29820D01*
X50216Y-29885D01*
X50216Y-29956D01*
X50243Y-30021D01*
X50293Y-30072D01*
X50358Y-30099D01*
X50429Y-30099D01*
X50494Y-30072D01*
X50545Y-30022D01*
X50572Y-29957D01*
X50572Y-30674D01*
X50545Y-30609D01*
X50495Y-30558D01*
X50430Y-30531D01*
X50359Y-30531D01*
X50294Y-30558D01*
X50243Y-30608D01*
X50216Y-30673D01*
X50216Y-30744D01*
X50243Y-30809D01*
X50293Y-30860D01*
X50358Y-30887D01*
X50429Y-30887D01*
X50494Y-30860D01*
X50545Y-30810D01*
X50572Y-30745D01*
X50572Y-31855D01*
X50545Y-31790D01*
X50495Y-31739D01*
X50430Y-31712D01*
X50359Y-31712D01*
X50294Y-31739D01*
X50243Y-31789D01*
X50216Y-31854D01*
X50216Y-31925D01*
X50243Y-31990D01*
X50293Y-32041D01*
X50358Y-32068D01*
X50429Y-32068D01*
X50494Y-32041D01*
X50545Y-31991D01*
X50572Y-31926D01*
X50572Y-32642D01*
X50545Y-32577D01*
X50495Y-32526D01*
X50430Y-32499D01*
X50359Y-32499D01*
X50294Y-32526D01*
X50243Y-32576D01*
X50216Y-32641D01*
X50216Y-32712D01*
X50243Y-32777D01*
X50293Y-32828D01*
X50358Y-32855D01*
X50429Y-32855D01*
X50494Y-32828D01*
X50545Y-32778D01*
X50572Y-32713D01*
X50572Y-33430D01*
X50545Y-33365D01*
X50495Y-33314D01*
X50430Y-33287D01*
X50359Y-33287D01*
X50294Y-33314D01*
X50243Y-33364D01*
X50216Y-33429D01*
X50216Y-33500D01*
X50228Y-33531D01*
X50178Y-33531D01*
X50178Y-33107D01*
X50178Y-33036D01*
X50178Y-32319D01*
X50178Y-32248D01*
X50178Y-31138D01*
X50178Y-31067D01*
X50178Y-30351D01*
X50178Y-30280D01*
X50151Y-30215D01*
X50101Y-30164D01*
X50036Y-30137D01*
X49965Y-30137D01*
X49900Y-30164D01*
X49849Y-30214D01*
X49822Y-30279D01*
X49822Y-30350D01*
X49849Y-30415D01*
X49899Y-30466D01*
X49964Y-30493D01*
X50035Y-30493D01*
X50100Y-30466D01*
X50151Y-30416D01*
X50178Y-30351D01*
X50178Y-31067D01*
X50151Y-31002D01*
X50101Y-30951D01*
X50036Y-30924D01*
X49965Y-30924D01*
X49900Y-30951D01*
X49849Y-31001D01*
X49822Y-31066D01*
X49822Y-31137D01*
X49849Y-31202D01*
X49899Y-31253D01*
X49964Y-31280D01*
X50035Y-31280D01*
X50100Y-31253D01*
X50151Y-31203D01*
X50178Y-31138D01*
X50178Y-32248D01*
X50151Y-32183D01*
X50101Y-32132D01*
X50036Y-32105D01*
X49965Y-32105D01*
X49900Y-32132D01*
X49849Y-32182D01*
X49822Y-32247D01*
X49822Y-32318D01*
X49849Y-32383D01*
X49899Y-32434D01*
X49964Y-32461D01*
X50035Y-32461D01*
X50100Y-32434D01*
X50151Y-32384D01*
X50178Y-32319D01*
X50178Y-33036D01*
X50151Y-32971D01*
X50101Y-32920D01*
X50036Y-32893D01*
X49965Y-32893D01*
X49900Y-32920D01*
X49849Y-32970D01*
X49822Y-33035D01*
X49822Y-33106D01*
X49849Y-33171D01*
X49899Y-33222D01*
X49964Y-33249D01*
X50035Y-33249D01*
X50100Y-33222D01*
X50151Y-33172D01*
X50178Y-33107D01*
X50178Y-33531D01*
X49771Y-33531D01*
X49784Y-33501D01*
X49784Y-33430D01*
X49784Y-32713D01*
X49784Y-32642D01*
X49784Y-31926D01*
X49784Y-31855D01*
X49784Y-30745D01*
X49784Y-30674D01*
X49784Y-29957D01*
X49784Y-29886D01*
X49757Y-29821D01*
X49707Y-29770D01*
X49642Y-29743D01*
X49571Y-29743D01*
X49506Y-29770D01*
X49455Y-29820D01*
X49428Y-29885D01*
X49428Y-29956D01*
X49455Y-30021D01*
X49505Y-30072D01*
X49570Y-30099D01*
X49641Y-30099D01*
X49706Y-30072D01*
X49757Y-30022D01*
X49784Y-29957D01*
X49784Y-30674D01*
X49757Y-30609D01*
X49707Y-30558D01*
X49642Y-30531D01*
X49571Y-30531D01*
X49506Y-30558D01*
X49455Y-30608D01*
X49428Y-30673D01*
X49428Y-30744D01*
X49455Y-30809D01*
X49505Y-30860D01*
X49570Y-30887D01*
X49641Y-30887D01*
X49706Y-30860D01*
X49757Y-30810D01*
X49784Y-30745D01*
X49784Y-31855D01*
X49757Y-31790D01*
X49707Y-31739D01*
X49642Y-31712D01*
X49571Y-31712D01*
X49506Y-31739D01*
X49455Y-31789D01*
X49428Y-31854D01*
X49428Y-31925D01*
X49455Y-31990D01*
X49505Y-32041D01*
X49570Y-32068D01*
X49641Y-32068D01*
X49706Y-32041D01*
X49757Y-31991D01*
X49784Y-31926D01*
X49784Y-32642D01*
X49757Y-32577D01*
X49707Y-32526D01*
X49642Y-32499D01*
X49571Y-32499D01*
X49506Y-32526D01*
X49455Y-32576D01*
X49428Y-32641D01*
X49428Y-32712D01*
X49455Y-32777D01*
X49505Y-32828D01*
X49570Y-32855D01*
X49641Y-32855D01*
X49706Y-32828D01*
X49757Y-32778D01*
X49784Y-32713D01*
X49784Y-33430D01*
X49757Y-33365D01*
X49707Y-33314D01*
X49642Y-33287D01*
X49571Y-33287D01*
X49506Y-33314D01*
X49455Y-33364D01*
X49428Y-33429D01*
X49428Y-33500D01*
X49440Y-33531D01*
X49390Y-33531D01*
X49390Y-33107D01*
X49390Y-33036D01*
X49390Y-32319D01*
X49390Y-32248D01*
X49390Y-31138D01*
X49390Y-31067D01*
X49390Y-30351D01*
X49390Y-30280D01*
X49363Y-30215D01*
X49313Y-30164D01*
X49248Y-30137D01*
X49177Y-30137D01*
X49112Y-30164D01*
X49061Y-30214D01*
X49034Y-30279D01*
X49034Y-30350D01*
X49061Y-30415D01*
X49111Y-30466D01*
X49176Y-30493D01*
X49247Y-30493D01*
X49312Y-30466D01*
X49363Y-30416D01*
X49390Y-30351D01*
X49390Y-31067D01*
X49363Y-31002D01*
X49313Y-30951D01*
X49248Y-30924D01*
X49177Y-30924D01*
X49112Y-30951D01*
X49061Y-31001D01*
X49034Y-31066D01*
X49034Y-31137D01*
X49061Y-31202D01*
X49111Y-31253D01*
X49176Y-31280D01*
X49247Y-31280D01*
X49312Y-31253D01*
X49363Y-31203D01*
X49390Y-31138D01*
X49390Y-32248D01*
X49363Y-32183D01*
X49313Y-32132D01*
X49248Y-32105D01*
X49177Y-32105D01*
X49112Y-32132D01*
X49061Y-32182D01*
X49034Y-32247D01*
X49034Y-32318D01*
X49061Y-32383D01*
X49111Y-32434D01*
X49176Y-32461D01*
X49247Y-32461D01*
X49312Y-32434D01*
X49363Y-32384D01*
X49390Y-32319D01*
X49390Y-33036D01*
X49363Y-32971D01*
X49313Y-32920D01*
X49248Y-32893D01*
X49177Y-32893D01*
X49112Y-32920D01*
X49061Y-32970D01*
X49034Y-33035D01*
X49034Y-33106D01*
X49061Y-33171D01*
X49111Y-33222D01*
X49176Y-33249D01*
X49247Y-33249D01*
X49312Y-33222D01*
X49363Y-33172D01*
X49390Y-33107D01*
X49390Y-33531D01*
X49016Y-33531D01*
X48966Y-33541D01*
X48948Y-33553D01*
X48652Y-33553D01*
X48652Y-32738D01*
X48668Y-32777D01*
X48718Y-32828D01*
X48783Y-32855D01*
X48854Y-32855D01*
X48919Y-32828D01*
X48970Y-32778D01*
X48997Y-32713D01*
X48997Y-32642D01*
X48970Y-32577D01*
X48920Y-32526D01*
X48855Y-32499D01*
X48784Y-32499D01*
X48719Y-32526D01*
X48668Y-32576D01*
X48652Y-32614D01*
X48652Y-31951D01*
X48668Y-31990D01*
X48718Y-32041D01*
X48783Y-32068D01*
X48854Y-32068D01*
X48919Y-32041D01*
X48970Y-31991D01*
X48997Y-31926D01*
X48997Y-31855D01*
X48997Y-30745D01*
X48997Y-30674D01*
X48997Y-29957D01*
X48997Y-29886D01*
X48970Y-29821D01*
X48920Y-29770D01*
X48855Y-29743D01*
X48784Y-29743D01*
X48719Y-29770D01*
X48668Y-29820D01*
X48641Y-29885D01*
X48641Y-29956D01*
X48668Y-30021D01*
X48718Y-30072D01*
X48783Y-30099D01*
X48854Y-30099D01*
X48919Y-30072D01*
X48970Y-30022D01*
X48997Y-29957D01*
X48997Y-30674D01*
X48970Y-30609D01*
X48920Y-30558D01*
X48855Y-30531D01*
X48784Y-30531D01*
X48719Y-30558D01*
X48668Y-30608D01*
X48641Y-30673D01*
X48641Y-30744D01*
X48668Y-30809D01*
X48718Y-30860D01*
X48783Y-30887D01*
X48854Y-30887D01*
X48919Y-30860D01*
X48970Y-30810D01*
X48997Y-30745D01*
X48997Y-31855D01*
X48970Y-31790D01*
X48920Y-31739D01*
X48855Y-31712D01*
X48784Y-31712D01*
X48719Y-31739D01*
X48668Y-31789D01*
X48652Y-31827D01*
X48652Y-30894D01*
X48603Y-30845D01*
X48603Y-29957D01*
X48603Y-29886D01*
X48576Y-29821D01*
X48526Y-29770D01*
X48461Y-29743D01*
X48390Y-29743D01*
X48325Y-29770D01*
X48274Y-29820D01*
X48247Y-29885D01*
X48247Y-29956D01*
X48274Y-30021D01*
X48324Y-30072D01*
X48389Y-30099D01*
X48460Y-30099D01*
X48525Y-30072D01*
X48576Y-30022D01*
X48603Y-29957D01*
X48603Y-30845D01*
X47816Y-30058D01*
X47816Y-29563D01*
X47816Y-29492D01*
X47789Y-29427D01*
X47739Y-29376D01*
X47674Y-29349D01*
X47603Y-29349D01*
X47538Y-29376D01*
X47487Y-29426D01*
X47460Y-29491D01*
X47460Y-29562D01*
X47487Y-29627D01*
X47537Y-29678D01*
X47602Y-29705D01*
X47673Y-29705D01*
X47738Y-29678D01*
X47789Y-29628D01*
X47816Y-29563D01*
X47816Y-30058D01*
X47390Y-29632D01*
X47395Y-29628D01*
X47422Y-29563D01*
X47422Y-29492D01*
X47395Y-29427D01*
X47345Y-29376D01*
X47280Y-29349D01*
X47209Y-29349D01*
X47144Y-29376D01*
X47139Y-29380D01*
X47028Y-29269D01*
X47028Y-28382D01*
X47028Y-28311D01*
X47001Y-28246D01*
X46951Y-28195D01*
X46886Y-28168D01*
X46815Y-28168D01*
X46750Y-28195D01*
X46699Y-28245D01*
X46672Y-28310D01*
X46672Y-28381D01*
X46699Y-28446D01*
X46749Y-28497D01*
X46814Y-28524D01*
X46885Y-28524D01*
X46950Y-28497D01*
X47001Y-28447D01*
X47028Y-28382D01*
X47028Y-29269D01*
X46603Y-28845D01*
X46608Y-28841D01*
X46635Y-28776D01*
X46635Y-28705D01*
X46635Y-28382D01*
X46635Y-28311D01*
X46608Y-28246D01*
X46558Y-28195D01*
X46493Y-28168D01*
X46422Y-28168D01*
X46357Y-28195D01*
X46306Y-28245D01*
X46279Y-28310D01*
X46279Y-28381D01*
X46306Y-28446D01*
X46356Y-28497D01*
X46421Y-28524D01*
X46492Y-28524D01*
X46557Y-28497D01*
X46608Y-28447D01*
X46635Y-28382D01*
X46635Y-28705D01*
X46608Y-28640D01*
X46558Y-28589D01*
X46493Y-28562D01*
X46422Y-28562D01*
X46357Y-28589D01*
X46352Y-28593D01*
X41902Y-24143D01*
X41605Y-24143D01*
X41605Y-22786D01*
X43238Y-22786D01*
X43238Y-24264D01*
X45587Y-26613D01*
X45569Y-26621D01*
X45518Y-26671D01*
X45491Y-26736D01*
X45491Y-26807D01*
X45518Y-26872D01*
X45568Y-26923D01*
X45633Y-26950D01*
X45704Y-26950D01*
X45769Y-26923D01*
X45820Y-26873D01*
X45827Y-26853D01*
X48342Y-29368D01*
X48325Y-29376D01*
X48274Y-29426D01*
X48247Y-29491D01*
X48247Y-29562D01*
X48274Y-29627D01*
X48324Y-29678D01*
X48389Y-29705D01*
X48460Y-29705D01*
X48525Y-29678D01*
X48576Y-29628D01*
X48603Y-29563D01*
X48603Y-29492D01*
X48580Y-29439D01*
X48948Y-29439D01*
X48966Y-29451D01*
X49016Y-29461D01*
X49046Y-29461D01*
X49034Y-29491D01*
X49034Y-29562D01*
X49061Y-29627D01*
X49111Y-29678D01*
X49176Y-29705D01*
X49247Y-29705D01*
X49312Y-29678D01*
X49363Y-29628D01*
X49390Y-29563D01*
X49390Y-29492D01*
X49377Y-29461D01*
X49834Y-29461D01*
X49822Y-29491D01*
X49822Y-29562D01*
X49849Y-29627D01*
X49899Y-29678D01*
X49964Y-29705D01*
X50035Y-29705D01*
X50100Y-29678D01*
X50151Y-29628D01*
X50178Y-29563D01*
X50178Y-29492D01*
X50165Y-29461D01*
X50228Y-29461D01*
X50216Y-29491D01*
X50216Y-29562D01*
X50243Y-29627D01*
X50293Y-29678D01*
X50358Y-29705D01*
X50429Y-29705D01*
X50494Y-29678D01*
X50545Y-29628D01*
X50572Y-29563D01*
X50572Y-29492D01*
X50559Y-29461D01*
X50621Y-29461D01*
X50609Y-29491D01*
X50609Y-29562D01*
X50636Y-29627D01*
X50686Y-29678D01*
X50751Y-29705D01*
X50822Y-29705D01*
X50887Y-29678D01*
X50938Y-29628D01*
X50965Y-29563D01*
X50965Y-29492D01*
X50952Y-29461D01*
X51409Y-29461D01*
X51397Y-29491D01*
X51397Y-29562D01*
X51424Y-29627D01*
X51474Y-29678D01*
X51539Y-29705D01*
X51610Y-29705D01*
X51675Y-29678D01*
X51726Y-29628D01*
X51753Y-29563D01*
X51753Y-29492D01*
X51740Y-29461D01*
X51802Y-29461D01*
X51790Y-29491D01*
X51790Y-29562D01*
X51817Y-29627D01*
X51867Y-29678D01*
X51932Y-29705D01*
X52003Y-29705D01*
X52068Y-29678D01*
X52119Y-29628D01*
X52146Y-29563D01*
X52146Y-29492D01*
X52133Y-29461D01*
X52590Y-29461D01*
X52578Y-29491D01*
X52578Y-29562D01*
X52605Y-29627D01*
X52655Y-29678D01*
X52720Y-29705D01*
X52791Y-29705D01*
X52856Y-29678D01*
X52907Y-29628D01*
X52934Y-29563D01*
X52934Y-29492D01*
X52921Y-29461D01*
X53346Y-29461D01*
X53380Y-29454D01*
X53365Y-29491D01*
X53365Y-29562D01*
X53392Y-29627D01*
X53442Y-29678D01*
X53507Y-29705D01*
X53578Y-29705D01*
X53610Y-29691D01*
X53610Y-29755D01*
X53579Y-29743D01*
X53508Y-29743D01*
X53443Y-29770D01*
X53392Y-29820D01*
X53365Y-29885D01*
X53365Y-29956D01*
X53392Y-30021D01*
X53442Y-30072D01*
X53507Y-30099D01*
X53578Y-30099D01*
X53610Y-30085D01*
X53610Y-30149D01*
X53579Y-30137D01*
X53508Y-30137D01*
X53443Y-30164D01*
X53392Y-30214D01*
X53365Y-30279D01*
X53365Y-30350D01*
X53392Y-30415D01*
X53442Y-30466D01*
X53507Y-30493D01*
X53578Y-30493D01*
X53610Y-30479D01*
X53610Y-30936D01*
X53579Y-30924D01*
X53508Y-30924D01*
X53443Y-30951D01*
X53392Y-31001D01*
X53365Y-31066D01*
X53365Y-31137D01*
X53392Y-31202D01*
X53442Y-31253D01*
X53507Y-31280D01*
X53578Y-31280D01*
X53610Y-31266D01*
X53610Y-32117D01*
X53579Y-32105D01*
X53508Y-32105D01*
X53443Y-32132D01*
X53392Y-32182D01*
X53365Y-32247D01*
X53365Y-32318D01*
X53392Y-32383D01*
X53442Y-32434D01*
X53507Y-32461D01*
X53578Y-32461D01*
X53610Y-32447D01*
X53610Y-32511D01*
X53579Y-32499D01*
X53508Y-32499D01*
X53443Y-32526D01*
X53392Y-32576D01*
X53365Y-32641D01*
X53365Y-32712D01*
X53392Y-32777D01*
X53442Y-32828D01*
X53507Y-32855D01*
X53578Y-32855D01*
X53610Y-32841D01*
X53610Y-33553D01*
X53610Y-33553D01*
G37*
X53610Y-33553D02*
X53414Y-33553D01*
X53396Y-33541D01*
X53346Y-33531D01*
X53315Y-33531D01*
X53328Y-33501D01*
X53328Y-33430D01*
X53328Y-32713D01*
X53328Y-32642D01*
X53328Y-31926D01*
X53328Y-31855D01*
X53328Y-30745D01*
X53328Y-30674D01*
X53328Y-29957D01*
X53328Y-29886D01*
X53301Y-29821D01*
X53251Y-29770D01*
X53186Y-29743D01*
X53115Y-29743D01*
X53050Y-29770D01*
X52999Y-29820D01*
X52972Y-29885D01*
X52972Y-29956D01*
X52999Y-30021D01*
X53049Y-30072D01*
X53114Y-30099D01*
X53185Y-30099D01*
X53250Y-30072D01*
X53301Y-30022D01*
X53328Y-29957D01*
X53328Y-30674D01*
X53301Y-30609D01*
X53251Y-30558D01*
X53186Y-30531D01*
X53115Y-30531D01*
X53050Y-30558D01*
X52999Y-30608D01*
X52972Y-30673D01*
X52972Y-30744D01*
X52999Y-30809D01*
X53049Y-30860D01*
X53114Y-30887D01*
X53185Y-30887D01*
X53250Y-30860D01*
X53301Y-30810D01*
X53328Y-30745D01*
X53328Y-31855D01*
X53301Y-31790D01*
X53251Y-31739D01*
X53186Y-31712D01*
X53115Y-31712D01*
X53050Y-31739D01*
X52999Y-31789D01*
X52972Y-31854D01*
X52972Y-31925D01*
X52999Y-31990D01*
X53049Y-32041D01*
X53114Y-32068D01*
X53185Y-32068D01*
X53250Y-32041D01*
X53301Y-31991D01*
X53328Y-31926D01*
X53328Y-32642D01*
X53301Y-32577D01*
X53251Y-32526D01*
X53186Y-32499D01*
X53115Y-32499D01*
X53050Y-32526D01*
X52999Y-32576D01*
X52972Y-32641D01*
X52972Y-32712D01*
X52999Y-32777D01*
X53049Y-32828D01*
X53114Y-32855D01*
X53185Y-32855D01*
X53250Y-32828D01*
X53301Y-32778D01*
X53328Y-32713D01*
X53328Y-33430D01*
X53301Y-33365D01*
X53251Y-33314D01*
X53186Y-33287D01*
X53115Y-33287D01*
X53050Y-33314D01*
X52999Y-33364D01*
X52972Y-33429D01*
X52972Y-33500D01*
X52984Y-33531D01*
X52934Y-33531D01*
X52934Y-33107D01*
X52934Y-33036D01*
X52934Y-32319D01*
X52934Y-32248D01*
X52934Y-31138D01*
X52934Y-31067D01*
X52934Y-30351D01*
X52934Y-30280D01*
X52907Y-30215D01*
X52857Y-30164D01*
X52792Y-30137D01*
X52721Y-30137D01*
X52656Y-30164D01*
X52605Y-30214D01*
X52578Y-30279D01*
X52578Y-30350D01*
X52605Y-30415D01*
X52655Y-30466D01*
X52720Y-30493D01*
X52791Y-30493D01*
X52856Y-30466D01*
X52907Y-30416D01*
X52934Y-30351D01*
X52934Y-31067D01*
X52907Y-31002D01*
X52857Y-30951D01*
X52792Y-30924D01*
X52721Y-30924D01*
X52656Y-30951D01*
X52605Y-31001D01*
X52578Y-31066D01*
X52578Y-31137D01*
X52605Y-31202D01*
X52655Y-31253D01*
X52720Y-31280D01*
X52791Y-31280D01*
X52856Y-31253D01*
X52907Y-31203D01*
X52934Y-31138D01*
X52934Y-32248D01*
X52907Y-32183D01*
X52857Y-32132D01*
X52792Y-32105D01*
X52721Y-32105D01*
X52656Y-32132D01*
X52605Y-32182D01*
X52578Y-32247D01*
X52578Y-32318D01*
X52605Y-32383D01*
X52655Y-32434D01*
X52720Y-32461D01*
X52791Y-32461D01*
X52856Y-32434D01*
X52907Y-32384D01*
X52934Y-32319D01*
X52934Y-33036D01*
X52907Y-32971D01*
X52857Y-32920D01*
X52792Y-32893D01*
X52721Y-32893D01*
X52656Y-32920D01*
X52605Y-32970D01*
X52578Y-33035D01*
X52578Y-33106D01*
X52605Y-33171D01*
X52655Y-33222D01*
X52720Y-33249D01*
X52791Y-33249D01*
X52856Y-33222D01*
X52907Y-33172D01*
X52934Y-33107D01*
X52934Y-33531D01*
X52527Y-33531D01*
X52540Y-33501D01*
X52540Y-33430D01*
X52540Y-32713D01*
X52540Y-32642D01*
X52540Y-31926D01*
X52540Y-31855D01*
X52540Y-30745D01*
X52540Y-30674D01*
X52540Y-29957D01*
X52540Y-29886D01*
X52513Y-29821D01*
X52463Y-29770D01*
X52398Y-29743D01*
X52327Y-29743D01*
X52262Y-29770D01*
X52211Y-29820D01*
X52184Y-29885D01*
X52184Y-29956D01*
X52211Y-30021D01*
X52261Y-30072D01*
X52326Y-30099D01*
X52397Y-30099D01*
X52462Y-30072D01*
X52513Y-30022D01*
X52540Y-29957D01*
X52540Y-30674D01*
X52513Y-30609D01*
X52463Y-30558D01*
X52398Y-30531D01*
X52327Y-30531D01*
X52262Y-30558D01*
X52211Y-30608D01*
X52184Y-30673D01*
X52184Y-30744D01*
X52211Y-30809D01*
X52261Y-30860D01*
X52326Y-30887D01*
X52397Y-30887D01*
X52462Y-30860D01*
X52513Y-30810D01*
X52540Y-30745D01*
X52540Y-31855D01*
X52513Y-31790D01*
X52463Y-31739D01*
X52398Y-31712D01*
X52327Y-31712D01*
X52262Y-31739D01*
X52211Y-31789D01*
X52184Y-31854D01*
X52184Y-31925D01*
X52211Y-31990D01*
X52261Y-32041D01*
X52326Y-32068D01*
X52397Y-32068D01*
X52462Y-32041D01*
X52513Y-31991D01*
X52540Y-31926D01*
X52540Y-32642D01*
X52513Y-32577D01*
X52463Y-32526D01*
X52398Y-32499D01*
X52327Y-32499D01*
X52262Y-32526D01*
X52211Y-32576D01*
X52184Y-32641D01*
X52184Y-32712D01*
X52211Y-32777D01*
X52261Y-32828D01*
X52326Y-32855D01*
X52397Y-32855D01*
X52462Y-32828D01*
X52513Y-32778D01*
X52540Y-32713D01*
X52540Y-33430D01*
X52513Y-33365D01*
X52463Y-33314D01*
X52398Y-33287D01*
X52327Y-33287D01*
X52262Y-33314D01*
X52211Y-33364D01*
X52184Y-33429D01*
X52184Y-33500D01*
X52196Y-33531D01*
X52133Y-33531D01*
X52146Y-33501D01*
X52146Y-33430D01*
X52146Y-33107D01*
X52146Y-33036D01*
X52146Y-32319D01*
X52146Y-32248D01*
X52146Y-31138D01*
X52146Y-31067D01*
X52146Y-30351D01*
X52146Y-30280D01*
X52119Y-30215D01*
X52069Y-30164D01*
X52004Y-30137D01*
X51933Y-30137D01*
X51868Y-30164D01*
X51817Y-30214D01*
X51790Y-30279D01*
X51790Y-30350D01*
X51817Y-30415D01*
X51867Y-30466D01*
X51932Y-30493D01*
X52003Y-30493D01*
X52068Y-30466D01*
X52119Y-30416D01*
X52146Y-30351D01*
X52146Y-31067D01*
X52119Y-31002D01*
X52069Y-30951D01*
X52004Y-30924D01*
X51933Y-30924D01*
X51868Y-30951D01*
X51817Y-31001D01*
X51790Y-31066D01*
X51790Y-31137D01*
X51817Y-31202D01*
X51867Y-31253D01*
X51932Y-31280D01*
X52003Y-31280D01*
X52068Y-31253D01*
X52119Y-31203D01*
X52146Y-31138D01*
X52146Y-32248D01*
X52119Y-32183D01*
X52069Y-32132D01*
X52004Y-32105D01*
X51933Y-32105D01*
X51868Y-32132D01*
X51817Y-32182D01*
X51790Y-32247D01*
X51790Y-32318D01*
X51817Y-32383D01*
X51867Y-32434D01*
X51932Y-32461D01*
X52003Y-32461D01*
X52068Y-32434D01*
X52119Y-32384D01*
X52146Y-32319D01*
X52146Y-33036D01*
X52119Y-32971D01*
X52069Y-32920D01*
X52004Y-32893D01*
X51933Y-32893D01*
X51868Y-32920D01*
X51817Y-32970D01*
X51790Y-33035D01*
X51790Y-33106D01*
X51817Y-33171D01*
X51867Y-33222D01*
X51932Y-33249D01*
X52003Y-33249D01*
X52068Y-33222D01*
X52119Y-33172D01*
X52146Y-33107D01*
X52146Y-33430D01*
X52119Y-33365D01*
X52069Y-33314D01*
X52004Y-33287D01*
X51933Y-33287D01*
X51868Y-33314D01*
X51817Y-33364D01*
X51790Y-33429D01*
X51790Y-33500D01*
X51802Y-33531D01*
X51740Y-33531D01*
X51753Y-33501D01*
X51753Y-33430D01*
X51753Y-32713D01*
X51753Y-32642D01*
X51753Y-31926D01*
X51753Y-31855D01*
X51753Y-30745D01*
X51753Y-30674D01*
X51753Y-29957D01*
X51753Y-29886D01*
X51726Y-29821D01*
X51676Y-29770D01*
X51611Y-29743D01*
X51540Y-29743D01*
X51475Y-29770D01*
X51424Y-29820D01*
X51397Y-29885D01*
X51397Y-29956D01*
X51424Y-30021D01*
X51474Y-30072D01*
X51539Y-30099D01*
X51610Y-30099D01*
X51675Y-30072D01*
X51726Y-30022D01*
X51753Y-29957D01*
X51753Y-30674D01*
X51726Y-30609D01*
X51676Y-30558D01*
X51611Y-30531D01*
X51540Y-30531D01*
X51475Y-30558D01*
X51424Y-30608D01*
X51397Y-30673D01*
X51397Y-30744D01*
X51424Y-30809D01*
X51474Y-30860D01*
X51539Y-30887D01*
X51610Y-30887D01*
X51675Y-30860D01*
X51726Y-30810D01*
X51753Y-30745D01*
X51753Y-31855D01*
X51726Y-31790D01*
X51676Y-31739D01*
X51611Y-31712D01*
X51540Y-31712D01*
X51475Y-31739D01*
X51424Y-31789D01*
X51397Y-31854D01*
X51397Y-31925D01*
X51424Y-31990D01*
X51474Y-32041D01*
X51539Y-32068D01*
X51610Y-32068D01*
X51675Y-32041D01*
X51726Y-31991D01*
X51753Y-31926D01*
X51753Y-32642D01*
X51726Y-32577D01*
X51676Y-32526D01*
X51611Y-32499D01*
X51540Y-32499D01*
X51475Y-32526D01*
X51424Y-32576D01*
X51397Y-32641D01*
X51397Y-32712D01*
X51424Y-32777D01*
X51474Y-32828D01*
X51539Y-32855D01*
X51610Y-32855D01*
X51675Y-32828D01*
X51726Y-32778D01*
X51753Y-32713D01*
X51753Y-33430D01*
X51726Y-33365D01*
X51676Y-33314D01*
X51611Y-33287D01*
X51540Y-33287D01*
X51475Y-33314D01*
X51424Y-33364D01*
X51397Y-33429D01*
X51397Y-33500D01*
X51409Y-33531D01*
X50965Y-33531D01*
X50965Y-33107D01*
X50965Y-33036D01*
X50965Y-32319D01*
X50965Y-32248D01*
X50965Y-31138D01*
X50965Y-31067D01*
X50965Y-30351D01*
X50965Y-30280D01*
X50938Y-30215D01*
X50888Y-30164D01*
X50823Y-30137D01*
X50752Y-30137D01*
X50687Y-30164D01*
X50636Y-30214D01*
X50609Y-30279D01*
X50609Y-30350D01*
X50636Y-30415D01*
X50686Y-30466D01*
X50751Y-30493D01*
X50822Y-30493D01*
X50887Y-30466D01*
X50938Y-30416D01*
X50965Y-30351D01*
X50965Y-31067D01*
X50938Y-31002D01*
X50888Y-30951D01*
X50823Y-30924D01*
X50752Y-30924D01*
X50687Y-30951D01*
X50636Y-31001D01*
X50609Y-31066D01*
X50609Y-31137D01*
X50636Y-31202D01*
X50686Y-31253D01*
X50751Y-31280D01*
X50822Y-31280D01*
X50887Y-31253D01*
X50938Y-31203D01*
X50965Y-31138D01*
X50965Y-32248D01*
X50938Y-32183D01*
X50888Y-32132D01*
X50823Y-32105D01*
X50752Y-32105D01*
X50687Y-32132D01*
X50636Y-32182D01*
X50609Y-32247D01*
X50609Y-32318D01*
X50636Y-32383D01*
X50686Y-32434D01*
X50751Y-32461D01*
X50822Y-32461D01*
X50887Y-32434D01*
X50938Y-32384D01*
X50965Y-32319D01*
X50965Y-33036D01*
X50938Y-32971D01*
X50888Y-32920D01*
X50823Y-32893D01*
X50752Y-32893D01*
X50687Y-32920D01*
X50636Y-32970D01*
X50609Y-33035D01*
X50609Y-33106D01*
X50636Y-33171D01*
X50686Y-33222D01*
X50751Y-33249D01*
X50822Y-33249D01*
X50887Y-33222D01*
X50938Y-33172D01*
X50965Y-33107D01*
X50965Y-33531D01*
X50559Y-33531D01*
X50572Y-33501D01*
X50572Y-33430D01*
X50572Y-32713D01*
X50572Y-32642D01*
X50572Y-31926D01*
X50572Y-31855D01*
X50572Y-30745D01*
X50572Y-30674D01*
X50572Y-29957D01*
X50572Y-29886D01*
X50545Y-29821D01*
X50495Y-29770D01*
X50430Y-29743D01*
X50359Y-29743D01*
X50294Y-29770D01*
X50243Y-29820D01*
X50216Y-29885D01*
X50216Y-29956D01*
X50243Y-30021D01*
X50293Y-30072D01*
X50358Y-30099D01*
X50429Y-30099D01*
X50494Y-30072D01*
X50545Y-30022D01*
X50572Y-29957D01*
X50572Y-30674D01*
X50545Y-30609D01*
X50495Y-30558D01*
X50430Y-30531D01*
X50359Y-30531D01*
X50294Y-30558D01*
X50243Y-30608D01*
X50216Y-30673D01*
X50216Y-30744D01*
X50243Y-30809D01*
X50293Y-30860D01*
X50358Y-30887D01*
X50429Y-30887D01*
X50494Y-30860D01*
X50545Y-30810D01*
X50572Y-30745D01*
X50572Y-31855D01*
X50545Y-31790D01*
X50495Y-31739D01*
X50430Y-31712D01*
X50359Y-31712D01*
X50294Y-31739D01*
X50243Y-31789D01*
X50216Y-31854D01*
X50216Y-31925D01*
X50243Y-31990D01*
X50293Y-32041D01*
X50358Y-32068D01*
X50429Y-32068D01*
X50494Y-32041D01*
X50545Y-31991D01*
X50572Y-31926D01*
X50572Y-32642D01*
X50545Y-32577D01*
X50495Y-32526D01*
X50430Y-32499D01*
X50359Y-32499D01*
X50294Y-32526D01*
X50243Y-32576D01*
X50216Y-32641D01*
X50216Y-32712D01*
X50243Y-32777D01*
X50293Y-32828D01*
X50358Y-32855D01*
X50429Y-32855D01*
X50494Y-32828D01*
X50545Y-32778D01*
X50572Y-32713D01*
X50572Y-33430D01*
X50545Y-33365D01*
X50495Y-33314D01*
X50430Y-33287D01*
X50359Y-33287D01*
X50294Y-33314D01*
X50243Y-33364D01*
X50216Y-33429D01*
X50216Y-33500D01*
X50228Y-33531D01*
X50178Y-33531D01*
X50178Y-33107D01*
X50178Y-33036D01*
X50178Y-32319D01*
X50178Y-32248D01*
X50178Y-31138D01*
X50178Y-31067D01*
X50178Y-30351D01*
X50178Y-30280D01*
X50151Y-30215D01*
X50101Y-30164D01*
X50036Y-30137D01*
X49965Y-30137D01*
X49900Y-30164D01*
X49849Y-30214D01*
X49822Y-30279D01*
X49822Y-30350D01*
X49849Y-30415D01*
X49899Y-30466D01*
X49964Y-30493D01*
X50035Y-30493D01*
X50100Y-30466D01*
X50151Y-30416D01*
X50178Y-30351D01*
X50178Y-31067D01*
X50151Y-31002D01*
X50101Y-30951D01*
X50036Y-30924D01*
X49965Y-30924D01*
X49900Y-30951D01*
X49849Y-31001D01*
X49822Y-31066D01*
X49822Y-31137D01*
X49849Y-31202D01*
X49899Y-31253D01*
X49964Y-31280D01*
X50035Y-31280D01*
X50100Y-31253D01*
X50151Y-31203D01*
X50178Y-31138D01*
X50178Y-32248D01*
X50151Y-32183D01*
X50101Y-32132D01*
X50036Y-32105D01*
X49965Y-32105D01*
X49900Y-32132D01*
X49849Y-32182D01*
X49822Y-32247D01*
X49822Y-32318D01*
X49849Y-32383D01*
X49899Y-32434D01*
X49964Y-32461D01*
X50035Y-32461D01*
X50100Y-32434D01*
X50151Y-32384D01*
X50178Y-32319D01*
X50178Y-33036D01*
X50151Y-32971D01*
X50101Y-32920D01*
X50036Y-32893D01*
X49965Y-32893D01*
X49900Y-32920D01*
X49849Y-32970D01*
X49822Y-33035D01*
X49822Y-33106D01*
X49849Y-33171D01*
X49899Y-33222D01*
X49964Y-33249D01*
X50035Y-33249D01*
X50100Y-33222D01*
X50151Y-33172D01*
X50178Y-33107D01*
X50178Y-33531D01*
X49771Y-33531D01*
X49784Y-33501D01*
X49784Y-33430D01*
X49784Y-32713D01*
X49784Y-32642D01*
X49784Y-31926D01*
X49784Y-31855D01*
X49784Y-30745D01*
X49784Y-30674D01*
X49784Y-29957D01*
X49784Y-29886D01*
X49757Y-29821D01*
X49707Y-29770D01*
X49642Y-29743D01*
X49571Y-29743D01*
X49506Y-29770D01*
X49455Y-29820D01*
X49428Y-29885D01*
X49428Y-29956D01*
X49455Y-30021D01*
X49505Y-30072D01*
X49570Y-30099D01*
X49641Y-30099D01*
X49706Y-30072D01*
X49757Y-30022D01*
X49784Y-29957D01*
X49784Y-30674D01*
X49757Y-30609D01*
X49707Y-30558D01*
X49642Y-30531D01*
X49571Y-30531D01*
X49506Y-30558D01*
X49455Y-30608D01*
X49428Y-30673D01*
X49428Y-30744D01*
X49455Y-30809D01*
X49505Y-30860D01*
X49570Y-30887D01*
X49641Y-30887D01*
X49706Y-30860D01*
X49757Y-30810D01*
X49784Y-30745D01*
X49784Y-31855D01*
X49757Y-31790D01*
X49707Y-31739D01*
X49642Y-31712D01*
X49571Y-31712D01*
X49506Y-31739D01*
X49455Y-31789D01*
X49428Y-31854D01*
X49428Y-31925D01*
X49455Y-31990D01*
X49505Y-32041D01*
X49570Y-32068D01*
X49641Y-32068D01*
X49706Y-32041D01*
X49757Y-31991D01*
X49784Y-31926D01*
X49784Y-32642D01*
X49757Y-32577D01*
X49707Y-32526D01*
X49642Y-32499D01*
X49571Y-32499D01*
X49506Y-32526D01*
X49455Y-32576D01*
X49428Y-32641D01*
X49428Y-32712D01*
X49455Y-32777D01*
X49505Y-32828D01*
X49570Y-32855D01*
X49641Y-32855D01*
X49706Y-32828D01*
X49757Y-32778D01*
X49784Y-32713D01*
X49784Y-33430D01*
X49757Y-33365D01*
X49707Y-33314D01*
X49642Y-33287D01*
X49571Y-33287D01*
X49506Y-33314D01*
X49455Y-33364D01*
X49428Y-33429D01*
X49428Y-33500D01*
X49440Y-33531D01*
X49390Y-33531D01*
X49390Y-33107D01*
X49390Y-33036D01*
X49390Y-32319D01*
X49390Y-32248D01*
X49390Y-31138D01*
X49390Y-31067D01*
X49390Y-30351D01*
X49390Y-30280D01*
X49363Y-30215D01*
X49313Y-30164D01*
X49248Y-30137D01*
X49177Y-30137D01*
X49112Y-30164D01*
X49061Y-30214D01*
X49034Y-30279D01*
X49034Y-30350D01*
X49061Y-30415D01*
X49111Y-30466D01*
X49176Y-30493D01*
X49247Y-30493D01*
X49312Y-30466D01*
X49363Y-30416D01*
X49390Y-30351D01*
X49390Y-31067D01*
X49363Y-31002D01*
X49313Y-30951D01*
X49248Y-30924D01*
X49177Y-30924D01*
X49112Y-30951D01*
X49061Y-31001D01*
X49034Y-31066D01*
X49034Y-31137D01*
X49061Y-31202D01*
X49111Y-31253D01*
X49176Y-31280D01*
X49247Y-31280D01*
X49312Y-31253D01*
X49363Y-31203D01*
X49390Y-31138D01*
X49390Y-32248D01*
X49363Y-32183D01*
X49313Y-32132D01*
X49248Y-32105D01*
X49177Y-32105D01*
X49112Y-32132D01*
X49061Y-32182D01*
X49034Y-32247D01*
X49034Y-32318D01*
X49061Y-32383D01*
X49111Y-32434D01*
X49176Y-32461D01*
X49247Y-32461D01*
X49312Y-32434D01*
X49363Y-32384D01*
X49390Y-32319D01*
X49390Y-33036D01*
X49363Y-32971D01*
X49313Y-32920D01*
X49248Y-32893D01*
X49177Y-32893D01*
X49112Y-32920D01*
X49061Y-32970D01*
X49034Y-33035D01*
X49034Y-33106D01*
X49061Y-33171D01*
X49111Y-33222D01*
X49176Y-33249D01*
X49247Y-33249D01*
X49312Y-33222D01*
X49363Y-33172D01*
X49390Y-33107D01*
X49390Y-33531D01*
X49016Y-33531D01*
X48966Y-33541D01*
X48948Y-33553D01*
X48652Y-33553D01*
X48652Y-32738D01*
X48668Y-32777D01*
X48718Y-32828D01*
X48783Y-32855D01*
X48854Y-32855D01*
X48919Y-32828D01*
X48970Y-32778D01*
X48997Y-32713D01*
X48997Y-32642D01*
X48970Y-32577D01*
X48920Y-32526D01*
X48855Y-32499D01*
X48784Y-32499D01*
X48719Y-32526D01*
X48668Y-32576D01*
X48652Y-32614D01*
X48652Y-31951D01*
X48668Y-31990D01*
X48718Y-32041D01*
X48783Y-32068D01*
X48854Y-32068D01*
X48919Y-32041D01*
X48970Y-31991D01*
X48997Y-31926D01*
X48997Y-31855D01*
X48997Y-30745D01*
X48997Y-30674D01*
X48997Y-29957D01*
X48997Y-29886D01*
X48970Y-29821D01*
X48920Y-29770D01*
X48855Y-29743D01*
X48784Y-29743D01*
X48719Y-29770D01*
X48668Y-29820D01*
X48641Y-29885D01*
X48641Y-29956D01*
X48668Y-30021D01*
X48718Y-30072D01*
X48783Y-30099D01*
X48854Y-30099D01*
X48919Y-30072D01*
X48970Y-30022D01*
X48997Y-29957D01*
X48997Y-30674D01*
X48970Y-30609D01*
X48920Y-30558D01*
X48855Y-30531D01*
X48784Y-30531D01*
X48719Y-30558D01*
X48668Y-30608D01*
X48641Y-30673D01*
X48641Y-30744D01*
X48668Y-30809D01*
X48718Y-30860D01*
X48783Y-30887D01*
X48854Y-30887D01*
X48919Y-30860D01*
X48970Y-30810D01*
X48997Y-30745D01*
X48997Y-31855D01*
X48970Y-31790D01*
X48920Y-31739D01*
X48855Y-31712D01*
X48784Y-31712D01*
X48719Y-31739D01*
X48668Y-31789D01*
X48652Y-31827D01*
X48652Y-30894D01*
X48603Y-30845D01*
X48603Y-29957D01*
X48603Y-29886D01*
X48576Y-29821D01*
X48526Y-29770D01*
X48461Y-29743D01*
X48390Y-29743D01*
X48325Y-29770D01*
X48274Y-29820D01*
X48247Y-29885D01*
X48247Y-29956D01*
X48274Y-30021D01*
X48324Y-30072D01*
X48389Y-30099D01*
X48460Y-30099D01*
X48525Y-30072D01*
X48576Y-30022D01*
X48603Y-29957D01*
X48603Y-30845D01*
X47816Y-30058D01*
X47816Y-29563D01*
X47816Y-29492D01*
X47789Y-29427D01*
X47739Y-29376D01*
X47674Y-29349D01*
X47603Y-29349D01*
X47538Y-29376D01*
X47487Y-29426D01*
X47460Y-29491D01*
X47460Y-29562D01*
X47487Y-29627D01*
X47537Y-29678D01*
X47602Y-29705D01*
X47673Y-29705D01*
X47738Y-29678D01*
X47789Y-29628D01*
X47816Y-29563D01*
X47816Y-30058D01*
X47390Y-29632D01*
X47395Y-29628D01*
X47422Y-29563D01*
X47422Y-29492D01*
X47395Y-29427D01*
X47345Y-29376D01*
X47280Y-29349D01*
X47209Y-29349D01*
X47144Y-29376D01*
X47139Y-29380D01*
X47028Y-29269D01*
X47028Y-28382D01*
X47028Y-28311D01*
X47001Y-28246D01*
X46951Y-28195D01*
X46886Y-28168D01*
X46815Y-28168D01*
X46750Y-28195D01*
X46699Y-28245D01*
X46672Y-28310D01*
X46672Y-28381D01*
X46699Y-28446D01*
X46749Y-28497D01*
X46814Y-28524D01*
X46885Y-28524D01*
X46950Y-28497D01*
X47001Y-28447D01*
X47028Y-28382D01*
X47028Y-29269D01*
X46603Y-28845D01*
X46608Y-28841D01*
X46635Y-28776D01*
X46635Y-28705D01*
X46635Y-28382D01*
X46635Y-28311D01*
X46608Y-28246D01*
X46558Y-28195D01*
X46493Y-28168D01*
X46422Y-28168D01*
X46357Y-28195D01*
X46306Y-28245D01*
X46279Y-28310D01*
X46279Y-28381D01*
X46306Y-28446D01*
X46356Y-28497D01*
X46421Y-28524D01*
X46492Y-28524D01*
X46557Y-28497D01*
X46608Y-28447D01*
X46635Y-28382D01*
X46635Y-28705D01*
X46608Y-28640D01*
X46558Y-28589D01*
X46493Y-28562D01*
X46422Y-28562D01*
X46357Y-28589D01*
X46352Y-28593D01*
X41902Y-24143D01*
X41605Y-24143D01*
X41605Y-22786D01*
X43238Y-22786D01*
X43238Y-24264D01*
X45587Y-26613D01*
X45569Y-26621D01*
X45518Y-26671D01*
X45491Y-26736D01*
X45491Y-26807D01*
X45518Y-26872D01*
X45568Y-26923D01*
X45633Y-26950D01*
X45704Y-26950D01*
X45769Y-26923D01*
X45820Y-26873D01*
X45827Y-26853D01*
X48342Y-29368D01*
X48325Y-29376D01*
X48274Y-29426D01*
X48247Y-29491D01*
X48247Y-29562D01*
X48274Y-29627D01*
X48324Y-29678D01*
X48389Y-29705D01*
X48460Y-29705D01*
X48525Y-29678D01*
X48576Y-29628D01*
X48603Y-29563D01*
X48603Y-29492D01*
X48580Y-29439D01*
X48948Y-29439D01*
X48966Y-29451D01*
X49016Y-29461D01*
X49046Y-29461D01*
X49034Y-29491D01*
X49034Y-29562D01*
X49061Y-29627D01*
X49111Y-29678D01*
X49176Y-29705D01*
X49247Y-29705D01*
X49312Y-29678D01*
X49363Y-29628D01*
X49390Y-29563D01*
X49390Y-29492D01*
X49377Y-29461D01*
X49834Y-29461D01*
X49822Y-29491D01*
X49822Y-29562D01*
X49849Y-29627D01*
X49899Y-29678D01*
X49964Y-29705D01*
X50035Y-29705D01*
X50100Y-29678D01*
X50151Y-29628D01*
X50178Y-29563D01*
X50178Y-29492D01*
X50165Y-29461D01*
X50228Y-29461D01*
X50216Y-29491D01*
X50216Y-29562D01*
X50243Y-29627D01*
X50293Y-29678D01*
X50358Y-29705D01*
X50429Y-29705D01*
X50494Y-29678D01*
X50545Y-29628D01*
X50572Y-29563D01*
X50572Y-29492D01*
X50559Y-29461D01*
X50621Y-29461D01*
X50609Y-29491D01*
X50609Y-29562D01*
X50636Y-29627D01*
X50686Y-29678D01*
X50751Y-29705D01*
X50822Y-29705D01*
X50887Y-29678D01*
X50938Y-29628D01*
X50965Y-29563D01*
X50965Y-29492D01*
X50952Y-29461D01*
X51409Y-29461D01*
X51397Y-29491D01*
X51397Y-29562D01*
X51424Y-29627D01*
X51474Y-29678D01*
X51539Y-29705D01*
X51610Y-29705D01*
X51675Y-29678D01*
X51726Y-29628D01*
X51753Y-29563D01*
X51753Y-29492D01*
X51740Y-29461D01*
X51802Y-29461D01*
X51790Y-29491D01*
X51790Y-29562D01*
X51817Y-29627D01*
X51867Y-29678D01*
X51932Y-29705D01*
X52003Y-29705D01*
X52068Y-29678D01*
X52119Y-29628D01*
X52146Y-29563D01*
X52146Y-29492D01*
X52133Y-29461D01*
X52590Y-29461D01*
X52578Y-29491D01*
X52578Y-29562D01*
X52605Y-29627D01*
X52655Y-29678D01*
X52720Y-29705D01*
X52791Y-29705D01*
X52856Y-29678D01*
X52907Y-29628D01*
X52934Y-29563D01*
X52934Y-29492D01*
X52921Y-29461D01*
X53346Y-29461D01*
X53380Y-29454D01*
X53365Y-29491D01*
X53365Y-29562D01*
X53392Y-29627D01*
X53442Y-29678D01*
X53507Y-29705D01*
X53578Y-29705D01*
X53610Y-29691D01*
X53610Y-29755D01*
X53579Y-29743D01*
X53508Y-29743D01*
X53443Y-29770D01*
X53392Y-29820D01*
X53365Y-29885D01*
X53365Y-29956D01*
X53392Y-30021D01*
X53442Y-30072D01*
X53507Y-30099D01*
X53578Y-30099D01*
X53610Y-30085D01*
X53610Y-30149D01*
X53579Y-30137D01*
X53508Y-30137D01*
X53443Y-30164D01*
X53392Y-30214D01*
X53365Y-30279D01*
X53365Y-30350D01*
X53392Y-30415D01*
X53442Y-30466D01*
X53507Y-30493D01*
X53578Y-30493D01*
X53610Y-30479D01*
X53610Y-30936D01*
X53579Y-30924D01*
X53508Y-30924D01*
X53443Y-30951D01*
X53392Y-31001D01*
X53365Y-31066D01*
X53365Y-31137D01*
X53392Y-31202D01*
X53442Y-31253D01*
X53507Y-31280D01*
X53578Y-31280D01*
X53610Y-31266D01*
X53610Y-32117D01*
X53579Y-32105D01*
X53508Y-32105D01*
X53443Y-32132D01*
X53392Y-32182D01*
X53365Y-32247D01*
X53365Y-32318D01*
X53392Y-32383D01*
X53442Y-32434D01*
X53507Y-32461D01*
X53578Y-32461D01*
X53610Y-32447D01*
X53610Y-32511D01*
X53579Y-32499D01*
X53508Y-32499D01*
X53443Y-32526D01*
X53392Y-32576D01*
X53365Y-32641D01*
X53365Y-32712D01*
X53392Y-32777D01*
X53442Y-32828D01*
X53507Y-32855D01*
X53578Y-32855D01*
X53610Y-32841D01*
X53610Y-33553D01*
M02*
