M48
;DRILL file {Pcbnew (2012-05-21 BZR 3261)-stable} date Tue 07 May 2013 04:43:49 PM PDT
;FORMAT={-:-/ absolute / inch / decimal}
FMAT,2
INCH,TZ
T1C0.008
T2C0.012
T3C0.013
T4C0.016
T5C0.032
T6C0.041
T7C0.047
T8C0.049
T9C0.075
T10C0.079
%
G90
G05
M72
T1
X3.276Y-3.266
X3.307Y-2.980
X3.348Y-3.266
X3.378Y-2.555
X3.429Y-3.266
X3.437Y-1.843
X3.441Y-3.514
X3.441Y-3.573
X3.443Y-2.598
X3.443Y-2.646
X3.445Y-2.862
X3.461Y-2.622
X3.461Y-2.622
X3.465Y-2.953
X3.478Y-2.598
X3.478Y-2.646
X3.504Y-2.894
X3.508Y-3.189
X3.508Y-3.221
X3.508Y-3.252
X3.508Y-3.284
X3.508Y-3.315
X3.508Y-3.347
X3.508Y-3.378
X3.520Y-2.992
X3.528Y-2.894
X3.543Y-3.500
X3.547Y-2.992
X3.555Y-2.543
X3.555Y-3.394
X3.559Y-3.079
X3.559Y-3.110
X3.559Y-3.457
X3.567Y-3.500
X3.583Y-2.992
X3.587Y-1.843
X3.591Y-3.079
X3.591Y-3.110
X3.591Y-3.173
X3.591Y-3.205
X3.591Y-3.268
X3.591Y-3.299
X3.591Y-3.362
X3.591Y-3.394
X3.591Y-3.425
X3.591Y-3.457
X3.591Y-3.500
X3.610Y-2.992
X3.622Y-3.142
X3.622Y-3.173
X3.622Y-3.205
X3.622Y-3.236
X3.622Y-3.268
X3.622Y-3.299
X3.622Y-3.331
X3.622Y-3.362
X3.622Y-3.394
X3.622Y-3.425
X3.638Y-2.976
X3.638Y-3.012
X3.638Y-3.043
X3.654Y-3.110
X3.654Y-3.173
X3.654Y-3.205
X3.654Y-3.236
X3.654Y-3.268
X3.654Y-3.394
X3.685Y-3.079
X3.685Y-3.110
X3.685Y-3.173
X3.685Y-3.425
X3.685Y-3.457
X3.701Y-3.496
X3.701Y-3.528
X3.713Y-3.047
X3.715Y-3.673
X3.715Y-3.697
X3.715Y-3.721
X3.717Y-3.079
X3.717Y-3.110
X3.717Y-3.142
X3.717Y-3.173
X3.717Y-3.205
X3.717Y-3.236
X3.717Y-3.299
X3.717Y-3.331
X3.717Y-3.362
X3.717Y-3.394
X3.717Y-3.425
X3.717Y-3.457
X3.748Y-3.110
X3.748Y-3.142
X3.748Y-3.173
X3.748Y-3.205
X3.748Y-3.236
X3.748Y-3.299
X3.748Y-3.331
X3.748Y-3.362
X3.748Y-3.394
X3.750Y-3.673
X3.750Y-3.697
X3.750Y-3.721
X3.752Y-3.760
X3.780Y-2.063
X3.791Y-1.937
X3.791Y-1.965
X3.811Y-3.110
X3.811Y-3.142
X3.811Y-3.173
X3.811Y-3.205
X3.811Y-3.236
X3.811Y-3.268
X3.811Y-3.331
X3.811Y-3.362
X3.811Y-3.394
X3.811Y-3.425
X3.843Y-3.110
X3.843Y-3.142
X3.843Y-3.173
X3.843Y-3.205
X3.843Y-3.236
X3.843Y-3.268
X3.843Y-3.331
X3.843Y-3.362
X3.843Y-3.394
X3.843Y-3.425
X3.843Y-3.457
X3.854Y-3.496
X3.854Y-3.528
X3.862Y-1.947
X3.862Y-2.006
X3.862Y-4.504
X3.866Y-2.461
X3.866Y-4.654
X3.874Y-3.079
X3.874Y-3.110
X3.874Y-3.142
X3.874Y-3.173
X3.874Y-3.236
X3.874Y-3.268
X3.874Y-3.331
X3.874Y-3.362
X3.874Y-3.394
X3.874Y-3.425
X3.878Y-4.197
X3.882Y-1.976
X3.882Y-1.976
X3.882Y-3.008
X3.882Y-3.039
X3.886Y-4.315
X3.898Y-2.390
X3.901Y-1.947
X3.901Y-2.006
X3.905Y-3.110
X3.905Y-3.142
X3.905Y-3.173
X3.905Y-3.236
X3.905Y-3.268
X3.905Y-3.299
X3.905Y-3.362
X3.905Y-3.394
X3.905Y-3.425
X3.925Y-4.315
X3.925Y-4.520
X3.937Y-2.390
X3.937Y-3.110
X3.937Y-3.173
X3.937Y-3.205
X3.937Y-3.268
X3.937Y-3.331
X3.937Y-3.362
X3.937Y-3.394
X3.937Y-3.425
X3.941Y-4.484
X3.949Y-4.197
X3.969Y-3.205
X3.969Y-3.331
X3.969Y-3.457
X3.976Y-1.965
X3.980Y-2.543
X3.980Y-4.484
X3.996Y-4.520
X4.002Y-3.459
X4.004Y-3.339
X4.008Y-3.161
X4.012Y-2.677
X4.016Y-2.032
X4.016Y-2.390
X4.016Y-3.579
X4.020Y-4.197
X4.020Y-4.484
X4.035Y-3.339
X4.039Y-3.161
X4.043Y-4.165
X4.043Y-4.520
X4.067Y-4.197
X4.067Y-4.520
X4.071Y-3.319
X4.083Y-4.484
X4.095Y-3.319
X4.118Y-3.319
X4.122Y-4.484
X4.138Y-4.197
X4.138Y-4.520
X4.142Y-3.319
X4.154Y-4.484
X4.161Y-3.398
X4.185Y-3.398
X4.193Y-4.484
X4.209Y-3.398
X4.209Y-4.197
X4.209Y-4.520
X4.213Y-2.472
X4.213Y-2.535
X4.228Y-3.453
X4.232Y-4.484
X4.252Y-3.453
X4.256Y-4.197
X4.256Y-4.520
X4.268Y-3.579
X4.280Y-4.197
X4.280Y-4.508
X4.295Y-3.579
X4.299Y-3.453
X4.303Y-4.457
X4.327Y-4.197
X4.327Y-4.520
X4.331Y-4.165
X4.335Y-2.047
X4.343Y-4.484
X4.362Y-2.024
X4.362Y-2.071
X4.362Y-2.098
X4.382Y-3.579
X4.382Y-4.484
X4.398Y-4.197
X4.398Y-4.520
X4.409Y-3.579
X4.413Y-4.484
X4.421Y-2.024
X4.421Y-2.071
X4.421Y-2.098
X4.429Y-1.980
X4.437Y-3.579
X4.441Y-2.213
X4.453Y-4.484
X4.461Y-1.969
X4.461Y-1.996
X4.465Y-3.579
X4.465Y-3.634
X4.469Y-4.197
X4.469Y-4.520
X4.484Y-3.677
X4.492Y-4.165
X4.492Y-4.484
X4.500Y-3.634
X4.516Y-4.197
X4.516Y-4.520
X4.539Y-1.984
X4.539Y-2.012
X4.539Y-2.110
X4.539Y-4.520
X4.551Y-2.815
X4.555Y-4.484
X4.559Y-1.882
X4.559Y-1.969
X4.559Y-2.071
X4.559Y-2.126
X4.559Y-2.213
X4.559Y-3.209
X4.559Y-3.602
X4.559Y-3.646
X4.559Y-3.677
X4.567Y-2.638
X4.567Y-2.677
X4.567Y-2.874
X4.567Y-3.071
X4.567Y-3.425
X4.579Y-2.000
X4.587Y-4.197
X4.595Y-4.484
X4.598Y-1.969
X4.606Y-2.598
X4.606Y-2.638
X4.606Y-2.874
X4.606Y-2.913
X4.606Y-3.071
X4.606Y-3.386
X4.606Y-3.425
X4.606Y-3.661
X4.606Y-3.701
X4.610Y-4.520
X4.618Y-2.016
X4.618Y-2.315
X4.626Y-4.484
X4.638Y-1.847
X4.638Y-1.969
X4.638Y-1.996
X4.646Y-2.677
X4.646Y-2.716
X4.646Y-2.835
X4.646Y-2.874
X4.646Y-2.913
X4.646Y-2.953
X4.646Y-2.992
X4.646Y-3.032
X4.646Y-3.071
X4.646Y-3.110
X4.646Y-3.189
X4.646Y-3.268
X4.646Y-3.307
X4.646Y-3.347
X4.646Y-3.386
X4.646Y-3.425
X4.646Y-3.465
X4.646Y-3.504
X4.646Y-3.543
X4.646Y-3.583
X4.646Y-3.622
X4.646Y-3.661
X4.658Y-4.197
X4.665Y-4.484
X4.677Y-1.847
X4.677Y-1.882
X4.677Y-1.969
X4.677Y-2.071
X4.677Y-2.098
X4.677Y-2.126
X4.677Y-2.213
X4.681Y-4.520
X4.685Y-2.677
X4.685Y-2.716
X4.685Y-2.835
X4.685Y-2.953
X4.685Y-2.992
X4.685Y-3.032
X4.685Y-3.071
X4.685Y-3.110
X4.685Y-3.189
X4.685Y-3.228
X4.685Y-3.268
X4.685Y-3.307
X4.685Y-3.347
X4.685Y-3.386
X4.685Y-3.504
X4.685Y-3.543
X4.685Y-3.583
X4.685Y-3.622
X4.685Y-3.661
X4.697Y-1.988
X4.697Y-2.016
X4.705Y-4.197
X4.705Y-4.484
X4.724Y-2.598
X4.724Y-2.638
X4.724Y-2.677
X4.724Y-2.716
X4.724Y-2.953
X4.724Y-3.071
X4.724Y-3.110
X4.724Y-3.189
X4.724Y-3.228
X4.724Y-3.268
X4.724Y-3.307
X4.724Y-3.347
X4.724Y-3.425
X4.724Y-3.465
X4.724Y-3.504
X4.724Y-3.543
X4.724Y-3.583
X4.724Y-3.622
X4.724Y-3.661
X4.724Y-3.701
X4.728Y-4.197
X4.728Y-4.520
X4.736Y-2.016
X4.744Y-4.484
X4.756Y-1.969
X4.756Y-1.996
X4.764Y-2.677
X4.764Y-2.716
X4.764Y-2.756
X4.764Y-2.795
X4.764Y-2.953
X4.764Y-3.032
X4.764Y-3.071
X4.764Y-3.110
X4.764Y-3.189
X4.764Y-3.228
X4.764Y-3.347
X4.764Y-3.386
X4.764Y-3.425
X4.764Y-3.465
X4.764Y-3.504
X4.764Y-3.543
X4.764Y-3.583
X4.764Y-3.622
X4.784Y-4.484
X4.795Y-1.847
X4.795Y-1.882
X4.795Y-1.969
X4.795Y-2.071
X4.795Y-2.098
X4.795Y-2.126
X4.795Y-2.213
X4.799Y-4.197
X4.799Y-4.520
X4.803Y-2.677
X4.803Y-2.716
X4.803Y-2.756
X4.803Y-2.795
X4.803Y-3.071
X4.803Y-3.110
X4.803Y-3.189
X4.803Y-3.307
X4.803Y-3.347
X4.803Y-3.425
X4.803Y-3.504
X4.803Y-3.543
X4.803Y-3.583
X4.803Y-3.622
X4.815Y-2.016
X4.815Y-1.988
X4.823Y-4.161
X4.843Y-2.677
X4.843Y-2.716
X4.843Y-2.756
X4.843Y-2.795
X4.843Y-2.835
X4.843Y-2.874
X4.843Y-2.913
X4.843Y-2.953
X4.843Y-2.992
X4.843Y-3.110
X4.843Y-3.189
X4.843Y-3.347
X4.843Y-3.386
X4.843Y-3.425
X4.843Y-3.504
X4.843Y-3.543
X4.843Y-3.583
X4.843Y-3.622
X4.846Y-4.299
X4.846Y-4.331
X4.846Y-4.626
X4.846Y-4.658
X4.854Y-2.012
X4.854Y-2.213
X4.870Y-4.161
X4.870Y-4.484
X4.874Y-1.874
X4.874Y-1.969
X4.882Y-2.598
X4.882Y-2.638
X4.882Y-2.677
X4.882Y-2.716
X4.882Y-2.756
X4.882Y-2.795
X4.882Y-2.874
X4.882Y-2.913
X4.882Y-2.953
X4.882Y-2.992
X4.882Y-3.071
X4.882Y-3.110
X4.882Y-3.189
X4.882Y-3.268
X4.882Y-3.386
X4.882Y-3.425
X4.882Y-3.465
X4.882Y-3.504
X4.882Y-3.543
X4.882Y-3.583
X4.882Y-3.622
X4.882Y-3.661
X4.882Y-3.701
X4.894Y-1.996
X4.894Y-4.161
X4.894Y-4.484
X4.913Y-1.882
X4.913Y-1.969
X4.913Y-2.024
X4.913Y-2.071
X4.913Y-2.098
X4.913Y-2.126
X4.913Y-2.213
X4.917Y-4.299
X4.917Y-4.331
X4.917Y-4.626
X4.917Y-4.658
X4.921Y-2.677
X4.921Y-2.716
X4.921Y-2.756
X4.921Y-2.795
X4.921Y-2.835
X4.921Y-2.874
X4.921Y-2.913
X4.921Y-2.953
X4.921Y-2.992
X4.921Y-3.032
X4.921Y-3.071
X4.921Y-3.110
X4.921Y-3.189
X4.921Y-3.228
X4.921Y-3.268
X4.921Y-3.307
X4.921Y-3.386
X4.921Y-3.425
X4.921Y-3.465
X4.921Y-3.504
X4.921Y-3.543
X4.921Y-3.583
X4.921Y-3.622
X4.941Y-3.713
X4.941Y-4.161
X4.941Y-4.484
X4.953Y-2.244
X4.953Y-2.272
X4.961Y-2.677
X4.961Y-2.716
X4.961Y-2.756
X4.961Y-2.874
X4.961Y-2.913
X4.961Y-2.953
X4.961Y-2.992
X4.961Y-3.032
X4.961Y-3.071
X4.961Y-3.110
X4.961Y-3.189
X4.961Y-3.228
X4.961Y-3.268
X4.961Y-3.307
X4.961Y-3.347
X4.961Y-3.386
X4.961Y-3.425
X4.961Y-3.465
X4.961Y-3.504
X4.961Y-3.543
X4.961Y-3.583
X4.961Y-3.622
X4.965Y-4.197
X4.965Y-4.520
X4.972Y-1.969
X4.988Y-4.161
X4.988Y-4.484
X4.992Y-1.996
X5.000Y-2.638
X5.000Y-2.677
X5.000Y-2.716
X5.000Y-2.756
X5.000Y-2.795
X5.000Y-2.835
X5.000Y-2.874
X5.000Y-2.913
X5.000Y-2.953
X5.000Y-2.992
X5.000Y-3.032
X5.000Y-3.071
X5.000Y-3.110
X5.000Y-3.189
X5.000Y-3.228
X5.000Y-3.268
X5.000Y-3.307
X5.000Y-3.347
X5.000Y-3.386
X5.000Y-3.425
X5.000Y-3.465
X5.000Y-3.543
X5.000Y-3.583
X5.000Y-3.622
X5.012Y-1.969
X5.012Y-4.299
X5.012Y-4.331
X5.012Y-4.626
X5.012Y-4.658
X5.032Y-1.996
X5.032Y-2.024
X5.032Y-2.071
X5.035Y-2.244
X5.035Y-2.272
X5.035Y-2.299
X5.035Y-4.161
X5.035Y-4.484
X5.039Y-2.559
X5.039Y-2.598
X5.039Y-2.638
X5.039Y-2.677
X5.039Y-2.716
X5.039Y-2.756
X5.039Y-2.795
X5.039Y-2.913
X5.039Y-2.953
X5.039Y-2.992
X5.039Y-3.032
X5.039Y-3.071
X5.039Y-3.110
X5.039Y-3.189
X5.039Y-3.228
X5.039Y-3.268
X5.039Y-3.307
X5.039Y-3.347
X5.039Y-3.465
X5.039Y-3.504
X5.039Y-3.543
X5.039Y-3.583
X5.039Y-3.622
X5.039Y-3.661
X5.039Y-3.701
X5.039Y-3.732
X5.059Y-4.197
X5.059Y-4.520
X5.079Y-2.677
X5.079Y-2.716
X5.079Y-2.756
X5.079Y-2.835
X5.079Y-2.874
X5.079Y-2.913
X5.079Y-2.953
X5.079Y-2.992
X5.079Y-3.032
X5.079Y-3.071
X5.079Y-3.110
X5.079Y-3.189
X5.079Y-3.228
X5.079Y-3.268
X5.079Y-3.307
X5.079Y-3.347
X5.079Y-3.425
X5.079Y-3.504
X5.079Y-3.543
X5.079Y-3.583
X5.079Y-3.622
X5.079Y-3.661
X5.079Y-3.701
X5.083Y-4.161
X5.083Y-4.484
X5.095Y-1.996
X5.095Y-2.024
X5.095Y-2.071
X5.095Y-2.098
X5.106Y-4.299
X5.106Y-4.331
X5.106Y-4.626
X5.106Y-4.658
X5.118Y-2.716
X5.130Y-4.161
X5.130Y-4.484
X5.146Y-1.996
X5.146Y-2.024
X5.146Y-2.071
X5.146Y-2.098
X5.154Y-4.197
X5.154Y-4.520
X5.158Y-2.716
X5.158Y-2.756
X5.158Y-2.795
X5.158Y-2.835
X5.158Y-2.874
X5.158Y-2.913
X5.158Y-2.953
X5.158Y-2.992
X5.158Y-3.032
X5.158Y-3.071
X5.158Y-3.110
X5.158Y-3.189
X5.158Y-3.228
X5.158Y-3.268
X5.158Y-3.307
X5.158Y-3.347
X5.158Y-3.386
X5.158Y-3.425
X5.158Y-3.465
X5.158Y-3.504
X5.158Y-3.543
X5.158Y-3.583
X5.158Y-3.622
X5.177Y-4.161
X5.177Y-4.484
X5.197Y-2.598
X5.197Y-2.638
X5.197Y-2.677
X5.197Y-2.716
X5.197Y-2.756
X5.197Y-2.795
X5.197Y-2.835
X5.197Y-2.874
X5.197Y-2.913
X5.197Y-2.953
X5.197Y-2.992
X5.197Y-3.032
X5.197Y-3.071
X5.197Y-3.110
X5.197Y-3.189
X5.197Y-3.228
X5.197Y-3.268
X5.197Y-3.307
X5.197Y-3.347
X5.197Y-3.386
X5.197Y-3.425
X5.197Y-3.465
X5.197Y-3.504
X5.197Y-3.543
X5.197Y-3.583
X5.197Y-3.622
X5.197Y-3.661
X5.197Y-3.701
X5.201Y-4.299
X5.201Y-4.331
X5.201Y-4.626
X5.201Y-4.658
X5.209Y-1.996
X5.209Y-2.024
X5.209Y-2.071
X5.209Y-2.098
X5.224Y-4.161
X5.224Y-4.484
X5.228Y-1.969
X5.228Y-2.213
X5.228Y-2.240
X5.228Y-2.268
X5.236Y-2.677
X5.236Y-2.716
X5.236Y-2.756
X5.236Y-2.795
X5.236Y-2.835
X5.236Y-2.874
X5.236Y-2.913
X5.236Y-2.953
X5.236Y-2.992
X5.236Y-3.032
X5.236Y-3.071
X5.236Y-3.110
X5.236Y-3.189
X5.236Y-3.228
X5.236Y-3.268
X5.236Y-3.307
X5.236Y-3.347
X5.236Y-3.386
X5.236Y-3.425
X5.236Y-3.465
X5.236Y-3.504
X5.236Y-3.543
X5.236Y-3.583
X5.236Y-3.622
X5.236Y-3.902
X5.248Y-4.484
X5.268Y-1.969
X5.268Y-1.996
X5.272Y-4.299
X5.272Y-4.331
X5.272Y-4.626
X5.272Y-4.658
X5.276Y-2.716
X5.276Y-2.756
X5.276Y-2.795
X5.276Y-2.835
X5.276Y-2.874
X5.276Y-2.913
X5.276Y-2.953
X5.276Y-2.992
X5.276Y-3.032
X5.276Y-3.071
X5.276Y-3.110
X5.276Y-3.189
X5.276Y-3.228
X5.276Y-3.268
X5.276Y-3.307
X5.276Y-3.347
X5.276Y-3.386
X5.276Y-3.425
X5.276Y-3.465
X5.276Y-3.504
X5.276Y-3.543
X5.276Y-3.583
X5.276Y-3.622
X5.287Y-2.020
X5.287Y-2.386
X5.295Y-4.161
X5.295Y-4.484
X5.307Y-1.969
X5.307Y-2.347
X5.315Y-2.677
X5.315Y-2.716
X5.315Y-2.756
X5.315Y-2.795
X5.315Y-2.835
X5.315Y-2.874
X5.315Y-2.953
X5.315Y-2.992
X5.315Y-3.032
X5.315Y-3.071
X5.315Y-3.110
X5.315Y-3.189
X5.315Y-3.228
X5.315Y-3.268
X5.315Y-3.307
X5.315Y-3.347
X5.315Y-3.543
X5.315Y-3.583
X5.315Y-3.622
X5.315Y-3.661
X5.315Y-3.701
X5.319Y-4.197
X5.319Y-4.520
X5.327Y-2.000
X5.327Y-2.315
X5.335Y-4.484
X5.346Y-1.882
X5.346Y-1.969
X5.346Y-2.024
X5.346Y-2.071
X5.346Y-2.098
X5.346Y-2.126
X5.346Y-2.213
X5.354Y-2.598
X5.354Y-2.638
X5.354Y-2.677
X5.354Y-2.716
X5.354Y-2.756
X5.354Y-2.795
X5.354Y-2.835
X5.354Y-2.874
X5.354Y-2.913
X5.354Y-2.953
X5.354Y-2.992
X5.354Y-3.032
X5.354Y-3.071
X5.354Y-3.110
X5.354Y-3.150
X5.354Y-3.189
X5.354Y-3.228
X5.354Y-3.268
X5.354Y-3.386
X5.354Y-3.425
X5.354Y-3.465
X5.354Y-3.504
X5.354Y-3.543
X5.354Y-3.583
X5.354Y-3.622
X5.354Y-3.661
X5.354Y-3.701
X5.366Y-2.000
X5.374Y-4.484
X5.386Y-1.969
X5.386Y-2.256
X5.386Y-2.284
X5.390Y-4.197
X5.390Y-4.520
X5.394Y-2.677
X5.394Y-2.716
X5.394Y-2.756
X5.394Y-2.795
X5.394Y-2.835
X5.394Y-2.874
X5.394Y-2.913
X5.394Y-2.953
X5.394Y-2.992
X5.394Y-3.032
X5.394Y-3.071
X5.394Y-3.110
X5.394Y-3.228
X5.394Y-3.268
X5.394Y-3.386
X5.394Y-3.425
X5.394Y-3.583
X5.394Y-3.622
X5.405Y-2.000
X5.405Y-2.213
X5.413Y-4.484
X5.425Y-1.847
X5.425Y-1.969
X5.433Y-2.677
X5.433Y-2.716
X5.433Y-2.756
X5.433Y-2.795
X5.433Y-2.835
X5.433Y-2.874
X5.433Y-2.953
X5.433Y-2.992
X5.433Y-3.032
X5.433Y-3.071
X5.433Y-3.110
X5.433Y-3.228
X5.433Y-3.268
X5.433Y-3.307
X5.433Y-3.425
X5.433Y-3.465
X5.433Y-3.543
X5.433Y-3.583
X5.433Y-3.622
X5.437Y-4.165
X5.437Y-4.520
X5.445Y-2.000
X5.453Y-3.721
X5.453Y-3.752
X5.461Y-4.197
X5.461Y-4.520
X5.465Y-1.847
X5.465Y-1.882
X5.465Y-1.969
X5.465Y-2.024
X5.465Y-2.071
X5.465Y-2.098
X5.465Y-2.126
X5.465Y-2.213
X5.472Y-2.677
X5.472Y-2.716
X5.472Y-2.756
X5.472Y-2.795
X5.472Y-2.835
X5.472Y-2.874
X5.472Y-2.913
X5.472Y-2.953
X5.472Y-2.992
X5.472Y-3.032
X5.472Y-3.071
X5.472Y-3.110
X5.472Y-3.228
X5.472Y-3.268
X5.472Y-3.307
X5.472Y-3.347
X5.472Y-3.425
X5.472Y-3.465
X5.472Y-3.504
X5.472Y-3.543
X5.472Y-3.622
X5.472Y-3.661
X5.472Y-3.701
X5.476Y-4.484
X5.484Y-2.000
X5.504Y-1.969
X5.512Y-2.598
X5.512Y-2.638
X5.512Y-2.677
X5.512Y-2.716
X5.512Y-2.756
X5.512Y-2.795
X5.512Y-2.835
X5.512Y-2.874
X5.512Y-2.913
X5.512Y-2.953
X5.512Y-2.992
X5.512Y-3.032
X5.512Y-3.071
X5.512Y-3.110
X5.512Y-3.189
X5.512Y-3.228
X5.512Y-3.268
X5.512Y-3.307
X5.512Y-3.347
X5.512Y-3.386
X5.512Y-3.425
X5.512Y-3.465
X5.512Y-3.583
X5.512Y-3.622
X5.512Y-3.661
X5.512Y-3.701
X5.516Y-4.484
X5.524Y-2.000
X5.524Y-2.213
X5.532Y-4.197
X5.532Y-4.520
X5.543Y-1.969
X5.547Y-4.484
X5.551Y-2.677
X5.551Y-2.716
X5.551Y-2.756
X5.551Y-2.795
X5.551Y-2.835
X5.551Y-2.874
X5.551Y-2.913
X5.551Y-2.953
X5.551Y-2.992
X5.551Y-3.032
X5.551Y-3.071
X5.551Y-3.228
X5.551Y-3.307
X5.551Y-3.583
X5.551Y-3.622
X5.563Y-2.000
X5.583Y-1.847
X5.583Y-1.882
X5.583Y-1.969
X5.583Y-2.024
X5.583Y-2.071
X5.583Y-2.098
X5.583Y-2.126
X5.583Y-2.213
X5.587Y-4.484
X5.591Y-2.677
X5.591Y-2.716
X5.591Y-2.756
X5.591Y-2.795
X5.591Y-2.835
X5.591Y-2.874
X5.591Y-2.913
X5.591Y-2.953
X5.591Y-2.992
X5.591Y-3.268
X5.591Y-3.347
X5.591Y-3.386
X5.591Y-3.465
X5.591Y-3.543
X5.591Y-3.622
X5.602Y-2.000
X5.602Y-4.197
X5.602Y-4.520
X5.622Y-1.969
X5.626Y-4.165
X5.626Y-4.484
X5.630Y-2.598
X5.630Y-2.638
X5.630Y-2.874
X5.630Y-3.071
X5.630Y-3.228
X5.630Y-3.268
X5.630Y-3.386
X5.630Y-3.425
X5.630Y-3.465
X5.630Y-3.622
X5.630Y-3.661
X5.630Y-3.701
X5.642Y-2.000
X5.650Y-4.197
X5.661Y-1.969
X5.669Y-1.874
X5.669Y-2.638
X5.669Y-2.677
X5.669Y-2.874
X5.669Y-3.071
X5.669Y-3.228
X5.669Y-3.386
X5.669Y-3.425
X5.669Y-3.465
X5.669Y-3.583
X5.669Y-3.622
X5.669Y-3.661
X5.673Y-4.197
X5.673Y-4.520
X5.681Y-2.000
X5.689Y-4.484
X5.701Y-1.882
X5.701Y-1.969
X5.701Y-2.024
X5.701Y-2.071
X5.701Y-2.098
X5.701Y-2.126
X5.701Y-2.213
X5.721Y-2.000
X5.728Y-4.484
X5.740Y-1.969
X5.744Y-1.847
X5.744Y-4.197
X5.744Y-4.520
X5.760Y-2.000
X5.780Y-1.969
X5.795Y-3.114
X5.795Y-3.146
X5.795Y-3.189
X5.799Y-2.000
X5.819Y-2.024
X5.819Y-2.071
X5.819Y-2.098
X5.835Y-1.850
X5.835Y-1.898
X5.843Y-3.063
X5.882Y-1.996
X5.882Y-2.024
X5.882Y-2.071
X5.882Y-2.098
X5.894Y-3.000
X5.894Y-3.032
X5.894Y-3.063
X5.894Y-3.091
X5.909Y-4.197
X5.909Y-4.520
X5.925Y-4.484
X5.933Y-1.996
X5.933Y-2.024
X5.933Y-2.071
X5.933Y-2.098
X5.949Y-2.937
X5.953Y-3.154
X5.953Y-3.193
X5.961Y-1.882
X5.965Y-4.484
X5.976Y-1.847
X5.980Y-4.197
X5.980Y-4.520
X5.996Y-2.024
X5.996Y-2.071
X6.004Y-4.161
X6.004Y-4.484
X6.016Y-1.850
X6.016Y-1.878
X6.016Y-1.969
X6.016Y-2.248
X6.016Y-2.972
X6.027Y-4.197
X6.027Y-4.484
X6.035Y-2.000
X6.035Y-2.228
X6.051Y-4.197
X6.051Y-4.520
X6.055Y-1.969
X6.055Y-2.213
X6.067Y-3.035
X6.067Y-3.059
X6.067Y-3.106
X6.067Y-3.130
X6.075Y-2.000
X6.075Y-2.248
X6.075Y-4.484
X6.095Y-1.969
X6.095Y-2.213
X6.098Y-4.520
X6.114Y-2.000
X6.114Y-2.248
X6.114Y-4.484
X6.122Y-4.197
X6.126Y-3.264
X6.126Y-3.327
X6.134Y-1.850
X6.134Y-1.882
X6.134Y-1.969
X6.134Y-2.024
X6.134Y-2.071
X6.134Y-2.126
X6.134Y-2.213
X6.138Y-3.295
X6.154Y-2.000
X6.154Y-3.528
X6.154Y-4.484
X6.169Y-4.520
X6.173Y-1.969
X6.181Y-3.264
X6.181Y-3.327
X6.185Y-4.484
X6.193Y-2.000
X6.193Y-4.197
X6.213Y-1.969
X6.216Y-4.161
X6.221Y-1.878
X6.224Y-4.484
X6.232Y-2.000
X6.240Y-4.197
X6.240Y-4.520
X6.252Y-3.276
X6.252Y-3.315
X6.252Y-1.882
X6.252Y-1.969
X6.252Y-2.024
X6.252Y-2.071
X6.252Y-2.126
X6.252Y-2.213
X6.256Y-3.366
X6.264Y-4.197
X6.264Y-4.484
X6.272Y-2.000
X6.280Y-3.185
X6.287Y-4.520
X6.291Y-1.969
X6.299Y-1.815
X6.303Y-4.484
X6.311Y-2.000
X6.311Y-3.083
X6.311Y-3.409
X6.311Y-3.575
X6.331Y-1.969
X6.335Y-4.197
X6.339Y-3.118
X6.339Y-3.158
X6.343Y-3.244
X6.343Y-4.484
X6.350Y-2.000
X6.354Y-3.004
X6.358Y-4.303
X6.358Y-4.335
X6.358Y-4.520
X6.370Y-1.850
X6.370Y-1.882
X6.370Y-1.969
X6.370Y-2.024
X6.370Y-2.071
X6.370Y-2.126
X6.370Y-2.213
X6.370Y-3.626
X6.378Y-2.583
X6.382Y-3.004
X6.390Y-2.000
X6.398Y-3.311
X6.402Y-3.626
X6.402Y-3.658
X6.402Y-3.689
X6.405Y-2.520
X6.405Y-2.551
X6.409Y-1.969
X6.409Y-3.004
X6.409Y-3.043
X6.409Y-3.071
X6.409Y-3.158
X6.417Y-3.463
X6.417Y-3.272
X6.417Y-3.522
X6.421Y-3.394
X6.429Y-2.000
X6.433Y-2.492
X6.437Y-3.004
X6.437Y-3.248
X6.449Y-1.969
X6.449Y-3.551
X6.453Y-3.453
X6.457Y-3.224
X6.457Y-3.602
X6.465Y-3.004
X6.469Y-2.000
X6.469Y-3.713
X6.472Y-2.697
X6.472Y-2.890
X6.472Y-3.122
X6.472Y-3.528
X6.476Y-2.961
X6.476Y-3.051
X6.476Y-3.248
X6.488Y-1.850
X6.488Y-1.882
X6.488Y-1.969
X6.488Y-2.024
X6.488Y-2.071
X6.488Y-2.126
X6.488Y-2.213
X6.488Y-2.433
X6.488Y-2.469
X6.496Y-3.264
X6.496Y-3.602
X6.500Y-1.996
X6.500Y-2.236
X6.504Y-3.465
X6.506Y-3.374
X6.516Y-3.181
X6.535Y-1.996
X6.535Y-2.236
X6.547Y-2.126
X6.565Y-3.374
X6.567Y-2.890
X6.567Y-2.913
X6.567Y-2.961
X6.567Y-2.984
X6.567Y-3.028
X6.567Y-3.051
X6.567Y-3.098
X6.567Y-3.122
X6.575Y-3.756
X6.579Y-3.276
X6.583Y-2.311
X6.583Y-2.347
X6.583Y-2.405
X6.583Y-2.445
X6.587Y-4.736
X6.595Y-2.520
X6.595Y-2.559
X6.606Y-2.024
X6.606Y-2.071
X6.610Y-3.181
X6.610Y-4.035
X6.618Y-4.803
X6.622Y-1.980
X6.638Y-3.260
X6.638Y-3.721
X6.642Y-4.776
X6.646Y-2.252
X6.646Y-2.284
X6.650Y-3.508
X6.650Y-3.595
X6.650Y-3.839
X6.658Y-2.583
X6.661Y-3.272
X6.669Y-2.024
X6.669Y-2.071
X6.669Y-2.854
X6.669Y-2.894
X6.669Y-3.024
X6.669Y-3.658
X6.685Y-2.488
X6.685Y-2.520
X6.685Y-2.760
X6.685Y-3.744
X6.685Y-2.386
X6.701Y-2.784
X6.701Y-2.965
X6.701Y-3.362
X6.701Y-3.630
X6.705Y-2.280
X6.709Y-3.669
X6.713Y-2.583
X6.732Y-4.776
X6.732Y-4.815
X6.740Y-2.463
X6.740Y-2.498
X6.752Y-4.795
X6.752Y-4.795
X6.752Y-3.390
X6.756Y-3.417
X6.760Y-2.535
X6.760Y-3.193
X6.760Y-3.535
X6.772Y-4.776
X6.772Y-4.815
X6.772Y-3.598
X6.784Y-2.760
X6.784Y-3.547
X6.791Y-2.386
X6.791Y-2.347
X6.795Y-3.496
X6.811Y-2.366
X6.819Y-2.102
X6.831Y-3.575
X6.831Y-3.996
X6.833Y-2.205
X6.835Y-3.433
X6.835Y-3.476
X6.839Y-3.744
X6.843Y-2.335
X6.843Y-2.496
X6.846Y-2.535
X6.858Y-2.835
X6.858Y-2.878
X6.858Y-2.921
X6.858Y-2.965
X6.858Y-3.008
X6.858Y-3.095
X6.858Y-3.138
X6.862Y-2.205
X6.874Y-2.760
X6.890Y-2.205
X6.890Y-2.244
X6.890Y-2.272
X6.898Y-2.488
X6.905Y-3.398
X6.917Y-2.205
X6.921Y-3.634
X6.921Y-3.807
X6.927Y-2.110
X6.929Y-4.850
X6.933Y-3.382
X6.941Y-4.571
X6.945Y-2.205
X6.953Y-2.091
X6.957Y-2.154
X6.957Y-2.307
X6.957Y-2.738
X6.957Y-2.835
X6.957Y-2.878
X6.957Y-2.921
X6.957Y-2.965
X6.957Y-3.008
X6.957Y-3.051
X6.957Y-3.095
X6.957Y-3.138
X6.957Y-3.185
X6.972Y-3.807
X7.000Y-2.051
X7.000Y-2.425
X7.024Y-3.634
X7.024Y-3.807
X7.032Y-3.347
X7.032Y-3.394
T2
X6.646Y-2.346
X6.646Y-2.386
X6.646Y-2.425
X6.685Y-2.346
X6.685Y-2.386
X6.685Y-2.425
X6.724Y-2.346
X6.724Y-2.386
X6.724Y-2.425
T3
X4.098Y-2.474
X4.098Y-2.533
X4.118Y-2.504
X4.138Y-2.474
X4.138Y-2.533
T4
X3.209Y-4.843
X3.209Y-4.921
X3.209Y-5.000
X3.209Y-5.079
X3.209Y-5.158
X3.209Y-5.236
X3.209Y-5.315
X3.248Y-4.882
X3.248Y-4.961
X3.248Y-5.039
X3.248Y-5.118
X3.248Y-5.197
X3.248Y-5.276
X3.248Y-5.354
X3.287Y-4.843
X3.287Y-4.921
X3.287Y-5.000
X3.287Y-5.079
X3.287Y-5.158
X3.287Y-5.236
X3.287Y-5.315
X3.291Y-2.634
X3.307Y-2.595
X3.307Y-2.673
X3.311Y-3.378
X3.311Y-3.413
X3.311Y-3.449
X3.327Y-4.882
X3.327Y-4.961
X3.327Y-5.039
X3.327Y-5.118
X3.327Y-5.197
X3.327Y-5.276
X3.327Y-5.354
X3.331Y-3.764
X3.331Y-3.843
X3.366Y-4.843
X3.366Y-4.921
X3.366Y-5.000
X3.366Y-5.079
X3.366Y-5.158
X3.366Y-5.236
X3.366Y-5.315
X3.374Y-3.543
X3.390Y-3.787
X3.390Y-3.839
X3.441Y-3.787
X3.441Y-3.839
X3.602Y-2.677
X3.681Y-2.705
X3.787Y-2.516
X3.787Y-2.559
X3.787Y-2.606
X3.787Y-2.650
X3.831Y-2.516
X3.831Y-2.559
X3.831Y-2.606
X3.831Y-2.650
X3.941Y-2.039
X3.984Y-1.866
X3.984Y-2.063
X4.008Y-1.965
X4.015Y-1.897
X4.016Y-2.000
X4.051Y-2.000
X4.055Y-4.642
X4.075Y-2.299
X4.075Y-2.709
X4.118Y-2.299
X4.118Y-2.709
X4.134Y-4.311
X4.173Y-4.642
X4.193Y-2.299
X4.193Y-2.709
X4.216Y-2.504
X4.236Y-2.299
X4.236Y-2.709
X4.280Y-2.299
X4.280Y-2.709
X4.291Y-4.642
X4.327Y-4.311
X4.433Y-4.642
X4.469Y-4.311
X4.575Y-4.642
X4.587Y-4.311
X4.705Y-4.642
X4.716Y-4.311
X4.787Y-4.642
X4.953Y-4.642
X4.965Y-4.311
X5.059Y-4.642
X5.165Y-4.642
X5.354Y-4.642
X5.402Y-4.311
X5.449Y-4.642
X5.543Y-4.311
X5.567Y-4.642
X5.661Y-4.311
X5.673Y-4.642
X5.831Y-4.642
X5.980Y-4.642
X5.984Y-4.311
X6.051Y-4.311
X6.075Y-4.642
X6.169Y-4.642
X6.193Y-4.311
X6.264Y-4.311
X6.264Y-4.642
X6.358Y-4.642
X6.535Y-2.697
X6.535Y-2.740
X6.535Y-2.784
X6.575Y-4.937
X6.575Y-5.004
X6.575Y-5.071
X6.622Y-1.866
X6.642Y-4.870
X6.642Y-4.937
X6.642Y-5.004
X6.642Y-5.071
X6.673Y-1.866
X6.705Y-4.130
X6.705Y-4.209
X6.724Y-1.866
X6.776Y-1.866
X6.846Y-3.933
X6.862Y-4.937
X6.862Y-5.004
X6.929Y-4.937
X6.929Y-5.004
X6.992Y-4.937
X6.992Y-5.004
X6.996Y-4.323
X6.996Y-4.370
X6.996Y-4.417
X6.996Y-4.465
X6.996Y-4.701
X6.996Y-4.752
X6.996Y-4.799
X7.043Y-4.323
X7.043Y-4.370
X7.043Y-4.417
X7.043Y-4.465
X7.043Y-4.701
X7.043Y-4.752
X7.043Y-4.799
T5
X4.299Y-2.027
X6.728Y-2.027
T6
X6.903Y-3.910
X6.903Y-4.106
T7
X7.020Y-3.900
X7.020Y-4.116
T8
X3.207Y-3.177
X3.207Y-3.671
T9
X4.162Y-2.047
X6.865Y-2.047
T10
X3.453Y-2.244
X3.571Y-2.429
X3.689Y-2.244
T0
M30
