G04 (created by PCBNEW-RS274X (2012-05-21 BZR 3261)-stable) date Tue 07 May 2013 04:43:39 PM PDT*
G01*
G70*
G90*
%MOIN*%
G04 Gerber Fmt 3.4, Leading zero omitted, Abs format*
%FSLAX34Y34*%
G04 APERTURE LIST*
%ADD10C,0.006500*%
%ADD11C,0.132000*%
%ADD12O,0.017000X0.039500*%
%ADD13O,0.039500X0.017000*%
%ADD14R,0.072900X0.072900*%
%ADD15C,0.023700*%
%ADD16R,0.049300X0.029600*%
%ADD17R,0.035500X0.017800*%
%ADD18R,0.017800X0.035500*%
%ADD19R,0.114300X0.114300*%
%ADD20C,0.029600*%
%ADD21R,0.041400X0.017800*%
%ADD22R,0.059100X0.071000*%
%ADD23R,0.029600X0.049300*%
%ADD24R,0.035100X0.078800*%
%ADD25R,0.030400X0.028400*%
%ADD26R,0.047300X0.061100*%
%ADD27R,0.043400X0.041400*%
%ADD28R,0.041400X0.043400*%
%ADD29R,0.028400X0.030400*%
%ADD30R,0.043400X0.021700*%
%ADD31R,0.100500X0.067000*%
%ADD32R,0.051300X0.063100*%
%ADD33R,0.043400X0.045400*%
%ADD34R,0.037500X0.027700*%
%ADD35R,0.053200X0.063100*%
%ADD36R,0.030400X0.030400*%
%ADD37C,0.124100*%
%ADD38C,0.092600*%
%ADD39R,0.151700X0.053200*%
%ADD40R,0.051300X0.076900*%
%ADD41R,0.112300X0.051300*%
%ADD42R,0.076900X0.051300*%
%ADD43R,0.051300X0.112300*%
%ADD44R,0.135900X0.328800*%
%ADD45R,0.063100X0.051300*%
%ADD46R,0.074900X0.029600*%
%ADD47R,0.065100X0.057200*%
%ADD48R,0.065100X0.065100*%
%ADD49R,0.061100X0.037500*%
%ADD50R,0.065100X0.037500*%
%ADD51R,0.045400X0.063100*%
%ADD52R,0.067000X0.045400*%
%ADD53R,0.069000X0.021700*%
%ADD54R,0.067800X0.080400*%
%ADD55R,0.039500X0.019800*%
%ADD56R,0.071000X0.100500*%
%ADD57R,0.039500X0.017000*%
%ADD58R,0.038400X0.053200*%
%ADD59R,0.017000X0.033600*%
%ADD60C,0.029000*%
%ADD61C,0.080800*%
%ADD62R,0.065100X0.017800*%
%ADD63R,0.017800X0.065100*%
%ADD64R,0.019800X0.084700*%
%ADD65C,0.069000*%
%ADD66C,0.049300*%
%ADD67C,0.046200*%
%ADD68C,0.045400*%
%ADD69C,0.100000*%
%ADD70R,0.076900X0.023700*%
%ADD71R,0.087400X0.062100*%
%ADD72R,0.063100X0.090300*%
%ADD73R,0.031000X0.077900*%
%ADD74R,0.117600X0.069000*%
%ADD75C,0.063100*%
%ADD76C,0.025700*%
%ADD77C,0.019800*%
%ADD78R,0.045400X0.029600*%
G04 APERTURE END LIST*
G54D10*
G54D11*
X39370Y-22047D03*
X33071Y-18898D03*
X69291Y-18898D03*
X39370Y-38583D03*
X33071Y-55118D03*
X69291Y-51968D03*
X69291Y-55118D03*
G54D12*
X67223Y-48534D03*
X67420Y-48534D03*
X67616Y-48534D03*
X67813Y-48534D03*
G54D13*
X68099Y-48248D03*
X68099Y-48051D03*
X68099Y-47855D03*
X68099Y-47658D03*
G54D12*
X67813Y-47372D03*
X67616Y-47372D03*
X67420Y-47372D03*
X67223Y-47372D03*
G54D13*
X66937Y-47658D03*
X66937Y-47855D03*
X66937Y-48051D03*
X66937Y-48248D03*
G54D14*
X67518Y-47953D03*
G54D15*
X67321Y-48150D03*
X67321Y-47756D03*
X67518Y-47953D03*
X67715Y-48150D03*
X67715Y-47756D03*
G54D16*
X60650Y-18130D03*
X60650Y-18504D03*
X60650Y-18878D03*
X61712Y-18878D03*
X61712Y-18504D03*
X61712Y-18130D03*
X47264Y-18091D03*
X47264Y-18465D03*
X47264Y-18839D03*
X48326Y-18839D03*
X48326Y-18465D03*
X48326Y-18091D03*
X55138Y-18091D03*
X55138Y-18465D03*
X55138Y-18839D03*
X56200Y-18839D03*
X56200Y-18465D03*
X56200Y-18091D03*
X64193Y-18130D03*
X64193Y-18504D03*
X64193Y-18878D03*
X65255Y-18878D03*
X65255Y-18504D03*
X65255Y-18130D03*
G54D17*
X67619Y-24252D03*
G54D18*
X67245Y-23090D03*
G54D17*
X66083Y-23464D03*
G54D18*
X66457Y-24626D03*
G54D17*
X67619Y-24055D03*
G54D18*
X67048Y-23090D03*
G54D17*
X66083Y-23661D03*
G54D18*
X66654Y-24626D03*
G54D17*
X67619Y-23858D03*
G54D18*
X66851Y-23090D03*
G54D17*
X66083Y-23858D03*
G54D18*
X66851Y-24626D03*
G54D17*
X67619Y-23661D03*
G54D18*
X66654Y-23090D03*
G54D17*
X66083Y-24055D03*
G54D18*
X67048Y-24626D03*
G54D17*
X67619Y-23464D03*
G54D18*
X66457Y-23090D03*
G54D17*
X66083Y-24252D03*
G54D18*
X67245Y-24626D03*
G54D19*
X66851Y-23858D03*
G54D20*
X67245Y-24252D03*
X66851Y-24252D03*
X66457Y-24252D03*
X67245Y-23858D03*
X66851Y-23858D03*
X66457Y-23858D03*
X67245Y-23464D03*
X66851Y-23464D03*
X66457Y-23464D03*
G54D21*
X62165Y-33248D03*
X62165Y-33051D03*
X62165Y-32855D03*
X62165Y-32658D03*
X60905Y-32658D03*
X60905Y-32855D03*
X60905Y-33051D03*
X60905Y-33248D03*
G54D22*
X62559Y-35768D03*
X62559Y-34154D03*
X61535Y-34154D03*
X61535Y-35768D03*
X36378Y-38169D03*
X36378Y-36555D03*
X35354Y-36555D03*
X35354Y-38169D03*
X68976Y-23760D03*
X68976Y-25374D03*
X70000Y-25374D03*
X70000Y-23760D03*
G54D23*
X69272Y-21516D03*
X68898Y-21516D03*
X68524Y-21516D03*
X68524Y-22578D03*
X69272Y-22578D03*
G54D16*
X59468Y-31004D03*
X59468Y-30630D03*
X59468Y-30256D03*
X58406Y-30256D03*
X58406Y-31004D03*
G54D23*
X64468Y-29507D03*
X64094Y-29507D03*
X63720Y-29507D03*
X63720Y-30569D03*
X64468Y-30569D03*
G54D24*
X68738Y-35738D03*
X68738Y-37412D03*
X69238Y-35738D03*
X69238Y-37412D03*
X69738Y-35738D03*
X69738Y-37412D03*
X70238Y-35738D03*
X70238Y-37412D03*
G54D25*
X69331Y-34142D03*
X69331Y-34520D03*
G54D26*
X69912Y-34410D03*
X69912Y-32992D03*
X70482Y-34410D03*
X70482Y-32992D03*
G54D24*
X62779Y-26407D03*
X62779Y-28081D03*
X63279Y-26407D03*
X63279Y-28081D03*
X63779Y-26407D03*
X63779Y-28081D03*
X64279Y-26407D03*
X64279Y-28081D03*
X64779Y-26407D03*
X64779Y-28081D03*
G54D27*
X67716Y-37008D03*
X67716Y-36378D03*
G54D28*
X62401Y-31299D03*
X63031Y-31299D03*
G54D29*
X67236Y-37165D03*
X66858Y-37165D03*
X62449Y-30827D03*
X62827Y-30827D03*
G54D30*
X58779Y-18996D03*
X58779Y-18740D03*
X58779Y-18484D03*
X57913Y-18484D03*
X57913Y-18996D03*
G54D31*
X36772Y-18425D03*
X35118Y-18425D03*
X36772Y-19803D03*
X35118Y-19803D03*
G54D29*
X57921Y-18031D03*
X58299Y-18031D03*
G54D32*
X68267Y-41299D03*
X67559Y-41299D03*
G54D33*
X67203Y-49095D03*
X67833Y-49095D03*
G54D34*
X68021Y-40334D03*
X68021Y-39960D03*
X68021Y-39586D03*
X67253Y-39586D03*
X67253Y-39960D03*
X67253Y-40334D03*
G54D35*
X64862Y-25394D03*
X65532Y-25394D03*
X35985Y-29508D03*
X35315Y-29508D03*
X67578Y-42086D03*
X68248Y-42086D03*
G54D36*
X64331Y-25531D03*
X64331Y-25177D03*
X61043Y-19370D03*
X60689Y-19370D03*
X64586Y-19370D03*
X64232Y-19370D03*
X47657Y-19370D03*
X47303Y-19370D03*
X55531Y-19370D03*
X55177Y-19370D03*
G54D29*
X60150Y-18150D03*
X59772Y-18150D03*
X63693Y-18150D03*
X63315Y-18150D03*
X46764Y-18110D03*
X46386Y-18110D03*
X54638Y-18110D03*
X54260Y-18110D03*
G54D37*
X36890Y-22441D03*
X34528Y-22441D03*
X35709Y-24291D03*
G54D38*
X32756Y-22441D03*
G54D39*
X43150Y-23583D03*
X43150Y-24685D03*
X43150Y-25394D03*
X43150Y-26496D03*
G54D40*
X40747Y-26339D03*
X41929Y-26339D03*
X41929Y-23740D03*
X40747Y-23740D03*
G54D41*
X39055Y-25236D03*
X39055Y-26418D03*
G54D42*
X69961Y-45236D03*
X69961Y-46418D03*
G54D43*
X66927Y-50039D03*
X68109Y-50039D03*
G54D36*
X40157Y-24586D03*
X40157Y-24232D03*
G54D25*
X62795Y-30465D03*
X62795Y-30087D03*
X67638Y-22709D03*
X67638Y-22331D03*
G54D29*
X64126Y-31101D03*
X63748Y-31101D03*
X69283Y-23071D03*
X68905Y-23071D03*
G54D44*
X66673Y-44842D03*
X68523Y-44842D03*
G54D45*
X70000Y-21614D03*
X70000Y-20906D03*
X65197Y-30394D03*
X65197Y-31102D03*
X70000Y-22992D03*
X70000Y-22284D03*
X65197Y-29724D03*
X65197Y-29016D03*
X60196Y-31181D03*
X60196Y-30473D03*
G54D32*
X58426Y-31732D03*
X59134Y-31732D03*
G54D36*
X63189Y-30453D03*
X63189Y-30099D03*
X68031Y-22697D03*
X68031Y-22343D03*
G54D25*
X56693Y-18079D03*
X56693Y-18457D03*
X59252Y-18811D03*
X59252Y-18433D03*
X48819Y-18079D03*
X48819Y-18457D03*
G54D29*
X65874Y-47047D03*
X66252Y-47047D03*
G54D25*
X62205Y-18118D03*
X62205Y-18496D03*
X67992Y-21764D03*
X67992Y-21386D03*
X65748Y-18118D03*
X65748Y-18496D03*
G54D46*
X70147Y-31378D03*
X70147Y-30945D03*
X70147Y-30512D03*
X70147Y-30079D03*
X70147Y-29646D03*
X70147Y-29213D03*
X70147Y-28780D03*
X70147Y-28347D03*
G54D47*
X70098Y-31850D03*
G54D48*
X70098Y-27382D03*
G54D49*
X66850Y-27244D03*
G54D50*
X67106Y-31949D03*
G54D51*
X66516Y-31821D03*
G54D52*
X65896Y-27402D03*
G54D36*
X36811Y-26358D03*
X36811Y-26712D03*
X39840Y-19979D03*
X39840Y-20333D03*
X39840Y-19310D03*
X39840Y-18956D03*
X58406Y-29724D03*
X58760Y-29724D03*
X66752Y-46929D03*
X67106Y-46929D03*
X67892Y-46929D03*
X68246Y-46929D03*
X68642Y-47716D03*
X68996Y-47716D03*
G54D29*
X59874Y-29724D03*
X59496Y-29724D03*
X58394Y-29370D03*
X58772Y-29370D03*
G54D25*
X39370Y-24598D03*
X39370Y-24220D03*
X39764Y-24220D03*
X39764Y-24598D03*
X38976Y-24220D03*
X38976Y-24598D03*
X68622Y-47315D03*
X68622Y-46937D03*
X40118Y-25323D03*
X40118Y-25701D03*
X40118Y-26071D03*
X40118Y-26449D03*
G54D29*
X39100Y-18975D03*
X39478Y-18975D03*
G54D25*
X37795Y-19968D03*
X37795Y-20346D03*
G54D29*
X38233Y-20550D03*
X38611Y-20550D03*
X34850Y-25433D03*
X35228Y-25433D03*
G54D25*
X57874Y-30622D03*
X57874Y-30244D03*
G54D29*
X68630Y-48504D03*
X69008Y-48504D03*
X68630Y-48110D03*
X69008Y-48110D03*
G54D25*
X69016Y-47315D03*
X69016Y-46937D03*
G54D53*
X35433Y-26604D03*
X35433Y-26348D03*
X35433Y-26092D03*
X35433Y-25836D03*
X33779Y-25836D03*
X33779Y-26092D03*
X33779Y-26348D03*
X33779Y-26604D03*
G54D54*
X34606Y-26220D03*
G54D15*
X34783Y-26456D03*
X34429Y-26456D03*
X34606Y-26220D03*
X34783Y-25984D03*
X34429Y-25984D03*
G54D55*
X38235Y-19379D03*
X38235Y-19635D03*
X38235Y-19891D03*
X38235Y-20147D03*
X39397Y-20147D03*
X39397Y-19891D03*
X39397Y-19635D03*
X39397Y-19379D03*
G54D56*
X38816Y-19763D03*
G54D15*
X38619Y-19468D03*
X39013Y-19468D03*
X38816Y-19763D03*
X38619Y-20058D03*
X39013Y-20058D03*
G54D57*
X40590Y-24645D03*
X40590Y-24842D03*
X40590Y-25039D03*
X40590Y-25236D03*
X40590Y-25433D03*
X41772Y-25433D03*
X41772Y-25236D03*
X41772Y-25039D03*
X41772Y-24842D03*
X41772Y-24645D03*
G54D58*
X41343Y-25275D03*
X41343Y-24803D03*
X41019Y-24803D03*
X41019Y-25275D03*
G54D59*
X41279Y-24429D03*
X41083Y-24429D03*
X41083Y-25649D03*
X41279Y-25649D03*
G54D60*
X41181Y-25039D03*
X41378Y-24744D03*
X40984Y-24744D03*
X40984Y-25334D03*
X41378Y-25334D03*
G54D25*
X67126Y-25165D03*
X67126Y-25543D03*
X66575Y-25165D03*
X66575Y-25543D03*
G54D29*
X65543Y-24685D03*
X65165Y-24685D03*
X65543Y-24331D03*
X65165Y-24331D03*
X65543Y-23937D03*
X65165Y-23937D03*
X65543Y-23583D03*
X65165Y-23583D03*
G54D25*
X66575Y-22236D03*
X66575Y-21858D03*
X66929Y-22236D03*
X66929Y-21858D03*
X34685Y-31110D03*
X34685Y-31488D03*
G54D61*
X32067Y-31770D03*
X32067Y-36711D03*
G54D36*
X68425Y-24350D03*
X68425Y-24704D03*
X68425Y-23602D03*
X68425Y-23956D03*
G54D62*
X63700Y-33838D03*
G54D63*
X64271Y-36575D03*
G54D62*
X67008Y-36004D03*
G54D63*
X66437Y-33267D03*
G54D62*
X63700Y-34035D03*
G54D63*
X64468Y-36575D03*
G54D62*
X67008Y-35807D03*
G54D63*
X66240Y-33267D03*
G54D62*
X63700Y-34232D03*
G54D63*
X64665Y-36575D03*
G54D62*
X67008Y-35610D03*
G54D63*
X66043Y-33267D03*
G54D62*
X63700Y-34429D03*
G54D63*
X64862Y-36575D03*
G54D62*
X67008Y-35413D03*
G54D63*
X65846Y-33267D03*
G54D62*
X63700Y-34626D03*
G54D63*
X65059Y-36575D03*
G54D62*
X67008Y-35216D03*
G54D63*
X65649Y-33267D03*
G54D62*
X63700Y-34823D03*
G54D63*
X65256Y-36575D03*
G54D62*
X67008Y-35019D03*
G54D63*
X65452Y-33267D03*
G54D62*
X63700Y-35019D03*
G54D63*
X65452Y-36575D03*
G54D62*
X67008Y-34823D03*
G54D63*
X65256Y-33267D03*
G54D62*
X63700Y-35216D03*
G54D63*
X65649Y-36575D03*
G54D62*
X67008Y-34626D03*
G54D63*
X65059Y-33267D03*
G54D62*
X63700Y-35413D03*
G54D63*
X65846Y-36575D03*
G54D62*
X67008Y-34429D03*
G54D63*
X64862Y-33267D03*
G54D62*
X63700Y-35610D03*
G54D63*
X66043Y-36575D03*
G54D62*
X67008Y-34232D03*
G54D63*
X64665Y-33267D03*
G54D62*
X63700Y-35807D03*
G54D63*
X66240Y-36575D03*
G54D62*
X67008Y-34035D03*
G54D63*
X64468Y-33267D03*
G54D62*
X63700Y-36004D03*
G54D63*
X66437Y-36575D03*
G54D62*
X67008Y-33838D03*
G54D63*
X64271Y-33267D03*
G54D64*
X63583Y-42480D03*
X63583Y-45708D03*
X63346Y-42480D03*
X63346Y-45708D03*
X63110Y-42480D03*
X63110Y-45708D03*
X62874Y-42480D03*
X62874Y-45708D03*
X62638Y-42480D03*
X62638Y-45708D03*
X62401Y-42480D03*
X62401Y-45708D03*
X62165Y-42480D03*
X62165Y-45708D03*
X61929Y-42480D03*
X61929Y-45708D03*
X61693Y-42480D03*
X61693Y-45708D03*
X61457Y-42480D03*
X61457Y-45708D03*
X61220Y-42480D03*
X61220Y-45708D03*
X60984Y-42480D03*
X60984Y-45708D03*
X60748Y-42480D03*
X60748Y-45708D03*
X60512Y-42480D03*
X60512Y-45708D03*
X60275Y-42480D03*
X60275Y-45708D03*
X60039Y-42480D03*
X60039Y-45708D03*
X59803Y-42480D03*
X59803Y-45708D03*
X59567Y-42480D03*
X59567Y-45708D03*
X59331Y-42480D03*
X59331Y-45708D03*
X59094Y-42480D03*
X59094Y-45708D03*
X57441Y-42480D03*
X57441Y-45708D03*
X57205Y-42480D03*
X57205Y-45708D03*
X56968Y-42480D03*
X56968Y-45708D03*
X56732Y-42480D03*
X56732Y-45708D03*
X56496Y-42480D03*
X56496Y-45708D03*
X56260Y-42480D03*
X56260Y-45708D03*
X56024Y-42480D03*
X56024Y-45708D03*
X55787Y-42480D03*
X55787Y-45708D03*
X55551Y-42480D03*
X55551Y-45708D03*
X55315Y-42480D03*
X55315Y-45708D03*
X55079Y-42480D03*
X55079Y-45708D03*
X54842Y-42480D03*
X54842Y-45708D03*
X54606Y-42480D03*
X54606Y-45708D03*
X54370Y-42480D03*
X54370Y-45708D03*
X54134Y-42480D03*
X54134Y-45708D03*
X53898Y-42480D03*
X53898Y-45708D03*
X53661Y-42480D03*
X53661Y-45708D03*
X53425Y-42480D03*
X53425Y-45708D03*
X53189Y-42480D03*
X53189Y-45708D03*
X52953Y-42480D03*
X52953Y-45708D03*
X52716Y-42480D03*
X52716Y-45708D03*
X52480Y-42480D03*
X52480Y-45708D03*
X52244Y-42480D03*
X52244Y-45708D03*
X52008Y-42480D03*
X52008Y-45708D03*
X51772Y-42480D03*
X51772Y-45708D03*
X51535Y-42480D03*
X51535Y-45708D03*
X51299Y-42480D03*
X51299Y-45708D03*
X51063Y-42480D03*
X51063Y-45708D03*
X50827Y-42480D03*
X50827Y-45708D03*
X50590Y-42480D03*
X50590Y-45708D03*
X50354Y-42480D03*
X50354Y-45708D03*
X50118Y-42480D03*
X50118Y-45708D03*
X49882Y-42480D03*
X49882Y-45708D03*
X49646Y-42480D03*
X49646Y-45708D03*
X49409Y-42480D03*
X49409Y-45708D03*
X49173Y-42480D03*
X49173Y-45708D03*
X48937Y-42480D03*
X48937Y-45708D03*
X48701Y-42480D03*
X48701Y-45708D03*
X48464Y-42480D03*
X48464Y-45708D03*
X48228Y-42480D03*
X48228Y-45708D03*
X47992Y-42480D03*
X47992Y-45708D03*
X47756Y-42480D03*
X47756Y-45708D03*
X47520Y-42480D03*
X47520Y-45708D03*
X47283Y-42480D03*
X47283Y-45708D03*
X47047Y-42480D03*
X47047Y-45708D03*
X46811Y-42480D03*
X46811Y-45708D03*
X46575Y-42480D03*
X46575Y-45708D03*
X46338Y-42480D03*
X46338Y-45708D03*
X46102Y-42480D03*
X46102Y-45708D03*
X45866Y-42480D03*
X45866Y-45708D03*
X45630Y-42480D03*
X45630Y-45708D03*
X45394Y-42480D03*
X45394Y-45708D03*
X45157Y-42480D03*
X45157Y-45708D03*
X44921Y-42480D03*
X44921Y-45708D03*
X44685Y-42480D03*
X44685Y-45708D03*
X44449Y-42480D03*
X44449Y-45708D03*
X44212Y-42480D03*
X44212Y-45708D03*
X43976Y-42480D03*
X43976Y-45708D03*
X43740Y-42480D03*
X43740Y-45708D03*
X43504Y-42480D03*
X43504Y-45708D03*
X43268Y-42480D03*
X43268Y-45708D03*
X43031Y-42480D03*
X43031Y-45708D03*
X42795Y-42480D03*
X42795Y-45708D03*
X42559Y-42480D03*
X42559Y-45708D03*
X42323Y-42480D03*
X42323Y-45708D03*
X42087Y-42480D03*
X42087Y-45708D03*
X41850Y-42480D03*
X41850Y-45708D03*
X41614Y-42480D03*
X41614Y-45708D03*
X41378Y-42480D03*
X41378Y-45708D03*
X41142Y-42480D03*
X41142Y-45708D03*
X40905Y-42480D03*
X40905Y-45708D03*
X40669Y-42480D03*
X40669Y-45708D03*
X40433Y-42480D03*
X40433Y-45708D03*
X40197Y-42480D03*
X40197Y-45708D03*
X39961Y-42480D03*
X39961Y-45708D03*
X39724Y-42480D03*
X39724Y-45708D03*
X39488Y-42480D03*
X39488Y-45708D03*
X39252Y-42480D03*
X39252Y-45708D03*
X39016Y-42480D03*
X39016Y-45708D03*
X38779Y-42480D03*
X38779Y-45708D03*
G54D65*
X64331Y-44094D03*
G54D66*
X38031Y-44094D03*
G54D67*
X66650Y-19673D03*
X43626Y-19673D03*
G54D68*
X67282Y-20271D03*
X42994Y-20271D03*
G54D69*
X68654Y-20472D03*
X41622Y-20472D03*
G54D29*
X34638Y-29803D03*
X34260Y-29803D03*
X33890Y-29803D03*
X33512Y-29803D03*
G54D36*
X35886Y-28937D03*
X35532Y-28937D03*
X35847Y-35787D03*
X36201Y-35787D03*
X36909Y-35787D03*
X36555Y-35787D03*
G54D25*
X67992Y-38708D03*
X67992Y-39086D03*
G54D29*
X66385Y-39999D03*
X66763Y-39999D03*
X65834Y-39645D03*
X66212Y-39645D03*
X65834Y-39251D03*
X66212Y-39251D03*
G54D36*
X63110Y-34744D03*
X63110Y-34390D03*
X63110Y-35453D03*
X63110Y-35099D03*
G54D70*
X69085Y-40590D03*
X69085Y-40334D03*
X69085Y-40078D03*
X69085Y-39822D03*
X69085Y-39566D03*
G54D71*
X70210Y-40457D03*
X70210Y-39699D03*
G54D72*
X69026Y-41192D03*
X69026Y-38964D03*
G54D73*
X69539Y-41254D03*
X69539Y-38902D03*
G54D74*
X69972Y-41161D03*
X69972Y-38995D03*
G54D65*
X70197Y-41161D03*
X70197Y-38995D03*
G54D75*
X69027Y-41057D03*
X69027Y-39099D03*
G54D29*
X65716Y-37992D03*
X66094Y-37992D03*
G54D25*
X66102Y-38732D03*
X66102Y-38354D03*
G54D36*
X66751Y-40354D03*
X66397Y-40354D03*
G54D76*
X46260Y-26181D03*
X46653Y-26181D03*
X47047Y-26181D03*
X47441Y-26181D03*
X47835Y-26181D03*
X48228Y-26181D03*
X48622Y-26181D03*
X49016Y-26181D03*
X49409Y-26181D03*
X49803Y-26181D03*
X50197Y-26181D03*
X50590Y-26181D03*
X50984Y-26181D03*
X51378Y-26181D03*
X51772Y-26181D03*
X52165Y-26181D03*
X52559Y-26181D03*
X52953Y-26181D03*
X53346Y-26181D03*
X53740Y-26181D03*
X54134Y-26181D03*
X54527Y-26181D03*
X54921Y-26181D03*
X55315Y-26181D03*
X55709Y-26181D03*
X56102Y-26181D03*
X45866Y-26575D03*
X46260Y-26575D03*
X46653Y-26575D03*
X47047Y-26575D03*
X47441Y-26575D03*
X47835Y-26575D03*
X48228Y-26575D03*
X48622Y-26575D03*
X49016Y-26575D03*
X49409Y-26575D03*
X49803Y-26575D03*
X50197Y-26575D03*
X50590Y-26575D03*
X50984Y-26575D03*
X51378Y-26575D03*
X51772Y-26575D03*
X52165Y-26575D03*
X52559Y-26575D03*
X52953Y-26575D03*
X53346Y-26575D03*
X53740Y-26575D03*
X54134Y-26575D03*
X54527Y-26575D03*
X54921Y-26575D03*
X55315Y-26575D03*
X55709Y-26575D03*
X56102Y-26575D03*
X56496Y-26575D03*
X45866Y-26968D03*
X46260Y-26968D03*
X46653Y-26968D03*
X47047Y-26968D03*
X47441Y-26968D03*
X47835Y-26968D03*
X48228Y-26968D03*
X48622Y-26968D03*
X49016Y-26968D03*
X49409Y-26968D03*
X49803Y-26968D03*
X50197Y-26968D03*
X50590Y-26968D03*
X50984Y-26968D03*
X51378Y-26968D03*
X51772Y-26968D03*
X52165Y-26968D03*
X52559Y-26968D03*
X52953Y-26968D03*
X53346Y-26968D03*
X53740Y-26968D03*
X54134Y-26968D03*
X54527Y-26968D03*
X54921Y-26968D03*
X55315Y-26968D03*
X55709Y-26968D03*
X56102Y-26968D03*
X56496Y-26968D03*
X45866Y-27362D03*
X46260Y-27362D03*
X46653Y-27362D03*
X47047Y-27362D03*
X47441Y-27362D03*
X47835Y-27362D03*
X48228Y-27362D03*
X48622Y-27362D03*
X49016Y-27362D03*
X49409Y-27362D03*
X49803Y-27362D03*
X50197Y-27362D03*
X50590Y-27362D03*
X50984Y-27362D03*
X51378Y-27362D03*
X51772Y-27362D03*
X52165Y-27362D03*
X52559Y-27362D03*
X52953Y-27362D03*
X53346Y-27362D03*
X53740Y-27362D03*
X54134Y-27362D03*
X54527Y-27362D03*
X54921Y-27362D03*
X55315Y-27362D03*
X55709Y-27362D03*
X56102Y-27362D03*
X56496Y-27362D03*
X45866Y-27756D03*
X46260Y-27756D03*
X46653Y-27756D03*
X47047Y-27756D03*
X47441Y-27756D03*
X47835Y-27756D03*
X48228Y-27756D03*
X48622Y-27756D03*
X49016Y-27756D03*
X49409Y-27756D03*
X49803Y-27756D03*
X50197Y-27756D03*
X50590Y-27756D03*
X50984Y-27756D03*
X51378Y-27756D03*
X51772Y-27756D03*
X52165Y-27756D03*
X52559Y-27756D03*
X52953Y-27756D03*
X53346Y-27756D03*
X53740Y-27756D03*
X54134Y-27756D03*
X54527Y-27756D03*
X54921Y-27756D03*
X55315Y-27756D03*
X55709Y-27756D03*
X56102Y-27756D03*
X56496Y-27756D03*
X45866Y-28150D03*
X46260Y-28150D03*
X46653Y-28150D03*
X47047Y-28150D03*
X47441Y-28150D03*
X47835Y-28150D03*
X48228Y-28150D03*
X48622Y-28150D03*
X49016Y-28150D03*
X49409Y-28150D03*
X49803Y-28150D03*
X50197Y-28150D03*
X50590Y-28150D03*
X50984Y-28150D03*
X51378Y-28150D03*
X51772Y-28150D03*
X52165Y-28150D03*
X52559Y-28150D03*
X52953Y-28150D03*
X53346Y-28150D03*
X53740Y-28150D03*
X54134Y-28150D03*
X54527Y-28150D03*
X54921Y-28150D03*
X55315Y-28150D03*
X55709Y-28150D03*
X56102Y-28150D03*
X56496Y-28150D03*
X45866Y-28543D03*
X46260Y-28543D03*
X46653Y-28543D03*
X47047Y-28543D03*
X47441Y-28543D03*
X47835Y-28543D03*
X48228Y-28543D03*
X48622Y-28543D03*
X49016Y-28543D03*
X49409Y-28543D03*
X49803Y-28543D03*
X50197Y-28543D03*
X50590Y-28543D03*
X50984Y-28543D03*
X51378Y-28543D03*
X51772Y-28543D03*
X52165Y-28543D03*
X52559Y-28543D03*
X52953Y-28543D03*
X53346Y-28543D03*
X53740Y-28543D03*
X54134Y-28543D03*
X54527Y-28543D03*
X54921Y-28543D03*
X55315Y-28543D03*
X55709Y-28543D03*
X56102Y-28543D03*
X56496Y-28543D03*
X45866Y-28937D03*
X46260Y-28937D03*
X46653Y-28937D03*
X47047Y-28937D03*
X47441Y-28937D03*
X47835Y-28937D03*
X48228Y-28937D03*
X48622Y-28937D03*
X49016Y-28937D03*
X49409Y-28937D03*
X49803Y-28937D03*
X50197Y-28937D03*
X50590Y-28937D03*
X50984Y-28937D03*
X51378Y-28937D03*
X51772Y-28937D03*
X52165Y-28937D03*
X52559Y-28937D03*
X52953Y-28937D03*
X53346Y-28937D03*
X53740Y-28937D03*
X54134Y-28937D03*
X54527Y-28937D03*
X54921Y-28937D03*
X55315Y-28937D03*
X55709Y-28937D03*
X56102Y-28937D03*
X56496Y-28937D03*
X45866Y-29331D03*
X46260Y-29331D03*
X46653Y-29331D03*
X47047Y-29331D03*
X47441Y-29331D03*
X47835Y-29331D03*
X48228Y-29331D03*
X48622Y-29331D03*
X49016Y-29331D03*
X49409Y-29331D03*
X49803Y-29331D03*
X50197Y-29331D03*
X50590Y-29331D03*
X50984Y-29331D03*
X51378Y-29331D03*
X51772Y-29331D03*
X52165Y-29331D03*
X52559Y-29331D03*
X52953Y-29331D03*
X53346Y-29331D03*
X53740Y-29331D03*
X54134Y-29331D03*
X54527Y-29331D03*
X54921Y-29331D03*
X55315Y-29331D03*
X55709Y-29331D03*
X56102Y-29331D03*
X56496Y-29331D03*
X45866Y-29724D03*
X46260Y-29724D03*
X46653Y-29724D03*
X47047Y-29724D03*
X47441Y-29724D03*
X47835Y-29724D03*
X48228Y-29724D03*
X48622Y-29724D03*
X49016Y-29724D03*
X49409Y-29724D03*
X49803Y-29724D03*
X50197Y-29724D03*
X50590Y-29724D03*
X50984Y-29724D03*
X51378Y-29724D03*
X51772Y-29724D03*
X52165Y-29724D03*
X52559Y-29724D03*
X52953Y-29724D03*
X53346Y-29724D03*
X53740Y-29724D03*
X54134Y-29724D03*
X54527Y-29724D03*
X54921Y-29724D03*
X55315Y-29724D03*
X55709Y-29724D03*
X56102Y-29724D03*
X56496Y-29724D03*
X45866Y-30118D03*
X46260Y-30118D03*
X46653Y-30118D03*
X47047Y-30118D03*
X47441Y-30118D03*
X47835Y-30118D03*
X48228Y-30118D03*
X48622Y-30118D03*
X49016Y-30118D03*
X49409Y-30118D03*
X49803Y-30118D03*
X50197Y-30118D03*
X50590Y-30118D03*
X50984Y-30118D03*
X51378Y-30118D03*
X51772Y-30118D03*
X52165Y-30118D03*
X52559Y-30118D03*
X52953Y-30118D03*
X53346Y-30118D03*
X53740Y-30118D03*
X54134Y-30118D03*
X54527Y-30118D03*
X54921Y-30118D03*
X55315Y-30118D03*
X55709Y-30118D03*
X56102Y-30118D03*
X56496Y-30118D03*
X45866Y-30512D03*
X46260Y-30512D03*
X46653Y-30512D03*
X47047Y-30512D03*
X47441Y-30512D03*
X47835Y-30512D03*
X48228Y-30512D03*
X48622Y-30512D03*
X49016Y-30512D03*
X49409Y-30512D03*
X49803Y-30512D03*
X50197Y-30512D03*
X50590Y-30512D03*
X50984Y-30512D03*
X51378Y-30512D03*
X51772Y-30512D03*
X52165Y-30512D03*
X52559Y-30512D03*
X52953Y-30512D03*
X53346Y-30512D03*
X53740Y-30512D03*
X54134Y-30512D03*
X54527Y-30512D03*
X54921Y-30512D03*
X55315Y-30512D03*
X55709Y-30512D03*
X56102Y-30512D03*
X56496Y-30512D03*
X45866Y-30905D03*
X46260Y-30905D03*
X46653Y-30905D03*
X47047Y-30905D03*
X47441Y-30905D03*
X47835Y-30905D03*
X48228Y-30905D03*
X48622Y-30905D03*
X49016Y-30905D03*
X49409Y-30905D03*
X49803Y-30905D03*
X50197Y-30905D03*
X50590Y-30905D03*
X50984Y-30905D03*
X51378Y-30905D03*
X51772Y-30905D03*
X52165Y-30905D03*
X52559Y-30905D03*
X52953Y-30905D03*
X53346Y-30905D03*
X53740Y-30905D03*
X54134Y-30905D03*
X54527Y-30905D03*
X54921Y-30905D03*
X55315Y-30905D03*
X55709Y-30905D03*
X56102Y-30905D03*
X56496Y-30905D03*
X45866Y-31299D03*
X46260Y-31299D03*
X46653Y-31299D03*
X47047Y-31299D03*
X47441Y-31299D03*
X47835Y-31299D03*
X48228Y-31299D03*
X48622Y-31299D03*
X49016Y-31299D03*
X49409Y-31299D03*
X49803Y-31299D03*
X50197Y-31299D03*
X50590Y-31299D03*
X50984Y-31299D03*
X51378Y-31299D03*
X51772Y-31299D03*
X52165Y-31299D03*
X52559Y-31299D03*
X52953Y-31299D03*
X53346Y-31299D03*
X53740Y-31299D03*
X54134Y-31299D03*
X54527Y-31299D03*
X54921Y-31299D03*
X55315Y-31299D03*
X55709Y-31299D03*
X56102Y-31299D03*
X56496Y-31299D03*
X45866Y-31693D03*
X46260Y-31693D03*
X46653Y-31693D03*
X47047Y-31693D03*
X47441Y-31693D03*
X47835Y-31693D03*
X48228Y-31693D03*
X48622Y-31693D03*
X49016Y-31693D03*
X49409Y-31693D03*
X49803Y-31693D03*
X50197Y-31693D03*
X50590Y-31693D03*
X50984Y-31693D03*
X51378Y-31693D03*
X51772Y-31693D03*
X52165Y-31693D03*
X52559Y-31693D03*
X52953Y-31693D03*
X53346Y-31693D03*
X53740Y-31693D03*
X54134Y-31693D03*
X54527Y-31693D03*
X54921Y-31693D03*
X55315Y-31693D03*
X55709Y-31693D03*
X56102Y-31693D03*
X56496Y-31693D03*
X45866Y-32087D03*
X46260Y-32087D03*
X46653Y-32087D03*
X47047Y-32087D03*
X47441Y-32087D03*
X47835Y-32087D03*
X48228Y-32087D03*
X48622Y-32087D03*
X49016Y-32087D03*
X49409Y-32087D03*
X49803Y-32087D03*
X50197Y-32087D03*
X50590Y-32087D03*
X50984Y-32087D03*
X51378Y-32087D03*
X51772Y-32087D03*
X52165Y-32087D03*
X52559Y-32087D03*
X52953Y-32087D03*
X53346Y-32087D03*
X53740Y-32087D03*
X54134Y-32087D03*
X54527Y-32087D03*
X54921Y-32087D03*
X55315Y-32087D03*
X55709Y-32087D03*
X56102Y-32087D03*
X56496Y-32087D03*
X45866Y-32480D03*
X46260Y-32480D03*
X46653Y-32480D03*
X47047Y-32480D03*
X47441Y-32480D03*
X47835Y-32480D03*
X48228Y-32480D03*
X48622Y-32480D03*
X49016Y-32480D03*
X49409Y-32480D03*
X49803Y-32480D03*
X50197Y-32480D03*
X50590Y-32480D03*
X50984Y-32480D03*
X51378Y-32480D03*
X51772Y-32480D03*
X52165Y-32480D03*
X52559Y-32480D03*
X52953Y-32480D03*
X53346Y-32480D03*
X53740Y-32480D03*
X54134Y-32480D03*
X54527Y-32480D03*
X54921Y-32480D03*
X55315Y-32480D03*
X55709Y-32480D03*
X56102Y-32480D03*
X56496Y-32480D03*
X45866Y-32874D03*
X46260Y-32874D03*
X46653Y-32874D03*
X47047Y-32874D03*
X47441Y-32874D03*
X47835Y-32874D03*
X48228Y-32874D03*
X48622Y-32874D03*
X49016Y-32874D03*
X49409Y-32874D03*
X49803Y-32874D03*
X50197Y-32874D03*
X50590Y-32874D03*
X50984Y-32874D03*
X51378Y-32874D03*
X51772Y-32874D03*
X52165Y-32874D03*
X52559Y-32874D03*
X52953Y-32874D03*
X53346Y-32874D03*
X53740Y-32874D03*
X54134Y-32874D03*
X54527Y-32874D03*
X54921Y-32874D03*
X55315Y-32874D03*
X55709Y-32874D03*
X56102Y-32874D03*
X56496Y-32874D03*
X45866Y-33268D03*
X46260Y-33268D03*
X46653Y-33268D03*
X47047Y-33268D03*
X47441Y-33268D03*
X47835Y-33268D03*
X48228Y-33268D03*
X48622Y-33268D03*
X49016Y-33268D03*
X49409Y-33268D03*
X49803Y-33268D03*
X50197Y-33268D03*
X50590Y-33268D03*
X50984Y-33268D03*
X51378Y-33268D03*
X51772Y-33268D03*
X52165Y-33268D03*
X52559Y-33268D03*
X52953Y-33268D03*
X53346Y-33268D03*
X53740Y-33268D03*
X54134Y-33268D03*
X54527Y-33268D03*
X54921Y-33268D03*
X55315Y-33268D03*
X55709Y-33268D03*
X56102Y-33268D03*
X56496Y-33268D03*
X45866Y-33661D03*
X46260Y-33661D03*
X46653Y-33661D03*
X47047Y-33661D03*
X47441Y-33661D03*
X47835Y-33661D03*
X48228Y-33661D03*
X48622Y-33661D03*
X49016Y-33661D03*
X49409Y-33661D03*
X49803Y-33661D03*
X50197Y-33661D03*
X50590Y-33661D03*
X50984Y-33661D03*
X51378Y-33661D03*
X51772Y-33661D03*
X52165Y-33661D03*
X52559Y-33661D03*
X52953Y-33661D03*
X53346Y-33661D03*
X53740Y-33661D03*
X54134Y-33661D03*
X54527Y-33661D03*
X54921Y-33661D03*
X55315Y-33661D03*
X55709Y-33661D03*
X56102Y-33661D03*
X56496Y-33661D03*
X45866Y-34055D03*
X46260Y-34055D03*
X46653Y-34055D03*
X47047Y-34055D03*
X47441Y-34055D03*
X47835Y-34055D03*
X48228Y-34055D03*
X48622Y-34055D03*
X49016Y-34055D03*
X49409Y-34055D03*
X49803Y-34055D03*
X50197Y-34055D03*
X50590Y-34055D03*
X50984Y-34055D03*
X51378Y-34055D03*
X51772Y-34055D03*
X52165Y-34055D03*
X52559Y-34055D03*
X52953Y-34055D03*
X53346Y-34055D03*
X53740Y-34055D03*
X54134Y-34055D03*
X54527Y-34055D03*
X54921Y-34055D03*
X55315Y-34055D03*
X55709Y-34055D03*
X56102Y-34055D03*
X56496Y-34055D03*
X45866Y-34449D03*
X46260Y-34449D03*
X46653Y-34449D03*
X47047Y-34449D03*
X47441Y-34449D03*
X47835Y-34449D03*
X48228Y-34449D03*
X48622Y-34449D03*
X49016Y-34449D03*
X49409Y-34449D03*
X49803Y-34449D03*
X50197Y-34449D03*
X50590Y-34449D03*
X50984Y-34449D03*
X51378Y-34449D03*
X51772Y-34449D03*
X52165Y-34449D03*
X52559Y-34449D03*
X52953Y-34449D03*
X53346Y-34449D03*
X53740Y-34449D03*
X54134Y-34449D03*
X54527Y-34449D03*
X54921Y-34449D03*
X55315Y-34449D03*
X55709Y-34449D03*
X56102Y-34449D03*
X56496Y-34449D03*
X45866Y-34842D03*
X46260Y-34842D03*
X46653Y-34842D03*
X47047Y-34842D03*
X47441Y-34842D03*
X47835Y-34842D03*
X48228Y-34842D03*
X48622Y-34842D03*
X49016Y-34842D03*
X49409Y-34842D03*
X49803Y-34842D03*
X50197Y-34842D03*
X50590Y-34842D03*
X50984Y-34842D03*
X51378Y-34842D03*
X51772Y-34842D03*
X52165Y-34842D03*
X52559Y-34842D03*
X52953Y-34842D03*
X53346Y-34842D03*
X53740Y-34842D03*
X54134Y-34842D03*
X54527Y-34842D03*
X54921Y-34842D03*
X55315Y-34842D03*
X55709Y-34842D03*
X56102Y-34842D03*
X56496Y-34842D03*
X45866Y-35236D03*
X46260Y-35236D03*
X46653Y-35236D03*
X47047Y-35236D03*
X47441Y-35236D03*
X47835Y-35236D03*
X48228Y-35236D03*
X48622Y-35236D03*
X49016Y-35236D03*
X49409Y-35236D03*
X49803Y-35236D03*
X50197Y-35236D03*
X50590Y-35236D03*
X50984Y-35236D03*
X51378Y-35236D03*
X51772Y-35236D03*
X52165Y-35236D03*
X52559Y-35236D03*
X52953Y-35236D03*
X53346Y-35236D03*
X53740Y-35236D03*
X54134Y-35236D03*
X54527Y-35236D03*
X54921Y-35236D03*
X55315Y-35236D03*
X55709Y-35236D03*
X56102Y-35236D03*
X56496Y-35236D03*
X45866Y-35630D03*
X46260Y-35630D03*
X46653Y-35630D03*
X47047Y-35630D03*
X47441Y-35630D03*
X47835Y-35630D03*
X48228Y-35630D03*
X48622Y-35630D03*
X49016Y-35630D03*
X49409Y-35630D03*
X49803Y-35630D03*
X50197Y-35630D03*
X50590Y-35630D03*
X50984Y-35630D03*
X51378Y-35630D03*
X51772Y-35630D03*
X52165Y-35630D03*
X52559Y-35630D03*
X52953Y-35630D03*
X53346Y-35630D03*
X53740Y-35630D03*
X54134Y-35630D03*
X54527Y-35630D03*
X54921Y-35630D03*
X55315Y-35630D03*
X55709Y-35630D03*
X56102Y-35630D03*
X56496Y-35630D03*
X45866Y-36024D03*
X46260Y-36024D03*
X46653Y-36024D03*
X47047Y-36024D03*
X47441Y-36024D03*
X47835Y-36024D03*
X48228Y-36024D03*
X48622Y-36024D03*
X49016Y-36024D03*
X49409Y-36024D03*
X49803Y-36024D03*
X50197Y-36024D03*
X50590Y-36024D03*
X50984Y-36024D03*
X51378Y-36024D03*
X51772Y-36024D03*
X52165Y-36024D03*
X52559Y-36024D03*
X52953Y-36024D03*
X53346Y-36024D03*
X53740Y-36024D03*
X54134Y-36024D03*
X54527Y-36024D03*
X54921Y-36024D03*
X55315Y-36024D03*
X55709Y-36024D03*
X56102Y-36024D03*
X56496Y-36024D03*
X45866Y-36417D03*
X46260Y-36417D03*
X46653Y-36417D03*
X47047Y-36417D03*
X47441Y-36417D03*
X47835Y-36417D03*
X48228Y-36417D03*
X48622Y-36417D03*
X49016Y-36417D03*
X49409Y-36417D03*
X49803Y-36417D03*
X50197Y-36417D03*
X50590Y-36417D03*
X50984Y-36417D03*
X51378Y-36417D03*
X51772Y-36417D03*
X52165Y-36417D03*
X52559Y-36417D03*
X52953Y-36417D03*
X53346Y-36417D03*
X53740Y-36417D03*
X54134Y-36417D03*
X54527Y-36417D03*
X54921Y-36417D03*
X55315Y-36417D03*
X55709Y-36417D03*
X56102Y-36417D03*
X56496Y-36417D03*
X46260Y-36811D03*
X46653Y-36811D03*
X47047Y-36811D03*
X47441Y-36811D03*
X47835Y-36811D03*
X48228Y-36811D03*
X48622Y-36811D03*
X49016Y-36811D03*
X49409Y-36811D03*
X49803Y-36811D03*
X50197Y-36811D03*
X50590Y-36811D03*
X50984Y-36811D03*
X51378Y-36811D03*
X51772Y-36811D03*
X52165Y-36811D03*
X52559Y-36811D03*
X52953Y-36811D03*
X53346Y-36811D03*
X53740Y-36811D03*
X54134Y-36811D03*
X54527Y-36811D03*
X54921Y-36811D03*
X55315Y-36811D03*
X55709Y-36811D03*
X56102Y-36811D03*
G54D77*
X39527Y-34724D03*
X39212Y-34724D03*
X38897Y-34724D03*
X38582Y-34724D03*
X38267Y-34724D03*
X37952Y-34724D03*
X37638Y-34724D03*
X37323Y-34724D03*
X37008Y-34724D03*
X36693Y-34724D03*
X36378Y-34724D03*
X36063Y-34724D03*
X35748Y-34724D03*
X39842Y-34409D03*
X39527Y-34409D03*
X39212Y-34409D03*
X38897Y-34409D03*
X38582Y-34409D03*
X38267Y-34409D03*
X37952Y-34409D03*
X37638Y-34409D03*
X37323Y-34409D03*
X37008Y-34409D03*
X36693Y-34409D03*
X36378Y-34409D03*
X36063Y-34409D03*
X35748Y-34409D03*
X39842Y-34094D03*
X39527Y-34094D03*
X39212Y-34094D03*
X38897Y-34094D03*
X38582Y-34094D03*
X38267Y-34094D03*
X37952Y-34094D03*
X37638Y-34094D03*
X37323Y-34094D03*
X37008Y-34094D03*
X36693Y-34094D03*
X36378Y-34094D03*
X36063Y-34094D03*
X35748Y-34094D03*
X39842Y-33779D03*
X39527Y-33779D03*
X39212Y-33779D03*
X38897Y-33779D03*
X38582Y-33779D03*
X38267Y-33779D03*
X37952Y-33779D03*
X37638Y-33779D03*
X37323Y-33779D03*
X37008Y-33779D03*
X36693Y-33779D03*
X36378Y-33779D03*
X36063Y-33779D03*
X35748Y-33779D03*
X39842Y-33464D03*
X39527Y-33464D03*
X39212Y-33464D03*
X38897Y-33464D03*
X36693Y-33464D03*
X36378Y-33464D03*
X36063Y-33464D03*
X35748Y-33464D03*
X39842Y-33149D03*
X39527Y-33149D03*
X39212Y-33149D03*
X38897Y-33149D03*
X38267Y-33149D03*
X37952Y-33149D03*
X37638Y-33149D03*
X37323Y-33149D03*
X36693Y-33149D03*
X36378Y-33149D03*
X36063Y-33149D03*
X35748Y-33149D03*
X39842Y-32834D03*
X39527Y-32834D03*
X39212Y-32834D03*
X38897Y-32834D03*
X38267Y-32834D03*
X37952Y-32834D03*
X37638Y-32834D03*
X37323Y-32834D03*
X36693Y-32834D03*
X36378Y-32834D03*
X36063Y-32834D03*
X35748Y-32834D03*
X39842Y-32520D03*
X39527Y-32520D03*
X39212Y-32520D03*
X38897Y-32520D03*
X38267Y-32520D03*
X37952Y-32520D03*
X37638Y-32520D03*
X37323Y-32520D03*
X36693Y-32520D03*
X36378Y-32520D03*
X36063Y-32520D03*
X35748Y-32520D03*
X39842Y-32205D03*
X39527Y-32205D03*
X39212Y-32205D03*
X38897Y-32205D03*
X38267Y-32205D03*
X37952Y-32205D03*
X37638Y-32205D03*
X37323Y-32205D03*
X36693Y-32205D03*
X36378Y-32205D03*
X36063Y-32205D03*
X35748Y-32205D03*
X39842Y-31890D03*
X39527Y-31890D03*
X39212Y-31890D03*
X38897Y-31890D03*
X36693Y-31890D03*
X36378Y-31890D03*
X36063Y-31890D03*
X35748Y-31890D03*
X39842Y-31575D03*
X39527Y-31575D03*
X39212Y-31575D03*
X38897Y-31575D03*
X38582Y-31575D03*
X38267Y-31575D03*
X37952Y-31575D03*
X37638Y-31575D03*
X37323Y-31575D03*
X37008Y-31575D03*
X36693Y-31575D03*
X36378Y-31575D03*
X36063Y-31575D03*
X35748Y-31575D03*
X39842Y-31260D03*
X39527Y-31260D03*
X39212Y-31260D03*
X38897Y-31260D03*
X38582Y-31260D03*
X38267Y-31260D03*
X37952Y-31260D03*
X37638Y-31260D03*
X37323Y-31260D03*
X37008Y-31260D03*
X36693Y-31260D03*
X36378Y-31260D03*
X36063Y-31260D03*
X35748Y-31260D03*
X39842Y-30945D03*
X39527Y-30945D03*
X39212Y-30945D03*
X38897Y-30945D03*
X38582Y-30945D03*
X38267Y-30945D03*
X37952Y-30945D03*
X37638Y-30945D03*
X37323Y-30945D03*
X37008Y-30945D03*
X36693Y-30945D03*
X36378Y-30945D03*
X36063Y-30945D03*
X35748Y-30945D03*
X39842Y-30630D03*
X39527Y-30630D03*
X39212Y-30630D03*
X38897Y-30630D03*
X38582Y-30630D03*
X38267Y-30630D03*
X37952Y-30630D03*
X37638Y-30630D03*
X37323Y-30630D03*
X37008Y-30630D03*
X36693Y-30630D03*
X36378Y-30630D03*
X36063Y-30630D03*
X35748Y-30630D03*
G54D78*
X66594Y-38011D03*
X66594Y-38759D03*
X67500Y-38385D03*
M02*
