G04 (created by PCBNEW-RS274X (2012-05-21 BZR 3261)-stable) date Tue 07 May 2013 04:43:39 PM PDT*
G01*
G70*
G90*
%MOIN*%
G04 Gerber Fmt 3.4, Leading zero omitted, Abs format*
%FSLAX34Y34*%
G04 APERTURE LIST*
%ADD10C,0.006500*%
%ADD11C,0.017700*%
%ADD12C,0.023600*%
%ADD13C,0.118100*%
%ADD14C,0.023000*%
%ADD15C,0.074800*%
%ADD16C,0.039400*%
%ADD17C,0.094000*%
%ADD18C,0.063000*%
%ADD19C,0.057100*%
%ADD20C,0.030000*%
%ADD21C,0.017700*%
%ADD22C,0.007000*%
G04 APERTURE END LIST*
G54D10*
G54D11*
X67321Y-48150D03*
X67321Y-47756D03*
X67518Y-47953D03*
X67715Y-48150D03*
X67715Y-47756D03*
G54D12*
X67245Y-24252D03*
X66851Y-24252D03*
X66457Y-24252D03*
X67245Y-23858D03*
X66851Y-23858D03*
X66457Y-23858D03*
X67245Y-23464D03*
X66851Y-23464D03*
X66457Y-23464D03*
G54D13*
X36890Y-22441D03*
X34528Y-22441D03*
X35709Y-24291D03*
G54D11*
X34783Y-26456D03*
X34429Y-26456D03*
X34606Y-26220D03*
X34783Y-25984D03*
X34429Y-25984D03*
X38619Y-19468D03*
X39013Y-19468D03*
X38816Y-19763D03*
X38619Y-20058D03*
X39013Y-20058D03*
G54D14*
X41181Y-25039D03*
X41378Y-24744D03*
X40984Y-24744D03*
X40984Y-25334D03*
X41378Y-25334D03*
G54D15*
X32067Y-31770D03*
X32067Y-36711D03*
G54D16*
X67282Y-20271D03*
X42994Y-20271D03*
G54D17*
X68654Y-20472D03*
X41622Y-20472D03*
G54D18*
X70197Y-41161D03*
X70197Y-38995D03*
G54D19*
X69027Y-41057D03*
X69027Y-39099D03*
G54D11*
X67008Y-33622D03*
X67913Y-23858D03*
X66614Y-32716D03*
X67047Y-22795D03*
X66220Y-19803D03*
X65000Y-22362D03*
X65000Y-19961D03*
X65354Y-22362D03*
X65354Y-19961D03*
X65945Y-25590D03*
X65945Y-25197D03*
X65827Y-24055D03*
X66850Y-24882D03*
X50394Y-35827D03*
X50354Y-44842D03*
X50354Y-41614D03*
X51575Y-34646D03*
X50394Y-34646D03*
X49882Y-41614D03*
X51772Y-44842D03*
X50787Y-35433D03*
X53150Y-35433D03*
X51772Y-41614D03*
X49409Y-37126D03*
X48701Y-44842D03*
X52362Y-35039D03*
X52244Y-44842D03*
X51968Y-35827D03*
X52480Y-44842D03*
X50590Y-45197D03*
X52756Y-36220D03*
X51575Y-35433D03*
X50590Y-41968D03*
X50787Y-36220D03*
X50827Y-44842D03*
X50827Y-41614D03*
X51575Y-35827D03*
X51299Y-44842D03*
X50787Y-35827D03*
X53150Y-36614D03*
X51535Y-45197D03*
X53150Y-36220D03*
X51299Y-41614D03*
X53543Y-35827D03*
X51535Y-41968D03*
X49646Y-41968D03*
X50000Y-35433D03*
X50394Y-37323D03*
X49882Y-44842D03*
X52244Y-41614D03*
X53937Y-36220D03*
X49606Y-35039D03*
X48937Y-41614D03*
X54331Y-35827D03*
X60039Y-44842D03*
X42795Y-45079D03*
X48425Y-35827D03*
X60275Y-44842D03*
X54331Y-35433D03*
X48031Y-35827D03*
X43031Y-44567D03*
X52953Y-41614D03*
X54724Y-36220D03*
X54724Y-36614D03*
X52953Y-44842D03*
X62638Y-44842D03*
X56693Y-34646D03*
X55118Y-34646D03*
X60748Y-44842D03*
X56260Y-44842D03*
X55512Y-36220D03*
X54370Y-41653D03*
X53150Y-37008D03*
X51575Y-35039D03*
X47047Y-44842D03*
X48425Y-36220D03*
X44921Y-41653D03*
X48819Y-34646D03*
X42323Y-44842D03*
X47638Y-35827D03*
X40433Y-41653D03*
X61535Y-44842D03*
X55905Y-34646D03*
X61142Y-44842D03*
X55118Y-33858D03*
X55905Y-35433D03*
X59646Y-44842D03*
X56693Y-35827D03*
X59252Y-44842D03*
X54331Y-36220D03*
X54527Y-37205D03*
X54527Y-37520D03*
X53937Y-35827D03*
X57283Y-44842D03*
X55512Y-35827D03*
X55118Y-35827D03*
X56890Y-44842D03*
X53543Y-36220D03*
X55866Y-44842D03*
X52756Y-35433D03*
X55472Y-44842D03*
X55118Y-36220D03*
X55157Y-44842D03*
X54764Y-44842D03*
X54724Y-37008D03*
X53150Y-35827D03*
X53740Y-44842D03*
X53346Y-44842D03*
X52362Y-35433D03*
X47835Y-44842D03*
X52362Y-35827D03*
X47441Y-44842D03*
X51968Y-36220D03*
X46653Y-44842D03*
X51575Y-36220D03*
X46260Y-44842D03*
X51968Y-34646D03*
X55512Y-33071D03*
X63425Y-44842D03*
X50000Y-35827D03*
X45945Y-44842D03*
X45551Y-44842D03*
X49606Y-35827D03*
X48819Y-35827D03*
X44527Y-44842D03*
X44134Y-44842D03*
X49212Y-36220D03*
X55905Y-33465D03*
X63031Y-44842D03*
X43819Y-44842D03*
X48819Y-36220D03*
X49212Y-35433D03*
X43425Y-44842D03*
X41929Y-44842D03*
X48425Y-35039D03*
X41535Y-44842D03*
X48031Y-36220D03*
X62244Y-44842D03*
X55905Y-33858D03*
X41220Y-44842D03*
X48425Y-35433D03*
X47638Y-36220D03*
X40827Y-44842D03*
X46850Y-36220D03*
X39803Y-44842D03*
X46457Y-36614D03*
X39409Y-44842D03*
X56299Y-34646D03*
X61850Y-44842D03*
X55512Y-32283D03*
X62165Y-41614D03*
X56299Y-36220D03*
X60039Y-41614D03*
X56260Y-41653D03*
X55905Y-36220D03*
X52756Y-35827D03*
X54134Y-44842D03*
X52362Y-39016D03*
X52362Y-36220D03*
X44921Y-44842D03*
X49606Y-36220D03*
X49212Y-35827D03*
X43307Y-41653D03*
X48031Y-35433D03*
X40197Y-44842D03*
X50000Y-36220D03*
X48937Y-44842D03*
X47244Y-35827D03*
X48228Y-41614D03*
X50787Y-35039D03*
X49646Y-45197D03*
X50394Y-36220D03*
X49409Y-44842D03*
X48701Y-41614D03*
X49212Y-35039D03*
X53543Y-34646D03*
X54331Y-32677D03*
X50000Y-34646D03*
X55118Y-32677D03*
X54331Y-32283D03*
X55118Y-31890D03*
X51575Y-34252D03*
X55118Y-34252D03*
X50000Y-34252D03*
X50787Y-34252D03*
X52756Y-35039D03*
X49212Y-33858D03*
X63583Y-43031D03*
X52362Y-33858D03*
X54724Y-32677D03*
X49606Y-35433D03*
X49409Y-41614D03*
X48031Y-30709D03*
X46457Y-31102D03*
X47638Y-30315D03*
X64173Y-32716D03*
X47244Y-31102D03*
X70236Y-36339D03*
X64016Y-36575D03*
X69212Y-36339D03*
X64685Y-37126D03*
X48031Y-31102D03*
X61378Y-32953D03*
X47638Y-31102D03*
X64724Y-35276D03*
X68307Y-35748D03*
X48425Y-31102D03*
X48425Y-31890D03*
X46850Y-31102D03*
X38425Y-31732D03*
X46457Y-30709D03*
X38110Y-31417D03*
X46850Y-29527D03*
X39370Y-31732D03*
X46850Y-30315D03*
X46457Y-29527D03*
X37480Y-31417D03*
X37165Y-31102D03*
X46457Y-28740D03*
X36535Y-31102D03*
X46850Y-28346D03*
X46457Y-30315D03*
X39055Y-31417D03*
X38425Y-31102D03*
X46850Y-29921D03*
X38110Y-31102D03*
X46457Y-29921D03*
X37480Y-31102D03*
X46457Y-29134D03*
X55905Y-32677D03*
X64882Y-24685D03*
X50787Y-37008D03*
X67126Y-25827D03*
X56693Y-33858D03*
X64882Y-24331D03*
X56299Y-32677D03*
X50787Y-36614D03*
X56299Y-33858D03*
X66575Y-25827D03*
X66378Y-32598D03*
X64567Y-32244D03*
X62795Y-31850D03*
X64212Y-33937D03*
X54331Y-27559D03*
X57992Y-20000D03*
X54331Y-26772D03*
X56811Y-20000D03*
X53937Y-27165D03*
X56614Y-19685D03*
X53543Y-26772D03*
X56417Y-20000D03*
X53150Y-26772D03*
X56220Y-19685D03*
X53543Y-27165D03*
X56024Y-20000D03*
X55512Y-26772D03*
X52756Y-27165D03*
X55630Y-20000D03*
X52362Y-26772D03*
X55433Y-19685D03*
X53937Y-28346D03*
X55236Y-22126D03*
X54331Y-27165D03*
X55236Y-20001D03*
X51968Y-27165D03*
X55039Y-19685D03*
X51968Y-26772D03*
X54842Y-20000D03*
X57795Y-19685D03*
X51575Y-27165D03*
X54449Y-20000D03*
X51181Y-27165D03*
X54252Y-19685D03*
X53543Y-28346D03*
X54055Y-22126D03*
X52756Y-27559D03*
X54055Y-20000D03*
X53858Y-22559D03*
X53150Y-27165D03*
X53858Y-19685D03*
X53937Y-26772D03*
X53858Y-22835D03*
X53661Y-20000D03*
X55118Y-26772D03*
X53937Y-27953D03*
X53268Y-23150D03*
X53268Y-20000D03*
X52362Y-27165D03*
X53071Y-23465D03*
X53937Y-27559D03*
X52362Y-27953D03*
X53071Y-19685D03*
X52362Y-29134D03*
X52874Y-23858D03*
X52874Y-20197D03*
X52756Y-28346D03*
X51968Y-28740D03*
X52283Y-22677D03*
X52677Y-19685D03*
X51575Y-27953D03*
X52283Y-22402D03*
X51968Y-29134D03*
X52677Y-19961D03*
X51968Y-28346D03*
X57598Y-20000D03*
X52283Y-22126D03*
X52362Y-27559D03*
X51575Y-27559D03*
X52283Y-19685D03*
X54724Y-27165D03*
X57401Y-19685D03*
X54724Y-26772D03*
X57205Y-20000D03*
X47953Y-18465D03*
X61338Y-18504D03*
X55827Y-18465D03*
X57441Y-18465D03*
X52362Y-28346D03*
X54331Y-28740D03*
X51575Y-28346D03*
X54331Y-28346D03*
X52756Y-27953D03*
X50354Y-22441D03*
X48425Y-27559D03*
X50000Y-27953D03*
X50118Y-19685D03*
X50394Y-27165D03*
X48937Y-19961D03*
X49212Y-27953D03*
X50394Y-26772D03*
X49212Y-27165D03*
X48740Y-19685D03*
X49212Y-28346D03*
X48543Y-22126D03*
X48543Y-20118D03*
X48425Y-27165D03*
X50000Y-27165D03*
X48031Y-27953D03*
X48149Y-20157D03*
X50000Y-26772D03*
X48425Y-27953D03*
X48150Y-19882D03*
X50354Y-22716D03*
X49606Y-27559D03*
X49606Y-26772D03*
X47559Y-19961D03*
X49606Y-27165D03*
X47559Y-19685D03*
X49212Y-26772D03*
X47362Y-20157D03*
X48819Y-27165D03*
X46968Y-20158D03*
X48819Y-26772D03*
X46968Y-19882D03*
X49921Y-19961D03*
X50000Y-27559D03*
X48031Y-27165D03*
X46378Y-19961D03*
X48031Y-26772D03*
X46378Y-19685D03*
X46181Y-23150D03*
X48425Y-28346D03*
X46181Y-20157D03*
X47638Y-27165D03*
X45984Y-19685D03*
X47638Y-26772D03*
X45787Y-20000D03*
X50787Y-27559D03*
X50354Y-22993D03*
X47244Y-27165D03*
X45394Y-19842D03*
X47244Y-26772D03*
X45394Y-20118D03*
X46850Y-26772D03*
X45394Y-21102D03*
X46850Y-27165D03*
X44606Y-19961D03*
X46457Y-26772D03*
X44606Y-19685D03*
X49724Y-19685D03*
X48425Y-26772D03*
X44409Y-22126D03*
X44291Y-19803D03*
X49527Y-22441D03*
X48031Y-27559D03*
X50787Y-27165D03*
X49527Y-22716D03*
X49212Y-27559D03*
X50787Y-26772D03*
X49212Y-28740D03*
X50000Y-28346D03*
X50787Y-29134D03*
X50787Y-28740D03*
X50000Y-28740D03*
X55905Y-29921D03*
X64685Y-20000D03*
X54724Y-30315D03*
X55905Y-28740D03*
X63504Y-20000D03*
X55118Y-30315D03*
X55512Y-28346D03*
X63307Y-19685D03*
X55512Y-29921D03*
X55905Y-28346D03*
X55118Y-29921D03*
X63110Y-20000D03*
X55512Y-27953D03*
X55118Y-29134D03*
X62913Y-19685D03*
X55905Y-27953D03*
X62716Y-20000D03*
X55512Y-28740D03*
X55512Y-29527D03*
X55512Y-27559D03*
X55118Y-28740D03*
X62323Y-20000D03*
X55905Y-27559D03*
X55118Y-28346D03*
X62126Y-19685D03*
X55512Y-27165D03*
X61929Y-20000D03*
X55118Y-27953D03*
X55905Y-27165D03*
X61732Y-19685D03*
X55118Y-27559D03*
X55905Y-26772D03*
X55118Y-27165D03*
X61535Y-20000D03*
X64488Y-19685D03*
X54724Y-29921D03*
X61142Y-22480D03*
X61142Y-20000D03*
X60945Y-22126D03*
X60945Y-19685D03*
X60748Y-22480D03*
X60748Y-20000D03*
X60551Y-22126D03*
X60551Y-19685D03*
X60354Y-22283D03*
X60354Y-20000D03*
X55905Y-29527D03*
X60157Y-22480D03*
X60157Y-19685D03*
X54724Y-29134D03*
X64291Y-20000D03*
X55512Y-29134D03*
X64094Y-19685D03*
X54724Y-28740D03*
X55905Y-29134D03*
X63898Y-20000D03*
X54724Y-28346D03*
X64370Y-32480D03*
X55118Y-31102D03*
X53937Y-30315D03*
X55512Y-30315D03*
X53937Y-30709D03*
X54331Y-29527D03*
X53543Y-33858D03*
X53937Y-31102D03*
X53543Y-29134D03*
X48819Y-33858D03*
X48819Y-29134D03*
X39055Y-32677D03*
X48031Y-31890D03*
X39370Y-32677D03*
X47244Y-31890D03*
X36535Y-32677D03*
X47244Y-34646D03*
X36535Y-32362D03*
X47638Y-34646D03*
X40945Y-33189D03*
X46850Y-32283D03*
X41417Y-33189D03*
X46457Y-32677D03*
X43819Y-35787D03*
X46850Y-35039D03*
X42677Y-35787D03*
X46457Y-34252D03*
X46457Y-35433D03*
X44645Y-35787D03*
X44646Y-36339D03*
X46850Y-35827D03*
X46457Y-36220D03*
X44842Y-36772D03*
X46457Y-35827D03*
X45000Y-36339D03*
X41181Y-33189D03*
X46850Y-32677D03*
X41614Y-33976D03*
X46850Y-33071D03*
X46457Y-33071D03*
X41850Y-33976D03*
X42087Y-33976D03*
X46850Y-33465D03*
X42283Y-34527D03*
X46457Y-33465D03*
X42992Y-34527D03*
X46850Y-33858D03*
X46457Y-33858D03*
X42520Y-34527D03*
X42953Y-35787D03*
X46457Y-34646D03*
X46850Y-35433D03*
X44369Y-35787D03*
X44094Y-35787D03*
X46457Y-35039D03*
X47638Y-31890D03*
X39055Y-32992D03*
X47244Y-35039D03*
X37480Y-33937D03*
X38740Y-34252D03*
X48031Y-33071D03*
X47638Y-33858D03*
X38110Y-34252D03*
X47638Y-34252D03*
X38110Y-33937D03*
X47244Y-32677D03*
X39055Y-33622D03*
X46850Y-31890D03*
X40709Y-33189D03*
X47244Y-34252D03*
X36850Y-31732D03*
X36535Y-32047D03*
X48031Y-34252D03*
X65039Y-34646D03*
X64882Y-18504D03*
X59606Y-18819D03*
X47244Y-36220D03*
X64567Y-36024D03*
X38858Y-43150D03*
X68111Y-23661D03*
X46850Y-36614D03*
X39252Y-43150D03*
X64961Y-36024D03*
X67914Y-23465D03*
X62520Y-22126D03*
X62520Y-21260D03*
X56693Y-30709D03*
X64882Y-22126D03*
X54331Y-29921D03*
X53937Y-29921D03*
X60157Y-18504D03*
X56693Y-26378D03*
X56693Y-28740D03*
X55118Y-29527D03*
X63701Y-21260D03*
X64882Y-21260D03*
X63701Y-22126D03*
X60157Y-18779D03*
X55512Y-30709D03*
X61338Y-22126D03*
X55118Y-30709D03*
X61338Y-21260D03*
X55827Y-21260D03*
X54646Y-21260D03*
X52756Y-28740D03*
X53150Y-28740D03*
X54646Y-18465D03*
X51968Y-27559D03*
X55827Y-22126D03*
X53464Y-22126D03*
X53543Y-27559D03*
X54724Y-27559D03*
X56299Y-25984D03*
X52362Y-28740D03*
X53543Y-25984D03*
X53464Y-19685D03*
X57008Y-19685D03*
X53464Y-18819D03*
X55827Y-18819D03*
X57008Y-18819D03*
X55827Y-19685D03*
X55118Y-25984D03*
X51968Y-25984D03*
X57008Y-22126D03*
X51575Y-29134D03*
X54646Y-19685D03*
X53464Y-21260D03*
X54646Y-18819D03*
X51575Y-28740D03*
X54646Y-22126D03*
X57008Y-21260D03*
X50394Y-27559D03*
X49134Y-21260D03*
X50394Y-25984D03*
X46772Y-18819D03*
X47953Y-21260D03*
X48819Y-27559D03*
X49134Y-22126D03*
X50787Y-28346D03*
X48819Y-25984D03*
X46063Y-25984D03*
X46772Y-22126D03*
X47953Y-22126D03*
X50000Y-29134D03*
X47953Y-19685D03*
X50394Y-29134D03*
X46772Y-21260D03*
X46772Y-18465D03*
X47953Y-18819D03*
X47244Y-25984D03*
X45590Y-18819D03*
X45590Y-21260D03*
X46772Y-19685D03*
X45590Y-19685D03*
X49134Y-18819D03*
X49134Y-19685D03*
X47638Y-27559D03*
X45590Y-22126D03*
X49606Y-28740D03*
X63701Y-19685D03*
X64882Y-18819D03*
X63701Y-18504D03*
X61338Y-18819D03*
X62520Y-19685D03*
X61338Y-19685D03*
X63701Y-18819D03*
X62520Y-18819D03*
X64882Y-19685D03*
X37913Y-19370D03*
X68346Y-34764D03*
X65748Y-37559D03*
X38661Y-46535D03*
X69331Y-33819D03*
X38622Y-45039D03*
X66378Y-37205D03*
X66496Y-35079D03*
X62519Y-32757D03*
X66496Y-35945D03*
X62519Y-33150D03*
X64527Y-34527D03*
X67087Y-36693D03*
X66693Y-28937D03*
X68386Y-37441D03*
X64016Y-36260D03*
X64488Y-35512D03*
X69567Y-28779D03*
X66102Y-31811D03*
X67835Y-35472D03*
X69567Y-30945D03*
X67598Y-35354D03*
X69567Y-29213D03*
X69567Y-30079D03*
X67953Y-34961D03*
X66693Y-28543D03*
X66693Y-30236D03*
X69212Y-38071D03*
X63701Y-36260D03*
X67559Y-34173D03*
X35551Y-25433D03*
X33779Y-25551D03*
X68346Y-34331D03*
X66417Y-47756D03*
X67008Y-36299D03*
X38661Y-24606D03*
X63976Y-33110D03*
X64961Y-32638D03*
X42126Y-25354D03*
X64764Y-32480D03*
X42126Y-24724D03*
X66693Y-36575D03*
X66181Y-48031D03*
X59488Y-29370D03*
X65787Y-32756D03*
X68189Y-21024D03*
X67520Y-33898D03*
X34409Y-35728D03*
X34409Y-35138D03*
X37165Y-33937D03*
X47244Y-35433D03*
X37165Y-31417D03*
X46457Y-28346D03*
X40158Y-35787D03*
X46063Y-33858D03*
X46850Y-30709D03*
X39055Y-32362D03*
X39370Y-33622D03*
X47244Y-33071D03*
X35079Y-33150D03*
X35079Y-33465D03*
X35079Y-32205D03*
X35079Y-32520D03*
X35197Y-29921D03*
X35472Y-29921D03*
X35905Y-31732D03*
X35905Y-32677D03*
X35905Y-33937D03*
X36220Y-34252D03*
X35590Y-31102D03*
X35905Y-32992D03*
X36535Y-33937D03*
X35669Y-35000D03*
X35905Y-35000D03*
X35905Y-34567D03*
X37165Y-34252D03*
X35590Y-30787D03*
X35433Y-35000D03*
X36378Y-30433D03*
X39055Y-31102D03*
G54D20*
X33740Y-35433D03*
G54D11*
X68622Y-22047D03*
X50315Y-20236D03*
X52756Y-29134D03*
X59961Y-20236D03*
X54724Y-33465D03*
X54606Y-41968D03*
X35590Y-34567D03*
G54D20*
X70433Y-47992D03*
G54D11*
X36220Y-32047D03*
G54D20*
X69921Y-50039D03*
G54D11*
X53937Y-34252D03*
X45157Y-45197D03*
X52362Y-29921D03*
X52362Y-30709D03*
X38110Y-32677D03*
X59803Y-45197D03*
X62520Y-20709D03*
X49606Y-29921D03*
G54D20*
X40147Y-18966D03*
G54D11*
X66063Y-20709D03*
X49606Y-33858D03*
X54331Y-30315D03*
G54D20*
X42165Y-25039D03*
G54D11*
X47638Y-29527D03*
X48819Y-28740D03*
X36220Y-32677D03*
X58819Y-19961D03*
X49212Y-34252D03*
X48819Y-29921D03*
X66850Y-27598D03*
X37913Y-19646D03*
G54D20*
X68622Y-49370D03*
G54D11*
X49173Y-43307D03*
X50787Y-29527D03*
X64724Y-31220D03*
X64331Y-24921D03*
X49606Y-32677D03*
X50000Y-29527D03*
X53543Y-29527D03*
X51575Y-29921D03*
X44212Y-20709D03*
X52756Y-32283D03*
X56299Y-34252D03*
X38425Y-33622D03*
X69527Y-20905D03*
X38110Y-33307D03*
X51575Y-33465D03*
X37480Y-32047D03*
X54606Y-45197D03*
X49134Y-20984D03*
X43622Y-20236D03*
X63110Y-30827D03*
X43268Y-41968D03*
X51968Y-31102D03*
X60512Y-41968D03*
X37480Y-32362D03*
X52756Y-33858D03*
X49134Y-20709D03*
X64094Y-30039D03*
X54331Y-27953D03*
X47244Y-36614D03*
G54D20*
X69291Y-49370D03*
G54D11*
X34646Y-29527D03*
X61338Y-20236D03*
X65669Y-28898D03*
X53898Y-41968D03*
X54331Y-33071D03*
X53150Y-31890D03*
X61338Y-20709D03*
X61259Y-32638D03*
X67598Y-31929D03*
X53464Y-20984D03*
X68327Y-22047D03*
X38425Y-33937D03*
X66693Y-20709D03*
X68425Y-24961D03*
X53150Y-29921D03*
X54646Y-20709D03*
G54D20*
X33110Y-33779D03*
X36811Y-27047D03*
G54D11*
X53543Y-31102D03*
X52756Y-33071D03*
X37480Y-32992D03*
X38425Y-32362D03*
X37500Y-36968D03*
X35079Y-31890D03*
X51968Y-35039D03*
X56024Y-41968D03*
X66851Y-23858D03*
X36378Y-30118D03*
X54331Y-31102D03*
X55315Y-45197D03*
X51968Y-32283D03*
X57441Y-41968D03*
X55827Y-20984D03*
G54D20*
X39842Y-18661D03*
X69921Y-49370D03*
G54D11*
X52716Y-43307D03*
X64370Y-30039D03*
X66850Y-37441D03*
X47953Y-20709D03*
X54331Y-30709D03*
X50315Y-19961D03*
X68425Y-23346D03*
X54724Y-32283D03*
X35079Y-32835D03*
X48819Y-27953D03*
X46457Y-27165D03*
X38425Y-33307D03*
X44685Y-41968D03*
X58189Y-20236D03*
G54D20*
X38307Y-26063D03*
X70433Y-47008D03*
G54D11*
X50394Y-26378D03*
X36220Y-33307D03*
X59331Y-19961D03*
X63779Y-25827D03*
X50000Y-31102D03*
X47244Y-26378D03*
X66850Y-25197D03*
X57441Y-45197D03*
X60157Y-29724D03*
X47638Y-27953D03*
X47992Y-45197D03*
X48425Y-33465D03*
X53937Y-28740D03*
X47953Y-20984D03*
X56299Y-30709D03*
X43976Y-41968D03*
G54D20*
X69291Y-50039D03*
G54D11*
X49212Y-29527D03*
X48464Y-46575D03*
X39055Y-33937D03*
G54D20*
X69961Y-47008D03*
G54D11*
X36535Y-31732D03*
X48425Y-29921D03*
X50394Y-25590D03*
X50000Y-33071D03*
X39252Y-45197D03*
X62520Y-20236D03*
X56299Y-28740D03*
X48819Y-26378D03*
X58937Y-30000D03*
X51063Y-43307D03*
X62638Y-41968D03*
X56732Y-41968D03*
X56299Y-32283D03*
X47638Y-30709D03*
X60669Y-30354D03*
X62559Y-33661D03*
X63110Y-35748D03*
X52756Y-31102D03*
X63346Y-41968D03*
X56496Y-41968D03*
X52756Y-30315D03*
X51063Y-46575D03*
X64172Y-34626D03*
X35039Y-28937D03*
X46063Y-28740D03*
X34291Y-32657D03*
X50118Y-46575D03*
X36850Y-31102D03*
G54D20*
X33307Y-37638D03*
G54D11*
X48425Y-34252D03*
G54D20*
X39409Y-20394D03*
G54D11*
X70315Y-33465D03*
X48819Y-34252D03*
X52716Y-46575D03*
X37500Y-37205D03*
G54D20*
X33307Y-38425D03*
G54D11*
X63583Y-43346D03*
X35551Y-33937D03*
X38425Y-34252D03*
X51457Y-20709D03*
X41378Y-45197D03*
X48819Y-31890D03*
X59527Y-31535D03*
X35079Y-33779D03*
X40020Y-34587D03*
X53543Y-30315D03*
X46378Y-18465D03*
G54D20*
X36024Y-26772D03*
G54D11*
X50394Y-35039D03*
X59094Y-45197D03*
X38816Y-19763D03*
X64882Y-20709D03*
X67518Y-47953D03*
X51575Y-32677D03*
G54D20*
X39842Y-20630D03*
G54D11*
X68898Y-22047D03*
X42795Y-41968D03*
X69173Y-22047D03*
X38819Y-30079D03*
X37795Y-20630D03*
X46811Y-45197D03*
X35905Y-30787D03*
X56299Y-26378D03*
X52008Y-46575D03*
X55118Y-36614D03*
X61220Y-41968D03*
X53543Y-35039D03*
X40118Y-26772D03*
X58189Y-20984D03*
X47283Y-45197D03*
X58819Y-20236D03*
X65669Y-31220D03*
X53543Y-28740D03*
X40197Y-41968D03*
X66693Y-20236D03*
X63110Y-34094D03*
X52362Y-32677D03*
X37165Y-32992D03*
X65650Y-33740D03*
X46063Y-34252D03*
X56693Y-36220D03*
X37165Y-34567D03*
X59803Y-41968D03*
X59331Y-20236D03*
X39370Y-32047D03*
X66457Y-22520D03*
X53543Y-29921D03*
X39370Y-33937D03*
X40394Y-31614D03*
X49606Y-31890D03*
G54D20*
X70433Y-47520D03*
G54D11*
X70000Y-20512D03*
X59331Y-20984D03*
X42087Y-45197D03*
X46575Y-41968D03*
X61929Y-41968D03*
X53464Y-20709D03*
X37165Y-32362D03*
X53150Y-27953D03*
X49606Y-33465D03*
X68583Y-29646D03*
X33484Y-32657D03*
X47638Y-32283D03*
X53464Y-20236D03*
X37165Y-32047D03*
X53189Y-41968D03*
X38740Y-31102D03*
G54D20*
X38307Y-26496D03*
G54D11*
X38740Y-31417D03*
X38110Y-32047D03*
X59094Y-41968D03*
X43346Y-20472D03*
X61693Y-45197D03*
X45669Y-26772D03*
G54D20*
X40748Y-27087D03*
G54D11*
X40669Y-41968D03*
X39370Y-33307D03*
X50945Y-19961D03*
X49173Y-46575D03*
X58937Y-30315D03*
X68583Y-30079D03*
G54D20*
X33110Y-34134D03*
G54D11*
X59961Y-20709D03*
X48425Y-28740D03*
X61535Y-35276D03*
X43268Y-45197D03*
X52087Y-20709D03*
X56732Y-45197D03*
X40354Y-33386D03*
X64724Y-26968D03*
X46772Y-20984D03*
G54D20*
X69961Y-47992D03*
G54D11*
X46102Y-45197D03*
X60984Y-45197D03*
X38976Y-23898D03*
X70000Y-24252D03*
X64724Y-28898D03*
X62401Y-41968D03*
G54D20*
X67047Y-41299D03*
G54D11*
X49606Y-30709D03*
X58346Y-18504D03*
X64016Y-36890D03*
X43976Y-45197D03*
X38425Y-32677D03*
X54370Y-45197D03*
X34606Y-26220D03*
X49212Y-31102D03*
X57008Y-20236D03*
X39370Y-23898D03*
X36220Y-31417D03*
X39488Y-41968D03*
X61810Y-32638D03*
X69449Y-22047D03*
X35905Y-34252D03*
X40433Y-45197D03*
X45590Y-36772D03*
X54724Y-31102D03*
X51968Y-29527D03*
X50394Y-30709D03*
X35905Y-33622D03*
X51457Y-20236D03*
X54646Y-20984D03*
X50315Y-20709D03*
X50945Y-20236D03*
X50394Y-29921D03*
X52362Y-31890D03*
X37165Y-33307D03*
X69567Y-27382D03*
X53937Y-29527D03*
X53150Y-32677D03*
X36220Y-33937D03*
X65827Y-24449D03*
X46772Y-20709D03*
X51575Y-30709D03*
X36850Y-34567D03*
X62401Y-45197D03*
G54D20*
X67047Y-42087D03*
G54D11*
X35905Y-32047D03*
X51457Y-20984D03*
X43622Y-20709D03*
X60275Y-41968D03*
X59331Y-20709D03*
X65866Y-47362D03*
X50394Y-29527D03*
X56693Y-26772D03*
X44212Y-20984D03*
X62992Y-18150D03*
X51457Y-19961D03*
X56299Y-36614D03*
X52087Y-19961D03*
X36220Y-32992D03*
X63543Y-30039D03*
X45157Y-41968D03*
X47638Y-35039D03*
X54724Y-35039D03*
X38425Y-32047D03*
X48819Y-35039D03*
X52756Y-29527D03*
X51968Y-33465D03*
X53543Y-32283D03*
X53150Y-30709D03*
X53150Y-33465D03*
X70236Y-38071D03*
X69567Y-30512D03*
X50394Y-36614D03*
X45512Y-28150D03*
X49212Y-30315D03*
X32756Y-32657D03*
X66063Y-20236D03*
X36220Y-32362D03*
X47283Y-41968D03*
X52087Y-20236D03*
X40669Y-45197D03*
X64055Y-25197D03*
X60669Y-30590D03*
X37500Y-36732D03*
X51968Y-36614D03*
X50394Y-31890D03*
X58937Y-30630D03*
X48819Y-36614D03*
X53543Y-34252D03*
X50000Y-30315D03*
X50787Y-31102D03*
X44685Y-45197D03*
X52756Y-34646D03*
X48464Y-43307D03*
X37480Y-33307D03*
X45590Y-20709D03*
X43622Y-20984D03*
X63819Y-30039D03*
X48819Y-32677D03*
X58937Y-30905D03*
X55827Y-20236D03*
X67008Y-27835D03*
X50394Y-32677D03*
X51968Y-26378D03*
X45590Y-36024D03*
G54D20*
X40748Y-22992D03*
G54D11*
X53543Y-26378D03*
X68976Y-24882D03*
X36378Y-29764D03*
X50118Y-43307D03*
X55118Y-26378D03*
X53543Y-36614D03*
X41378Y-41968D03*
X37008Y-35276D03*
X58189Y-20709D03*
X38543Y-35276D03*
X45866Y-41968D03*
X55827Y-20709D03*
G54D20*
X37874Y-26496D03*
G54D11*
X57008Y-20709D03*
X49606Y-29134D03*
X47047Y-41968D03*
X52362Y-33465D03*
X50787Y-33071D03*
X42559Y-41968D03*
X39961Y-45197D03*
X35275Y-28937D03*
X49212Y-29134D03*
X47638Y-33465D03*
X51575Y-29527D03*
X38110Y-32362D03*
X49134Y-20236D03*
X59527Y-31929D03*
X65669Y-29134D03*
X50945Y-20709D03*
X51968Y-33071D03*
X53189Y-45197D03*
X53543Y-27953D03*
X62874Y-45197D03*
X42087Y-41968D03*
X65827Y-23110D03*
X46457Y-31890D03*
G54D20*
X41181Y-27087D03*
G54D11*
X50000Y-33858D03*
X50787Y-32283D03*
X48819Y-30709D03*
X50000Y-26378D03*
X54724Y-29527D03*
G54D20*
X69961Y-47520D03*
X33110Y-34488D03*
G54D11*
X37165Y-30787D03*
X60512Y-45197D03*
X64882Y-20236D03*
X54724Y-30709D03*
X52008Y-43307D03*
X67401Y-24980D03*
X49212Y-33071D03*
X45394Y-45197D03*
X40157Y-20315D03*
X58819Y-20709D03*
X54646Y-20236D03*
X54724Y-34252D03*
X50394Y-33465D03*
X58819Y-20984D03*
X51968Y-30315D03*
X50945Y-20984D03*
X63701Y-20709D03*
X44212Y-20236D03*
X52087Y-20984D03*
X49212Y-32283D03*
X51968Y-27953D03*
X59764Y-18465D03*
X54252Y-18465D03*
X54724Y-33071D03*
X46063Y-29134D03*
X63583Y-45197D03*
X50394Y-27953D03*
X65669Y-30984D03*
X56024Y-45197D03*
X42559Y-45197D03*
X69567Y-31850D03*
X50787Y-30315D03*
X64646Y-30039D03*
X46063Y-26378D03*
G54D20*
X41181Y-22992D03*
G54D11*
X50000Y-32283D03*
G54D20*
X68622Y-50039D03*
G54D11*
X51575Y-31890D03*
X46063Y-30709D03*
X63701Y-20236D03*
X46063Y-36614D03*
G54D20*
X37874Y-26063D03*
G54D11*
X57008Y-20984D03*
X55315Y-41968D03*
X68307Y-39960D03*
X66102Y-40354D03*
X47992Y-41968D03*
G54D20*
X68464Y-39331D03*
G54D11*
X54724Y-27953D03*
X53543Y-32677D03*
X35905Y-31102D03*
X53898Y-45197D03*
X70315Y-33938D03*
X38740Y-31732D03*
X54724Y-34646D03*
X54331Y-34252D03*
X52362Y-34252D03*
X52362Y-34646D03*
X48031Y-35039D03*
X37520Y-37598D03*
X53150Y-27559D03*
X53150Y-28346D03*
X69567Y-31378D03*
X69567Y-28346D03*
X38740Y-30787D03*
G54D20*
X41929Y-27087D03*
G54D11*
X40039Y-33386D03*
X36220Y-31732D03*
X36220Y-33622D03*
X39685Y-32047D03*
X36850Y-30787D03*
X36850Y-34252D03*
X39055Y-34252D03*
X37008Y-34961D03*
G54D20*
X42362Y-27087D03*
G54D11*
X38819Y-30394D03*
G54D20*
X42795Y-27087D03*
G54D11*
X39685Y-33307D03*
X37126Y-30472D03*
X38425Y-34567D03*
X36102Y-29921D03*
X35827Y-29921D03*
X40079Y-31614D03*
X39803Y-25433D03*
X38543Y-34961D03*
X49212Y-32677D03*
X49606Y-33071D03*
X50394Y-31102D03*
X48819Y-29527D03*
X50000Y-30709D03*
X50787Y-32677D03*
X50787Y-33465D03*
X53150Y-31102D03*
X52756Y-33465D03*
X40157Y-23898D03*
X50000Y-33465D03*
X52756Y-31890D03*
X50394Y-33071D03*
X52756Y-29921D03*
X52362Y-31102D03*
X50394Y-32283D03*
X51575Y-30315D03*
X51575Y-31102D03*
X49606Y-32283D03*
X53150Y-32283D03*
X49606Y-30315D03*
X49212Y-29921D03*
X52362Y-29527D03*
G54D20*
X42795Y-22992D03*
G54D11*
X51575Y-33071D03*
X50394Y-30315D03*
X49212Y-30709D03*
X49212Y-31890D03*
X51968Y-32677D03*
X50000Y-29921D03*
X51968Y-30709D03*
X53150Y-29527D03*
X52756Y-32677D03*
X51575Y-32283D03*
G54D20*
X42362Y-22992D03*
G54D11*
X53543Y-30709D03*
X49606Y-29527D03*
X52756Y-30709D03*
X53543Y-31890D03*
X52362Y-32283D03*
G54D20*
X41929Y-22992D03*
G54D11*
X52362Y-30315D03*
X50787Y-30709D03*
X52362Y-33071D03*
X53150Y-30315D03*
X50787Y-29921D03*
X53543Y-31496D03*
X49606Y-31102D03*
X50000Y-31890D03*
X51968Y-29921D03*
X48819Y-31102D03*
X50787Y-31890D03*
X50000Y-32677D03*
X51968Y-31890D03*
X53150Y-33071D03*
X48819Y-35433D03*
X45669Y-28740D03*
X38740Y-33307D03*
X50118Y-46260D03*
G54D20*
X54016Y-43110D03*
G54D11*
X51575Y-33858D03*
G54D20*
X70433Y-44173D03*
G54D11*
X48464Y-46260D03*
G54D20*
X69961Y-44173D03*
G54D11*
X39055Y-31732D03*
X69409Y-45709D03*
X56299Y-37008D03*
X51968Y-35433D03*
X47244Y-29527D03*
X53543Y-37008D03*
X49606Y-34252D03*
X49212Y-34646D03*
G54D20*
X69961Y-44646D03*
X56614Y-43110D03*
X44685Y-43110D03*
X49646Y-43110D03*
X62638Y-43110D03*
X55433Y-43110D03*
X51653Y-46417D03*
X47047Y-46417D03*
G54D11*
X45669Y-26378D03*
G54D20*
X45748Y-46417D03*
X42913Y-46417D03*
X69961Y-43701D03*
G54D11*
X56693Y-34252D03*
X46063Y-37008D03*
X47244Y-37008D03*
G54D20*
X41338Y-43110D03*
X44331Y-46417D03*
G54D11*
X49173Y-46260D03*
X47244Y-32283D03*
G54D20*
X50590Y-46417D03*
G54D11*
X69291Y-48504D03*
X55118Y-33465D03*
G54D20*
X49527Y-46417D03*
G54D11*
X48819Y-37008D03*
X49606Y-34646D03*
X61259Y-33268D03*
X51968Y-33858D03*
X50394Y-37008D03*
X48425Y-29527D03*
X53543Y-35433D03*
X52716Y-42992D03*
G54D20*
X43268Y-43110D03*
G54D11*
X54331Y-34646D03*
G54D20*
X47165Y-43110D03*
G54D11*
X47244Y-33465D03*
X50118Y-42992D03*
X38740Y-32677D03*
G54D20*
X45866Y-43110D03*
G54D11*
X51063Y-46260D03*
X49173Y-42992D03*
G54D20*
X70433Y-43228D03*
G54D11*
X38740Y-33937D03*
X38740Y-32362D03*
X56693Y-36614D03*
X54724Y-35433D03*
X53937Y-32677D03*
G54D20*
X61929Y-43110D03*
X70433Y-43701D03*
X40551Y-46417D03*
G54D11*
X39370Y-31102D03*
X51968Y-37008D03*
X47638Y-35433D03*
G54D20*
X60512Y-43110D03*
G54D11*
X38740Y-33622D03*
G54D20*
X59842Y-43110D03*
X59803Y-46417D03*
X60748Y-46417D03*
X63583Y-46417D03*
X69961Y-43228D03*
G54D11*
X37146Y-36732D03*
G54D20*
X61693Y-46417D03*
G54D11*
X38110Y-31732D03*
X52756Y-34252D03*
G54D20*
X62638Y-46417D03*
G54D11*
X38110Y-33622D03*
X56693Y-32283D03*
G54D20*
X54488Y-46417D03*
X58307Y-46417D03*
G54D11*
X52716Y-46260D03*
X39685Y-34567D03*
G54D20*
X41732Y-46417D03*
G54D11*
X37480Y-33622D03*
X37165Y-33622D03*
G54D20*
X56732Y-46417D03*
X55669Y-46417D03*
X53543Y-46417D03*
G54D11*
X45669Y-30709D03*
X55118Y-33071D03*
G54D20*
X47874Y-46417D03*
G54D11*
X45590Y-32087D03*
X37480Y-31732D03*
X45669Y-34252D03*
X53937Y-32283D03*
X37146Y-37205D03*
X45590Y-36457D03*
X37146Y-36968D03*
X64055Y-25512D03*
X38425Y-31417D03*
X52008Y-46260D03*
X48031Y-33465D03*
X51968Y-34252D03*
X55118Y-32283D03*
X39370Y-34252D03*
X48464Y-42992D03*
X50394Y-35433D03*
X52008Y-42992D03*
X47244Y-30709D03*
X51063Y-42992D03*
G54D20*
X70433Y-44646D03*
G54D11*
X55118Y-37008D03*
X37165Y-31732D03*
X53937Y-33858D03*
X48425Y-29134D03*
X53937Y-29134D03*
X48425Y-33858D03*
X57953Y-31457D03*
X57953Y-31890D03*
X58425Y-30630D03*
X57953Y-31142D03*
X69567Y-23071D03*
X67598Y-25354D03*
X67401Y-24626D03*
X66457Y-22835D03*
X68464Y-25354D03*
X65827Y-23465D03*
X68898Y-22441D03*
X68898Y-22716D03*
X48740Y-18740D03*
X67008Y-29646D03*
X62205Y-18779D03*
X65157Y-31811D03*
X69055Y-33976D03*
X63425Y-32441D03*
X38779Y-41968D03*
X66496Y-38386D03*
X61810Y-33268D03*
X64173Y-35216D03*
X67716Y-35984D03*
X64094Y-30709D03*
X68583Y-29213D03*
X68583Y-28346D03*
G54D20*
X65354Y-27402D03*
G54D11*
X64094Y-31575D03*
X65472Y-21260D03*
X67835Y-27598D03*
X65669Y-30512D03*
X68583Y-31378D03*
G54D20*
X65354Y-26968D03*
G54D11*
X68740Y-27598D03*
X34449Y-28622D03*
G54D20*
X65354Y-27835D03*
G54D11*
X58346Y-18976D03*
X64094Y-30433D03*
X64764Y-30512D03*
X63386Y-31181D03*
X69724Y-38071D03*
X56693Y-18740D03*
X63386Y-31575D03*
X65669Y-30276D03*
X68583Y-28779D03*
X65059Y-33740D03*
X68583Y-30945D03*
X69567Y-29646D03*
X34370Y-18425D03*
X35866Y-18425D03*
G54D20*
X32480Y-53543D03*
X33661Y-48425D03*
X32480Y-48819D03*
X33268Y-48819D03*
X32874Y-48425D03*
X66417Y-48701D03*
X32087Y-48425D03*
X38307Y-25157D03*
X66220Y-18661D03*
G54D11*
X64764Y-29606D03*
G54D20*
X66417Y-50039D03*
X33661Y-53150D03*
X32874Y-53150D03*
X32087Y-53150D03*
X33268Y-51968D03*
X33268Y-53543D03*
X33661Y-51575D03*
X32480Y-51968D03*
X32874Y-51575D03*
X33661Y-50000D03*
X32480Y-50394D03*
X33268Y-50394D03*
X32874Y-50000D03*
X32087Y-50000D03*
X32480Y-49606D03*
X33268Y-49606D03*
X33661Y-49213D03*
X32874Y-49213D03*
X32087Y-49213D03*
X66417Y-49370D03*
X32087Y-50787D03*
X32087Y-51575D03*
X33661Y-50787D03*
X32874Y-50787D03*
X33268Y-51181D03*
X32087Y-52362D03*
X67244Y-18661D03*
X40079Y-19646D03*
G54D11*
X60669Y-31063D03*
G54D20*
X65748Y-50039D03*
X66732Y-18661D03*
X32874Y-52362D03*
X32480Y-52756D03*
X33268Y-52756D03*
X33661Y-52362D03*
X65748Y-50709D03*
G54D11*
X65669Y-29606D03*
G54D20*
X37874Y-25590D03*
X66417Y-50709D03*
G54D11*
X69272Y-21102D03*
X69567Y-21535D03*
G54D20*
X65748Y-49370D03*
X38307Y-25590D03*
G54D11*
X65669Y-29842D03*
G54D20*
X67756Y-18661D03*
X37874Y-25157D03*
G54D11*
X60669Y-31299D03*
X39764Y-19646D03*
G54D20*
X32480Y-51181D03*
X33071Y-25945D03*
X33071Y-26732D03*
G54D11*
X33071Y-29803D03*
G54D20*
X32913Y-26339D03*
X40512Y-20000D03*
X34409Y-37874D03*
X40157Y-20000D03*
X33898Y-37874D03*
X33898Y-38386D03*
X34409Y-38386D03*
G54D10*
X47047Y-44842D02*
X48228Y-43661D01*
X51772Y-38229D02*
X51772Y-35236D01*
X48464Y-41537D02*
X51772Y-38229D01*
X48464Y-41772D02*
X48464Y-41537D01*
X48228Y-42008D02*
X48464Y-41772D01*
X48228Y-43661D02*
X48228Y-42008D01*
X51575Y-35039D02*
X51772Y-35236D01*
X40669Y-41417D02*
X41968Y-41417D01*
X40433Y-41653D02*
X40669Y-41417D01*
X47047Y-36142D02*
X47047Y-37008D01*
X47166Y-36023D02*
X47047Y-36142D01*
X47323Y-36023D02*
X47166Y-36023D01*
X45944Y-37441D02*
X46614Y-37441D01*
X41968Y-41417D02*
X45944Y-37441D01*
X47638Y-35827D02*
X47519Y-35827D01*
X46614Y-37441D02*
X47047Y-37008D01*
X47519Y-35827D02*
X47323Y-36023D01*
X59646Y-44842D02*
X59567Y-44763D01*
X59567Y-44763D02*
X59567Y-38385D01*
X59567Y-38385D02*
X56615Y-35433D01*
X56615Y-35433D02*
X55905Y-35433D01*
X59252Y-44842D02*
X59331Y-44763D01*
X59331Y-38465D02*
X56693Y-35827D01*
X59331Y-44763D02*
X59331Y-38465D01*
X54527Y-36417D02*
X54527Y-37205D01*
X54331Y-36220D02*
X54331Y-36221D01*
X54331Y-36221D02*
X54527Y-36417D01*
X53937Y-35827D02*
X54134Y-36024D01*
X54134Y-36024D02*
X54134Y-37126D01*
X54527Y-37519D02*
X54134Y-37126D01*
X54527Y-37520D02*
X54527Y-37519D01*
X55709Y-36024D02*
X55709Y-40316D01*
X55709Y-40316D02*
X57205Y-41812D01*
X57205Y-44764D02*
X57205Y-41812D01*
X57283Y-44842D02*
X57205Y-44764D01*
X55512Y-35827D02*
X55709Y-36024D01*
X55315Y-40236D02*
X56968Y-41889D01*
X55315Y-36024D02*
X55315Y-40236D01*
X56890Y-44842D02*
X56968Y-44764D01*
X55118Y-35827D02*
X55315Y-36024D01*
X56968Y-44764D02*
X56968Y-41889D01*
X54921Y-37638D02*
X55079Y-37796D01*
X55157Y-44842D02*
X55079Y-44764D01*
X55118Y-36220D02*
X54921Y-36417D01*
X55079Y-44764D02*
X55079Y-37796D01*
X54921Y-36417D02*
X54921Y-37638D01*
X54803Y-38425D02*
X54606Y-38425D01*
X54842Y-38386D02*
X54842Y-38307D01*
X54685Y-37795D02*
X54606Y-37795D01*
X54724Y-37008D02*
X54724Y-37756D01*
X54606Y-38582D02*
X54802Y-38582D01*
X54842Y-38071D02*
X54842Y-37992D01*
X54764Y-44842D02*
X54842Y-44764D01*
X54606Y-37953D02*
X54803Y-37953D01*
X54567Y-37834D02*
X54567Y-37914D01*
X54842Y-38386D02*
X54803Y-38425D01*
X54567Y-38464D02*
X54567Y-38543D01*
X54606Y-37795D02*
X54567Y-37834D01*
X54567Y-38543D02*
X54606Y-38582D01*
X54802Y-38582D02*
X54842Y-38622D01*
X54724Y-37756D02*
X54685Y-37795D01*
X54567Y-37914D02*
X54606Y-37953D01*
X54606Y-38425D02*
X54567Y-38464D01*
X54606Y-38267D02*
X54802Y-38267D01*
X54567Y-38228D02*
X54606Y-38267D01*
X54842Y-38071D02*
X54803Y-38110D01*
X54606Y-38110D02*
X54567Y-38149D01*
X54803Y-37953D02*
X54842Y-37992D01*
X54802Y-38267D02*
X54842Y-38307D01*
X54567Y-38149D02*
X54567Y-38228D01*
X54803Y-38110D02*
X54606Y-38110D01*
X54842Y-44764D02*
X54842Y-38622D01*
X53346Y-41377D02*
X53661Y-41692D01*
X53150Y-35827D02*
X53150Y-35828D01*
X53150Y-35828D02*
X53346Y-36024D01*
X53661Y-44763D02*
X53661Y-41692D01*
X53740Y-44842D02*
X53661Y-44763D01*
X53346Y-36024D02*
X53346Y-41377D01*
X52559Y-35630D02*
X52362Y-35433D01*
X53425Y-44763D02*
X53425Y-41772D01*
X52953Y-35748D02*
X52953Y-41300D01*
X53346Y-44842D02*
X53425Y-44763D01*
X52559Y-35630D02*
X52835Y-35630D01*
X52953Y-41300D02*
X53425Y-41772D01*
X52835Y-35630D02*
X52953Y-35748D01*
X47835Y-44842D02*
X48937Y-43740D01*
X52559Y-36024D02*
X52559Y-38542D01*
X48937Y-42402D02*
X49646Y-41693D01*
X49646Y-41693D02*
X49646Y-41455D01*
X49646Y-41455D02*
X52559Y-38542D01*
X52362Y-35827D02*
X52559Y-36024D01*
X48937Y-43740D02*
X48937Y-42402D01*
X52205Y-38504D02*
X52205Y-36457D01*
X51968Y-36220D02*
X52205Y-36457D01*
X47441Y-44842D02*
X48701Y-43582D01*
X49173Y-41811D02*
X49173Y-41536D01*
X49173Y-41536D02*
X52205Y-38504D01*
X48701Y-43582D02*
X48701Y-42283D01*
X48701Y-42283D02*
X49173Y-41811D01*
X46653Y-44842D02*
X47756Y-43739D01*
X51575Y-37953D02*
X51575Y-36220D01*
X47756Y-43739D02*
X47756Y-41772D01*
X47756Y-41772D02*
X51575Y-37953D01*
X46260Y-44842D02*
X47520Y-43582D01*
X51378Y-37834D02*
X51378Y-34960D01*
X51496Y-34842D02*
X51378Y-34960D01*
X47520Y-41692D02*
X51378Y-37834D01*
X51772Y-34842D02*
X51496Y-34842D01*
X47520Y-43582D02*
X47520Y-41692D01*
X51968Y-34646D02*
X51772Y-34842D01*
X46811Y-41929D02*
X50197Y-38543D01*
X50197Y-38543D02*
X50197Y-36024D01*
X50000Y-35827D02*
X50197Y-36024D01*
X45945Y-44842D02*
X46811Y-43976D01*
X46811Y-43976D02*
X46811Y-41929D01*
X49803Y-36299D02*
X49803Y-36024D01*
X49606Y-35827D02*
X49803Y-36024D01*
X50000Y-38267D02*
X50000Y-36496D01*
X49803Y-36299D02*
X50000Y-36496D01*
X45551Y-44842D02*
X46338Y-44055D01*
X46338Y-44055D02*
X46338Y-41929D01*
X46338Y-41929D02*
X50000Y-38267D01*
X49292Y-36024D02*
X49409Y-36141D01*
X49409Y-36811D02*
X49409Y-36141D01*
X48819Y-35827D02*
X49016Y-36024D01*
X49409Y-36811D02*
X49606Y-37008D01*
X49016Y-36024D02*
X49292Y-36024D01*
X49606Y-37953D02*
X49606Y-37008D01*
X44527Y-44842D02*
X45590Y-43779D01*
X45590Y-41969D02*
X49606Y-37953D01*
X45590Y-43779D02*
X45590Y-41969D01*
X45394Y-43582D02*
X45394Y-41850D01*
X49212Y-38032D02*
X49212Y-36220D01*
X45394Y-41850D02*
X49212Y-38032D01*
X44134Y-44842D02*
X45394Y-43582D01*
X44921Y-41930D02*
X49016Y-37835D01*
X49016Y-37835D02*
X49016Y-36417D01*
X44921Y-43740D02*
X44921Y-41930D01*
X48819Y-36220D02*
X49016Y-36417D01*
X43819Y-44842D02*
X44921Y-43740D01*
X48622Y-37677D02*
X48622Y-35748D01*
X48740Y-35630D02*
X48622Y-35748D01*
X49212Y-35433D02*
X49212Y-35434D01*
X44449Y-43818D02*
X44449Y-41850D01*
X43425Y-44842D02*
X44449Y-43818D01*
X49212Y-35434D02*
X49016Y-35630D01*
X49016Y-35630D02*
X48740Y-35630D01*
X44449Y-41850D02*
X48622Y-37677D01*
X48505Y-35630D02*
X48622Y-35513D01*
X44212Y-41772D02*
X48228Y-37756D01*
X41929Y-44842D02*
X44212Y-42559D01*
X48622Y-35236D02*
X48425Y-35039D01*
X48228Y-37756D02*
X48228Y-35748D01*
X44212Y-42559D02*
X44212Y-41772D01*
X48346Y-35630D02*
X48228Y-35748D01*
X48505Y-35630D02*
X48346Y-35630D01*
X48622Y-35513D02*
X48622Y-35236D01*
X43740Y-41929D02*
X48031Y-37638D01*
X43031Y-43346D02*
X43031Y-42953D01*
X43740Y-42244D02*
X43740Y-41929D01*
X43031Y-42953D02*
X43740Y-42244D01*
X48031Y-37638D02*
X48031Y-36220D01*
X41535Y-44842D02*
X43031Y-43346D01*
X48228Y-35236D02*
X47953Y-35236D01*
X41220Y-44842D02*
X42795Y-43267D01*
X47835Y-37519D02*
X47835Y-35354D01*
X43504Y-41850D02*
X47835Y-37519D01*
X43504Y-42126D02*
X43504Y-41850D01*
X42795Y-42835D02*
X43504Y-42126D01*
X42795Y-43267D02*
X42795Y-42835D01*
X47953Y-35236D02*
X47835Y-35354D01*
X48425Y-35433D02*
X48228Y-35236D01*
X42559Y-43110D02*
X42559Y-42755D01*
X43031Y-42283D02*
X43031Y-41614D01*
X40827Y-44842D02*
X42559Y-43110D01*
X43031Y-41614D02*
X47638Y-37007D01*
X47638Y-37007D02*
X47638Y-36220D01*
X42559Y-42755D02*
X43031Y-42283D01*
X41850Y-41220D02*
X45826Y-37244D01*
X40552Y-41220D02*
X41850Y-41220D01*
X46653Y-36417D02*
X46850Y-36220D01*
X39961Y-41811D02*
X40552Y-41220D01*
X45826Y-37244D02*
X46220Y-37244D01*
X39961Y-44684D02*
X39961Y-41811D01*
X46653Y-36811D02*
X46653Y-36417D01*
X46653Y-36811D02*
X46220Y-37244D01*
X39803Y-44842D02*
X39961Y-44684D01*
X46260Y-36811D02*
X45945Y-36811D01*
X39724Y-41732D02*
X40432Y-41024D01*
X45945Y-36811D02*
X41732Y-41024D01*
X46457Y-36614D02*
X46260Y-36811D01*
X40432Y-41024D02*
X41732Y-41024D01*
X39409Y-44842D02*
X39724Y-44527D01*
X39724Y-44527D02*
X39724Y-41732D01*
X49606Y-36614D02*
X49606Y-36220D01*
X44921Y-44842D02*
X46142Y-43621D01*
X49803Y-38150D02*
X49803Y-36811D01*
X49803Y-36811D02*
X49606Y-36614D01*
X46142Y-43621D02*
X46142Y-41811D01*
X46142Y-41811D02*
X49803Y-38150D01*
G54D21*
X63583Y-43031D02*
X63583Y-41772D01*
X56850Y-35039D02*
X55905Y-35039D01*
X63583Y-41772D02*
X56850Y-35039D01*
X55905Y-35039D02*
X55118Y-34252D01*
G54D10*
X58385Y-30905D02*
X58700Y-31220D01*
X47638Y-30315D02*
X47835Y-30512D01*
X54646Y-30905D02*
X58385Y-30905D01*
X59921Y-31220D02*
X60354Y-31653D01*
X54409Y-30512D02*
X54527Y-30630D01*
X63110Y-31653D02*
X64173Y-32716D01*
X54527Y-30786D02*
X54646Y-30905D01*
X58700Y-31220D02*
X59921Y-31220D01*
X54527Y-30630D02*
X54527Y-30786D01*
X47835Y-30512D02*
X54409Y-30512D01*
X60354Y-31653D02*
X63110Y-31653D01*
X48307Y-32087D02*
X56811Y-32087D01*
X56811Y-32087D02*
X61299Y-36575D01*
X47244Y-31102D02*
X47638Y-31496D01*
X47638Y-31496D02*
X47993Y-31496D01*
X48228Y-31731D02*
X48228Y-32008D01*
X47993Y-31496D02*
X48228Y-31731D01*
X64016Y-36575D02*
X61299Y-36575D01*
X48228Y-32008D02*
X48307Y-32087D01*
X64370Y-36260D02*
X63858Y-35748D01*
X62599Y-32402D02*
X57599Y-32402D01*
X64370Y-36811D02*
X64370Y-36260D01*
X63858Y-35748D02*
X63858Y-33661D01*
X64685Y-37126D02*
X64370Y-36811D01*
X48149Y-31102D02*
X48031Y-31102D01*
X56693Y-31496D02*
X53936Y-31496D01*
X57599Y-32402D02*
X56693Y-31496D01*
X48346Y-31299D02*
X48149Y-31102D01*
X53739Y-31299D02*
X48346Y-31299D01*
X63858Y-33661D02*
X62599Y-32402D01*
X53936Y-31496D02*
X53739Y-31299D01*
X57913Y-32953D02*
X61378Y-32953D01*
X47835Y-31299D02*
X48070Y-31299D01*
X47638Y-31102D02*
X47835Y-31299D01*
X48070Y-31299D02*
X48464Y-31693D01*
X56653Y-31693D02*
X57913Y-32953D01*
X48464Y-31693D02*
X56653Y-31693D01*
X64724Y-35276D02*
X64724Y-34174D01*
X57676Y-32244D02*
X56731Y-31299D01*
X54015Y-30905D02*
X48622Y-30905D01*
X54134Y-31181D02*
X54134Y-31024D01*
X56731Y-31299D02*
X54252Y-31299D01*
X48425Y-31102D02*
X48622Y-30905D01*
X54134Y-31024D02*
X54015Y-30905D01*
X62794Y-32244D02*
X57676Y-32244D01*
X64724Y-34174D02*
X62794Y-32244D01*
X54252Y-31299D02*
X54134Y-31181D01*
X46456Y-30709D02*
X46260Y-30905D01*
X46457Y-30709D02*
X46456Y-30709D01*
X39055Y-32047D02*
X39252Y-32244D01*
X38740Y-32047D02*
X39055Y-32047D01*
X40316Y-32244D02*
X41655Y-30905D01*
X38425Y-31732D02*
X38740Y-32047D01*
X39252Y-32244D02*
X40316Y-32244D01*
X46260Y-30905D02*
X41655Y-30905D01*
X46653Y-29724D02*
X39487Y-29724D01*
X46850Y-29527D02*
X46653Y-29724D01*
X38110Y-31417D02*
X37913Y-31220D01*
X39212Y-29449D02*
X38661Y-29449D01*
X38661Y-29449D02*
X37913Y-30197D01*
X39487Y-29724D02*
X39212Y-29449D01*
X37913Y-31220D02*
X37913Y-30197D01*
X39764Y-31811D02*
X40552Y-31811D01*
X46653Y-30512D02*
X41851Y-30512D01*
X39370Y-31732D02*
X39685Y-31732D01*
X39685Y-31732D02*
X39764Y-31811D01*
X46850Y-30315D02*
X46653Y-30512D01*
X41851Y-30512D02*
X40552Y-31811D01*
X38583Y-29291D02*
X37756Y-30118D01*
X39409Y-29291D02*
X38583Y-29291D01*
X46457Y-29527D02*
X39645Y-29527D01*
X37756Y-30118D02*
X37756Y-31142D01*
X39645Y-29527D02*
X39409Y-29291D01*
X37480Y-31417D02*
X37481Y-31417D01*
X37481Y-31417D02*
X37756Y-31142D01*
X37441Y-30826D02*
X37441Y-29922D01*
X37165Y-31102D02*
X37441Y-30826D01*
X46260Y-28937D02*
X38426Y-28937D01*
X46457Y-28740D02*
X46260Y-28937D01*
X38426Y-28937D02*
X37441Y-29922D01*
X46653Y-28543D02*
X38582Y-28543D01*
X36535Y-30787D02*
X37283Y-30039D01*
X38582Y-28543D02*
X37283Y-29842D01*
X46850Y-28346D02*
X46653Y-28543D01*
X37283Y-30039D02*
X37283Y-29842D01*
X36535Y-31102D02*
X36535Y-30787D01*
X39055Y-31417D02*
X40749Y-31417D01*
X41851Y-30315D02*
X40749Y-31417D01*
X46457Y-30315D02*
X41851Y-30315D01*
X46653Y-30118D02*
X39331Y-30118D01*
X39331Y-30118D02*
X39055Y-29842D01*
X46850Y-29921D02*
X46653Y-30118D01*
X38741Y-29842D02*
X38425Y-30158D01*
X39055Y-29842D02*
X38741Y-29842D01*
X38425Y-31102D02*
X38425Y-30158D01*
X46457Y-29921D02*
X39370Y-29921D01*
X39370Y-29921D02*
X39055Y-29606D01*
X38740Y-29606D02*
X38110Y-30236D01*
X39055Y-29606D02*
X38740Y-29606D01*
X38110Y-31102D02*
X38110Y-30236D01*
X46260Y-29331D02*
X39724Y-29331D01*
X38503Y-29134D02*
X37598Y-30039D01*
X39527Y-29134D02*
X38503Y-29134D01*
X37481Y-31102D02*
X37598Y-30985D01*
X37480Y-31102D02*
X37481Y-31102D01*
X46457Y-29134D02*
X46260Y-29331D01*
X37598Y-30985D02*
X37598Y-30039D01*
X39724Y-29331D02*
X39527Y-29134D01*
X55708Y-32874D02*
X55905Y-32677D01*
X51181Y-34646D02*
X51378Y-34449D01*
X51378Y-34449D02*
X54803Y-34449D01*
X50787Y-37008D02*
X51181Y-36614D01*
X51181Y-36614D02*
X51181Y-34646D01*
X55708Y-32874D02*
X55039Y-32874D01*
X54921Y-34331D02*
X54921Y-32992D01*
X54803Y-34449D02*
X54921Y-34331D01*
X54921Y-32992D02*
X55039Y-32874D01*
X54646Y-32480D02*
X56102Y-32480D01*
X50984Y-34449D02*
X51378Y-34055D01*
X54527Y-33937D02*
X54527Y-32599D01*
X50984Y-36417D02*
X50984Y-34449D01*
X51378Y-34055D02*
X52952Y-34055D01*
X54410Y-34054D02*
X54527Y-33937D01*
X50787Y-36614D02*
X50984Y-36417D01*
X52952Y-34055D02*
X52953Y-34054D01*
X56102Y-32480D02*
X56299Y-32677D01*
X54527Y-32599D02*
X54646Y-32480D01*
X52953Y-34054D02*
X54410Y-34054D01*
X54645Y-28150D02*
X54803Y-28150D01*
X54921Y-28032D02*
X54921Y-25788D01*
X54134Y-28543D02*
X54409Y-28543D01*
X54409Y-28543D02*
X54527Y-28425D01*
X54921Y-25788D02*
X55236Y-25473D01*
X54527Y-28425D02*
X54527Y-28268D01*
X55236Y-22126D02*
X55236Y-25473D01*
X53937Y-28346D02*
X54134Y-28543D01*
X54803Y-28150D02*
X54921Y-28032D01*
X54527Y-28268D02*
X54645Y-28150D01*
X54527Y-28031D02*
X54527Y-22598D01*
X53543Y-28346D02*
X53740Y-28149D01*
X54527Y-22598D02*
X54055Y-22126D01*
X54409Y-28149D02*
X54527Y-28031D01*
X53740Y-28149D02*
X54409Y-28149D01*
X54134Y-24016D02*
X54134Y-27756D01*
X54134Y-27756D02*
X53937Y-27953D01*
X53268Y-23150D02*
X54134Y-24016D01*
X53071Y-23465D02*
X53740Y-24134D01*
X53740Y-27362D02*
X53937Y-27559D01*
X53740Y-24134D02*
X53740Y-27362D01*
X52953Y-23937D02*
X52874Y-23858D01*
X52362Y-29134D02*
X52559Y-28937D01*
X52559Y-28937D02*
X52559Y-27874D01*
X52953Y-27638D02*
X52953Y-23937D01*
X52559Y-27874D02*
X52677Y-27756D01*
X52835Y-27756D02*
X52953Y-27638D01*
X52677Y-27756D02*
X52835Y-27756D01*
X52953Y-28150D02*
X53227Y-28150D01*
X53346Y-24055D02*
X52874Y-23583D01*
X52757Y-28346D02*
X52953Y-28150D01*
X53227Y-28150D02*
X53346Y-28031D01*
X53346Y-28031D02*
X53346Y-24055D01*
X52874Y-23583D02*
X52874Y-20197D01*
X52756Y-28346D02*
X52757Y-28346D01*
X52165Y-28543D02*
X52165Y-22795D01*
X51968Y-28740D02*
X52165Y-28543D01*
X52165Y-22795D02*
X52283Y-22677D01*
X51772Y-22913D02*
X52283Y-22402D01*
X51968Y-29134D02*
X51772Y-28938D01*
X51772Y-28938D02*
X51772Y-22913D01*
X52461Y-24035D02*
X52559Y-24133D01*
X52461Y-22304D02*
X52461Y-24035D01*
X52362Y-27559D02*
X52559Y-27362D01*
X52461Y-22304D02*
X52283Y-22126D01*
X52559Y-27362D02*
X52559Y-24133D01*
X52283Y-21102D02*
X52283Y-19685D01*
X51378Y-22007D02*
X52283Y-21102D01*
X51378Y-27362D02*
X51378Y-22007D01*
X51575Y-27559D02*
X51378Y-27362D01*
X48425Y-27559D02*
X48622Y-27362D01*
X49291Y-27362D02*
X49409Y-27244D01*
X49409Y-23386D02*
X50354Y-22441D01*
X49409Y-27244D02*
X49409Y-23386D01*
X48622Y-27362D02*
X49291Y-27362D01*
X48346Y-28150D02*
X49016Y-28150D01*
X48228Y-28032D02*
X48346Y-28150D01*
X47047Y-27244D02*
X47559Y-27756D01*
X47559Y-27756D02*
X48110Y-27756D01*
X47047Y-23622D02*
X47047Y-27244D01*
X49016Y-28150D02*
X49212Y-28346D01*
X47047Y-23622D02*
X48543Y-22126D01*
X48228Y-27874D02*
X48228Y-28032D01*
X48110Y-27756D02*
X48228Y-27874D01*
X49803Y-27362D02*
X49803Y-23268D01*
X49606Y-27559D02*
X49803Y-27362D01*
X49803Y-23268D02*
X50354Y-22716D01*
X46181Y-23150D02*
X46653Y-23622D01*
X47559Y-28150D02*
X46653Y-27244D01*
X46653Y-27244D02*
X46653Y-23622D01*
X48031Y-28346D02*
X47835Y-28150D01*
X48425Y-28346D02*
X48031Y-28346D01*
X47835Y-28150D02*
X47559Y-28150D01*
X49724Y-22795D02*
X49724Y-19685D01*
X48425Y-24094D02*
X49724Y-22795D01*
X48425Y-26772D02*
X48425Y-24094D01*
X47835Y-24133D02*
X49527Y-22441D01*
X47835Y-27363D02*
X47835Y-24133D01*
X48031Y-27559D02*
X47835Y-27363D01*
X48346Y-27756D02*
X48228Y-27638D01*
X48228Y-27638D02*
X48228Y-24015D01*
X49212Y-27559D02*
X49015Y-27756D01*
X48228Y-24015D02*
X49527Y-22716D01*
X49015Y-27756D02*
X48346Y-27756D01*
X55118Y-30315D02*
X55315Y-30512D01*
X55315Y-30512D02*
X56299Y-30512D01*
X63504Y-20000D02*
X63504Y-23307D01*
X63504Y-23307D02*
X56299Y-30512D01*
X63307Y-23229D02*
X56418Y-30118D01*
X55709Y-30118D02*
X56418Y-30118D01*
X63307Y-19685D02*
X63307Y-23229D01*
X55512Y-29921D02*
X55709Y-30118D01*
X63110Y-20000D02*
X63110Y-23151D01*
X63110Y-23151D02*
X56537Y-29724D01*
X55118Y-29921D02*
X55315Y-29724D01*
X55315Y-29724D02*
X56537Y-29724D01*
X55118Y-29134D02*
X55315Y-29331D01*
X55315Y-29331D02*
X56653Y-29331D01*
X62913Y-23071D02*
X56653Y-29331D01*
X62913Y-19685D02*
X62913Y-23071D01*
X62716Y-22993D02*
X56772Y-28937D01*
X62716Y-20000D02*
X62716Y-22993D01*
X55709Y-28937D02*
X56772Y-28937D01*
X55512Y-28740D02*
X55709Y-28937D01*
X55315Y-28543D02*
X56457Y-28543D01*
X62323Y-22677D02*
X62323Y-20000D01*
X55118Y-28740D02*
X55315Y-28543D01*
X56457Y-28543D02*
X62323Y-22677D01*
X62126Y-22598D02*
X62126Y-19685D01*
X56574Y-28150D02*
X62126Y-22598D01*
X55314Y-28150D02*
X56574Y-28150D01*
X55118Y-28346D02*
X55314Y-28150D01*
X61929Y-22520D02*
X61929Y-20000D01*
X55315Y-27756D02*
X56693Y-27756D01*
X56693Y-27756D02*
X61929Y-22520D01*
X55118Y-27953D02*
X55315Y-27756D01*
X55118Y-27559D02*
X55315Y-27362D01*
X61732Y-22441D02*
X61732Y-19685D01*
X55315Y-27362D02*
X56811Y-27362D01*
X56811Y-27362D02*
X61732Y-22441D01*
X56929Y-26968D02*
X61535Y-22362D01*
X61535Y-22362D02*
X61535Y-20000D01*
X55118Y-27165D02*
X55315Y-26968D01*
X55315Y-26968D02*
X56929Y-26968D01*
X47442Y-31694D02*
X47244Y-31496D01*
X47835Y-31694D02*
X47442Y-31694D01*
X40471Y-32480D02*
X41455Y-31496D01*
X47835Y-31694D02*
X48031Y-31890D01*
X39252Y-32480D02*
X40471Y-32480D01*
X39055Y-32677D02*
X39252Y-32480D01*
X41455Y-31496D02*
X47244Y-31496D01*
X47047Y-31693D02*
X41457Y-31693D01*
X47244Y-31890D02*
X47047Y-31693D01*
X40473Y-32677D02*
X41457Y-31693D01*
X39370Y-32677D02*
X40473Y-32677D01*
X47047Y-34842D02*
X45668Y-34842D01*
X37677Y-32914D02*
X37677Y-35275D01*
X39606Y-35590D02*
X44920Y-35590D01*
X47244Y-34646D02*
X47243Y-34646D01*
X38229Y-35827D02*
X39369Y-35827D01*
X39369Y-35827D02*
X39606Y-35590D01*
X37677Y-35275D02*
X38229Y-35827D01*
X37441Y-32677D02*
X37677Y-32914D01*
X47243Y-34646D02*
X47047Y-34842D01*
X36535Y-32677D02*
X37441Y-32677D01*
X44920Y-35590D02*
X45668Y-34842D01*
X47638Y-31890D02*
X47441Y-32087D01*
X39173Y-32874D02*
X40473Y-32874D01*
X46063Y-32283D02*
X41064Y-32283D01*
X39055Y-32992D02*
X39173Y-32874D01*
X40473Y-32874D02*
X41064Y-32283D01*
X47441Y-32087D02*
X46259Y-32087D01*
X46259Y-32087D02*
X46063Y-32283D01*
X38190Y-35984D02*
X44882Y-35984D01*
X47047Y-35236D02*
X45630Y-35236D01*
X37559Y-35353D02*
X38190Y-35984D01*
X44882Y-35984D02*
X45630Y-35236D01*
X37559Y-34016D02*
X37559Y-35353D01*
X47244Y-35039D02*
X47047Y-35236D01*
X37480Y-33937D02*
X37559Y-34016D01*
X48031Y-33072D02*
X47835Y-33268D01*
X48031Y-33071D02*
X48031Y-33072D01*
X47835Y-33268D02*
X45631Y-33268D01*
X44135Y-34764D02*
X45631Y-33268D01*
X38740Y-34252D02*
X39252Y-34764D01*
X39252Y-34764D02*
X44135Y-34764D01*
X47638Y-33858D02*
X47441Y-33661D01*
X38110Y-35117D02*
X38465Y-35472D01*
X38465Y-35472D02*
X39015Y-35472D01*
X47441Y-33661D02*
X45591Y-33661D01*
X44134Y-35118D02*
X39369Y-35118D01*
X44134Y-35118D02*
X45591Y-33661D01*
X38110Y-34252D02*
X38110Y-35117D01*
X39015Y-35472D02*
X39369Y-35118D01*
X39055Y-33347D02*
X39371Y-33031D01*
X47047Y-32480D02*
X41061Y-32480D01*
X39055Y-33622D02*
X39055Y-33347D01*
X40510Y-33031D02*
X41061Y-32480D01*
X47244Y-32677D02*
X47047Y-32480D01*
X39371Y-33031D02*
X40510Y-33031D01*
X44841Y-35433D02*
X45825Y-34449D01*
X37008Y-32559D02*
X37559Y-32559D01*
X37794Y-32794D02*
X37794Y-35196D01*
X36850Y-31732D02*
X36850Y-32401D01*
X37794Y-35196D02*
X38308Y-35710D01*
X47047Y-34449D02*
X45825Y-34449D01*
X39250Y-35710D02*
X39527Y-35433D01*
X47244Y-34252D02*
X47047Y-34449D01*
X38308Y-35710D02*
X39250Y-35710D01*
X36850Y-32401D02*
X37008Y-32559D01*
X37559Y-32559D02*
X37794Y-32794D01*
X39527Y-35433D02*
X44841Y-35433D01*
X39094Y-47283D02*
X64686Y-47283D01*
X64686Y-47283D02*
X65197Y-46772D01*
X65197Y-46772D02*
X65197Y-35945D01*
X38858Y-47047D02*
X39094Y-47283D01*
X65039Y-35787D02*
X64804Y-35787D01*
X38858Y-43150D02*
X38858Y-47047D01*
X64804Y-35787D02*
X64567Y-36024D01*
X65197Y-35945D02*
X65039Y-35787D01*
X39174Y-47126D02*
X64607Y-47126D01*
X64607Y-47126D02*
X64961Y-46772D01*
X39016Y-46969D02*
X39174Y-47126D01*
X64961Y-46772D02*
X64961Y-36024D01*
X39016Y-43386D02*
X39016Y-46969D01*
X39252Y-43150D02*
X39016Y-43386D01*
X65433Y-46772D02*
X65433Y-37874D01*
X38976Y-47441D02*
X64764Y-47441D01*
X65433Y-37874D02*
X65748Y-37559D01*
X38661Y-47126D02*
X38976Y-47441D01*
X64764Y-47441D02*
X65433Y-46772D01*
X38661Y-46535D02*
X38661Y-47126D01*
X65630Y-37953D02*
X66378Y-37205D01*
X38622Y-45039D02*
X38425Y-45236D01*
X38425Y-45236D02*
X38425Y-47125D01*
X65630Y-46812D02*
X65630Y-37953D01*
X64844Y-47598D02*
X65630Y-46812D01*
X38425Y-47125D02*
X38898Y-47598D01*
X38898Y-47598D02*
X64844Y-47598D01*
X65590Y-35512D02*
X68898Y-32204D01*
X69567Y-28779D02*
X68898Y-29448D01*
X68898Y-29448D02*
X68898Y-32204D01*
X64488Y-35512D02*
X65590Y-35512D01*
X67835Y-35472D02*
X67835Y-35471D01*
X68150Y-34055D02*
X69370Y-32835D01*
X68150Y-35156D02*
X68150Y-34055D01*
X69370Y-32835D02*
X69370Y-31142D01*
X67835Y-35471D02*
X68150Y-35156D01*
X69370Y-31142D02*
X69567Y-30945D01*
X67756Y-35196D02*
X67756Y-33977D01*
X69055Y-29725D02*
X69567Y-29213D01*
X67598Y-35354D02*
X67756Y-35196D01*
X67756Y-33977D02*
X69055Y-32678D01*
X69055Y-32678D02*
X69055Y-29725D01*
X69212Y-30434D02*
X69567Y-30079D01*
X67953Y-34961D02*
X67953Y-34015D01*
X69212Y-32756D02*
X69212Y-30434D01*
X67953Y-34015D02*
X69212Y-32756D01*
X41457Y-23386D02*
X41457Y-21772D01*
X42126Y-25354D02*
X41693Y-24921D01*
X42362Y-18150D02*
X42717Y-17795D01*
X41457Y-21772D02*
X42362Y-20867D01*
X68346Y-29253D02*
X68346Y-27560D01*
X42362Y-20867D02*
X42362Y-18150D01*
X42717Y-17795D02*
X69763Y-17795D01*
X41693Y-23622D02*
X41457Y-23386D01*
X70512Y-18544D02*
X70512Y-25394D01*
X41693Y-24921D02*
X41693Y-23622D01*
X68346Y-27560D02*
X70512Y-25394D01*
X69763Y-17795D02*
X70512Y-18544D01*
X64961Y-32638D02*
X68346Y-29253D01*
X41653Y-23307D02*
X41653Y-21850D01*
X42126Y-23780D02*
X41653Y-23307D01*
X68110Y-29134D02*
X68110Y-27441D01*
X64764Y-32480D02*
X68110Y-29134D01*
X68110Y-27441D02*
X70354Y-25197D01*
X42559Y-18228D02*
X42834Y-17953D01*
X70354Y-18620D02*
X70354Y-25197D01*
X42126Y-24724D02*
X42126Y-23780D01*
X42559Y-20944D02*
X42559Y-18228D01*
X42834Y-17953D02*
X69687Y-17953D01*
X69687Y-17953D02*
X70354Y-18620D01*
X41653Y-21850D02*
X42559Y-20944D01*
X37441Y-35434D02*
X38149Y-36142D01*
X47244Y-35433D02*
X47047Y-35630D01*
X37165Y-33937D02*
X37441Y-34213D01*
X44960Y-36142D02*
X45472Y-35630D01*
X38149Y-36142D02*
X44960Y-36142D01*
X37441Y-34213D02*
X37441Y-35434D01*
X47047Y-35630D02*
X45472Y-35630D01*
X36338Y-30748D02*
X37047Y-30039D01*
X46457Y-28346D02*
X38543Y-28346D01*
X38543Y-28346D02*
X37047Y-29842D01*
X37165Y-31417D02*
X36535Y-31417D01*
X37047Y-29842D02*
X37047Y-30039D01*
X36338Y-31220D02*
X36338Y-30748D01*
X36535Y-31417D02*
X36338Y-31220D01*
X39055Y-32362D02*
X40393Y-32362D01*
X46654Y-31180D02*
X46535Y-31299D01*
X40393Y-32362D02*
X41456Y-31299D01*
X46535Y-31299D02*
X41456Y-31299D01*
X46654Y-30905D02*
X46850Y-30709D01*
X46654Y-30905D02*
X46654Y-31180D01*
X41260Y-33622D02*
X42008Y-32874D01*
X39370Y-33622D02*
X41260Y-33622D01*
X47244Y-33071D02*
X47047Y-32874D01*
X42008Y-32874D02*
X47047Y-32874D01*
G54D21*
X56693Y-18189D02*
X58031Y-18189D01*
X62520Y-18189D02*
X62835Y-18504D01*
X65472Y-20867D02*
X65709Y-20630D01*
X62520Y-18189D02*
X62205Y-18189D01*
X65472Y-21811D02*
X65748Y-22087D01*
X62835Y-18504D02*
X63149Y-18504D01*
X65472Y-21260D02*
X65472Y-21811D01*
X49291Y-18189D02*
X56693Y-18189D01*
X65000Y-18189D02*
X65709Y-18898D01*
X65355Y-26967D02*
X65354Y-26968D01*
X62205Y-18189D02*
X62205Y-18779D01*
X58346Y-18976D02*
X58031Y-18661D01*
X58031Y-18189D02*
X62205Y-18189D01*
X65709Y-18898D02*
X65709Y-20630D01*
X65354Y-26968D02*
X65354Y-27402D01*
X65748Y-22637D02*
X65355Y-23030D01*
X58031Y-18661D02*
X58031Y-18189D01*
X65354Y-27402D02*
X65354Y-27835D01*
X65472Y-21260D02*
X65472Y-20867D01*
X56693Y-18189D02*
X56693Y-18740D01*
X63149Y-18504D02*
X63464Y-18189D01*
X63464Y-18189D02*
X65000Y-18189D01*
X65748Y-22087D02*
X65748Y-22637D01*
X48740Y-18740D02*
X49291Y-18189D01*
X65355Y-23030D02*
X65355Y-26967D01*
G54D10*
G36*
X36579Y-34807D02*
X36097Y-34807D01*
X36097Y-34605D01*
X36097Y-34529D01*
X36068Y-34458D01*
X36019Y-34409D01*
X36068Y-34361D01*
X36097Y-34290D01*
X36097Y-34214D01*
X36068Y-34143D01*
X36014Y-34089D01*
X35943Y-34060D01*
X35867Y-34060D01*
X35796Y-34089D01*
X35743Y-34142D01*
X35743Y-33975D01*
X35743Y-33899D01*
X35714Y-33828D01*
X35660Y-33774D01*
X35589Y-33745D01*
X35513Y-33745D01*
X35442Y-33774D01*
X35388Y-33828D01*
X35359Y-33899D01*
X35359Y-33975D01*
X35388Y-34046D01*
X35442Y-34100D01*
X35513Y-34129D01*
X35589Y-34129D01*
X35660Y-34100D01*
X35714Y-34046D01*
X35743Y-33975D01*
X35743Y-34142D01*
X35742Y-34143D01*
X35713Y-34214D01*
X35713Y-34290D01*
X35742Y-34361D01*
X35790Y-34409D01*
X35747Y-34452D01*
X35699Y-34404D01*
X35628Y-34375D01*
X35552Y-34375D01*
X35481Y-34404D01*
X35427Y-34458D01*
X35398Y-34529D01*
X35398Y-34605D01*
X35427Y-34676D01*
X35481Y-34730D01*
X35552Y-34759D01*
X35628Y-34759D01*
X35699Y-34730D01*
X35747Y-34681D01*
X35796Y-34730D01*
X35867Y-34759D01*
X35943Y-34759D01*
X36014Y-34730D01*
X36068Y-34676D01*
X36097Y-34605D01*
X36097Y-34807D01*
X35271Y-34807D01*
X35271Y-33817D01*
X35271Y-33741D01*
X35271Y-33503D01*
X35271Y-33427D01*
X35271Y-33188D01*
X35271Y-33112D01*
X35271Y-32873D01*
X35271Y-32797D01*
X35271Y-32558D01*
X35271Y-32482D01*
X35271Y-32243D01*
X35271Y-32167D01*
X35271Y-31928D01*
X35271Y-31852D01*
X35271Y-31482D01*
X35114Y-31325D01*
X35114Y-29113D01*
X35148Y-29100D01*
X35157Y-29091D01*
X35166Y-29100D01*
X35237Y-29129D01*
X35313Y-29129D01*
X35384Y-29100D01*
X35438Y-29046D01*
X35467Y-28975D01*
X35467Y-28972D01*
X35516Y-28972D01*
X35516Y-30609D01*
X35481Y-30624D01*
X35427Y-30678D01*
X35398Y-30749D01*
X35398Y-30825D01*
X35427Y-30896D01*
X35481Y-30950D01*
X35552Y-30979D01*
X35628Y-30979D01*
X35699Y-30950D01*
X35701Y-30947D01*
X35744Y-30990D01*
X35742Y-30993D01*
X35713Y-31064D01*
X35713Y-31140D01*
X35742Y-31211D01*
X35796Y-31265D01*
X35867Y-31294D01*
X35943Y-31294D01*
X35949Y-31291D01*
X35949Y-31857D01*
X35943Y-31855D01*
X35867Y-31855D01*
X35796Y-31884D01*
X35742Y-31938D01*
X35713Y-32009D01*
X35713Y-32085D01*
X35742Y-32156D01*
X35796Y-32210D01*
X35867Y-32239D01*
X35943Y-32239D01*
X35949Y-32236D01*
X35949Y-33432D01*
X35943Y-33430D01*
X35867Y-33430D01*
X35796Y-33459D01*
X35742Y-33513D01*
X35713Y-33584D01*
X35713Y-33660D01*
X35742Y-33731D01*
X35796Y-33785D01*
X35867Y-33814D01*
X35943Y-33814D01*
X35949Y-33811D01*
X35949Y-33893D01*
X36030Y-33893D01*
X36028Y-33899D01*
X36028Y-33975D01*
X36057Y-34046D01*
X36111Y-34100D01*
X36182Y-34129D01*
X36258Y-34129D01*
X36329Y-34100D01*
X36383Y-34046D01*
X36412Y-33975D01*
X36412Y-33899D01*
X36409Y-33893D01*
X36579Y-33893D01*
X36579Y-34807D01*
X36579Y-34807D01*
G37*
G54D22*
X36579Y-34807D02*
X36097Y-34807D01*
X36097Y-34605D01*
X36097Y-34529D01*
X36068Y-34458D01*
X36019Y-34409D01*
X36068Y-34361D01*
X36097Y-34290D01*
X36097Y-34214D01*
X36068Y-34143D01*
X36014Y-34089D01*
X35943Y-34060D01*
X35867Y-34060D01*
X35796Y-34089D01*
X35743Y-34142D01*
X35743Y-33975D01*
X35743Y-33899D01*
X35714Y-33828D01*
X35660Y-33774D01*
X35589Y-33745D01*
X35513Y-33745D01*
X35442Y-33774D01*
X35388Y-33828D01*
X35359Y-33899D01*
X35359Y-33975D01*
X35388Y-34046D01*
X35442Y-34100D01*
X35513Y-34129D01*
X35589Y-34129D01*
X35660Y-34100D01*
X35714Y-34046D01*
X35743Y-33975D01*
X35743Y-34142D01*
X35742Y-34143D01*
X35713Y-34214D01*
X35713Y-34290D01*
X35742Y-34361D01*
X35790Y-34409D01*
X35747Y-34452D01*
X35699Y-34404D01*
X35628Y-34375D01*
X35552Y-34375D01*
X35481Y-34404D01*
X35427Y-34458D01*
X35398Y-34529D01*
X35398Y-34605D01*
X35427Y-34676D01*
X35481Y-34730D01*
X35552Y-34759D01*
X35628Y-34759D01*
X35699Y-34730D01*
X35747Y-34681D01*
X35796Y-34730D01*
X35867Y-34759D01*
X35943Y-34759D01*
X36014Y-34730D01*
X36068Y-34676D01*
X36097Y-34605D01*
X36097Y-34807D01*
X35271Y-34807D01*
X35271Y-33817D01*
X35271Y-33741D01*
X35271Y-33503D01*
X35271Y-33427D01*
X35271Y-33188D01*
X35271Y-33112D01*
X35271Y-32873D01*
X35271Y-32797D01*
X35271Y-32558D01*
X35271Y-32482D01*
X35271Y-32243D01*
X35271Y-32167D01*
X35271Y-31928D01*
X35271Y-31852D01*
X35271Y-31482D01*
X35114Y-31325D01*
X35114Y-29113D01*
X35148Y-29100D01*
X35157Y-29091D01*
X35166Y-29100D01*
X35237Y-29129D01*
X35313Y-29129D01*
X35384Y-29100D01*
X35438Y-29046D01*
X35467Y-28975D01*
X35467Y-28972D01*
X35516Y-28972D01*
X35516Y-30609D01*
X35481Y-30624D01*
X35427Y-30678D01*
X35398Y-30749D01*
X35398Y-30825D01*
X35427Y-30896D01*
X35481Y-30950D01*
X35552Y-30979D01*
X35628Y-30979D01*
X35699Y-30950D01*
X35701Y-30947D01*
X35744Y-30990D01*
X35742Y-30993D01*
X35713Y-31064D01*
X35713Y-31140D01*
X35742Y-31211D01*
X35796Y-31265D01*
X35867Y-31294D01*
X35943Y-31294D01*
X35949Y-31291D01*
X35949Y-31857D01*
X35943Y-31855D01*
X35867Y-31855D01*
X35796Y-31884D01*
X35742Y-31938D01*
X35713Y-32009D01*
X35713Y-32085D01*
X35742Y-32156D01*
X35796Y-32210D01*
X35867Y-32239D01*
X35943Y-32239D01*
X35949Y-32236D01*
X35949Y-33432D01*
X35943Y-33430D01*
X35867Y-33430D01*
X35796Y-33459D01*
X35742Y-33513D01*
X35713Y-33584D01*
X35713Y-33660D01*
X35742Y-33731D01*
X35796Y-33785D01*
X35867Y-33814D01*
X35943Y-33814D01*
X35949Y-33811D01*
X35949Y-33893D01*
X36030Y-33893D01*
X36028Y-33899D01*
X36028Y-33975D01*
X36057Y-34046D01*
X36111Y-34100D01*
X36182Y-34129D01*
X36258Y-34129D01*
X36329Y-34100D01*
X36383Y-34046D01*
X36412Y-33975D01*
X36412Y-33899D01*
X36409Y-33893D01*
X36579Y-33893D01*
X36579Y-34807D01*
G54D10*
G36*
X70217Y-25140D02*
X70192Y-25165D01*
X70192Y-24290D01*
X70192Y-24214D01*
X70163Y-24143D01*
X70109Y-24089D01*
X70038Y-24060D01*
X69962Y-24060D01*
X69891Y-24089D01*
X69837Y-24143D01*
X69808Y-24214D01*
X69808Y-24290D01*
X69837Y-24361D01*
X69891Y-24415D01*
X69962Y-24444D01*
X70038Y-24444D01*
X70109Y-24415D01*
X70163Y-24361D01*
X70192Y-24290D01*
X70192Y-25165D01*
X69168Y-26189D01*
X69168Y-24920D01*
X69168Y-24844D01*
X69139Y-24773D01*
X69085Y-24719D01*
X69014Y-24690D01*
X68938Y-24690D01*
X68867Y-24719D01*
X68813Y-24773D01*
X68784Y-24844D01*
X68784Y-24920D01*
X68813Y-24991D01*
X68867Y-25045D01*
X68938Y-25074D01*
X69014Y-25074D01*
X69085Y-25045D01*
X69139Y-24991D01*
X69168Y-24920D01*
X69168Y-26189D01*
X69014Y-26343D01*
X68617Y-26343D01*
X68617Y-24999D01*
X68617Y-24923D01*
X68617Y-23384D01*
X68617Y-23308D01*
X68588Y-23237D01*
X68534Y-23183D01*
X68463Y-23154D01*
X68387Y-23154D01*
X68316Y-23183D01*
X68262Y-23237D01*
X68233Y-23308D01*
X68233Y-23384D01*
X68262Y-23455D01*
X68316Y-23509D01*
X68387Y-23538D01*
X68463Y-23538D01*
X68534Y-23509D01*
X68588Y-23455D01*
X68617Y-23384D01*
X68617Y-24923D01*
X68588Y-24852D01*
X68534Y-24798D01*
X68463Y-24769D01*
X68387Y-24769D01*
X68316Y-24798D01*
X68303Y-24811D01*
X68303Y-23699D01*
X68303Y-23623D01*
X68274Y-23552D01*
X68220Y-23498D01*
X68149Y-23469D01*
X68106Y-23469D01*
X68106Y-23427D01*
X68077Y-23356D01*
X68023Y-23302D01*
X67952Y-23273D01*
X67876Y-23273D01*
X67805Y-23302D01*
X67751Y-23356D01*
X67722Y-23427D01*
X67722Y-23503D01*
X67751Y-23574D01*
X67805Y-23628D01*
X67876Y-23657D01*
X67919Y-23657D01*
X67919Y-23666D01*
X67875Y-23666D01*
X67804Y-23695D01*
X67750Y-23749D01*
X67721Y-23820D01*
X67721Y-23896D01*
X67750Y-23967D01*
X67804Y-24021D01*
X67875Y-24050D01*
X67951Y-24050D01*
X68022Y-24021D01*
X68076Y-23967D01*
X68105Y-23896D01*
X68105Y-23853D01*
X68149Y-23853D01*
X68220Y-23824D01*
X68274Y-23770D01*
X68303Y-23699D01*
X68303Y-24811D01*
X68262Y-24852D01*
X68233Y-24923D01*
X68233Y-24999D01*
X68262Y-25070D01*
X68316Y-25124D01*
X68387Y-25153D01*
X68463Y-25153D01*
X68534Y-25124D01*
X68588Y-25070D01*
X68617Y-24999D01*
X68617Y-26343D01*
X67593Y-26343D01*
X67593Y-25018D01*
X67593Y-24942D01*
X67583Y-24917D01*
X67583Y-20331D01*
X67583Y-20211D01*
X67537Y-20100D01*
X67452Y-20016D01*
X67342Y-19970D01*
X67222Y-19970D01*
X67111Y-20016D01*
X67027Y-20101D01*
X66981Y-20211D01*
X66981Y-20331D01*
X67027Y-20442D01*
X67112Y-20526D01*
X67222Y-20572D01*
X67342Y-20572D01*
X67453Y-20526D01*
X67537Y-20441D01*
X67583Y-20331D01*
X67583Y-24917D01*
X67564Y-24871D01*
X67510Y-24817D01*
X67468Y-24799D01*
X67468Y-24297D01*
X67468Y-24208D01*
X67434Y-24126D01*
X67372Y-24063D01*
X67352Y-24054D01*
X67371Y-24047D01*
X67434Y-23985D01*
X67468Y-23903D01*
X67468Y-23814D01*
X67434Y-23732D01*
X67372Y-23669D01*
X67352Y-23660D01*
X67371Y-23653D01*
X67434Y-23591D01*
X67468Y-23509D01*
X67468Y-23420D01*
X67434Y-23338D01*
X67372Y-23275D01*
X67290Y-23241D01*
X67239Y-23241D01*
X67239Y-22833D01*
X67239Y-22757D01*
X67210Y-22686D01*
X67156Y-22632D01*
X67085Y-22603D01*
X67009Y-22603D01*
X66955Y-22625D01*
X66955Y-19734D01*
X66955Y-19613D01*
X66909Y-19501D01*
X66823Y-19415D01*
X66711Y-19368D01*
X66590Y-19368D01*
X66478Y-19414D01*
X66392Y-19500D01*
X66345Y-19612D01*
X66345Y-19656D01*
X66329Y-19640D01*
X66258Y-19611D01*
X66182Y-19611D01*
X66111Y-19640D01*
X66057Y-19694D01*
X66028Y-19765D01*
X66028Y-19841D01*
X66057Y-19912D01*
X66111Y-19966D01*
X66182Y-19995D01*
X66258Y-19995D01*
X66329Y-19966D01*
X66383Y-19912D01*
X66404Y-19858D01*
X66477Y-19931D01*
X66589Y-19978D01*
X66710Y-19978D01*
X66822Y-19932D01*
X66908Y-19846D01*
X66955Y-19734D01*
X66955Y-22625D01*
X66938Y-22632D01*
X66885Y-22685D01*
X66885Y-20747D01*
X66885Y-20671D01*
X66885Y-20274D01*
X66885Y-20198D01*
X66856Y-20127D01*
X66802Y-20073D01*
X66731Y-20044D01*
X66655Y-20044D01*
X66584Y-20073D01*
X66530Y-20127D01*
X66501Y-20198D01*
X66501Y-20274D01*
X66530Y-20345D01*
X66584Y-20399D01*
X66655Y-20428D01*
X66731Y-20428D01*
X66802Y-20399D01*
X66856Y-20345D01*
X66885Y-20274D01*
X66885Y-20671D01*
X66856Y-20600D01*
X66802Y-20546D01*
X66731Y-20517D01*
X66655Y-20517D01*
X66584Y-20546D01*
X66530Y-20600D01*
X66501Y-20671D01*
X66501Y-20747D01*
X66530Y-20818D01*
X66584Y-20872D01*
X66655Y-20901D01*
X66731Y-20901D01*
X66802Y-20872D01*
X66856Y-20818D01*
X66885Y-20747D01*
X66885Y-22685D01*
X66884Y-22686D01*
X66855Y-22757D01*
X66855Y-22833D01*
X66884Y-22904D01*
X66938Y-22958D01*
X67009Y-22987D01*
X67085Y-22987D01*
X67156Y-22958D01*
X67210Y-22904D01*
X67239Y-22833D01*
X67239Y-23241D01*
X67201Y-23241D01*
X67119Y-23275D01*
X67056Y-23337D01*
X67047Y-23356D01*
X67040Y-23338D01*
X66978Y-23275D01*
X66896Y-23241D01*
X66807Y-23241D01*
X66725Y-23275D01*
X66662Y-23337D01*
X66653Y-23356D01*
X66649Y-23345D01*
X66649Y-22558D01*
X66649Y-22482D01*
X66620Y-22411D01*
X66566Y-22357D01*
X66495Y-22328D01*
X66419Y-22328D01*
X66348Y-22357D01*
X66294Y-22411D01*
X66265Y-22482D01*
X66265Y-22558D01*
X66294Y-22629D01*
X66348Y-22683D01*
X66419Y-22712D01*
X66495Y-22712D01*
X66566Y-22683D01*
X66620Y-22629D01*
X66649Y-22558D01*
X66649Y-23345D01*
X66646Y-23338D01*
X66584Y-23275D01*
X66502Y-23241D01*
X66413Y-23241D01*
X66331Y-23275D01*
X66268Y-23337D01*
X66234Y-23419D01*
X66234Y-23508D01*
X66268Y-23590D01*
X66330Y-23653D01*
X66349Y-23661D01*
X66331Y-23669D01*
X66268Y-23731D01*
X66234Y-23813D01*
X66234Y-23902D01*
X66268Y-23984D01*
X66330Y-24047D01*
X66349Y-24055D01*
X66331Y-24063D01*
X66268Y-24125D01*
X66234Y-24207D01*
X66234Y-24296D01*
X66268Y-24378D01*
X66330Y-24441D01*
X66412Y-24475D01*
X66501Y-24475D01*
X66583Y-24441D01*
X66646Y-24379D01*
X66654Y-24359D01*
X66662Y-24378D01*
X66724Y-24441D01*
X66806Y-24475D01*
X66895Y-24475D01*
X66977Y-24441D01*
X67040Y-24379D01*
X67048Y-24359D01*
X67056Y-24378D01*
X67118Y-24441D01*
X67200Y-24475D01*
X67289Y-24475D01*
X67371Y-24441D01*
X67434Y-24379D01*
X67468Y-24297D01*
X67468Y-24799D01*
X67439Y-24788D01*
X67363Y-24788D01*
X67292Y-24817D01*
X67238Y-24871D01*
X67209Y-24942D01*
X67209Y-25018D01*
X67238Y-25089D01*
X67292Y-25143D01*
X67363Y-25172D01*
X67439Y-25172D01*
X67510Y-25143D01*
X67564Y-25089D01*
X67593Y-25018D01*
X67593Y-26343D01*
X67318Y-26343D01*
X67318Y-25865D01*
X67318Y-25789D01*
X67289Y-25718D01*
X67235Y-25664D01*
X67164Y-25635D01*
X67088Y-25635D01*
X67042Y-25653D01*
X67042Y-25235D01*
X67042Y-25159D01*
X67013Y-25088D01*
X66964Y-25039D01*
X67013Y-24991D01*
X67042Y-24920D01*
X67042Y-24844D01*
X67013Y-24773D01*
X66959Y-24719D01*
X66888Y-24690D01*
X66812Y-24690D01*
X66741Y-24719D01*
X66687Y-24773D01*
X66658Y-24844D01*
X66658Y-24920D01*
X66687Y-24991D01*
X66735Y-25039D01*
X66687Y-25088D01*
X66658Y-25159D01*
X66658Y-25235D01*
X66687Y-25306D01*
X66741Y-25360D01*
X66812Y-25389D01*
X66888Y-25389D01*
X66959Y-25360D01*
X67013Y-25306D01*
X67042Y-25235D01*
X67042Y-25653D01*
X67017Y-25664D01*
X66963Y-25718D01*
X66934Y-25789D01*
X66934Y-25865D01*
X66963Y-25936D01*
X67017Y-25990D01*
X67088Y-26019D01*
X67164Y-26019D01*
X67235Y-25990D01*
X67289Y-25936D01*
X67318Y-25865D01*
X67318Y-26343D01*
X66767Y-26343D01*
X66767Y-25865D01*
X66767Y-25789D01*
X66738Y-25718D01*
X66684Y-25664D01*
X66613Y-25635D01*
X66537Y-25635D01*
X66466Y-25664D01*
X66412Y-25718D01*
X66383Y-25789D01*
X66383Y-25865D01*
X66412Y-25936D01*
X66466Y-25990D01*
X66537Y-26019D01*
X66613Y-26019D01*
X66684Y-25990D01*
X66738Y-25936D01*
X66767Y-25865D01*
X66767Y-26343D01*
X66137Y-26343D01*
X66137Y-25628D01*
X66137Y-25552D01*
X66137Y-25235D01*
X66137Y-25159D01*
X66108Y-25088D01*
X66054Y-25034D01*
X65983Y-25005D01*
X65907Y-25005D01*
X65836Y-25034D01*
X65782Y-25088D01*
X65753Y-25159D01*
X65753Y-25235D01*
X65782Y-25306D01*
X65836Y-25360D01*
X65907Y-25389D01*
X65983Y-25389D01*
X66054Y-25360D01*
X66108Y-25306D01*
X66137Y-25235D01*
X66137Y-25552D01*
X66108Y-25481D01*
X66054Y-25427D01*
X65983Y-25398D01*
X65907Y-25398D01*
X65836Y-25427D01*
X65782Y-25481D01*
X65753Y-25552D01*
X65753Y-25628D01*
X65782Y-25699D01*
X65836Y-25753D01*
X65907Y-25782D01*
X65983Y-25782D01*
X66054Y-25753D01*
X66108Y-25699D01*
X66137Y-25628D01*
X66137Y-26343D01*
X65665Y-26343D01*
X65665Y-24559D01*
X65718Y-24612D01*
X65789Y-24641D01*
X65865Y-24641D01*
X65936Y-24612D01*
X65990Y-24558D01*
X66019Y-24487D01*
X66019Y-24411D01*
X65990Y-24340D01*
X65936Y-24286D01*
X65865Y-24257D01*
X65789Y-24257D01*
X65718Y-24286D01*
X65665Y-24339D01*
X65665Y-24165D01*
X65718Y-24218D01*
X65789Y-24247D01*
X65865Y-24247D01*
X65936Y-24218D01*
X65990Y-24164D01*
X66019Y-24093D01*
X66019Y-24017D01*
X65990Y-23946D01*
X65936Y-23892D01*
X65865Y-23863D01*
X65789Y-23863D01*
X65718Y-23892D01*
X65665Y-23945D01*
X65665Y-23220D01*
X65718Y-23273D01*
X65789Y-23302D01*
X65865Y-23302D01*
X65936Y-23273D01*
X65990Y-23219D01*
X66019Y-23148D01*
X66019Y-23072D01*
X65990Y-23001D01*
X65936Y-22947D01*
X65865Y-22918D01*
X65789Y-22918D01*
X65718Y-22947D01*
X65665Y-23000D01*
X65665Y-22992D01*
X65884Y-22774D01*
X65884Y-22773D01*
X65926Y-22711D01*
X65940Y-22638D01*
X65941Y-22637D01*
X65941Y-22087D01*
X65926Y-22013D01*
X65884Y-21951D01*
X65884Y-21950D01*
X65665Y-21731D01*
X65665Y-21260D01*
X65665Y-20946D01*
X65845Y-20767D01*
X65845Y-20766D01*
X65871Y-20728D01*
X65871Y-20747D01*
X65900Y-20818D01*
X65954Y-20872D01*
X66025Y-20901D01*
X66101Y-20901D01*
X66172Y-20872D01*
X66226Y-20818D01*
X66255Y-20747D01*
X66255Y-20671D01*
X66226Y-20600D01*
X66172Y-20546D01*
X66101Y-20517D01*
X66025Y-20517D01*
X65954Y-20546D01*
X65902Y-20598D01*
X65902Y-20347D01*
X65954Y-20399D01*
X66025Y-20428D01*
X66101Y-20428D01*
X66172Y-20399D01*
X66226Y-20345D01*
X66255Y-20274D01*
X66255Y-20198D01*
X66226Y-20127D01*
X66172Y-20073D01*
X66101Y-20044D01*
X66025Y-20044D01*
X65954Y-20073D01*
X65902Y-20125D01*
X65902Y-19326D01*
X68680Y-19326D01*
X68863Y-19509D01*
X68863Y-19936D01*
X68769Y-19897D01*
X68540Y-19897D01*
X68329Y-19984D01*
X68167Y-20146D01*
X68079Y-20357D01*
X68079Y-20586D01*
X68166Y-20797D01*
X68201Y-20832D01*
X68151Y-20832D01*
X68080Y-20861D01*
X68026Y-20915D01*
X67997Y-20986D01*
X67997Y-21062D01*
X68026Y-21133D01*
X68080Y-21187D01*
X68151Y-21216D01*
X68227Y-21216D01*
X68298Y-21187D01*
X68352Y-21133D01*
X68381Y-21062D01*
X68381Y-20986D01*
X68378Y-20980D01*
X68539Y-21047D01*
X68768Y-21047D01*
X68863Y-21007D01*
X68863Y-21855D01*
X68860Y-21855D01*
X68789Y-21884D01*
X68760Y-21913D01*
X68731Y-21884D01*
X68660Y-21855D01*
X68584Y-21855D01*
X68513Y-21884D01*
X68474Y-21922D01*
X68436Y-21884D01*
X68365Y-21855D01*
X68289Y-21855D01*
X68218Y-21884D01*
X68164Y-21938D01*
X68135Y-22009D01*
X68135Y-22085D01*
X68164Y-22156D01*
X68218Y-22210D01*
X68289Y-22239D01*
X68365Y-22239D01*
X68436Y-22210D01*
X68474Y-22171D01*
X68513Y-22210D01*
X68584Y-22239D01*
X68660Y-22239D01*
X68731Y-22210D01*
X68760Y-22181D01*
X68789Y-22210D01*
X68860Y-22239D01*
X68936Y-22239D01*
X69007Y-22210D01*
X69035Y-22181D01*
X69064Y-22210D01*
X69135Y-22239D01*
X69211Y-22239D01*
X69282Y-22210D01*
X69311Y-22181D01*
X69340Y-22210D01*
X69411Y-22239D01*
X69487Y-22239D01*
X69558Y-22210D01*
X69612Y-22156D01*
X69641Y-22085D01*
X69641Y-22082D01*
X70217Y-22082D01*
X70217Y-25140D01*
X70217Y-25140D01*
G37*
G54D22*
X70217Y-25140D02*
X70192Y-25165D01*
X70192Y-24290D01*
X70192Y-24214D01*
X70163Y-24143D01*
X70109Y-24089D01*
X70038Y-24060D01*
X69962Y-24060D01*
X69891Y-24089D01*
X69837Y-24143D01*
X69808Y-24214D01*
X69808Y-24290D01*
X69837Y-24361D01*
X69891Y-24415D01*
X69962Y-24444D01*
X70038Y-24444D01*
X70109Y-24415D01*
X70163Y-24361D01*
X70192Y-24290D01*
X70192Y-25165D01*
X69168Y-26189D01*
X69168Y-24920D01*
X69168Y-24844D01*
X69139Y-24773D01*
X69085Y-24719D01*
X69014Y-24690D01*
X68938Y-24690D01*
X68867Y-24719D01*
X68813Y-24773D01*
X68784Y-24844D01*
X68784Y-24920D01*
X68813Y-24991D01*
X68867Y-25045D01*
X68938Y-25074D01*
X69014Y-25074D01*
X69085Y-25045D01*
X69139Y-24991D01*
X69168Y-24920D01*
X69168Y-26189D01*
X69014Y-26343D01*
X68617Y-26343D01*
X68617Y-24999D01*
X68617Y-24923D01*
X68617Y-23384D01*
X68617Y-23308D01*
X68588Y-23237D01*
X68534Y-23183D01*
X68463Y-23154D01*
X68387Y-23154D01*
X68316Y-23183D01*
X68262Y-23237D01*
X68233Y-23308D01*
X68233Y-23384D01*
X68262Y-23455D01*
X68316Y-23509D01*
X68387Y-23538D01*
X68463Y-23538D01*
X68534Y-23509D01*
X68588Y-23455D01*
X68617Y-23384D01*
X68617Y-24923D01*
X68588Y-24852D01*
X68534Y-24798D01*
X68463Y-24769D01*
X68387Y-24769D01*
X68316Y-24798D01*
X68303Y-24811D01*
X68303Y-23699D01*
X68303Y-23623D01*
X68274Y-23552D01*
X68220Y-23498D01*
X68149Y-23469D01*
X68106Y-23469D01*
X68106Y-23427D01*
X68077Y-23356D01*
X68023Y-23302D01*
X67952Y-23273D01*
X67876Y-23273D01*
X67805Y-23302D01*
X67751Y-23356D01*
X67722Y-23427D01*
X67722Y-23503D01*
X67751Y-23574D01*
X67805Y-23628D01*
X67876Y-23657D01*
X67919Y-23657D01*
X67919Y-23666D01*
X67875Y-23666D01*
X67804Y-23695D01*
X67750Y-23749D01*
X67721Y-23820D01*
X67721Y-23896D01*
X67750Y-23967D01*
X67804Y-24021D01*
X67875Y-24050D01*
X67951Y-24050D01*
X68022Y-24021D01*
X68076Y-23967D01*
X68105Y-23896D01*
X68105Y-23853D01*
X68149Y-23853D01*
X68220Y-23824D01*
X68274Y-23770D01*
X68303Y-23699D01*
X68303Y-24811D01*
X68262Y-24852D01*
X68233Y-24923D01*
X68233Y-24999D01*
X68262Y-25070D01*
X68316Y-25124D01*
X68387Y-25153D01*
X68463Y-25153D01*
X68534Y-25124D01*
X68588Y-25070D01*
X68617Y-24999D01*
X68617Y-26343D01*
X67593Y-26343D01*
X67593Y-25018D01*
X67593Y-24942D01*
X67583Y-24917D01*
X67583Y-20331D01*
X67583Y-20211D01*
X67537Y-20100D01*
X67452Y-20016D01*
X67342Y-19970D01*
X67222Y-19970D01*
X67111Y-20016D01*
X67027Y-20101D01*
X66981Y-20211D01*
X66981Y-20331D01*
X67027Y-20442D01*
X67112Y-20526D01*
X67222Y-20572D01*
X67342Y-20572D01*
X67453Y-20526D01*
X67537Y-20441D01*
X67583Y-20331D01*
X67583Y-24917D01*
X67564Y-24871D01*
X67510Y-24817D01*
X67468Y-24799D01*
X67468Y-24297D01*
X67468Y-24208D01*
X67434Y-24126D01*
X67372Y-24063D01*
X67352Y-24054D01*
X67371Y-24047D01*
X67434Y-23985D01*
X67468Y-23903D01*
X67468Y-23814D01*
X67434Y-23732D01*
X67372Y-23669D01*
X67352Y-23660D01*
X67371Y-23653D01*
X67434Y-23591D01*
X67468Y-23509D01*
X67468Y-23420D01*
X67434Y-23338D01*
X67372Y-23275D01*
X67290Y-23241D01*
X67239Y-23241D01*
X67239Y-22833D01*
X67239Y-22757D01*
X67210Y-22686D01*
X67156Y-22632D01*
X67085Y-22603D01*
X67009Y-22603D01*
X66955Y-22625D01*
X66955Y-19734D01*
X66955Y-19613D01*
X66909Y-19501D01*
X66823Y-19415D01*
X66711Y-19368D01*
X66590Y-19368D01*
X66478Y-19414D01*
X66392Y-19500D01*
X66345Y-19612D01*
X66345Y-19656D01*
X66329Y-19640D01*
X66258Y-19611D01*
X66182Y-19611D01*
X66111Y-19640D01*
X66057Y-19694D01*
X66028Y-19765D01*
X66028Y-19841D01*
X66057Y-19912D01*
X66111Y-19966D01*
X66182Y-19995D01*
X66258Y-19995D01*
X66329Y-19966D01*
X66383Y-19912D01*
X66404Y-19858D01*
X66477Y-19931D01*
X66589Y-19978D01*
X66710Y-19978D01*
X66822Y-19932D01*
X66908Y-19846D01*
X66955Y-19734D01*
X66955Y-22625D01*
X66938Y-22632D01*
X66885Y-22685D01*
X66885Y-20747D01*
X66885Y-20671D01*
X66885Y-20274D01*
X66885Y-20198D01*
X66856Y-20127D01*
X66802Y-20073D01*
X66731Y-20044D01*
X66655Y-20044D01*
X66584Y-20073D01*
X66530Y-20127D01*
X66501Y-20198D01*
X66501Y-20274D01*
X66530Y-20345D01*
X66584Y-20399D01*
X66655Y-20428D01*
X66731Y-20428D01*
X66802Y-20399D01*
X66856Y-20345D01*
X66885Y-20274D01*
X66885Y-20671D01*
X66856Y-20600D01*
X66802Y-20546D01*
X66731Y-20517D01*
X66655Y-20517D01*
X66584Y-20546D01*
X66530Y-20600D01*
X66501Y-20671D01*
X66501Y-20747D01*
X66530Y-20818D01*
X66584Y-20872D01*
X66655Y-20901D01*
X66731Y-20901D01*
X66802Y-20872D01*
X66856Y-20818D01*
X66885Y-20747D01*
X66885Y-22685D01*
X66884Y-22686D01*
X66855Y-22757D01*
X66855Y-22833D01*
X66884Y-22904D01*
X66938Y-22958D01*
X67009Y-22987D01*
X67085Y-22987D01*
X67156Y-22958D01*
X67210Y-22904D01*
X67239Y-22833D01*
X67239Y-23241D01*
X67201Y-23241D01*
X67119Y-23275D01*
X67056Y-23337D01*
X67047Y-23356D01*
X67040Y-23338D01*
X66978Y-23275D01*
X66896Y-23241D01*
X66807Y-23241D01*
X66725Y-23275D01*
X66662Y-23337D01*
X66653Y-23356D01*
X66649Y-23345D01*
X66649Y-22558D01*
X66649Y-22482D01*
X66620Y-22411D01*
X66566Y-22357D01*
X66495Y-22328D01*
X66419Y-22328D01*
X66348Y-22357D01*
X66294Y-22411D01*
X66265Y-22482D01*
X66265Y-22558D01*
X66294Y-22629D01*
X66348Y-22683D01*
X66419Y-22712D01*
X66495Y-22712D01*
X66566Y-22683D01*
X66620Y-22629D01*
X66649Y-22558D01*
X66649Y-23345D01*
X66646Y-23338D01*
X66584Y-23275D01*
X66502Y-23241D01*
X66413Y-23241D01*
X66331Y-23275D01*
X66268Y-23337D01*
X66234Y-23419D01*
X66234Y-23508D01*
X66268Y-23590D01*
X66330Y-23653D01*
X66349Y-23661D01*
X66331Y-23669D01*
X66268Y-23731D01*
X66234Y-23813D01*
X66234Y-23902D01*
X66268Y-23984D01*
X66330Y-24047D01*
X66349Y-24055D01*
X66331Y-24063D01*
X66268Y-24125D01*
X66234Y-24207D01*
X66234Y-24296D01*
X66268Y-24378D01*
X66330Y-24441D01*
X66412Y-24475D01*
X66501Y-24475D01*
X66583Y-24441D01*
X66646Y-24379D01*
X66654Y-24359D01*
X66662Y-24378D01*
X66724Y-24441D01*
X66806Y-24475D01*
X66895Y-24475D01*
X66977Y-24441D01*
X67040Y-24379D01*
X67048Y-24359D01*
X67056Y-24378D01*
X67118Y-24441D01*
X67200Y-24475D01*
X67289Y-24475D01*
X67371Y-24441D01*
X67434Y-24379D01*
X67468Y-24297D01*
X67468Y-24799D01*
X67439Y-24788D01*
X67363Y-24788D01*
X67292Y-24817D01*
X67238Y-24871D01*
X67209Y-24942D01*
X67209Y-25018D01*
X67238Y-25089D01*
X67292Y-25143D01*
X67363Y-25172D01*
X67439Y-25172D01*
X67510Y-25143D01*
X67564Y-25089D01*
X67593Y-25018D01*
X67593Y-26343D01*
X67318Y-26343D01*
X67318Y-25865D01*
X67318Y-25789D01*
X67289Y-25718D01*
X67235Y-25664D01*
X67164Y-25635D01*
X67088Y-25635D01*
X67042Y-25653D01*
X67042Y-25235D01*
X67042Y-25159D01*
X67013Y-25088D01*
X66964Y-25039D01*
X67013Y-24991D01*
X67042Y-24920D01*
X67042Y-24844D01*
X67013Y-24773D01*
X66959Y-24719D01*
X66888Y-24690D01*
X66812Y-24690D01*
X66741Y-24719D01*
X66687Y-24773D01*
X66658Y-24844D01*
X66658Y-24920D01*
X66687Y-24991D01*
X66735Y-25039D01*
X66687Y-25088D01*
X66658Y-25159D01*
X66658Y-25235D01*
X66687Y-25306D01*
X66741Y-25360D01*
X66812Y-25389D01*
X66888Y-25389D01*
X66959Y-25360D01*
X67013Y-25306D01*
X67042Y-25235D01*
X67042Y-25653D01*
X67017Y-25664D01*
X66963Y-25718D01*
X66934Y-25789D01*
X66934Y-25865D01*
X66963Y-25936D01*
X67017Y-25990D01*
X67088Y-26019D01*
X67164Y-26019D01*
X67235Y-25990D01*
X67289Y-25936D01*
X67318Y-25865D01*
X67318Y-26343D01*
X66767Y-26343D01*
X66767Y-25865D01*
X66767Y-25789D01*
X66738Y-25718D01*
X66684Y-25664D01*
X66613Y-25635D01*
X66537Y-25635D01*
X66466Y-25664D01*
X66412Y-25718D01*
X66383Y-25789D01*
X66383Y-25865D01*
X66412Y-25936D01*
X66466Y-25990D01*
X66537Y-26019D01*
X66613Y-26019D01*
X66684Y-25990D01*
X66738Y-25936D01*
X66767Y-25865D01*
X66767Y-26343D01*
X66137Y-26343D01*
X66137Y-25628D01*
X66137Y-25552D01*
X66137Y-25235D01*
X66137Y-25159D01*
X66108Y-25088D01*
X66054Y-25034D01*
X65983Y-25005D01*
X65907Y-25005D01*
X65836Y-25034D01*
X65782Y-25088D01*
X65753Y-25159D01*
X65753Y-25235D01*
X65782Y-25306D01*
X65836Y-25360D01*
X65907Y-25389D01*
X65983Y-25389D01*
X66054Y-25360D01*
X66108Y-25306D01*
X66137Y-25235D01*
X66137Y-25552D01*
X66108Y-25481D01*
X66054Y-25427D01*
X65983Y-25398D01*
X65907Y-25398D01*
X65836Y-25427D01*
X65782Y-25481D01*
X65753Y-25552D01*
X65753Y-25628D01*
X65782Y-25699D01*
X65836Y-25753D01*
X65907Y-25782D01*
X65983Y-25782D01*
X66054Y-25753D01*
X66108Y-25699D01*
X66137Y-25628D01*
X66137Y-26343D01*
X65665Y-26343D01*
X65665Y-24559D01*
X65718Y-24612D01*
X65789Y-24641D01*
X65865Y-24641D01*
X65936Y-24612D01*
X65990Y-24558D01*
X66019Y-24487D01*
X66019Y-24411D01*
X65990Y-24340D01*
X65936Y-24286D01*
X65865Y-24257D01*
X65789Y-24257D01*
X65718Y-24286D01*
X65665Y-24339D01*
X65665Y-24165D01*
X65718Y-24218D01*
X65789Y-24247D01*
X65865Y-24247D01*
X65936Y-24218D01*
X65990Y-24164D01*
X66019Y-24093D01*
X66019Y-24017D01*
X65990Y-23946D01*
X65936Y-23892D01*
X65865Y-23863D01*
X65789Y-23863D01*
X65718Y-23892D01*
X65665Y-23945D01*
X65665Y-23220D01*
X65718Y-23273D01*
X65789Y-23302D01*
X65865Y-23302D01*
X65936Y-23273D01*
X65990Y-23219D01*
X66019Y-23148D01*
X66019Y-23072D01*
X65990Y-23001D01*
X65936Y-22947D01*
X65865Y-22918D01*
X65789Y-22918D01*
X65718Y-22947D01*
X65665Y-23000D01*
X65665Y-22992D01*
X65884Y-22774D01*
X65884Y-22773D01*
X65926Y-22711D01*
X65940Y-22638D01*
X65941Y-22637D01*
X65941Y-22087D01*
X65926Y-22013D01*
X65884Y-21951D01*
X65884Y-21950D01*
X65665Y-21731D01*
X65665Y-21260D01*
X65665Y-20946D01*
X65845Y-20767D01*
X65845Y-20766D01*
X65871Y-20728D01*
X65871Y-20747D01*
X65900Y-20818D01*
X65954Y-20872D01*
X66025Y-20901D01*
X66101Y-20901D01*
X66172Y-20872D01*
X66226Y-20818D01*
X66255Y-20747D01*
X66255Y-20671D01*
X66226Y-20600D01*
X66172Y-20546D01*
X66101Y-20517D01*
X66025Y-20517D01*
X65954Y-20546D01*
X65902Y-20598D01*
X65902Y-20347D01*
X65954Y-20399D01*
X66025Y-20428D01*
X66101Y-20428D01*
X66172Y-20399D01*
X66226Y-20345D01*
X66255Y-20274D01*
X66255Y-20198D01*
X66226Y-20127D01*
X66172Y-20073D01*
X66101Y-20044D01*
X66025Y-20044D01*
X65954Y-20073D01*
X65902Y-20125D01*
X65902Y-19326D01*
X68680Y-19326D01*
X68863Y-19509D01*
X68863Y-19936D01*
X68769Y-19897D01*
X68540Y-19897D01*
X68329Y-19984D01*
X68167Y-20146D01*
X68079Y-20357D01*
X68079Y-20586D01*
X68166Y-20797D01*
X68201Y-20832D01*
X68151Y-20832D01*
X68080Y-20861D01*
X68026Y-20915D01*
X67997Y-20986D01*
X67997Y-21062D01*
X68026Y-21133D01*
X68080Y-21187D01*
X68151Y-21216D01*
X68227Y-21216D01*
X68298Y-21187D01*
X68352Y-21133D01*
X68381Y-21062D01*
X68381Y-20986D01*
X68378Y-20980D01*
X68539Y-21047D01*
X68768Y-21047D01*
X68863Y-21007D01*
X68863Y-21855D01*
X68860Y-21855D01*
X68789Y-21884D01*
X68760Y-21913D01*
X68731Y-21884D01*
X68660Y-21855D01*
X68584Y-21855D01*
X68513Y-21884D01*
X68474Y-21922D01*
X68436Y-21884D01*
X68365Y-21855D01*
X68289Y-21855D01*
X68218Y-21884D01*
X68164Y-21938D01*
X68135Y-22009D01*
X68135Y-22085D01*
X68164Y-22156D01*
X68218Y-22210D01*
X68289Y-22239D01*
X68365Y-22239D01*
X68436Y-22210D01*
X68474Y-22171D01*
X68513Y-22210D01*
X68584Y-22239D01*
X68660Y-22239D01*
X68731Y-22210D01*
X68760Y-22181D01*
X68789Y-22210D01*
X68860Y-22239D01*
X68936Y-22239D01*
X69007Y-22210D01*
X69035Y-22181D01*
X69064Y-22210D01*
X69135Y-22239D01*
X69211Y-22239D01*
X69282Y-22210D01*
X69311Y-22181D01*
X69340Y-22210D01*
X69411Y-22239D01*
X69487Y-22239D01*
X69558Y-22210D01*
X69612Y-22156D01*
X69641Y-22085D01*
X69641Y-22082D01*
X70217Y-22082D01*
X70217Y-25140D01*
G54D10*
G36*
X40752Y-26343D02*
X40401Y-26343D01*
X40401Y-19017D01*
X40401Y-18916D01*
X40363Y-18823D01*
X40291Y-18751D01*
X40198Y-18712D01*
X40097Y-18712D01*
X40096Y-18712D01*
X40096Y-18611D01*
X40058Y-18518D01*
X39986Y-18446D01*
X39893Y-18407D01*
X39792Y-18407D01*
X39699Y-18445D01*
X39627Y-18517D01*
X39588Y-18610D01*
X39588Y-18711D01*
X39626Y-18804D01*
X39698Y-18876D01*
X39791Y-18915D01*
X39892Y-18915D01*
X39893Y-18914D01*
X39893Y-18915D01*
X39893Y-19016D01*
X39931Y-19109D01*
X40003Y-19181D01*
X40096Y-19220D01*
X40197Y-19220D01*
X40290Y-19182D01*
X40362Y-19110D01*
X40401Y-19017D01*
X40401Y-26343D01*
X40349Y-26343D01*
X40349Y-23936D01*
X40349Y-23860D01*
X40349Y-20353D01*
X40349Y-20277D01*
X40333Y-20237D01*
X40333Y-19697D01*
X40333Y-19596D01*
X40295Y-19503D01*
X40223Y-19431D01*
X40130Y-19392D01*
X40029Y-19392D01*
X39936Y-19430D01*
X39878Y-19488D01*
X39873Y-19483D01*
X39802Y-19454D01*
X39726Y-19454D01*
X39655Y-19483D01*
X39601Y-19537D01*
X39572Y-19608D01*
X39572Y-19684D01*
X39601Y-19755D01*
X39655Y-19809D01*
X39726Y-19838D01*
X39802Y-19838D01*
X39873Y-19809D01*
X39878Y-19804D01*
X39935Y-19861D01*
X40028Y-19900D01*
X40129Y-19900D01*
X40222Y-19862D01*
X40294Y-19790D01*
X40333Y-19697D01*
X40333Y-20237D01*
X40320Y-20206D01*
X40266Y-20152D01*
X40195Y-20123D01*
X40119Y-20123D01*
X40048Y-20152D01*
X39994Y-20206D01*
X39965Y-20277D01*
X39965Y-20353D01*
X39993Y-20422D01*
X39986Y-20415D01*
X39893Y-20376D01*
X39792Y-20376D01*
X39699Y-20414D01*
X39659Y-20453D01*
X39663Y-20445D01*
X39663Y-20344D01*
X39625Y-20251D01*
X39553Y-20179D01*
X39460Y-20140D01*
X39359Y-20140D01*
X39266Y-20178D01*
X39205Y-20239D01*
X39205Y-20096D01*
X39205Y-20020D01*
X39176Y-19949D01*
X39122Y-19895D01*
X39051Y-19866D01*
X38981Y-19866D01*
X39008Y-19801D01*
X39008Y-19725D01*
X38981Y-19660D01*
X39051Y-19660D01*
X39122Y-19631D01*
X39176Y-19577D01*
X39205Y-19506D01*
X39205Y-19430D01*
X39176Y-19359D01*
X39122Y-19305D01*
X39051Y-19276D01*
X38975Y-19276D01*
X38904Y-19305D01*
X38850Y-19359D01*
X38821Y-19430D01*
X38821Y-19506D01*
X38847Y-19571D01*
X38784Y-19571D01*
X38811Y-19506D01*
X38811Y-19430D01*
X38782Y-19359D01*
X38728Y-19305D01*
X38657Y-19276D01*
X38581Y-19276D01*
X38510Y-19305D01*
X38456Y-19359D01*
X38427Y-19430D01*
X38427Y-19506D01*
X38456Y-19577D01*
X38510Y-19631D01*
X38581Y-19660D01*
X38650Y-19660D01*
X38624Y-19725D01*
X38624Y-19801D01*
X38650Y-19866D01*
X38581Y-19866D01*
X38510Y-19895D01*
X38456Y-19949D01*
X38427Y-20020D01*
X38427Y-20096D01*
X38456Y-20167D01*
X38510Y-20221D01*
X38581Y-20250D01*
X38657Y-20250D01*
X38728Y-20221D01*
X38782Y-20167D01*
X38811Y-20096D01*
X38811Y-20020D01*
X38784Y-19955D01*
X38847Y-19955D01*
X38821Y-20020D01*
X38821Y-20096D01*
X38850Y-20167D01*
X38904Y-20221D01*
X38975Y-20250D01*
X39051Y-20250D01*
X39122Y-20221D01*
X39176Y-20167D01*
X39205Y-20096D01*
X39205Y-20239D01*
X39194Y-20250D01*
X39155Y-20343D01*
X39155Y-20444D01*
X39193Y-20537D01*
X39265Y-20609D01*
X39358Y-20648D01*
X39459Y-20648D01*
X39552Y-20610D01*
X39591Y-20570D01*
X39588Y-20579D01*
X39588Y-20680D01*
X39626Y-20773D01*
X39698Y-20845D01*
X39791Y-20884D01*
X39892Y-20884D01*
X39985Y-20846D01*
X40057Y-20774D01*
X40096Y-20681D01*
X40096Y-20580D01*
X40058Y-20487D01*
X40049Y-20478D01*
X40119Y-20507D01*
X40195Y-20507D01*
X40266Y-20478D01*
X40320Y-20424D01*
X40349Y-20353D01*
X40349Y-23860D01*
X40320Y-23789D01*
X40266Y-23735D01*
X40195Y-23706D01*
X40119Y-23706D01*
X40105Y-23711D01*
X40105Y-22194D01*
X40105Y-21902D01*
X39994Y-21632D01*
X39787Y-21425D01*
X39517Y-21312D01*
X39225Y-21312D01*
X38955Y-21423D01*
X38748Y-21630D01*
X38635Y-21900D01*
X38635Y-22192D01*
X38746Y-22462D01*
X38953Y-22669D01*
X39223Y-22782D01*
X39515Y-22782D01*
X39785Y-22671D01*
X39992Y-22464D01*
X40105Y-22194D01*
X40105Y-23711D01*
X40048Y-23735D01*
X39994Y-23789D01*
X39965Y-23860D01*
X39965Y-23936D01*
X39994Y-24007D01*
X40048Y-24061D01*
X40119Y-24090D01*
X40195Y-24090D01*
X40266Y-24061D01*
X40320Y-24007D01*
X40349Y-23936D01*
X40349Y-26343D01*
X39995Y-26343D01*
X39995Y-25471D01*
X39995Y-25395D01*
X39966Y-25324D01*
X39912Y-25270D01*
X39841Y-25241D01*
X39765Y-25241D01*
X39694Y-25270D01*
X39640Y-25324D01*
X39611Y-25395D01*
X39611Y-25471D01*
X39640Y-25542D01*
X39694Y-25596D01*
X39765Y-25625D01*
X39841Y-25625D01*
X39912Y-25596D01*
X39966Y-25542D01*
X39995Y-25471D01*
X39995Y-26343D01*
X39562Y-26343D01*
X39562Y-23936D01*
X39562Y-23860D01*
X39533Y-23789D01*
X39479Y-23735D01*
X39408Y-23706D01*
X39332Y-23706D01*
X39261Y-23735D01*
X39207Y-23789D01*
X39178Y-23860D01*
X39178Y-23936D01*
X39207Y-24007D01*
X39261Y-24061D01*
X39332Y-24090D01*
X39408Y-24090D01*
X39479Y-24061D01*
X39533Y-24007D01*
X39562Y-23936D01*
X39562Y-26343D01*
X39168Y-26343D01*
X39168Y-23936D01*
X39168Y-23860D01*
X39139Y-23789D01*
X39085Y-23735D01*
X39014Y-23706D01*
X38938Y-23706D01*
X38867Y-23735D01*
X38813Y-23789D01*
X38784Y-23860D01*
X38784Y-23936D01*
X38813Y-24007D01*
X38867Y-24061D01*
X38938Y-24090D01*
X39014Y-24090D01*
X39085Y-24061D01*
X39139Y-24007D01*
X39168Y-23936D01*
X39168Y-26343D01*
X38853Y-26343D01*
X38853Y-24644D01*
X38853Y-24568D01*
X38824Y-24497D01*
X38770Y-24443D01*
X38699Y-24414D01*
X38623Y-24414D01*
X38552Y-24443D01*
X38498Y-24497D01*
X38469Y-24568D01*
X38469Y-24644D01*
X38498Y-24715D01*
X38552Y-24769D01*
X38623Y-24798D01*
X38699Y-24798D01*
X38770Y-24769D01*
X38824Y-24715D01*
X38853Y-24644D01*
X38853Y-26343D01*
X38513Y-26343D01*
X38451Y-26281D01*
X38448Y-26279D01*
X38450Y-26279D01*
X38522Y-26207D01*
X38561Y-26114D01*
X38561Y-26013D01*
X38523Y-25920D01*
X38451Y-25848D01*
X38399Y-25826D01*
X38450Y-25806D01*
X38522Y-25734D01*
X38561Y-25641D01*
X38561Y-25540D01*
X38523Y-25447D01*
X38451Y-25375D01*
X38448Y-25373D01*
X38450Y-25373D01*
X38522Y-25301D01*
X38561Y-25208D01*
X38561Y-25107D01*
X38523Y-25014D01*
X38451Y-24942D01*
X38358Y-24903D01*
X38257Y-24903D01*
X38164Y-24941D01*
X38105Y-25000D01*
X38105Y-19684D01*
X38105Y-19608D01*
X38076Y-19537D01*
X38047Y-19508D01*
X38076Y-19479D01*
X38105Y-19408D01*
X38105Y-19332D01*
X38076Y-19261D01*
X38022Y-19207D01*
X37951Y-19178D01*
X37875Y-19178D01*
X37804Y-19207D01*
X37750Y-19261D01*
X37721Y-19332D01*
X37721Y-19408D01*
X37750Y-19479D01*
X37779Y-19508D01*
X37750Y-19537D01*
X37721Y-19608D01*
X37721Y-19684D01*
X37750Y-19755D01*
X37804Y-19809D01*
X37875Y-19838D01*
X37951Y-19838D01*
X38022Y-19809D01*
X38076Y-19755D01*
X38105Y-19684D01*
X38105Y-25000D01*
X38092Y-25013D01*
X38090Y-25014D01*
X38018Y-24942D01*
X37987Y-24929D01*
X37987Y-20668D01*
X37987Y-20592D01*
X37958Y-20521D01*
X37904Y-20467D01*
X37833Y-20438D01*
X37757Y-20438D01*
X37686Y-20467D01*
X37632Y-20521D01*
X37603Y-20592D01*
X37603Y-20668D01*
X37632Y-20739D01*
X37686Y-20793D01*
X37757Y-20822D01*
X37833Y-20822D01*
X37904Y-20793D01*
X37958Y-20739D01*
X37987Y-20668D01*
X37987Y-24929D01*
X37925Y-24903D01*
X37824Y-24903D01*
X37731Y-24941D01*
X37659Y-25013D01*
X37620Y-25106D01*
X37620Y-25207D01*
X37658Y-25300D01*
X37730Y-25372D01*
X37732Y-25373D01*
X37731Y-25374D01*
X37659Y-25446D01*
X37620Y-25539D01*
X37620Y-25640D01*
X37658Y-25733D01*
X37730Y-25805D01*
X37781Y-25826D01*
X37731Y-25847D01*
X37659Y-25919D01*
X37620Y-26012D01*
X37620Y-26113D01*
X37658Y-26206D01*
X37730Y-26278D01*
X37732Y-26279D01*
X37731Y-26280D01*
X37668Y-26343D01*
X37585Y-26343D01*
X37585Y-22579D01*
X37585Y-22303D01*
X37479Y-22048D01*
X37284Y-21852D01*
X37028Y-21746D01*
X36752Y-21746D01*
X36497Y-21852D01*
X36301Y-22047D01*
X36195Y-22303D01*
X36195Y-22579D01*
X36301Y-22834D01*
X36496Y-23030D01*
X36752Y-23136D01*
X37028Y-23136D01*
X37283Y-23030D01*
X37479Y-22835D01*
X37585Y-22579D01*
X37585Y-26343D01*
X36404Y-26343D01*
X36404Y-24429D01*
X36404Y-24153D01*
X36298Y-23898D01*
X36103Y-23702D01*
X36058Y-23683D01*
X36058Y-18463D01*
X36058Y-18387D01*
X36029Y-18316D01*
X35975Y-18262D01*
X35904Y-18233D01*
X35828Y-18233D01*
X35757Y-18262D01*
X35703Y-18316D01*
X35674Y-18387D01*
X35674Y-18463D01*
X35703Y-18534D01*
X35757Y-18588D01*
X35828Y-18617D01*
X35904Y-18617D01*
X35975Y-18588D01*
X36029Y-18534D01*
X36058Y-18463D01*
X36058Y-23683D01*
X35847Y-23596D01*
X35571Y-23596D01*
X35316Y-23702D01*
X35223Y-23794D01*
X35223Y-22579D01*
X35223Y-22303D01*
X35117Y-22048D01*
X34922Y-21852D01*
X34666Y-21746D01*
X34562Y-21746D01*
X34562Y-18463D01*
X34562Y-18387D01*
X34533Y-18316D01*
X34479Y-18262D01*
X34408Y-18233D01*
X34332Y-18233D01*
X34261Y-18262D01*
X34207Y-18316D01*
X34178Y-18387D01*
X34178Y-18463D01*
X34207Y-18534D01*
X34261Y-18588D01*
X34332Y-18617D01*
X34408Y-18617D01*
X34479Y-18588D01*
X34533Y-18534D01*
X34562Y-18463D01*
X34562Y-21746D01*
X34390Y-21746D01*
X34135Y-21852D01*
X33939Y-22047D01*
X33833Y-22303D01*
X33833Y-22579D01*
X33939Y-22834D01*
X34134Y-23030D01*
X34390Y-23136D01*
X34666Y-23136D01*
X34921Y-23030D01*
X35117Y-22835D01*
X35223Y-22579D01*
X35223Y-23794D01*
X35120Y-23897D01*
X35014Y-24153D01*
X35014Y-24429D01*
X35120Y-24684D01*
X35315Y-24880D01*
X35571Y-24986D01*
X35847Y-24986D01*
X36102Y-24880D01*
X36298Y-24685D01*
X36404Y-24429D01*
X36404Y-26343D01*
X35743Y-26343D01*
X35743Y-25471D01*
X35743Y-25395D01*
X35714Y-25324D01*
X35660Y-25270D01*
X35589Y-25241D01*
X35513Y-25241D01*
X35442Y-25270D01*
X35388Y-25324D01*
X35359Y-25395D01*
X35359Y-25471D01*
X35388Y-25542D01*
X35442Y-25596D01*
X35513Y-25625D01*
X35589Y-25625D01*
X35660Y-25596D01*
X35714Y-25542D01*
X35743Y-25471D01*
X35743Y-26343D01*
X34942Y-26343D01*
X34892Y-26293D01*
X34821Y-26264D01*
X34795Y-26264D01*
X34798Y-26258D01*
X34798Y-26182D01*
X34795Y-26176D01*
X34821Y-26176D01*
X34892Y-26147D01*
X34946Y-26093D01*
X34975Y-26022D01*
X34975Y-25946D01*
X34946Y-25875D01*
X34892Y-25821D01*
X34821Y-25792D01*
X34745Y-25792D01*
X34674Y-25821D01*
X34620Y-25875D01*
X34606Y-25909D01*
X34592Y-25875D01*
X34538Y-25821D01*
X34467Y-25792D01*
X34391Y-25792D01*
X34320Y-25821D01*
X34266Y-25875D01*
X34237Y-25946D01*
X34237Y-26022D01*
X34266Y-26093D01*
X34320Y-26147D01*
X34391Y-26176D01*
X34416Y-26176D01*
X34414Y-26182D01*
X34414Y-26258D01*
X34416Y-26264D01*
X34391Y-26264D01*
X34320Y-26293D01*
X34270Y-26343D01*
X33971Y-26343D01*
X33971Y-25589D01*
X33971Y-25513D01*
X33942Y-25442D01*
X33888Y-25388D01*
X33817Y-25359D01*
X33806Y-25359D01*
X33806Y-19045D01*
X33806Y-18753D01*
X33695Y-18483D01*
X33488Y-18276D01*
X33218Y-18163D01*
X32926Y-18163D01*
X32656Y-18274D01*
X32449Y-18481D01*
X32336Y-18751D01*
X32336Y-19043D01*
X32447Y-19313D01*
X32654Y-19520D01*
X32924Y-19633D01*
X33216Y-19633D01*
X33486Y-19522D01*
X33693Y-19315D01*
X33806Y-19045D01*
X33806Y-25359D01*
X33741Y-25359D01*
X33670Y-25388D01*
X33616Y-25442D01*
X33587Y-25513D01*
X33587Y-25589D01*
X33616Y-25660D01*
X33670Y-25714D01*
X33741Y-25743D01*
X33817Y-25743D01*
X33888Y-25714D01*
X33942Y-25660D01*
X33971Y-25589D01*
X33971Y-26343D01*
X33823Y-26343D01*
X33823Y-35192D01*
X33791Y-35179D01*
X33690Y-35179D01*
X33676Y-35184D01*
X33676Y-32695D01*
X33676Y-32619D01*
X33647Y-32548D01*
X33593Y-32494D01*
X33522Y-32465D01*
X33446Y-32465D01*
X33375Y-32494D01*
X33321Y-32548D01*
X33294Y-32614D01*
X33294Y-22549D01*
X33294Y-22335D01*
X33212Y-22137D01*
X33061Y-21986D01*
X32864Y-21903D01*
X32650Y-21903D01*
X32452Y-21985D01*
X32301Y-22136D01*
X32218Y-22333D01*
X32218Y-22547D01*
X32300Y-22745D01*
X32451Y-22896D01*
X32648Y-22979D01*
X32862Y-22979D01*
X33060Y-22897D01*
X33211Y-22746D01*
X33294Y-22549D01*
X33294Y-32614D01*
X33292Y-32619D01*
X33292Y-32695D01*
X33321Y-32766D01*
X33375Y-32820D01*
X33446Y-32849D01*
X33522Y-32849D01*
X33593Y-32820D01*
X33647Y-32766D01*
X33676Y-32695D01*
X33676Y-35184D01*
X33597Y-35217D01*
X33525Y-35289D01*
X33486Y-35382D01*
X33486Y-35483D01*
X33524Y-35576D01*
X33596Y-35648D01*
X33689Y-35687D01*
X33790Y-35687D01*
X33823Y-35673D01*
X33823Y-36116D01*
X34847Y-37140D01*
X34847Y-38941D01*
X33561Y-38941D01*
X33561Y-38476D01*
X33561Y-38375D01*
X33561Y-37689D01*
X33561Y-37588D01*
X33523Y-37495D01*
X33451Y-37423D01*
X33364Y-37386D01*
X33364Y-34539D01*
X33364Y-34438D01*
X33326Y-34345D01*
X33292Y-34311D01*
X33325Y-34278D01*
X33364Y-34185D01*
X33364Y-34084D01*
X33326Y-33991D01*
X33291Y-33956D01*
X33325Y-33923D01*
X33364Y-33830D01*
X33364Y-33729D01*
X33326Y-33636D01*
X33254Y-33564D01*
X33161Y-33525D01*
X33060Y-33525D01*
X32967Y-33563D01*
X32948Y-33582D01*
X32948Y-32695D01*
X32948Y-32619D01*
X32919Y-32548D01*
X32865Y-32494D01*
X32794Y-32465D01*
X32718Y-32465D01*
X32647Y-32494D01*
X32593Y-32548D01*
X32564Y-32619D01*
X32564Y-32695D01*
X32593Y-32766D01*
X32647Y-32820D01*
X32718Y-32849D01*
X32794Y-32849D01*
X32865Y-32820D01*
X32919Y-32766D01*
X32948Y-32695D01*
X32948Y-33582D01*
X32895Y-33635D01*
X32856Y-33728D01*
X32856Y-33829D01*
X32894Y-33922D01*
X32928Y-33956D01*
X32895Y-33990D01*
X32856Y-34083D01*
X32856Y-34184D01*
X32894Y-34277D01*
X32928Y-34311D01*
X32895Y-34344D01*
X32856Y-34437D01*
X32856Y-34538D01*
X32894Y-34631D01*
X32966Y-34703D01*
X33059Y-34742D01*
X33160Y-34742D01*
X33253Y-34704D01*
X33325Y-34632D01*
X33364Y-34539D01*
X33364Y-37386D01*
X33358Y-37384D01*
X33257Y-37384D01*
X33164Y-37422D01*
X33092Y-37494D01*
X33053Y-37587D01*
X33053Y-37688D01*
X33091Y-37781D01*
X33163Y-37853D01*
X33256Y-37892D01*
X33357Y-37892D01*
X33450Y-37854D01*
X33522Y-37782D01*
X33561Y-37689D01*
X33561Y-38375D01*
X33523Y-38282D01*
X33451Y-38210D01*
X33358Y-38171D01*
X33257Y-38171D01*
X33164Y-38209D01*
X33092Y-38281D01*
X33053Y-38374D01*
X33053Y-38475D01*
X33091Y-38568D01*
X33163Y-38640D01*
X33256Y-38679D01*
X33357Y-38679D01*
X33450Y-38641D01*
X33522Y-38569D01*
X33561Y-38476D01*
X33561Y-38941D01*
X31676Y-38941D01*
X31676Y-36997D01*
X31795Y-37117D01*
X31971Y-37190D01*
X32162Y-37190D01*
X32338Y-37117D01*
X32473Y-36983D01*
X32546Y-36807D01*
X32546Y-36616D01*
X32473Y-36440D01*
X32339Y-36305D01*
X32163Y-36232D01*
X31972Y-36232D01*
X31796Y-36305D01*
X31676Y-36424D01*
X31676Y-32056D01*
X31795Y-32176D01*
X31971Y-32249D01*
X32162Y-32249D01*
X32338Y-32176D01*
X32473Y-32042D01*
X32546Y-31866D01*
X32546Y-31675D01*
X32473Y-31499D01*
X32339Y-31364D01*
X32163Y-31291D01*
X31972Y-31291D01*
X31796Y-31364D01*
X31676Y-31483D01*
X31676Y-18917D01*
X31786Y-18364D01*
X32085Y-17915D01*
X32538Y-17612D01*
X33085Y-17503D01*
X40752Y-17503D01*
X40752Y-22738D01*
X40698Y-22738D01*
X40605Y-22776D01*
X40533Y-22848D01*
X40494Y-22941D01*
X40494Y-23042D01*
X40532Y-23135D01*
X40604Y-23207D01*
X40697Y-23246D01*
X40752Y-23246D01*
X40752Y-26343D01*
X40752Y-26343D01*
G37*
G54D22*
X40752Y-26343D02*
X40401Y-26343D01*
X40401Y-19017D01*
X40401Y-18916D01*
X40363Y-18823D01*
X40291Y-18751D01*
X40198Y-18712D01*
X40097Y-18712D01*
X40096Y-18712D01*
X40096Y-18611D01*
X40058Y-18518D01*
X39986Y-18446D01*
X39893Y-18407D01*
X39792Y-18407D01*
X39699Y-18445D01*
X39627Y-18517D01*
X39588Y-18610D01*
X39588Y-18711D01*
X39626Y-18804D01*
X39698Y-18876D01*
X39791Y-18915D01*
X39892Y-18915D01*
X39893Y-18914D01*
X39893Y-18915D01*
X39893Y-19016D01*
X39931Y-19109D01*
X40003Y-19181D01*
X40096Y-19220D01*
X40197Y-19220D01*
X40290Y-19182D01*
X40362Y-19110D01*
X40401Y-19017D01*
X40401Y-26343D01*
X40349Y-26343D01*
X40349Y-23936D01*
X40349Y-23860D01*
X40349Y-20353D01*
X40349Y-20277D01*
X40333Y-20237D01*
X40333Y-19697D01*
X40333Y-19596D01*
X40295Y-19503D01*
X40223Y-19431D01*
X40130Y-19392D01*
X40029Y-19392D01*
X39936Y-19430D01*
X39878Y-19488D01*
X39873Y-19483D01*
X39802Y-19454D01*
X39726Y-19454D01*
X39655Y-19483D01*
X39601Y-19537D01*
X39572Y-19608D01*
X39572Y-19684D01*
X39601Y-19755D01*
X39655Y-19809D01*
X39726Y-19838D01*
X39802Y-19838D01*
X39873Y-19809D01*
X39878Y-19804D01*
X39935Y-19861D01*
X40028Y-19900D01*
X40129Y-19900D01*
X40222Y-19862D01*
X40294Y-19790D01*
X40333Y-19697D01*
X40333Y-20237D01*
X40320Y-20206D01*
X40266Y-20152D01*
X40195Y-20123D01*
X40119Y-20123D01*
X40048Y-20152D01*
X39994Y-20206D01*
X39965Y-20277D01*
X39965Y-20353D01*
X39993Y-20422D01*
X39986Y-20415D01*
X39893Y-20376D01*
X39792Y-20376D01*
X39699Y-20414D01*
X39659Y-20453D01*
X39663Y-20445D01*
X39663Y-20344D01*
X39625Y-20251D01*
X39553Y-20179D01*
X39460Y-20140D01*
X39359Y-20140D01*
X39266Y-20178D01*
X39205Y-20239D01*
X39205Y-20096D01*
X39205Y-20020D01*
X39176Y-19949D01*
X39122Y-19895D01*
X39051Y-19866D01*
X38981Y-19866D01*
X39008Y-19801D01*
X39008Y-19725D01*
X38981Y-19660D01*
X39051Y-19660D01*
X39122Y-19631D01*
X39176Y-19577D01*
X39205Y-19506D01*
X39205Y-19430D01*
X39176Y-19359D01*
X39122Y-19305D01*
X39051Y-19276D01*
X38975Y-19276D01*
X38904Y-19305D01*
X38850Y-19359D01*
X38821Y-19430D01*
X38821Y-19506D01*
X38847Y-19571D01*
X38784Y-19571D01*
X38811Y-19506D01*
X38811Y-19430D01*
X38782Y-19359D01*
X38728Y-19305D01*
X38657Y-19276D01*
X38581Y-19276D01*
X38510Y-19305D01*
X38456Y-19359D01*
X38427Y-19430D01*
X38427Y-19506D01*
X38456Y-19577D01*
X38510Y-19631D01*
X38581Y-19660D01*
X38650Y-19660D01*
X38624Y-19725D01*
X38624Y-19801D01*
X38650Y-19866D01*
X38581Y-19866D01*
X38510Y-19895D01*
X38456Y-19949D01*
X38427Y-20020D01*
X38427Y-20096D01*
X38456Y-20167D01*
X38510Y-20221D01*
X38581Y-20250D01*
X38657Y-20250D01*
X38728Y-20221D01*
X38782Y-20167D01*
X38811Y-20096D01*
X38811Y-20020D01*
X38784Y-19955D01*
X38847Y-19955D01*
X38821Y-20020D01*
X38821Y-20096D01*
X38850Y-20167D01*
X38904Y-20221D01*
X38975Y-20250D01*
X39051Y-20250D01*
X39122Y-20221D01*
X39176Y-20167D01*
X39205Y-20096D01*
X39205Y-20239D01*
X39194Y-20250D01*
X39155Y-20343D01*
X39155Y-20444D01*
X39193Y-20537D01*
X39265Y-20609D01*
X39358Y-20648D01*
X39459Y-20648D01*
X39552Y-20610D01*
X39591Y-20570D01*
X39588Y-20579D01*
X39588Y-20680D01*
X39626Y-20773D01*
X39698Y-20845D01*
X39791Y-20884D01*
X39892Y-20884D01*
X39985Y-20846D01*
X40057Y-20774D01*
X40096Y-20681D01*
X40096Y-20580D01*
X40058Y-20487D01*
X40049Y-20478D01*
X40119Y-20507D01*
X40195Y-20507D01*
X40266Y-20478D01*
X40320Y-20424D01*
X40349Y-20353D01*
X40349Y-23860D01*
X40320Y-23789D01*
X40266Y-23735D01*
X40195Y-23706D01*
X40119Y-23706D01*
X40105Y-23711D01*
X40105Y-22194D01*
X40105Y-21902D01*
X39994Y-21632D01*
X39787Y-21425D01*
X39517Y-21312D01*
X39225Y-21312D01*
X38955Y-21423D01*
X38748Y-21630D01*
X38635Y-21900D01*
X38635Y-22192D01*
X38746Y-22462D01*
X38953Y-22669D01*
X39223Y-22782D01*
X39515Y-22782D01*
X39785Y-22671D01*
X39992Y-22464D01*
X40105Y-22194D01*
X40105Y-23711D01*
X40048Y-23735D01*
X39994Y-23789D01*
X39965Y-23860D01*
X39965Y-23936D01*
X39994Y-24007D01*
X40048Y-24061D01*
X40119Y-24090D01*
X40195Y-24090D01*
X40266Y-24061D01*
X40320Y-24007D01*
X40349Y-23936D01*
X40349Y-26343D01*
X39995Y-26343D01*
X39995Y-25471D01*
X39995Y-25395D01*
X39966Y-25324D01*
X39912Y-25270D01*
X39841Y-25241D01*
X39765Y-25241D01*
X39694Y-25270D01*
X39640Y-25324D01*
X39611Y-25395D01*
X39611Y-25471D01*
X39640Y-25542D01*
X39694Y-25596D01*
X39765Y-25625D01*
X39841Y-25625D01*
X39912Y-25596D01*
X39966Y-25542D01*
X39995Y-25471D01*
X39995Y-26343D01*
X39562Y-26343D01*
X39562Y-23936D01*
X39562Y-23860D01*
X39533Y-23789D01*
X39479Y-23735D01*
X39408Y-23706D01*
X39332Y-23706D01*
X39261Y-23735D01*
X39207Y-23789D01*
X39178Y-23860D01*
X39178Y-23936D01*
X39207Y-24007D01*
X39261Y-24061D01*
X39332Y-24090D01*
X39408Y-24090D01*
X39479Y-24061D01*
X39533Y-24007D01*
X39562Y-23936D01*
X39562Y-26343D01*
X39168Y-26343D01*
X39168Y-23936D01*
X39168Y-23860D01*
X39139Y-23789D01*
X39085Y-23735D01*
X39014Y-23706D01*
X38938Y-23706D01*
X38867Y-23735D01*
X38813Y-23789D01*
X38784Y-23860D01*
X38784Y-23936D01*
X38813Y-24007D01*
X38867Y-24061D01*
X38938Y-24090D01*
X39014Y-24090D01*
X39085Y-24061D01*
X39139Y-24007D01*
X39168Y-23936D01*
X39168Y-26343D01*
X38853Y-26343D01*
X38853Y-24644D01*
X38853Y-24568D01*
X38824Y-24497D01*
X38770Y-24443D01*
X38699Y-24414D01*
X38623Y-24414D01*
X38552Y-24443D01*
X38498Y-24497D01*
X38469Y-24568D01*
X38469Y-24644D01*
X38498Y-24715D01*
X38552Y-24769D01*
X38623Y-24798D01*
X38699Y-24798D01*
X38770Y-24769D01*
X38824Y-24715D01*
X38853Y-24644D01*
X38853Y-26343D01*
X38513Y-26343D01*
X38451Y-26281D01*
X38448Y-26279D01*
X38450Y-26279D01*
X38522Y-26207D01*
X38561Y-26114D01*
X38561Y-26013D01*
X38523Y-25920D01*
X38451Y-25848D01*
X38399Y-25826D01*
X38450Y-25806D01*
X38522Y-25734D01*
X38561Y-25641D01*
X38561Y-25540D01*
X38523Y-25447D01*
X38451Y-25375D01*
X38448Y-25373D01*
X38450Y-25373D01*
X38522Y-25301D01*
X38561Y-25208D01*
X38561Y-25107D01*
X38523Y-25014D01*
X38451Y-24942D01*
X38358Y-24903D01*
X38257Y-24903D01*
X38164Y-24941D01*
X38105Y-25000D01*
X38105Y-19684D01*
X38105Y-19608D01*
X38076Y-19537D01*
X38047Y-19508D01*
X38076Y-19479D01*
X38105Y-19408D01*
X38105Y-19332D01*
X38076Y-19261D01*
X38022Y-19207D01*
X37951Y-19178D01*
X37875Y-19178D01*
X37804Y-19207D01*
X37750Y-19261D01*
X37721Y-19332D01*
X37721Y-19408D01*
X37750Y-19479D01*
X37779Y-19508D01*
X37750Y-19537D01*
X37721Y-19608D01*
X37721Y-19684D01*
X37750Y-19755D01*
X37804Y-19809D01*
X37875Y-19838D01*
X37951Y-19838D01*
X38022Y-19809D01*
X38076Y-19755D01*
X38105Y-19684D01*
X38105Y-25000D01*
X38092Y-25013D01*
X38090Y-25014D01*
X38018Y-24942D01*
X37987Y-24929D01*
X37987Y-20668D01*
X37987Y-20592D01*
X37958Y-20521D01*
X37904Y-20467D01*
X37833Y-20438D01*
X37757Y-20438D01*
X37686Y-20467D01*
X37632Y-20521D01*
X37603Y-20592D01*
X37603Y-20668D01*
X37632Y-20739D01*
X37686Y-20793D01*
X37757Y-20822D01*
X37833Y-20822D01*
X37904Y-20793D01*
X37958Y-20739D01*
X37987Y-20668D01*
X37987Y-24929D01*
X37925Y-24903D01*
X37824Y-24903D01*
X37731Y-24941D01*
X37659Y-25013D01*
X37620Y-25106D01*
X37620Y-25207D01*
X37658Y-25300D01*
X37730Y-25372D01*
X37732Y-25373D01*
X37731Y-25374D01*
X37659Y-25446D01*
X37620Y-25539D01*
X37620Y-25640D01*
X37658Y-25733D01*
X37730Y-25805D01*
X37781Y-25826D01*
X37731Y-25847D01*
X37659Y-25919D01*
X37620Y-26012D01*
X37620Y-26113D01*
X37658Y-26206D01*
X37730Y-26278D01*
X37732Y-26279D01*
X37731Y-26280D01*
X37668Y-26343D01*
X37585Y-26343D01*
X37585Y-22579D01*
X37585Y-22303D01*
X37479Y-22048D01*
X37284Y-21852D01*
X37028Y-21746D01*
X36752Y-21746D01*
X36497Y-21852D01*
X36301Y-22047D01*
X36195Y-22303D01*
X36195Y-22579D01*
X36301Y-22834D01*
X36496Y-23030D01*
X36752Y-23136D01*
X37028Y-23136D01*
X37283Y-23030D01*
X37479Y-22835D01*
X37585Y-22579D01*
X37585Y-26343D01*
X36404Y-26343D01*
X36404Y-24429D01*
X36404Y-24153D01*
X36298Y-23898D01*
X36103Y-23702D01*
X36058Y-23683D01*
X36058Y-18463D01*
X36058Y-18387D01*
X36029Y-18316D01*
X35975Y-18262D01*
X35904Y-18233D01*
X35828Y-18233D01*
X35757Y-18262D01*
X35703Y-18316D01*
X35674Y-18387D01*
X35674Y-18463D01*
X35703Y-18534D01*
X35757Y-18588D01*
X35828Y-18617D01*
X35904Y-18617D01*
X35975Y-18588D01*
X36029Y-18534D01*
X36058Y-18463D01*
X36058Y-23683D01*
X35847Y-23596D01*
X35571Y-23596D01*
X35316Y-23702D01*
X35223Y-23794D01*
X35223Y-22579D01*
X35223Y-22303D01*
X35117Y-22048D01*
X34922Y-21852D01*
X34666Y-21746D01*
X34562Y-21746D01*
X34562Y-18463D01*
X34562Y-18387D01*
X34533Y-18316D01*
X34479Y-18262D01*
X34408Y-18233D01*
X34332Y-18233D01*
X34261Y-18262D01*
X34207Y-18316D01*
X34178Y-18387D01*
X34178Y-18463D01*
X34207Y-18534D01*
X34261Y-18588D01*
X34332Y-18617D01*
X34408Y-18617D01*
X34479Y-18588D01*
X34533Y-18534D01*
X34562Y-18463D01*
X34562Y-21746D01*
X34390Y-21746D01*
X34135Y-21852D01*
X33939Y-22047D01*
X33833Y-22303D01*
X33833Y-22579D01*
X33939Y-22834D01*
X34134Y-23030D01*
X34390Y-23136D01*
X34666Y-23136D01*
X34921Y-23030D01*
X35117Y-22835D01*
X35223Y-22579D01*
X35223Y-23794D01*
X35120Y-23897D01*
X35014Y-24153D01*
X35014Y-24429D01*
X35120Y-24684D01*
X35315Y-24880D01*
X35571Y-24986D01*
X35847Y-24986D01*
X36102Y-24880D01*
X36298Y-24685D01*
X36404Y-24429D01*
X36404Y-26343D01*
X35743Y-26343D01*
X35743Y-25471D01*
X35743Y-25395D01*
X35714Y-25324D01*
X35660Y-25270D01*
X35589Y-25241D01*
X35513Y-25241D01*
X35442Y-25270D01*
X35388Y-25324D01*
X35359Y-25395D01*
X35359Y-25471D01*
X35388Y-25542D01*
X35442Y-25596D01*
X35513Y-25625D01*
X35589Y-25625D01*
X35660Y-25596D01*
X35714Y-25542D01*
X35743Y-25471D01*
X35743Y-26343D01*
X34942Y-26343D01*
X34892Y-26293D01*
X34821Y-26264D01*
X34795Y-26264D01*
X34798Y-26258D01*
X34798Y-26182D01*
X34795Y-26176D01*
X34821Y-26176D01*
X34892Y-26147D01*
X34946Y-26093D01*
X34975Y-26022D01*
X34975Y-25946D01*
X34946Y-25875D01*
X34892Y-25821D01*
X34821Y-25792D01*
X34745Y-25792D01*
X34674Y-25821D01*
X34620Y-25875D01*
X34606Y-25909D01*
X34592Y-25875D01*
X34538Y-25821D01*
X34467Y-25792D01*
X34391Y-25792D01*
X34320Y-25821D01*
X34266Y-25875D01*
X34237Y-25946D01*
X34237Y-26022D01*
X34266Y-26093D01*
X34320Y-26147D01*
X34391Y-26176D01*
X34416Y-26176D01*
X34414Y-26182D01*
X34414Y-26258D01*
X34416Y-26264D01*
X34391Y-26264D01*
X34320Y-26293D01*
X34270Y-26343D01*
X33971Y-26343D01*
X33971Y-25589D01*
X33971Y-25513D01*
X33942Y-25442D01*
X33888Y-25388D01*
X33817Y-25359D01*
X33806Y-25359D01*
X33806Y-19045D01*
X33806Y-18753D01*
X33695Y-18483D01*
X33488Y-18276D01*
X33218Y-18163D01*
X32926Y-18163D01*
X32656Y-18274D01*
X32449Y-18481D01*
X32336Y-18751D01*
X32336Y-19043D01*
X32447Y-19313D01*
X32654Y-19520D01*
X32924Y-19633D01*
X33216Y-19633D01*
X33486Y-19522D01*
X33693Y-19315D01*
X33806Y-19045D01*
X33806Y-25359D01*
X33741Y-25359D01*
X33670Y-25388D01*
X33616Y-25442D01*
X33587Y-25513D01*
X33587Y-25589D01*
X33616Y-25660D01*
X33670Y-25714D01*
X33741Y-25743D01*
X33817Y-25743D01*
X33888Y-25714D01*
X33942Y-25660D01*
X33971Y-25589D01*
X33971Y-26343D01*
X33823Y-26343D01*
X33823Y-35192D01*
X33791Y-35179D01*
X33690Y-35179D01*
X33676Y-35184D01*
X33676Y-32695D01*
X33676Y-32619D01*
X33647Y-32548D01*
X33593Y-32494D01*
X33522Y-32465D01*
X33446Y-32465D01*
X33375Y-32494D01*
X33321Y-32548D01*
X33294Y-32614D01*
X33294Y-22549D01*
X33294Y-22335D01*
X33212Y-22137D01*
X33061Y-21986D01*
X32864Y-21903D01*
X32650Y-21903D01*
X32452Y-21985D01*
X32301Y-22136D01*
X32218Y-22333D01*
X32218Y-22547D01*
X32300Y-22745D01*
X32451Y-22896D01*
X32648Y-22979D01*
X32862Y-22979D01*
X33060Y-22897D01*
X33211Y-22746D01*
X33294Y-22549D01*
X33294Y-32614D01*
X33292Y-32619D01*
X33292Y-32695D01*
X33321Y-32766D01*
X33375Y-32820D01*
X33446Y-32849D01*
X33522Y-32849D01*
X33593Y-32820D01*
X33647Y-32766D01*
X33676Y-32695D01*
X33676Y-35184D01*
X33597Y-35217D01*
X33525Y-35289D01*
X33486Y-35382D01*
X33486Y-35483D01*
X33524Y-35576D01*
X33596Y-35648D01*
X33689Y-35687D01*
X33790Y-35687D01*
X33823Y-35673D01*
X33823Y-36116D01*
X34847Y-37140D01*
X34847Y-38941D01*
X33561Y-38941D01*
X33561Y-38476D01*
X33561Y-38375D01*
X33561Y-37689D01*
X33561Y-37588D01*
X33523Y-37495D01*
X33451Y-37423D01*
X33364Y-37386D01*
X33364Y-34539D01*
X33364Y-34438D01*
X33326Y-34345D01*
X33292Y-34311D01*
X33325Y-34278D01*
X33364Y-34185D01*
X33364Y-34084D01*
X33326Y-33991D01*
X33291Y-33956D01*
X33325Y-33923D01*
X33364Y-33830D01*
X33364Y-33729D01*
X33326Y-33636D01*
X33254Y-33564D01*
X33161Y-33525D01*
X33060Y-33525D01*
X32967Y-33563D01*
X32948Y-33582D01*
X32948Y-32695D01*
X32948Y-32619D01*
X32919Y-32548D01*
X32865Y-32494D01*
X32794Y-32465D01*
X32718Y-32465D01*
X32647Y-32494D01*
X32593Y-32548D01*
X32564Y-32619D01*
X32564Y-32695D01*
X32593Y-32766D01*
X32647Y-32820D01*
X32718Y-32849D01*
X32794Y-32849D01*
X32865Y-32820D01*
X32919Y-32766D01*
X32948Y-32695D01*
X32948Y-33582D01*
X32895Y-33635D01*
X32856Y-33728D01*
X32856Y-33829D01*
X32894Y-33922D01*
X32928Y-33956D01*
X32895Y-33990D01*
X32856Y-34083D01*
X32856Y-34184D01*
X32894Y-34277D01*
X32928Y-34311D01*
X32895Y-34344D01*
X32856Y-34437D01*
X32856Y-34538D01*
X32894Y-34631D01*
X32966Y-34703D01*
X33059Y-34742D01*
X33160Y-34742D01*
X33253Y-34704D01*
X33325Y-34632D01*
X33364Y-34539D01*
X33364Y-37386D01*
X33358Y-37384D01*
X33257Y-37384D01*
X33164Y-37422D01*
X33092Y-37494D01*
X33053Y-37587D01*
X33053Y-37688D01*
X33091Y-37781D01*
X33163Y-37853D01*
X33256Y-37892D01*
X33357Y-37892D01*
X33450Y-37854D01*
X33522Y-37782D01*
X33561Y-37689D01*
X33561Y-38375D01*
X33523Y-38282D01*
X33451Y-38210D01*
X33358Y-38171D01*
X33257Y-38171D01*
X33164Y-38209D01*
X33092Y-38281D01*
X33053Y-38374D01*
X33053Y-38475D01*
X33091Y-38568D01*
X33163Y-38640D01*
X33256Y-38679D01*
X33357Y-38679D01*
X33450Y-38641D01*
X33522Y-38569D01*
X33561Y-38476D01*
X33561Y-38941D01*
X31676Y-38941D01*
X31676Y-36997D01*
X31795Y-37117D01*
X31971Y-37190D01*
X32162Y-37190D01*
X32338Y-37117D01*
X32473Y-36983D01*
X32546Y-36807D01*
X32546Y-36616D01*
X32473Y-36440D01*
X32339Y-36305D01*
X32163Y-36232D01*
X31972Y-36232D01*
X31796Y-36305D01*
X31676Y-36424D01*
X31676Y-32056D01*
X31795Y-32176D01*
X31971Y-32249D01*
X32162Y-32249D01*
X32338Y-32176D01*
X32473Y-32042D01*
X32546Y-31866D01*
X32546Y-31675D01*
X32473Y-31499D01*
X32339Y-31364D01*
X32163Y-31291D01*
X31972Y-31291D01*
X31796Y-31364D01*
X31676Y-31483D01*
X31676Y-18917D01*
X31786Y-18364D01*
X32085Y-17915D01*
X32538Y-17612D01*
X33085Y-17503D01*
X40752Y-17503D01*
X40752Y-22738D01*
X40698Y-22738D01*
X40605Y-22776D01*
X40533Y-22848D01*
X40494Y-22941D01*
X40494Y-23042D01*
X40532Y-23135D01*
X40604Y-23207D01*
X40697Y-23246D01*
X40752Y-23246D01*
X40752Y-26343D01*
G54D10*
G36*
X65359Y-19769D02*
X65316Y-19769D01*
X65245Y-19798D01*
X65236Y-19807D01*
X65118Y-19807D01*
X65109Y-19798D01*
X65038Y-19769D01*
X64962Y-19769D01*
X64891Y-19798D01*
X64882Y-19807D01*
X64638Y-19807D01*
X64651Y-19794D01*
X64680Y-19723D01*
X64680Y-19647D01*
X64651Y-19576D01*
X64597Y-19522D01*
X64526Y-19493D01*
X64450Y-19493D01*
X64379Y-19522D01*
X64325Y-19576D01*
X64296Y-19647D01*
X64296Y-19723D01*
X64325Y-19794D01*
X64338Y-19807D01*
X64244Y-19807D01*
X64257Y-19794D01*
X64286Y-19723D01*
X64286Y-19647D01*
X64257Y-19576D01*
X64203Y-19522D01*
X64132Y-19493D01*
X64056Y-19493D01*
X63985Y-19522D01*
X63931Y-19576D01*
X63902Y-19647D01*
X63902Y-19723D01*
X63931Y-19794D01*
X63944Y-19807D01*
X63457Y-19807D01*
X63470Y-19794D01*
X63499Y-19723D01*
X63499Y-19647D01*
X63470Y-19576D01*
X63416Y-19522D01*
X63345Y-19493D01*
X63269Y-19493D01*
X63198Y-19522D01*
X63144Y-19576D01*
X63115Y-19647D01*
X63115Y-19723D01*
X63144Y-19794D01*
X63157Y-19807D01*
X63063Y-19807D01*
X63076Y-19794D01*
X63105Y-19723D01*
X63105Y-19647D01*
X63076Y-19576D01*
X63022Y-19522D01*
X62951Y-19493D01*
X62875Y-19493D01*
X62804Y-19522D01*
X62750Y-19576D01*
X62721Y-19647D01*
X62721Y-19723D01*
X62750Y-19794D01*
X62763Y-19807D01*
X62276Y-19807D01*
X62289Y-19794D01*
X62318Y-19723D01*
X62318Y-19647D01*
X62289Y-19576D01*
X62235Y-19522D01*
X62164Y-19493D01*
X62088Y-19493D01*
X62017Y-19522D01*
X61963Y-19576D01*
X61934Y-19647D01*
X61934Y-19723D01*
X61963Y-19794D01*
X61976Y-19807D01*
X61882Y-19807D01*
X61895Y-19794D01*
X61924Y-19723D01*
X61924Y-19647D01*
X61895Y-19576D01*
X61841Y-19522D01*
X61770Y-19493D01*
X61694Y-19493D01*
X61623Y-19522D01*
X61569Y-19576D01*
X61540Y-19647D01*
X61540Y-19723D01*
X61569Y-19794D01*
X61582Y-19807D01*
X61095Y-19807D01*
X61108Y-19794D01*
X61137Y-19723D01*
X61137Y-19647D01*
X61108Y-19576D01*
X61054Y-19522D01*
X60983Y-19493D01*
X60907Y-19493D01*
X60836Y-19522D01*
X60782Y-19576D01*
X60753Y-19647D01*
X60753Y-19723D01*
X60782Y-19794D01*
X60795Y-19807D01*
X60701Y-19807D01*
X60714Y-19794D01*
X60743Y-19723D01*
X60743Y-19647D01*
X60714Y-19576D01*
X60660Y-19522D01*
X60589Y-19493D01*
X60513Y-19493D01*
X60442Y-19522D01*
X60388Y-19576D01*
X60359Y-19647D01*
X60359Y-19723D01*
X60388Y-19794D01*
X60401Y-19807D01*
X60307Y-19807D01*
X60320Y-19794D01*
X60349Y-19723D01*
X60349Y-19647D01*
X60320Y-19576D01*
X60266Y-19522D01*
X60195Y-19493D01*
X60119Y-19493D01*
X60114Y-19495D01*
X60114Y-18968D01*
X60119Y-18971D01*
X60195Y-18971D01*
X60266Y-18942D01*
X60320Y-18888D01*
X60349Y-18817D01*
X60349Y-18741D01*
X60320Y-18670D01*
X60291Y-18641D01*
X60320Y-18613D01*
X60349Y-18542D01*
X60349Y-18466D01*
X60320Y-18395D01*
X60307Y-18382D01*
X61188Y-18382D01*
X61175Y-18395D01*
X61146Y-18466D01*
X61146Y-18542D01*
X61175Y-18613D01*
X61229Y-18667D01*
X61300Y-18696D01*
X61376Y-18696D01*
X61447Y-18667D01*
X61501Y-18613D01*
X61530Y-18542D01*
X61530Y-18466D01*
X61501Y-18395D01*
X61488Y-18382D01*
X62012Y-18382D01*
X62012Y-18779D01*
X62013Y-18783D01*
X62013Y-18817D01*
X62026Y-18849D01*
X62027Y-18853D01*
X62028Y-18855D01*
X62042Y-18888D01*
X62069Y-18915D01*
X62096Y-18942D01*
X62128Y-18955D01*
X62131Y-18957D01*
X62134Y-18957D01*
X62167Y-18971D01*
X62200Y-18971D01*
X62205Y-18972D01*
X62209Y-18971D01*
X62243Y-18971D01*
X62275Y-18957D01*
X62279Y-18957D01*
X62281Y-18955D01*
X62314Y-18942D01*
X62341Y-18915D01*
X62368Y-18888D01*
X62381Y-18855D01*
X62383Y-18853D01*
X62383Y-18849D01*
X62397Y-18817D01*
X62397Y-18783D01*
X62398Y-18779D01*
X62398Y-18382D01*
X62440Y-18382D01*
X62698Y-18640D01*
X62699Y-18640D01*
X62761Y-18682D01*
X62835Y-18697D01*
X63149Y-18697D01*
X63149Y-18696D01*
X63223Y-18682D01*
X63285Y-18640D01*
X63543Y-18382D01*
X64732Y-18382D01*
X64719Y-18395D01*
X64690Y-18466D01*
X64690Y-18542D01*
X64719Y-18613D01*
X64773Y-18667D01*
X64844Y-18696D01*
X64920Y-18696D01*
X64991Y-18667D01*
X65045Y-18613D01*
X65074Y-18542D01*
X65074Y-18535D01*
X65359Y-18820D01*
X65359Y-19769D01*
X65359Y-19769D01*
G37*
G54D22*
X65359Y-19769D02*
X65316Y-19769D01*
X65245Y-19798D01*
X65236Y-19807D01*
X65118Y-19807D01*
X65109Y-19798D01*
X65038Y-19769D01*
X64962Y-19769D01*
X64891Y-19798D01*
X64882Y-19807D01*
X64638Y-19807D01*
X64651Y-19794D01*
X64680Y-19723D01*
X64680Y-19647D01*
X64651Y-19576D01*
X64597Y-19522D01*
X64526Y-19493D01*
X64450Y-19493D01*
X64379Y-19522D01*
X64325Y-19576D01*
X64296Y-19647D01*
X64296Y-19723D01*
X64325Y-19794D01*
X64338Y-19807D01*
X64244Y-19807D01*
X64257Y-19794D01*
X64286Y-19723D01*
X64286Y-19647D01*
X64257Y-19576D01*
X64203Y-19522D01*
X64132Y-19493D01*
X64056Y-19493D01*
X63985Y-19522D01*
X63931Y-19576D01*
X63902Y-19647D01*
X63902Y-19723D01*
X63931Y-19794D01*
X63944Y-19807D01*
X63457Y-19807D01*
X63470Y-19794D01*
X63499Y-19723D01*
X63499Y-19647D01*
X63470Y-19576D01*
X63416Y-19522D01*
X63345Y-19493D01*
X63269Y-19493D01*
X63198Y-19522D01*
X63144Y-19576D01*
X63115Y-19647D01*
X63115Y-19723D01*
X63144Y-19794D01*
X63157Y-19807D01*
X63063Y-19807D01*
X63076Y-19794D01*
X63105Y-19723D01*
X63105Y-19647D01*
X63076Y-19576D01*
X63022Y-19522D01*
X62951Y-19493D01*
X62875Y-19493D01*
X62804Y-19522D01*
X62750Y-19576D01*
X62721Y-19647D01*
X62721Y-19723D01*
X62750Y-19794D01*
X62763Y-19807D01*
X62276Y-19807D01*
X62289Y-19794D01*
X62318Y-19723D01*
X62318Y-19647D01*
X62289Y-19576D01*
X62235Y-19522D01*
X62164Y-19493D01*
X62088Y-19493D01*
X62017Y-19522D01*
X61963Y-19576D01*
X61934Y-19647D01*
X61934Y-19723D01*
X61963Y-19794D01*
X61976Y-19807D01*
X61882Y-19807D01*
X61895Y-19794D01*
X61924Y-19723D01*
X61924Y-19647D01*
X61895Y-19576D01*
X61841Y-19522D01*
X61770Y-19493D01*
X61694Y-19493D01*
X61623Y-19522D01*
X61569Y-19576D01*
X61540Y-19647D01*
X61540Y-19723D01*
X61569Y-19794D01*
X61582Y-19807D01*
X61095Y-19807D01*
X61108Y-19794D01*
X61137Y-19723D01*
X61137Y-19647D01*
X61108Y-19576D01*
X61054Y-19522D01*
X60983Y-19493D01*
X60907Y-19493D01*
X60836Y-19522D01*
X60782Y-19576D01*
X60753Y-19647D01*
X60753Y-19723D01*
X60782Y-19794D01*
X60795Y-19807D01*
X60701Y-19807D01*
X60714Y-19794D01*
X60743Y-19723D01*
X60743Y-19647D01*
X60714Y-19576D01*
X60660Y-19522D01*
X60589Y-19493D01*
X60513Y-19493D01*
X60442Y-19522D01*
X60388Y-19576D01*
X60359Y-19647D01*
X60359Y-19723D01*
X60388Y-19794D01*
X60401Y-19807D01*
X60307Y-19807D01*
X60320Y-19794D01*
X60349Y-19723D01*
X60349Y-19647D01*
X60320Y-19576D01*
X60266Y-19522D01*
X60195Y-19493D01*
X60119Y-19493D01*
X60114Y-19495D01*
X60114Y-18968D01*
X60119Y-18971D01*
X60195Y-18971D01*
X60266Y-18942D01*
X60320Y-18888D01*
X60349Y-18817D01*
X60349Y-18741D01*
X60320Y-18670D01*
X60291Y-18641D01*
X60320Y-18613D01*
X60349Y-18542D01*
X60349Y-18466D01*
X60320Y-18395D01*
X60307Y-18382D01*
X61188Y-18382D01*
X61175Y-18395D01*
X61146Y-18466D01*
X61146Y-18542D01*
X61175Y-18613D01*
X61229Y-18667D01*
X61300Y-18696D01*
X61376Y-18696D01*
X61447Y-18667D01*
X61501Y-18613D01*
X61530Y-18542D01*
X61530Y-18466D01*
X61501Y-18395D01*
X61488Y-18382D01*
X62012Y-18382D01*
X62012Y-18779D01*
X62013Y-18783D01*
X62013Y-18817D01*
X62026Y-18849D01*
X62027Y-18853D01*
X62028Y-18855D01*
X62042Y-18888D01*
X62069Y-18915D01*
X62096Y-18942D01*
X62128Y-18955D01*
X62131Y-18957D01*
X62134Y-18957D01*
X62167Y-18971D01*
X62200Y-18971D01*
X62205Y-18972D01*
X62209Y-18971D01*
X62243Y-18971D01*
X62275Y-18957D01*
X62279Y-18957D01*
X62281Y-18955D01*
X62314Y-18942D01*
X62341Y-18915D01*
X62368Y-18888D01*
X62381Y-18855D01*
X62383Y-18853D01*
X62383Y-18849D01*
X62397Y-18817D01*
X62397Y-18783D01*
X62398Y-18779D01*
X62398Y-18382D01*
X62440Y-18382D01*
X62698Y-18640D01*
X62699Y-18640D01*
X62761Y-18682D01*
X62835Y-18697D01*
X63149Y-18697D01*
X63149Y-18696D01*
X63223Y-18682D01*
X63285Y-18640D01*
X63543Y-18382D01*
X64732Y-18382D01*
X64719Y-18395D01*
X64690Y-18466D01*
X64690Y-18542D01*
X64719Y-18613D01*
X64773Y-18667D01*
X64844Y-18696D01*
X64920Y-18696D01*
X64991Y-18667D01*
X65045Y-18613D01*
X65074Y-18542D01*
X65074Y-18535D01*
X65359Y-18820D01*
X65359Y-19769D01*
G54D10*
G36*
X63984Y-36068D02*
X63978Y-36068D01*
X63907Y-36097D01*
X63858Y-36145D01*
X63810Y-36097D01*
X63739Y-36068D01*
X63663Y-36068D01*
X63592Y-36097D01*
X63538Y-36151D01*
X63509Y-36222D01*
X63509Y-36298D01*
X63538Y-36369D01*
X63592Y-36423D01*
X63628Y-36438D01*
X63302Y-36438D01*
X63302Y-35786D01*
X63302Y-35710D01*
X63302Y-34132D01*
X63302Y-34056D01*
X63273Y-33985D01*
X63219Y-33931D01*
X63148Y-33902D01*
X63072Y-33902D01*
X63001Y-33931D01*
X62947Y-33985D01*
X62918Y-34056D01*
X62918Y-34132D01*
X62947Y-34203D01*
X63001Y-34257D01*
X63072Y-34286D01*
X63148Y-34286D01*
X63219Y-34257D01*
X63273Y-34203D01*
X63302Y-34132D01*
X63302Y-35710D01*
X63273Y-35639D01*
X63219Y-35585D01*
X63148Y-35556D01*
X63072Y-35556D01*
X63001Y-35585D01*
X62947Y-35639D01*
X62918Y-35710D01*
X62918Y-35786D01*
X62947Y-35857D01*
X63001Y-35911D01*
X63072Y-35940D01*
X63148Y-35940D01*
X63219Y-35911D01*
X63273Y-35857D01*
X63302Y-35786D01*
X63302Y-36438D01*
X62751Y-36438D01*
X62751Y-33699D01*
X62751Y-33623D01*
X62722Y-33552D01*
X62711Y-33541D01*
X62711Y-33188D01*
X62711Y-33112D01*
X62682Y-33041D01*
X62628Y-32987D01*
X62557Y-32958D01*
X62481Y-32958D01*
X62410Y-32987D01*
X62356Y-33041D01*
X62327Y-33112D01*
X62327Y-33188D01*
X62356Y-33259D01*
X62410Y-33313D01*
X62481Y-33342D01*
X62557Y-33342D01*
X62628Y-33313D01*
X62682Y-33259D01*
X62711Y-33188D01*
X62711Y-33541D01*
X62668Y-33498D01*
X62597Y-33469D01*
X62521Y-33469D01*
X62450Y-33498D01*
X62396Y-33552D01*
X62367Y-33623D01*
X62367Y-33699D01*
X62396Y-33770D01*
X62450Y-33824D01*
X62521Y-33853D01*
X62597Y-33853D01*
X62668Y-33824D01*
X62722Y-33770D01*
X62751Y-33699D01*
X62751Y-36438D01*
X61688Y-36438D01*
X61688Y-35395D01*
X61698Y-35385D01*
X61727Y-35314D01*
X61727Y-35238D01*
X61698Y-35167D01*
X61688Y-35157D01*
X61688Y-32788D01*
X61701Y-32801D01*
X61772Y-32830D01*
X61848Y-32830D01*
X61919Y-32801D01*
X61973Y-32747D01*
X62002Y-32676D01*
X62002Y-32600D01*
X61977Y-32539D01*
X62542Y-32539D01*
X62575Y-32572D01*
X62557Y-32565D01*
X62481Y-32565D01*
X62410Y-32594D01*
X62356Y-32648D01*
X62327Y-32719D01*
X62327Y-32795D01*
X62356Y-32866D01*
X62410Y-32920D01*
X62481Y-32949D01*
X62557Y-32949D01*
X62628Y-32920D01*
X62682Y-32866D01*
X62711Y-32795D01*
X62711Y-32719D01*
X62703Y-32700D01*
X63721Y-33718D01*
X63721Y-35748D01*
X63731Y-35801D01*
X63761Y-35845D01*
X63984Y-36068D01*
X63984Y-36068D01*
G37*
G54D22*
X63984Y-36068D02*
X63978Y-36068D01*
X63907Y-36097D01*
X63858Y-36145D01*
X63810Y-36097D01*
X63739Y-36068D01*
X63663Y-36068D01*
X63592Y-36097D01*
X63538Y-36151D01*
X63509Y-36222D01*
X63509Y-36298D01*
X63538Y-36369D01*
X63592Y-36423D01*
X63628Y-36438D01*
X63302Y-36438D01*
X63302Y-35786D01*
X63302Y-35710D01*
X63302Y-34132D01*
X63302Y-34056D01*
X63273Y-33985D01*
X63219Y-33931D01*
X63148Y-33902D01*
X63072Y-33902D01*
X63001Y-33931D01*
X62947Y-33985D01*
X62918Y-34056D01*
X62918Y-34132D01*
X62947Y-34203D01*
X63001Y-34257D01*
X63072Y-34286D01*
X63148Y-34286D01*
X63219Y-34257D01*
X63273Y-34203D01*
X63302Y-34132D01*
X63302Y-35710D01*
X63273Y-35639D01*
X63219Y-35585D01*
X63148Y-35556D01*
X63072Y-35556D01*
X63001Y-35585D01*
X62947Y-35639D01*
X62918Y-35710D01*
X62918Y-35786D01*
X62947Y-35857D01*
X63001Y-35911D01*
X63072Y-35940D01*
X63148Y-35940D01*
X63219Y-35911D01*
X63273Y-35857D01*
X63302Y-35786D01*
X63302Y-36438D01*
X62751Y-36438D01*
X62751Y-33699D01*
X62751Y-33623D01*
X62722Y-33552D01*
X62711Y-33541D01*
X62711Y-33188D01*
X62711Y-33112D01*
X62682Y-33041D01*
X62628Y-32987D01*
X62557Y-32958D01*
X62481Y-32958D01*
X62410Y-32987D01*
X62356Y-33041D01*
X62327Y-33112D01*
X62327Y-33188D01*
X62356Y-33259D01*
X62410Y-33313D01*
X62481Y-33342D01*
X62557Y-33342D01*
X62628Y-33313D01*
X62682Y-33259D01*
X62711Y-33188D01*
X62711Y-33541D01*
X62668Y-33498D01*
X62597Y-33469D01*
X62521Y-33469D01*
X62450Y-33498D01*
X62396Y-33552D01*
X62367Y-33623D01*
X62367Y-33699D01*
X62396Y-33770D01*
X62450Y-33824D01*
X62521Y-33853D01*
X62597Y-33853D01*
X62668Y-33824D01*
X62722Y-33770D01*
X62751Y-33699D01*
X62751Y-36438D01*
X61688Y-36438D01*
X61688Y-35395D01*
X61698Y-35385D01*
X61727Y-35314D01*
X61727Y-35238D01*
X61698Y-35167D01*
X61688Y-35157D01*
X61688Y-32788D01*
X61701Y-32801D01*
X61772Y-32830D01*
X61848Y-32830D01*
X61919Y-32801D01*
X61973Y-32747D01*
X62002Y-32676D01*
X62002Y-32600D01*
X61977Y-32539D01*
X62542Y-32539D01*
X62575Y-32572D01*
X62557Y-32565D01*
X62481Y-32565D01*
X62410Y-32594D01*
X62356Y-32648D01*
X62327Y-32719D01*
X62327Y-32795D01*
X62356Y-32866D01*
X62410Y-32920D01*
X62481Y-32949D01*
X62557Y-32949D01*
X62628Y-32920D01*
X62682Y-32866D01*
X62711Y-32795D01*
X62711Y-32719D01*
X62703Y-32700D01*
X63721Y-33718D01*
X63721Y-35748D01*
X63731Y-35801D01*
X63761Y-35845D01*
X63984Y-36068D01*
G54D10*
G36*
X68550Y-26807D02*
X68013Y-27344D01*
X67983Y-27388D01*
X67973Y-27441D01*
X67973Y-29077D01*
X67200Y-29849D01*
X67200Y-27873D01*
X67200Y-27797D01*
X67171Y-27726D01*
X67117Y-27672D01*
X67046Y-27643D01*
X67039Y-27643D01*
X67042Y-27636D01*
X67042Y-27560D01*
X67013Y-27489D01*
X66959Y-27435D01*
X66888Y-27406D01*
X66812Y-27406D01*
X66741Y-27435D01*
X66687Y-27489D01*
X66658Y-27560D01*
X66658Y-27636D01*
X66687Y-27707D01*
X66741Y-27761D01*
X66812Y-27790D01*
X66818Y-27790D01*
X66816Y-27797D01*
X66816Y-27873D01*
X66845Y-27944D01*
X66899Y-27998D01*
X66970Y-28027D01*
X67046Y-28027D01*
X67117Y-27998D01*
X67171Y-27944D01*
X67200Y-27873D01*
X67200Y-29849D01*
X66885Y-30164D01*
X66885Y-28975D01*
X66885Y-28899D01*
X66885Y-28581D01*
X66885Y-28505D01*
X66856Y-28434D01*
X66802Y-28380D01*
X66731Y-28351D01*
X66655Y-28351D01*
X66584Y-28380D01*
X66530Y-28434D01*
X66501Y-28505D01*
X66501Y-28581D01*
X66530Y-28652D01*
X66584Y-28706D01*
X66655Y-28735D01*
X66731Y-28735D01*
X66802Y-28706D01*
X66856Y-28652D01*
X66885Y-28581D01*
X66885Y-28899D01*
X66856Y-28828D01*
X66802Y-28774D01*
X66731Y-28745D01*
X66655Y-28745D01*
X66584Y-28774D01*
X66530Y-28828D01*
X66501Y-28899D01*
X66501Y-28975D01*
X66530Y-29046D01*
X66584Y-29100D01*
X66655Y-29129D01*
X66731Y-29129D01*
X66802Y-29100D01*
X66856Y-29046D01*
X66885Y-28975D01*
X66885Y-30164D01*
X66875Y-30174D01*
X66856Y-30127D01*
X66802Y-30073D01*
X66731Y-30044D01*
X66655Y-30044D01*
X66584Y-30073D01*
X66530Y-30127D01*
X66501Y-30198D01*
X66501Y-30274D01*
X66530Y-30345D01*
X66584Y-30399D01*
X66631Y-30418D01*
X65861Y-31189D01*
X65861Y-31182D01*
X65832Y-31111D01*
X65823Y-31102D01*
X65832Y-31093D01*
X65861Y-31022D01*
X65861Y-30946D01*
X65861Y-29880D01*
X65861Y-29804D01*
X65832Y-29733D01*
X65823Y-29724D01*
X65832Y-29715D01*
X65861Y-29644D01*
X65861Y-29568D01*
X65861Y-29172D01*
X65861Y-29096D01*
X65832Y-29025D01*
X65823Y-29016D01*
X65832Y-29007D01*
X65861Y-28936D01*
X65861Y-28860D01*
X65832Y-28789D01*
X65778Y-28735D01*
X65707Y-28706D01*
X65631Y-28706D01*
X65560Y-28735D01*
X65506Y-28789D01*
X65477Y-28860D01*
X65477Y-28936D01*
X65506Y-29007D01*
X65515Y-29016D01*
X65506Y-29025D01*
X65477Y-29096D01*
X65477Y-29172D01*
X65506Y-29243D01*
X65560Y-29297D01*
X65631Y-29326D01*
X65707Y-29326D01*
X65778Y-29297D01*
X65832Y-29243D01*
X65861Y-29172D01*
X65861Y-29568D01*
X65832Y-29497D01*
X65778Y-29443D01*
X65707Y-29414D01*
X65631Y-29414D01*
X65560Y-29443D01*
X65506Y-29497D01*
X65477Y-29568D01*
X65477Y-29644D01*
X65506Y-29715D01*
X65515Y-29724D01*
X65506Y-29733D01*
X65477Y-29804D01*
X65477Y-29880D01*
X65506Y-29951D01*
X65560Y-30005D01*
X65631Y-30034D01*
X65707Y-30034D01*
X65778Y-30005D01*
X65832Y-29951D01*
X65861Y-29880D01*
X65861Y-30946D01*
X65832Y-30875D01*
X65778Y-30821D01*
X65707Y-30792D01*
X65631Y-30792D01*
X65560Y-30821D01*
X65506Y-30875D01*
X65477Y-30946D01*
X65477Y-31022D01*
X65506Y-31093D01*
X65515Y-31102D01*
X65506Y-31111D01*
X65477Y-31182D01*
X65477Y-31258D01*
X65506Y-31329D01*
X65560Y-31383D01*
X65631Y-31412D01*
X65638Y-31412D01*
X64956Y-32094D01*
X64956Y-29644D01*
X64956Y-29568D01*
X64927Y-29497D01*
X64916Y-29486D01*
X64916Y-28936D01*
X64916Y-28860D01*
X64887Y-28789D01*
X64833Y-28735D01*
X64762Y-28706D01*
X64686Y-28706D01*
X64615Y-28735D01*
X64561Y-28789D01*
X64532Y-28860D01*
X64532Y-28936D01*
X64561Y-29007D01*
X64615Y-29061D01*
X64686Y-29090D01*
X64762Y-29090D01*
X64833Y-29061D01*
X64887Y-29007D01*
X64916Y-28936D01*
X64916Y-29486D01*
X64873Y-29443D01*
X64802Y-29414D01*
X64726Y-29414D01*
X64655Y-29443D01*
X64601Y-29497D01*
X64572Y-29568D01*
X64572Y-29644D01*
X64601Y-29715D01*
X64655Y-29769D01*
X64726Y-29798D01*
X64802Y-29798D01*
X64873Y-29769D01*
X64927Y-29715D01*
X64956Y-29644D01*
X64956Y-32094D01*
X64916Y-32134D01*
X64916Y-31258D01*
X64916Y-31182D01*
X64887Y-31111D01*
X64838Y-31062D01*
X64838Y-30077D01*
X64838Y-30001D01*
X64809Y-29930D01*
X64755Y-29876D01*
X64684Y-29847D01*
X64608Y-29847D01*
X64537Y-29876D01*
X64508Y-29905D01*
X64479Y-29876D01*
X64408Y-29847D01*
X64332Y-29847D01*
X64261Y-29876D01*
X64232Y-29905D01*
X64203Y-29876D01*
X64132Y-29847D01*
X64056Y-29847D01*
X63985Y-29876D01*
X63956Y-29904D01*
X63928Y-29876D01*
X63857Y-29847D01*
X63781Y-29847D01*
X63710Y-29876D01*
X63681Y-29905D01*
X63652Y-29876D01*
X63581Y-29847D01*
X63505Y-29847D01*
X63434Y-29876D01*
X63380Y-29930D01*
X63351Y-30001D01*
X63351Y-30077D01*
X63380Y-30148D01*
X63434Y-30202D01*
X63505Y-30231D01*
X63581Y-30231D01*
X63652Y-30202D01*
X63681Y-30173D01*
X63710Y-30202D01*
X63781Y-30231D01*
X63857Y-30231D01*
X63928Y-30202D01*
X63956Y-30173D01*
X63985Y-30202D01*
X64056Y-30231D01*
X64132Y-30231D01*
X64203Y-30202D01*
X64232Y-30173D01*
X64261Y-30202D01*
X64332Y-30231D01*
X64408Y-30231D01*
X64479Y-30202D01*
X64508Y-30173D01*
X64537Y-30202D01*
X64608Y-30231D01*
X64684Y-30231D01*
X64755Y-30202D01*
X64809Y-30148D01*
X64838Y-30077D01*
X64838Y-31062D01*
X64833Y-31057D01*
X64762Y-31028D01*
X64686Y-31028D01*
X64615Y-31057D01*
X64561Y-31111D01*
X64532Y-31182D01*
X64532Y-31258D01*
X64561Y-31329D01*
X64615Y-31383D01*
X64686Y-31412D01*
X64762Y-31412D01*
X64833Y-31383D01*
X64887Y-31329D01*
X64916Y-31258D01*
X64916Y-32134D01*
X64762Y-32288D01*
X64756Y-32288D01*
X64759Y-32282D01*
X64759Y-32206D01*
X64730Y-32135D01*
X64676Y-32081D01*
X64605Y-32052D01*
X64529Y-32052D01*
X64458Y-32081D01*
X64404Y-32135D01*
X64375Y-32206D01*
X64375Y-32282D01*
X64377Y-32288D01*
X64332Y-32288D01*
X64261Y-32317D01*
X64207Y-32371D01*
X64178Y-32442D01*
X64178Y-32518D01*
X64180Y-32524D01*
X64175Y-32524D01*
X63302Y-31651D01*
X63302Y-30865D01*
X63302Y-30789D01*
X63273Y-30718D01*
X63219Y-30664D01*
X63148Y-30635D01*
X63072Y-30635D01*
X63001Y-30664D01*
X62947Y-30718D01*
X62918Y-30789D01*
X62918Y-30865D01*
X62947Y-30936D01*
X63001Y-30990D01*
X63072Y-31019D01*
X63148Y-31019D01*
X63219Y-30990D01*
X63273Y-30936D01*
X63302Y-30865D01*
X63302Y-31651D01*
X63207Y-31556D01*
X63163Y-31526D01*
X63110Y-31516D01*
X62555Y-31516D01*
X62555Y-29384D01*
X64790Y-27148D01*
X64833Y-27131D01*
X64887Y-27077D01*
X64904Y-27034D01*
X65132Y-26807D01*
X68550Y-26807D01*
X68550Y-26807D01*
G37*
G54D22*
X68550Y-26807D02*
X68013Y-27344D01*
X67983Y-27388D01*
X67973Y-27441D01*
X67973Y-29077D01*
X67200Y-29849D01*
X67200Y-27873D01*
X67200Y-27797D01*
X67171Y-27726D01*
X67117Y-27672D01*
X67046Y-27643D01*
X67039Y-27643D01*
X67042Y-27636D01*
X67042Y-27560D01*
X67013Y-27489D01*
X66959Y-27435D01*
X66888Y-27406D01*
X66812Y-27406D01*
X66741Y-27435D01*
X66687Y-27489D01*
X66658Y-27560D01*
X66658Y-27636D01*
X66687Y-27707D01*
X66741Y-27761D01*
X66812Y-27790D01*
X66818Y-27790D01*
X66816Y-27797D01*
X66816Y-27873D01*
X66845Y-27944D01*
X66899Y-27998D01*
X66970Y-28027D01*
X67046Y-28027D01*
X67117Y-27998D01*
X67171Y-27944D01*
X67200Y-27873D01*
X67200Y-29849D01*
X66885Y-30164D01*
X66885Y-28975D01*
X66885Y-28899D01*
X66885Y-28581D01*
X66885Y-28505D01*
X66856Y-28434D01*
X66802Y-28380D01*
X66731Y-28351D01*
X66655Y-28351D01*
X66584Y-28380D01*
X66530Y-28434D01*
X66501Y-28505D01*
X66501Y-28581D01*
X66530Y-28652D01*
X66584Y-28706D01*
X66655Y-28735D01*
X66731Y-28735D01*
X66802Y-28706D01*
X66856Y-28652D01*
X66885Y-28581D01*
X66885Y-28899D01*
X66856Y-28828D01*
X66802Y-28774D01*
X66731Y-28745D01*
X66655Y-28745D01*
X66584Y-28774D01*
X66530Y-28828D01*
X66501Y-28899D01*
X66501Y-28975D01*
X66530Y-29046D01*
X66584Y-29100D01*
X66655Y-29129D01*
X66731Y-29129D01*
X66802Y-29100D01*
X66856Y-29046D01*
X66885Y-28975D01*
X66885Y-30164D01*
X66875Y-30174D01*
X66856Y-30127D01*
X66802Y-30073D01*
X66731Y-30044D01*
X66655Y-30044D01*
X66584Y-30073D01*
X66530Y-30127D01*
X66501Y-30198D01*
X66501Y-30274D01*
X66530Y-30345D01*
X66584Y-30399D01*
X66631Y-30418D01*
X65861Y-31189D01*
X65861Y-31182D01*
X65832Y-31111D01*
X65823Y-31102D01*
X65832Y-31093D01*
X65861Y-31022D01*
X65861Y-30946D01*
X65861Y-29880D01*
X65861Y-29804D01*
X65832Y-29733D01*
X65823Y-29724D01*
X65832Y-29715D01*
X65861Y-29644D01*
X65861Y-29568D01*
X65861Y-29172D01*
X65861Y-29096D01*
X65832Y-29025D01*
X65823Y-29016D01*
X65832Y-29007D01*
X65861Y-28936D01*
X65861Y-28860D01*
X65832Y-28789D01*
X65778Y-28735D01*
X65707Y-28706D01*
X65631Y-28706D01*
X65560Y-28735D01*
X65506Y-28789D01*
X65477Y-28860D01*
X65477Y-28936D01*
X65506Y-29007D01*
X65515Y-29016D01*
X65506Y-29025D01*
X65477Y-29096D01*
X65477Y-29172D01*
X65506Y-29243D01*
X65560Y-29297D01*
X65631Y-29326D01*
X65707Y-29326D01*
X65778Y-29297D01*
X65832Y-29243D01*
X65861Y-29172D01*
X65861Y-29568D01*
X65832Y-29497D01*
X65778Y-29443D01*
X65707Y-29414D01*
X65631Y-29414D01*
X65560Y-29443D01*
X65506Y-29497D01*
X65477Y-29568D01*
X65477Y-29644D01*
X65506Y-29715D01*
X65515Y-29724D01*
X65506Y-29733D01*
X65477Y-29804D01*
X65477Y-29880D01*
X65506Y-29951D01*
X65560Y-30005D01*
X65631Y-30034D01*
X65707Y-30034D01*
X65778Y-30005D01*
X65832Y-29951D01*
X65861Y-29880D01*
X65861Y-30946D01*
X65832Y-30875D01*
X65778Y-30821D01*
X65707Y-30792D01*
X65631Y-30792D01*
X65560Y-30821D01*
X65506Y-30875D01*
X65477Y-30946D01*
X65477Y-31022D01*
X65506Y-31093D01*
X65515Y-31102D01*
X65506Y-31111D01*
X65477Y-31182D01*
X65477Y-31258D01*
X65506Y-31329D01*
X65560Y-31383D01*
X65631Y-31412D01*
X65638Y-31412D01*
X64956Y-32094D01*
X64956Y-29644D01*
X64956Y-29568D01*
X64927Y-29497D01*
X64916Y-29486D01*
X64916Y-28936D01*
X64916Y-28860D01*
X64887Y-28789D01*
X64833Y-28735D01*
X64762Y-28706D01*
X64686Y-28706D01*
X64615Y-28735D01*
X64561Y-28789D01*
X64532Y-28860D01*
X64532Y-28936D01*
X64561Y-29007D01*
X64615Y-29061D01*
X64686Y-29090D01*
X64762Y-29090D01*
X64833Y-29061D01*
X64887Y-29007D01*
X64916Y-28936D01*
X64916Y-29486D01*
X64873Y-29443D01*
X64802Y-29414D01*
X64726Y-29414D01*
X64655Y-29443D01*
X64601Y-29497D01*
X64572Y-29568D01*
X64572Y-29644D01*
X64601Y-29715D01*
X64655Y-29769D01*
X64726Y-29798D01*
X64802Y-29798D01*
X64873Y-29769D01*
X64927Y-29715D01*
X64956Y-29644D01*
X64956Y-32094D01*
X64916Y-32134D01*
X64916Y-31258D01*
X64916Y-31182D01*
X64887Y-31111D01*
X64838Y-31062D01*
X64838Y-30077D01*
X64838Y-30001D01*
X64809Y-29930D01*
X64755Y-29876D01*
X64684Y-29847D01*
X64608Y-29847D01*
X64537Y-29876D01*
X64508Y-29905D01*
X64479Y-29876D01*
X64408Y-29847D01*
X64332Y-29847D01*
X64261Y-29876D01*
X64232Y-29905D01*
X64203Y-29876D01*
X64132Y-29847D01*
X64056Y-29847D01*
X63985Y-29876D01*
X63956Y-29904D01*
X63928Y-29876D01*
X63857Y-29847D01*
X63781Y-29847D01*
X63710Y-29876D01*
X63681Y-29905D01*
X63652Y-29876D01*
X63581Y-29847D01*
X63505Y-29847D01*
X63434Y-29876D01*
X63380Y-29930D01*
X63351Y-30001D01*
X63351Y-30077D01*
X63380Y-30148D01*
X63434Y-30202D01*
X63505Y-30231D01*
X63581Y-30231D01*
X63652Y-30202D01*
X63681Y-30173D01*
X63710Y-30202D01*
X63781Y-30231D01*
X63857Y-30231D01*
X63928Y-30202D01*
X63956Y-30173D01*
X63985Y-30202D01*
X64056Y-30231D01*
X64132Y-30231D01*
X64203Y-30202D01*
X64232Y-30173D01*
X64261Y-30202D01*
X64332Y-30231D01*
X64408Y-30231D01*
X64479Y-30202D01*
X64508Y-30173D01*
X64537Y-30202D01*
X64608Y-30231D01*
X64684Y-30231D01*
X64755Y-30202D01*
X64809Y-30148D01*
X64838Y-30077D01*
X64838Y-31062D01*
X64833Y-31057D01*
X64762Y-31028D01*
X64686Y-31028D01*
X64615Y-31057D01*
X64561Y-31111D01*
X64532Y-31182D01*
X64532Y-31258D01*
X64561Y-31329D01*
X64615Y-31383D01*
X64686Y-31412D01*
X64762Y-31412D01*
X64833Y-31383D01*
X64887Y-31329D01*
X64916Y-31258D01*
X64916Y-32134D01*
X64762Y-32288D01*
X64756Y-32288D01*
X64759Y-32282D01*
X64759Y-32206D01*
X64730Y-32135D01*
X64676Y-32081D01*
X64605Y-32052D01*
X64529Y-32052D01*
X64458Y-32081D01*
X64404Y-32135D01*
X64375Y-32206D01*
X64375Y-32282D01*
X64377Y-32288D01*
X64332Y-32288D01*
X64261Y-32317D01*
X64207Y-32371D01*
X64178Y-32442D01*
X64178Y-32518D01*
X64180Y-32524D01*
X64175Y-32524D01*
X63302Y-31651D01*
X63302Y-30865D01*
X63302Y-30789D01*
X63273Y-30718D01*
X63219Y-30664D01*
X63148Y-30635D01*
X63072Y-30635D01*
X63001Y-30664D01*
X62947Y-30718D01*
X62918Y-30789D01*
X62918Y-30865D01*
X62947Y-30936D01*
X63001Y-30990D01*
X63072Y-31019D01*
X63148Y-31019D01*
X63219Y-30990D01*
X63273Y-30936D01*
X63302Y-30865D01*
X63302Y-31651D01*
X63207Y-31556D01*
X63163Y-31526D01*
X63110Y-31516D01*
X62555Y-31516D01*
X62555Y-29384D01*
X64790Y-27148D01*
X64833Y-27131D01*
X64887Y-27077D01*
X64904Y-27034D01*
X65132Y-26807D01*
X68550Y-26807D01*
G54D10*
G36*
X70686Y-55103D02*
X70576Y-55650D01*
X70273Y-56103D01*
X70175Y-56168D01*
X70175Y-50090D01*
X70175Y-49989D01*
X70175Y-49421D01*
X70175Y-49320D01*
X70137Y-49227D01*
X70065Y-49155D01*
X69972Y-49116D01*
X69871Y-49116D01*
X69778Y-49154D01*
X69706Y-49226D01*
X69667Y-49319D01*
X69667Y-49420D01*
X69705Y-49513D01*
X69777Y-49585D01*
X69870Y-49624D01*
X69971Y-49624D01*
X70064Y-49586D01*
X70136Y-49514D01*
X70175Y-49421D01*
X70175Y-49989D01*
X70137Y-49896D01*
X70065Y-49824D01*
X69972Y-49785D01*
X69871Y-49785D01*
X69778Y-49823D01*
X69706Y-49895D01*
X69667Y-49988D01*
X69667Y-50089D01*
X69705Y-50182D01*
X69777Y-50254D01*
X69870Y-50293D01*
X69971Y-50293D01*
X70064Y-50255D01*
X70136Y-50183D01*
X70175Y-50090D01*
X70175Y-56168D01*
X70026Y-56267D01*
X70026Y-55265D01*
X70026Y-54973D01*
X70026Y-52115D01*
X70026Y-51823D01*
X69915Y-51553D01*
X69708Y-51346D01*
X69601Y-51301D01*
X69601Y-45747D01*
X69601Y-45671D01*
X69572Y-45600D01*
X69523Y-45551D01*
X69523Y-33857D01*
X69523Y-33781D01*
X69494Y-33710D01*
X69440Y-33656D01*
X69369Y-33627D01*
X69293Y-33627D01*
X69222Y-33656D01*
X69168Y-33710D01*
X69139Y-33781D01*
X69139Y-33857D01*
X69168Y-33928D01*
X69222Y-33982D01*
X69293Y-34011D01*
X69369Y-34011D01*
X69440Y-33982D01*
X69494Y-33928D01*
X69523Y-33857D01*
X69523Y-45551D01*
X69518Y-45546D01*
X69447Y-45517D01*
X69416Y-45517D01*
X69416Y-41135D01*
X69416Y-40980D01*
X69416Y-39177D01*
X69416Y-39022D01*
X69404Y-38992D01*
X69404Y-38109D01*
X69404Y-38033D01*
X69404Y-36377D01*
X69404Y-36301D01*
X69375Y-36230D01*
X69321Y-36176D01*
X69250Y-36147D01*
X69174Y-36147D01*
X69103Y-36176D01*
X69049Y-36230D01*
X69020Y-36301D01*
X69020Y-36377D01*
X69049Y-36448D01*
X69103Y-36502D01*
X69174Y-36531D01*
X69250Y-36531D01*
X69321Y-36502D01*
X69375Y-36448D01*
X69404Y-36377D01*
X69404Y-38033D01*
X69375Y-37962D01*
X69321Y-37908D01*
X69250Y-37879D01*
X69174Y-37879D01*
X69103Y-37908D01*
X69049Y-37962D01*
X69020Y-38033D01*
X69020Y-38109D01*
X69049Y-38180D01*
X69103Y-38234D01*
X69174Y-38263D01*
X69250Y-38263D01*
X69321Y-38234D01*
X69375Y-38180D01*
X69404Y-38109D01*
X69404Y-38992D01*
X69357Y-38879D01*
X69248Y-38769D01*
X69105Y-38710D01*
X68950Y-38710D01*
X68807Y-38769D01*
X68697Y-38878D01*
X68638Y-39021D01*
X68638Y-39146D01*
X68608Y-39116D01*
X68578Y-39103D01*
X68578Y-37479D01*
X68578Y-37403D01*
X68549Y-37332D01*
X68499Y-37282D01*
X68499Y-35786D01*
X68499Y-35710D01*
X68470Y-35639D01*
X68416Y-35585D01*
X68345Y-35556D01*
X68269Y-35556D01*
X68198Y-35585D01*
X68144Y-35639D01*
X68115Y-35710D01*
X68115Y-35786D01*
X68144Y-35857D01*
X68198Y-35911D01*
X68269Y-35940D01*
X68345Y-35940D01*
X68416Y-35911D01*
X68470Y-35857D01*
X68499Y-35786D01*
X68499Y-37282D01*
X68495Y-37278D01*
X68424Y-37249D01*
X68348Y-37249D01*
X68277Y-37278D01*
X68223Y-37332D01*
X68194Y-37403D01*
X68194Y-37479D01*
X68223Y-37550D01*
X68277Y-37604D01*
X68348Y-37633D01*
X68424Y-37633D01*
X68495Y-37604D01*
X68549Y-37550D01*
X68578Y-37479D01*
X68578Y-39103D01*
X68515Y-39077D01*
X68414Y-39077D01*
X68321Y-39115D01*
X68249Y-39187D01*
X68210Y-39280D01*
X68210Y-39381D01*
X68248Y-39474D01*
X68320Y-39546D01*
X68413Y-39585D01*
X68514Y-39585D01*
X68607Y-39547D01*
X68679Y-39475D01*
X68718Y-39382D01*
X68718Y-39340D01*
X68806Y-39429D01*
X68949Y-39488D01*
X69104Y-39488D01*
X69247Y-39429D01*
X69357Y-39320D01*
X69416Y-39177D01*
X69416Y-40980D01*
X69357Y-40837D01*
X69248Y-40727D01*
X69105Y-40668D01*
X68950Y-40668D01*
X68807Y-40727D01*
X68697Y-40836D01*
X68638Y-40979D01*
X68638Y-41134D01*
X68697Y-41277D01*
X68806Y-41387D01*
X68949Y-41446D01*
X69104Y-41446D01*
X69247Y-41387D01*
X69357Y-41278D01*
X69416Y-41135D01*
X69416Y-45517D01*
X69371Y-45517D01*
X69300Y-45546D01*
X69246Y-45600D01*
X69217Y-45671D01*
X69217Y-45747D01*
X69246Y-45818D01*
X69300Y-45872D01*
X69371Y-45901D01*
X69447Y-45901D01*
X69518Y-45872D01*
X69572Y-45818D01*
X69601Y-45747D01*
X69601Y-51301D01*
X69545Y-51277D01*
X69545Y-50090D01*
X69545Y-49989D01*
X69545Y-49421D01*
X69545Y-49320D01*
X69507Y-49227D01*
X69483Y-49203D01*
X69483Y-48542D01*
X69483Y-48466D01*
X69454Y-48395D01*
X69400Y-48341D01*
X69329Y-48312D01*
X69253Y-48312D01*
X69182Y-48341D01*
X69128Y-48395D01*
X69099Y-48466D01*
X69099Y-48542D01*
X69128Y-48613D01*
X69182Y-48667D01*
X69253Y-48696D01*
X69329Y-48696D01*
X69400Y-48667D01*
X69454Y-48613D01*
X69483Y-48542D01*
X69483Y-49203D01*
X69435Y-49155D01*
X69342Y-49116D01*
X69241Y-49116D01*
X69148Y-49154D01*
X69076Y-49226D01*
X69037Y-49319D01*
X69037Y-49420D01*
X69075Y-49513D01*
X69147Y-49585D01*
X69240Y-49624D01*
X69341Y-49624D01*
X69434Y-49586D01*
X69506Y-49514D01*
X69545Y-49421D01*
X69545Y-49989D01*
X69507Y-49896D01*
X69435Y-49824D01*
X69342Y-49785D01*
X69241Y-49785D01*
X69148Y-49823D01*
X69076Y-49895D01*
X69037Y-49988D01*
X69037Y-50089D01*
X69075Y-50182D01*
X69147Y-50254D01*
X69240Y-50293D01*
X69341Y-50293D01*
X69434Y-50255D01*
X69506Y-50183D01*
X69545Y-50090D01*
X69545Y-51277D01*
X69438Y-51233D01*
X69146Y-51233D01*
X68876Y-51344D01*
X68876Y-50090D01*
X68876Y-49989D01*
X68876Y-49421D01*
X68876Y-49320D01*
X68838Y-49227D01*
X68766Y-49155D01*
X68673Y-49116D01*
X68572Y-49116D01*
X68499Y-49145D01*
X68499Y-39998D01*
X68499Y-39922D01*
X68470Y-39851D01*
X68416Y-39797D01*
X68345Y-39768D01*
X68269Y-39768D01*
X68198Y-39797D01*
X68144Y-39851D01*
X68115Y-39922D01*
X68115Y-39998D01*
X68144Y-40069D01*
X68198Y-40123D01*
X68269Y-40152D01*
X68345Y-40152D01*
X68416Y-40123D01*
X68470Y-40069D01*
X68499Y-39998D01*
X68499Y-49145D01*
X68479Y-49154D01*
X68407Y-49226D01*
X68368Y-49319D01*
X68368Y-49420D01*
X68406Y-49513D01*
X68478Y-49585D01*
X68571Y-49624D01*
X68672Y-49624D01*
X68765Y-49586D01*
X68837Y-49514D01*
X68876Y-49421D01*
X68876Y-49989D01*
X68838Y-49896D01*
X68766Y-49824D01*
X68673Y-49785D01*
X68572Y-49785D01*
X68479Y-49823D01*
X68407Y-49895D01*
X68368Y-49988D01*
X68368Y-50089D01*
X68406Y-50182D01*
X68478Y-50254D01*
X68571Y-50293D01*
X68672Y-50293D01*
X68765Y-50255D01*
X68837Y-50183D01*
X68876Y-50090D01*
X68876Y-51344D01*
X68669Y-51551D01*
X68556Y-51821D01*
X68556Y-52113D01*
X68667Y-52383D01*
X68874Y-52590D01*
X69144Y-52703D01*
X69436Y-52703D01*
X69706Y-52592D01*
X69913Y-52385D01*
X70026Y-52115D01*
X70026Y-54973D01*
X69915Y-54703D01*
X69708Y-54496D01*
X69438Y-54383D01*
X69146Y-54383D01*
X68876Y-54494D01*
X68669Y-54701D01*
X68556Y-54971D01*
X68556Y-55263D01*
X68667Y-55533D01*
X68874Y-55740D01*
X69144Y-55853D01*
X69436Y-55853D01*
X69706Y-55742D01*
X69913Y-55535D01*
X70026Y-55265D01*
X70026Y-56267D01*
X69824Y-56402D01*
X69271Y-56513D01*
X67907Y-56513D01*
X67907Y-48188D01*
X67907Y-48112D01*
X67878Y-48041D01*
X67824Y-47987D01*
X67753Y-47958D01*
X67710Y-47958D01*
X67710Y-47948D01*
X67753Y-47948D01*
X67824Y-47919D01*
X67878Y-47865D01*
X67907Y-47794D01*
X67907Y-47718D01*
X67878Y-47647D01*
X67824Y-47593D01*
X67753Y-47564D01*
X67677Y-47564D01*
X67606Y-47593D01*
X67552Y-47647D01*
X67523Y-47718D01*
X67523Y-47761D01*
X67513Y-47761D01*
X67513Y-47718D01*
X67484Y-47647D01*
X67430Y-47593D01*
X67359Y-47564D01*
X67301Y-47564D01*
X67301Y-42138D01*
X67301Y-42037D01*
X67301Y-41350D01*
X67301Y-41249D01*
X67279Y-41195D01*
X67279Y-36731D01*
X67279Y-36655D01*
X67250Y-36584D01*
X67200Y-36534D01*
X67200Y-36337D01*
X67200Y-36261D01*
X67171Y-36190D01*
X67117Y-36136D01*
X67046Y-36107D01*
X66970Y-36107D01*
X66899Y-36136D01*
X66845Y-36190D01*
X66816Y-36261D01*
X66816Y-36337D01*
X66845Y-36408D01*
X66899Y-36462D01*
X66970Y-36491D01*
X67046Y-36491D01*
X67117Y-36462D01*
X67171Y-36408D01*
X67200Y-36337D01*
X67200Y-36534D01*
X67196Y-36530D01*
X67125Y-36501D01*
X67049Y-36501D01*
X66978Y-36530D01*
X66924Y-36584D01*
X66895Y-36655D01*
X66895Y-36731D01*
X66924Y-36802D01*
X66978Y-36856D01*
X67049Y-36885D01*
X67125Y-36885D01*
X67196Y-36856D01*
X67250Y-36802D01*
X67279Y-36731D01*
X67279Y-41195D01*
X67263Y-41156D01*
X67191Y-41084D01*
X67098Y-41045D01*
X67042Y-41045D01*
X67042Y-37479D01*
X67042Y-37403D01*
X67013Y-37332D01*
X66959Y-37278D01*
X66888Y-37249D01*
X66885Y-37249D01*
X66885Y-36613D01*
X66885Y-36537D01*
X66856Y-36466D01*
X66802Y-36412D01*
X66731Y-36383D01*
X66688Y-36383D01*
X66688Y-35983D01*
X66688Y-35907D01*
X66688Y-35117D01*
X66688Y-35041D01*
X66659Y-34970D01*
X66605Y-34916D01*
X66534Y-34887D01*
X66458Y-34887D01*
X66387Y-34916D01*
X66333Y-34970D01*
X66304Y-35041D01*
X66304Y-35117D01*
X66333Y-35188D01*
X66387Y-35242D01*
X66458Y-35271D01*
X66534Y-35271D01*
X66605Y-35242D01*
X66659Y-35188D01*
X66688Y-35117D01*
X66688Y-35907D01*
X66659Y-35836D01*
X66605Y-35782D01*
X66534Y-35753D01*
X66458Y-35753D01*
X66387Y-35782D01*
X66333Y-35836D01*
X66304Y-35907D01*
X66304Y-35983D01*
X66333Y-36054D01*
X66387Y-36108D01*
X66458Y-36137D01*
X66534Y-36137D01*
X66605Y-36108D01*
X66659Y-36054D01*
X66688Y-35983D01*
X66688Y-36383D01*
X66655Y-36383D01*
X66584Y-36412D01*
X66530Y-36466D01*
X66501Y-36537D01*
X66501Y-36613D01*
X66530Y-36684D01*
X66584Y-36738D01*
X66655Y-36767D01*
X66731Y-36767D01*
X66802Y-36738D01*
X66856Y-36684D01*
X66885Y-36613D01*
X66885Y-37249D01*
X66812Y-37249D01*
X66741Y-37278D01*
X66687Y-37332D01*
X66658Y-37403D01*
X66658Y-37479D01*
X66687Y-37550D01*
X66741Y-37604D01*
X66812Y-37633D01*
X66888Y-37633D01*
X66959Y-37604D01*
X67013Y-37550D01*
X67042Y-37479D01*
X67042Y-41045D01*
X66997Y-41045D01*
X66904Y-41083D01*
X66832Y-41155D01*
X66793Y-41248D01*
X66793Y-41349D01*
X66831Y-41442D01*
X66903Y-41514D01*
X66996Y-41553D01*
X67097Y-41553D01*
X67190Y-41515D01*
X67262Y-41443D01*
X67301Y-41350D01*
X67301Y-42037D01*
X67263Y-41944D01*
X67191Y-41872D01*
X67098Y-41833D01*
X66997Y-41833D01*
X66904Y-41871D01*
X66832Y-41943D01*
X66793Y-42036D01*
X66793Y-42137D01*
X66831Y-42230D01*
X66903Y-42302D01*
X66996Y-42341D01*
X67097Y-42341D01*
X67190Y-42303D01*
X67262Y-42231D01*
X67301Y-42138D01*
X67301Y-47564D01*
X67283Y-47564D01*
X67212Y-47593D01*
X67158Y-47647D01*
X67129Y-47718D01*
X67129Y-47794D01*
X67158Y-47865D01*
X67212Y-47919D01*
X67283Y-47948D01*
X67326Y-47948D01*
X67326Y-47958D01*
X67283Y-47958D01*
X67212Y-47987D01*
X67158Y-48041D01*
X67129Y-48112D01*
X67129Y-48188D01*
X67158Y-48259D01*
X67212Y-48313D01*
X67283Y-48342D01*
X67359Y-48342D01*
X67430Y-48313D01*
X67484Y-48259D01*
X67513Y-48188D01*
X67513Y-48145D01*
X67523Y-48145D01*
X67523Y-48188D01*
X67552Y-48259D01*
X67606Y-48313D01*
X67677Y-48342D01*
X67753Y-48342D01*
X67824Y-48313D01*
X67878Y-48259D01*
X67907Y-48188D01*
X67907Y-56513D01*
X66671Y-56513D01*
X66671Y-50760D01*
X66671Y-50659D01*
X66671Y-50090D01*
X66671Y-49989D01*
X66671Y-49421D01*
X66671Y-49320D01*
X66671Y-48752D01*
X66671Y-48651D01*
X66633Y-48558D01*
X66609Y-48534D01*
X66609Y-47794D01*
X66609Y-47718D01*
X66580Y-47647D01*
X66526Y-47593D01*
X66455Y-47564D01*
X66379Y-47564D01*
X66308Y-47593D01*
X66294Y-47607D01*
X66294Y-40392D01*
X66294Y-40316D01*
X66265Y-40245D01*
X66211Y-40191D01*
X66140Y-40162D01*
X66064Y-40162D01*
X65993Y-40191D01*
X65939Y-40245D01*
X65910Y-40316D01*
X65910Y-40392D01*
X65939Y-40463D01*
X65993Y-40517D01*
X66064Y-40546D01*
X66140Y-40546D01*
X66211Y-40517D01*
X66265Y-40463D01*
X66294Y-40392D01*
X66294Y-47607D01*
X66254Y-47647D01*
X66225Y-47718D01*
X66225Y-47794D01*
X66248Y-47850D01*
X66219Y-47839D01*
X66143Y-47839D01*
X66072Y-47868D01*
X66058Y-47882D01*
X66058Y-47400D01*
X66058Y-47324D01*
X66029Y-47253D01*
X65975Y-47199D01*
X65904Y-47170D01*
X65828Y-47170D01*
X65757Y-47199D01*
X65703Y-47253D01*
X65674Y-47324D01*
X65674Y-47400D01*
X65703Y-47471D01*
X65757Y-47525D01*
X65828Y-47554D01*
X65904Y-47554D01*
X65975Y-47525D01*
X66029Y-47471D01*
X66058Y-47400D01*
X66058Y-47882D01*
X66018Y-47922D01*
X65989Y-47993D01*
X65989Y-48069D01*
X66018Y-48140D01*
X66072Y-48194D01*
X66143Y-48223D01*
X66219Y-48223D01*
X66290Y-48194D01*
X66344Y-48140D01*
X66373Y-48069D01*
X66373Y-47993D01*
X66349Y-47936D01*
X66379Y-47948D01*
X66455Y-47948D01*
X66526Y-47919D01*
X66580Y-47865D01*
X66609Y-47794D01*
X66609Y-48534D01*
X66561Y-48486D01*
X66468Y-48447D01*
X66367Y-48447D01*
X66274Y-48485D01*
X66202Y-48557D01*
X66163Y-48650D01*
X66163Y-48751D01*
X66201Y-48844D01*
X66273Y-48916D01*
X66366Y-48955D01*
X66467Y-48955D01*
X66560Y-48917D01*
X66632Y-48845D01*
X66671Y-48752D01*
X66671Y-49320D01*
X66633Y-49227D01*
X66561Y-49155D01*
X66468Y-49116D01*
X66367Y-49116D01*
X66274Y-49154D01*
X66202Y-49226D01*
X66163Y-49319D01*
X66163Y-49420D01*
X66201Y-49513D01*
X66273Y-49585D01*
X66366Y-49624D01*
X66467Y-49624D01*
X66560Y-49586D01*
X66632Y-49514D01*
X66671Y-49421D01*
X66671Y-49989D01*
X66633Y-49896D01*
X66561Y-49824D01*
X66468Y-49785D01*
X66367Y-49785D01*
X66274Y-49823D01*
X66202Y-49895D01*
X66163Y-49988D01*
X66163Y-50089D01*
X66201Y-50182D01*
X66273Y-50254D01*
X66366Y-50293D01*
X66467Y-50293D01*
X66560Y-50255D01*
X66632Y-50183D01*
X66671Y-50090D01*
X66671Y-50659D01*
X66633Y-50566D01*
X66561Y-50494D01*
X66468Y-50455D01*
X66367Y-50455D01*
X66274Y-50493D01*
X66202Y-50565D01*
X66163Y-50658D01*
X66163Y-50759D01*
X66201Y-50852D01*
X66273Y-50924D01*
X66366Y-50963D01*
X66467Y-50963D01*
X66560Y-50925D01*
X66632Y-50853D01*
X66671Y-50760D01*
X66671Y-56513D01*
X66002Y-56513D01*
X66002Y-50760D01*
X66002Y-50659D01*
X66002Y-50090D01*
X66002Y-49989D01*
X66002Y-49421D01*
X66002Y-49320D01*
X65964Y-49227D01*
X65892Y-49155D01*
X65799Y-49116D01*
X65698Y-49116D01*
X65605Y-49154D01*
X65533Y-49226D01*
X65494Y-49319D01*
X65494Y-49420D01*
X65532Y-49513D01*
X65604Y-49585D01*
X65697Y-49624D01*
X65798Y-49624D01*
X65891Y-49586D01*
X65963Y-49514D01*
X66002Y-49421D01*
X66002Y-49989D01*
X65964Y-49896D01*
X65892Y-49824D01*
X65799Y-49785D01*
X65698Y-49785D01*
X65605Y-49823D01*
X65533Y-49895D01*
X65494Y-49988D01*
X65494Y-50089D01*
X65532Y-50182D01*
X65604Y-50254D01*
X65697Y-50293D01*
X65798Y-50293D01*
X65891Y-50255D01*
X65963Y-50183D01*
X66002Y-50090D01*
X66002Y-50659D01*
X65964Y-50566D01*
X65892Y-50494D01*
X65799Y-50455D01*
X65698Y-50455D01*
X65605Y-50493D01*
X65533Y-50565D01*
X65494Y-50658D01*
X65494Y-50759D01*
X65532Y-50852D01*
X65604Y-50924D01*
X65697Y-50963D01*
X65798Y-50963D01*
X65891Y-50925D01*
X65963Y-50853D01*
X66002Y-50760D01*
X66002Y-56513D01*
X35271Y-56513D01*
X35271Y-36915D01*
X34287Y-35931D01*
X34287Y-35878D01*
X34300Y-35891D01*
X34371Y-35920D01*
X34447Y-35920D01*
X34518Y-35891D01*
X34572Y-35837D01*
X34601Y-35766D01*
X34601Y-35690D01*
X34572Y-35619D01*
X34518Y-35565D01*
X34447Y-35536D01*
X34371Y-35536D01*
X34300Y-35565D01*
X34287Y-35578D01*
X34287Y-35288D01*
X34300Y-35301D01*
X34371Y-35330D01*
X34447Y-35330D01*
X34518Y-35301D01*
X34572Y-35247D01*
X34601Y-35176D01*
X34601Y-35100D01*
X34572Y-35029D01*
X34518Y-34975D01*
X34447Y-34946D01*
X34371Y-34946D01*
X34300Y-34975D01*
X34287Y-34988D01*
X34287Y-32849D01*
X34329Y-32849D01*
X34400Y-32820D01*
X34454Y-32766D01*
X34483Y-32695D01*
X34483Y-32619D01*
X34454Y-32548D01*
X34400Y-32494D01*
X34329Y-32465D01*
X34287Y-32465D01*
X34287Y-28381D01*
X34650Y-28381D01*
X34650Y-29335D01*
X34608Y-29335D01*
X34537Y-29364D01*
X34483Y-29418D01*
X34454Y-29489D01*
X34454Y-29565D01*
X34483Y-29636D01*
X34537Y-29690D01*
X34608Y-29719D01*
X34650Y-29719D01*
X34650Y-35093D01*
X39217Y-39660D01*
X39217Y-42958D01*
X39214Y-42958D01*
X39143Y-42987D01*
X39089Y-43041D01*
X39060Y-43112D01*
X39060Y-43148D01*
X39050Y-43158D01*
X39050Y-43112D01*
X39021Y-43041D01*
X38967Y-42987D01*
X38896Y-42958D01*
X38820Y-42958D01*
X38749Y-42987D01*
X38695Y-43041D01*
X38666Y-43112D01*
X38666Y-43188D01*
X38695Y-43259D01*
X38721Y-43285D01*
X38721Y-44871D01*
X38660Y-44847D01*
X38584Y-44847D01*
X38513Y-44876D01*
X38459Y-44930D01*
X38430Y-45001D01*
X38430Y-45037D01*
X38352Y-45115D01*
X38352Y-44158D01*
X38352Y-44030D01*
X38303Y-43912D01*
X38213Y-43822D01*
X38095Y-43773D01*
X37967Y-43773D01*
X37849Y-43822D01*
X37759Y-43912D01*
X37710Y-44030D01*
X37710Y-44158D01*
X37759Y-44276D01*
X37849Y-44366D01*
X37967Y-44415D01*
X38095Y-44415D01*
X38213Y-44366D01*
X38303Y-44276D01*
X38352Y-44158D01*
X38352Y-45115D01*
X38328Y-45139D01*
X38298Y-45183D01*
X38288Y-45236D01*
X38288Y-47125D01*
X38298Y-47178D01*
X38328Y-47222D01*
X38800Y-47694D01*
X38801Y-47695D01*
X38822Y-47709D01*
X38844Y-47724D01*
X38846Y-47725D01*
X38884Y-47732D01*
X38897Y-47735D01*
X38897Y-47734D01*
X38898Y-47735D01*
X64844Y-47735D01*
X64896Y-47725D01*
X64897Y-47725D01*
X64941Y-47695D01*
X65724Y-46910D01*
X65726Y-46909D01*
X65727Y-46909D01*
X65756Y-46865D01*
X65757Y-46864D01*
X65767Y-46812D01*
X65767Y-38009D01*
X66379Y-37397D01*
X66416Y-37397D01*
X66487Y-37368D01*
X66541Y-37314D01*
X66570Y-37243D01*
X66570Y-37167D01*
X66541Y-37096D01*
X66487Y-37042D01*
X66416Y-37013D01*
X66340Y-37013D01*
X66269Y-37042D01*
X66215Y-37096D01*
X66186Y-37167D01*
X66186Y-37203D01*
X65919Y-37470D01*
X65911Y-37450D01*
X65857Y-37396D01*
X65786Y-37367D01*
X65710Y-37367D01*
X65639Y-37396D01*
X65585Y-37450D01*
X65556Y-37521D01*
X65556Y-37557D01*
X65336Y-37777D01*
X65334Y-37779D01*
X65334Y-35945D01*
X65324Y-35893D01*
X65323Y-35892D01*
X65294Y-35848D01*
X65136Y-35690D01*
X65092Y-35660D01*
X65039Y-35650D01*
X64804Y-35650D01*
X64752Y-35660D01*
X64707Y-35690D01*
X64565Y-35832D01*
X64529Y-35832D01*
X64458Y-35861D01*
X64404Y-35915D01*
X64375Y-35986D01*
X64375Y-36062D01*
X64381Y-36077D01*
X63995Y-35691D01*
X63995Y-34700D01*
X64009Y-34735D01*
X64063Y-34789D01*
X64134Y-34818D01*
X64210Y-34818D01*
X64281Y-34789D01*
X64335Y-34735D01*
X64364Y-34664D01*
X64364Y-34636D01*
X64418Y-34690D01*
X64489Y-34719D01*
X64565Y-34719D01*
X64587Y-34710D01*
X64587Y-35141D01*
X64561Y-35167D01*
X64532Y-35238D01*
X64532Y-35314D01*
X64536Y-35324D01*
X64526Y-35320D01*
X64450Y-35320D01*
X64379Y-35349D01*
X64325Y-35403D01*
X64296Y-35474D01*
X64296Y-35550D01*
X64325Y-35621D01*
X64379Y-35675D01*
X64450Y-35704D01*
X64526Y-35704D01*
X64597Y-35675D01*
X64623Y-35649D01*
X65590Y-35649D01*
X65642Y-35639D01*
X65643Y-35639D01*
X65687Y-35609D01*
X67337Y-33958D01*
X67357Y-34007D01*
X67405Y-34055D01*
X67396Y-34064D01*
X67367Y-34135D01*
X67367Y-34211D01*
X67396Y-34282D01*
X67450Y-34336D01*
X67521Y-34365D01*
X67597Y-34365D01*
X67619Y-34356D01*
X67619Y-35139D01*
X67596Y-35162D01*
X67560Y-35162D01*
X67489Y-35191D01*
X67435Y-35245D01*
X67406Y-35316D01*
X67406Y-35392D01*
X67435Y-35463D01*
X67489Y-35517D01*
X67560Y-35546D01*
X67636Y-35546D01*
X67654Y-35538D01*
X67672Y-35581D01*
X67726Y-35635D01*
X67797Y-35664D01*
X67873Y-35664D01*
X67944Y-35635D01*
X67998Y-35581D01*
X68027Y-35510D01*
X68027Y-35473D01*
X68247Y-35253D01*
X68276Y-35209D01*
X68277Y-35208D01*
X68287Y-35156D01*
X68287Y-34947D01*
X68308Y-34956D01*
X68384Y-34956D01*
X68455Y-34927D01*
X68509Y-34873D01*
X68538Y-34802D01*
X68538Y-34726D01*
X68509Y-34655D01*
X68455Y-34601D01*
X68384Y-34572D01*
X68308Y-34572D01*
X68287Y-34580D01*
X68287Y-34514D01*
X68308Y-34523D01*
X68384Y-34523D01*
X68455Y-34494D01*
X68509Y-34440D01*
X68538Y-34369D01*
X68538Y-34293D01*
X68509Y-34222D01*
X68455Y-34168D01*
X68384Y-34139D01*
X68308Y-34139D01*
X68287Y-34147D01*
X68287Y-34112D01*
X69467Y-32932D01*
X69496Y-32888D01*
X69497Y-32887D01*
X69507Y-32835D01*
X69507Y-32033D01*
X69529Y-32042D01*
X69605Y-32042D01*
X69676Y-32013D01*
X69730Y-31959D01*
X69759Y-31888D01*
X69759Y-31812D01*
X69730Y-31741D01*
X69676Y-31687D01*
X69605Y-31658D01*
X69529Y-31658D01*
X69507Y-31666D01*
X69507Y-31561D01*
X69529Y-31570D01*
X69605Y-31570D01*
X69676Y-31541D01*
X69730Y-31487D01*
X69759Y-31416D01*
X69759Y-31340D01*
X69730Y-31269D01*
X69676Y-31215D01*
X69605Y-31186D01*
X69529Y-31186D01*
X69513Y-31192D01*
X69568Y-31137D01*
X69605Y-31137D01*
X69676Y-31108D01*
X69730Y-31054D01*
X69759Y-30983D01*
X69759Y-30907D01*
X69730Y-30836D01*
X69676Y-30782D01*
X69605Y-30753D01*
X69529Y-30753D01*
X69458Y-30782D01*
X69404Y-30836D01*
X69375Y-30907D01*
X69375Y-30943D01*
X69349Y-30969D01*
X69349Y-30491D01*
X69381Y-30458D01*
X69375Y-30474D01*
X69375Y-30550D01*
X69404Y-30621D01*
X69458Y-30675D01*
X69529Y-30704D01*
X69605Y-30704D01*
X69676Y-30675D01*
X69730Y-30621D01*
X69759Y-30550D01*
X69759Y-30474D01*
X69730Y-30403D01*
X69676Y-30349D01*
X69605Y-30320D01*
X69529Y-30320D01*
X69513Y-30326D01*
X69569Y-30271D01*
X69605Y-30271D01*
X69676Y-30242D01*
X69730Y-30188D01*
X69759Y-30117D01*
X69759Y-30041D01*
X69730Y-29970D01*
X69676Y-29916D01*
X69605Y-29887D01*
X69529Y-29887D01*
X69458Y-29916D01*
X69404Y-29970D01*
X69375Y-30041D01*
X69375Y-30077D01*
X69192Y-30260D01*
X69192Y-29782D01*
X69569Y-29405D01*
X69605Y-29405D01*
X69676Y-29376D01*
X69730Y-29322D01*
X69759Y-29251D01*
X69759Y-29175D01*
X69730Y-29104D01*
X69676Y-29050D01*
X69605Y-29021D01*
X69529Y-29021D01*
X69512Y-29027D01*
X69569Y-28971D01*
X69605Y-28971D01*
X69676Y-28942D01*
X69730Y-28888D01*
X69759Y-28817D01*
X69759Y-28741D01*
X69759Y-28384D01*
X69759Y-28308D01*
X69759Y-27420D01*
X69759Y-27344D01*
X69730Y-27273D01*
X69676Y-27219D01*
X69605Y-27190D01*
X69529Y-27190D01*
X69458Y-27219D01*
X69404Y-27273D01*
X69375Y-27344D01*
X69375Y-27420D01*
X69404Y-27491D01*
X69458Y-27545D01*
X69529Y-27574D01*
X69605Y-27574D01*
X69676Y-27545D01*
X69730Y-27491D01*
X69759Y-27420D01*
X69759Y-28308D01*
X69730Y-28237D01*
X69676Y-28183D01*
X69605Y-28154D01*
X69529Y-28154D01*
X69458Y-28183D01*
X69404Y-28237D01*
X69375Y-28308D01*
X69375Y-28384D01*
X69404Y-28455D01*
X69458Y-28509D01*
X69529Y-28538D01*
X69605Y-28538D01*
X69676Y-28509D01*
X69730Y-28455D01*
X69759Y-28384D01*
X69759Y-28741D01*
X69730Y-28670D01*
X69676Y-28616D01*
X69605Y-28587D01*
X69529Y-28587D01*
X69458Y-28616D01*
X69404Y-28670D01*
X69375Y-28741D01*
X69375Y-28777D01*
X68801Y-29351D01*
X68771Y-29395D01*
X68761Y-29448D01*
X68761Y-29573D01*
X68746Y-29537D01*
X68692Y-29483D01*
X68621Y-29454D01*
X68545Y-29454D01*
X68474Y-29483D01*
X68420Y-29537D01*
X68391Y-29608D01*
X68391Y-29684D01*
X68420Y-29755D01*
X68474Y-29809D01*
X68545Y-29838D01*
X68621Y-29838D01*
X68692Y-29809D01*
X68746Y-29755D01*
X68761Y-29718D01*
X68761Y-30006D01*
X68746Y-29970D01*
X68692Y-29916D01*
X68621Y-29887D01*
X68545Y-29887D01*
X68474Y-29916D01*
X68420Y-29970D01*
X68391Y-30041D01*
X68391Y-30117D01*
X68420Y-30188D01*
X68474Y-30242D01*
X68545Y-30271D01*
X68621Y-30271D01*
X68692Y-30242D01*
X68746Y-30188D01*
X68761Y-30151D01*
X68761Y-32147D01*
X67790Y-33118D01*
X67790Y-31967D01*
X67790Y-31891D01*
X67761Y-31820D01*
X67707Y-31766D01*
X67636Y-31737D01*
X67560Y-31737D01*
X67489Y-31766D01*
X67435Y-31820D01*
X67406Y-31891D01*
X67406Y-31967D01*
X67435Y-32038D01*
X67489Y-32092D01*
X67560Y-32121D01*
X67636Y-32121D01*
X67707Y-32092D01*
X67761Y-32038D01*
X67790Y-31967D01*
X67790Y-33118D01*
X67200Y-33708D01*
X67200Y-33660D01*
X67200Y-33584D01*
X67171Y-33513D01*
X67117Y-33459D01*
X67046Y-33430D01*
X66970Y-33430D01*
X66899Y-33459D01*
X66845Y-33513D01*
X66816Y-33584D01*
X66816Y-33660D01*
X66845Y-33731D01*
X66899Y-33785D01*
X66970Y-33814D01*
X67046Y-33814D01*
X67117Y-33785D01*
X67171Y-33731D01*
X67200Y-33660D01*
X67200Y-33708D01*
X66806Y-34102D01*
X66806Y-32754D01*
X66806Y-32678D01*
X66777Y-32607D01*
X66723Y-32553D01*
X66652Y-32524D01*
X66576Y-32524D01*
X66558Y-32531D01*
X66541Y-32489D01*
X66487Y-32435D01*
X66416Y-32406D01*
X66340Y-32406D01*
X66269Y-32435D01*
X66215Y-32489D01*
X66186Y-32560D01*
X66186Y-32636D01*
X66215Y-32707D01*
X66269Y-32761D01*
X66340Y-32790D01*
X66416Y-32790D01*
X66433Y-32782D01*
X66451Y-32825D01*
X66505Y-32879D01*
X66576Y-32908D01*
X66652Y-32908D01*
X66723Y-32879D01*
X66777Y-32825D01*
X66806Y-32754D01*
X66806Y-34102D01*
X65979Y-34929D01*
X65979Y-32794D01*
X65979Y-32718D01*
X65950Y-32647D01*
X65896Y-32593D01*
X65825Y-32564D01*
X65749Y-32564D01*
X65678Y-32593D01*
X65624Y-32647D01*
X65595Y-32718D01*
X65595Y-32794D01*
X65624Y-32865D01*
X65678Y-32919D01*
X65749Y-32948D01*
X65825Y-32948D01*
X65896Y-32919D01*
X65950Y-32865D01*
X65979Y-32794D01*
X65979Y-34929D01*
X65842Y-35066D01*
X65842Y-33778D01*
X65842Y-33702D01*
X65813Y-33631D01*
X65759Y-33577D01*
X65688Y-33548D01*
X65612Y-33548D01*
X65541Y-33577D01*
X65487Y-33631D01*
X65458Y-33702D01*
X65458Y-33778D01*
X65487Y-33849D01*
X65541Y-33903D01*
X65612Y-33932D01*
X65688Y-33932D01*
X65759Y-33903D01*
X65813Y-33849D01*
X65842Y-33778D01*
X65842Y-35066D01*
X65533Y-35375D01*
X64891Y-35375D01*
X64916Y-35314D01*
X64916Y-35238D01*
X64887Y-35167D01*
X64861Y-35141D01*
X64861Y-34718D01*
X64876Y-34755D01*
X64930Y-34809D01*
X65001Y-34838D01*
X65077Y-34838D01*
X65148Y-34809D01*
X65202Y-34755D01*
X65231Y-34684D01*
X65231Y-34608D01*
X65202Y-34537D01*
X65148Y-34483D01*
X65077Y-34454D01*
X65001Y-34454D01*
X64930Y-34483D01*
X64876Y-34537D01*
X64861Y-34573D01*
X64861Y-34174D01*
X64851Y-34122D01*
X64850Y-34121D01*
X64821Y-34077D01*
X64036Y-33292D01*
X64085Y-33273D01*
X64139Y-33219D01*
X64168Y-33148D01*
X64168Y-33072D01*
X64139Y-33001D01*
X64085Y-32947D01*
X64014Y-32918D01*
X63938Y-32918D01*
X63867Y-32947D01*
X63813Y-33001D01*
X63793Y-33049D01*
X62891Y-32147D01*
X62847Y-32117D01*
X62794Y-32107D01*
X62155Y-32107D01*
X62472Y-31790D01*
X62611Y-31790D01*
X62603Y-31812D01*
X62603Y-31888D01*
X62632Y-31959D01*
X62686Y-32013D01*
X62757Y-32042D01*
X62833Y-32042D01*
X62904Y-32013D01*
X62958Y-31959D01*
X62987Y-31888D01*
X62987Y-31812D01*
X62978Y-31790D01*
X63053Y-31790D01*
X63981Y-32718D01*
X63981Y-32754D01*
X64010Y-32825D01*
X64064Y-32879D01*
X64135Y-32908D01*
X64211Y-32908D01*
X64282Y-32879D01*
X64336Y-32825D01*
X64365Y-32754D01*
X64365Y-32678D01*
X64362Y-32672D01*
X64408Y-32672D01*
X64479Y-32643D01*
X64533Y-32589D01*
X64562Y-32518D01*
X64562Y-32442D01*
X64559Y-32436D01*
X64574Y-32436D01*
X64572Y-32442D01*
X64572Y-32518D01*
X64601Y-32589D01*
X64655Y-32643D01*
X64726Y-32672D01*
X64769Y-32672D01*
X64769Y-32676D01*
X64798Y-32747D01*
X64852Y-32801D01*
X64923Y-32830D01*
X64999Y-32830D01*
X65070Y-32801D01*
X65124Y-32747D01*
X65153Y-32676D01*
X65153Y-32640D01*
X65919Y-31873D01*
X65939Y-31920D01*
X65993Y-31974D01*
X66064Y-32003D01*
X66140Y-32003D01*
X66211Y-31974D01*
X66265Y-31920D01*
X66294Y-31849D01*
X66294Y-31773D01*
X66265Y-31702D01*
X66211Y-31648D01*
X66164Y-31628D01*
X68443Y-29350D01*
X68472Y-29306D01*
X68473Y-29305D01*
X68483Y-29253D01*
X68483Y-27617D01*
X69293Y-26807D01*
X70686Y-26807D01*
X70686Y-43175D01*
X70649Y-43085D01*
X70617Y-43053D01*
X70617Y-41245D01*
X70617Y-41078D01*
X70617Y-39079D01*
X70617Y-38912D01*
X70553Y-38758D01*
X70507Y-38711D01*
X70507Y-33976D01*
X70507Y-33900D01*
X70507Y-33503D01*
X70507Y-33427D01*
X70478Y-33356D01*
X70424Y-33302D01*
X70353Y-33273D01*
X70277Y-33273D01*
X70206Y-33302D01*
X70152Y-33356D01*
X70123Y-33427D01*
X70123Y-33503D01*
X70152Y-33574D01*
X70206Y-33628D01*
X70277Y-33657D01*
X70353Y-33657D01*
X70424Y-33628D01*
X70478Y-33574D01*
X70507Y-33503D01*
X70507Y-33900D01*
X70478Y-33829D01*
X70424Y-33775D01*
X70353Y-33746D01*
X70277Y-33746D01*
X70206Y-33775D01*
X70152Y-33829D01*
X70123Y-33900D01*
X70123Y-33976D01*
X70152Y-34047D01*
X70206Y-34101D01*
X70277Y-34130D01*
X70353Y-34130D01*
X70424Y-34101D01*
X70478Y-34047D01*
X70507Y-33976D01*
X70507Y-38711D01*
X70435Y-38639D01*
X70428Y-38636D01*
X70428Y-38109D01*
X70428Y-38033D01*
X70428Y-36377D01*
X70428Y-36301D01*
X70399Y-36230D01*
X70345Y-36176D01*
X70274Y-36147D01*
X70198Y-36147D01*
X70127Y-36176D01*
X70073Y-36230D01*
X70044Y-36301D01*
X70044Y-36377D01*
X70073Y-36448D01*
X70127Y-36502D01*
X70198Y-36531D01*
X70274Y-36531D01*
X70345Y-36502D01*
X70399Y-36448D01*
X70428Y-36377D01*
X70428Y-38033D01*
X70399Y-37962D01*
X70345Y-37908D01*
X70274Y-37879D01*
X70198Y-37879D01*
X70127Y-37908D01*
X70073Y-37962D01*
X70044Y-38033D01*
X70044Y-38109D01*
X70073Y-38180D01*
X70127Y-38234D01*
X70198Y-38263D01*
X70274Y-38263D01*
X70345Y-38234D01*
X70399Y-38180D01*
X70428Y-38109D01*
X70428Y-38636D01*
X70281Y-38575D01*
X70114Y-38575D01*
X69960Y-38639D01*
X69841Y-38757D01*
X69777Y-38911D01*
X69777Y-39078D01*
X69841Y-39232D01*
X69959Y-39351D01*
X70113Y-39415D01*
X70280Y-39415D01*
X70434Y-39351D01*
X70553Y-39233D01*
X70617Y-39079D01*
X70617Y-41078D01*
X70553Y-40924D01*
X70435Y-40805D01*
X70281Y-40741D01*
X70114Y-40741D01*
X69960Y-40805D01*
X69841Y-40923D01*
X69777Y-41077D01*
X69777Y-41244D01*
X69841Y-41398D01*
X69959Y-41517D01*
X70113Y-41581D01*
X70280Y-41581D01*
X70434Y-41517D01*
X70553Y-41399D01*
X70617Y-41245D01*
X70617Y-43053D01*
X70577Y-43013D01*
X70484Y-42974D01*
X70383Y-42974D01*
X70290Y-43012D01*
X70218Y-43084D01*
X70197Y-43134D01*
X70177Y-43085D01*
X70105Y-43013D01*
X70012Y-42974D01*
X69911Y-42974D01*
X69818Y-43012D01*
X69746Y-43084D01*
X69707Y-43177D01*
X69707Y-43278D01*
X69745Y-43371D01*
X69817Y-43443D01*
X69868Y-43464D01*
X69818Y-43485D01*
X69746Y-43557D01*
X69707Y-43650D01*
X69707Y-43751D01*
X69745Y-43844D01*
X69817Y-43916D01*
X69867Y-43936D01*
X69818Y-43957D01*
X69746Y-44029D01*
X69707Y-44122D01*
X69707Y-44223D01*
X69745Y-44316D01*
X69817Y-44388D01*
X69868Y-44409D01*
X69818Y-44430D01*
X69746Y-44502D01*
X69707Y-44595D01*
X69707Y-44696D01*
X69745Y-44789D01*
X69817Y-44861D01*
X69910Y-44900D01*
X70011Y-44900D01*
X70104Y-44862D01*
X70176Y-44790D01*
X70196Y-44739D01*
X70217Y-44789D01*
X70289Y-44861D01*
X70382Y-44900D01*
X70483Y-44900D01*
X70576Y-44862D01*
X70648Y-44790D01*
X70686Y-44699D01*
X70686Y-46955D01*
X70649Y-46865D01*
X70577Y-46793D01*
X70484Y-46754D01*
X70383Y-46754D01*
X70290Y-46792D01*
X70218Y-46864D01*
X70197Y-46914D01*
X70177Y-46865D01*
X70105Y-46793D01*
X70012Y-46754D01*
X69911Y-46754D01*
X69818Y-46792D01*
X69746Y-46864D01*
X69707Y-46957D01*
X69707Y-47058D01*
X69745Y-47151D01*
X69817Y-47223D01*
X69910Y-47262D01*
X70011Y-47262D01*
X70104Y-47224D01*
X70176Y-47152D01*
X70196Y-47101D01*
X70217Y-47151D01*
X70289Y-47223D01*
X70382Y-47262D01*
X70483Y-47262D01*
X70576Y-47224D01*
X70648Y-47152D01*
X70686Y-47061D01*
X70686Y-47467D01*
X70649Y-47377D01*
X70577Y-47305D01*
X70484Y-47266D01*
X70383Y-47266D01*
X70290Y-47304D01*
X70218Y-47376D01*
X70197Y-47426D01*
X70177Y-47377D01*
X70105Y-47305D01*
X70012Y-47266D01*
X69911Y-47266D01*
X69818Y-47304D01*
X69746Y-47376D01*
X69707Y-47469D01*
X69707Y-47570D01*
X69745Y-47663D01*
X69817Y-47735D01*
X69867Y-47755D01*
X69818Y-47776D01*
X69746Y-47848D01*
X69707Y-47941D01*
X69707Y-48042D01*
X69745Y-48135D01*
X69817Y-48207D01*
X69910Y-48246D01*
X70011Y-48246D01*
X70104Y-48208D01*
X70176Y-48136D01*
X70196Y-48085D01*
X70217Y-48135D01*
X70289Y-48207D01*
X70382Y-48246D01*
X70483Y-48246D01*
X70576Y-48208D01*
X70648Y-48136D01*
X70686Y-48045D01*
X70686Y-55103D01*
X70686Y-55103D01*
G37*
G54D22*
X70686Y-55103D02*
X70576Y-55650D01*
X70273Y-56103D01*
X70175Y-56168D01*
X70175Y-50090D01*
X70175Y-49989D01*
X70175Y-49421D01*
X70175Y-49320D01*
X70137Y-49227D01*
X70065Y-49155D01*
X69972Y-49116D01*
X69871Y-49116D01*
X69778Y-49154D01*
X69706Y-49226D01*
X69667Y-49319D01*
X69667Y-49420D01*
X69705Y-49513D01*
X69777Y-49585D01*
X69870Y-49624D01*
X69971Y-49624D01*
X70064Y-49586D01*
X70136Y-49514D01*
X70175Y-49421D01*
X70175Y-49989D01*
X70137Y-49896D01*
X70065Y-49824D01*
X69972Y-49785D01*
X69871Y-49785D01*
X69778Y-49823D01*
X69706Y-49895D01*
X69667Y-49988D01*
X69667Y-50089D01*
X69705Y-50182D01*
X69777Y-50254D01*
X69870Y-50293D01*
X69971Y-50293D01*
X70064Y-50255D01*
X70136Y-50183D01*
X70175Y-50090D01*
X70175Y-56168D01*
X70026Y-56267D01*
X70026Y-55265D01*
X70026Y-54973D01*
X70026Y-52115D01*
X70026Y-51823D01*
X69915Y-51553D01*
X69708Y-51346D01*
X69601Y-51301D01*
X69601Y-45747D01*
X69601Y-45671D01*
X69572Y-45600D01*
X69523Y-45551D01*
X69523Y-33857D01*
X69523Y-33781D01*
X69494Y-33710D01*
X69440Y-33656D01*
X69369Y-33627D01*
X69293Y-33627D01*
X69222Y-33656D01*
X69168Y-33710D01*
X69139Y-33781D01*
X69139Y-33857D01*
X69168Y-33928D01*
X69222Y-33982D01*
X69293Y-34011D01*
X69369Y-34011D01*
X69440Y-33982D01*
X69494Y-33928D01*
X69523Y-33857D01*
X69523Y-45551D01*
X69518Y-45546D01*
X69447Y-45517D01*
X69416Y-45517D01*
X69416Y-41135D01*
X69416Y-40980D01*
X69416Y-39177D01*
X69416Y-39022D01*
X69404Y-38992D01*
X69404Y-38109D01*
X69404Y-38033D01*
X69404Y-36377D01*
X69404Y-36301D01*
X69375Y-36230D01*
X69321Y-36176D01*
X69250Y-36147D01*
X69174Y-36147D01*
X69103Y-36176D01*
X69049Y-36230D01*
X69020Y-36301D01*
X69020Y-36377D01*
X69049Y-36448D01*
X69103Y-36502D01*
X69174Y-36531D01*
X69250Y-36531D01*
X69321Y-36502D01*
X69375Y-36448D01*
X69404Y-36377D01*
X69404Y-38033D01*
X69375Y-37962D01*
X69321Y-37908D01*
X69250Y-37879D01*
X69174Y-37879D01*
X69103Y-37908D01*
X69049Y-37962D01*
X69020Y-38033D01*
X69020Y-38109D01*
X69049Y-38180D01*
X69103Y-38234D01*
X69174Y-38263D01*
X69250Y-38263D01*
X69321Y-38234D01*
X69375Y-38180D01*
X69404Y-38109D01*
X69404Y-38992D01*
X69357Y-38879D01*
X69248Y-38769D01*
X69105Y-38710D01*
X68950Y-38710D01*
X68807Y-38769D01*
X68697Y-38878D01*
X68638Y-39021D01*
X68638Y-39146D01*
X68608Y-39116D01*
X68578Y-39103D01*
X68578Y-37479D01*
X68578Y-37403D01*
X68549Y-37332D01*
X68499Y-37282D01*
X68499Y-35786D01*
X68499Y-35710D01*
X68470Y-35639D01*
X68416Y-35585D01*
X68345Y-35556D01*
X68269Y-35556D01*
X68198Y-35585D01*
X68144Y-35639D01*
X68115Y-35710D01*
X68115Y-35786D01*
X68144Y-35857D01*
X68198Y-35911D01*
X68269Y-35940D01*
X68345Y-35940D01*
X68416Y-35911D01*
X68470Y-35857D01*
X68499Y-35786D01*
X68499Y-37282D01*
X68495Y-37278D01*
X68424Y-37249D01*
X68348Y-37249D01*
X68277Y-37278D01*
X68223Y-37332D01*
X68194Y-37403D01*
X68194Y-37479D01*
X68223Y-37550D01*
X68277Y-37604D01*
X68348Y-37633D01*
X68424Y-37633D01*
X68495Y-37604D01*
X68549Y-37550D01*
X68578Y-37479D01*
X68578Y-39103D01*
X68515Y-39077D01*
X68414Y-39077D01*
X68321Y-39115D01*
X68249Y-39187D01*
X68210Y-39280D01*
X68210Y-39381D01*
X68248Y-39474D01*
X68320Y-39546D01*
X68413Y-39585D01*
X68514Y-39585D01*
X68607Y-39547D01*
X68679Y-39475D01*
X68718Y-39382D01*
X68718Y-39340D01*
X68806Y-39429D01*
X68949Y-39488D01*
X69104Y-39488D01*
X69247Y-39429D01*
X69357Y-39320D01*
X69416Y-39177D01*
X69416Y-40980D01*
X69357Y-40837D01*
X69248Y-40727D01*
X69105Y-40668D01*
X68950Y-40668D01*
X68807Y-40727D01*
X68697Y-40836D01*
X68638Y-40979D01*
X68638Y-41134D01*
X68697Y-41277D01*
X68806Y-41387D01*
X68949Y-41446D01*
X69104Y-41446D01*
X69247Y-41387D01*
X69357Y-41278D01*
X69416Y-41135D01*
X69416Y-45517D01*
X69371Y-45517D01*
X69300Y-45546D01*
X69246Y-45600D01*
X69217Y-45671D01*
X69217Y-45747D01*
X69246Y-45818D01*
X69300Y-45872D01*
X69371Y-45901D01*
X69447Y-45901D01*
X69518Y-45872D01*
X69572Y-45818D01*
X69601Y-45747D01*
X69601Y-51301D01*
X69545Y-51277D01*
X69545Y-50090D01*
X69545Y-49989D01*
X69545Y-49421D01*
X69545Y-49320D01*
X69507Y-49227D01*
X69483Y-49203D01*
X69483Y-48542D01*
X69483Y-48466D01*
X69454Y-48395D01*
X69400Y-48341D01*
X69329Y-48312D01*
X69253Y-48312D01*
X69182Y-48341D01*
X69128Y-48395D01*
X69099Y-48466D01*
X69099Y-48542D01*
X69128Y-48613D01*
X69182Y-48667D01*
X69253Y-48696D01*
X69329Y-48696D01*
X69400Y-48667D01*
X69454Y-48613D01*
X69483Y-48542D01*
X69483Y-49203D01*
X69435Y-49155D01*
X69342Y-49116D01*
X69241Y-49116D01*
X69148Y-49154D01*
X69076Y-49226D01*
X69037Y-49319D01*
X69037Y-49420D01*
X69075Y-49513D01*
X69147Y-49585D01*
X69240Y-49624D01*
X69341Y-49624D01*
X69434Y-49586D01*
X69506Y-49514D01*
X69545Y-49421D01*
X69545Y-49989D01*
X69507Y-49896D01*
X69435Y-49824D01*
X69342Y-49785D01*
X69241Y-49785D01*
X69148Y-49823D01*
X69076Y-49895D01*
X69037Y-49988D01*
X69037Y-50089D01*
X69075Y-50182D01*
X69147Y-50254D01*
X69240Y-50293D01*
X69341Y-50293D01*
X69434Y-50255D01*
X69506Y-50183D01*
X69545Y-50090D01*
X69545Y-51277D01*
X69438Y-51233D01*
X69146Y-51233D01*
X68876Y-51344D01*
X68876Y-50090D01*
X68876Y-49989D01*
X68876Y-49421D01*
X68876Y-49320D01*
X68838Y-49227D01*
X68766Y-49155D01*
X68673Y-49116D01*
X68572Y-49116D01*
X68499Y-49145D01*
X68499Y-39998D01*
X68499Y-39922D01*
X68470Y-39851D01*
X68416Y-39797D01*
X68345Y-39768D01*
X68269Y-39768D01*
X68198Y-39797D01*
X68144Y-39851D01*
X68115Y-39922D01*
X68115Y-39998D01*
X68144Y-40069D01*
X68198Y-40123D01*
X68269Y-40152D01*
X68345Y-40152D01*
X68416Y-40123D01*
X68470Y-40069D01*
X68499Y-39998D01*
X68499Y-49145D01*
X68479Y-49154D01*
X68407Y-49226D01*
X68368Y-49319D01*
X68368Y-49420D01*
X68406Y-49513D01*
X68478Y-49585D01*
X68571Y-49624D01*
X68672Y-49624D01*
X68765Y-49586D01*
X68837Y-49514D01*
X68876Y-49421D01*
X68876Y-49989D01*
X68838Y-49896D01*
X68766Y-49824D01*
X68673Y-49785D01*
X68572Y-49785D01*
X68479Y-49823D01*
X68407Y-49895D01*
X68368Y-49988D01*
X68368Y-50089D01*
X68406Y-50182D01*
X68478Y-50254D01*
X68571Y-50293D01*
X68672Y-50293D01*
X68765Y-50255D01*
X68837Y-50183D01*
X68876Y-50090D01*
X68876Y-51344D01*
X68669Y-51551D01*
X68556Y-51821D01*
X68556Y-52113D01*
X68667Y-52383D01*
X68874Y-52590D01*
X69144Y-52703D01*
X69436Y-52703D01*
X69706Y-52592D01*
X69913Y-52385D01*
X70026Y-52115D01*
X70026Y-54973D01*
X69915Y-54703D01*
X69708Y-54496D01*
X69438Y-54383D01*
X69146Y-54383D01*
X68876Y-54494D01*
X68669Y-54701D01*
X68556Y-54971D01*
X68556Y-55263D01*
X68667Y-55533D01*
X68874Y-55740D01*
X69144Y-55853D01*
X69436Y-55853D01*
X69706Y-55742D01*
X69913Y-55535D01*
X70026Y-55265D01*
X70026Y-56267D01*
X69824Y-56402D01*
X69271Y-56513D01*
X67907Y-56513D01*
X67907Y-48188D01*
X67907Y-48112D01*
X67878Y-48041D01*
X67824Y-47987D01*
X67753Y-47958D01*
X67710Y-47958D01*
X67710Y-47948D01*
X67753Y-47948D01*
X67824Y-47919D01*
X67878Y-47865D01*
X67907Y-47794D01*
X67907Y-47718D01*
X67878Y-47647D01*
X67824Y-47593D01*
X67753Y-47564D01*
X67677Y-47564D01*
X67606Y-47593D01*
X67552Y-47647D01*
X67523Y-47718D01*
X67523Y-47761D01*
X67513Y-47761D01*
X67513Y-47718D01*
X67484Y-47647D01*
X67430Y-47593D01*
X67359Y-47564D01*
X67301Y-47564D01*
X67301Y-42138D01*
X67301Y-42037D01*
X67301Y-41350D01*
X67301Y-41249D01*
X67279Y-41195D01*
X67279Y-36731D01*
X67279Y-36655D01*
X67250Y-36584D01*
X67200Y-36534D01*
X67200Y-36337D01*
X67200Y-36261D01*
X67171Y-36190D01*
X67117Y-36136D01*
X67046Y-36107D01*
X66970Y-36107D01*
X66899Y-36136D01*
X66845Y-36190D01*
X66816Y-36261D01*
X66816Y-36337D01*
X66845Y-36408D01*
X66899Y-36462D01*
X66970Y-36491D01*
X67046Y-36491D01*
X67117Y-36462D01*
X67171Y-36408D01*
X67200Y-36337D01*
X67200Y-36534D01*
X67196Y-36530D01*
X67125Y-36501D01*
X67049Y-36501D01*
X66978Y-36530D01*
X66924Y-36584D01*
X66895Y-36655D01*
X66895Y-36731D01*
X66924Y-36802D01*
X66978Y-36856D01*
X67049Y-36885D01*
X67125Y-36885D01*
X67196Y-36856D01*
X67250Y-36802D01*
X67279Y-36731D01*
X67279Y-41195D01*
X67263Y-41156D01*
X67191Y-41084D01*
X67098Y-41045D01*
X67042Y-41045D01*
X67042Y-37479D01*
X67042Y-37403D01*
X67013Y-37332D01*
X66959Y-37278D01*
X66888Y-37249D01*
X66885Y-37249D01*
X66885Y-36613D01*
X66885Y-36537D01*
X66856Y-36466D01*
X66802Y-36412D01*
X66731Y-36383D01*
X66688Y-36383D01*
X66688Y-35983D01*
X66688Y-35907D01*
X66688Y-35117D01*
X66688Y-35041D01*
X66659Y-34970D01*
X66605Y-34916D01*
X66534Y-34887D01*
X66458Y-34887D01*
X66387Y-34916D01*
X66333Y-34970D01*
X66304Y-35041D01*
X66304Y-35117D01*
X66333Y-35188D01*
X66387Y-35242D01*
X66458Y-35271D01*
X66534Y-35271D01*
X66605Y-35242D01*
X66659Y-35188D01*
X66688Y-35117D01*
X66688Y-35907D01*
X66659Y-35836D01*
X66605Y-35782D01*
X66534Y-35753D01*
X66458Y-35753D01*
X66387Y-35782D01*
X66333Y-35836D01*
X66304Y-35907D01*
X66304Y-35983D01*
X66333Y-36054D01*
X66387Y-36108D01*
X66458Y-36137D01*
X66534Y-36137D01*
X66605Y-36108D01*
X66659Y-36054D01*
X66688Y-35983D01*
X66688Y-36383D01*
X66655Y-36383D01*
X66584Y-36412D01*
X66530Y-36466D01*
X66501Y-36537D01*
X66501Y-36613D01*
X66530Y-36684D01*
X66584Y-36738D01*
X66655Y-36767D01*
X66731Y-36767D01*
X66802Y-36738D01*
X66856Y-36684D01*
X66885Y-36613D01*
X66885Y-37249D01*
X66812Y-37249D01*
X66741Y-37278D01*
X66687Y-37332D01*
X66658Y-37403D01*
X66658Y-37479D01*
X66687Y-37550D01*
X66741Y-37604D01*
X66812Y-37633D01*
X66888Y-37633D01*
X66959Y-37604D01*
X67013Y-37550D01*
X67042Y-37479D01*
X67042Y-41045D01*
X66997Y-41045D01*
X66904Y-41083D01*
X66832Y-41155D01*
X66793Y-41248D01*
X66793Y-41349D01*
X66831Y-41442D01*
X66903Y-41514D01*
X66996Y-41553D01*
X67097Y-41553D01*
X67190Y-41515D01*
X67262Y-41443D01*
X67301Y-41350D01*
X67301Y-42037D01*
X67263Y-41944D01*
X67191Y-41872D01*
X67098Y-41833D01*
X66997Y-41833D01*
X66904Y-41871D01*
X66832Y-41943D01*
X66793Y-42036D01*
X66793Y-42137D01*
X66831Y-42230D01*
X66903Y-42302D01*
X66996Y-42341D01*
X67097Y-42341D01*
X67190Y-42303D01*
X67262Y-42231D01*
X67301Y-42138D01*
X67301Y-47564D01*
X67283Y-47564D01*
X67212Y-47593D01*
X67158Y-47647D01*
X67129Y-47718D01*
X67129Y-47794D01*
X67158Y-47865D01*
X67212Y-47919D01*
X67283Y-47948D01*
X67326Y-47948D01*
X67326Y-47958D01*
X67283Y-47958D01*
X67212Y-47987D01*
X67158Y-48041D01*
X67129Y-48112D01*
X67129Y-48188D01*
X67158Y-48259D01*
X67212Y-48313D01*
X67283Y-48342D01*
X67359Y-48342D01*
X67430Y-48313D01*
X67484Y-48259D01*
X67513Y-48188D01*
X67513Y-48145D01*
X67523Y-48145D01*
X67523Y-48188D01*
X67552Y-48259D01*
X67606Y-48313D01*
X67677Y-48342D01*
X67753Y-48342D01*
X67824Y-48313D01*
X67878Y-48259D01*
X67907Y-48188D01*
X67907Y-56513D01*
X66671Y-56513D01*
X66671Y-50760D01*
X66671Y-50659D01*
X66671Y-50090D01*
X66671Y-49989D01*
X66671Y-49421D01*
X66671Y-49320D01*
X66671Y-48752D01*
X66671Y-48651D01*
X66633Y-48558D01*
X66609Y-48534D01*
X66609Y-47794D01*
X66609Y-47718D01*
X66580Y-47647D01*
X66526Y-47593D01*
X66455Y-47564D01*
X66379Y-47564D01*
X66308Y-47593D01*
X66294Y-47607D01*
X66294Y-40392D01*
X66294Y-40316D01*
X66265Y-40245D01*
X66211Y-40191D01*
X66140Y-40162D01*
X66064Y-40162D01*
X65993Y-40191D01*
X65939Y-40245D01*
X65910Y-40316D01*
X65910Y-40392D01*
X65939Y-40463D01*
X65993Y-40517D01*
X66064Y-40546D01*
X66140Y-40546D01*
X66211Y-40517D01*
X66265Y-40463D01*
X66294Y-40392D01*
X66294Y-47607D01*
X66254Y-47647D01*
X66225Y-47718D01*
X66225Y-47794D01*
X66248Y-47850D01*
X66219Y-47839D01*
X66143Y-47839D01*
X66072Y-47868D01*
X66058Y-47882D01*
X66058Y-47400D01*
X66058Y-47324D01*
X66029Y-47253D01*
X65975Y-47199D01*
X65904Y-47170D01*
X65828Y-47170D01*
X65757Y-47199D01*
X65703Y-47253D01*
X65674Y-47324D01*
X65674Y-47400D01*
X65703Y-47471D01*
X65757Y-47525D01*
X65828Y-47554D01*
X65904Y-47554D01*
X65975Y-47525D01*
X66029Y-47471D01*
X66058Y-47400D01*
X66058Y-47882D01*
X66018Y-47922D01*
X65989Y-47993D01*
X65989Y-48069D01*
X66018Y-48140D01*
X66072Y-48194D01*
X66143Y-48223D01*
X66219Y-48223D01*
X66290Y-48194D01*
X66344Y-48140D01*
X66373Y-48069D01*
X66373Y-47993D01*
X66349Y-47936D01*
X66379Y-47948D01*
X66455Y-47948D01*
X66526Y-47919D01*
X66580Y-47865D01*
X66609Y-47794D01*
X66609Y-48534D01*
X66561Y-48486D01*
X66468Y-48447D01*
X66367Y-48447D01*
X66274Y-48485D01*
X66202Y-48557D01*
X66163Y-48650D01*
X66163Y-48751D01*
X66201Y-48844D01*
X66273Y-48916D01*
X66366Y-48955D01*
X66467Y-48955D01*
X66560Y-48917D01*
X66632Y-48845D01*
X66671Y-48752D01*
X66671Y-49320D01*
X66633Y-49227D01*
X66561Y-49155D01*
X66468Y-49116D01*
X66367Y-49116D01*
X66274Y-49154D01*
X66202Y-49226D01*
X66163Y-49319D01*
X66163Y-49420D01*
X66201Y-49513D01*
X66273Y-49585D01*
X66366Y-49624D01*
X66467Y-49624D01*
X66560Y-49586D01*
X66632Y-49514D01*
X66671Y-49421D01*
X66671Y-49989D01*
X66633Y-49896D01*
X66561Y-49824D01*
X66468Y-49785D01*
X66367Y-49785D01*
X66274Y-49823D01*
X66202Y-49895D01*
X66163Y-49988D01*
X66163Y-50089D01*
X66201Y-50182D01*
X66273Y-50254D01*
X66366Y-50293D01*
X66467Y-50293D01*
X66560Y-50255D01*
X66632Y-50183D01*
X66671Y-50090D01*
X66671Y-50659D01*
X66633Y-50566D01*
X66561Y-50494D01*
X66468Y-50455D01*
X66367Y-50455D01*
X66274Y-50493D01*
X66202Y-50565D01*
X66163Y-50658D01*
X66163Y-50759D01*
X66201Y-50852D01*
X66273Y-50924D01*
X66366Y-50963D01*
X66467Y-50963D01*
X66560Y-50925D01*
X66632Y-50853D01*
X66671Y-50760D01*
X66671Y-56513D01*
X66002Y-56513D01*
X66002Y-50760D01*
X66002Y-50659D01*
X66002Y-50090D01*
X66002Y-49989D01*
X66002Y-49421D01*
X66002Y-49320D01*
X65964Y-49227D01*
X65892Y-49155D01*
X65799Y-49116D01*
X65698Y-49116D01*
X65605Y-49154D01*
X65533Y-49226D01*
X65494Y-49319D01*
X65494Y-49420D01*
X65532Y-49513D01*
X65604Y-49585D01*
X65697Y-49624D01*
X65798Y-49624D01*
X65891Y-49586D01*
X65963Y-49514D01*
X66002Y-49421D01*
X66002Y-49989D01*
X65964Y-49896D01*
X65892Y-49824D01*
X65799Y-49785D01*
X65698Y-49785D01*
X65605Y-49823D01*
X65533Y-49895D01*
X65494Y-49988D01*
X65494Y-50089D01*
X65532Y-50182D01*
X65604Y-50254D01*
X65697Y-50293D01*
X65798Y-50293D01*
X65891Y-50255D01*
X65963Y-50183D01*
X66002Y-50090D01*
X66002Y-50659D01*
X65964Y-50566D01*
X65892Y-50494D01*
X65799Y-50455D01*
X65698Y-50455D01*
X65605Y-50493D01*
X65533Y-50565D01*
X65494Y-50658D01*
X65494Y-50759D01*
X65532Y-50852D01*
X65604Y-50924D01*
X65697Y-50963D01*
X65798Y-50963D01*
X65891Y-50925D01*
X65963Y-50853D01*
X66002Y-50760D01*
X66002Y-56513D01*
X35271Y-56513D01*
X35271Y-36915D01*
X34287Y-35931D01*
X34287Y-35878D01*
X34300Y-35891D01*
X34371Y-35920D01*
X34447Y-35920D01*
X34518Y-35891D01*
X34572Y-35837D01*
X34601Y-35766D01*
X34601Y-35690D01*
X34572Y-35619D01*
X34518Y-35565D01*
X34447Y-35536D01*
X34371Y-35536D01*
X34300Y-35565D01*
X34287Y-35578D01*
X34287Y-35288D01*
X34300Y-35301D01*
X34371Y-35330D01*
X34447Y-35330D01*
X34518Y-35301D01*
X34572Y-35247D01*
X34601Y-35176D01*
X34601Y-35100D01*
X34572Y-35029D01*
X34518Y-34975D01*
X34447Y-34946D01*
X34371Y-34946D01*
X34300Y-34975D01*
X34287Y-34988D01*
X34287Y-32849D01*
X34329Y-32849D01*
X34400Y-32820D01*
X34454Y-32766D01*
X34483Y-32695D01*
X34483Y-32619D01*
X34454Y-32548D01*
X34400Y-32494D01*
X34329Y-32465D01*
X34287Y-32465D01*
X34287Y-28381D01*
X34650Y-28381D01*
X34650Y-29335D01*
X34608Y-29335D01*
X34537Y-29364D01*
X34483Y-29418D01*
X34454Y-29489D01*
X34454Y-29565D01*
X34483Y-29636D01*
X34537Y-29690D01*
X34608Y-29719D01*
X34650Y-29719D01*
X34650Y-35093D01*
X39217Y-39660D01*
X39217Y-42958D01*
X39214Y-42958D01*
X39143Y-42987D01*
X39089Y-43041D01*
X39060Y-43112D01*
X39060Y-43148D01*
X39050Y-43158D01*
X39050Y-43112D01*
X39021Y-43041D01*
X38967Y-42987D01*
X38896Y-42958D01*
X38820Y-42958D01*
X38749Y-42987D01*
X38695Y-43041D01*
X38666Y-43112D01*
X38666Y-43188D01*
X38695Y-43259D01*
X38721Y-43285D01*
X38721Y-44871D01*
X38660Y-44847D01*
X38584Y-44847D01*
X38513Y-44876D01*
X38459Y-44930D01*
X38430Y-45001D01*
X38430Y-45037D01*
X38352Y-45115D01*
X38352Y-44158D01*
X38352Y-44030D01*
X38303Y-43912D01*
X38213Y-43822D01*
X38095Y-43773D01*
X37967Y-43773D01*
X37849Y-43822D01*
X37759Y-43912D01*
X37710Y-44030D01*
X37710Y-44158D01*
X37759Y-44276D01*
X37849Y-44366D01*
X37967Y-44415D01*
X38095Y-44415D01*
X38213Y-44366D01*
X38303Y-44276D01*
X38352Y-44158D01*
X38352Y-45115D01*
X38328Y-45139D01*
X38298Y-45183D01*
X38288Y-45236D01*
X38288Y-47125D01*
X38298Y-47178D01*
X38328Y-47222D01*
X38800Y-47694D01*
X38801Y-47695D01*
X38822Y-47709D01*
X38844Y-47724D01*
X38846Y-47725D01*
X38884Y-47732D01*
X38897Y-47735D01*
X38897Y-47734D01*
X38898Y-47735D01*
X64844Y-47735D01*
X64896Y-47725D01*
X64897Y-47725D01*
X64941Y-47695D01*
X65724Y-46910D01*
X65726Y-46909D01*
X65727Y-46909D01*
X65756Y-46865D01*
X65757Y-46864D01*
X65767Y-46812D01*
X65767Y-38009D01*
X66379Y-37397D01*
X66416Y-37397D01*
X66487Y-37368D01*
X66541Y-37314D01*
X66570Y-37243D01*
X66570Y-37167D01*
X66541Y-37096D01*
X66487Y-37042D01*
X66416Y-37013D01*
X66340Y-37013D01*
X66269Y-37042D01*
X66215Y-37096D01*
X66186Y-37167D01*
X66186Y-37203D01*
X65919Y-37470D01*
X65911Y-37450D01*
X65857Y-37396D01*
X65786Y-37367D01*
X65710Y-37367D01*
X65639Y-37396D01*
X65585Y-37450D01*
X65556Y-37521D01*
X65556Y-37557D01*
X65336Y-37777D01*
X65334Y-37779D01*
X65334Y-35945D01*
X65324Y-35893D01*
X65323Y-35892D01*
X65294Y-35848D01*
X65136Y-35690D01*
X65092Y-35660D01*
X65039Y-35650D01*
X64804Y-35650D01*
X64752Y-35660D01*
X64707Y-35690D01*
X64565Y-35832D01*
X64529Y-35832D01*
X64458Y-35861D01*
X64404Y-35915D01*
X64375Y-35986D01*
X64375Y-36062D01*
X64381Y-36077D01*
X63995Y-35691D01*
X63995Y-34700D01*
X64009Y-34735D01*
X64063Y-34789D01*
X64134Y-34818D01*
X64210Y-34818D01*
X64281Y-34789D01*
X64335Y-34735D01*
X64364Y-34664D01*
X64364Y-34636D01*
X64418Y-34690D01*
X64489Y-34719D01*
X64565Y-34719D01*
X64587Y-34710D01*
X64587Y-35141D01*
X64561Y-35167D01*
X64532Y-35238D01*
X64532Y-35314D01*
X64536Y-35324D01*
X64526Y-35320D01*
X64450Y-35320D01*
X64379Y-35349D01*
X64325Y-35403D01*
X64296Y-35474D01*
X64296Y-35550D01*
X64325Y-35621D01*
X64379Y-35675D01*
X64450Y-35704D01*
X64526Y-35704D01*
X64597Y-35675D01*
X64623Y-35649D01*
X65590Y-35649D01*
X65642Y-35639D01*
X65643Y-35639D01*
X65687Y-35609D01*
X67337Y-33958D01*
X67357Y-34007D01*
X67405Y-34055D01*
X67396Y-34064D01*
X67367Y-34135D01*
X67367Y-34211D01*
X67396Y-34282D01*
X67450Y-34336D01*
X67521Y-34365D01*
X67597Y-34365D01*
X67619Y-34356D01*
X67619Y-35139D01*
X67596Y-35162D01*
X67560Y-35162D01*
X67489Y-35191D01*
X67435Y-35245D01*
X67406Y-35316D01*
X67406Y-35392D01*
X67435Y-35463D01*
X67489Y-35517D01*
X67560Y-35546D01*
X67636Y-35546D01*
X67654Y-35538D01*
X67672Y-35581D01*
X67726Y-35635D01*
X67797Y-35664D01*
X67873Y-35664D01*
X67944Y-35635D01*
X67998Y-35581D01*
X68027Y-35510D01*
X68027Y-35473D01*
X68247Y-35253D01*
X68276Y-35209D01*
X68277Y-35208D01*
X68287Y-35156D01*
X68287Y-34947D01*
X68308Y-34956D01*
X68384Y-34956D01*
X68455Y-34927D01*
X68509Y-34873D01*
X68538Y-34802D01*
X68538Y-34726D01*
X68509Y-34655D01*
X68455Y-34601D01*
X68384Y-34572D01*
X68308Y-34572D01*
X68287Y-34580D01*
X68287Y-34514D01*
X68308Y-34523D01*
X68384Y-34523D01*
X68455Y-34494D01*
X68509Y-34440D01*
X68538Y-34369D01*
X68538Y-34293D01*
X68509Y-34222D01*
X68455Y-34168D01*
X68384Y-34139D01*
X68308Y-34139D01*
X68287Y-34147D01*
X68287Y-34112D01*
X69467Y-32932D01*
X69496Y-32888D01*
X69497Y-32887D01*
X69507Y-32835D01*
X69507Y-32033D01*
X69529Y-32042D01*
X69605Y-32042D01*
X69676Y-32013D01*
X69730Y-31959D01*
X69759Y-31888D01*
X69759Y-31812D01*
X69730Y-31741D01*
X69676Y-31687D01*
X69605Y-31658D01*
X69529Y-31658D01*
X69507Y-31666D01*
X69507Y-31561D01*
X69529Y-31570D01*
X69605Y-31570D01*
X69676Y-31541D01*
X69730Y-31487D01*
X69759Y-31416D01*
X69759Y-31340D01*
X69730Y-31269D01*
X69676Y-31215D01*
X69605Y-31186D01*
X69529Y-31186D01*
X69513Y-31192D01*
X69568Y-31137D01*
X69605Y-31137D01*
X69676Y-31108D01*
X69730Y-31054D01*
X69759Y-30983D01*
X69759Y-30907D01*
X69730Y-30836D01*
X69676Y-30782D01*
X69605Y-30753D01*
X69529Y-30753D01*
X69458Y-30782D01*
X69404Y-30836D01*
X69375Y-30907D01*
X69375Y-30943D01*
X69349Y-30969D01*
X69349Y-30491D01*
X69381Y-30458D01*
X69375Y-30474D01*
X69375Y-30550D01*
X69404Y-30621D01*
X69458Y-30675D01*
X69529Y-30704D01*
X69605Y-30704D01*
X69676Y-30675D01*
X69730Y-30621D01*
X69759Y-30550D01*
X69759Y-30474D01*
X69730Y-30403D01*
X69676Y-30349D01*
X69605Y-30320D01*
X69529Y-30320D01*
X69513Y-30326D01*
X69569Y-30271D01*
X69605Y-30271D01*
X69676Y-30242D01*
X69730Y-30188D01*
X69759Y-30117D01*
X69759Y-30041D01*
X69730Y-29970D01*
X69676Y-29916D01*
X69605Y-29887D01*
X69529Y-29887D01*
X69458Y-29916D01*
X69404Y-29970D01*
X69375Y-30041D01*
X69375Y-30077D01*
X69192Y-30260D01*
X69192Y-29782D01*
X69569Y-29405D01*
X69605Y-29405D01*
X69676Y-29376D01*
X69730Y-29322D01*
X69759Y-29251D01*
X69759Y-29175D01*
X69730Y-29104D01*
X69676Y-29050D01*
X69605Y-29021D01*
X69529Y-29021D01*
X69512Y-29027D01*
X69569Y-28971D01*
X69605Y-28971D01*
X69676Y-28942D01*
X69730Y-28888D01*
X69759Y-28817D01*
X69759Y-28741D01*
X69759Y-28384D01*
X69759Y-28308D01*
X69759Y-27420D01*
X69759Y-27344D01*
X69730Y-27273D01*
X69676Y-27219D01*
X69605Y-27190D01*
X69529Y-27190D01*
X69458Y-27219D01*
X69404Y-27273D01*
X69375Y-27344D01*
X69375Y-27420D01*
X69404Y-27491D01*
X69458Y-27545D01*
X69529Y-27574D01*
X69605Y-27574D01*
X69676Y-27545D01*
X69730Y-27491D01*
X69759Y-27420D01*
X69759Y-28308D01*
X69730Y-28237D01*
X69676Y-28183D01*
X69605Y-28154D01*
X69529Y-28154D01*
X69458Y-28183D01*
X69404Y-28237D01*
X69375Y-28308D01*
X69375Y-28384D01*
X69404Y-28455D01*
X69458Y-28509D01*
X69529Y-28538D01*
X69605Y-28538D01*
X69676Y-28509D01*
X69730Y-28455D01*
X69759Y-28384D01*
X69759Y-28741D01*
X69730Y-28670D01*
X69676Y-28616D01*
X69605Y-28587D01*
X69529Y-28587D01*
X69458Y-28616D01*
X69404Y-28670D01*
X69375Y-28741D01*
X69375Y-28777D01*
X68801Y-29351D01*
X68771Y-29395D01*
X68761Y-29448D01*
X68761Y-29573D01*
X68746Y-29537D01*
X68692Y-29483D01*
X68621Y-29454D01*
X68545Y-29454D01*
X68474Y-29483D01*
X68420Y-29537D01*
X68391Y-29608D01*
X68391Y-29684D01*
X68420Y-29755D01*
X68474Y-29809D01*
X68545Y-29838D01*
X68621Y-29838D01*
X68692Y-29809D01*
X68746Y-29755D01*
X68761Y-29718D01*
X68761Y-30006D01*
X68746Y-29970D01*
X68692Y-29916D01*
X68621Y-29887D01*
X68545Y-29887D01*
X68474Y-29916D01*
X68420Y-29970D01*
X68391Y-30041D01*
X68391Y-30117D01*
X68420Y-30188D01*
X68474Y-30242D01*
X68545Y-30271D01*
X68621Y-30271D01*
X68692Y-30242D01*
X68746Y-30188D01*
X68761Y-30151D01*
X68761Y-32147D01*
X67790Y-33118D01*
X67790Y-31967D01*
X67790Y-31891D01*
X67761Y-31820D01*
X67707Y-31766D01*
X67636Y-31737D01*
X67560Y-31737D01*
X67489Y-31766D01*
X67435Y-31820D01*
X67406Y-31891D01*
X67406Y-31967D01*
X67435Y-32038D01*
X67489Y-32092D01*
X67560Y-32121D01*
X67636Y-32121D01*
X67707Y-32092D01*
X67761Y-32038D01*
X67790Y-31967D01*
X67790Y-33118D01*
X67200Y-33708D01*
X67200Y-33660D01*
X67200Y-33584D01*
X67171Y-33513D01*
X67117Y-33459D01*
X67046Y-33430D01*
X66970Y-33430D01*
X66899Y-33459D01*
X66845Y-33513D01*
X66816Y-33584D01*
X66816Y-33660D01*
X66845Y-33731D01*
X66899Y-33785D01*
X66970Y-33814D01*
X67046Y-33814D01*
X67117Y-33785D01*
X67171Y-33731D01*
X67200Y-33660D01*
X67200Y-33708D01*
X66806Y-34102D01*
X66806Y-32754D01*
X66806Y-32678D01*
X66777Y-32607D01*
X66723Y-32553D01*
X66652Y-32524D01*
X66576Y-32524D01*
X66558Y-32531D01*
X66541Y-32489D01*
X66487Y-32435D01*
X66416Y-32406D01*
X66340Y-32406D01*
X66269Y-32435D01*
X66215Y-32489D01*
X66186Y-32560D01*
X66186Y-32636D01*
X66215Y-32707D01*
X66269Y-32761D01*
X66340Y-32790D01*
X66416Y-32790D01*
X66433Y-32782D01*
X66451Y-32825D01*
X66505Y-32879D01*
X66576Y-32908D01*
X66652Y-32908D01*
X66723Y-32879D01*
X66777Y-32825D01*
X66806Y-32754D01*
X66806Y-34102D01*
X65979Y-34929D01*
X65979Y-32794D01*
X65979Y-32718D01*
X65950Y-32647D01*
X65896Y-32593D01*
X65825Y-32564D01*
X65749Y-32564D01*
X65678Y-32593D01*
X65624Y-32647D01*
X65595Y-32718D01*
X65595Y-32794D01*
X65624Y-32865D01*
X65678Y-32919D01*
X65749Y-32948D01*
X65825Y-32948D01*
X65896Y-32919D01*
X65950Y-32865D01*
X65979Y-32794D01*
X65979Y-34929D01*
X65842Y-35066D01*
X65842Y-33778D01*
X65842Y-33702D01*
X65813Y-33631D01*
X65759Y-33577D01*
X65688Y-33548D01*
X65612Y-33548D01*
X65541Y-33577D01*
X65487Y-33631D01*
X65458Y-33702D01*
X65458Y-33778D01*
X65487Y-33849D01*
X65541Y-33903D01*
X65612Y-33932D01*
X65688Y-33932D01*
X65759Y-33903D01*
X65813Y-33849D01*
X65842Y-33778D01*
X65842Y-35066D01*
X65533Y-35375D01*
X64891Y-35375D01*
X64916Y-35314D01*
X64916Y-35238D01*
X64887Y-35167D01*
X64861Y-35141D01*
X64861Y-34718D01*
X64876Y-34755D01*
X64930Y-34809D01*
X65001Y-34838D01*
X65077Y-34838D01*
X65148Y-34809D01*
X65202Y-34755D01*
X65231Y-34684D01*
X65231Y-34608D01*
X65202Y-34537D01*
X65148Y-34483D01*
X65077Y-34454D01*
X65001Y-34454D01*
X64930Y-34483D01*
X64876Y-34537D01*
X64861Y-34573D01*
X64861Y-34174D01*
X64851Y-34122D01*
X64850Y-34121D01*
X64821Y-34077D01*
X64036Y-33292D01*
X64085Y-33273D01*
X64139Y-33219D01*
X64168Y-33148D01*
X64168Y-33072D01*
X64139Y-33001D01*
X64085Y-32947D01*
X64014Y-32918D01*
X63938Y-32918D01*
X63867Y-32947D01*
X63813Y-33001D01*
X63793Y-33049D01*
X62891Y-32147D01*
X62847Y-32117D01*
X62794Y-32107D01*
X62155Y-32107D01*
X62472Y-31790D01*
X62611Y-31790D01*
X62603Y-31812D01*
X62603Y-31888D01*
X62632Y-31959D01*
X62686Y-32013D01*
X62757Y-32042D01*
X62833Y-32042D01*
X62904Y-32013D01*
X62958Y-31959D01*
X62987Y-31888D01*
X62987Y-31812D01*
X62978Y-31790D01*
X63053Y-31790D01*
X63981Y-32718D01*
X63981Y-32754D01*
X64010Y-32825D01*
X64064Y-32879D01*
X64135Y-32908D01*
X64211Y-32908D01*
X64282Y-32879D01*
X64336Y-32825D01*
X64365Y-32754D01*
X64365Y-32678D01*
X64362Y-32672D01*
X64408Y-32672D01*
X64479Y-32643D01*
X64533Y-32589D01*
X64562Y-32518D01*
X64562Y-32442D01*
X64559Y-32436D01*
X64574Y-32436D01*
X64572Y-32442D01*
X64572Y-32518D01*
X64601Y-32589D01*
X64655Y-32643D01*
X64726Y-32672D01*
X64769Y-32672D01*
X64769Y-32676D01*
X64798Y-32747D01*
X64852Y-32801D01*
X64923Y-32830D01*
X64999Y-32830D01*
X65070Y-32801D01*
X65124Y-32747D01*
X65153Y-32676D01*
X65153Y-32640D01*
X65919Y-31873D01*
X65939Y-31920D01*
X65993Y-31974D01*
X66064Y-32003D01*
X66140Y-32003D01*
X66211Y-31974D01*
X66265Y-31920D01*
X66294Y-31849D01*
X66294Y-31773D01*
X66265Y-31702D01*
X66211Y-31648D01*
X66164Y-31628D01*
X68443Y-29350D01*
X68472Y-29306D01*
X68473Y-29305D01*
X68483Y-29253D01*
X68483Y-27617D01*
X69293Y-26807D01*
X70686Y-26807D01*
X70686Y-43175D01*
X70649Y-43085D01*
X70617Y-43053D01*
X70617Y-41245D01*
X70617Y-41078D01*
X70617Y-39079D01*
X70617Y-38912D01*
X70553Y-38758D01*
X70507Y-38711D01*
X70507Y-33976D01*
X70507Y-33900D01*
X70507Y-33503D01*
X70507Y-33427D01*
X70478Y-33356D01*
X70424Y-33302D01*
X70353Y-33273D01*
X70277Y-33273D01*
X70206Y-33302D01*
X70152Y-33356D01*
X70123Y-33427D01*
X70123Y-33503D01*
X70152Y-33574D01*
X70206Y-33628D01*
X70277Y-33657D01*
X70353Y-33657D01*
X70424Y-33628D01*
X70478Y-33574D01*
X70507Y-33503D01*
X70507Y-33900D01*
X70478Y-33829D01*
X70424Y-33775D01*
X70353Y-33746D01*
X70277Y-33746D01*
X70206Y-33775D01*
X70152Y-33829D01*
X70123Y-33900D01*
X70123Y-33976D01*
X70152Y-34047D01*
X70206Y-34101D01*
X70277Y-34130D01*
X70353Y-34130D01*
X70424Y-34101D01*
X70478Y-34047D01*
X70507Y-33976D01*
X70507Y-38711D01*
X70435Y-38639D01*
X70428Y-38636D01*
X70428Y-38109D01*
X70428Y-38033D01*
X70428Y-36377D01*
X70428Y-36301D01*
X70399Y-36230D01*
X70345Y-36176D01*
X70274Y-36147D01*
X70198Y-36147D01*
X70127Y-36176D01*
X70073Y-36230D01*
X70044Y-36301D01*
X70044Y-36377D01*
X70073Y-36448D01*
X70127Y-36502D01*
X70198Y-36531D01*
X70274Y-36531D01*
X70345Y-36502D01*
X70399Y-36448D01*
X70428Y-36377D01*
X70428Y-38033D01*
X70399Y-37962D01*
X70345Y-37908D01*
X70274Y-37879D01*
X70198Y-37879D01*
X70127Y-37908D01*
X70073Y-37962D01*
X70044Y-38033D01*
X70044Y-38109D01*
X70073Y-38180D01*
X70127Y-38234D01*
X70198Y-38263D01*
X70274Y-38263D01*
X70345Y-38234D01*
X70399Y-38180D01*
X70428Y-38109D01*
X70428Y-38636D01*
X70281Y-38575D01*
X70114Y-38575D01*
X69960Y-38639D01*
X69841Y-38757D01*
X69777Y-38911D01*
X69777Y-39078D01*
X69841Y-39232D01*
X69959Y-39351D01*
X70113Y-39415D01*
X70280Y-39415D01*
X70434Y-39351D01*
X70553Y-39233D01*
X70617Y-39079D01*
X70617Y-41078D01*
X70553Y-40924D01*
X70435Y-40805D01*
X70281Y-40741D01*
X70114Y-40741D01*
X69960Y-40805D01*
X69841Y-40923D01*
X69777Y-41077D01*
X69777Y-41244D01*
X69841Y-41398D01*
X69959Y-41517D01*
X70113Y-41581D01*
X70280Y-41581D01*
X70434Y-41517D01*
X70553Y-41399D01*
X70617Y-41245D01*
X70617Y-43053D01*
X70577Y-43013D01*
X70484Y-42974D01*
X70383Y-42974D01*
X70290Y-43012D01*
X70218Y-43084D01*
X70197Y-43134D01*
X70177Y-43085D01*
X70105Y-43013D01*
X70012Y-42974D01*
X69911Y-42974D01*
X69818Y-43012D01*
X69746Y-43084D01*
X69707Y-43177D01*
X69707Y-43278D01*
X69745Y-43371D01*
X69817Y-43443D01*
X69868Y-43464D01*
X69818Y-43485D01*
X69746Y-43557D01*
X69707Y-43650D01*
X69707Y-43751D01*
X69745Y-43844D01*
X69817Y-43916D01*
X69867Y-43936D01*
X69818Y-43957D01*
X69746Y-44029D01*
X69707Y-44122D01*
X69707Y-44223D01*
X69745Y-44316D01*
X69817Y-44388D01*
X69868Y-44409D01*
X69818Y-44430D01*
X69746Y-44502D01*
X69707Y-44595D01*
X69707Y-44696D01*
X69745Y-44789D01*
X69817Y-44861D01*
X69910Y-44900D01*
X70011Y-44900D01*
X70104Y-44862D01*
X70176Y-44790D01*
X70196Y-44739D01*
X70217Y-44789D01*
X70289Y-44861D01*
X70382Y-44900D01*
X70483Y-44900D01*
X70576Y-44862D01*
X70648Y-44790D01*
X70686Y-44699D01*
X70686Y-46955D01*
X70649Y-46865D01*
X70577Y-46793D01*
X70484Y-46754D01*
X70383Y-46754D01*
X70290Y-46792D01*
X70218Y-46864D01*
X70197Y-46914D01*
X70177Y-46865D01*
X70105Y-46793D01*
X70012Y-46754D01*
X69911Y-46754D01*
X69818Y-46792D01*
X69746Y-46864D01*
X69707Y-46957D01*
X69707Y-47058D01*
X69745Y-47151D01*
X69817Y-47223D01*
X69910Y-47262D01*
X70011Y-47262D01*
X70104Y-47224D01*
X70176Y-47152D01*
X70196Y-47101D01*
X70217Y-47151D01*
X70289Y-47223D01*
X70382Y-47262D01*
X70483Y-47262D01*
X70576Y-47224D01*
X70648Y-47152D01*
X70686Y-47061D01*
X70686Y-47467D01*
X70649Y-47377D01*
X70577Y-47305D01*
X70484Y-47266D01*
X70383Y-47266D01*
X70290Y-47304D01*
X70218Y-47376D01*
X70197Y-47426D01*
X70177Y-47377D01*
X70105Y-47305D01*
X70012Y-47266D01*
X69911Y-47266D01*
X69818Y-47304D01*
X69746Y-47376D01*
X69707Y-47469D01*
X69707Y-47570D01*
X69745Y-47663D01*
X69817Y-47735D01*
X69867Y-47755D01*
X69818Y-47776D01*
X69746Y-47848D01*
X69707Y-47941D01*
X69707Y-48042D01*
X69745Y-48135D01*
X69817Y-48207D01*
X69910Y-48246D01*
X70011Y-48246D01*
X70104Y-48208D01*
X70176Y-48136D01*
X70196Y-48085D01*
X70217Y-48135D01*
X70289Y-48207D01*
X70382Y-48246D01*
X70483Y-48246D01*
X70576Y-48208D01*
X70648Y-48136D01*
X70686Y-48045D01*
X70686Y-55103D01*
M02*
