G04 (created by PCBNEW-RS274X (2012-05-21 BZR 3261)-stable) date Thu 02 May 2013 12:01:43 PM PDT*
G01*
G70*
G90*
%MOIN*%
G04 Gerber Fmt 3.4, Leading zero omitted, Abs format*
%FSLAX34Y34*%
G04 APERTURE LIST*
%ADD10C,0.006000*%
%ADD11C,0.069000*%
%ADD12C,0.063100*%
%ADD13R,0.030400X0.030400*%
%ADD14R,0.030400X0.028400*%
%ADD15R,0.028400X0.030400*%
%ADD16R,0.017800X0.063100*%
%ADD17R,0.106000X0.031200*%
%ADD18R,0.191000X0.031200*%
%ADD19C,0.046200*%
%ADD20C,0.045400*%
%ADD21C,0.100000*%
%ADD22C,0.049300*%
%ADD23R,0.059100X0.021700*%
%ADD24R,0.080800X0.076900*%
%ADD25R,0.080800X0.096600*%
%ADD26C,0.080800*%
%ADD27R,0.032600X0.013900*%
%ADD28R,0.067000X0.021700*%
%ADD29C,0.029000*%
%ADD30C,0.023700*%
%ADD31R,0.037500X0.027700*%
%ADD32C,0.124100*%
%ADD33C,0.092600*%
%ADD34R,0.063100X0.053200*%
%ADD35R,0.053200X0.063100*%
%ADD36R,0.051300X0.063100*%
%ADD37C,0.029600*%
%ADD38C,0.132000*%
G04 APERTURE END LIST*
G54D10*
G54D11*
X70197Y-41161D03*
X70197Y-38995D03*
G54D12*
X69027Y-41057D03*
X69027Y-39099D03*
G54D13*
X53917Y-30315D03*
X53563Y-30315D03*
X50787Y-29154D03*
X50787Y-29508D03*
X54331Y-28327D03*
X54331Y-27973D03*
X65177Y-33504D03*
X65531Y-33504D03*
X63937Y-35098D03*
X63937Y-34744D03*
G54D14*
X67835Y-27315D03*
X67835Y-26937D03*
X68740Y-27315D03*
X68740Y-26937D03*
X67008Y-28575D03*
X67008Y-28197D03*
G54D15*
X53945Y-28740D03*
X54323Y-28740D03*
G54D14*
X55512Y-30323D03*
X55512Y-30701D03*
G54D15*
X54323Y-30709D03*
X53945Y-30709D03*
G54D14*
X50787Y-28354D03*
X50787Y-28732D03*
X49212Y-28748D03*
X49212Y-29126D03*
G54D15*
X63512Y-32716D03*
X63890Y-32716D03*
X64023Y-31850D03*
X64401Y-31850D03*
X63457Y-31850D03*
X63079Y-31850D03*
G54D14*
X67008Y-29968D03*
X67008Y-30346D03*
X67008Y-29323D03*
X67008Y-28945D03*
X51575Y-28354D03*
X51575Y-28732D03*
G54D13*
X36378Y-29114D03*
X36378Y-29468D03*
X37146Y-36457D03*
X37500Y-36457D03*
X40059Y-31614D03*
X40413Y-31614D03*
X36220Y-31713D03*
X36220Y-32067D03*
X36850Y-30768D03*
X36850Y-31122D03*
X37008Y-34941D03*
X37008Y-35295D03*
X37480Y-31713D03*
X37480Y-32067D03*
X39075Y-31732D03*
X38721Y-31732D03*
X38071Y-33641D03*
X38071Y-33287D03*
X38760Y-33937D03*
X38406Y-33937D03*
X39685Y-34586D03*
X40039Y-34586D03*
X38760Y-33622D03*
X38406Y-33622D03*
X38760Y-32677D03*
X38406Y-32677D03*
X38406Y-31417D03*
X38760Y-31417D03*
X38760Y-32362D03*
X38406Y-32362D03*
X39409Y-34271D03*
X39409Y-33917D03*
X37165Y-33641D03*
X37165Y-33287D03*
X38071Y-31713D03*
X38071Y-32067D03*
X37165Y-31713D03*
X37165Y-32067D03*
X37480Y-33641D03*
X37480Y-33287D03*
X39389Y-31102D03*
X39035Y-31102D03*
X38760Y-33307D03*
X38406Y-33307D03*
X35886Y-33937D03*
X35532Y-33937D03*
X35886Y-32992D03*
X36240Y-32992D03*
X35886Y-32677D03*
X36240Y-32677D03*
X35905Y-31713D03*
X35905Y-32067D03*
X36240Y-34252D03*
X35886Y-34252D03*
X36555Y-33937D03*
X36201Y-33937D03*
X35925Y-34567D03*
X35571Y-34567D03*
X35571Y-30787D03*
X35925Y-30787D03*
X37205Y-34232D03*
X37205Y-34586D03*
X39094Y-34271D03*
X39094Y-33917D03*
X38425Y-34586D03*
X38425Y-34232D03*
X38543Y-34941D03*
X38543Y-35295D03*
X36240Y-33622D03*
X35886Y-33622D03*
X40020Y-33386D03*
X40374Y-33386D03*
X38819Y-30413D03*
X38819Y-30059D03*
X36850Y-34232D03*
X36850Y-34586D03*
X39704Y-32047D03*
X39350Y-32047D03*
X39704Y-33307D03*
X39350Y-33307D03*
X37165Y-30453D03*
X37165Y-30807D03*
X38701Y-30768D03*
X38701Y-31122D03*
X36378Y-30452D03*
X36378Y-30098D03*
X47244Y-26004D03*
X47244Y-26358D03*
X48819Y-26004D03*
X48819Y-26358D03*
X50394Y-25964D03*
X50394Y-25610D03*
X47638Y-27579D03*
X47638Y-27933D03*
X48819Y-27579D03*
X48819Y-27933D03*
X50394Y-27579D03*
X50394Y-27933D03*
X49606Y-28760D03*
X49606Y-29114D03*
X50394Y-29154D03*
X50394Y-29508D03*
X46063Y-26004D03*
X46063Y-26358D03*
X53543Y-26004D03*
X53543Y-26358D03*
X55118Y-26004D03*
X55118Y-26358D03*
X56299Y-26004D03*
X56299Y-26358D03*
X51968Y-27579D03*
X51968Y-27933D03*
X53543Y-27579D03*
X53543Y-27933D03*
X54724Y-27579D03*
X54724Y-27933D03*
X52756Y-28760D03*
X52756Y-29114D03*
X51575Y-29154D03*
X51575Y-29508D03*
X51968Y-26004D03*
X51968Y-26358D03*
G54D14*
X53150Y-28354D03*
X53150Y-28732D03*
X53150Y-27945D03*
X53150Y-27567D03*
G54D15*
X52354Y-34252D03*
X51976Y-34252D03*
X52748Y-34646D03*
X52370Y-34646D03*
G54D14*
X54331Y-34260D03*
X54331Y-34638D03*
X54724Y-34260D03*
X54724Y-34638D03*
G54D13*
X49212Y-31910D03*
X49212Y-32264D03*
X53150Y-31082D03*
X53150Y-30728D03*
X52362Y-31082D03*
X52362Y-30728D03*
X51575Y-31082D03*
X51575Y-30728D03*
X50394Y-31082D03*
X50394Y-30728D03*
X49606Y-31082D03*
X49606Y-30728D03*
X48819Y-31082D03*
X48819Y-30728D03*
X52756Y-30728D03*
X52756Y-31082D03*
X51968Y-30728D03*
X51968Y-31082D03*
X50787Y-30728D03*
X50787Y-31082D03*
X50000Y-30728D03*
X50000Y-31082D03*
X49212Y-30728D03*
X49212Y-31082D03*
X53150Y-30295D03*
X53150Y-29941D03*
X52362Y-30295D03*
X52362Y-29941D03*
X51575Y-30295D03*
X51575Y-29941D03*
X50394Y-30295D03*
X50394Y-29941D03*
X49606Y-30295D03*
X49606Y-29941D03*
X53543Y-30728D03*
X53543Y-31082D03*
X52756Y-29941D03*
X52756Y-30295D03*
X50787Y-29941D03*
X50787Y-30295D03*
X50000Y-29941D03*
X50000Y-30295D03*
X49212Y-29941D03*
X49212Y-30295D03*
X53130Y-29527D03*
X52776Y-29527D03*
X52342Y-29527D03*
X51988Y-29527D03*
X51968Y-29941D03*
X51968Y-30295D03*
X49626Y-29527D03*
X49980Y-29527D03*
X48839Y-29527D03*
X49193Y-29527D03*
X55098Y-33465D03*
X54744Y-33465D03*
X53917Y-32677D03*
X53563Y-32677D03*
X56673Y-32283D03*
X56319Y-32283D03*
X55098Y-32283D03*
X54744Y-32283D03*
X56693Y-36594D03*
X56693Y-36240D03*
X56673Y-34252D03*
X56319Y-34252D03*
X51968Y-33838D03*
X51968Y-33484D03*
X56299Y-36988D03*
X56299Y-36634D03*
X55157Y-36988D03*
X55157Y-36634D03*
X53583Y-36988D03*
X53583Y-36634D03*
X51968Y-36988D03*
X51968Y-36634D03*
X54724Y-35413D03*
X54724Y-35059D03*
X53543Y-35413D03*
X53543Y-35059D03*
X51968Y-35413D03*
X51968Y-35059D03*
X52756Y-34232D03*
X52756Y-33878D03*
X49212Y-34626D03*
X49212Y-34272D03*
X50354Y-36988D03*
X50354Y-36634D03*
X48819Y-36988D03*
X48819Y-36634D03*
X47244Y-36988D03*
X47244Y-36634D03*
X46063Y-36988D03*
X46063Y-36634D03*
X50354Y-35413D03*
X50354Y-35059D03*
X48779Y-35413D03*
X48779Y-35059D03*
X47638Y-35413D03*
X47638Y-35059D03*
X49606Y-34232D03*
X49606Y-33878D03*
G54D16*
X65866Y-19255D03*
X65866Y-21689D03*
X65669Y-19255D03*
X65669Y-21689D03*
X65473Y-19255D03*
X65473Y-21689D03*
X65276Y-19255D03*
X65276Y-21689D03*
X65079Y-19255D03*
X65079Y-21689D03*
X64882Y-19255D03*
X64882Y-21689D03*
X64685Y-19255D03*
X64685Y-21689D03*
X64488Y-19255D03*
X64488Y-21689D03*
X64292Y-19255D03*
X64292Y-21689D03*
X64095Y-19255D03*
X64095Y-21689D03*
X63898Y-19255D03*
X63898Y-21689D03*
X63701Y-19255D03*
X63701Y-21689D03*
X63504Y-19255D03*
X63504Y-21689D03*
X63307Y-19255D03*
X63307Y-21689D03*
X63110Y-19255D03*
X63110Y-21689D03*
X62914Y-19255D03*
X62914Y-21689D03*
X62717Y-19255D03*
X62717Y-21689D03*
X62520Y-19255D03*
X62520Y-21689D03*
X62323Y-19255D03*
X62323Y-21689D03*
X62126Y-19255D03*
X62126Y-21689D03*
X61929Y-19255D03*
X61929Y-21689D03*
X61732Y-19255D03*
X61732Y-21689D03*
X61536Y-19255D03*
X61536Y-21689D03*
X61339Y-19255D03*
X61339Y-21689D03*
X61142Y-19255D03*
X61142Y-21689D03*
X60945Y-19255D03*
X60945Y-21689D03*
X60748Y-19255D03*
X60748Y-21689D03*
X60551Y-19255D03*
X60551Y-21689D03*
X60355Y-19255D03*
X60355Y-21689D03*
X60158Y-19255D03*
X60158Y-21689D03*
G54D17*
X66337Y-20472D03*
G54D18*
X64262Y-20472D03*
X61762Y-20472D03*
G54D17*
X59687Y-20472D03*
G54D16*
X57992Y-19255D03*
X57992Y-21689D03*
X57795Y-19255D03*
X57795Y-21689D03*
X57599Y-19255D03*
X57599Y-21689D03*
X57402Y-19255D03*
X57402Y-21689D03*
X57205Y-19255D03*
X57205Y-21689D03*
X57008Y-19255D03*
X57008Y-21689D03*
X56811Y-19255D03*
X56811Y-21689D03*
X56614Y-19255D03*
X56614Y-21689D03*
X56418Y-19255D03*
X56418Y-21689D03*
X56221Y-19255D03*
X56221Y-21689D03*
X56024Y-19255D03*
X56024Y-21689D03*
X55827Y-19255D03*
X55827Y-21689D03*
X55630Y-19255D03*
X55630Y-21689D03*
X55433Y-19255D03*
X55433Y-21689D03*
X55236Y-19255D03*
X55236Y-21689D03*
X55040Y-19255D03*
X55040Y-21689D03*
X54843Y-19255D03*
X54843Y-21689D03*
X54646Y-19255D03*
X54646Y-21689D03*
X54449Y-19255D03*
X54449Y-21689D03*
X54252Y-19255D03*
X54252Y-21689D03*
X54055Y-19255D03*
X54055Y-21689D03*
X53858Y-19255D03*
X53858Y-21689D03*
X53662Y-19255D03*
X53662Y-21689D03*
X53465Y-19255D03*
X53465Y-21689D03*
X53268Y-19255D03*
X53268Y-21689D03*
X53071Y-19255D03*
X53071Y-21689D03*
X52874Y-19255D03*
X52874Y-21689D03*
X52677Y-19255D03*
X52677Y-21689D03*
X52481Y-19255D03*
X52481Y-21689D03*
X52284Y-19255D03*
X52284Y-21689D03*
G54D17*
X58463Y-20472D03*
G54D18*
X56388Y-20472D03*
X53888Y-20472D03*
G54D17*
X51813Y-20472D03*
G54D16*
X50118Y-19255D03*
X50118Y-21689D03*
X49921Y-19255D03*
X49921Y-21689D03*
X49725Y-19255D03*
X49725Y-21689D03*
X49528Y-19255D03*
X49528Y-21689D03*
X49331Y-19255D03*
X49331Y-21689D03*
X49134Y-19255D03*
X49134Y-21689D03*
X48937Y-19255D03*
X48937Y-21689D03*
X48740Y-19255D03*
X48740Y-21689D03*
X48544Y-19255D03*
X48544Y-21689D03*
X48347Y-19255D03*
X48347Y-21689D03*
X48150Y-19255D03*
X48150Y-21689D03*
X47953Y-19255D03*
X47953Y-21689D03*
X47756Y-19255D03*
X47756Y-21689D03*
X47559Y-19255D03*
X47559Y-21689D03*
X47362Y-19255D03*
X47362Y-21689D03*
X47166Y-19255D03*
X47166Y-21689D03*
X46969Y-19255D03*
X46969Y-21689D03*
X46772Y-19255D03*
X46772Y-21689D03*
X46575Y-19255D03*
X46575Y-21689D03*
X46378Y-19255D03*
X46378Y-21689D03*
X46181Y-19255D03*
X46181Y-21689D03*
X45984Y-19255D03*
X45984Y-21689D03*
X45788Y-19255D03*
X45788Y-21689D03*
X45591Y-19255D03*
X45591Y-21689D03*
X45394Y-19255D03*
X45394Y-21689D03*
X45197Y-19255D03*
X45197Y-21689D03*
X45000Y-19255D03*
X45000Y-21689D03*
X44803Y-19255D03*
X44803Y-21689D03*
X44607Y-19255D03*
X44607Y-21689D03*
X44410Y-19255D03*
X44410Y-21689D03*
G54D17*
X50589Y-20472D03*
G54D18*
X48514Y-20472D03*
X46014Y-20472D03*
G54D17*
X43939Y-20472D03*
G54D19*
X66650Y-19673D03*
X43626Y-19673D03*
G54D20*
X67282Y-20271D03*
X42994Y-20271D03*
G54D21*
X68654Y-20472D03*
X41622Y-20472D03*
G54D11*
X64331Y-44094D03*
G54D22*
X38031Y-44094D03*
G54D14*
X68464Y-25638D03*
X68464Y-26016D03*
X67598Y-25638D03*
X67598Y-26016D03*
G54D13*
X67598Y-24626D03*
X67598Y-24980D03*
X66024Y-23445D03*
X66024Y-23091D03*
X66024Y-24036D03*
X66024Y-24390D03*
X67047Y-24862D03*
X67047Y-25216D03*
X66653Y-22854D03*
X66653Y-22500D03*
X50000Y-31910D03*
X50000Y-32264D03*
X50787Y-31910D03*
X50787Y-32264D03*
X51968Y-31910D03*
X51968Y-32264D03*
X52756Y-31910D03*
X52756Y-32264D03*
X53543Y-31910D03*
X53543Y-32264D03*
X49606Y-32264D03*
X49606Y-31910D03*
X50394Y-32264D03*
X50394Y-31910D03*
X51575Y-32264D03*
X51575Y-31910D03*
X56673Y-30709D03*
X56319Y-30709D03*
X55098Y-30709D03*
X54744Y-30709D03*
X53917Y-29921D03*
X53563Y-29921D03*
X56693Y-26398D03*
X56693Y-26752D03*
X56673Y-28740D03*
X56319Y-28740D03*
X55098Y-29527D03*
X54744Y-29527D03*
G54D23*
X33120Y-35806D03*
X33120Y-35550D03*
X33120Y-35294D03*
X33120Y-35038D03*
X33120Y-34782D03*
X33120Y-33168D03*
X33120Y-32912D03*
X33120Y-32656D03*
X33120Y-32400D03*
X33120Y-32144D03*
G54D24*
X32067Y-35747D03*
X32067Y-34841D03*
G54D25*
X32067Y-33818D03*
G54D24*
X32067Y-32735D03*
G54D25*
X32067Y-31711D03*
X32067Y-36770D03*
G54D26*
X32067Y-31770D03*
X32067Y-36711D03*
G54D27*
X33726Y-33050D03*
X33726Y-32853D03*
G54D28*
X33898Y-32656D03*
G54D27*
X33726Y-32459D03*
X33726Y-32262D03*
X34070Y-32262D03*
X34070Y-32459D03*
X34070Y-32853D03*
X34070Y-33050D03*
G54D13*
X35059Y-32185D03*
X34705Y-32185D03*
X35059Y-32539D03*
X34705Y-32539D03*
X51575Y-33051D03*
X51575Y-32697D03*
X53543Y-33878D03*
X53543Y-34232D03*
X48819Y-29114D03*
X48819Y-28760D03*
X53543Y-29154D03*
X53543Y-29508D03*
X48819Y-33878D03*
X48819Y-34232D03*
X53937Y-33878D03*
X53937Y-34232D03*
X48425Y-29114D03*
X48425Y-28760D03*
X53937Y-29154D03*
X53937Y-29508D03*
X48425Y-33878D03*
X48425Y-34232D03*
X52776Y-33465D03*
X53130Y-33465D03*
X50767Y-33465D03*
X50413Y-33465D03*
X49980Y-33465D03*
X49626Y-33465D03*
X50394Y-33051D03*
X50394Y-32697D03*
X53150Y-33051D03*
X53150Y-32697D03*
X52362Y-33051D03*
X52362Y-32697D03*
X49606Y-33051D03*
X49606Y-32697D03*
X52756Y-32697D03*
X52756Y-33051D03*
X51968Y-32697D03*
X51968Y-33051D03*
X50787Y-32697D03*
X50787Y-33051D03*
X50000Y-32697D03*
X50000Y-33051D03*
X49212Y-32697D03*
X49212Y-33051D03*
X53150Y-32264D03*
X53150Y-31910D03*
X52362Y-32264D03*
X52362Y-31910D03*
X51575Y-33878D03*
X51575Y-34232D03*
X54724Y-32697D03*
X54724Y-33051D03*
X55118Y-33051D03*
X55118Y-32697D03*
X52362Y-33838D03*
X52362Y-33484D03*
X50000Y-34232D03*
X50000Y-33878D03*
X49626Y-34646D03*
X49980Y-34646D03*
X45590Y-36437D03*
X45590Y-36791D03*
X46083Y-31890D03*
X46437Y-31890D03*
X47264Y-32283D03*
X47618Y-32283D03*
X48051Y-33465D03*
X48405Y-33465D03*
X47264Y-33465D03*
X47618Y-33465D03*
X45689Y-34252D03*
X46043Y-34252D03*
G54D14*
X63701Y-36543D03*
X63701Y-36921D03*
G54D15*
X48433Y-32244D03*
X48811Y-32244D03*
X48024Y-31496D03*
X47646Y-31496D03*
X46449Y-31102D03*
X46071Y-31102D03*
G54D14*
X48031Y-29535D03*
X48031Y-29913D03*
G54D15*
X47252Y-29921D03*
X47630Y-29921D03*
X47236Y-31496D03*
X46858Y-31496D03*
X45795Y-28150D03*
X46173Y-28150D03*
X48417Y-34646D03*
X48039Y-34646D03*
G54D13*
X45669Y-26398D03*
X45669Y-26752D03*
X45689Y-28740D03*
X46043Y-28740D03*
X47264Y-29527D03*
X47618Y-29527D03*
X48425Y-29547D03*
X48425Y-29901D03*
X45689Y-30709D03*
X46043Y-30709D03*
X47264Y-30709D03*
X47618Y-30709D03*
X52205Y-42973D03*
X52205Y-43327D03*
X48268Y-46240D03*
X48268Y-46594D03*
X48268Y-42973D03*
X48268Y-43327D03*
X48976Y-46240D03*
X48976Y-46594D03*
X48976Y-42973D03*
X48976Y-43327D03*
X49921Y-46240D03*
X49921Y-46594D03*
X50315Y-42973D03*
X50315Y-43327D03*
X51260Y-46240D03*
X51260Y-46594D03*
X51260Y-42973D03*
X51260Y-43327D03*
X52205Y-46240D03*
X52205Y-46594D03*
X52913Y-46240D03*
X52913Y-46594D03*
X52913Y-42973D03*
X52913Y-43327D03*
G54D14*
X54331Y-32685D03*
X54331Y-33063D03*
G54D15*
X53945Y-32283D03*
X54323Y-32283D03*
G54D13*
X63779Y-43012D03*
X63779Y-43366D03*
X52362Y-28720D03*
X52362Y-28366D03*
X50000Y-29114D03*
X50000Y-28760D03*
X54331Y-29901D03*
X54331Y-29547D03*
G54D29*
X41181Y-25039D03*
X41378Y-24744D03*
X40984Y-24744D03*
X40984Y-25334D03*
X41378Y-25334D03*
G54D30*
X38619Y-19468D03*
X39013Y-19468D03*
X38816Y-19763D03*
X38619Y-20058D03*
X39013Y-20058D03*
X34783Y-26456D03*
X34429Y-26456D03*
X34606Y-26220D03*
X34783Y-25984D03*
X34429Y-25984D03*
G54D15*
X68669Y-34331D03*
X69047Y-34331D03*
X67709Y-36299D03*
X67331Y-36299D03*
X68669Y-34764D03*
X69047Y-34764D03*
X69283Y-30079D03*
X68905Y-30079D03*
X68905Y-28346D03*
X69283Y-28346D03*
X68905Y-31378D03*
X69283Y-31378D03*
X68905Y-28779D03*
X69283Y-28779D03*
X68905Y-29213D03*
X69283Y-29213D03*
X68905Y-30945D03*
X69283Y-30945D03*
X65441Y-31811D03*
X65819Y-31811D03*
G54D14*
X42520Y-25244D03*
X42520Y-25622D03*
X42520Y-24835D03*
X42520Y-24457D03*
G54D13*
X69271Y-29646D03*
X68917Y-29646D03*
G54D31*
X34104Y-35807D03*
X34104Y-35433D03*
X34104Y-35059D03*
X34872Y-35059D03*
X34872Y-35433D03*
X34872Y-35807D03*
G54D13*
X61023Y-32776D03*
X61023Y-33130D03*
X62047Y-32776D03*
X62047Y-33130D03*
G54D32*
X36890Y-22441D03*
X34528Y-22441D03*
X35709Y-24291D03*
G54D33*
X32756Y-22441D03*
G54D34*
X33898Y-36594D03*
X33898Y-37264D03*
G54D35*
X32776Y-38425D03*
X32106Y-38425D03*
G54D36*
X32087Y-37638D03*
X32795Y-37638D03*
G54D34*
X36968Y-29271D03*
X36968Y-29941D03*
G54D35*
X37264Y-35866D03*
X36594Y-35866D03*
X54035Y-31732D03*
X54705Y-31732D03*
G54D13*
X35571Y-31102D03*
X35925Y-31102D03*
G54D14*
X35590Y-35701D03*
X35590Y-35323D03*
X36850Y-37213D03*
X36850Y-37591D03*
G54D37*
X67245Y-24252D03*
X66851Y-24252D03*
X66457Y-24252D03*
X67245Y-23858D03*
X66851Y-23858D03*
X66457Y-23858D03*
X67245Y-23464D03*
X66851Y-23464D03*
X66457Y-23464D03*
G54D30*
X67321Y-48150D03*
X67321Y-47756D03*
X67518Y-47953D03*
X67715Y-48150D03*
X67715Y-47756D03*
G54D38*
X69291Y-55118D03*
X69291Y-51968D03*
X33071Y-55118D03*
X39370Y-38583D03*
X69291Y-18898D03*
X33071Y-18898D03*
X39370Y-22047D03*
M02*
