G04 (created by PCBNEW-RS274X (2012-05-21 BZR 3261)-stable) date Thu 02 May 2013 12:01:43 PM PDT*
G01*
G70*
G90*
%MOIN*%
G04 Gerber Fmt 3.4, Leading zero omitted, Abs format*
%FSLAX34Y34*%
G04 APERTURE LIST*
%ADD10C,0.006000*%
%ADD11C,0.063000*%
%ADD12C,0.057100*%
%ADD13R,0.024400X0.024400*%
%ADD14R,0.024400X0.022400*%
%ADD15R,0.022400X0.024400*%
%ADD16R,0.011800X0.057100*%
%ADD17R,0.100000X0.025200*%
%ADD18R,0.185000X0.025200*%
%ADD19C,0.039400*%
%ADD20C,0.094000*%
%ADD21R,0.053100X0.015700*%
%ADD22R,0.074800X0.070900*%
%ADD23R,0.074800X0.090600*%
%ADD24C,0.074800*%
%ADD25R,0.026600X0.007900*%
%ADD26R,0.061000X0.015700*%
%ADD27C,0.023000*%
%ADD28C,0.017700*%
%ADD29R,0.031500X0.021700*%
%ADD30C,0.118100*%
%ADD31R,0.057100X0.047200*%
%ADD32R,0.047200X0.057100*%
%ADD33R,0.045300X0.057100*%
%ADD34C,0.023600*%
%ADD35C,0.030000*%
%ADD36C,0.005500*%
%ADD37C,0.011800*%
%ADD38C,0.017700*%
%ADD39C,0.008000*%
%ADD40C,0.015700*%
%ADD41C,0.010400*%
%ADD42C,0.050000*%
%ADD43C,0.018000*%
G04 APERTURE END LIST*
G54D10*
G54D11*
X70197Y-41161D03*
X70197Y-38995D03*
G54D12*
X69027Y-41057D03*
X69027Y-39099D03*
G54D13*
X53917Y-30315D03*
X53563Y-30315D03*
X50787Y-29154D03*
X50787Y-29508D03*
X54331Y-28327D03*
X54331Y-27973D03*
X65177Y-33504D03*
X65531Y-33504D03*
X63937Y-35098D03*
X63937Y-34744D03*
G54D14*
X67835Y-27315D03*
X67835Y-26937D03*
X68740Y-27315D03*
X68740Y-26937D03*
X67008Y-28575D03*
X67008Y-28197D03*
G54D15*
X53945Y-28740D03*
X54323Y-28740D03*
G54D14*
X55512Y-30323D03*
X55512Y-30701D03*
G54D15*
X54323Y-30709D03*
X53945Y-30709D03*
G54D14*
X50787Y-28354D03*
X50787Y-28732D03*
X49212Y-28748D03*
X49212Y-29126D03*
G54D15*
X63512Y-32716D03*
X63890Y-32716D03*
X64023Y-31850D03*
X64401Y-31850D03*
X63457Y-31850D03*
X63079Y-31850D03*
G54D14*
X67008Y-29968D03*
X67008Y-30346D03*
X67008Y-29323D03*
X67008Y-28945D03*
X51575Y-28354D03*
X51575Y-28732D03*
G54D13*
X36378Y-29114D03*
X36378Y-29468D03*
X37146Y-36457D03*
X37500Y-36457D03*
X40059Y-31614D03*
X40413Y-31614D03*
X36220Y-31713D03*
X36220Y-32067D03*
X36850Y-30768D03*
X36850Y-31122D03*
X37008Y-34941D03*
X37008Y-35295D03*
X37480Y-31713D03*
X37480Y-32067D03*
X39075Y-31732D03*
X38721Y-31732D03*
X38071Y-33641D03*
X38071Y-33287D03*
X38760Y-33937D03*
X38406Y-33937D03*
X39685Y-34586D03*
X40039Y-34586D03*
X38760Y-33622D03*
X38406Y-33622D03*
X38760Y-32677D03*
X38406Y-32677D03*
X38406Y-31417D03*
X38760Y-31417D03*
X38760Y-32362D03*
X38406Y-32362D03*
X39409Y-34271D03*
X39409Y-33917D03*
X37165Y-33641D03*
X37165Y-33287D03*
X38071Y-31713D03*
X38071Y-32067D03*
X37165Y-31713D03*
X37165Y-32067D03*
X37480Y-33641D03*
X37480Y-33287D03*
X39389Y-31102D03*
X39035Y-31102D03*
X38760Y-33307D03*
X38406Y-33307D03*
X35886Y-33937D03*
X35532Y-33937D03*
X35886Y-32992D03*
X36240Y-32992D03*
X35886Y-32677D03*
X36240Y-32677D03*
X35905Y-31713D03*
X35905Y-32067D03*
X36240Y-34252D03*
X35886Y-34252D03*
X36555Y-33937D03*
X36201Y-33937D03*
X35925Y-34567D03*
X35571Y-34567D03*
X35571Y-30787D03*
X35925Y-30787D03*
X37205Y-34232D03*
X37205Y-34586D03*
X39094Y-34271D03*
X39094Y-33917D03*
X38425Y-34586D03*
X38425Y-34232D03*
X38543Y-34941D03*
X38543Y-35295D03*
X36240Y-33622D03*
X35886Y-33622D03*
X40020Y-33386D03*
X40374Y-33386D03*
X38819Y-30413D03*
X38819Y-30059D03*
X36850Y-34232D03*
X36850Y-34586D03*
X39704Y-32047D03*
X39350Y-32047D03*
X39704Y-33307D03*
X39350Y-33307D03*
X37165Y-30453D03*
X37165Y-30807D03*
X38701Y-30768D03*
X38701Y-31122D03*
X36378Y-30452D03*
X36378Y-30098D03*
X47244Y-26004D03*
X47244Y-26358D03*
X48819Y-26004D03*
X48819Y-26358D03*
X50394Y-25964D03*
X50394Y-25610D03*
X47638Y-27579D03*
X47638Y-27933D03*
X48819Y-27579D03*
X48819Y-27933D03*
X50394Y-27579D03*
X50394Y-27933D03*
X49606Y-28760D03*
X49606Y-29114D03*
X50394Y-29154D03*
X50394Y-29508D03*
X46063Y-26004D03*
X46063Y-26358D03*
X53543Y-26004D03*
X53543Y-26358D03*
X55118Y-26004D03*
X55118Y-26358D03*
X56299Y-26004D03*
X56299Y-26358D03*
X51968Y-27579D03*
X51968Y-27933D03*
X53543Y-27579D03*
X53543Y-27933D03*
X54724Y-27579D03*
X54724Y-27933D03*
X52756Y-28760D03*
X52756Y-29114D03*
X51575Y-29154D03*
X51575Y-29508D03*
X51968Y-26004D03*
X51968Y-26358D03*
G54D14*
X53150Y-28354D03*
X53150Y-28732D03*
X53150Y-27945D03*
X53150Y-27567D03*
G54D15*
X52354Y-34252D03*
X51976Y-34252D03*
X52748Y-34646D03*
X52370Y-34646D03*
G54D14*
X54331Y-34260D03*
X54331Y-34638D03*
X54724Y-34260D03*
X54724Y-34638D03*
G54D13*
X49212Y-31910D03*
X49212Y-32264D03*
X53150Y-31082D03*
X53150Y-30728D03*
X52362Y-31082D03*
X52362Y-30728D03*
X51575Y-31082D03*
X51575Y-30728D03*
X50394Y-31082D03*
X50394Y-30728D03*
X49606Y-31082D03*
X49606Y-30728D03*
X48819Y-31082D03*
X48819Y-30728D03*
X52756Y-30728D03*
X52756Y-31082D03*
X51968Y-30728D03*
X51968Y-31082D03*
X50787Y-30728D03*
X50787Y-31082D03*
X50000Y-30728D03*
X50000Y-31082D03*
X49212Y-30728D03*
X49212Y-31082D03*
X53150Y-30295D03*
X53150Y-29941D03*
X52362Y-30295D03*
X52362Y-29941D03*
X51575Y-30295D03*
X51575Y-29941D03*
X50394Y-30295D03*
X50394Y-29941D03*
X49606Y-30295D03*
X49606Y-29941D03*
X53543Y-30728D03*
X53543Y-31082D03*
X52756Y-29941D03*
X52756Y-30295D03*
X50787Y-29941D03*
X50787Y-30295D03*
X50000Y-29941D03*
X50000Y-30295D03*
X49212Y-29941D03*
X49212Y-30295D03*
X53130Y-29527D03*
X52776Y-29527D03*
X52342Y-29527D03*
X51988Y-29527D03*
X51968Y-29941D03*
X51968Y-30295D03*
X49626Y-29527D03*
X49980Y-29527D03*
X48839Y-29527D03*
X49193Y-29527D03*
X55098Y-33465D03*
X54744Y-33465D03*
X53917Y-32677D03*
X53563Y-32677D03*
X56673Y-32283D03*
X56319Y-32283D03*
X55098Y-32283D03*
X54744Y-32283D03*
X56693Y-36594D03*
X56693Y-36240D03*
X56673Y-34252D03*
X56319Y-34252D03*
X51968Y-33838D03*
X51968Y-33484D03*
X56299Y-36988D03*
X56299Y-36634D03*
X55157Y-36988D03*
X55157Y-36634D03*
X53583Y-36988D03*
X53583Y-36634D03*
X51968Y-36988D03*
X51968Y-36634D03*
X54724Y-35413D03*
X54724Y-35059D03*
X53543Y-35413D03*
X53543Y-35059D03*
X51968Y-35413D03*
X51968Y-35059D03*
X52756Y-34232D03*
X52756Y-33878D03*
X49212Y-34626D03*
X49212Y-34272D03*
X50354Y-36988D03*
X50354Y-36634D03*
X48819Y-36988D03*
X48819Y-36634D03*
X47244Y-36988D03*
X47244Y-36634D03*
X46063Y-36988D03*
X46063Y-36634D03*
X50354Y-35413D03*
X50354Y-35059D03*
X48779Y-35413D03*
X48779Y-35059D03*
X47638Y-35413D03*
X47638Y-35059D03*
X49606Y-34232D03*
X49606Y-33878D03*
G54D16*
X65866Y-19255D03*
X65866Y-21689D03*
X65669Y-19255D03*
X65669Y-21689D03*
X65473Y-19255D03*
X65473Y-21689D03*
X65276Y-19255D03*
X65276Y-21689D03*
X65079Y-19255D03*
X65079Y-21689D03*
X64882Y-19255D03*
X64882Y-21689D03*
X64685Y-19255D03*
X64685Y-21689D03*
X64488Y-19255D03*
X64488Y-21689D03*
X64292Y-19255D03*
X64292Y-21689D03*
X64095Y-19255D03*
X64095Y-21689D03*
X63898Y-19255D03*
X63898Y-21689D03*
X63701Y-19255D03*
X63701Y-21689D03*
X63504Y-19255D03*
X63504Y-21689D03*
X63307Y-19255D03*
X63307Y-21689D03*
X63110Y-19255D03*
X63110Y-21689D03*
X62914Y-19255D03*
X62914Y-21689D03*
X62717Y-19255D03*
X62717Y-21689D03*
X62520Y-19255D03*
X62520Y-21689D03*
X62323Y-19255D03*
X62323Y-21689D03*
X62126Y-19255D03*
X62126Y-21689D03*
X61929Y-19255D03*
X61929Y-21689D03*
X61732Y-19255D03*
X61732Y-21689D03*
X61536Y-19255D03*
X61536Y-21689D03*
X61339Y-19255D03*
X61339Y-21689D03*
X61142Y-19255D03*
X61142Y-21689D03*
X60945Y-19255D03*
X60945Y-21689D03*
X60748Y-19255D03*
X60748Y-21689D03*
X60551Y-19255D03*
X60551Y-21689D03*
X60355Y-19255D03*
X60355Y-21689D03*
X60158Y-19255D03*
X60158Y-21689D03*
G54D17*
X66337Y-20472D03*
G54D18*
X64262Y-20472D03*
X61762Y-20472D03*
G54D17*
X59687Y-20472D03*
G54D16*
X57992Y-19255D03*
X57992Y-21689D03*
X57795Y-19255D03*
X57795Y-21689D03*
X57599Y-19255D03*
X57599Y-21689D03*
X57402Y-19255D03*
X57402Y-21689D03*
X57205Y-19255D03*
X57205Y-21689D03*
X57008Y-19255D03*
X57008Y-21689D03*
X56811Y-19255D03*
X56811Y-21689D03*
X56614Y-19255D03*
X56614Y-21689D03*
X56418Y-19255D03*
X56418Y-21689D03*
X56221Y-19255D03*
X56221Y-21689D03*
X56024Y-19255D03*
X56024Y-21689D03*
X55827Y-19255D03*
X55827Y-21689D03*
X55630Y-19255D03*
X55630Y-21689D03*
X55433Y-19255D03*
X55433Y-21689D03*
X55236Y-19255D03*
X55236Y-21689D03*
X55040Y-19255D03*
X55040Y-21689D03*
X54843Y-19255D03*
X54843Y-21689D03*
X54646Y-19255D03*
X54646Y-21689D03*
X54449Y-19255D03*
X54449Y-21689D03*
X54252Y-19255D03*
X54252Y-21689D03*
X54055Y-19255D03*
X54055Y-21689D03*
X53858Y-19255D03*
X53858Y-21689D03*
X53662Y-19255D03*
X53662Y-21689D03*
X53465Y-19255D03*
X53465Y-21689D03*
X53268Y-19255D03*
X53268Y-21689D03*
X53071Y-19255D03*
X53071Y-21689D03*
X52874Y-19255D03*
X52874Y-21689D03*
X52677Y-19255D03*
X52677Y-21689D03*
X52481Y-19255D03*
X52481Y-21689D03*
X52284Y-19255D03*
X52284Y-21689D03*
G54D17*
X58463Y-20472D03*
G54D18*
X56388Y-20472D03*
X53888Y-20472D03*
G54D17*
X51813Y-20472D03*
G54D16*
X50118Y-19255D03*
X50118Y-21689D03*
X49921Y-19255D03*
X49921Y-21689D03*
X49725Y-19255D03*
X49725Y-21689D03*
X49528Y-19255D03*
X49528Y-21689D03*
X49331Y-19255D03*
X49331Y-21689D03*
X49134Y-19255D03*
X49134Y-21689D03*
X48937Y-19255D03*
X48937Y-21689D03*
X48740Y-19255D03*
X48740Y-21689D03*
X48544Y-19255D03*
X48544Y-21689D03*
X48347Y-19255D03*
X48347Y-21689D03*
X48150Y-19255D03*
X48150Y-21689D03*
X47953Y-19255D03*
X47953Y-21689D03*
X47756Y-19255D03*
X47756Y-21689D03*
X47559Y-19255D03*
X47559Y-21689D03*
X47362Y-19255D03*
X47362Y-21689D03*
X47166Y-19255D03*
X47166Y-21689D03*
X46969Y-19255D03*
X46969Y-21689D03*
X46772Y-19255D03*
X46772Y-21689D03*
X46575Y-19255D03*
X46575Y-21689D03*
X46378Y-19255D03*
X46378Y-21689D03*
X46181Y-19255D03*
X46181Y-21689D03*
X45984Y-19255D03*
X45984Y-21689D03*
X45788Y-19255D03*
X45788Y-21689D03*
X45591Y-19255D03*
X45591Y-21689D03*
X45394Y-19255D03*
X45394Y-21689D03*
X45197Y-19255D03*
X45197Y-21689D03*
X45000Y-19255D03*
X45000Y-21689D03*
X44803Y-19255D03*
X44803Y-21689D03*
X44607Y-19255D03*
X44607Y-21689D03*
X44410Y-19255D03*
X44410Y-21689D03*
G54D17*
X50589Y-20472D03*
G54D18*
X48514Y-20472D03*
X46014Y-20472D03*
G54D17*
X43939Y-20472D03*
G54D19*
X67282Y-20271D03*
X42994Y-20271D03*
G54D20*
X68654Y-20472D03*
X41622Y-20472D03*
G54D14*
X68464Y-25638D03*
X68464Y-26016D03*
X67598Y-25638D03*
X67598Y-26016D03*
G54D13*
X67598Y-24626D03*
X67598Y-24980D03*
X66024Y-23445D03*
X66024Y-23091D03*
X66024Y-24036D03*
X66024Y-24390D03*
X67047Y-24862D03*
X67047Y-25216D03*
X66653Y-22854D03*
X66653Y-22500D03*
X50000Y-31910D03*
X50000Y-32264D03*
X50787Y-31910D03*
X50787Y-32264D03*
X51968Y-31910D03*
X51968Y-32264D03*
X52756Y-31910D03*
X52756Y-32264D03*
X53543Y-31910D03*
X53543Y-32264D03*
X49606Y-32264D03*
X49606Y-31910D03*
X50394Y-32264D03*
X50394Y-31910D03*
X51575Y-32264D03*
X51575Y-31910D03*
X56673Y-30709D03*
X56319Y-30709D03*
X55098Y-30709D03*
X54744Y-30709D03*
X53917Y-29921D03*
X53563Y-29921D03*
X56693Y-26398D03*
X56693Y-26752D03*
X56673Y-28740D03*
X56319Y-28740D03*
X55098Y-29527D03*
X54744Y-29527D03*
G54D21*
X33120Y-35806D03*
X33120Y-35550D03*
X33120Y-35294D03*
X33120Y-35038D03*
X33120Y-34782D03*
X33120Y-33168D03*
X33120Y-32912D03*
X33120Y-32656D03*
X33120Y-32400D03*
X33120Y-32144D03*
G54D22*
X32067Y-35747D03*
X32067Y-34841D03*
G54D23*
X32067Y-33818D03*
G54D22*
X32067Y-32735D03*
G54D23*
X32067Y-31711D03*
X32067Y-36770D03*
G54D24*
X32067Y-31770D03*
X32067Y-36711D03*
G54D25*
X33726Y-33050D03*
X33726Y-32853D03*
G54D26*
X33898Y-32656D03*
G54D25*
X33726Y-32459D03*
X33726Y-32262D03*
X34070Y-32262D03*
X34070Y-32459D03*
X34070Y-32853D03*
X34070Y-33050D03*
G54D13*
X35059Y-32185D03*
X34705Y-32185D03*
X35059Y-32539D03*
X34705Y-32539D03*
X51575Y-33051D03*
X51575Y-32697D03*
X53543Y-33878D03*
X53543Y-34232D03*
X48819Y-29114D03*
X48819Y-28760D03*
X53543Y-29154D03*
X53543Y-29508D03*
X48819Y-33878D03*
X48819Y-34232D03*
X53937Y-33878D03*
X53937Y-34232D03*
X48425Y-29114D03*
X48425Y-28760D03*
X53937Y-29154D03*
X53937Y-29508D03*
X48425Y-33878D03*
X48425Y-34232D03*
X52776Y-33465D03*
X53130Y-33465D03*
X50767Y-33465D03*
X50413Y-33465D03*
X49980Y-33465D03*
X49626Y-33465D03*
X50394Y-33051D03*
X50394Y-32697D03*
X53150Y-33051D03*
X53150Y-32697D03*
X52362Y-33051D03*
X52362Y-32697D03*
X49606Y-33051D03*
X49606Y-32697D03*
X52756Y-32697D03*
X52756Y-33051D03*
X51968Y-32697D03*
X51968Y-33051D03*
X50787Y-32697D03*
X50787Y-33051D03*
X50000Y-32697D03*
X50000Y-33051D03*
X49212Y-32697D03*
X49212Y-33051D03*
X53150Y-32264D03*
X53150Y-31910D03*
X52362Y-32264D03*
X52362Y-31910D03*
X51575Y-33878D03*
X51575Y-34232D03*
X54724Y-32697D03*
X54724Y-33051D03*
X55118Y-33051D03*
X55118Y-32697D03*
X52362Y-33838D03*
X52362Y-33484D03*
X50000Y-34232D03*
X50000Y-33878D03*
X49626Y-34646D03*
X49980Y-34646D03*
X45590Y-36437D03*
X45590Y-36791D03*
X46083Y-31890D03*
X46437Y-31890D03*
X47264Y-32283D03*
X47618Y-32283D03*
X48051Y-33465D03*
X48405Y-33465D03*
X47264Y-33465D03*
X47618Y-33465D03*
X45689Y-34252D03*
X46043Y-34252D03*
G54D14*
X63701Y-36543D03*
X63701Y-36921D03*
G54D15*
X48433Y-32244D03*
X48811Y-32244D03*
X48024Y-31496D03*
X47646Y-31496D03*
X46449Y-31102D03*
X46071Y-31102D03*
G54D14*
X48031Y-29535D03*
X48031Y-29913D03*
G54D15*
X47252Y-29921D03*
X47630Y-29921D03*
X47236Y-31496D03*
X46858Y-31496D03*
X45795Y-28150D03*
X46173Y-28150D03*
X48417Y-34646D03*
X48039Y-34646D03*
G54D13*
X45669Y-26398D03*
X45669Y-26752D03*
X45689Y-28740D03*
X46043Y-28740D03*
X47264Y-29527D03*
X47618Y-29527D03*
X48425Y-29547D03*
X48425Y-29901D03*
X45689Y-30709D03*
X46043Y-30709D03*
X47264Y-30709D03*
X47618Y-30709D03*
X52205Y-42973D03*
X52205Y-43327D03*
X48268Y-46240D03*
X48268Y-46594D03*
X48268Y-42973D03*
X48268Y-43327D03*
X48976Y-46240D03*
X48976Y-46594D03*
X48976Y-42973D03*
X48976Y-43327D03*
X49921Y-46240D03*
X49921Y-46594D03*
X50315Y-42973D03*
X50315Y-43327D03*
X51260Y-46240D03*
X51260Y-46594D03*
X51260Y-42973D03*
X51260Y-43327D03*
X52205Y-46240D03*
X52205Y-46594D03*
X52913Y-46240D03*
X52913Y-46594D03*
X52913Y-42973D03*
X52913Y-43327D03*
G54D14*
X54331Y-32685D03*
X54331Y-33063D03*
G54D15*
X53945Y-32283D03*
X54323Y-32283D03*
G54D13*
X63779Y-43012D03*
X63779Y-43366D03*
X52362Y-28720D03*
X52362Y-28366D03*
X50000Y-29114D03*
X50000Y-28760D03*
X54331Y-29901D03*
X54331Y-29547D03*
G54D27*
X41181Y-25039D03*
X41378Y-24744D03*
X40984Y-24744D03*
X40984Y-25334D03*
X41378Y-25334D03*
G54D28*
X38619Y-19468D03*
X39013Y-19468D03*
X38816Y-19763D03*
X38619Y-20058D03*
X39013Y-20058D03*
X34783Y-26456D03*
X34429Y-26456D03*
X34606Y-26220D03*
X34783Y-25984D03*
X34429Y-25984D03*
G54D15*
X68669Y-34331D03*
X69047Y-34331D03*
X67709Y-36299D03*
X67331Y-36299D03*
X68669Y-34764D03*
X69047Y-34764D03*
X69283Y-30079D03*
X68905Y-30079D03*
X68905Y-28346D03*
X69283Y-28346D03*
X68905Y-31378D03*
X69283Y-31378D03*
X68905Y-28779D03*
X69283Y-28779D03*
X68905Y-29213D03*
X69283Y-29213D03*
X68905Y-30945D03*
X69283Y-30945D03*
X65441Y-31811D03*
X65819Y-31811D03*
G54D14*
X42520Y-25244D03*
X42520Y-25622D03*
X42520Y-24835D03*
X42520Y-24457D03*
G54D13*
X69271Y-29646D03*
X68917Y-29646D03*
G54D29*
X34104Y-35807D03*
X34104Y-35433D03*
X34104Y-35059D03*
X34872Y-35059D03*
X34872Y-35433D03*
X34872Y-35807D03*
G54D13*
X61023Y-32776D03*
X61023Y-33130D03*
X62047Y-32776D03*
X62047Y-33130D03*
G54D30*
X36890Y-22441D03*
X34528Y-22441D03*
X35709Y-24291D03*
G54D31*
X33898Y-36594D03*
X33898Y-37264D03*
G54D32*
X32776Y-38425D03*
X32106Y-38425D03*
G54D33*
X32087Y-37638D03*
X32795Y-37638D03*
G54D31*
X36968Y-29271D03*
X36968Y-29941D03*
G54D32*
X37264Y-35866D03*
X36594Y-35866D03*
X54035Y-31732D03*
X54705Y-31732D03*
G54D13*
X35571Y-31102D03*
X35925Y-31102D03*
G54D14*
X35590Y-35701D03*
X35590Y-35323D03*
X36850Y-37213D03*
X36850Y-37591D03*
G54D34*
X67245Y-24252D03*
X66851Y-24252D03*
X66457Y-24252D03*
X67245Y-23858D03*
X66851Y-23858D03*
X66457Y-23858D03*
X67245Y-23464D03*
X66851Y-23464D03*
X66457Y-23464D03*
G54D28*
X67321Y-48150D03*
X67321Y-47756D03*
X67518Y-47953D03*
X67715Y-48150D03*
X67715Y-47756D03*
X67008Y-33622D03*
X67913Y-23858D03*
X66614Y-32716D03*
X67047Y-22795D03*
X66220Y-19803D03*
X65000Y-22362D03*
X65000Y-19961D03*
X65354Y-22362D03*
X65354Y-19961D03*
X66850Y-24882D03*
X65945Y-25197D03*
X65945Y-25590D03*
X65827Y-24055D03*
X50394Y-35827D03*
X50354Y-44842D03*
X51575Y-34646D03*
X50354Y-41614D03*
X50394Y-34646D03*
X49882Y-41614D03*
X51772Y-44842D03*
X50787Y-35433D03*
X53150Y-35433D03*
X51772Y-41614D03*
X48701Y-44842D03*
X49409Y-37126D03*
X52362Y-35039D03*
X52244Y-44842D03*
X51968Y-35827D03*
X52480Y-44842D03*
X52756Y-36220D03*
X50590Y-45197D03*
X51575Y-35433D03*
X50590Y-41968D03*
X50787Y-36220D03*
X50827Y-44842D03*
X51575Y-35827D03*
X50827Y-41614D03*
X51299Y-44842D03*
X50787Y-35827D03*
X51535Y-45197D03*
X53150Y-36614D03*
X51299Y-41614D03*
X53150Y-36220D03*
X53543Y-35827D03*
X51535Y-41968D03*
X49646Y-41968D03*
X50000Y-35433D03*
X50394Y-37323D03*
X49882Y-44842D03*
X52244Y-41614D03*
X53937Y-36220D03*
X48937Y-41614D03*
X49606Y-35039D03*
X54331Y-35827D03*
X60039Y-44842D03*
X42795Y-45079D03*
X48425Y-35827D03*
X60275Y-44842D03*
X54331Y-35433D03*
X48031Y-35827D03*
X43031Y-44567D03*
X54724Y-36220D03*
X52953Y-41614D03*
X54724Y-36614D03*
X52953Y-44842D03*
X62638Y-44842D03*
X56693Y-34646D03*
X55118Y-34646D03*
X60748Y-44842D03*
X55512Y-36220D03*
X56260Y-44842D03*
X53150Y-37008D03*
X54370Y-41653D03*
X51575Y-35039D03*
X47047Y-44842D03*
X48425Y-36220D03*
X44921Y-41653D03*
X42323Y-44842D03*
X48819Y-34646D03*
X40433Y-41653D03*
X47638Y-35827D03*
X61535Y-44842D03*
X55905Y-34646D03*
X61142Y-44842D03*
X55118Y-33858D03*
X55905Y-35433D03*
X59646Y-44842D03*
X56693Y-35827D03*
X59252Y-44842D03*
X54527Y-37205D03*
X54331Y-36220D03*
X54527Y-37520D03*
X53937Y-35827D03*
X57283Y-44842D03*
X55512Y-35827D03*
X55118Y-35827D03*
X56890Y-44842D03*
X53543Y-36220D03*
X55866Y-44842D03*
X52756Y-35433D03*
X55472Y-44842D03*
X55118Y-36220D03*
X55157Y-44842D03*
X54724Y-37008D03*
X54764Y-44842D03*
X53150Y-35827D03*
X53740Y-44842D03*
X52362Y-35433D03*
X53346Y-44842D03*
X47835Y-44842D03*
X52362Y-35827D03*
X47441Y-44842D03*
X51968Y-36220D03*
X46653Y-44842D03*
X51575Y-36220D03*
X46260Y-44842D03*
X51968Y-34646D03*
X55512Y-33071D03*
X63425Y-44842D03*
X50000Y-35827D03*
X45945Y-44842D03*
X45551Y-44842D03*
X49606Y-35827D03*
X48819Y-35827D03*
X44527Y-44842D03*
X44134Y-44842D03*
X49212Y-36220D03*
X55905Y-33465D03*
X63031Y-44842D03*
X43819Y-44842D03*
X48819Y-36220D03*
X49212Y-35433D03*
X43425Y-44842D03*
X41929Y-44842D03*
X48425Y-35039D03*
X41535Y-44842D03*
X48031Y-36220D03*
X55905Y-33858D03*
X62244Y-44842D03*
X41220Y-44842D03*
X48425Y-35433D03*
X47638Y-36220D03*
X40827Y-44842D03*
X39803Y-44842D03*
X46850Y-36220D03*
X46457Y-36614D03*
X39409Y-44842D03*
X56299Y-34646D03*
X61850Y-44842D03*
X55512Y-32283D03*
X62165Y-41614D03*
X60039Y-41614D03*
X56299Y-36220D03*
X56260Y-41653D03*
X55905Y-36220D03*
X52756Y-35827D03*
X54134Y-44842D03*
X52362Y-36220D03*
X52362Y-39016D03*
X44921Y-44842D03*
X49606Y-36220D03*
X49212Y-35827D03*
X43307Y-41653D03*
X48031Y-35433D03*
X40197Y-44842D03*
X50000Y-36220D03*
X48937Y-44842D03*
X47244Y-35827D03*
X48228Y-41614D03*
X49646Y-45197D03*
X50787Y-35039D03*
X50394Y-36220D03*
X49409Y-44842D03*
X48701Y-41614D03*
X49212Y-35039D03*
X53543Y-34646D03*
X54331Y-32677D03*
X50000Y-34646D03*
X55118Y-32677D03*
X54331Y-32283D03*
X51575Y-34252D03*
X55118Y-31890D03*
X50000Y-34252D03*
X55118Y-34252D03*
X50787Y-34252D03*
X52756Y-35039D03*
X49212Y-33858D03*
X63583Y-43031D03*
X52362Y-33858D03*
X54724Y-32677D03*
X49606Y-35433D03*
X49409Y-41614D03*
X48031Y-30709D03*
X46457Y-31102D03*
X64173Y-32716D03*
X47638Y-30315D03*
X47244Y-31102D03*
X70236Y-36339D03*
X64016Y-36575D03*
X69212Y-36339D03*
X64685Y-37126D03*
X48031Y-31102D03*
X61378Y-32953D03*
X47638Y-31102D03*
X64724Y-35276D03*
X68307Y-35748D03*
X48425Y-31102D03*
X48425Y-31890D03*
X46850Y-31102D03*
X38425Y-31732D03*
X46457Y-30709D03*
X38110Y-31417D03*
X46850Y-29527D03*
X46850Y-30315D03*
X39370Y-31732D03*
X37480Y-31417D03*
X46457Y-29527D03*
X37165Y-31102D03*
X46457Y-28740D03*
X36535Y-31102D03*
X46850Y-28346D03*
X46457Y-30315D03*
X39055Y-31417D03*
X38425Y-31102D03*
X46850Y-29921D03*
X38110Y-31102D03*
X46457Y-29921D03*
X46457Y-29134D03*
X37480Y-31102D03*
X64882Y-24685D03*
X50787Y-37008D03*
X55905Y-32677D03*
X67126Y-25827D03*
X56693Y-33858D03*
X56299Y-32677D03*
X64882Y-24331D03*
X50787Y-36614D03*
X56299Y-33858D03*
X66575Y-25827D03*
X66378Y-32598D03*
X64567Y-32244D03*
X64212Y-33937D03*
X62795Y-31850D03*
X54331Y-27559D03*
X57992Y-20000D03*
X54331Y-26772D03*
X56811Y-20000D03*
X53937Y-27165D03*
X56614Y-19685D03*
X53543Y-26772D03*
X56417Y-20000D03*
X53150Y-26772D03*
X56220Y-19685D03*
X53543Y-27165D03*
X56024Y-20000D03*
X55512Y-26772D03*
X52756Y-27165D03*
X55630Y-20000D03*
X52362Y-26772D03*
X55433Y-19685D03*
X53937Y-28346D03*
X55236Y-22126D03*
X54331Y-27165D03*
X55236Y-20001D03*
X51968Y-27165D03*
X55039Y-19685D03*
X51968Y-26772D03*
X54842Y-20000D03*
X57795Y-19685D03*
X51575Y-27165D03*
X54449Y-20000D03*
X51181Y-27165D03*
X54252Y-19685D03*
X53543Y-28346D03*
X54055Y-22126D03*
X52756Y-27559D03*
X54055Y-20000D03*
X53858Y-22559D03*
X53150Y-27165D03*
X53858Y-19685D03*
X53937Y-26772D03*
X53858Y-22835D03*
X53661Y-20000D03*
X55118Y-26772D03*
X53937Y-27953D03*
X53268Y-23150D03*
X53268Y-20000D03*
X52362Y-27165D03*
X53071Y-23465D03*
X53937Y-27559D03*
X52362Y-27953D03*
X53071Y-19685D03*
X52362Y-29134D03*
X52874Y-23858D03*
X52874Y-20197D03*
X52756Y-28346D03*
X52283Y-22677D03*
X51968Y-28740D03*
X51575Y-27953D03*
X52677Y-19685D03*
X52283Y-22402D03*
X51968Y-29134D03*
X52677Y-19961D03*
X51968Y-28346D03*
X57598Y-20000D03*
X52283Y-22126D03*
X52362Y-27559D03*
X51575Y-27559D03*
X52283Y-19685D03*
X54724Y-27165D03*
X57401Y-19685D03*
X54724Y-26772D03*
X57205Y-20000D03*
X47953Y-18465D03*
X61338Y-18504D03*
X55827Y-18465D03*
X57441Y-18465D03*
X51575Y-28346D03*
X52362Y-28346D03*
X54331Y-28740D03*
X54331Y-28346D03*
X52756Y-27953D03*
X50354Y-22441D03*
X48425Y-27559D03*
X50000Y-27953D03*
X50118Y-19685D03*
X50394Y-27165D03*
X48937Y-19961D03*
X49212Y-27953D03*
X50394Y-26772D03*
X49212Y-27165D03*
X48740Y-19685D03*
X49212Y-28346D03*
X48543Y-22126D03*
X48543Y-20118D03*
X48425Y-27165D03*
X50000Y-27165D03*
X48031Y-27953D03*
X48149Y-20157D03*
X50000Y-26772D03*
X48425Y-27953D03*
X48150Y-19882D03*
X50354Y-22716D03*
X49606Y-27559D03*
X49606Y-26772D03*
X47559Y-19961D03*
X49606Y-27165D03*
X47559Y-19685D03*
X49212Y-26772D03*
X47362Y-20157D03*
X48819Y-27165D03*
X46968Y-20158D03*
X48819Y-26772D03*
X46968Y-19882D03*
X49921Y-19961D03*
X50000Y-27559D03*
X48031Y-27165D03*
X46378Y-19961D03*
X48031Y-26772D03*
X46378Y-19685D03*
X46181Y-23150D03*
X48425Y-28346D03*
X46181Y-20157D03*
X47638Y-27165D03*
X45984Y-19685D03*
X47638Y-26772D03*
X45787Y-20000D03*
X50787Y-27559D03*
X50354Y-22993D03*
X47244Y-27165D03*
X45394Y-19842D03*
X47244Y-26772D03*
X45394Y-20118D03*
X46850Y-26772D03*
X45394Y-21102D03*
X46850Y-27165D03*
X44606Y-19961D03*
X46457Y-26772D03*
X44606Y-19685D03*
X49724Y-19685D03*
X48425Y-26772D03*
X44409Y-22126D03*
X44291Y-19803D03*
X48031Y-27559D03*
X49527Y-22441D03*
X50787Y-27165D03*
X49527Y-22716D03*
X49212Y-27559D03*
X50787Y-26772D03*
X49212Y-28740D03*
X50000Y-28346D03*
X50787Y-29134D03*
X50787Y-28740D03*
X50000Y-28740D03*
X55905Y-29921D03*
X64685Y-20000D03*
X54724Y-30315D03*
X55905Y-28740D03*
X63504Y-20000D03*
X55118Y-30315D03*
X55512Y-28346D03*
X63307Y-19685D03*
X55512Y-29921D03*
X55905Y-28346D03*
X55118Y-29921D03*
X63110Y-20000D03*
X55512Y-27953D03*
X62913Y-19685D03*
X55118Y-29134D03*
X55905Y-27953D03*
X62716Y-20000D03*
X55512Y-28740D03*
X55512Y-29527D03*
X55512Y-27559D03*
X62323Y-20000D03*
X55118Y-28740D03*
X55905Y-27559D03*
X55118Y-28346D03*
X62126Y-19685D03*
X55512Y-27165D03*
X61929Y-20000D03*
X55118Y-27953D03*
X55905Y-27165D03*
X61732Y-19685D03*
X55118Y-27559D03*
X55905Y-26772D03*
X55118Y-27165D03*
X61535Y-20000D03*
X64488Y-19685D03*
X54724Y-29921D03*
X61142Y-22480D03*
X61142Y-20000D03*
X60945Y-22126D03*
X60945Y-19685D03*
X60748Y-22480D03*
X60748Y-20000D03*
X60551Y-22126D03*
X60551Y-19685D03*
X60354Y-22283D03*
X60354Y-20000D03*
X55905Y-29527D03*
X60157Y-22480D03*
X60157Y-19685D03*
X54724Y-29134D03*
X64291Y-20000D03*
X55512Y-29134D03*
X64094Y-19685D03*
X54724Y-28740D03*
X55905Y-29134D03*
X63898Y-20000D03*
X54724Y-28346D03*
X64370Y-32480D03*
X55118Y-31102D03*
X53937Y-30315D03*
X55512Y-30315D03*
X53937Y-30709D03*
X54331Y-29527D03*
X53543Y-33858D03*
X53937Y-31102D03*
X53543Y-29134D03*
X48819Y-33858D03*
X48819Y-29134D03*
X39055Y-32677D03*
X48031Y-31890D03*
X39370Y-32677D03*
X47244Y-31890D03*
X47244Y-34646D03*
X36535Y-32677D03*
X36535Y-32362D03*
X47638Y-34646D03*
X46850Y-32283D03*
X40945Y-33189D03*
X46457Y-32677D03*
X41417Y-33189D03*
X46850Y-35039D03*
X43819Y-35787D03*
X42677Y-35787D03*
X46457Y-34252D03*
X46457Y-35433D03*
X44645Y-35787D03*
X44646Y-36339D03*
X46850Y-35827D03*
X46457Y-36220D03*
X44842Y-36772D03*
X46457Y-35827D03*
X45000Y-36339D03*
X41181Y-33189D03*
X46850Y-32677D03*
X41614Y-33976D03*
X46850Y-33071D03*
X41850Y-33976D03*
X46457Y-33071D03*
X42087Y-33976D03*
X46850Y-33465D03*
X42283Y-34527D03*
X46457Y-33465D03*
X42992Y-34527D03*
X46850Y-33858D03*
X42520Y-34527D03*
X46457Y-33858D03*
X46457Y-34646D03*
X42953Y-35787D03*
X44369Y-35787D03*
X46850Y-35433D03*
X44094Y-35787D03*
X46457Y-35039D03*
X47638Y-31890D03*
X39055Y-32992D03*
X37480Y-33937D03*
X47244Y-35039D03*
X48031Y-33071D03*
X38740Y-34252D03*
X47638Y-33858D03*
X38110Y-34252D03*
X38110Y-33937D03*
X47638Y-34252D03*
X47244Y-32677D03*
X39055Y-33622D03*
X46850Y-31890D03*
X40709Y-33189D03*
X47244Y-34252D03*
X36850Y-31732D03*
X36535Y-32047D03*
X48031Y-34252D03*
X64882Y-18504D03*
X65039Y-34646D03*
X59606Y-18819D03*
X38858Y-43150D03*
X47244Y-36220D03*
X68111Y-23661D03*
X64567Y-36024D03*
X46850Y-36614D03*
X39252Y-43150D03*
X64961Y-36024D03*
X67914Y-23465D03*
X62520Y-22126D03*
X61338Y-21260D03*
X55512Y-30709D03*
X64882Y-22126D03*
X64882Y-21260D03*
X53937Y-29921D03*
X63701Y-22126D03*
X56693Y-30709D03*
X60157Y-18779D03*
X56693Y-28740D03*
X62520Y-21260D03*
X55118Y-30709D03*
X60157Y-18504D03*
X54331Y-29921D03*
X56693Y-26378D03*
X61338Y-22126D03*
X55118Y-29527D03*
X63701Y-21260D03*
X53464Y-22126D03*
X55827Y-22126D03*
X51968Y-27559D03*
X54646Y-18465D03*
X53543Y-27559D03*
X54646Y-21260D03*
X53150Y-28740D03*
X55827Y-21260D03*
X52756Y-28740D03*
X57008Y-21260D03*
X54724Y-27559D03*
X51968Y-25984D03*
X52362Y-28740D03*
X53543Y-25984D03*
X55118Y-25984D03*
X57008Y-18819D03*
X57008Y-19685D03*
X53464Y-18819D03*
X55827Y-18819D03*
X55827Y-19685D03*
X53464Y-19685D03*
X56299Y-25984D03*
X57008Y-22126D03*
X51575Y-29134D03*
X54646Y-19685D03*
X53464Y-21260D03*
X54646Y-18819D03*
X51575Y-28740D03*
X54646Y-22126D03*
X47953Y-19685D03*
X50394Y-27559D03*
X50000Y-29134D03*
X47953Y-22126D03*
X46772Y-18819D03*
X47953Y-21260D03*
X48819Y-27559D03*
X49134Y-22126D03*
X50787Y-28346D03*
X46063Y-25984D03*
X46772Y-22126D03*
X49134Y-21260D03*
X50394Y-25984D03*
X45590Y-22126D03*
X50394Y-29134D03*
X46772Y-21260D03*
X46772Y-18465D03*
X47953Y-18819D03*
X47638Y-27559D03*
X45590Y-18819D03*
X45590Y-21260D03*
X49606Y-28740D03*
X48819Y-25984D03*
X49134Y-19685D03*
X47244Y-25984D03*
X49134Y-18819D03*
X45590Y-19685D03*
X46772Y-19685D03*
X63701Y-19685D03*
X63701Y-18819D03*
X64882Y-18819D03*
X61338Y-18819D03*
X62520Y-18819D03*
X63701Y-18504D03*
X62520Y-19685D03*
X61338Y-19685D03*
X64882Y-19685D03*
X68346Y-34764D03*
X37913Y-19370D03*
X65748Y-37559D03*
X38661Y-46535D03*
X38622Y-45039D03*
X69331Y-33819D03*
X66378Y-37205D03*
X62519Y-32757D03*
X66496Y-35079D03*
X62519Y-33150D03*
X66496Y-35945D03*
X64527Y-34527D03*
X67087Y-36693D03*
X66693Y-28937D03*
X68386Y-37441D03*
X64016Y-36260D03*
X64488Y-35512D03*
X69567Y-28779D03*
X66102Y-31811D03*
X67835Y-35472D03*
X69567Y-30945D03*
X67598Y-35354D03*
X69567Y-29213D03*
X69567Y-30079D03*
X67953Y-34961D03*
X66693Y-28543D03*
X66693Y-30236D03*
X69212Y-38071D03*
X63701Y-36260D03*
X35551Y-25433D03*
X67559Y-34173D03*
X33779Y-25551D03*
X68346Y-34331D03*
X66417Y-47756D03*
X67008Y-36299D03*
X38661Y-24606D03*
X63976Y-33110D03*
X64961Y-32638D03*
X42126Y-25354D03*
X42126Y-24724D03*
X64764Y-32480D03*
X66693Y-36575D03*
X66181Y-48031D03*
X59488Y-29370D03*
X65787Y-32756D03*
X68189Y-21024D03*
X67520Y-33898D03*
X34409Y-35728D03*
X34409Y-35138D03*
X37165Y-33937D03*
X47244Y-35433D03*
X37165Y-31417D03*
X46457Y-28346D03*
X46063Y-33858D03*
X40158Y-35787D03*
X46850Y-30709D03*
X39055Y-32362D03*
X39370Y-33622D03*
X47244Y-33071D03*
X35079Y-33150D03*
X35079Y-33465D03*
X35079Y-32205D03*
X35079Y-32520D03*
X35197Y-29921D03*
X35905Y-32677D03*
X35905Y-33937D03*
X35472Y-29921D03*
X35905Y-31732D03*
X36535Y-33937D03*
X36220Y-34252D03*
X35590Y-31102D03*
X35905Y-32992D03*
X35590Y-30787D03*
X37165Y-34252D03*
X35905Y-35000D03*
X35905Y-34567D03*
X35669Y-35000D03*
X35433Y-35000D03*
X36378Y-30433D03*
G54D35*
X33740Y-35433D03*
G54D28*
X68622Y-22047D03*
X59961Y-20236D03*
X52756Y-29134D03*
X54606Y-45197D03*
G54D35*
X69291Y-49370D03*
G54D28*
X54331Y-33071D03*
X53937Y-34252D03*
X35590Y-34567D03*
G54D35*
X70433Y-47992D03*
X69921Y-50039D03*
G54D28*
X45157Y-45197D03*
X52362Y-29921D03*
X52362Y-30709D03*
X38110Y-32677D03*
X59803Y-45197D03*
X54331Y-30315D03*
X54606Y-41968D03*
X54724Y-33465D03*
X39055Y-31102D03*
X50315Y-20236D03*
X49606Y-33858D03*
X49212Y-34252D03*
X48819Y-29921D03*
G54D35*
X42165Y-25039D03*
G54D28*
X47638Y-29527D03*
G54D35*
X40147Y-18966D03*
G54D28*
X66063Y-20709D03*
X44685Y-45197D03*
X37913Y-19646D03*
X36220Y-32047D03*
G54D35*
X68622Y-49370D03*
G54D28*
X49173Y-43307D03*
X50787Y-29527D03*
X64724Y-31220D03*
X64331Y-24921D03*
X49606Y-32677D03*
X62520Y-20709D03*
X50000Y-29527D03*
X53543Y-29527D03*
X51575Y-29921D03*
X44212Y-20709D03*
X52756Y-32283D03*
X56299Y-34252D03*
X38425Y-33622D03*
X69527Y-20905D03*
X46378Y-18465D03*
X51575Y-33465D03*
X49134Y-20984D03*
X43622Y-20236D03*
X63110Y-30827D03*
X51968Y-31102D03*
X60512Y-41968D03*
X37480Y-32362D03*
X52756Y-33858D03*
X49134Y-20709D03*
X64094Y-30039D03*
X54331Y-27953D03*
X47244Y-36614D03*
X34646Y-29527D03*
X61338Y-20236D03*
X65669Y-28898D03*
X53898Y-41968D03*
X53150Y-31890D03*
X61338Y-20709D03*
X61259Y-32638D03*
X67598Y-31929D03*
X53464Y-20984D03*
X68327Y-22047D03*
X38425Y-33937D03*
X57441Y-41968D03*
G54D35*
X36811Y-27047D03*
G54D28*
X66693Y-20709D03*
X68425Y-24961D03*
X52756Y-33071D03*
X53543Y-31102D03*
X38425Y-32362D03*
X37500Y-36968D03*
X35079Y-31890D03*
X51968Y-35039D03*
X37480Y-32047D03*
X56024Y-41968D03*
X43268Y-41968D03*
X54331Y-31102D03*
X55315Y-45197D03*
X51968Y-32283D03*
X55827Y-20984D03*
G54D35*
X39842Y-18661D03*
G54D28*
X52716Y-43307D03*
X53150Y-29921D03*
X54646Y-20709D03*
G54D35*
X33110Y-33779D03*
G54D28*
X37480Y-32992D03*
G54D35*
X69921Y-49370D03*
G54D28*
X68425Y-23346D03*
X54724Y-32283D03*
X50315Y-19961D03*
X64370Y-30039D03*
X66850Y-37441D03*
X66851Y-23858D03*
X36378Y-30118D03*
X47953Y-20709D03*
X47638Y-27953D03*
X47992Y-45197D03*
X54331Y-30709D03*
X48819Y-27953D03*
X46457Y-27165D03*
X47244Y-26378D03*
X63779Y-25827D03*
X36220Y-33307D03*
G54D35*
X70433Y-47008D03*
G54D28*
X50394Y-26378D03*
X59331Y-19961D03*
X66850Y-25197D03*
G54D35*
X38307Y-26063D03*
G54D28*
X38425Y-33307D03*
X44685Y-41968D03*
X58189Y-20236D03*
X35079Y-32835D03*
X50000Y-31102D03*
X60157Y-29724D03*
X57441Y-45197D03*
X49606Y-29921D03*
X52756Y-30315D03*
X51063Y-46575D03*
X53464Y-20236D03*
X43976Y-41968D03*
X47638Y-32283D03*
X49212Y-29527D03*
X48464Y-46575D03*
X36850Y-31102D03*
G54D35*
X33307Y-37638D03*
G54D28*
X64172Y-34626D03*
G54D35*
X69961Y-47008D03*
G54D28*
X47953Y-20984D03*
X48425Y-33465D03*
X53937Y-28740D03*
X39252Y-45197D03*
X48819Y-26378D03*
X58937Y-30000D03*
X51063Y-43307D03*
X62638Y-41968D03*
X56732Y-41968D03*
X56299Y-32283D03*
X47638Y-30709D03*
X60669Y-30354D03*
X62559Y-33661D03*
X63110Y-35748D03*
X52756Y-31102D03*
X63346Y-41968D03*
X56496Y-41968D03*
X62520Y-20236D03*
X56299Y-28740D03*
X50118Y-46575D03*
X56299Y-30709D03*
G54D35*
X69291Y-50039D03*
G54D28*
X39055Y-33937D03*
X35039Y-28937D03*
X46063Y-28740D03*
X34291Y-32657D03*
X48425Y-29921D03*
X37500Y-37205D03*
X50394Y-25590D03*
X50000Y-33071D03*
X48425Y-34252D03*
X52716Y-46575D03*
X63583Y-43346D03*
G54D35*
X39409Y-20394D03*
G54D28*
X35551Y-33937D03*
X38425Y-34252D03*
X51457Y-20709D03*
X48819Y-31890D03*
X59527Y-31535D03*
X35079Y-33779D03*
X40020Y-34587D03*
X53543Y-30315D03*
X70315Y-33465D03*
G54D35*
X36024Y-26772D03*
G54D28*
X50394Y-35039D03*
X59094Y-45197D03*
X36535Y-31732D03*
X38816Y-19763D03*
X64882Y-20709D03*
X67518Y-47953D03*
X52008Y-46575D03*
X46811Y-45197D03*
X35905Y-30787D03*
X51575Y-32677D03*
G54D35*
X39842Y-20630D03*
G54D28*
X65650Y-33740D03*
X37165Y-32992D03*
X56299Y-26378D03*
X68898Y-22047D03*
X59331Y-20236D03*
X61220Y-41968D03*
X53543Y-35039D03*
X40118Y-26772D03*
X66457Y-22520D03*
X58189Y-20984D03*
X47283Y-45197D03*
X58819Y-20236D03*
X65669Y-31220D03*
X46063Y-34252D03*
X40197Y-41968D03*
X66693Y-20236D03*
X63110Y-34094D03*
X55118Y-36614D03*
X37795Y-20630D03*
X38819Y-30079D03*
X69173Y-22047D03*
X42795Y-41968D03*
X56693Y-36220D03*
X37165Y-34567D03*
X59803Y-41968D03*
X52362Y-32677D03*
X53543Y-28740D03*
X39370Y-32047D03*
X53543Y-29921D03*
X39370Y-33937D03*
X40394Y-31614D03*
X49606Y-31890D03*
G54D35*
X70433Y-47520D03*
G54D28*
X70000Y-20512D03*
X59331Y-20984D03*
X42087Y-45197D03*
X46575Y-41968D03*
X61929Y-41968D03*
X53464Y-20709D03*
X48819Y-34252D03*
X37165Y-32362D03*
X53150Y-27953D03*
X36220Y-32677D03*
X41378Y-45197D03*
X49606Y-33465D03*
X68583Y-29646D03*
X33484Y-32657D03*
X48819Y-28740D03*
X37165Y-32047D03*
X53189Y-41968D03*
X38740Y-31102D03*
G54D35*
X38307Y-26496D03*
G54D28*
X38740Y-31417D03*
X38110Y-32047D03*
X59094Y-41968D03*
X43346Y-20472D03*
G54D35*
X33307Y-38425D03*
G54D28*
X61693Y-45197D03*
X45669Y-26772D03*
X58819Y-19961D03*
G54D35*
X40748Y-27087D03*
G54D28*
X40669Y-41968D03*
X39370Y-33307D03*
X50945Y-19961D03*
X49173Y-46575D03*
X58937Y-30315D03*
X68583Y-30079D03*
G54D35*
X33110Y-34134D03*
G54D28*
X59961Y-20709D03*
X61535Y-35276D03*
X43268Y-45197D03*
X64724Y-26968D03*
X38976Y-23898D03*
X48425Y-28740D03*
X52087Y-20709D03*
X46772Y-20984D03*
X40354Y-33386D03*
X56732Y-45197D03*
X52756Y-29527D03*
X50945Y-20236D03*
X46102Y-45197D03*
X60984Y-45197D03*
X70000Y-24252D03*
X64724Y-28898D03*
X62401Y-41968D03*
G54D35*
X67047Y-41299D03*
G54D28*
X49606Y-30709D03*
X64016Y-36890D03*
X43976Y-45197D03*
X39488Y-41968D03*
X61810Y-32638D03*
X54370Y-45197D03*
X34606Y-26220D03*
X49212Y-31102D03*
X58346Y-18504D03*
X36220Y-31417D03*
X38425Y-32677D03*
X69449Y-22047D03*
X51457Y-20236D03*
X45590Y-36772D03*
X54724Y-31102D03*
G54D35*
X69961Y-47992D03*
G54D28*
X40433Y-45197D03*
X35905Y-33622D03*
X35905Y-34252D03*
X54646Y-20984D03*
X50315Y-20709D03*
X51968Y-29527D03*
X50394Y-30709D03*
X50394Y-29921D03*
X52362Y-31890D03*
X37165Y-33307D03*
X69567Y-27382D03*
X57008Y-20236D03*
X39370Y-23898D03*
X56693Y-26772D03*
X51575Y-30709D03*
X53150Y-32677D03*
X36220Y-33937D03*
X46772Y-20709D03*
X50394Y-29527D03*
X36220Y-32992D03*
X53937Y-29527D03*
X36850Y-34567D03*
X62401Y-45197D03*
G54D35*
X67047Y-42087D03*
G54D28*
X35905Y-32047D03*
X51457Y-20984D03*
X43622Y-20709D03*
X60275Y-41968D03*
X66850Y-27598D03*
X63543Y-30039D03*
X69567Y-30512D03*
X59331Y-20709D03*
X65866Y-47362D03*
X65827Y-24449D03*
X44212Y-20984D03*
X62992Y-18150D03*
X51457Y-19961D03*
X56299Y-36614D03*
X52087Y-19961D03*
X45157Y-41968D03*
X47638Y-35039D03*
X54724Y-35039D03*
X38425Y-32047D03*
X48819Y-35039D03*
X51968Y-33465D03*
X53543Y-32283D03*
X53150Y-30709D03*
X53150Y-33465D03*
X70236Y-38071D03*
X50394Y-36614D03*
X45512Y-28150D03*
X54724Y-29527D03*
X49212Y-30315D03*
X32756Y-32657D03*
X66063Y-20236D03*
X36220Y-32362D03*
X47283Y-41968D03*
X52087Y-20236D03*
X40669Y-45197D03*
X64055Y-25197D03*
X60669Y-30590D03*
X37500Y-36732D03*
X51968Y-36614D03*
X50394Y-31890D03*
X58937Y-30630D03*
X48819Y-36614D03*
X53543Y-34252D03*
X50000Y-30315D03*
X50787Y-31102D03*
X38110Y-33307D03*
X46063Y-36614D03*
X58937Y-30905D03*
X55827Y-20236D03*
X43622Y-20984D03*
X52756Y-34646D03*
X48819Y-32677D03*
X50118Y-43307D03*
G54D35*
X40748Y-22992D03*
G54D28*
X63819Y-30039D03*
X37008Y-35276D03*
X67008Y-27835D03*
X50394Y-32677D03*
X38543Y-35276D03*
X51968Y-26378D03*
X55827Y-20709D03*
X55118Y-26378D03*
X53543Y-26378D03*
X68976Y-24882D03*
X45590Y-20709D03*
X37480Y-33307D03*
X53543Y-36614D03*
X41378Y-41968D03*
X36378Y-29764D03*
X48464Y-43307D03*
X58189Y-20709D03*
X45866Y-41968D03*
X45590Y-36024D03*
G54D35*
X37874Y-26496D03*
G54D28*
X57008Y-20709D03*
X49606Y-29134D03*
X47047Y-41968D03*
X52362Y-33465D03*
X50787Y-33071D03*
X39961Y-45197D03*
X35275Y-28937D03*
X47638Y-33465D03*
X51575Y-29527D03*
X38110Y-32362D03*
X49134Y-20236D03*
X59527Y-31929D03*
X50945Y-20709D03*
X51968Y-33071D03*
X53189Y-45197D03*
X53543Y-27953D03*
X62874Y-45197D03*
X42087Y-41968D03*
X65827Y-23110D03*
X46457Y-31890D03*
G54D35*
X41181Y-27087D03*
G54D28*
X50000Y-33858D03*
X50787Y-32283D03*
X48819Y-30709D03*
X50000Y-26378D03*
G54D35*
X69961Y-47520D03*
X33110Y-34488D03*
G54D28*
X37165Y-30787D03*
X60512Y-45197D03*
X67401Y-24980D03*
X49212Y-33071D03*
X45394Y-45197D03*
X51968Y-30315D03*
X54724Y-34252D03*
X50394Y-33465D03*
X54252Y-18465D03*
X54724Y-33071D03*
X58819Y-20984D03*
X50945Y-20984D03*
X65669Y-29134D03*
X63701Y-20709D03*
X49212Y-29134D03*
X42559Y-41968D03*
X58819Y-20709D03*
X49212Y-32283D03*
X54646Y-20236D03*
X46063Y-29134D03*
X52087Y-20984D03*
X51968Y-27953D03*
X59764Y-18465D03*
X44212Y-20236D03*
X50394Y-27953D03*
X65669Y-30984D03*
X56024Y-45197D03*
X40157Y-20315D03*
X64882Y-20236D03*
X54724Y-30709D03*
X52008Y-43307D03*
X42559Y-45197D03*
X69567Y-31850D03*
X50787Y-30315D03*
X64646Y-30039D03*
X46063Y-26378D03*
G54D35*
X41181Y-22992D03*
G54D28*
X50000Y-32283D03*
G54D35*
X68622Y-50039D03*
G54D28*
X51575Y-31890D03*
X46063Y-30709D03*
X63701Y-20236D03*
X68307Y-39960D03*
X66102Y-40354D03*
X47992Y-41968D03*
X63583Y-45197D03*
X55315Y-41968D03*
G54D35*
X68464Y-39331D03*
G54D28*
X54724Y-27953D03*
G54D35*
X37874Y-26063D03*
G54D28*
X57008Y-20984D03*
X53543Y-32677D03*
X35905Y-31102D03*
X53898Y-45197D03*
X70315Y-33938D03*
X38740Y-31732D03*
X54724Y-34646D03*
X54331Y-34252D03*
X52362Y-34252D03*
X52362Y-34646D03*
X48031Y-35039D03*
X37520Y-37598D03*
X53150Y-27559D03*
X53150Y-28346D03*
X69567Y-31378D03*
X69567Y-28346D03*
X36850Y-30787D03*
X37126Y-30472D03*
X40039Y-33386D03*
X38425Y-34567D03*
X36220Y-31732D03*
X36220Y-33622D03*
X39685Y-32047D03*
X39055Y-34252D03*
X37008Y-34961D03*
G54D35*
X41929Y-27087D03*
G54D28*
X38740Y-30787D03*
X36850Y-34252D03*
G54D35*
X42362Y-27087D03*
G54D28*
X38819Y-30394D03*
G54D35*
X42795Y-27087D03*
G54D28*
X36102Y-29921D03*
X35827Y-29921D03*
X40079Y-31614D03*
X39685Y-33307D03*
X39803Y-25433D03*
X38543Y-34961D03*
X49212Y-32677D03*
X50000Y-30709D03*
X50787Y-32677D03*
X48819Y-29527D03*
X50000Y-33465D03*
X52756Y-31890D03*
X49606Y-33071D03*
X50787Y-33465D03*
X53150Y-31102D03*
X50394Y-31102D03*
X49606Y-32283D03*
X50394Y-33071D03*
X52756Y-29921D03*
X50394Y-32283D03*
X51575Y-30315D03*
X51575Y-31102D03*
X53150Y-32283D03*
X51968Y-31890D03*
X52756Y-33465D03*
X40157Y-23898D03*
X49212Y-29921D03*
G54D35*
X42362Y-22992D03*
G54D28*
X49606Y-29527D03*
X49212Y-31890D03*
X53150Y-29527D03*
X50394Y-30315D03*
X49212Y-30709D03*
X53543Y-30709D03*
X52756Y-30709D03*
X52362Y-32283D03*
X51968Y-32677D03*
X50000Y-29921D03*
X51968Y-30709D03*
X53543Y-31890D03*
X52756Y-32677D03*
X51575Y-32283D03*
G54D35*
X41929Y-22992D03*
G54D28*
X50787Y-30709D03*
X51575Y-33071D03*
X49606Y-30315D03*
X50787Y-29921D03*
X52362Y-31102D03*
X53543Y-31496D03*
X49606Y-31102D03*
X50000Y-31890D03*
X52362Y-29527D03*
G54D35*
X42795Y-22992D03*
G54D28*
X53150Y-33071D03*
X50787Y-31890D03*
X50000Y-32677D03*
X51968Y-29921D03*
X48819Y-31102D03*
X52362Y-30315D03*
X52362Y-33071D03*
X53150Y-30315D03*
G54D35*
X54016Y-43110D03*
G54D28*
X38740Y-33307D03*
X50118Y-46260D03*
X48819Y-35433D03*
X45669Y-28740D03*
X49212Y-34646D03*
X39055Y-31732D03*
G54D35*
X62638Y-43110D03*
G54D28*
X53543Y-35433D03*
X51575Y-33858D03*
X48464Y-46260D03*
G54D35*
X69961Y-44173D03*
G54D28*
X69409Y-45709D03*
X56299Y-37008D03*
X51968Y-35433D03*
X47244Y-29527D03*
X53543Y-37008D03*
X49606Y-34252D03*
G54D35*
X70433Y-44173D03*
X69961Y-44646D03*
X56614Y-43110D03*
X44685Y-43110D03*
X49646Y-43110D03*
X55433Y-43110D03*
X51653Y-46417D03*
X47047Y-46417D03*
G54D28*
X45669Y-26378D03*
G54D35*
X45748Y-46417D03*
X42913Y-46417D03*
X69961Y-43701D03*
G54D28*
X56693Y-34252D03*
X46063Y-37008D03*
X47244Y-37008D03*
G54D35*
X41338Y-43110D03*
X44331Y-46417D03*
G54D28*
X49173Y-46260D03*
X49606Y-34646D03*
X69291Y-48504D03*
X55118Y-33465D03*
G54D35*
X49527Y-46417D03*
G54D28*
X48819Y-37008D03*
X61259Y-33268D03*
X47244Y-32283D03*
G54D35*
X50590Y-46417D03*
G54D28*
X51968Y-33858D03*
X50394Y-37008D03*
X48425Y-29527D03*
X52716Y-42992D03*
G54D35*
X43268Y-43110D03*
G54D28*
X54331Y-34646D03*
G54D35*
X47165Y-43110D03*
G54D28*
X47244Y-33465D03*
X50118Y-42992D03*
X38740Y-32677D03*
G54D35*
X45866Y-43110D03*
G54D28*
X51063Y-46260D03*
X37480Y-33622D03*
G54D35*
X70433Y-43228D03*
G54D28*
X38740Y-33937D03*
X38740Y-32362D03*
X56693Y-36614D03*
X54724Y-35433D03*
X53937Y-32677D03*
G54D35*
X61929Y-43110D03*
X70433Y-43701D03*
X40551Y-46417D03*
G54D28*
X39370Y-31102D03*
X51968Y-37008D03*
X47638Y-35433D03*
G54D35*
X60512Y-43110D03*
G54D28*
X38740Y-33622D03*
G54D35*
X59842Y-43110D03*
X59803Y-46417D03*
X69961Y-43228D03*
G54D28*
X52756Y-34252D03*
G54D35*
X60748Y-46417D03*
X63583Y-46417D03*
G54D28*
X38110Y-33622D03*
X38110Y-31732D03*
G54D35*
X62638Y-46417D03*
G54D28*
X37146Y-36732D03*
G54D35*
X61693Y-46417D03*
X58307Y-46417D03*
X41732Y-46417D03*
G54D28*
X39685Y-34567D03*
X56693Y-32283D03*
G54D35*
X54488Y-46417D03*
G54D28*
X49173Y-42992D03*
X52008Y-42992D03*
G54D35*
X56732Y-46417D03*
X55669Y-46417D03*
X53543Y-46417D03*
G54D28*
X45590Y-32087D03*
X37165Y-33622D03*
G54D35*
X47874Y-46417D03*
G54D28*
X52716Y-46260D03*
X37480Y-31732D03*
X45669Y-34252D03*
X53937Y-32283D03*
X50394Y-35433D03*
X37146Y-37205D03*
X45590Y-36457D03*
X37146Y-36968D03*
X48464Y-42992D03*
X55118Y-33071D03*
X64055Y-25512D03*
X38425Y-31417D03*
X52008Y-46260D03*
X48031Y-33465D03*
X51968Y-34252D03*
X45669Y-30709D03*
X55118Y-32283D03*
X39370Y-34252D03*
G54D35*
X70433Y-44646D03*
G54D28*
X51063Y-42992D03*
X47244Y-30709D03*
X37165Y-31732D03*
X55118Y-37008D03*
X57953Y-31142D03*
X53937Y-33858D03*
X48425Y-33858D03*
X48425Y-29134D03*
X53937Y-29134D03*
X57953Y-31890D03*
X57953Y-31457D03*
X58425Y-30630D03*
X69567Y-23071D03*
X67598Y-25354D03*
X67401Y-24626D03*
X68898Y-22716D03*
X68898Y-22441D03*
X68464Y-25354D03*
X66457Y-22835D03*
X65827Y-23465D03*
X67008Y-29646D03*
X62205Y-18779D03*
X63425Y-32441D03*
X38779Y-41968D03*
X66496Y-38386D03*
X65157Y-31811D03*
G54D35*
X65354Y-27402D03*
G54D28*
X64094Y-31575D03*
X67716Y-35984D03*
X64173Y-35216D03*
X68583Y-29213D03*
X68583Y-28346D03*
X65472Y-21260D03*
X67835Y-27598D03*
X65669Y-30512D03*
X68583Y-31378D03*
X64094Y-30709D03*
X61810Y-33268D03*
X48740Y-18740D03*
X63386Y-31181D03*
X64764Y-30512D03*
X64094Y-30433D03*
G54D35*
X65354Y-27835D03*
X65354Y-26968D03*
G54D28*
X34449Y-28622D03*
X68740Y-27598D03*
X56693Y-18740D03*
X69724Y-38071D03*
X63386Y-31575D03*
X65669Y-30276D03*
X69055Y-33976D03*
X58346Y-18976D03*
X68583Y-28779D03*
X65059Y-33740D03*
X68583Y-30945D03*
X69567Y-29646D03*
X34370Y-18425D03*
X35866Y-18425D03*
G54D35*
X32480Y-53543D03*
X33661Y-48425D03*
X32480Y-48819D03*
X33268Y-48819D03*
X33661Y-53150D03*
X32087Y-48425D03*
X32874Y-48425D03*
X66417Y-50039D03*
X66220Y-18661D03*
G54D28*
X64764Y-29606D03*
G54D35*
X32480Y-52756D03*
X33268Y-52756D03*
X32874Y-53150D03*
X32087Y-53150D03*
X33268Y-53543D03*
X32480Y-51968D03*
X33268Y-51968D03*
X33661Y-50000D03*
X33661Y-51575D03*
X32480Y-51181D03*
X33268Y-51181D03*
X32874Y-51575D03*
X32087Y-51575D03*
X32480Y-50394D03*
X33268Y-50394D03*
X38307Y-25157D03*
X32874Y-50000D03*
X32087Y-50000D03*
X32480Y-49606D03*
X33268Y-49606D03*
X33661Y-49213D03*
X32874Y-49213D03*
X32087Y-49213D03*
X66417Y-49370D03*
X66417Y-48701D03*
X33661Y-50787D03*
X32874Y-50787D03*
X32087Y-50787D03*
X65748Y-50039D03*
G54D28*
X69272Y-21102D03*
G54D35*
X67756Y-18661D03*
X37874Y-25157D03*
G54D28*
X60669Y-31063D03*
G54D35*
X66732Y-18661D03*
X40079Y-19646D03*
X33661Y-52362D03*
X32874Y-52362D03*
X32087Y-52362D03*
X67244Y-18661D03*
X65748Y-50709D03*
G54D28*
X65669Y-29606D03*
G54D35*
X37874Y-25590D03*
X66417Y-50709D03*
G54D28*
X69567Y-21535D03*
G54D35*
X65748Y-49370D03*
X38307Y-25590D03*
G54D28*
X65669Y-29842D03*
X60669Y-31299D03*
X39764Y-19646D03*
G54D35*
X33071Y-25945D03*
X33071Y-26732D03*
G54D28*
X33071Y-29803D03*
G54D35*
X32913Y-26339D03*
X40512Y-20000D03*
X40157Y-20000D03*
X34409Y-37874D03*
X33898Y-38386D03*
X33898Y-37874D03*
X34409Y-38386D03*
G54D36*
X68464Y-26016D02*
X68464Y-26417D01*
X68031Y-32599D02*
X67008Y-33622D01*
X68031Y-28150D02*
X68031Y-32599D01*
X68268Y-27913D02*
X68031Y-28150D01*
X67913Y-23858D02*
X68189Y-24134D01*
X68189Y-24134D02*
X68189Y-25787D01*
X68464Y-26016D02*
X68418Y-26016D01*
X68268Y-26613D02*
X68464Y-26417D01*
X68268Y-26613D02*
X68268Y-27913D01*
X68418Y-26016D02*
X68189Y-25787D01*
X67874Y-24410D02*
X67874Y-25787D01*
X67874Y-25787D02*
X67645Y-26016D01*
X67559Y-24095D02*
X67874Y-24410D01*
X67598Y-28111D02*
X67362Y-28347D01*
X67047Y-22795D02*
X67244Y-22795D01*
X67559Y-23110D02*
X67559Y-24095D01*
X67362Y-31968D02*
X67362Y-28347D01*
X67598Y-26016D02*
X67598Y-28111D01*
X67645Y-26016D02*
X67598Y-26016D01*
X67244Y-22795D02*
X67559Y-23110D01*
X66614Y-32716D02*
X67362Y-31968D01*
X65630Y-19803D02*
X66220Y-19803D01*
X65473Y-19255D02*
X65473Y-19646D01*
X65473Y-19646D02*
X65630Y-19803D01*
X65079Y-21689D02*
X65079Y-22283D01*
X65079Y-22283D02*
X65000Y-22362D01*
X65079Y-19882D02*
X65000Y-19961D01*
X65079Y-19882D02*
X65079Y-19255D01*
X65276Y-22284D02*
X65354Y-22362D01*
X65276Y-22284D02*
X65276Y-21689D01*
X65276Y-19255D02*
X65276Y-19883D01*
X65276Y-19883D02*
X65354Y-19961D01*
G54D37*
X66024Y-24036D02*
X66005Y-24055D01*
G54D38*
X66850Y-24882D02*
X67027Y-24882D01*
X66005Y-24055D02*
X65827Y-24055D01*
G54D37*
X67027Y-24882D02*
X67047Y-24862D01*
G54D36*
X51142Y-38031D02*
X50945Y-38031D01*
X50905Y-38386D02*
X50905Y-38465D01*
X50905Y-39094D02*
X50945Y-39134D01*
X50905Y-38465D02*
X50944Y-38504D01*
X51181Y-38858D02*
X51181Y-38937D01*
X51142Y-39134D02*
X51181Y-39173D01*
X51181Y-39252D02*
X51142Y-39291D01*
X51181Y-34724D02*
X51181Y-37677D01*
X50905Y-39016D02*
X50905Y-39094D01*
X51142Y-37874D02*
X51181Y-37913D01*
X51181Y-39882D02*
X51142Y-39921D01*
X50945Y-38976D02*
X50905Y-39016D01*
X51142Y-38661D02*
X50945Y-38661D01*
X51142Y-39291D02*
X50945Y-39291D01*
X51181Y-39173D02*
X51181Y-39252D01*
X50905Y-38071D02*
X50905Y-38150D01*
X51142Y-39449D02*
X51181Y-39488D01*
X50944Y-38189D02*
X51142Y-38189D01*
X50905Y-38701D02*
X50905Y-38779D01*
X51142Y-38189D02*
X51181Y-38228D01*
X50905Y-39409D02*
X50945Y-39449D01*
X50945Y-39449D02*
X51142Y-39449D01*
X50945Y-39764D02*
X51142Y-39764D01*
X50945Y-38346D02*
X50905Y-38386D01*
X51181Y-38307D02*
X51142Y-38346D01*
X51181Y-39803D02*
X51181Y-39882D01*
X50945Y-38031D02*
X50905Y-38071D01*
X50945Y-39134D02*
X51142Y-39134D01*
X50945Y-38661D02*
X50905Y-38701D01*
X51142Y-38504D02*
X51181Y-38543D01*
X51181Y-39488D02*
X51181Y-39567D01*
X51181Y-38622D02*
X51142Y-38661D01*
X51181Y-38543D02*
X51181Y-38622D01*
X51142Y-37716D02*
X50945Y-37716D01*
X51575Y-34646D02*
X51259Y-34646D01*
X51142Y-39921D02*
X50945Y-39921D01*
X51142Y-39764D02*
X51181Y-39803D01*
X50944Y-38504D02*
X51142Y-38504D01*
X50905Y-37756D02*
X50905Y-37834D01*
X50905Y-38779D02*
X50945Y-38819D01*
X51259Y-34646D02*
X51181Y-34724D01*
X51181Y-37992D02*
X51142Y-38031D01*
X50905Y-37834D02*
X50945Y-37874D01*
X50945Y-39606D02*
X50905Y-39646D01*
X50945Y-39921D02*
X50905Y-39961D01*
X50354Y-40984D02*
X50905Y-40433D01*
X50905Y-39724D02*
X50945Y-39764D01*
X50905Y-39331D02*
X50905Y-39409D01*
X51181Y-39567D02*
X51142Y-39606D01*
X51181Y-38937D02*
X51142Y-38976D01*
X50905Y-38150D02*
X50944Y-38189D01*
X50945Y-38819D02*
X51142Y-38819D01*
X50905Y-39961D02*
X50905Y-40433D01*
X50905Y-39646D02*
X50905Y-39724D01*
X50945Y-37716D02*
X50905Y-37756D01*
X51142Y-38819D02*
X51181Y-38858D01*
X51181Y-38228D02*
X51181Y-38307D01*
X51181Y-37913D02*
X51181Y-37992D01*
X50945Y-37874D02*
X51142Y-37874D01*
X51142Y-39606D02*
X50945Y-39606D01*
X51142Y-38976D02*
X50945Y-38976D01*
X51181Y-37677D02*
X51142Y-37716D01*
X50354Y-41614D02*
X50354Y-40984D01*
X50945Y-39291D02*
X50905Y-39331D01*
X51142Y-38346D02*
X50945Y-38346D01*
X50473Y-39882D02*
X50512Y-39921D01*
X50590Y-34842D02*
X50590Y-37402D01*
X50276Y-39094D02*
X50236Y-39134D01*
X50236Y-37953D02*
X50275Y-37992D01*
X50236Y-38189D02*
X50236Y-38268D01*
X50276Y-38779D02*
X50236Y-38819D01*
X49882Y-40826D02*
X49882Y-41614D01*
X50275Y-38937D02*
X50473Y-38937D01*
X50236Y-39764D02*
X50236Y-39843D01*
X50236Y-38504D02*
X50236Y-38583D01*
X50473Y-37992D02*
X50512Y-38031D01*
X50512Y-38110D02*
X50472Y-38150D01*
X50512Y-40196D02*
X49882Y-40826D01*
X50512Y-38346D02*
X50512Y-38425D01*
X50512Y-37795D02*
X50472Y-37835D01*
X50236Y-38583D02*
X50275Y-38622D01*
X50276Y-39724D02*
X50236Y-39764D01*
X50275Y-37520D02*
X50236Y-37559D01*
X50275Y-37835D02*
X50236Y-37874D01*
X50512Y-38976D02*
X50512Y-39054D01*
X50590Y-37402D02*
X50472Y-37520D01*
X50472Y-39409D02*
X50276Y-39409D01*
X50512Y-38031D02*
X50512Y-38110D01*
X50473Y-39567D02*
X50512Y-39606D01*
X50512Y-39684D02*
X50472Y-39724D01*
X50236Y-38268D02*
X50275Y-38307D01*
X50275Y-38150D02*
X50236Y-38189D01*
X50472Y-37520D02*
X50275Y-37520D01*
X50512Y-38739D02*
X50472Y-38779D01*
X50275Y-37677D02*
X50473Y-37677D01*
X50275Y-39882D02*
X50473Y-39882D01*
X50472Y-39094D02*
X50276Y-39094D01*
X50512Y-39921D02*
X50512Y-40196D01*
X50512Y-37716D02*
X50512Y-37795D01*
X50275Y-39252D02*
X50473Y-39252D01*
X50275Y-38465D02*
X50236Y-38504D01*
X50472Y-38150D02*
X50275Y-38150D01*
X50236Y-39213D02*
X50275Y-39252D01*
X50275Y-38307D02*
X50473Y-38307D01*
X50472Y-38779D02*
X50276Y-38779D01*
X50473Y-38622D02*
X50512Y-38661D01*
X50472Y-39724D02*
X50276Y-39724D01*
X50276Y-39409D02*
X50236Y-39449D01*
X50473Y-37677D02*
X50512Y-37716D01*
X50236Y-39134D02*
X50236Y-39213D01*
X50236Y-37638D02*
X50275Y-37677D01*
X50473Y-39252D02*
X50512Y-39291D01*
X50473Y-38307D02*
X50512Y-38346D01*
X50472Y-37835D02*
X50275Y-37835D01*
X50275Y-37992D02*
X50473Y-37992D01*
X50512Y-39369D02*
X50472Y-39409D01*
X50512Y-39291D02*
X50512Y-39369D01*
X50512Y-39054D02*
X50472Y-39094D01*
X50275Y-39567D02*
X50473Y-39567D01*
X50473Y-38937D02*
X50512Y-38976D01*
X50472Y-38465D02*
X50275Y-38465D01*
X50512Y-39606D02*
X50512Y-39684D01*
X50236Y-37559D02*
X50236Y-37638D01*
X50394Y-34646D02*
X50590Y-34842D01*
X50512Y-38425D02*
X50472Y-38465D01*
X50275Y-38622D02*
X50473Y-38622D01*
X50512Y-38661D02*
X50512Y-38739D01*
X50236Y-39449D02*
X50236Y-39528D01*
X50236Y-38819D02*
X50236Y-38898D01*
X50236Y-39843D02*
X50275Y-39882D01*
X50236Y-39528D02*
X50275Y-39567D01*
X50236Y-37874D02*
X50236Y-37953D01*
X50236Y-38898D02*
X50275Y-38937D01*
X53465Y-38465D02*
X53504Y-38504D01*
X53740Y-37992D02*
X53701Y-38031D01*
X53504Y-39449D02*
X53701Y-39449D01*
X53740Y-39567D02*
X53701Y-39606D01*
X53386Y-37244D02*
X53701Y-37244D01*
X53740Y-38228D02*
X53740Y-38307D01*
X53740Y-37677D02*
X53701Y-37716D01*
X53701Y-38661D02*
X53504Y-38661D01*
X53504Y-39291D02*
X53464Y-39331D01*
X53740Y-37913D02*
X53740Y-37992D01*
X53464Y-38465D02*
X53464Y-38386D01*
X53464Y-39094D02*
X53464Y-39016D01*
X53504Y-39606D02*
X53464Y-39646D01*
X53701Y-37559D02*
X53740Y-37598D01*
X53150Y-35434D02*
X53346Y-35630D01*
X53464Y-38779D02*
X53504Y-38819D01*
X53464Y-37835D02*
X53465Y-37835D01*
X53504Y-38031D02*
X53464Y-38071D01*
X53701Y-38031D02*
X53504Y-38031D01*
X53740Y-39252D02*
X53701Y-39291D01*
X53464Y-37835D02*
X53464Y-37756D01*
X53701Y-38819D02*
X53740Y-38858D01*
X53701Y-39449D02*
X53740Y-39488D01*
X51772Y-41416D02*
X52361Y-40827D01*
X53465Y-37520D02*
X53504Y-37559D01*
X53701Y-39606D02*
X53504Y-39606D01*
X53701Y-38189D02*
X53740Y-38228D01*
X53465Y-37835D02*
X53504Y-37874D01*
X53464Y-38150D02*
X53465Y-38150D01*
X53504Y-38661D02*
X53464Y-38701D01*
X53464Y-37441D02*
X53464Y-37520D01*
X53464Y-38465D02*
X53465Y-38465D01*
X53740Y-39173D02*
X53740Y-39252D01*
X53701Y-37874D02*
X53740Y-37913D01*
X53504Y-37716D02*
X53464Y-37756D01*
X53740Y-37598D02*
X53740Y-37677D01*
X53503Y-37402D02*
X53464Y-37441D01*
X53504Y-37559D02*
X53701Y-37559D01*
X53268Y-40827D02*
X53464Y-40631D01*
X53701Y-37402D02*
X53503Y-37402D01*
X53701Y-38976D02*
X53504Y-38976D01*
X53701Y-39134D02*
X53740Y-39173D01*
X53150Y-35433D02*
X53150Y-35434D01*
X53465Y-38150D02*
X53504Y-38189D01*
X53701Y-37244D02*
X53740Y-37283D01*
X53464Y-40631D02*
X53464Y-39646D01*
X53740Y-38307D02*
X53701Y-38346D01*
X53504Y-38819D02*
X53701Y-38819D01*
X53504Y-38189D02*
X53701Y-38189D01*
X53740Y-38937D02*
X53701Y-38976D01*
X53464Y-38150D02*
X53464Y-38071D01*
X53740Y-37283D02*
X53740Y-37363D01*
X53346Y-35630D02*
X53346Y-37205D01*
X53740Y-38858D02*
X53740Y-38937D01*
X53701Y-38504D02*
X53740Y-38543D01*
X53740Y-39488D02*
X53740Y-39567D01*
X53701Y-38346D02*
X53504Y-38346D01*
X53740Y-38543D02*
X53740Y-38622D01*
X53701Y-39291D02*
X53504Y-39291D01*
X53347Y-37205D02*
X53386Y-37244D01*
X53464Y-37520D02*
X53465Y-37520D01*
X53504Y-38976D02*
X53464Y-39016D01*
X53504Y-37874D02*
X53701Y-37874D01*
X53464Y-39094D02*
X53504Y-39134D01*
X52361Y-40827D02*
X53268Y-40827D01*
X53464Y-39409D02*
X53464Y-39331D01*
X53504Y-38346D02*
X53464Y-38386D01*
X53701Y-37716D02*
X53504Y-37716D01*
X53504Y-39134D02*
X53701Y-39134D01*
X53504Y-38504D02*
X53701Y-38504D01*
X53740Y-38622D02*
X53701Y-38661D01*
X53346Y-37205D02*
X53347Y-37205D01*
X53740Y-37363D02*
X53701Y-37402D01*
X51772Y-41614D02*
X51772Y-41416D01*
X53464Y-39409D02*
X53504Y-39449D01*
X53464Y-38779D02*
X53464Y-38701D01*
X52323Y-39331D02*
X52362Y-39370D01*
X52559Y-38543D02*
X52520Y-38504D01*
X52362Y-39527D02*
X52323Y-39566D01*
X52362Y-39213D02*
X52480Y-39213D01*
X52323Y-37402D02*
X52323Y-38465D01*
X52323Y-38779D02*
X52362Y-38818D01*
X52362Y-38504D02*
X52323Y-38465D01*
X52520Y-39527D02*
X52362Y-39527D01*
X52559Y-39409D02*
X52559Y-39488D01*
X52362Y-38818D02*
X52479Y-38818D01*
X52323Y-38701D02*
X52363Y-38661D01*
X50590Y-45197D02*
X50590Y-44804D01*
X52323Y-39252D02*
X52362Y-39213D01*
X50590Y-44804D02*
X50827Y-44567D01*
X52559Y-38622D02*
X52559Y-38543D01*
X52559Y-39134D02*
X52480Y-39213D01*
X52323Y-39960D02*
X51063Y-41220D01*
X52559Y-39488D02*
X52520Y-39527D01*
X52520Y-38661D02*
X52559Y-38622D01*
X52520Y-39370D02*
X52559Y-39409D01*
X52520Y-38504D02*
X52362Y-38504D01*
X50827Y-41890D02*
X51063Y-41654D01*
X52401Y-36575D02*
X52401Y-37324D01*
X52323Y-38701D02*
X52323Y-38779D01*
X52362Y-39370D02*
X52520Y-39370D01*
X52479Y-38818D02*
X52559Y-38898D01*
X50827Y-44567D02*
X50827Y-41890D01*
X51063Y-41654D02*
X51063Y-41220D01*
X52323Y-39331D02*
X52323Y-39252D01*
X52756Y-36220D02*
X52401Y-36575D01*
X52401Y-37324D02*
X52323Y-37402D01*
X52323Y-39566D02*
X52323Y-39960D01*
X52363Y-38661D02*
X52520Y-38661D01*
X52559Y-38898D02*
X52559Y-39134D01*
X51614Y-37047D02*
X51653Y-37086D01*
X51653Y-37401D02*
X51653Y-37480D01*
X51653Y-36456D02*
X51653Y-36535D01*
X51417Y-37992D02*
X51614Y-37992D01*
X51614Y-38307D02*
X51653Y-38346D01*
X51653Y-36850D02*
X51614Y-36889D01*
X51653Y-38976D02*
X51653Y-39055D01*
X51575Y-35433D02*
X51378Y-35630D01*
X51378Y-37953D02*
X51417Y-37992D01*
X51417Y-37047D02*
X51614Y-37047D01*
X51614Y-37992D02*
X51653Y-38031D01*
X51653Y-38031D02*
X51653Y-38110D01*
X51417Y-36732D02*
X51614Y-36732D01*
X51417Y-38307D02*
X51614Y-38307D01*
X51378Y-37874D02*
X51378Y-37953D01*
X51653Y-38346D02*
X51653Y-38425D01*
X51378Y-38268D02*
X51417Y-38307D01*
X51418Y-36889D02*
X51378Y-36929D01*
X51614Y-36889D02*
X51418Y-36889D01*
X51378Y-36929D02*
X51378Y-37008D01*
X51614Y-38937D02*
X51653Y-38976D01*
X51653Y-37480D02*
X51614Y-37519D01*
X51378Y-38504D02*
X51378Y-38583D01*
X51378Y-37323D02*
X51417Y-37362D01*
X51614Y-38622D02*
X51653Y-38661D01*
X51378Y-40275D02*
X50590Y-41063D01*
X51614Y-37834D02*
X51418Y-37834D01*
X51378Y-37008D02*
X51417Y-37047D01*
X51614Y-38464D02*
X51418Y-38464D01*
X51417Y-38622D02*
X51614Y-38622D01*
X51378Y-39448D02*
X51378Y-40275D01*
X51378Y-37559D02*
X51378Y-37638D01*
X51653Y-37716D02*
X51653Y-37795D01*
X51417Y-37362D02*
X51614Y-37362D01*
X51418Y-38149D02*
X51378Y-38189D01*
X51653Y-39291D02*
X51653Y-39370D01*
X51378Y-36378D02*
X51417Y-36417D01*
X51653Y-39055D02*
X51614Y-39094D01*
X51378Y-35630D02*
X51378Y-36378D01*
X51378Y-38583D02*
X51417Y-38622D01*
X51378Y-38189D02*
X51378Y-38268D01*
X51653Y-38661D02*
X51653Y-38740D01*
X51653Y-37086D02*
X51653Y-37165D01*
X51614Y-39409D02*
X51417Y-39409D01*
X51614Y-39252D02*
X51653Y-39291D01*
X51417Y-36417D02*
X51614Y-36417D01*
X51614Y-38149D02*
X51418Y-38149D01*
X51417Y-39252D02*
X51614Y-39252D01*
X51417Y-38937D02*
X51614Y-38937D01*
X51614Y-36417D02*
X51653Y-36456D01*
X51614Y-36732D02*
X51653Y-36771D01*
X51653Y-39370D02*
X51614Y-39409D01*
X51418Y-37519D02*
X51378Y-37559D01*
X51418Y-37834D02*
X51378Y-37874D01*
X51378Y-36614D02*
X51378Y-36693D01*
X51653Y-38425D02*
X51614Y-38464D01*
X51417Y-39409D02*
X51378Y-39448D01*
X51653Y-36535D02*
X51614Y-36574D01*
X51653Y-37165D02*
X51613Y-37205D01*
X51378Y-39213D02*
X51417Y-39252D01*
X51417Y-37205D02*
X51378Y-37244D01*
X51653Y-38110D02*
X51614Y-38149D01*
X50590Y-41968D02*
X50590Y-41063D01*
X51378Y-37244D02*
X51378Y-37323D01*
X51653Y-38740D02*
X51614Y-38779D01*
X51378Y-38818D02*
X51378Y-38898D01*
X51378Y-36693D02*
X51417Y-36732D01*
X51417Y-39094D02*
X51378Y-39133D01*
X51417Y-38779D02*
X51378Y-38818D01*
X51378Y-39133D02*
X51378Y-39213D01*
X51613Y-37205D02*
X51417Y-37205D01*
X51418Y-36574D02*
X51378Y-36614D01*
X51614Y-37677D02*
X51653Y-37716D01*
X51614Y-36574D02*
X51418Y-36574D01*
X51378Y-38898D02*
X51417Y-38937D01*
X51653Y-37795D02*
X51614Y-37834D01*
X51418Y-38464D02*
X51378Y-38504D01*
X51614Y-37362D02*
X51653Y-37401D01*
X51614Y-39094D02*
X51417Y-39094D01*
X51614Y-37519D02*
X51418Y-37519D01*
X51417Y-37677D02*
X51614Y-37677D01*
X51653Y-36771D02*
X51653Y-36850D01*
X51614Y-38779D02*
X51417Y-38779D01*
X51378Y-37638D02*
X51417Y-37677D01*
X51850Y-37598D02*
X51850Y-37677D01*
X52087Y-38189D02*
X51889Y-38189D01*
X51850Y-38543D02*
X51850Y-38621D01*
X51890Y-38030D02*
X52085Y-38030D01*
X51851Y-37913D02*
X51851Y-37991D01*
X51890Y-39449D02*
X51851Y-39488D01*
X52126Y-37520D02*
X52087Y-37559D01*
X52087Y-38504D02*
X51889Y-38504D01*
X52126Y-39646D02*
X52126Y-39724D01*
X52085Y-39605D02*
X52126Y-39646D01*
X52086Y-38976D02*
X52126Y-39016D01*
X51889Y-38189D02*
X51850Y-38228D01*
X51575Y-35827D02*
X51772Y-36024D01*
X52205Y-37204D02*
X52165Y-37244D01*
X51889Y-38504D02*
X51850Y-38543D01*
X52126Y-39410D02*
X52087Y-39449D01*
X51850Y-39251D02*
X51890Y-39291D01*
X51851Y-37991D02*
X51890Y-38030D01*
X52126Y-37835D02*
X52087Y-37874D01*
X52087Y-38819D02*
X51889Y-38819D01*
X51890Y-38976D02*
X52086Y-38976D01*
X51850Y-38306D02*
X51890Y-38346D01*
X52126Y-37755D02*
X52126Y-37835D01*
X51850Y-39173D02*
X51850Y-39251D01*
X51850Y-38858D02*
X51850Y-38936D01*
X51889Y-38819D02*
X51850Y-38858D01*
X51889Y-37559D02*
X51850Y-37598D01*
X52126Y-38150D02*
X52087Y-38189D01*
X51851Y-39566D02*
X51890Y-39605D01*
X50827Y-41142D02*
X50827Y-41141D01*
X52126Y-38465D02*
X52087Y-38504D01*
X52165Y-37244D02*
X51889Y-37244D01*
X52087Y-39134D02*
X51889Y-39134D01*
X52086Y-39291D02*
X52126Y-39331D01*
X52165Y-36102D02*
X52165Y-36338D01*
X51890Y-37402D02*
X52087Y-37402D01*
X52126Y-38071D02*
X52126Y-38150D01*
X51850Y-37283D02*
X51850Y-37362D01*
X51850Y-38228D02*
X51850Y-38306D01*
X52126Y-38386D02*
X52126Y-38465D01*
X51890Y-38661D02*
X52086Y-38661D01*
X52126Y-39016D02*
X52126Y-39095D01*
X51889Y-37716D02*
X52087Y-37716D01*
X51889Y-37244D02*
X51850Y-37283D01*
X51889Y-39134D02*
X51850Y-39173D01*
X52126Y-39724D02*
X52086Y-39764D01*
X51575Y-39882D02*
X51614Y-39921D01*
X52086Y-39764D02*
X51614Y-39764D01*
X52087Y-37716D02*
X52126Y-37755D01*
X51850Y-38621D02*
X51890Y-38661D01*
X52126Y-39095D02*
X52087Y-39134D01*
X51575Y-39803D02*
X51575Y-39882D01*
X52087Y-37559D02*
X51889Y-37559D01*
X52087Y-37402D02*
X52126Y-37441D01*
X51614Y-39921D02*
X51810Y-39921D01*
X51772Y-36024D02*
X52087Y-36024D01*
X52085Y-38030D02*
X52126Y-38071D01*
X52205Y-36378D02*
X52205Y-37204D01*
X51850Y-37677D02*
X51889Y-37716D01*
X50827Y-41614D02*
X50827Y-41142D01*
X51850Y-38936D02*
X51890Y-38976D01*
X51890Y-37874D02*
X51851Y-37913D01*
X51851Y-39488D02*
X51851Y-39566D01*
X52087Y-37874D02*
X51890Y-37874D01*
X52087Y-36024D02*
X52165Y-36102D01*
X52086Y-38661D02*
X52126Y-38701D01*
X51614Y-39764D02*
X51575Y-39803D01*
X52086Y-38346D02*
X52126Y-38386D01*
X51890Y-39605D02*
X52085Y-39605D01*
X51850Y-39961D02*
X51850Y-40119D01*
X52087Y-39449D02*
X51890Y-39449D01*
X52126Y-39331D02*
X52126Y-39410D01*
X51890Y-39291D02*
X52086Y-39291D01*
X52165Y-36338D02*
X52205Y-36378D01*
X51890Y-38346D02*
X52086Y-38346D01*
X51850Y-40119D02*
X50827Y-41142D01*
X52126Y-37441D02*
X52126Y-37520D01*
X51810Y-39921D02*
X51850Y-39961D01*
X52126Y-38780D02*
X52087Y-38819D01*
X51850Y-37362D02*
X51890Y-37402D01*
X52126Y-38701D02*
X52126Y-38780D01*
X53268Y-37638D02*
X53268Y-37560D01*
X51535Y-42323D02*
X51299Y-42087D01*
X53032Y-38150D02*
X52992Y-38110D01*
X52992Y-37795D02*
X52992Y-37716D01*
X52992Y-38031D02*
X53031Y-37992D01*
X52992Y-37480D02*
X52992Y-37401D01*
X51299Y-42087D02*
X51299Y-41890D01*
X51535Y-45197D02*
X51535Y-42323D01*
X53189Y-38150D02*
X53032Y-38150D01*
X53150Y-36614D02*
X52953Y-36811D01*
X53229Y-37677D02*
X53268Y-37638D01*
X53189Y-37323D02*
X53189Y-37244D01*
X53150Y-37205D02*
X53032Y-37205D01*
X53228Y-40158D02*
X53228Y-38189D01*
X53268Y-37953D02*
X53268Y-37875D01*
X53031Y-37677D02*
X53229Y-37677D01*
X53228Y-37835D02*
X53032Y-37835D01*
X52283Y-40630D02*
X51535Y-41378D01*
X52756Y-40630D02*
X52283Y-40630D01*
X53268Y-37560D02*
X53228Y-37520D01*
X52992Y-37401D02*
X53031Y-37362D01*
X52992Y-37716D02*
X53031Y-37677D01*
X53150Y-37362D02*
X53189Y-37323D01*
X52992Y-38110D02*
X52992Y-38031D01*
X53031Y-37362D02*
X53150Y-37362D01*
X53228Y-40158D02*
X52756Y-40630D01*
X53189Y-37244D02*
X53150Y-37205D01*
X51535Y-41378D02*
X51535Y-41654D01*
X53228Y-37520D02*
X53032Y-37520D01*
X52953Y-37126D02*
X52953Y-36811D01*
X53031Y-37992D02*
X53229Y-37992D01*
X53228Y-38189D02*
X53189Y-38150D01*
X53032Y-37520D02*
X52992Y-37480D01*
X53032Y-37205D02*
X52953Y-37126D01*
X53229Y-37992D02*
X53268Y-37953D01*
X53268Y-37875D02*
X53228Y-37835D01*
X51535Y-41654D02*
X51299Y-41890D01*
X53032Y-37835D02*
X52992Y-37795D01*
X52756Y-38937D02*
X52795Y-38976D01*
X52795Y-37441D02*
X52795Y-37520D01*
X53031Y-39410D02*
X52992Y-39449D01*
X52756Y-38622D02*
X52756Y-38543D01*
X52756Y-37874D02*
X52559Y-37874D01*
X52559Y-37874D02*
X52520Y-37913D01*
X52795Y-38504D02*
X52756Y-38543D01*
X52755Y-36811D02*
X52755Y-36889D01*
X52756Y-39488D02*
X52756Y-39567D01*
X53031Y-38700D02*
X53031Y-38779D01*
X52716Y-36928D02*
X52639Y-36928D01*
X52755Y-36889D02*
X52716Y-36928D01*
X53031Y-39015D02*
X53031Y-39094D01*
X52638Y-37087D02*
X52716Y-37087D01*
X52716Y-37244D02*
X52637Y-37244D01*
X52756Y-39567D02*
X52795Y-39606D01*
X52520Y-37677D02*
X52559Y-37716D01*
X52598Y-36653D02*
X52598Y-36732D01*
X52639Y-36928D02*
X52598Y-36969D01*
X52795Y-38661D02*
X52992Y-38661D01*
X52756Y-37402D02*
X52795Y-37441D01*
X52598Y-36969D02*
X52598Y-37047D01*
X53031Y-39094D02*
X52992Y-39133D01*
X52795Y-37835D02*
X52756Y-37874D01*
X52992Y-38976D02*
X53031Y-39015D01*
X52598Y-37283D02*
X52598Y-37362D01*
X53031Y-38385D02*
X52992Y-38346D01*
X53031Y-38779D02*
X52992Y-38818D01*
X52756Y-38858D02*
X52756Y-38937D01*
X52834Y-39764D02*
X52519Y-40079D01*
X52795Y-38504D02*
X52992Y-38504D01*
X52992Y-38661D02*
X53031Y-38700D01*
X52756Y-39173D02*
X52756Y-39252D01*
X52756Y-37716D02*
X52795Y-37755D01*
X52520Y-37992D02*
X52559Y-38031D01*
X51299Y-41299D02*
X52519Y-40079D01*
X53031Y-38465D02*
X53031Y-38385D01*
X52795Y-37755D02*
X52795Y-37835D01*
X51299Y-41299D02*
X51299Y-41614D01*
X52598Y-37047D02*
X52638Y-37087D01*
X52992Y-38818D02*
X52796Y-38818D01*
X52756Y-38031D02*
X52795Y-38070D01*
X52795Y-38070D02*
X52795Y-38150D01*
X52559Y-38031D02*
X52756Y-38031D01*
X52796Y-39133D02*
X52756Y-39173D01*
X52520Y-37913D02*
X52520Y-37992D01*
X52795Y-39449D02*
X52756Y-39488D01*
X52992Y-39133D02*
X52796Y-39133D01*
X52520Y-37598D02*
X52520Y-37677D01*
X52637Y-36614D02*
X52598Y-36653D01*
X52991Y-39606D02*
X53031Y-39646D01*
X52519Y-40079D02*
X52520Y-40079D01*
X52795Y-38976D02*
X52992Y-38976D01*
X52991Y-39291D02*
X53031Y-39331D01*
X52992Y-38504D02*
X53031Y-38465D01*
X53150Y-36220D02*
X52756Y-36614D01*
X52716Y-37087D02*
X52755Y-37126D01*
X53031Y-39646D02*
X53031Y-39725D01*
X53031Y-39725D02*
X52992Y-39764D01*
X52756Y-36614D02*
X52637Y-36614D01*
X52598Y-36732D02*
X52638Y-36772D01*
X52638Y-36772D02*
X52716Y-36772D01*
X52992Y-39449D02*
X52795Y-39449D01*
X52795Y-37520D02*
X52756Y-37559D01*
X52992Y-38346D02*
X52559Y-38346D01*
X52559Y-38189D02*
X52520Y-38228D01*
X52756Y-38622D02*
X52795Y-38661D01*
X52598Y-37362D02*
X52638Y-37402D01*
X52795Y-39606D02*
X52991Y-39606D01*
X52756Y-38189D02*
X52559Y-38189D01*
X53031Y-39331D02*
X53031Y-39410D01*
X52795Y-39291D02*
X52991Y-39291D01*
X52716Y-36772D02*
X52755Y-36811D01*
X52795Y-38150D02*
X52756Y-38189D01*
X52756Y-39252D02*
X52795Y-39291D01*
X52992Y-39764D02*
X52834Y-39764D01*
X52755Y-37126D02*
X52755Y-37205D01*
X52638Y-37402D02*
X52756Y-37402D01*
X52637Y-37244D02*
X52598Y-37283D01*
X52756Y-37559D02*
X52559Y-37559D01*
X52796Y-38818D02*
X52756Y-38858D01*
X52559Y-37716D02*
X52756Y-37716D01*
X52520Y-38307D02*
X52559Y-38346D01*
X52520Y-38228D02*
X52520Y-38307D01*
X52755Y-37205D02*
X52716Y-37244D01*
X52559Y-37559D02*
X52520Y-37598D01*
X53543Y-35827D02*
X53740Y-36024D01*
X51772Y-41968D02*
X52008Y-41732D01*
X53937Y-40197D02*
X53937Y-40276D01*
X54212Y-39094D02*
X54212Y-39173D01*
X51535Y-41968D02*
X51772Y-41968D01*
X54212Y-38858D02*
X54173Y-38897D01*
X54173Y-39685D02*
X54212Y-39724D01*
X54172Y-38583D02*
X53976Y-38583D01*
X53937Y-39961D02*
X53976Y-40000D01*
X53937Y-36535D02*
X53937Y-38386D01*
X53937Y-39331D02*
X53976Y-39370D01*
X53976Y-38583D02*
X53937Y-38622D01*
X53937Y-39016D02*
X53976Y-39055D01*
X53976Y-39527D02*
X53937Y-39566D01*
X52008Y-41732D02*
X52008Y-41496D01*
X54173Y-38897D02*
X53977Y-38897D01*
X53937Y-38386D02*
X53976Y-38425D01*
X53977Y-40472D02*
X53425Y-41024D01*
X53937Y-38701D02*
X53976Y-38740D01*
X54212Y-40039D02*
X54212Y-40118D01*
X53937Y-39882D02*
X53937Y-39961D01*
X54173Y-40315D02*
X54212Y-40354D01*
X54212Y-40433D02*
X54173Y-40472D01*
X53937Y-38622D02*
X53937Y-38701D01*
X53937Y-39252D02*
X53937Y-39331D01*
X53976Y-39370D02*
X54173Y-39370D01*
X54173Y-39212D02*
X53977Y-39212D01*
X54173Y-40000D02*
X54212Y-40039D01*
X53977Y-38897D02*
X53937Y-38937D01*
X53740Y-36338D02*
X53937Y-36535D01*
X53977Y-39212D02*
X53937Y-39252D01*
X54173Y-40157D02*
X53977Y-40157D01*
X53976Y-39685D02*
X54173Y-39685D01*
X53937Y-39566D02*
X53937Y-39646D01*
X54212Y-39409D02*
X54212Y-39488D01*
X54212Y-39803D02*
X54173Y-39842D01*
X54173Y-39370D02*
X54212Y-39409D01*
X54212Y-38464D02*
X54212Y-38543D01*
X53937Y-39646D02*
X53976Y-39685D01*
X54173Y-39527D02*
X53976Y-39527D01*
X54212Y-38543D02*
X54172Y-38583D01*
X54212Y-38779D02*
X54212Y-38858D01*
X54212Y-40354D02*
X54212Y-40433D01*
X53977Y-39842D02*
X53937Y-39882D01*
X54212Y-39724D02*
X54212Y-39803D01*
X53937Y-38937D02*
X53937Y-39016D01*
X54173Y-40472D02*
X53977Y-40472D01*
X54212Y-40118D02*
X54173Y-40157D01*
X52008Y-41496D02*
X52480Y-41024D01*
X53977Y-40157D02*
X53937Y-40197D01*
X53976Y-38425D02*
X54173Y-38425D01*
X53976Y-38740D02*
X54173Y-38740D01*
X54173Y-39842D02*
X53977Y-39842D01*
X53976Y-40000D02*
X54173Y-40000D01*
X54173Y-39055D02*
X54212Y-39094D01*
X54212Y-39488D02*
X54173Y-39527D01*
X54173Y-38425D02*
X54212Y-38464D01*
X53976Y-39055D02*
X54173Y-39055D01*
X54173Y-38740D02*
X54212Y-38779D01*
X53937Y-40276D02*
X53976Y-40315D01*
X52480Y-41024D02*
X53425Y-41024D01*
X54212Y-39173D02*
X54173Y-39212D01*
X53976Y-40315D02*
X54173Y-40315D01*
X53740Y-36024D02*
X53740Y-36338D01*
X49999Y-38031D02*
X50039Y-38071D01*
X50000Y-39764D02*
X49803Y-39764D01*
X49646Y-41968D02*
X49646Y-40551D01*
X49803Y-40079D02*
X49764Y-40118D01*
X49764Y-39252D02*
X49803Y-39291D01*
X49804Y-40393D02*
X49646Y-40551D01*
X49764Y-37992D02*
X49803Y-38031D01*
X49803Y-38819D02*
X49764Y-38858D01*
X49764Y-39567D02*
X49803Y-39606D01*
X49803Y-39764D02*
X49764Y-39803D01*
X49803Y-39921D02*
X49999Y-39921D01*
X50039Y-40354D02*
X50000Y-40393D01*
X50039Y-39961D02*
X50039Y-40040D01*
X50000Y-40393D02*
X49804Y-40393D01*
X49999Y-39606D02*
X50039Y-39646D01*
X50000Y-40079D02*
X49803Y-40079D01*
X49804Y-39448D02*
X49764Y-39488D01*
X49764Y-38543D02*
X49764Y-38622D01*
X49764Y-38228D02*
X49764Y-38307D01*
X49803Y-38661D02*
X49999Y-38661D01*
X50000Y-37402D02*
X50039Y-37441D01*
X49764Y-40197D02*
X49803Y-40236D01*
X49764Y-37677D02*
X49803Y-37716D01*
X50039Y-37755D02*
X50039Y-37835D01*
X50039Y-39016D02*
X50039Y-39094D01*
X49764Y-39803D02*
X49764Y-39882D01*
X49764Y-37913D02*
X49764Y-37992D01*
X49764Y-39173D02*
X49764Y-39252D01*
X50000Y-37716D02*
X50039Y-37755D01*
X49803Y-38346D02*
X50000Y-38346D01*
X49999Y-40236D02*
X50039Y-40276D01*
X49803Y-38031D02*
X49999Y-38031D01*
X50000Y-38189D02*
X49803Y-38189D01*
X49804Y-39133D02*
X49764Y-39173D01*
X50039Y-39409D02*
X50000Y-39448D01*
X49764Y-39488D02*
X49764Y-39567D01*
X49803Y-39606D02*
X49999Y-39606D01*
X49803Y-37874D02*
X49764Y-37913D01*
X49764Y-38858D02*
X49764Y-38937D01*
X50039Y-38385D02*
X50039Y-38465D01*
X49803Y-37559D02*
X49764Y-37598D01*
X49803Y-38189D02*
X49764Y-38228D01*
X50000Y-39448D02*
X49804Y-39448D01*
X50000Y-39133D02*
X49804Y-39133D01*
X49764Y-38937D02*
X49803Y-38976D01*
X49764Y-38622D02*
X49803Y-38661D01*
X49803Y-40236D02*
X49999Y-40236D01*
X49764Y-40118D02*
X49764Y-40197D01*
X50197Y-36338D02*
X50000Y-36535D01*
X50039Y-39725D02*
X50000Y-39764D01*
X50000Y-38504D02*
X49803Y-38504D01*
X50000Y-35433D02*
X50197Y-35630D01*
X50039Y-38071D02*
X50039Y-38150D01*
X50039Y-40276D02*
X50039Y-40354D01*
X49764Y-39882D02*
X49803Y-39921D01*
X50039Y-39330D02*
X50039Y-39409D01*
X50039Y-37835D02*
X50000Y-37874D01*
X50197Y-35630D02*
X50197Y-36338D01*
X50039Y-38701D02*
X50039Y-38780D01*
X49803Y-38976D02*
X49999Y-38976D01*
X50000Y-37559D02*
X49803Y-37559D01*
X49764Y-37598D02*
X49764Y-37677D01*
X50039Y-37441D02*
X50039Y-37520D01*
X50000Y-37874D02*
X49803Y-37874D01*
X50000Y-36535D02*
X50000Y-37402D01*
X50039Y-38150D02*
X50000Y-38189D01*
X49803Y-37716D02*
X50000Y-37716D01*
X50039Y-40040D02*
X50000Y-40079D01*
X50000Y-38819D02*
X49803Y-38819D01*
X49803Y-38504D02*
X49764Y-38543D01*
X49803Y-39291D02*
X50000Y-39291D01*
X50039Y-38780D02*
X50000Y-38819D01*
X50000Y-39291D02*
X50039Y-39330D01*
X49999Y-38661D02*
X50039Y-38701D01*
X49764Y-38307D02*
X49803Y-38346D01*
X50039Y-38465D02*
X50000Y-38504D01*
X50039Y-39646D02*
X50039Y-39725D01*
X50039Y-37520D02*
X50000Y-37559D01*
X50000Y-38346D02*
X50039Y-38385D01*
X49999Y-38976D02*
X50039Y-39016D01*
X50039Y-39094D02*
X50000Y-39133D01*
X49999Y-39921D02*
X50039Y-39961D01*
X55157Y-38228D02*
X55118Y-38189D01*
X54646Y-37992D02*
X54646Y-38188D01*
X53937Y-36220D02*
X54134Y-36417D01*
X55433Y-41063D02*
X55433Y-37992D01*
X52638Y-41220D02*
X55276Y-41220D01*
X54803Y-38189D02*
X54803Y-37992D01*
X54527Y-38228D02*
X54488Y-38189D01*
X54331Y-38188D02*
X54291Y-38228D01*
X55275Y-37992D02*
X55275Y-38189D01*
X54961Y-37992D02*
X54961Y-38188D01*
X54961Y-38188D02*
X54921Y-38228D01*
X54606Y-38228D02*
X54527Y-38228D01*
X54842Y-38228D02*
X54803Y-38189D01*
X54212Y-38228D02*
X54134Y-38150D01*
X54370Y-37953D02*
X54331Y-37992D01*
X55275Y-38189D02*
X55236Y-38228D01*
X55314Y-37953D02*
X55275Y-37992D01*
X54764Y-37953D02*
X54685Y-37953D01*
X55276Y-41220D02*
X55433Y-41063D01*
X54449Y-37953D02*
X54370Y-37953D01*
X54291Y-38228D02*
X54212Y-38228D01*
X55394Y-37953D02*
X55314Y-37953D01*
X55236Y-38228D02*
X55157Y-38228D01*
X55433Y-37992D02*
X55394Y-37953D01*
X54646Y-38188D02*
X54606Y-38228D01*
X54921Y-38228D02*
X54842Y-38228D01*
X54331Y-37992D02*
X54331Y-38188D01*
X55079Y-37953D02*
X55000Y-37953D01*
X52244Y-41614D02*
X52638Y-41220D01*
X54134Y-38150D02*
X54134Y-37323D01*
X54803Y-37992D02*
X54764Y-37953D01*
X54488Y-38189D02*
X54488Y-37992D01*
X54134Y-36417D02*
X54134Y-37323D01*
X55118Y-38189D02*
X55118Y-37992D01*
X55000Y-37953D02*
X54961Y-37992D01*
X55118Y-37992D02*
X55079Y-37953D01*
X54488Y-37992D02*
X54449Y-37953D01*
X54134Y-37323D02*
X54133Y-37323D01*
X54685Y-37953D02*
X54646Y-37992D01*
X48898Y-37598D02*
X48898Y-37677D01*
X49173Y-38701D02*
X49173Y-38780D01*
X48898Y-38937D02*
X48937Y-38976D01*
X48976Y-40079D02*
X48937Y-40118D01*
X48937Y-37716D02*
X49134Y-37716D01*
X49094Y-37559D02*
X49291Y-37362D01*
X48937Y-39291D02*
X49134Y-39291D01*
X49134Y-38189D02*
X48937Y-38189D01*
X48937Y-41614D02*
X48937Y-40118D01*
X49134Y-39448D02*
X48938Y-39448D01*
X48937Y-39134D02*
X48898Y-39173D01*
X49134Y-38031D02*
X49173Y-38070D01*
X49173Y-39409D02*
X49134Y-39448D01*
X49173Y-38780D02*
X49134Y-38819D01*
X49173Y-39016D02*
X49173Y-39095D01*
X49173Y-39330D02*
X49173Y-39409D01*
X48898Y-39803D02*
X48898Y-39882D01*
X48898Y-38622D02*
X48937Y-38661D01*
X49606Y-35039D02*
X49409Y-35236D01*
X48898Y-38307D02*
X48937Y-38346D01*
X49173Y-39645D02*
X49173Y-39725D01*
X49173Y-40040D02*
X49134Y-40079D01*
X49173Y-39725D02*
X49134Y-39764D01*
X49173Y-38070D02*
X49173Y-38150D01*
X49449Y-37362D02*
X49606Y-37205D01*
X49134Y-38346D02*
X49173Y-38385D01*
X49173Y-39645D02*
X49173Y-39646D01*
X48937Y-39606D02*
X49134Y-39606D01*
X48937Y-38346D02*
X49134Y-38346D01*
X49173Y-38150D02*
X49134Y-38189D01*
X48898Y-39488D02*
X48898Y-39567D01*
X48937Y-39764D02*
X48898Y-39803D01*
X48937Y-37874D02*
X48898Y-37913D01*
X48898Y-39882D02*
X48937Y-39921D01*
X48937Y-37559D02*
X49094Y-37559D01*
X48898Y-38858D02*
X48898Y-38937D01*
X49173Y-38465D02*
X49134Y-38504D01*
X48938Y-39448D02*
X48898Y-39488D01*
X49134Y-38819D02*
X48937Y-38819D01*
X48937Y-38504D02*
X48898Y-38543D01*
X49134Y-40079D02*
X48976Y-40079D01*
X49134Y-37716D02*
X49173Y-37755D01*
X49606Y-36614D02*
X49606Y-37205D01*
X49134Y-39291D02*
X49173Y-39330D01*
X48937Y-38661D02*
X49133Y-38661D01*
X48937Y-38189D02*
X48898Y-38228D01*
X49173Y-39095D02*
X49134Y-39134D01*
X49133Y-38976D02*
X49173Y-39016D01*
X49449Y-37362D02*
X49291Y-37362D01*
X48898Y-37913D02*
X48898Y-37992D01*
X48937Y-38819D02*
X48898Y-38858D01*
X48898Y-38543D02*
X48898Y-38622D01*
X49173Y-37835D02*
X49134Y-37874D01*
X49409Y-36417D02*
X49606Y-36614D01*
X48898Y-37677D02*
X48937Y-37716D01*
X49134Y-39764D02*
X48937Y-39764D01*
X48937Y-37559D02*
X48898Y-37598D01*
X49173Y-38385D02*
X49173Y-38465D01*
X49173Y-37755D02*
X49173Y-37835D01*
X48898Y-39173D02*
X48898Y-39252D01*
X48898Y-37992D02*
X48937Y-38031D01*
X48937Y-39921D02*
X49133Y-39921D01*
X48898Y-39567D02*
X48937Y-39606D01*
X48937Y-38031D02*
X49134Y-38031D01*
X49134Y-38504D02*
X48937Y-38504D01*
X49134Y-37874D02*
X48937Y-37874D01*
X49134Y-39134D02*
X48937Y-39134D01*
X48898Y-38228D02*
X48898Y-38307D01*
X49134Y-39606D02*
X49173Y-39645D01*
X49409Y-35236D02*
X49409Y-36417D01*
X48898Y-39252D02*
X48937Y-39291D01*
X49133Y-38661D02*
X49173Y-38701D01*
X48937Y-38976D02*
X49133Y-38976D01*
X49133Y-39921D02*
X49173Y-39961D01*
X49173Y-39961D02*
X49173Y-40040D01*
X54724Y-35867D02*
X54764Y-35827D01*
X60039Y-44842D02*
X60039Y-44606D01*
X54724Y-35984D02*
X54724Y-35867D01*
X54843Y-35827D02*
X54882Y-35866D01*
X54567Y-35985D02*
X54606Y-36024D01*
X54528Y-35827D02*
X54567Y-35866D01*
X54764Y-35827D02*
X54843Y-35827D01*
X54606Y-36024D02*
X54684Y-36024D01*
X54882Y-35866D02*
X54882Y-35985D01*
X54921Y-36024D02*
X56890Y-36024D01*
X56890Y-36024D02*
X58622Y-37756D01*
X54684Y-36024D02*
X54724Y-35984D01*
X54567Y-35866D02*
X54567Y-35985D01*
X58622Y-37756D02*
X58622Y-43189D01*
X54331Y-35827D02*
X54528Y-35827D01*
X60039Y-44606D02*
X58622Y-43189D01*
X54882Y-35985D02*
X54921Y-36024D01*
X48425Y-35827D02*
X48228Y-36024D01*
X43740Y-41850D02*
X43740Y-44134D01*
X48150Y-36417D02*
X47795Y-36417D01*
X47677Y-36535D02*
X47677Y-37913D01*
X47677Y-37913D02*
X43740Y-41850D01*
X48228Y-36024D02*
X48228Y-36339D01*
X48150Y-36417D02*
X48228Y-36339D01*
X47795Y-36417D02*
X47677Y-36535D01*
X43740Y-44134D02*
X42795Y-45079D01*
X56811Y-35629D02*
X58819Y-37637D01*
X60275Y-44842D02*
X60275Y-44568D01*
X54527Y-35629D02*
X56811Y-35629D01*
X58819Y-43112D02*
X60275Y-44568D01*
X54331Y-35433D02*
X54527Y-35629D01*
X58819Y-37637D02*
X58819Y-43112D01*
X47481Y-37795D02*
X43504Y-41772D01*
X48031Y-35827D02*
X47835Y-36023D01*
X43504Y-44094D02*
X43031Y-44567D01*
X47521Y-36023D02*
X47835Y-36023D01*
X47481Y-36418D02*
X47441Y-36378D01*
X47481Y-37795D02*
X47481Y-36418D01*
X47441Y-36378D02*
X47441Y-36103D01*
X47441Y-36103D02*
X47521Y-36023D01*
X43504Y-41772D02*
X43504Y-44094D01*
X55197Y-37480D02*
X55157Y-37520D01*
X52953Y-41614D02*
X53150Y-41417D01*
X55472Y-41417D02*
X53150Y-41417D01*
X54802Y-37756D02*
X54842Y-37716D01*
X55000Y-37519D02*
X54961Y-37480D01*
X55630Y-37520D02*
X55590Y-37480D01*
X55157Y-37717D02*
X55118Y-37756D01*
X55472Y-37520D02*
X55472Y-37717D01*
X54331Y-36613D02*
X54724Y-36220D01*
X55040Y-37756D02*
X55000Y-37716D01*
X55315Y-37520D02*
X55275Y-37480D01*
X54961Y-37480D02*
X54882Y-37480D01*
X55590Y-37480D02*
X55512Y-37480D01*
X55355Y-37756D02*
X55315Y-37716D01*
X55472Y-37717D02*
X55433Y-37756D01*
X55118Y-37756D02*
X55040Y-37756D01*
X55000Y-37716D02*
X55000Y-37519D01*
X55433Y-37756D02*
X55355Y-37756D01*
X54409Y-37756D02*
X54802Y-37756D01*
X55315Y-37716D02*
X55315Y-37520D01*
X55275Y-37480D02*
X55197Y-37480D01*
X54882Y-37480D02*
X54842Y-37520D01*
X55630Y-37520D02*
X55630Y-37638D01*
X54331Y-36613D02*
X54331Y-37678D01*
X55512Y-37480D02*
X55472Y-37520D01*
X54331Y-37678D02*
X54409Y-37756D01*
X55630Y-41259D02*
X55472Y-41417D01*
X54842Y-37520D02*
X54842Y-37716D01*
X55630Y-37637D02*
X55630Y-37638D01*
X55630Y-37638D02*
X55630Y-41259D01*
X55157Y-37520D02*
X55157Y-37717D01*
X55395Y-44645D02*
X55827Y-44213D01*
X55670Y-37244D02*
X55827Y-37401D01*
X55040Y-37244D02*
X55670Y-37244D01*
X53150Y-44645D02*
X55395Y-44645D01*
X55827Y-44213D02*
X55827Y-37401D01*
X55040Y-37244D02*
X54921Y-37125D01*
X54724Y-36614D02*
X54921Y-36811D01*
X52953Y-44842D02*
X53150Y-44645D01*
X54921Y-36811D02*
X54921Y-37125D01*
X60748Y-39252D02*
X56732Y-35236D01*
X56732Y-35236D02*
X55708Y-35236D01*
X55708Y-35236D02*
X55118Y-34646D01*
X60748Y-44842D02*
X60748Y-39252D01*
X61457Y-44764D02*
X61457Y-39331D01*
X56968Y-34842D02*
X56101Y-34842D01*
X61457Y-39331D02*
X56968Y-34842D01*
X61535Y-44842D02*
X61457Y-44764D01*
X56101Y-34842D02*
X55905Y-34646D01*
X60984Y-44684D02*
X60984Y-39173D01*
X55315Y-34055D02*
X55118Y-33858D01*
X60984Y-39173D02*
X56850Y-35039D01*
X55315Y-34449D02*
X55315Y-34055D01*
X55905Y-35039D02*
X55315Y-34449D01*
X61142Y-44842D02*
X60984Y-44684D01*
X56850Y-35039D02*
X55905Y-35039D01*
X63425Y-44842D02*
X63110Y-44527D01*
X63110Y-44527D02*
X63110Y-39646D01*
X56535Y-33071D02*
X55512Y-33071D01*
X63110Y-39646D02*
X56535Y-33071D01*
X62874Y-44685D02*
X62874Y-39725D01*
X56614Y-33465D02*
X55905Y-33465D01*
X63031Y-44842D02*
X62874Y-44685D01*
X62874Y-39725D02*
X56614Y-33465D01*
X62165Y-42087D02*
X62165Y-41889D01*
X62244Y-42166D02*
X62165Y-42087D01*
X55905Y-33858D02*
X56082Y-34035D01*
X56082Y-34035D02*
X56830Y-34035D01*
X62244Y-42166D02*
X62244Y-44842D01*
X62165Y-41889D02*
X61929Y-41653D01*
X61929Y-39134D02*
X56830Y-34035D01*
X61929Y-41653D02*
X61929Y-39134D01*
X61693Y-44685D02*
X61693Y-39252D01*
X61693Y-39252D02*
X56909Y-34468D01*
X56477Y-34468D02*
X56299Y-34646D01*
X56909Y-34468D02*
X56477Y-34468D01*
X61850Y-44842D02*
X61693Y-44685D01*
X47992Y-38071D02*
X48031Y-38110D01*
X48228Y-36811D02*
X48228Y-36733D01*
X48268Y-37835D02*
X48268Y-37913D01*
X48268Y-38543D02*
X48228Y-38583D01*
X48228Y-38268D02*
X48031Y-38268D01*
X48031Y-38583D02*
X47992Y-38622D01*
X47992Y-37441D02*
X48031Y-37480D01*
X48229Y-36811D02*
X48268Y-36850D01*
X48031Y-37480D02*
X48228Y-37480D01*
X48228Y-38110D02*
X48268Y-38150D01*
X48504Y-37283D02*
X48464Y-37323D01*
X47992Y-38622D02*
X47992Y-38701D01*
X48228Y-38583D02*
X48031Y-38583D01*
X48464Y-37008D02*
X48268Y-37008D01*
X48268Y-36693D02*
X48464Y-36693D01*
X48031Y-38110D02*
X48228Y-38110D01*
X48031Y-38425D02*
X48228Y-38425D01*
X48504Y-36890D02*
X48504Y-36968D01*
X47992Y-38386D02*
X48031Y-38425D01*
X48228Y-36811D02*
X48229Y-36811D01*
X47992Y-37992D02*
X47992Y-38071D01*
X47992Y-38307D02*
X47992Y-38386D01*
X48504Y-36968D02*
X48464Y-37008D01*
X48464Y-37165D02*
X48504Y-37205D01*
X48228Y-37126D02*
X48229Y-37126D01*
X48268Y-36850D02*
X48464Y-36850D01*
X48229Y-37126D02*
X48268Y-37165D01*
X48031Y-38740D02*
X48189Y-38740D01*
X48504Y-37205D02*
X48504Y-37283D01*
X48504Y-35630D02*
X48622Y-35748D01*
X48268Y-37598D02*
X48228Y-37638D01*
X48228Y-37638D02*
X48031Y-37638D01*
X48622Y-36339D02*
X48622Y-35748D01*
X48228Y-37953D02*
X48031Y-37953D01*
X48031Y-37795D02*
X48228Y-37795D01*
X48268Y-37520D02*
X48268Y-37598D01*
X48268Y-38228D02*
X48228Y-38268D01*
X48464Y-36850D02*
X48504Y-36890D01*
X48464Y-36693D02*
X48504Y-36653D01*
X47992Y-37677D02*
X47992Y-37756D01*
X48504Y-36653D02*
X48504Y-36457D01*
X47992Y-38701D02*
X48031Y-38740D01*
X48268Y-37008D02*
X48228Y-37048D01*
X48031Y-37953D02*
X47992Y-37992D01*
X47441Y-35630D02*
X48504Y-35630D01*
X48268Y-37165D02*
X48464Y-37165D01*
X48268Y-37913D02*
X48228Y-37953D01*
X48228Y-37126D02*
X48228Y-37048D01*
X47992Y-37362D02*
X47992Y-37441D01*
X48228Y-36733D02*
X48268Y-36693D01*
X48228Y-37480D02*
X48268Y-37520D01*
X48464Y-37323D02*
X48031Y-37323D01*
X48268Y-38150D02*
X48268Y-38228D01*
X48228Y-38425D02*
X48268Y-38465D01*
X47244Y-35827D02*
X47441Y-35630D01*
X48504Y-36457D02*
X48622Y-36339D01*
X48031Y-38268D02*
X47992Y-38307D01*
X47992Y-37756D02*
X48031Y-37795D01*
X48228Y-41614D02*
X48228Y-38779D01*
X48268Y-38465D02*
X48268Y-38543D01*
X48031Y-37638D02*
X47992Y-37677D01*
X48031Y-37323D02*
X47992Y-37362D01*
X48228Y-37795D02*
X48268Y-37835D01*
X48189Y-38740D02*
X48228Y-38779D01*
X49646Y-44802D02*
X49882Y-44566D01*
X50787Y-35039D02*
X50984Y-35236D01*
X50118Y-41653D02*
X50118Y-40906D01*
X49882Y-41889D02*
X50118Y-41653D01*
X49646Y-45197D02*
X49646Y-44802D01*
X49882Y-44566D02*
X49882Y-41889D01*
X50118Y-40906D02*
X50709Y-40315D01*
X50984Y-37363D02*
X50709Y-37638D01*
X50709Y-40315D02*
X50709Y-37638D01*
X50984Y-35236D02*
X50984Y-37363D01*
X48464Y-40511D02*
X48701Y-40748D01*
X48464Y-38936D02*
X48504Y-38976D01*
X48700Y-38031D02*
X48740Y-38071D01*
X48740Y-38150D02*
X48701Y-38189D01*
X48740Y-39645D02*
X48740Y-39724D01*
X48503Y-39134D02*
X48464Y-39173D01*
X48701Y-37874D02*
X48503Y-37874D01*
X48464Y-40118D02*
X48464Y-40196D01*
X48504Y-38661D02*
X48700Y-38661D01*
X48661Y-37559D02*
X48503Y-37559D01*
X48740Y-40040D02*
X48701Y-40079D01*
X48464Y-38228D02*
X48464Y-38306D01*
X48505Y-39763D02*
X48465Y-39803D01*
X48503Y-40394D02*
X48464Y-40433D01*
X48504Y-38031D02*
X48700Y-38031D01*
X48701Y-40748D02*
X48701Y-41614D01*
X48504Y-37716D02*
X48700Y-37716D01*
X48464Y-39567D02*
X48503Y-39606D01*
X48504Y-38976D02*
X48700Y-38976D01*
X48503Y-39606D02*
X48701Y-39606D01*
X48464Y-37598D02*
X48464Y-37676D01*
X48701Y-39449D02*
X48503Y-39449D01*
X48464Y-40433D02*
X48464Y-40511D01*
X49094Y-37048D02*
X49094Y-37047D01*
X48740Y-39331D02*
X48740Y-39410D01*
X48464Y-39173D02*
X48464Y-39251D01*
X48464Y-39251D02*
X48504Y-39291D01*
X48701Y-40394D02*
X48503Y-40394D01*
X48740Y-40355D02*
X48701Y-40394D01*
X48740Y-39410D02*
X48701Y-39449D01*
X48740Y-37756D02*
X48740Y-37835D01*
X48465Y-39881D02*
X48504Y-39920D01*
X48503Y-37874D02*
X48464Y-37913D01*
X49094Y-37127D02*
X49094Y-37047D01*
X49094Y-37047D02*
X49094Y-36495D01*
X48700Y-40236D02*
X48740Y-40276D01*
X48464Y-38858D02*
X48464Y-38936D01*
X48504Y-39291D02*
X48700Y-39291D01*
X48740Y-39095D02*
X48701Y-39134D01*
X48503Y-38189D02*
X48464Y-38228D01*
X48503Y-38504D02*
X48464Y-38543D01*
X48464Y-38543D02*
X48464Y-38621D01*
X48464Y-38621D02*
X48504Y-38661D01*
X48740Y-39960D02*
X48740Y-40040D01*
X48503Y-37559D02*
X48464Y-37598D01*
X49016Y-35235D02*
X49212Y-35039D01*
X48740Y-38071D02*
X48740Y-38150D01*
X49094Y-36495D02*
X49016Y-36417D01*
X48740Y-39724D02*
X48701Y-39763D01*
X48464Y-38306D02*
X48504Y-38346D01*
X48700Y-39291D02*
X48740Y-39331D01*
X48700Y-38346D02*
X48740Y-38386D01*
X48740Y-39016D02*
X48740Y-39095D01*
X48701Y-38819D02*
X48503Y-38819D01*
X48503Y-38819D02*
X48464Y-38858D01*
X49094Y-37127D02*
X48859Y-37362D01*
X48701Y-40079D02*
X48503Y-40079D01*
X48504Y-39920D02*
X48700Y-39920D01*
X48464Y-37676D02*
X48504Y-37716D01*
X48503Y-40079D02*
X48464Y-40118D01*
X48465Y-39803D02*
X48465Y-39881D01*
X48740Y-37835D02*
X48701Y-37874D01*
X48859Y-37362D02*
X48858Y-37362D01*
X48740Y-38386D02*
X48740Y-38465D01*
X48701Y-39134D02*
X48503Y-39134D01*
X48701Y-39763D02*
X48505Y-39763D01*
X48464Y-40196D02*
X48504Y-40236D01*
X48700Y-38661D02*
X48740Y-38701D01*
X48503Y-39449D02*
X48464Y-39488D01*
X48701Y-39606D02*
X48740Y-39645D01*
X48700Y-37716D02*
X48740Y-37756D01*
X48701Y-38504D02*
X48503Y-38504D01*
X48700Y-38976D02*
X48740Y-39016D01*
X48858Y-37362D02*
X48661Y-37559D01*
X48700Y-39920D02*
X48740Y-39960D01*
X48504Y-38346D02*
X48700Y-38346D01*
X49016Y-36417D02*
X49016Y-35235D01*
X48701Y-38189D02*
X48503Y-38189D01*
X48740Y-40276D02*
X48740Y-40355D01*
X48464Y-39488D02*
X48464Y-39567D01*
X48740Y-38465D02*
X48701Y-38504D01*
X48464Y-37913D02*
X48464Y-37991D01*
X48504Y-40236D02*
X48700Y-40236D01*
X48464Y-37991D02*
X48504Y-38031D01*
X48740Y-38701D02*
X48740Y-38780D01*
X48740Y-38780D02*
X48701Y-38819D01*
X51575Y-34252D02*
X51575Y-34232D01*
X55118Y-32677D02*
X55118Y-32697D01*
X52362Y-33858D02*
X52362Y-33838D01*
G54D38*
X63760Y-43031D02*
X63779Y-43012D01*
G54D36*
X54323Y-32283D02*
X54331Y-32283D01*
X54724Y-32677D02*
X54724Y-32697D01*
X50000Y-34646D02*
X49980Y-34646D01*
X50000Y-34252D02*
X50000Y-34232D01*
G54D38*
X63583Y-43031D02*
X63760Y-43031D01*
G54D36*
X54331Y-32685D02*
X54331Y-32677D01*
X49331Y-37598D02*
X49331Y-37677D01*
X49371Y-39133D02*
X49331Y-39173D01*
X49331Y-40433D02*
X49331Y-40512D01*
X49370Y-39291D02*
X49567Y-39291D01*
X49331Y-40512D02*
X49409Y-40590D01*
X49606Y-39094D02*
X49567Y-39133D01*
X49566Y-37716D02*
X49606Y-37756D01*
X49370Y-40236D02*
X49566Y-40236D01*
X49606Y-40040D02*
X49567Y-40079D01*
X49371Y-39448D02*
X49331Y-39488D01*
X49331Y-39488D02*
X49331Y-39567D01*
X49606Y-37835D02*
X49567Y-37874D01*
X49567Y-39448D02*
X49371Y-39448D01*
X49370Y-38031D02*
X49567Y-38031D01*
X49331Y-39882D02*
X49370Y-39921D01*
X49567Y-38032D02*
X49606Y-38071D01*
X49566Y-39921D02*
X49606Y-39961D01*
X49331Y-38937D02*
X49370Y-38976D01*
X49606Y-35433D02*
X49803Y-35630D01*
X49566Y-38346D02*
X49606Y-38386D01*
X49331Y-38228D02*
X49331Y-38307D01*
X49566Y-38976D02*
X49606Y-39016D01*
X49567Y-38031D02*
X49567Y-38032D01*
X49803Y-37283D02*
X49803Y-37284D01*
X49331Y-37992D02*
X49370Y-38031D01*
X49331Y-40197D02*
X49370Y-40236D01*
X49527Y-37559D02*
X49370Y-37559D01*
X49606Y-38386D02*
X49606Y-38465D01*
X49567Y-39133D02*
X49371Y-39133D01*
X49606Y-38780D02*
X49567Y-38819D01*
X49331Y-40118D02*
X49331Y-40197D01*
X49567Y-39764D02*
X49370Y-39764D01*
X49606Y-40355D02*
X49567Y-40394D01*
X49331Y-39803D02*
X49331Y-39882D01*
X49606Y-39645D02*
X49606Y-39725D01*
X49331Y-38622D02*
X49370Y-38661D01*
X49370Y-38819D02*
X49331Y-38858D01*
X49370Y-38189D02*
X49331Y-38228D01*
X49567Y-40079D02*
X49370Y-40079D01*
X49606Y-39330D02*
X49606Y-39409D01*
X49331Y-37677D02*
X49370Y-37716D01*
X49606Y-38071D02*
X49606Y-38150D01*
X49606Y-39016D02*
X49606Y-39094D01*
X49527Y-37559D02*
X49803Y-37283D01*
X49606Y-38701D02*
X49606Y-38780D01*
X49606Y-40276D02*
X49606Y-40355D01*
X49370Y-39606D02*
X49567Y-39606D01*
X49567Y-39291D02*
X49606Y-39330D01*
X49370Y-38976D02*
X49566Y-38976D01*
X49370Y-38661D02*
X49566Y-38661D01*
X49606Y-37756D02*
X49606Y-37835D01*
X49567Y-38819D02*
X49370Y-38819D01*
X49331Y-37913D02*
X49331Y-37992D01*
X49566Y-38661D02*
X49606Y-38701D01*
X49409Y-40590D02*
X49409Y-41614D01*
X49803Y-35630D02*
X49803Y-37283D01*
X49370Y-38346D02*
X49566Y-38346D01*
X49331Y-38543D02*
X49331Y-38622D01*
X49370Y-39921D02*
X49566Y-39921D01*
X49331Y-38858D02*
X49331Y-38937D01*
X49567Y-40394D02*
X49370Y-40394D01*
X49331Y-39567D02*
X49370Y-39606D01*
X49567Y-37874D02*
X49370Y-37874D01*
X49606Y-38150D02*
X49567Y-38189D01*
X49370Y-37874D02*
X49331Y-37913D01*
X49331Y-39173D02*
X49331Y-39252D01*
X49370Y-37559D02*
X49331Y-37598D01*
X49606Y-39961D02*
X49606Y-40040D01*
X49606Y-38465D02*
X49567Y-38504D01*
X49331Y-39252D02*
X49370Y-39291D01*
X49606Y-39409D02*
X49567Y-39448D01*
X49606Y-39725D02*
X49567Y-39764D01*
X49370Y-38504D02*
X49331Y-38543D01*
X49331Y-38307D02*
X49370Y-38346D01*
X49370Y-39764D02*
X49331Y-39803D01*
X49370Y-40394D02*
X49331Y-40433D01*
X49567Y-38504D02*
X49370Y-38504D01*
X49567Y-38189D02*
X49370Y-38189D01*
X49370Y-40079D02*
X49331Y-40118D01*
X49566Y-40236D02*
X49606Y-40276D01*
X49370Y-37716D02*
X49566Y-37716D01*
X49567Y-39606D02*
X49606Y-39645D01*
X47835Y-30905D02*
X48031Y-30709D01*
X48024Y-31496D02*
X48024Y-31449D01*
X47835Y-31260D02*
X47835Y-30905D01*
X48024Y-31449D02*
X47835Y-31260D01*
X46457Y-31102D02*
X46449Y-31102D01*
X63890Y-32716D02*
X64173Y-32716D01*
X68662Y-37913D02*
X70236Y-36339D01*
X64212Y-36771D02*
X64016Y-36575D01*
X64212Y-37283D02*
X64212Y-36771D01*
X64016Y-36575D02*
X63733Y-36575D01*
X68662Y-37913D02*
X64842Y-37913D01*
X64842Y-37913D02*
X64212Y-37283D01*
X63733Y-36575D02*
X63701Y-36543D01*
X48228Y-30511D02*
X48228Y-30905D01*
X47638Y-29921D02*
X48228Y-30511D01*
X48228Y-30905D02*
X48031Y-31102D01*
X47630Y-29921D02*
X47638Y-29921D01*
X68583Y-36968D02*
X69212Y-36339D01*
X64843Y-36968D02*
X68583Y-36968D01*
X64685Y-37126D02*
X64843Y-36968D01*
X48425Y-30314D02*
X48425Y-31102D01*
X48031Y-29913D02*
X48031Y-29920D01*
X48031Y-29920D02*
X48425Y-30314D01*
X48433Y-31898D02*
X48433Y-32244D01*
X48425Y-31890D02*
X48433Y-31898D01*
X46858Y-31110D02*
X46858Y-31496D01*
X46850Y-31102D02*
X46858Y-31110D01*
X62795Y-31850D02*
X62795Y-32520D01*
X62795Y-31850D02*
X63079Y-31850D01*
X62795Y-32520D02*
X64212Y-33937D01*
X54331Y-27558D02*
X54527Y-27362D01*
X55197Y-27362D02*
X55315Y-27244D01*
X55709Y-26850D02*
X55709Y-26181D01*
X55434Y-26968D02*
X55591Y-26968D01*
X55591Y-26968D02*
X55709Y-26850D01*
X57992Y-21689D02*
X57992Y-23898D01*
X57992Y-23898D02*
X55709Y-26181D01*
X55315Y-27087D02*
X55434Y-26968D01*
X54527Y-27362D02*
X55197Y-27362D01*
X54331Y-27559D02*
X54331Y-27558D01*
X55315Y-27244D02*
X55315Y-27087D01*
X57992Y-20000D02*
X57992Y-19255D01*
X54331Y-26772D02*
X54331Y-25826D01*
X56811Y-23346D02*
X56811Y-21689D01*
X54331Y-25826D02*
X56811Y-23346D01*
X56811Y-20000D02*
X56811Y-19255D01*
X54134Y-26968D02*
X54134Y-25748D01*
X56614Y-21689D02*
X56614Y-23268D01*
X53937Y-27165D02*
X54134Y-26968D01*
X56614Y-23268D02*
X54134Y-25748D01*
X56614Y-19685D02*
X56614Y-19255D01*
X56418Y-21689D02*
X56418Y-23188D01*
X53937Y-26378D02*
X53937Y-25669D01*
X53543Y-26772D02*
X53937Y-26378D01*
X53937Y-25669D02*
X56418Y-23188D01*
X56417Y-19256D02*
X56418Y-19255D01*
X56417Y-19256D02*
X56417Y-20000D01*
X53150Y-25984D02*
X53150Y-26772D01*
X56221Y-22913D02*
X53150Y-25984D01*
X56221Y-21689D02*
X56221Y-22913D01*
X56221Y-19684D02*
X56221Y-19255D01*
X56220Y-19685D02*
X56221Y-19684D01*
X53346Y-26968D02*
X53071Y-26968D01*
X52953Y-26850D02*
X52953Y-25905D01*
X56024Y-21689D02*
X56024Y-22834D01*
X53543Y-27165D02*
X53346Y-26968D01*
X53071Y-26968D02*
X52953Y-26850D01*
X56024Y-22834D02*
X52953Y-25905D01*
X56024Y-20000D02*
X56024Y-19255D01*
X57795Y-23819D02*
X55512Y-26102D01*
X57795Y-21689D02*
X57795Y-23819D01*
X55512Y-26772D02*
X55512Y-26102D01*
X52756Y-25787D02*
X55630Y-22913D01*
X55630Y-22913D02*
X55630Y-21689D01*
X52756Y-27165D02*
X52756Y-25787D01*
X55630Y-19255D02*
X55630Y-20000D01*
X55433Y-22835D02*
X55433Y-21689D01*
X52362Y-26772D02*
X52559Y-26575D01*
X52559Y-25709D02*
X55433Y-22835D01*
X52559Y-26575D02*
X52559Y-25709D01*
X55433Y-19255D02*
X55433Y-19685D01*
X55236Y-21689D02*
X55236Y-22126D01*
X55236Y-20001D02*
X55236Y-19255D01*
X52362Y-26456D02*
X52362Y-25629D01*
X52165Y-26968D02*
X52165Y-26653D01*
X52165Y-26653D02*
X52362Y-26456D01*
X51968Y-27165D02*
X52165Y-26968D01*
X55040Y-21689D02*
X55040Y-22951D01*
X55040Y-22951D02*
X52362Y-25629D01*
X55040Y-19684D02*
X55039Y-19685D01*
X55040Y-19255D02*
X55040Y-19684D01*
X51732Y-26535D02*
X51732Y-25826D01*
X51968Y-26771D02*
X51732Y-26535D01*
X54843Y-22715D02*
X51732Y-25826D01*
X54843Y-21689D02*
X54843Y-22715D01*
X51968Y-26772D02*
X51968Y-26771D01*
X54843Y-19255D02*
X54843Y-19960D01*
X54843Y-19960D02*
X54842Y-20000D01*
X57795Y-19685D02*
X57795Y-19255D01*
X54449Y-22836D02*
X54449Y-21689D01*
X51575Y-27165D02*
X51575Y-25710D01*
X51575Y-25710D02*
X54449Y-22836D01*
X54449Y-20000D02*
X54449Y-19255D01*
X51378Y-26968D02*
X51378Y-25630D01*
X54252Y-22756D02*
X54252Y-21689D01*
X51181Y-27165D02*
X51378Y-26968D01*
X51378Y-25630D02*
X54252Y-22756D01*
X54252Y-19685D02*
X54252Y-19255D01*
X54055Y-21689D02*
X54055Y-22126D01*
X54055Y-20000D02*
X54055Y-19255D01*
X53858Y-22559D02*
X53858Y-21689D01*
X53858Y-19685D02*
X53858Y-19255D01*
X53662Y-22639D02*
X53858Y-22835D01*
X53662Y-22639D02*
X53662Y-21689D01*
X53662Y-19960D02*
X53661Y-20000D01*
X53662Y-19960D02*
X53662Y-19255D01*
X55354Y-26535D02*
X55354Y-25985D01*
X55118Y-26771D02*
X55354Y-26535D01*
X57599Y-21689D02*
X57599Y-23740D01*
X57599Y-23740D02*
X55354Y-25985D01*
X55118Y-26772D02*
X55118Y-26771D01*
X53268Y-23150D02*
X53268Y-21689D01*
X53268Y-20000D02*
X53268Y-19255D01*
X53071Y-23465D02*
X53071Y-21689D01*
X53071Y-19685D02*
X53071Y-19255D01*
X52874Y-23858D02*
X52874Y-21689D01*
X52874Y-19255D02*
X52874Y-20197D01*
X52677Y-22283D02*
X52283Y-22677D01*
X52677Y-22283D02*
X52677Y-21689D01*
X52677Y-19685D02*
X52677Y-19255D01*
X52481Y-22204D02*
X52481Y-21689D01*
X52481Y-22204D02*
X52283Y-22402D01*
X52481Y-19765D02*
X52677Y-19961D01*
X52481Y-19765D02*
X52481Y-19255D01*
X57599Y-19960D02*
X57599Y-19255D01*
X57599Y-19960D02*
X57598Y-20000D01*
X52284Y-22125D02*
X52283Y-22126D01*
X52284Y-22125D02*
X52284Y-21689D01*
X52284Y-19684D02*
X52284Y-19255D01*
X52284Y-19684D02*
X52283Y-19685D01*
X57402Y-23306D02*
X54882Y-25826D01*
X57402Y-21689D02*
X57402Y-23306D01*
X54921Y-26968D02*
X54921Y-26574D01*
X54921Y-26574D02*
X54882Y-26535D01*
X54724Y-27165D02*
X54921Y-26968D01*
X54882Y-26535D02*
X54882Y-25826D01*
X57402Y-19684D02*
X57401Y-19685D01*
X57402Y-19684D02*
X57402Y-19255D01*
X57205Y-21689D02*
X57205Y-23228D01*
X54724Y-26772D02*
X54724Y-25709D01*
X57205Y-23228D02*
X54724Y-25709D01*
X57205Y-20000D02*
X57205Y-19255D01*
X54331Y-28346D02*
X54331Y-28327D01*
X51575Y-28346D02*
X51575Y-28354D01*
X52362Y-28346D02*
X52362Y-28366D01*
X54323Y-28740D02*
X54331Y-28740D01*
X50118Y-22205D02*
X50118Y-21689D01*
X50118Y-22205D02*
X50354Y-22441D01*
X50118Y-19685D02*
X50118Y-19255D01*
X48937Y-21689D02*
X48937Y-23109D01*
X48937Y-23109D02*
X50787Y-24959D01*
X50787Y-24959D02*
X50787Y-26496D01*
X50394Y-27165D02*
X50394Y-27164D01*
X50394Y-27164D02*
X50590Y-26968D01*
X50590Y-26693D02*
X50787Y-26496D01*
X50590Y-26968D02*
X50590Y-26693D01*
X48937Y-19961D02*
X48937Y-19255D01*
X48740Y-23190D02*
X50630Y-25080D01*
X50630Y-25080D02*
X50630Y-26417D01*
X50394Y-26772D02*
X50394Y-26653D01*
X48740Y-21689D02*
X48740Y-23190D01*
X50394Y-26653D02*
X50630Y-26417D01*
X48740Y-19685D02*
X48740Y-19255D01*
X48543Y-21690D02*
X48543Y-22126D01*
X48543Y-21690D02*
X48544Y-21689D01*
X48544Y-20117D02*
X48544Y-19255D01*
X48543Y-20118D02*
X48544Y-20117D01*
X48347Y-23072D02*
X48347Y-21689D01*
X50197Y-26299D02*
X50157Y-26259D01*
X50000Y-24725D02*
X48347Y-23072D01*
X50000Y-27165D02*
X50197Y-26968D01*
X50157Y-26259D02*
X50157Y-26260D01*
X50157Y-26260D02*
X50000Y-26103D01*
X50000Y-26103D02*
X50000Y-24725D01*
X50197Y-26968D02*
X50197Y-26299D01*
X48347Y-19255D02*
X48346Y-19960D01*
X48346Y-19960D02*
X48149Y-20157D01*
X50000Y-26772D02*
X49803Y-26575D01*
X49803Y-26575D02*
X49803Y-24803D01*
X49803Y-24803D02*
X48150Y-23150D01*
X48150Y-23150D02*
X48150Y-21689D01*
X48150Y-19255D02*
X48150Y-19882D01*
X49921Y-22283D02*
X49921Y-21689D01*
X49921Y-22283D02*
X50354Y-22716D01*
X49606Y-24881D02*
X47756Y-23031D01*
X47756Y-23031D02*
X47756Y-21689D01*
X49606Y-26772D02*
X49606Y-24881D01*
X47756Y-19255D02*
X47756Y-19764D01*
X47756Y-19764D02*
X47559Y-19961D01*
X49606Y-27165D02*
X49409Y-26968D01*
X47559Y-23110D02*
X47559Y-21689D01*
X49409Y-26968D02*
X49409Y-24960D01*
X49409Y-24960D02*
X47559Y-23110D01*
X47559Y-19255D02*
X47559Y-19685D01*
X49212Y-25039D02*
X47362Y-23189D01*
X47362Y-23189D02*
X47362Y-21689D01*
X49212Y-26772D02*
X49212Y-25039D01*
X47362Y-20157D02*
X47362Y-19255D01*
X49055Y-25158D02*
X47166Y-23269D01*
X47166Y-23269D02*
X47166Y-21689D01*
X48819Y-27165D02*
X49016Y-26968D01*
X49016Y-26614D02*
X49055Y-26575D01*
X49016Y-26968D02*
X49016Y-26614D01*
X49055Y-26575D02*
X49055Y-25158D01*
X47166Y-19960D02*
X46968Y-20158D01*
X47166Y-19960D02*
X47166Y-19255D01*
X48583Y-24963D02*
X46969Y-23349D01*
X48819Y-26771D02*
X48583Y-26535D01*
X48819Y-26772D02*
X48819Y-26771D01*
X46969Y-23349D02*
X46969Y-21689D01*
X48583Y-26535D02*
X48583Y-24963D01*
X46969Y-19684D02*
X46968Y-19882D01*
X46969Y-19684D02*
X46969Y-19255D01*
X49921Y-19961D02*
X49921Y-19255D01*
X46575Y-21689D02*
X46575Y-23426D01*
X46575Y-23426D02*
X48228Y-25079D01*
X48228Y-26968D02*
X48228Y-25079D01*
X48031Y-27165D02*
X48228Y-26968D01*
X46575Y-19255D02*
X46575Y-19764D01*
X46575Y-19764D02*
X46378Y-19961D01*
X46378Y-23504D02*
X46378Y-21689D01*
X48031Y-26772D02*
X48031Y-25157D01*
X48031Y-25157D02*
X46378Y-23504D01*
X46378Y-19255D02*
X46378Y-19685D01*
X46181Y-21689D02*
X46181Y-23150D01*
X46181Y-19255D02*
X46181Y-20157D01*
X45984Y-23386D02*
X45984Y-21689D01*
X47835Y-25236D02*
X46181Y-23582D01*
X47835Y-26968D02*
X47835Y-25236D01*
X46181Y-23582D02*
X46181Y-23583D01*
X46181Y-23583D02*
X45984Y-23386D01*
X47638Y-27165D02*
X47835Y-26968D01*
X45984Y-19685D02*
X45984Y-19255D01*
X47638Y-25315D02*
X45788Y-23465D01*
X45788Y-23465D02*
X45788Y-21689D01*
X47638Y-26772D02*
X47638Y-25315D01*
X45788Y-19999D02*
X45787Y-20000D01*
X45788Y-19999D02*
X45788Y-19255D01*
X49724Y-22363D02*
X49724Y-22126D01*
X50354Y-22993D02*
X49724Y-22363D01*
X49725Y-21689D02*
X49725Y-22125D01*
X49725Y-22125D02*
X49724Y-22126D01*
X47441Y-26575D02*
X47480Y-26536D01*
X47441Y-26968D02*
X47441Y-26575D01*
X45394Y-21689D02*
X45394Y-23347D01*
X45394Y-23347D02*
X47480Y-25433D01*
X47244Y-27165D02*
X47441Y-26968D01*
X47480Y-26536D02*
X47480Y-25433D01*
X45394Y-19842D02*
X45394Y-19255D01*
X47244Y-26772D02*
X47008Y-26536D01*
X45197Y-23425D02*
X47008Y-25236D01*
X45197Y-21689D02*
X45197Y-23425D01*
X47008Y-26536D02*
X47008Y-25236D01*
X45197Y-19921D02*
X45197Y-19255D01*
X45197Y-19921D02*
X45394Y-20118D01*
X45000Y-23859D02*
X45000Y-21689D01*
X45000Y-23859D02*
X46850Y-25709D01*
X46850Y-25709D02*
X46850Y-26772D01*
X44882Y-20157D02*
X44882Y-20590D01*
X45000Y-20039D02*
X45000Y-19255D01*
X45000Y-20039D02*
X44882Y-20157D01*
X44882Y-20590D02*
X45394Y-21102D01*
X44803Y-21689D02*
X44803Y-23937D01*
X46653Y-26968D02*
X46850Y-27165D01*
X44803Y-23937D02*
X46653Y-25787D01*
X46653Y-25787D02*
X46653Y-26968D01*
X44803Y-19764D02*
X44606Y-19961D01*
X44803Y-19764D02*
X44803Y-19255D01*
X44607Y-21689D02*
X44607Y-24016D01*
X46457Y-25866D02*
X46457Y-26772D01*
X44607Y-24016D02*
X46457Y-25866D01*
X44607Y-19684D02*
X44607Y-19255D01*
X44607Y-19684D02*
X44606Y-19685D01*
X49725Y-19684D02*
X49725Y-19255D01*
X49725Y-19684D02*
X49724Y-19685D01*
X44409Y-22126D02*
X44410Y-22086D01*
X44410Y-22086D02*
X44410Y-21689D01*
X44410Y-19684D02*
X44291Y-19803D01*
X44410Y-19255D02*
X44410Y-19684D01*
X49528Y-22440D02*
X49528Y-21689D01*
X49528Y-22440D02*
X49527Y-22441D01*
X49528Y-19882D02*
X49842Y-20196D01*
X49842Y-20196D02*
X49842Y-20590D01*
X50787Y-27165D02*
X51181Y-26771D01*
X49528Y-19882D02*
X49528Y-19255D01*
X51181Y-21929D02*
X51181Y-26771D01*
X49842Y-20590D02*
X51181Y-21929D01*
X49331Y-22520D02*
X49331Y-21689D01*
X49331Y-22520D02*
X49527Y-22716D01*
X49331Y-19961D02*
X49331Y-19255D01*
X50787Y-26772D02*
X50984Y-26575D01*
X49646Y-20670D02*
X50984Y-22008D01*
X49331Y-19961D02*
X49646Y-20276D01*
X49646Y-20276D02*
X49646Y-20670D01*
X50984Y-22008D02*
X50984Y-26575D01*
X50787Y-29134D02*
X50787Y-29154D01*
X50000Y-28740D02*
X50000Y-28760D01*
X49212Y-28740D02*
X49212Y-28748D01*
X50787Y-28740D02*
X50787Y-28732D01*
X57834Y-29921D02*
X64685Y-23070D01*
X64685Y-23070D02*
X64685Y-21689D01*
X57834Y-29921D02*
X55905Y-29921D01*
X64685Y-20000D02*
X64685Y-19255D01*
X57403Y-28976D02*
X63504Y-22875D01*
X63504Y-22875D02*
X63504Y-21689D01*
X56141Y-28976D02*
X55905Y-28740D01*
X57403Y-28976D02*
X56141Y-28976D01*
X63504Y-19255D02*
X63504Y-20000D01*
X55512Y-28346D02*
X55709Y-28543D01*
X56063Y-28543D02*
X56102Y-28504D01*
X56102Y-28504D02*
X57599Y-28504D01*
X63307Y-22796D02*
X63307Y-21689D01*
X55709Y-28543D02*
X56063Y-28543D01*
X57599Y-28504D02*
X63307Y-22796D01*
X63307Y-19255D02*
X63307Y-19685D01*
X55905Y-28346D02*
X57481Y-28346D01*
X63110Y-22717D02*
X63110Y-21689D01*
X57481Y-28346D02*
X63110Y-22717D01*
X63110Y-19255D02*
X63110Y-20000D01*
X55709Y-28150D02*
X57402Y-28150D01*
X57402Y-28150D02*
X62914Y-22638D01*
X62914Y-22638D02*
X62914Y-21689D01*
X55512Y-27953D02*
X55709Y-28150D01*
X62914Y-19255D02*
X62913Y-19256D01*
X62913Y-19256D02*
X62913Y-19685D01*
X55905Y-27953D02*
X57322Y-27953D01*
X62717Y-22558D02*
X62717Y-21689D01*
X57322Y-27953D02*
X62717Y-22558D01*
X62717Y-19255D02*
X62716Y-19256D01*
X62716Y-19256D02*
X62716Y-20000D01*
X55709Y-29724D02*
X57757Y-29724D01*
X55512Y-29527D02*
X55709Y-29724D01*
X57757Y-29724D02*
X64488Y-22993D01*
X64488Y-22993D02*
X64488Y-21689D01*
X55709Y-27756D02*
X57242Y-27756D01*
X57242Y-27756D02*
X62323Y-22675D01*
X55512Y-27559D02*
X55709Y-27756D01*
X62323Y-22675D02*
X62323Y-21689D01*
X62323Y-19255D02*
X62323Y-20000D01*
X57165Y-27559D02*
X62126Y-22598D01*
X55905Y-27559D02*
X57165Y-27559D01*
X62126Y-22598D02*
X62126Y-21689D01*
X62126Y-19255D02*
X62126Y-19685D01*
X61929Y-22519D02*
X61929Y-21689D01*
X55512Y-27165D02*
X55709Y-27362D01*
X57086Y-27362D02*
X61929Y-22519D01*
X55709Y-27362D02*
X57086Y-27362D01*
X61929Y-19255D02*
X61929Y-20000D01*
X55905Y-27165D02*
X57008Y-27165D01*
X61732Y-22441D02*
X57008Y-27165D01*
X61732Y-21689D02*
X61732Y-22441D01*
X61732Y-19255D02*
X61732Y-19685D01*
X61536Y-22361D02*
X56929Y-26968D01*
X56101Y-26968D02*
X56929Y-26968D01*
X61536Y-21689D02*
X61536Y-22361D01*
X55905Y-26772D02*
X56101Y-26968D01*
X61535Y-19256D02*
X61535Y-20000D01*
X61536Y-19255D02*
X61535Y-19256D01*
X64488Y-19685D02*
X64488Y-19255D01*
X61142Y-22480D02*
X61142Y-21689D01*
X61142Y-19255D02*
X61142Y-20000D01*
X60945Y-21689D02*
X60945Y-22126D01*
X60945Y-19255D02*
X60945Y-19685D01*
X60748Y-22480D02*
X60748Y-21689D01*
X60748Y-19255D02*
X60748Y-20000D01*
X60551Y-22126D02*
X60551Y-21689D01*
X60551Y-19255D02*
X60551Y-19685D01*
X60355Y-22282D02*
X60355Y-21689D01*
X60355Y-22282D02*
X60354Y-22283D01*
X60355Y-19255D02*
X60354Y-19256D01*
X60354Y-19256D02*
X60354Y-20000D01*
X64292Y-22913D02*
X64292Y-21689D01*
X57678Y-29527D02*
X64292Y-22913D01*
X57678Y-29527D02*
X55905Y-29527D01*
X60158Y-21689D02*
X60158Y-22479D01*
X60158Y-22479D02*
X60157Y-22480D01*
X60158Y-19255D02*
X60157Y-19256D01*
X60157Y-19256D02*
X60157Y-19685D01*
X64291Y-19256D02*
X64292Y-19255D01*
X64291Y-19256D02*
X64291Y-20000D01*
X57597Y-29331D02*
X64095Y-22833D01*
X55709Y-29331D02*
X57597Y-29331D01*
X55512Y-29134D02*
X55709Y-29331D01*
X64095Y-22833D02*
X64095Y-21689D01*
X64094Y-19256D02*
X64094Y-19685D01*
X64094Y-19256D02*
X64095Y-19255D01*
X57520Y-29134D02*
X63898Y-22756D01*
X63898Y-22756D02*
X63898Y-21689D01*
X55905Y-29134D02*
X57520Y-29134D01*
X63898Y-20000D02*
X63898Y-19255D01*
X58582Y-29567D02*
X59567Y-29567D01*
X57047Y-31102D02*
X58582Y-29567D01*
X65708Y-31535D02*
X64716Y-31535D01*
X64370Y-32480D02*
X64370Y-31881D01*
X65748Y-28504D02*
X66181Y-28937D01*
X65708Y-31535D02*
X66181Y-31062D01*
X64370Y-31881D02*
X64401Y-31850D01*
X60630Y-28504D02*
X65748Y-28504D01*
X66181Y-28937D02*
X66181Y-31062D01*
X59567Y-29567D02*
X60630Y-28504D01*
X55118Y-31102D02*
X57047Y-31102D01*
X64716Y-31535D02*
X64401Y-31850D01*
X53937Y-30315D02*
X53917Y-30315D01*
X54331Y-29527D02*
X54331Y-29547D01*
X55512Y-30315D02*
X55512Y-30323D01*
X53937Y-30709D02*
X53945Y-30709D01*
G54D39*
X54134Y-31299D02*
X53937Y-31102D01*
X54705Y-31674D02*
X54330Y-31299D01*
G54D36*
X53543Y-33858D02*
X53543Y-33878D01*
G54D39*
X54330Y-31299D02*
X54134Y-31299D01*
G54D36*
X53543Y-29134D02*
X53543Y-29154D01*
X48819Y-33858D02*
X48819Y-33878D01*
G54D39*
X54705Y-31732D02*
X54705Y-31674D01*
G54D36*
X48819Y-29134D02*
X48819Y-29114D01*
X47638Y-34646D02*
X48039Y-34646D01*
X42796Y-31181D02*
X42835Y-31220D01*
X42559Y-31417D02*
X42638Y-31417D01*
X42835Y-31220D02*
X42835Y-31378D01*
X42638Y-31417D02*
X42677Y-31378D01*
X40945Y-31260D02*
X41024Y-31181D01*
X42520Y-31259D02*
X42520Y-31378D01*
X43150Y-31220D02*
X43150Y-31378D01*
X46850Y-32283D02*
X45510Y-32283D01*
X42835Y-31378D02*
X42874Y-31417D01*
X42953Y-31417D02*
X42992Y-31378D01*
X44644Y-31417D02*
X45510Y-32283D01*
X42992Y-31220D02*
X43031Y-31181D01*
X43031Y-31181D02*
X43111Y-31181D01*
X40945Y-33189D02*
X40945Y-31260D01*
X43150Y-31378D02*
X43189Y-31417D01*
X41024Y-31181D02*
X42442Y-31181D01*
X43189Y-31417D02*
X44644Y-31417D01*
X42442Y-31181D02*
X42520Y-31259D01*
X42874Y-31417D02*
X42953Y-31417D01*
X42992Y-31378D02*
X42992Y-31220D01*
X43111Y-31181D02*
X43150Y-31220D01*
X42716Y-31181D02*
X42796Y-31181D01*
X42520Y-31378D02*
X42559Y-31417D01*
X42677Y-31220D02*
X42716Y-31181D01*
X42677Y-31378D02*
X42677Y-31220D01*
X43701Y-31732D02*
X43779Y-31732D01*
X43464Y-31732D02*
X43504Y-31772D01*
X43189Y-31772D02*
X43189Y-31929D01*
X43504Y-31772D02*
X43504Y-31929D01*
X44645Y-31968D02*
X45354Y-32677D01*
X41417Y-31851D02*
X41536Y-31732D01*
X43819Y-31929D02*
X43858Y-31968D01*
X43071Y-31732D02*
X43149Y-31732D01*
X42874Y-31929D02*
X42913Y-31968D01*
X43976Y-31929D02*
X43976Y-31772D01*
X43622Y-31968D02*
X43661Y-31929D01*
X43504Y-31929D02*
X43543Y-31968D01*
X43228Y-31968D02*
X43307Y-31968D01*
X43346Y-31929D02*
X43346Y-31772D01*
X43819Y-31772D02*
X43819Y-31929D01*
X43307Y-31968D02*
X43346Y-31929D01*
X43661Y-31929D02*
X43661Y-31772D01*
X42992Y-31968D02*
X43031Y-31929D01*
X43031Y-31772D02*
X43071Y-31732D01*
X43149Y-31732D02*
X43189Y-31772D01*
X43346Y-31772D02*
X43386Y-31732D01*
X42913Y-31968D02*
X42992Y-31968D01*
X43543Y-31968D02*
X43622Y-31968D01*
X41417Y-33189D02*
X41417Y-31851D01*
X44212Y-31968D02*
X44645Y-31968D01*
X43386Y-31732D02*
X43464Y-31732D01*
X42794Y-31732D02*
X42874Y-31812D01*
X44016Y-31732D02*
X44094Y-31732D01*
X43779Y-31732D02*
X43819Y-31772D01*
X44134Y-31772D02*
X44134Y-31890D01*
X44094Y-31732D02*
X44134Y-31772D01*
X45354Y-32677D02*
X46457Y-32677D01*
X43031Y-31929D02*
X43031Y-31772D01*
X43661Y-31772D02*
X43701Y-31732D01*
X44134Y-31890D02*
X44212Y-31968D01*
X43937Y-31968D02*
X43976Y-31929D01*
X42874Y-31812D02*
X42874Y-31929D01*
X41536Y-31732D02*
X42794Y-31732D01*
X43976Y-31772D02*
X44016Y-31732D01*
X43858Y-31968D02*
X43937Y-31968D01*
X43189Y-31929D02*
X43228Y-31968D01*
X46653Y-34842D02*
X45276Y-34842D01*
X45276Y-34842D02*
X45079Y-35039D01*
X44016Y-35039D02*
X45079Y-35039D01*
X46850Y-35039D02*
X46653Y-34842D01*
X43819Y-35787D02*
X43819Y-35236D01*
X43819Y-35236D02*
X44016Y-35039D01*
X46221Y-34488D02*
X46457Y-34252D01*
X43976Y-34488D02*
X42677Y-35787D01*
X46221Y-34488D02*
X43976Y-34488D01*
X44646Y-35787D02*
X44764Y-35905D01*
X44764Y-35905D02*
X44961Y-35905D01*
X44961Y-35905D02*
X45433Y-35433D01*
X44645Y-35787D02*
X44646Y-35787D01*
X46457Y-35433D02*
X45433Y-35433D01*
X44686Y-36063D02*
X44646Y-36103D01*
X45472Y-35630D02*
X45039Y-36063D01*
X46850Y-35827D02*
X46653Y-35630D01*
X45472Y-35630D02*
X46653Y-35630D01*
X45039Y-36063D02*
X44686Y-36063D01*
X44646Y-36103D02*
X44646Y-36339D01*
X46457Y-36220D02*
X45354Y-36220D01*
X45354Y-36220D02*
X45157Y-36417D01*
X44842Y-36772D02*
X45078Y-36772D01*
X45078Y-36772D02*
X45157Y-36693D01*
X45157Y-36693D02*
X45157Y-36417D01*
X45000Y-36339D02*
X45512Y-35827D01*
X45512Y-35827D02*
X46457Y-35827D01*
X41968Y-31378D02*
X41968Y-31535D01*
X42165Y-31378D02*
X42245Y-31378D01*
X41338Y-31378D02*
X41338Y-31535D01*
X41968Y-31535D02*
X42008Y-31575D01*
X41929Y-31339D02*
X41968Y-31378D01*
X41220Y-31339D02*
X41299Y-31339D01*
X42008Y-31575D02*
X42087Y-31575D01*
X41496Y-31378D02*
X41535Y-31339D01*
X41850Y-31339D02*
X41929Y-31339D01*
X41299Y-31339D02*
X41338Y-31378D01*
X46850Y-32677D02*
X46653Y-32480D01*
X41457Y-31575D02*
X41496Y-31536D01*
X41653Y-31535D02*
X41693Y-31575D01*
X41772Y-31575D02*
X41811Y-31536D01*
X41614Y-31339D02*
X41653Y-31378D01*
X42087Y-31574D02*
X42126Y-31535D01*
X44529Y-31575D02*
X45434Y-32480D01*
X41811Y-31378D02*
X41850Y-31339D01*
X41811Y-31536D02*
X41811Y-31378D01*
X41496Y-31536D02*
X41496Y-31378D01*
X42126Y-31535D02*
X42126Y-31417D01*
X41535Y-31339D02*
X41614Y-31339D01*
X41181Y-31378D02*
X41220Y-31339D01*
X42087Y-31575D02*
X42087Y-31574D01*
X41653Y-31378D02*
X41653Y-31535D01*
X42245Y-31378D02*
X42442Y-31575D01*
X41693Y-31575D02*
X41772Y-31575D01*
X42126Y-31417D02*
X42165Y-31378D01*
X45434Y-32480D02*
X46653Y-32480D01*
X42442Y-31575D02*
X44529Y-31575D01*
X41338Y-31535D02*
X41378Y-31575D01*
X41378Y-31575D02*
X41457Y-31575D01*
X41181Y-33189D02*
X41181Y-31378D01*
X42598Y-31890D02*
X42677Y-31890D01*
X42087Y-31929D02*
X42087Y-32087D01*
X42559Y-31929D02*
X42598Y-31890D01*
X41929Y-32087D02*
X41929Y-31929D01*
X42362Y-31890D02*
X42401Y-31929D01*
X41653Y-31890D02*
X41732Y-31890D01*
X42401Y-32086D02*
X42441Y-32126D01*
X45315Y-32874D02*
X46653Y-32874D01*
X42244Y-32087D02*
X42244Y-31929D01*
X44527Y-32598D02*
X45039Y-32598D01*
X41771Y-32086D02*
X41811Y-32126D01*
X42441Y-32126D02*
X42520Y-32126D01*
X45039Y-32598D02*
X45315Y-32874D01*
X42716Y-32086D02*
X42756Y-32126D01*
X42559Y-32087D02*
X42559Y-31929D01*
X41968Y-31890D02*
X42048Y-31890D01*
X42716Y-31929D02*
X42716Y-32086D01*
X42126Y-32126D02*
X42205Y-32126D01*
X41929Y-31929D02*
X41968Y-31890D01*
X42087Y-32087D02*
X42126Y-32126D01*
X42520Y-32126D02*
X42559Y-32087D01*
X42283Y-31890D02*
X42362Y-31890D01*
X41811Y-32126D02*
X41890Y-32126D01*
X42205Y-32126D02*
X42244Y-32087D01*
X44449Y-32520D02*
X44527Y-32598D01*
X41614Y-31929D02*
X41614Y-33976D01*
X41732Y-31890D02*
X41771Y-31929D01*
X41890Y-32126D02*
X41929Y-32087D01*
X46850Y-33071D02*
X46653Y-32874D01*
X42244Y-31929D02*
X42283Y-31890D01*
X42048Y-31890D02*
X42087Y-31929D01*
X44449Y-32205D02*
X44449Y-32520D01*
X44370Y-32126D02*
X44449Y-32205D01*
X42401Y-31929D02*
X42401Y-32086D01*
X41771Y-31929D02*
X41771Y-32086D01*
X42677Y-31890D02*
X42716Y-31929D01*
X41614Y-31929D02*
X41653Y-31890D01*
X42756Y-32126D02*
X44370Y-32126D01*
X44725Y-32992D02*
X44803Y-32992D01*
X44566Y-32756D02*
X44645Y-32756D01*
X44291Y-32323D02*
X44291Y-32598D01*
X43661Y-32362D02*
X43661Y-32480D01*
X45000Y-32795D02*
X45000Y-32992D01*
X43779Y-32520D02*
X43819Y-32480D01*
X45000Y-32992D02*
X45079Y-33071D01*
X43582Y-32283D02*
X43661Y-32362D01*
X44685Y-32795D02*
X44685Y-32952D01*
X44803Y-32992D02*
X44842Y-32953D01*
X44685Y-32952D02*
X44725Y-32992D01*
X44842Y-32796D02*
X44882Y-32756D01*
X44331Y-32638D02*
X44331Y-32914D01*
X44016Y-32520D02*
X44094Y-32520D01*
X41929Y-32283D02*
X43582Y-32283D01*
X44961Y-32756D02*
X45000Y-32795D01*
X43976Y-32480D02*
X44016Y-32520D01*
X43819Y-32480D02*
X43819Y-32322D01*
X44094Y-32520D02*
X44134Y-32480D01*
X45079Y-33071D02*
X46457Y-33071D01*
X44409Y-32992D02*
X44488Y-32992D01*
X43858Y-32283D02*
X43936Y-32283D01*
X44251Y-32283D02*
X44291Y-32323D01*
X43661Y-32480D02*
X43701Y-32520D01*
X44527Y-32795D02*
X44566Y-32756D01*
X43976Y-32323D02*
X43976Y-32480D01*
X43936Y-32283D02*
X43976Y-32323D01*
X41850Y-33976D02*
X41850Y-32362D01*
X44882Y-32756D02*
X44961Y-32756D01*
X44488Y-32992D02*
X44527Y-32953D01*
X44291Y-32598D02*
X44331Y-32638D01*
X44134Y-32480D02*
X44134Y-32322D01*
X44173Y-32283D02*
X44251Y-32283D01*
X44134Y-32322D02*
X44173Y-32283D01*
X44645Y-32756D02*
X44685Y-32795D01*
X44842Y-32953D02*
X44842Y-32796D01*
X44331Y-32914D02*
X44409Y-32992D01*
X43701Y-32520D02*
X43779Y-32520D01*
X41850Y-32362D02*
X41929Y-32283D01*
X43819Y-32322D02*
X43858Y-32283D01*
X44527Y-32953D02*
X44527Y-32795D01*
X42716Y-32480D02*
X42755Y-32441D01*
X46850Y-33465D02*
X46653Y-33268D01*
X42559Y-32480D02*
X42559Y-32638D01*
X43189Y-32480D02*
X43189Y-32638D01*
X42874Y-32638D02*
X42913Y-32677D01*
X43346Y-32481D02*
X43386Y-32441D01*
X42087Y-32480D02*
X42126Y-32441D01*
X42244Y-32480D02*
X42244Y-32638D01*
X44334Y-33150D02*
X44763Y-33150D01*
X42440Y-32441D02*
X42520Y-32441D01*
X43307Y-32677D02*
X43346Y-32638D01*
X42283Y-32677D02*
X42362Y-32677D01*
X42755Y-32441D02*
X42835Y-32441D01*
X42520Y-32441D02*
X42559Y-32480D01*
X43149Y-32440D02*
X43189Y-32480D01*
X42992Y-32677D02*
X43031Y-32638D01*
X44174Y-32796D02*
X44174Y-32990D01*
X43071Y-32440D02*
X43149Y-32440D01*
X42835Y-32441D02*
X42874Y-32480D01*
X42874Y-32480D02*
X42874Y-32638D01*
X42716Y-32638D02*
X42716Y-32480D01*
X44055Y-32677D02*
X44174Y-32796D01*
X43386Y-32441D02*
X43465Y-32441D01*
X43504Y-32599D02*
X43582Y-32677D01*
X42598Y-32677D02*
X42677Y-32677D01*
X42205Y-32441D02*
X42244Y-32480D01*
X43189Y-32638D02*
X43228Y-32677D01*
X42244Y-32638D02*
X42283Y-32677D01*
X42362Y-32677D02*
X42401Y-32638D01*
X43346Y-32638D02*
X43346Y-32481D01*
X43504Y-32480D02*
X43504Y-32599D01*
X44174Y-32990D02*
X44334Y-33150D01*
X43228Y-32677D02*
X43307Y-32677D01*
X43031Y-32480D02*
X43071Y-32440D01*
X42677Y-32677D02*
X42716Y-32638D01*
X43031Y-32638D02*
X43031Y-32480D01*
X42126Y-32441D02*
X42205Y-32441D01*
X42559Y-32638D02*
X42598Y-32677D01*
X42401Y-32480D02*
X42440Y-32441D01*
X42913Y-32677D02*
X42992Y-32677D01*
X44881Y-33268D02*
X46653Y-33268D01*
X43465Y-32441D02*
X43504Y-32480D01*
X42087Y-33976D02*
X42087Y-32480D01*
X42401Y-32638D02*
X42401Y-32480D01*
X43582Y-32677D02*
X44055Y-32677D01*
X44763Y-33150D02*
X44881Y-33268D01*
X43110Y-33071D02*
X43188Y-33071D01*
X42558Y-33071D02*
X42598Y-33031D01*
X42402Y-32835D02*
X42441Y-32874D01*
X42283Y-34527D02*
X42283Y-32874D01*
X43386Y-33032D02*
X43425Y-33071D01*
X43741Y-33071D02*
X43819Y-33071D01*
X43543Y-33031D02*
X43543Y-32875D01*
X43858Y-33031D02*
X43858Y-32875D01*
X43228Y-32875D02*
X43268Y-32835D01*
X43504Y-33071D02*
X43504Y-33070D01*
X43268Y-32835D02*
X43347Y-32835D01*
X42283Y-32874D02*
X42284Y-32874D01*
X42953Y-32835D02*
X43032Y-32835D01*
X42323Y-32835D02*
X42402Y-32835D01*
X43583Y-32835D02*
X43662Y-32835D01*
X43228Y-33031D02*
X43228Y-32875D01*
X43425Y-33071D02*
X43504Y-33071D01*
X42913Y-33031D02*
X42913Y-32875D01*
X43898Y-32835D02*
X43977Y-32835D01*
X42795Y-33071D02*
X42873Y-33071D01*
X43819Y-33070D02*
X43858Y-33031D01*
X43032Y-32835D02*
X43071Y-32874D01*
X42598Y-33031D02*
X42598Y-32875D01*
X42717Y-32835D02*
X42756Y-32874D01*
X42598Y-32875D02*
X42638Y-32835D01*
X43347Y-32835D02*
X43386Y-32874D01*
X42756Y-32874D02*
X42756Y-33032D01*
X43701Y-32874D02*
X43701Y-33031D01*
X42756Y-33032D02*
X42795Y-33071D01*
X42913Y-32875D02*
X42953Y-32835D01*
X42873Y-33071D02*
X42913Y-33031D01*
X43543Y-32875D02*
X43583Y-32835D01*
X42441Y-32874D02*
X42441Y-33032D01*
X43386Y-32874D02*
X43386Y-33032D01*
X43071Y-33032D02*
X43110Y-33071D01*
X43662Y-32835D02*
X43701Y-32874D01*
X44802Y-33465D02*
X46457Y-33465D01*
X42441Y-33032D02*
X42480Y-33071D01*
X42480Y-33071D02*
X42558Y-33071D01*
X42284Y-32874D02*
X42323Y-32835D01*
X42638Y-32835D02*
X42717Y-32835D01*
X43858Y-32875D02*
X43898Y-32835D01*
X43819Y-33071D02*
X43819Y-33070D01*
X44016Y-32874D02*
X44016Y-33071D01*
X43701Y-33031D02*
X43741Y-33071D01*
X43071Y-32874D02*
X43071Y-33032D01*
X43188Y-33071D02*
X43228Y-33031D01*
X43977Y-32835D02*
X44016Y-32874D01*
X44644Y-33307D02*
X44802Y-33465D01*
X44016Y-33071D02*
X44252Y-33307D01*
X43504Y-33070D02*
X43543Y-33031D01*
X44252Y-33307D02*
X44644Y-33307D01*
X44094Y-33976D02*
X44134Y-34016D01*
X43189Y-34015D02*
X43150Y-33976D01*
X43622Y-33977D02*
X43583Y-34016D01*
X43110Y-33779D02*
X43032Y-33779D01*
X44369Y-33779D02*
X44409Y-33819D01*
X46850Y-33858D02*
X46673Y-34035D01*
X43464Y-33818D02*
X43425Y-33779D01*
X44055Y-33779D02*
X43977Y-33779D01*
X43032Y-33779D02*
X42992Y-33819D01*
X43898Y-34016D02*
X43819Y-34016D01*
X43740Y-33779D02*
X43662Y-33779D01*
X43779Y-33818D02*
X43740Y-33779D01*
X43189Y-34016D02*
X43189Y-34015D01*
X44291Y-33779D02*
X44369Y-33779D01*
X44212Y-34016D02*
X44252Y-33976D01*
X44134Y-34016D02*
X44212Y-34016D01*
X44094Y-33818D02*
X44055Y-33779D01*
X42992Y-33819D02*
X42992Y-34055D01*
X43622Y-33819D02*
X43622Y-33977D01*
X43464Y-33976D02*
X43464Y-33818D01*
X42992Y-34527D02*
X43110Y-34409D01*
X44468Y-34035D02*
X46673Y-34035D01*
X44094Y-33976D02*
X44094Y-33818D01*
X43662Y-33779D02*
X43622Y-33819D01*
X44409Y-33819D02*
X44409Y-33976D01*
X44252Y-33976D02*
X44252Y-33818D01*
X44252Y-33818D02*
X44291Y-33779D01*
X43819Y-34016D02*
X43779Y-33976D01*
X43779Y-33976D02*
X43779Y-33818D01*
X43307Y-33819D02*
X43307Y-33977D01*
X44409Y-33976D02*
X44468Y-34035D01*
X43504Y-34016D02*
X43464Y-33976D01*
X43307Y-33977D02*
X43268Y-34016D01*
X43583Y-34016D02*
X43504Y-34016D01*
X43150Y-33976D02*
X43150Y-33819D01*
X43937Y-33977D02*
X43898Y-34016D01*
X43425Y-33779D02*
X43347Y-33779D01*
X43977Y-33779D02*
X43937Y-33819D01*
X43347Y-33779D02*
X43307Y-33819D01*
X43110Y-34409D02*
X43110Y-34173D01*
X43110Y-34173D02*
X42992Y-34055D01*
X43937Y-33819D02*
X43937Y-33977D01*
X43268Y-34016D02*
X43189Y-34016D01*
X43150Y-33819D02*
X43110Y-33779D01*
X42952Y-33228D02*
X42992Y-33268D01*
X42677Y-33268D02*
X42677Y-33426D01*
X46457Y-33858D02*
X46260Y-33661D01*
X43582Y-33228D02*
X43622Y-33268D01*
X43740Y-33465D02*
X43740Y-33464D01*
X43424Y-33465D02*
X43464Y-33425D01*
X43622Y-33426D02*
X43661Y-33465D01*
X43346Y-33465D02*
X43424Y-33465D01*
X43622Y-33268D02*
X43622Y-33426D01*
X43740Y-33464D02*
X43779Y-33425D01*
X43150Y-33425D02*
X43150Y-33267D01*
X42677Y-33426D02*
X42716Y-33465D01*
X43661Y-33465D02*
X43740Y-33465D01*
X43779Y-33268D02*
X43819Y-33228D01*
X43464Y-33425D02*
X43464Y-33268D01*
X43267Y-33228D02*
X43307Y-33268D01*
X46260Y-33661D02*
X44763Y-33661D01*
X43110Y-33465D02*
X43150Y-33425D01*
X42992Y-33426D02*
X43031Y-33465D01*
X42520Y-33267D02*
X42559Y-33228D01*
X42716Y-33465D02*
X42795Y-33465D01*
X43031Y-33465D02*
X43110Y-33465D01*
X43189Y-33228D02*
X43267Y-33228D01*
X44567Y-33465D02*
X44763Y-33661D01*
X43937Y-33268D02*
X43937Y-33425D01*
X43897Y-33228D02*
X43937Y-33268D01*
X43307Y-33426D02*
X43346Y-33465D01*
X43977Y-33465D02*
X44567Y-33465D01*
X42559Y-33228D02*
X42637Y-33228D01*
X42835Y-33425D02*
X42835Y-33267D01*
X43504Y-33228D02*
X43582Y-33228D01*
X43150Y-33267D02*
X43189Y-33228D01*
X43464Y-33268D02*
X43504Y-33228D01*
X43819Y-33228D02*
X43897Y-33228D01*
X42992Y-33268D02*
X42992Y-33426D01*
X43779Y-33425D02*
X43779Y-33268D01*
X42637Y-33228D02*
X42677Y-33268D01*
X43307Y-33268D02*
X43307Y-33426D01*
X42520Y-34527D02*
X42520Y-33267D01*
X43937Y-33425D02*
X43977Y-33465D01*
X42835Y-33267D02*
X42874Y-33228D01*
X42874Y-33228D02*
X42952Y-33228D01*
X42795Y-33465D02*
X42835Y-33425D01*
X44961Y-34882D02*
X45000Y-34843D01*
X43268Y-35590D02*
X43268Y-35747D01*
X44685Y-34685D02*
X44724Y-34646D01*
X43425Y-35748D02*
X43425Y-35590D01*
X44409Y-34646D02*
X44488Y-34646D01*
X44842Y-34842D02*
X44882Y-34882D01*
X44212Y-34685D02*
X44212Y-34842D01*
X44370Y-34842D02*
X44370Y-34685D01*
X44212Y-34842D02*
X44252Y-34882D01*
X45000Y-34843D02*
X45000Y-34685D01*
X44646Y-34882D02*
X44685Y-34843D01*
X44527Y-34685D02*
X44527Y-34842D01*
X44527Y-34842D02*
X44567Y-34882D01*
X44370Y-34685D02*
X44409Y-34646D01*
X42953Y-35787D02*
X43228Y-35787D01*
X44527Y-34685D02*
X44488Y-34646D01*
X43464Y-35787D02*
X43425Y-35748D01*
X43268Y-35747D02*
X43228Y-35787D01*
X44567Y-34882D02*
X44646Y-34882D01*
X44016Y-34881D02*
X43859Y-34881D01*
X43307Y-35551D02*
X43268Y-35590D01*
X44173Y-34646D02*
X44212Y-34685D01*
X43425Y-35590D02*
X43386Y-35551D01*
X44055Y-34685D02*
X44055Y-34842D01*
X43543Y-35787D02*
X43464Y-35787D01*
X43466Y-35355D02*
X43583Y-35472D01*
X44685Y-34843D02*
X44685Y-34685D01*
X43464Y-35355D02*
X43466Y-35355D01*
X44882Y-34882D02*
X44961Y-34882D01*
X44055Y-34842D02*
X44016Y-34881D01*
X44842Y-34685D02*
X44803Y-34646D01*
X44842Y-34685D02*
X44842Y-34842D01*
X44252Y-34882D02*
X44330Y-34882D01*
X43583Y-35747D02*
X43543Y-35787D01*
X43464Y-35276D02*
X43859Y-34881D01*
X44724Y-34646D02*
X44803Y-34646D01*
X45039Y-34646D02*
X46457Y-34646D01*
X44330Y-34882D02*
X44370Y-34842D01*
X44094Y-34646D02*
X44173Y-34646D01*
X43464Y-35355D02*
X43464Y-35276D01*
X43386Y-35551D02*
X43307Y-35551D01*
X44055Y-34685D02*
X44094Y-34646D01*
X45000Y-34685D02*
X45039Y-34646D01*
X43583Y-35472D02*
X43583Y-35747D01*
X46850Y-35433D02*
X46653Y-35236D01*
X45000Y-35394D02*
X45078Y-35472D01*
X44922Y-35393D02*
X44882Y-35433D01*
X46653Y-35236D02*
X45393Y-35236D01*
X44369Y-35630D02*
X44369Y-35787D01*
X45000Y-35393D02*
X44922Y-35393D01*
X45157Y-35472D02*
X45393Y-35236D01*
X45000Y-35393D02*
X45000Y-35394D01*
X44409Y-35590D02*
X44369Y-35630D01*
X44882Y-35551D02*
X44843Y-35590D01*
X44843Y-35590D02*
X44409Y-35590D01*
X44882Y-35433D02*
X44882Y-35551D01*
X45078Y-35472D02*
X45157Y-35472D01*
X46457Y-35039D02*
X45355Y-35039D01*
X45197Y-35197D02*
X45355Y-35039D01*
X44685Y-35394D02*
X44724Y-35354D01*
X44764Y-35197D02*
X45197Y-35197D01*
X44292Y-35433D02*
X44370Y-35433D01*
X44252Y-35394D02*
X44292Y-35433D01*
X44213Y-35197D02*
X44252Y-35236D01*
X44409Y-35236D02*
X44449Y-35197D01*
X44449Y-35197D02*
X44528Y-35197D01*
X44094Y-35237D02*
X44134Y-35197D01*
X44724Y-35236D02*
X44764Y-35197D01*
X44724Y-35354D02*
X44724Y-35236D01*
X44094Y-35787D02*
X44094Y-35237D01*
X44567Y-35354D02*
X44607Y-35394D01*
X44528Y-35197D02*
X44567Y-35237D01*
X44370Y-35433D02*
X44409Y-35394D01*
X44252Y-35236D02*
X44252Y-35394D01*
X44567Y-35237D02*
X44567Y-35354D01*
X44409Y-35394D02*
X44409Y-35236D01*
X44134Y-35197D02*
X44213Y-35197D01*
X44607Y-35394D02*
X44685Y-35394D01*
X43937Y-31221D02*
X43976Y-31260D01*
X43464Y-31220D02*
X43464Y-31064D01*
X44370Y-31260D02*
X44370Y-31259D01*
X44409Y-31220D02*
X44409Y-31063D01*
X43504Y-31024D02*
X43583Y-31024D01*
X43229Y-31024D02*
X43307Y-31102D01*
X43779Y-31064D02*
X43819Y-31024D01*
X44134Y-31024D02*
X44213Y-31024D01*
X43346Y-31260D02*
X43424Y-31260D01*
X44448Y-31024D02*
X44527Y-31024D01*
X45000Y-31496D02*
X46456Y-31496D01*
X43307Y-31221D02*
X43346Y-31260D01*
X44252Y-31063D02*
X44252Y-31221D01*
X43739Y-31260D02*
X43779Y-31220D01*
X44291Y-31260D02*
X44370Y-31260D01*
X43622Y-31221D02*
X43661Y-31260D01*
X40709Y-31141D02*
X40826Y-31024D01*
X43424Y-31260D02*
X43464Y-31220D01*
X44252Y-31221D02*
X44291Y-31260D01*
X44566Y-31063D02*
X44566Y-31179D01*
X40826Y-31024D02*
X43229Y-31024D01*
X40709Y-33189D02*
X40709Y-31141D01*
X43307Y-31102D02*
X43307Y-31221D01*
X44763Y-31259D02*
X45000Y-31496D01*
X44054Y-31260D02*
X44094Y-31220D01*
X43583Y-31024D02*
X43622Y-31063D01*
X43976Y-31260D02*
X44054Y-31260D01*
X46850Y-31890D02*
X46456Y-31496D01*
X43622Y-31063D02*
X43622Y-31221D01*
X43464Y-31064D02*
X43504Y-31024D01*
X43898Y-31024D02*
X43937Y-31063D01*
X44646Y-31259D02*
X44763Y-31259D01*
X44370Y-31259D02*
X44409Y-31220D01*
X44094Y-31064D02*
X44134Y-31024D01*
X44527Y-31024D02*
X44566Y-31063D01*
X44213Y-31024D02*
X44252Y-31063D01*
X43819Y-31024D02*
X43898Y-31024D01*
X44409Y-31063D02*
X44448Y-31024D01*
X44566Y-31179D02*
X44646Y-31259D01*
X43779Y-31220D02*
X43779Y-31064D01*
X43937Y-31063D02*
X43937Y-31221D01*
X43661Y-31260D02*
X43739Y-31260D01*
X44094Y-31220D02*
X44094Y-31064D01*
X33120Y-35038D02*
X33466Y-35038D01*
X35197Y-35118D02*
X35315Y-35236D01*
X33543Y-34843D02*
X33622Y-34764D01*
X33543Y-34961D02*
X33543Y-34843D01*
X35315Y-35236D02*
X35503Y-35236D01*
X34822Y-35059D02*
X34872Y-35059D01*
X34931Y-35118D02*
X35197Y-35118D01*
X34527Y-34764D02*
X34822Y-35059D01*
X35503Y-35236D02*
X35590Y-35323D01*
X33466Y-35038D02*
X33543Y-34961D01*
X34872Y-35059D02*
X34931Y-35118D01*
X33622Y-34764D02*
X34527Y-34764D01*
X66338Y-21220D02*
X67953Y-22835D01*
X65748Y-21220D02*
X66338Y-21220D01*
X68740Y-26937D02*
X68692Y-26937D01*
X42480Y-38268D02*
X45432Y-38268D01*
X67323Y-33976D02*
X65039Y-36260D01*
X67953Y-23189D02*
X68111Y-23347D01*
X47244Y-36220D02*
X47047Y-36417D01*
X67953Y-22835D02*
X67953Y-23189D01*
X68464Y-27954D02*
X68190Y-28228D01*
X67323Y-33779D02*
X67323Y-33976D01*
X39016Y-41732D02*
X42480Y-38268D01*
X64803Y-36260D02*
X64567Y-36024D01*
X46771Y-36417D02*
X46653Y-36535D01*
X65669Y-21299D02*
X65748Y-21220D01*
X39016Y-42992D02*
X38858Y-43150D01*
X65669Y-21689D02*
X65669Y-21299D01*
X68190Y-28228D02*
X68190Y-32912D01*
X47047Y-36417D02*
X46771Y-36417D01*
X65039Y-36260D02*
X64803Y-36260D01*
X68740Y-24290D02*
X68111Y-23661D01*
X68190Y-32912D02*
X67323Y-33779D01*
X46653Y-36535D02*
X46653Y-37047D01*
X45432Y-38268D02*
X46653Y-37047D01*
X68740Y-26937D02*
X68740Y-24290D01*
X39016Y-42992D02*
X39016Y-41732D01*
X68111Y-23347D02*
X68111Y-23661D01*
X68464Y-27165D02*
X68464Y-27954D01*
X68692Y-26937D02*
X68464Y-27165D01*
X39252Y-41812D02*
X39252Y-43150D01*
X45511Y-38504D02*
X46850Y-37165D01*
X67874Y-32401D02*
X66811Y-33464D01*
X68110Y-27166D02*
X68110Y-27835D01*
X42560Y-38504D02*
X45511Y-38504D01*
X67835Y-26338D02*
X68031Y-26142D01*
X66811Y-34174D02*
X64961Y-36024D01*
X67677Y-24016D02*
X68031Y-24370D01*
X68031Y-24370D02*
X68031Y-26142D01*
X46850Y-37165D02*
X46850Y-36614D01*
X67912Y-23465D02*
X67677Y-23700D01*
X67677Y-23700D02*
X67677Y-24016D01*
X66532Y-21689D02*
X67756Y-22913D01*
X68110Y-27835D02*
X67874Y-28071D01*
X67756Y-22913D02*
X67756Y-23307D01*
X67835Y-26937D02*
X67835Y-26338D01*
X39252Y-41812D02*
X42560Y-38504D01*
X67881Y-26937D02*
X68110Y-27166D01*
X67756Y-23307D02*
X67914Y-23465D01*
X65866Y-21689D02*
X66532Y-21689D01*
X67874Y-28071D02*
X67874Y-32401D01*
X67912Y-23465D02*
X67914Y-23465D01*
X66811Y-33464D02*
X66811Y-34174D01*
X67835Y-26937D02*
X67881Y-26937D01*
G54D37*
X63701Y-21689D02*
X63701Y-22126D01*
G54D36*
X54331Y-29901D02*
X54331Y-29921D01*
X61339Y-21261D02*
X61338Y-21260D01*
X56693Y-30709D02*
X56673Y-30709D01*
G54D37*
X62520Y-21689D02*
X62520Y-22126D01*
X61339Y-21689D02*
X61339Y-21261D01*
G54D36*
X61339Y-22125D02*
X61338Y-22126D01*
G54D37*
X64882Y-21689D02*
X64882Y-22126D01*
G54D36*
X56693Y-28740D02*
X56673Y-28740D01*
G54D37*
X62520Y-21689D02*
X62520Y-21260D01*
X61339Y-21689D02*
X61339Y-22125D01*
X64882Y-21689D02*
X64882Y-21260D01*
X63701Y-21689D02*
X63701Y-21260D01*
G54D36*
X53937Y-29921D02*
X53917Y-29921D01*
X55118Y-30709D02*
X55098Y-30709D01*
X55512Y-30701D02*
X55512Y-30709D01*
X55118Y-29527D02*
X55098Y-29527D01*
X56693Y-26378D02*
X56693Y-26398D01*
G54D37*
X57008Y-21689D02*
X57008Y-22126D01*
G54D36*
X54724Y-27559D02*
X54724Y-27579D01*
G54D37*
X55827Y-21689D02*
X55827Y-21260D01*
X54646Y-21689D02*
X54646Y-22126D01*
G54D36*
X53543Y-25984D02*
X53543Y-26004D01*
G54D37*
X53464Y-21688D02*
X53464Y-21260D01*
X57008Y-19255D02*
X57008Y-18819D01*
G54D36*
X51575Y-28732D02*
X51575Y-28740D01*
G54D37*
X57008Y-19255D02*
X57008Y-19685D01*
X54646Y-18819D02*
X54646Y-19255D01*
G54D36*
X56299Y-25984D02*
X56299Y-26004D01*
X53465Y-19255D02*
X53464Y-19254D01*
X53465Y-21689D02*
X53464Y-21688D01*
X53465Y-19255D02*
X53464Y-19256D01*
G54D37*
X57008Y-21689D02*
X57008Y-21260D01*
G54D36*
X51968Y-27559D02*
X51968Y-27579D01*
G54D37*
X55827Y-18819D02*
X55827Y-19255D01*
X53464Y-19254D02*
X53464Y-18819D01*
X55827Y-21689D02*
X55827Y-22126D01*
X54646Y-19255D02*
X54646Y-19685D01*
G54D36*
X55118Y-25984D02*
X55118Y-26004D01*
X52362Y-28720D02*
X52362Y-28740D01*
G54D37*
X53464Y-21690D02*
X53464Y-22126D01*
G54D36*
X53465Y-21689D02*
X53464Y-21690D01*
G54D37*
X55827Y-19255D02*
X55827Y-19685D01*
G54D36*
X53150Y-28732D02*
X53150Y-28740D01*
X52756Y-28740D02*
X52756Y-28760D01*
G54D37*
X54646Y-21689D02*
X54646Y-21260D01*
G54D36*
X51575Y-29134D02*
X51575Y-29154D01*
G54D37*
X53464Y-19256D02*
X53464Y-19685D01*
G54D36*
X53543Y-27559D02*
X53543Y-27579D01*
X51968Y-25984D02*
X51968Y-26004D01*
X45591Y-21689D02*
X45590Y-21690D01*
X45591Y-19255D02*
X45590Y-19256D01*
X50394Y-27559D02*
X50394Y-27579D01*
X47244Y-25984D02*
X47244Y-26004D01*
G54D37*
X46772Y-18819D02*
X46772Y-19255D01*
X46772Y-19255D02*
X46772Y-19685D01*
X47953Y-18819D02*
X47953Y-19255D01*
G54D36*
X49606Y-28740D02*
X49606Y-28760D01*
X47638Y-27559D02*
X47638Y-27579D01*
X50787Y-28354D02*
X50787Y-28346D01*
X50394Y-29134D02*
X50394Y-29154D01*
G54D37*
X47953Y-19255D02*
X47953Y-19685D01*
X45591Y-19255D02*
X45591Y-18859D01*
G54D36*
X48819Y-27559D02*
X48819Y-27579D01*
G54D37*
X45590Y-21690D02*
X45590Y-21260D01*
X47953Y-21689D02*
X47953Y-22126D01*
X45590Y-19256D02*
X45590Y-19685D01*
X49134Y-19255D02*
X49134Y-19685D01*
X46772Y-21689D02*
X46772Y-22126D01*
X49134Y-21689D02*
X49134Y-21260D01*
G54D36*
X46063Y-25984D02*
X46063Y-26004D01*
G54D37*
X46772Y-21689D02*
X46772Y-21260D01*
X49134Y-21689D02*
X49134Y-22126D01*
X45590Y-21690D02*
X45590Y-22126D01*
G54D36*
X48819Y-25984D02*
X48819Y-26004D01*
G54D37*
X47953Y-21689D02*
X47953Y-21260D01*
X49134Y-19255D02*
X49134Y-18819D01*
G54D36*
X50000Y-29114D02*
X50000Y-29134D01*
G54D37*
X45591Y-18859D02*
X45590Y-18819D01*
G54D36*
X50394Y-25984D02*
X50394Y-25964D01*
G54D37*
X63701Y-19255D02*
X63701Y-19685D01*
X61339Y-19255D02*
X61339Y-18820D01*
X64882Y-19255D02*
X64882Y-18819D01*
G54D36*
X61339Y-18820D02*
X61338Y-18819D01*
G54D37*
X61339Y-19255D02*
X61339Y-19684D01*
G54D36*
X61339Y-19684D02*
X61338Y-19685D01*
G54D37*
X62520Y-19255D02*
X62520Y-19685D01*
X63701Y-18819D02*
X63701Y-19255D01*
X64882Y-19255D02*
X64882Y-19685D01*
X62520Y-19255D02*
X62520Y-18819D01*
G54D36*
X68346Y-34764D02*
X68669Y-34764D01*
X68779Y-37205D02*
X69488Y-36496D01*
X69488Y-36496D02*
X69488Y-34999D01*
X69488Y-34999D02*
X69331Y-34842D01*
X66378Y-37205D02*
X68779Y-37205D01*
X69331Y-34842D02*
X69331Y-33819D01*
X63819Y-34409D02*
X63661Y-34567D01*
X66969Y-36811D02*
X65079Y-36811D01*
X63661Y-35393D02*
X63661Y-34567D01*
X64409Y-34409D02*
X63819Y-34409D01*
X65079Y-36811D02*
X63661Y-35393D01*
X64527Y-34527D02*
X64409Y-34409D01*
X67087Y-36693D02*
X66969Y-36811D01*
X67008Y-28945D02*
X66701Y-28945D01*
X66701Y-28945D02*
X66693Y-28937D01*
X64016Y-36260D02*
X64449Y-36693D01*
X68071Y-37756D02*
X68386Y-37441D01*
X64960Y-37756D02*
X68071Y-37756D01*
X64449Y-37245D02*
X64960Y-37756D01*
X64449Y-36693D02*
X64449Y-37245D01*
X69283Y-28779D02*
X69567Y-28779D01*
X65819Y-31811D02*
X66102Y-31811D01*
X69283Y-30945D02*
X69567Y-30945D01*
X69283Y-29213D02*
X69567Y-29213D01*
X69283Y-30079D02*
X69567Y-30079D01*
X66976Y-28543D02*
X66693Y-28543D01*
X67008Y-28575D02*
X66976Y-28543D01*
X66803Y-30346D02*
X66693Y-30236D01*
X66803Y-30346D02*
X67008Y-30346D01*
X64449Y-38071D02*
X69212Y-38071D01*
X63701Y-36260D02*
X63464Y-36260D01*
X63307Y-36417D02*
X63307Y-36929D01*
X63307Y-36929D02*
X64449Y-38071D01*
X63464Y-36260D02*
X63307Y-36417D01*
X68346Y-34331D02*
X68669Y-34331D01*
X67008Y-36299D02*
X67331Y-36299D01*
X42126Y-25354D02*
X42323Y-25551D01*
X42323Y-25551D02*
X42449Y-25551D01*
X42449Y-25551D02*
X42520Y-25622D01*
X42126Y-24724D02*
X42323Y-24527D01*
X42450Y-24527D02*
X42520Y-24457D01*
X42323Y-24527D02*
X42450Y-24527D01*
X60512Y-28346D02*
X65826Y-28346D01*
X65826Y-28346D02*
X66338Y-28858D01*
X59488Y-29370D02*
X60512Y-28346D01*
X66338Y-32205D02*
X66338Y-28858D01*
X65787Y-32756D02*
X66338Y-32205D01*
X68110Y-21851D02*
X68110Y-22677D01*
X68346Y-33072D02*
X68346Y-28307D01*
X68110Y-22677D02*
X69212Y-23779D01*
X67520Y-33898D02*
X68346Y-33072D01*
X68189Y-21024D02*
X68189Y-21772D01*
X69212Y-23779D02*
X69212Y-27441D01*
X69212Y-27441D02*
X68346Y-28307D01*
X68189Y-21772D02*
X68110Y-21851D01*
X34025Y-35728D02*
X34104Y-35807D01*
X34183Y-35728D02*
X34409Y-35728D01*
X33463Y-35550D02*
X33641Y-35728D01*
X33641Y-35728D02*
X34025Y-35728D01*
X33120Y-35550D02*
X33463Y-35550D01*
X34183Y-35728D02*
X34104Y-35807D01*
X34025Y-35138D02*
X34104Y-35059D01*
X33621Y-35138D02*
X34025Y-35138D01*
X33465Y-35294D02*
X33621Y-35138D01*
X34183Y-35138D02*
X34104Y-35059D01*
X34183Y-35138D02*
X34409Y-35138D01*
X33120Y-35294D02*
X33465Y-35294D01*
X46338Y-28346D02*
X46457Y-28346D01*
X46173Y-28150D02*
X46173Y-28181D01*
X46173Y-28181D02*
X46338Y-28346D01*
X41851Y-34724D02*
X41771Y-34724D01*
X41614Y-34488D02*
X41575Y-34527D01*
X42008Y-34488D02*
X41929Y-34488D01*
X42754Y-33782D02*
X42914Y-33622D01*
X42047Y-34527D02*
X42008Y-34488D01*
X41260Y-34685D02*
X40158Y-35787D01*
X41771Y-34724D02*
X41732Y-34685D01*
X41418Y-34607D02*
X41378Y-34567D01*
X42675Y-34724D02*
X42754Y-34645D01*
X42125Y-34724D02*
X42047Y-34646D01*
X44488Y-33622D02*
X44724Y-33858D01*
X41418Y-34685D02*
X41418Y-34607D01*
X41457Y-34724D02*
X41418Y-34685D01*
X41732Y-34527D02*
X41693Y-34488D01*
X41536Y-34724D02*
X41457Y-34724D01*
X41575Y-34685D02*
X41536Y-34724D01*
X42047Y-34646D02*
X42047Y-34527D01*
X41260Y-34606D02*
X41260Y-34685D01*
X41693Y-34488D02*
X41614Y-34488D01*
X41575Y-34527D02*
X41575Y-34685D01*
X41299Y-34567D02*
X41260Y-34606D01*
X41732Y-34685D02*
X41732Y-34527D01*
X44724Y-33858D02*
X46063Y-33858D01*
X42754Y-34645D02*
X42754Y-33782D01*
X41890Y-34527D02*
X41890Y-34685D01*
X41890Y-34685D02*
X41851Y-34724D01*
X41929Y-34488D02*
X41890Y-34527D01*
X42914Y-33622D02*
X44488Y-33622D01*
X42675Y-34724D02*
X42125Y-34724D01*
X41378Y-34567D02*
X41299Y-34567D01*
X33466Y-32912D02*
X33525Y-32853D01*
X33466Y-32912D02*
X33120Y-32912D01*
X34310Y-32853D02*
X34685Y-33228D01*
X33726Y-32853D02*
X33525Y-32853D01*
X33726Y-32853D02*
X34070Y-32853D01*
X34070Y-32853D02*
X34310Y-32853D01*
X34685Y-33228D02*
X35000Y-33228D01*
X35000Y-33228D02*
X35079Y-33150D01*
X33446Y-33168D02*
X33120Y-33168D01*
X33726Y-33050D02*
X34070Y-33050D01*
X34070Y-33050D02*
X34269Y-33050D01*
X33726Y-33050D02*
X33564Y-33050D01*
X34269Y-33050D02*
X34605Y-33386D01*
X35000Y-33386D02*
X35079Y-33465D01*
X33446Y-33168D02*
X33564Y-33050D01*
X34605Y-33386D02*
X35000Y-33386D01*
X35079Y-32205D02*
X35059Y-32185D01*
X33726Y-32262D02*
X33561Y-32262D01*
X33443Y-32144D02*
X33561Y-32262D01*
X34070Y-32262D02*
X34628Y-32262D01*
X34628Y-32262D02*
X34705Y-32185D01*
X33443Y-32144D02*
X33120Y-32144D01*
X33726Y-32262D02*
X34070Y-32262D01*
X35079Y-32520D02*
X35059Y-32539D01*
X34685Y-32520D02*
X34705Y-32539D01*
X33463Y-32400D02*
X33120Y-32400D01*
X33726Y-32459D02*
X34070Y-32459D01*
X34624Y-32459D02*
X34685Y-32520D01*
X33726Y-32459D02*
X33522Y-32459D01*
X33463Y-32400D02*
X33522Y-32459D01*
X34070Y-32459D02*
X34624Y-32459D01*
G54D38*
X32067Y-32735D02*
X32067Y-33818D01*
X32067Y-36770D02*
X32067Y-37618D01*
X32067Y-31711D02*
X32067Y-32735D01*
X32067Y-33818D02*
X32067Y-34841D01*
X32067Y-37618D02*
X32087Y-37638D01*
X32067Y-36770D02*
X32067Y-35747D01*
X32106Y-38425D02*
X32106Y-37657D01*
X32106Y-37657D02*
X32087Y-37638D01*
X32067Y-34841D02*
X32067Y-35747D01*
G54D36*
X35905Y-32992D02*
X35886Y-32992D01*
X36220Y-34252D02*
X36240Y-34252D01*
X35905Y-33937D02*
X35886Y-33937D01*
X35590Y-31102D02*
X35571Y-31102D01*
X35905Y-31732D02*
X35905Y-31713D01*
X35905Y-32677D02*
X35886Y-32677D01*
X36535Y-33937D02*
X36555Y-33937D01*
G54D38*
X36594Y-35866D02*
X35905Y-35177D01*
G54D36*
X35590Y-30787D02*
X35571Y-30787D01*
G54D38*
X35669Y-35000D02*
X35433Y-35000D01*
X35905Y-35177D02*
X35905Y-35000D01*
G54D36*
X37165Y-34252D02*
X37205Y-34232D01*
X35905Y-34567D02*
X35925Y-34567D01*
G54D38*
X35905Y-35000D02*
X35669Y-35000D01*
G54D36*
X36378Y-30433D02*
X36378Y-30452D01*
G54D38*
X36772Y-30275D02*
X36772Y-30137D01*
X36378Y-30452D02*
X36595Y-30452D01*
X36595Y-30452D02*
X36772Y-30275D01*
X36772Y-30137D02*
X36968Y-29941D01*
G54D36*
X54646Y-20984D02*
X54646Y-20709D01*
X48897Y-20472D02*
X48514Y-20472D01*
X55157Y-36653D02*
X55157Y-36634D01*
X53543Y-26378D02*
X53543Y-26358D01*
X40039Y-34587D02*
X40020Y-34587D01*
X52756Y-29527D02*
X52776Y-29527D01*
G54D38*
X48976Y-43327D02*
X48996Y-43307D01*
G54D36*
X50787Y-31102D02*
X50787Y-31082D01*
X56299Y-26378D02*
X56299Y-26358D01*
X50354Y-35079D02*
X50354Y-35059D01*
X55118Y-36614D02*
X55157Y-36653D01*
X38425Y-33307D02*
X38406Y-33307D01*
G54D37*
X66653Y-22500D02*
X66633Y-22520D01*
G54D36*
X42165Y-25039D02*
X42283Y-25157D01*
X47835Y-31693D02*
X47835Y-32086D01*
G54D38*
X32776Y-38425D02*
X33307Y-38425D01*
G54D36*
X36220Y-32992D02*
X36240Y-32992D01*
G54D40*
X33483Y-32656D02*
X33484Y-32657D01*
G54D36*
X37480Y-33307D02*
X37480Y-33287D01*
G54D38*
X37500Y-36968D02*
X37500Y-37205D01*
G54D36*
X56299Y-36614D02*
X56299Y-36634D01*
G54D38*
X32795Y-37638D02*
X33307Y-37638D01*
G54D36*
X38110Y-32047D02*
X38071Y-32047D01*
G54D38*
X52186Y-46575D02*
X52008Y-46575D01*
G54D36*
X49212Y-32283D02*
X49212Y-32264D01*
X37480Y-32047D02*
X37480Y-32067D01*
X56772Y-20472D02*
X57008Y-20236D01*
X63937Y-20472D02*
X63701Y-20236D01*
G54D40*
X33898Y-32656D02*
X34231Y-32656D01*
G54D36*
X58463Y-20472D02*
X58425Y-20472D01*
X61575Y-20472D02*
X61338Y-20709D01*
X53543Y-35039D02*
X53543Y-35059D01*
X42283Y-25157D02*
X42433Y-25157D01*
X56388Y-20472D02*
X56772Y-20472D01*
X45590Y-36791D02*
X45590Y-36772D01*
X51575Y-31890D02*
X51575Y-31910D01*
X50315Y-19961D02*
X50315Y-20236D01*
G54D38*
X66005Y-23110D02*
X65827Y-23110D01*
G54D36*
X42434Y-24921D02*
X42520Y-24835D01*
X38406Y-33622D02*
X38425Y-33622D01*
X48779Y-35079D02*
X48779Y-35059D01*
G54D38*
X50295Y-43307D02*
X50118Y-43307D01*
G54D36*
X51968Y-33484D02*
X51968Y-33465D01*
X35905Y-33622D02*
X35886Y-33622D01*
G54D38*
X48976Y-46594D02*
X48995Y-46575D01*
G54D36*
X56388Y-20472D02*
X56063Y-20472D01*
X53701Y-20472D02*
X53888Y-20472D01*
X48897Y-20472D02*
X49134Y-20709D01*
X51457Y-19961D02*
X51457Y-20236D01*
X53543Y-29527D02*
X53543Y-29508D01*
X47835Y-32086D02*
X47638Y-32283D01*
X61762Y-20472D02*
X62283Y-20472D01*
G54D40*
X34231Y-32656D02*
X34291Y-32657D01*
G54D36*
X53700Y-20472D02*
X53464Y-20236D01*
X58426Y-20472D02*
X58463Y-20472D01*
X42433Y-25157D02*
X42520Y-25244D01*
X48819Y-30709D02*
X48819Y-30728D01*
X48811Y-31898D02*
X48811Y-32244D01*
X58819Y-19961D02*
X58819Y-20236D01*
X61762Y-20472D02*
X61574Y-20472D01*
G54D38*
X48996Y-43307D02*
X49173Y-43307D01*
G54D36*
X58583Y-20472D02*
X58819Y-20236D01*
X56693Y-36220D02*
X56693Y-36240D01*
X47953Y-20984D02*
X47953Y-20709D01*
G54D38*
X36378Y-29468D02*
X36378Y-29764D01*
G54D36*
X59568Y-20472D02*
X59687Y-20472D01*
X51851Y-20472D02*
X51813Y-20472D01*
X45827Y-20472D02*
X45590Y-20709D01*
X43859Y-20472D02*
X43939Y-20472D01*
X40374Y-33386D02*
X40354Y-33386D01*
G54D38*
X63779Y-43366D02*
X63759Y-43346D01*
G54D36*
X50551Y-20472D02*
X50589Y-20472D01*
X46063Y-31094D02*
X46063Y-30709D01*
X51575Y-29508D02*
X51575Y-29527D01*
X54724Y-33051D02*
X54724Y-33071D01*
G54D38*
X51240Y-43307D02*
X51063Y-43307D01*
G54D36*
X66337Y-20472D02*
X66457Y-20472D01*
X66456Y-20472D02*
X66693Y-20709D01*
X35905Y-34252D02*
X35886Y-34252D01*
X45827Y-20472D02*
X46014Y-20472D01*
X38721Y-31732D02*
X38740Y-31732D01*
G54D38*
X65531Y-33504D02*
X65650Y-33623D01*
G54D36*
X43975Y-20472D02*
X44212Y-20709D01*
G54D37*
X61161Y-32638D02*
X61023Y-32776D01*
G54D36*
X49212Y-29527D02*
X49193Y-29527D01*
G54D37*
X61909Y-32638D02*
X62047Y-32776D01*
G54D36*
X38110Y-33307D02*
X38071Y-33287D01*
X42283Y-24921D02*
X42434Y-24921D01*
X49606Y-33465D02*
X49626Y-33465D01*
X47638Y-30709D02*
X47618Y-30709D01*
X52756Y-32283D02*
X52756Y-32264D01*
X48425Y-29901D02*
X48425Y-29921D01*
X46535Y-20472D02*
X46772Y-20709D01*
G54D40*
X32757Y-32656D02*
X32756Y-32657D01*
G54D36*
X35532Y-33937D02*
X35551Y-33937D01*
X38701Y-31122D02*
X38740Y-31102D01*
X43859Y-20472D02*
X43622Y-20709D01*
G54D38*
X48288Y-43307D02*
X48464Y-43307D01*
G54D36*
X48898Y-20472D02*
X49134Y-20236D01*
X50709Y-20472D02*
X50945Y-20236D01*
X51851Y-20472D02*
X52087Y-20236D01*
G54D40*
X33110Y-34488D02*
X33110Y-34134D01*
G54D36*
X50394Y-30709D02*
X50394Y-30728D01*
X50708Y-20472D02*
X50945Y-20709D01*
X49606Y-29921D02*
X49606Y-29941D01*
X51575Y-29921D02*
X51575Y-29941D01*
X48514Y-20472D02*
X48898Y-20472D01*
X43939Y-20472D02*
X43858Y-20472D01*
X53150Y-31890D02*
X53150Y-31910D01*
X54724Y-27953D02*
X54724Y-27933D01*
X50000Y-31102D02*
X50000Y-31082D01*
X47638Y-27953D02*
X47638Y-27933D01*
X49606Y-29134D02*
X49606Y-29114D01*
X59687Y-20472D02*
X59725Y-20472D01*
X50000Y-29527D02*
X49980Y-29527D01*
X51693Y-20472D02*
X51813Y-20472D01*
X64262Y-20472D02*
X63938Y-20472D01*
X56299Y-32283D02*
X56319Y-32283D01*
X50000Y-33878D02*
X50000Y-33858D01*
X53150Y-27945D02*
X53150Y-27953D01*
X52362Y-29921D02*
X52362Y-29941D01*
X66337Y-20472D02*
X66456Y-20472D01*
X49606Y-33858D02*
X49606Y-33878D01*
X50552Y-20472D02*
X50315Y-20709D01*
X54724Y-30709D02*
X54744Y-30709D01*
X53582Y-36653D02*
X53583Y-36653D01*
X38819Y-30059D02*
X38819Y-30079D01*
G54D38*
X51260Y-46594D02*
X51241Y-46575D01*
G54D36*
X53583Y-36653D02*
X53583Y-36634D01*
X43976Y-20472D02*
X44212Y-20236D01*
X50551Y-20472D02*
X50315Y-20236D01*
G54D38*
X37500Y-36457D02*
X37500Y-36732D01*
G54D36*
X66300Y-20472D02*
X66063Y-20709D01*
G54D37*
X66024Y-23091D02*
X66005Y-23110D01*
G54D36*
X48819Y-28740D02*
X48819Y-28760D01*
X66337Y-20472D02*
X66300Y-20472D01*
G54D40*
X33120Y-32656D02*
X32757Y-32656D01*
G54D36*
X43858Y-20472D02*
X43622Y-20236D01*
X47638Y-33465D02*
X47618Y-33465D01*
X58583Y-20472D02*
X58463Y-20472D01*
X50945Y-19961D02*
X50945Y-20236D01*
X68905Y-30079D02*
X68583Y-30079D01*
X52362Y-31890D02*
X52362Y-31910D01*
X64262Y-20472D02*
X64645Y-20472D01*
G54D38*
X67598Y-24980D02*
X67401Y-24980D01*
G54D36*
X53888Y-20472D02*
X54410Y-20472D01*
G54D40*
X33110Y-34772D02*
X33110Y-34488D01*
G54D36*
X58582Y-20472D02*
X58819Y-20709D01*
X39035Y-31102D02*
X39055Y-31102D01*
X59687Y-20472D02*
X59724Y-20472D01*
X51457Y-20984D02*
X51457Y-20709D01*
X66299Y-20472D02*
X66063Y-20236D01*
X46063Y-28740D02*
X46043Y-28740D01*
X59567Y-20472D02*
X59331Y-20236D01*
X58819Y-20984D02*
X58819Y-20709D01*
G54D38*
X48268Y-46594D02*
X48287Y-46575D01*
G54D36*
X48819Y-35039D02*
X48779Y-35079D01*
X51693Y-20472D02*
X51457Y-20236D01*
X53150Y-29921D02*
X53150Y-29941D01*
X54331Y-33063D02*
X54331Y-33071D01*
G54D38*
X67028Y-25197D02*
X66850Y-25197D01*
G54D36*
X39409Y-33917D02*
X39370Y-33937D01*
X46772Y-20984D02*
X46772Y-20709D01*
X61574Y-20472D02*
X61338Y-20236D01*
X37165Y-30807D02*
X37165Y-30787D01*
X38425Y-34232D02*
X38425Y-34252D01*
X54410Y-20472D02*
X54646Y-20236D01*
X47638Y-29527D02*
X47618Y-29527D01*
X35590Y-34567D02*
X35571Y-34567D01*
X63938Y-20472D02*
X63701Y-20709D01*
X48819Y-34252D02*
X48819Y-34232D01*
X53543Y-30315D02*
X53563Y-30315D01*
X49606Y-31890D02*
X49606Y-31910D01*
X54724Y-33465D02*
X54744Y-33465D01*
X43975Y-20472D02*
X43939Y-20472D01*
X47646Y-31496D02*
X47646Y-31504D01*
X51850Y-20472D02*
X52087Y-20709D01*
X56771Y-20472D02*
X56388Y-20472D01*
X52362Y-32677D02*
X52362Y-32697D01*
X39350Y-33307D02*
X39370Y-33307D01*
X53543Y-32283D02*
X53543Y-32264D01*
X54724Y-34260D02*
X54724Y-34252D01*
G54D38*
X63759Y-43346D02*
X63583Y-43346D01*
G54D37*
X61259Y-32638D02*
X61161Y-32638D01*
G54D38*
X52205Y-46594D02*
X52186Y-46575D01*
G54D36*
X45669Y-26772D02*
X45669Y-26752D01*
X50787Y-29527D02*
X50787Y-29508D01*
X48425Y-34232D02*
X48425Y-34252D01*
X36850Y-31122D02*
X36850Y-31102D01*
X38425Y-32677D02*
X38406Y-32677D01*
X61762Y-20472D02*
X61575Y-20472D01*
X56063Y-20472D02*
X55827Y-20236D01*
X53937Y-34232D02*
X53937Y-34252D01*
X61762Y-20472D02*
X62284Y-20472D01*
X36220Y-33937D02*
X36201Y-33937D01*
X50355Y-36653D02*
X50354Y-36653D01*
X51694Y-20472D02*
X51457Y-20709D01*
X53543Y-36614D02*
X53582Y-36653D01*
X50708Y-20472D02*
X50589Y-20472D01*
G54D38*
X37500Y-36732D02*
X37500Y-36968D01*
G54D36*
X59568Y-20472D02*
X59331Y-20709D01*
X49212Y-29126D02*
X49212Y-29134D01*
X46063Y-34252D02*
X46043Y-34252D01*
X64262Y-20472D02*
X64646Y-20472D01*
X53563Y-32677D02*
X53543Y-32677D01*
G54D37*
X66024Y-24390D02*
X65965Y-24449D01*
G54D36*
X53563Y-29921D02*
X53543Y-29921D01*
X44212Y-20984D02*
X44212Y-20709D01*
X46063Y-26378D02*
X46063Y-26358D01*
G54D38*
X34104Y-35433D02*
X33740Y-35433D01*
G54D36*
X52756Y-29134D02*
X52756Y-29114D01*
X53701Y-20472D02*
X53464Y-20709D01*
X50000Y-33071D02*
X50000Y-33051D01*
X62283Y-20472D02*
X62520Y-20709D01*
X54724Y-32283D02*
X54744Y-32283D01*
X42165Y-25039D02*
X42283Y-24921D01*
X56693Y-26772D02*
X56693Y-26752D01*
X56064Y-20472D02*
X55827Y-20709D01*
X50787Y-30315D02*
X50787Y-30295D01*
X48405Y-33465D02*
X48425Y-33465D01*
X52756Y-31102D02*
X52756Y-31082D01*
X48417Y-34240D02*
X48425Y-34232D01*
X53150Y-30709D02*
X53150Y-30728D01*
X48819Y-27953D02*
X48819Y-27933D01*
X62284Y-20472D02*
X62520Y-20236D01*
X49606Y-32677D02*
X49606Y-32697D01*
X37165Y-33307D02*
X37165Y-33287D01*
X47244Y-36614D02*
X47244Y-36634D01*
X59331Y-20984D02*
X59331Y-20709D01*
X35905Y-31102D02*
X35925Y-31102D01*
X57008Y-20984D02*
X57008Y-20709D01*
X54409Y-20472D02*
X54646Y-20709D01*
X38543Y-35295D02*
X38543Y-35276D01*
G54D38*
X33120Y-34782D02*
X33110Y-34772D01*
G54D36*
X51968Y-35039D02*
X51968Y-35059D01*
X52087Y-20984D02*
X52087Y-20709D01*
X51968Y-33071D02*
X51968Y-33051D01*
X35905Y-32047D02*
X35905Y-32067D01*
X54724Y-29527D02*
X54744Y-29527D01*
G54D38*
X52893Y-43307D02*
X52716Y-43307D01*
G54D36*
X51694Y-20472D02*
X51813Y-20472D01*
X36378Y-30098D02*
X36378Y-30118D01*
X51575Y-32677D02*
X51575Y-32697D01*
X50709Y-20472D02*
X50589Y-20472D01*
X38071Y-32047D02*
X38071Y-32067D01*
X45795Y-28150D02*
X45512Y-28150D01*
X37165Y-32047D02*
X37165Y-32067D01*
X43622Y-20984D02*
X43622Y-20709D01*
X51968Y-32283D02*
X51968Y-32264D01*
X63701Y-36921D02*
X63985Y-36921D01*
X54409Y-20472D02*
X53888Y-20472D01*
X67008Y-28197D02*
X67008Y-27835D01*
X51968Y-31102D02*
X51968Y-31082D01*
X51968Y-36614D02*
X51968Y-36634D01*
X53543Y-34252D02*
X53543Y-34232D01*
G54D38*
X65965Y-24449D02*
X65827Y-24449D01*
X51260Y-43327D02*
X51240Y-43307D01*
G54D36*
X52087Y-19961D02*
X52087Y-20236D01*
X46457Y-31890D02*
X46437Y-31890D01*
G54D38*
X66633Y-22520D02*
X66457Y-22520D01*
G54D36*
X47638Y-35039D02*
X47638Y-35059D01*
X50589Y-20472D02*
X50552Y-20472D01*
X50394Y-35039D02*
X50354Y-35079D01*
X49134Y-20984D02*
X49134Y-20709D01*
X50787Y-33071D02*
X50787Y-33051D01*
G54D40*
X33898Y-32656D02*
X33485Y-32656D01*
G54D36*
X38760Y-31417D02*
X38740Y-31417D01*
G54D38*
X52185Y-43307D02*
X52008Y-43307D01*
G54D36*
X40039Y-34586D02*
X40039Y-34587D01*
X48190Y-20472D02*
X48514Y-20472D01*
X50394Y-25610D02*
X50394Y-25590D01*
G54D38*
X64055Y-34626D02*
X64172Y-34626D01*
G54D36*
X59724Y-20472D02*
X59961Y-20709D01*
G54D38*
X48995Y-46575D02*
X49173Y-46575D01*
G54D36*
X58426Y-20472D02*
X58189Y-20709D01*
X64645Y-20472D02*
X64882Y-20709D01*
G54D38*
X63937Y-34744D02*
X64055Y-34626D01*
G54D36*
X52362Y-30709D02*
X52362Y-30728D01*
X50394Y-32677D02*
X50394Y-32697D01*
G54D40*
X33483Y-32656D02*
X33120Y-32656D01*
G54D38*
X48287Y-46575D02*
X48464Y-46575D01*
G54D36*
X53150Y-32677D02*
X53150Y-32697D01*
X46071Y-31102D02*
X46063Y-31094D01*
G54D38*
X49921Y-46594D02*
X49940Y-46575D01*
G54D36*
X36220Y-32677D02*
X36240Y-32677D01*
X59567Y-20472D02*
X59687Y-20472D01*
X53945Y-28740D02*
X53937Y-28740D01*
X48417Y-34646D02*
X48417Y-34240D01*
X50394Y-36614D02*
X50355Y-36653D01*
X54331Y-27973D02*
X54331Y-27953D01*
X46063Y-36614D02*
X46063Y-36634D01*
X64646Y-20472D02*
X64882Y-20236D01*
X63985Y-36921D02*
X64016Y-36890D01*
X49212Y-33071D02*
X49212Y-33051D01*
X46063Y-30709D02*
X46043Y-30709D01*
G54D38*
X50315Y-43327D02*
X50295Y-43307D01*
X52894Y-46575D02*
X52716Y-46575D01*
X66851Y-23858D02*
X66851Y-24251D01*
G54D36*
X59331Y-19961D02*
X59331Y-20236D01*
X35905Y-30787D02*
X35925Y-30787D01*
X52756Y-33858D02*
X52756Y-33878D01*
X49212Y-34272D02*
X49212Y-34252D01*
X51575Y-30709D02*
X51575Y-30728D01*
X50787Y-32283D02*
X50787Y-32264D01*
X66457Y-20472D02*
X66693Y-20236D01*
X48819Y-31890D02*
X48811Y-31898D01*
G54D38*
X65650Y-33623D02*
X65650Y-33740D01*
G54D36*
X47638Y-32283D02*
X47618Y-32283D01*
X50394Y-33465D02*
X50413Y-33465D01*
G54D38*
X48268Y-43327D02*
X48288Y-43307D01*
G54D37*
X67047Y-25216D02*
X67028Y-25197D01*
G54D36*
X56064Y-20472D02*
X56388Y-20472D01*
X36850Y-34567D02*
X36850Y-34586D01*
G54D38*
X51241Y-46575D02*
X51063Y-46575D01*
G54D36*
X50000Y-32283D02*
X50000Y-32264D01*
G54D38*
X49940Y-46575D02*
X50118Y-46575D01*
G54D36*
X47646Y-31504D02*
X47835Y-31693D01*
X37008Y-35295D02*
X37008Y-35276D01*
X48425Y-28760D02*
X48425Y-28740D01*
X51968Y-27953D02*
X51968Y-27933D01*
X48819Y-36614D02*
X48819Y-36634D01*
X52756Y-30315D02*
X52756Y-30295D01*
X53888Y-20472D02*
X53700Y-20472D01*
X52362Y-33465D02*
X52362Y-33484D01*
X38425Y-32362D02*
X38406Y-32362D01*
X48190Y-20472D02*
X47953Y-20709D01*
G54D38*
X68917Y-29646D02*
X68583Y-29646D01*
G54D36*
X66337Y-20472D02*
X66299Y-20472D01*
G54D38*
X52913Y-46594D02*
X52894Y-46575D01*
G54D36*
X49212Y-31102D02*
X49212Y-31082D01*
X51850Y-20472D02*
X51813Y-20472D01*
X50394Y-31890D02*
X50394Y-31910D01*
X48819Y-26378D02*
X48819Y-26358D01*
X58582Y-20472D02*
X58463Y-20472D01*
X43976Y-20472D02*
X43939Y-20472D01*
X50000Y-30315D02*
X50000Y-30295D01*
X56299Y-28740D02*
X56319Y-28740D01*
X43939Y-20472D02*
X43346Y-20472D01*
X53543Y-27953D02*
X53543Y-27933D01*
X40413Y-31614D02*
X40394Y-31614D01*
X64262Y-20472D02*
X63937Y-20472D01*
X39094Y-33917D02*
X39055Y-33937D01*
X50394Y-29508D02*
X50394Y-29527D01*
X37205Y-34586D02*
X37165Y-34567D01*
X53150Y-33465D02*
X53130Y-33465D01*
X47244Y-26378D02*
X47244Y-26358D01*
X50354Y-36653D02*
X50354Y-36634D01*
X56299Y-30709D02*
X56319Y-30709D01*
G54D38*
X52205Y-43327D02*
X52185Y-43307D01*
G54D36*
X50945Y-20984D02*
X50945Y-20709D01*
X39350Y-32047D02*
X39370Y-32047D01*
X58425Y-20472D02*
X58189Y-20236D01*
X52748Y-34646D02*
X52756Y-34646D01*
X52756Y-33071D02*
X52756Y-33051D01*
X53464Y-20984D02*
X53464Y-20709D01*
X51968Y-29527D02*
X51988Y-29527D01*
X46535Y-20472D02*
X46014Y-20472D01*
X58189Y-20984D02*
X58189Y-20709D01*
X55118Y-26378D02*
X55118Y-26358D01*
X56771Y-20472D02*
X57008Y-20709D01*
X38406Y-33937D02*
X38425Y-33937D01*
X59725Y-20472D02*
X59961Y-20236D01*
X51968Y-26378D02*
X51968Y-26358D01*
G54D37*
X61810Y-32638D02*
X61909Y-32638D01*
G54D36*
X50394Y-29921D02*
X50394Y-29941D01*
X53937Y-29508D02*
X53937Y-29527D01*
X54331Y-30709D02*
X54323Y-30709D01*
G54D38*
X66851Y-24251D02*
X66850Y-24252D01*
G54D36*
X50394Y-27953D02*
X50394Y-27933D01*
X49212Y-30315D02*
X49212Y-30295D01*
G54D40*
X33110Y-34134D02*
X33110Y-33779D01*
G54D36*
X51968Y-30315D02*
X51968Y-30295D01*
X36220Y-32047D02*
X36220Y-32067D01*
X56299Y-34252D02*
X56319Y-34252D01*
X54724Y-35039D02*
X54724Y-35059D01*
X49606Y-30709D02*
X49606Y-30728D01*
G54D40*
X33485Y-32656D02*
X33484Y-32657D01*
G54D38*
X66850Y-24252D02*
X66851Y-24252D01*
G54D36*
X55827Y-20984D02*
X55827Y-20709D01*
X53543Y-31102D02*
X53543Y-31082D01*
G54D38*
X52913Y-43327D02*
X52893Y-43307D01*
G54D36*
X54724Y-34646D02*
X54724Y-34638D01*
X54331Y-34252D02*
X54331Y-34260D01*
X52362Y-34252D02*
X52354Y-34252D01*
X52362Y-34646D02*
X52370Y-34646D01*
G54D38*
X33957Y-36594D02*
X34370Y-36181D01*
G54D40*
X33120Y-35806D02*
X33120Y-36073D01*
X33780Y-36457D02*
X33898Y-36575D01*
G54D38*
X33898Y-36594D02*
X33957Y-36594D01*
G54D40*
X33504Y-36457D02*
X33780Y-36457D01*
G54D38*
X35118Y-36181D02*
X35275Y-36024D01*
X35275Y-36024D02*
X35275Y-35551D01*
X35157Y-35433D02*
X34872Y-35433D01*
G54D40*
X33898Y-36575D02*
X33898Y-36594D01*
G54D38*
X34370Y-36181D02*
X35118Y-36181D01*
G54D40*
X33120Y-36073D02*
X33504Y-36457D01*
G54D38*
X35275Y-35551D02*
X35157Y-35433D01*
G54D36*
X36575Y-37520D02*
X36779Y-37520D01*
X35590Y-35701D02*
X35590Y-36535D01*
X37513Y-37591D02*
X37520Y-37598D01*
X37513Y-37591D02*
X36850Y-37591D01*
X36779Y-37520D02*
X36850Y-37591D01*
X35590Y-36535D02*
X36575Y-37520D01*
X53150Y-27559D02*
X53150Y-27567D01*
X53150Y-28346D02*
X53150Y-28354D01*
X69567Y-31378D02*
X69283Y-31378D01*
X69567Y-28346D02*
X69283Y-28346D01*
X38701Y-30787D02*
X38701Y-30768D01*
X40079Y-31614D02*
X40059Y-31614D01*
X38819Y-30394D02*
X38819Y-30413D01*
G54D38*
X40275Y-25433D02*
X41929Y-27087D01*
G54D36*
X38740Y-30787D02*
X38701Y-30787D01*
X37126Y-30472D02*
X37165Y-30453D01*
X39685Y-32047D02*
X39704Y-32047D01*
X37008Y-34961D02*
X37008Y-34941D01*
G54D38*
X39803Y-25433D02*
X40275Y-25433D01*
G54D36*
X36850Y-34252D02*
X36850Y-34232D01*
X38425Y-34567D02*
X38425Y-34586D01*
X39685Y-33307D02*
X39704Y-33307D01*
X36850Y-30787D02*
X36850Y-30768D01*
X39055Y-34252D02*
X39094Y-34271D01*
X38543Y-34961D02*
X38543Y-34941D01*
X36220Y-31732D02*
X36220Y-31713D01*
X40039Y-33386D02*
X40020Y-33386D01*
X36220Y-33622D02*
X36240Y-33622D01*
X50000Y-33465D02*
X49980Y-33465D01*
X49606Y-32283D02*
X49606Y-32264D01*
X50394Y-30315D02*
X50394Y-30295D01*
X52362Y-30315D02*
X52362Y-30295D01*
X50787Y-33465D02*
X50767Y-33465D01*
X50394Y-33071D02*
X50394Y-33051D01*
X52756Y-31890D02*
X52756Y-31910D01*
X53543Y-31890D02*
X53543Y-31910D01*
X48819Y-29527D02*
X48839Y-29527D01*
X51575Y-33071D02*
X51575Y-33051D01*
X48819Y-31102D02*
X48819Y-31082D01*
X53150Y-32283D02*
X53150Y-32264D01*
X50787Y-32677D02*
X50787Y-32697D01*
X50394Y-32283D02*
X50394Y-32264D01*
G54D39*
X54035Y-31732D02*
X53799Y-31496D01*
G54D36*
X51575Y-31102D02*
X51575Y-31082D01*
X51968Y-32677D02*
X51968Y-32697D01*
X51968Y-29921D02*
X51968Y-29941D01*
X53150Y-31102D02*
X53150Y-31082D01*
X52362Y-29527D02*
X52342Y-29527D01*
X52756Y-33465D02*
X52776Y-33465D01*
X52756Y-29921D02*
X52756Y-29941D01*
X53150Y-29527D02*
X53130Y-29527D01*
G54D38*
X41023Y-23898D02*
X41929Y-22992D01*
G54D36*
X52362Y-32283D02*
X52362Y-32264D01*
X49212Y-32677D02*
X49212Y-32697D01*
X50787Y-30709D02*
X50787Y-30728D01*
X50787Y-31890D02*
X50787Y-31910D01*
X53150Y-30315D02*
X53150Y-30295D01*
X53543Y-30709D02*
X53543Y-30728D01*
X50000Y-32677D02*
X50000Y-32697D01*
X50394Y-31102D02*
X50394Y-31082D01*
X51575Y-30315D02*
X51575Y-30295D01*
X49606Y-31102D02*
X49606Y-31082D01*
X51968Y-31890D02*
X51968Y-31910D01*
X49606Y-29527D02*
X49626Y-29527D01*
X50000Y-29921D02*
X50000Y-29941D01*
X52756Y-32677D02*
X52756Y-32697D01*
X49606Y-30315D02*
X49606Y-30295D01*
X49212Y-29921D02*
X49212Y-29941D01*
G54D38*
X40157Y-23898D02*
X41023Y-23898D01*
G54D36*
X52362Y-31102D02*
X52362Y-31082D01*
X49212Y-31890D02*
X49212Y-31910D01*
X49212Y-30709D02*
X49212Y-30728D01*
G54D39*
X53799Y-31496D02*
X53543Y-31496D01*
G54D36*
X52362Y-33071D02*
X52362Y-33051D01*
X49606Y-33071D02*
X49606Y-33051D01*
X50000Y-30709D02*
X50000Y-30728D01*
X50787Y-29921D02*
X50787Y-29941D01*
X51575Y-32283D02*
X51575Y-32264D01*
X50000Y-31890D02*
X50000Y-31910D01*
X52756Y-30709D02*
X52756Y-30728D01*
X51968Y-30709D02*
X51968Y-30728D01*
X53150Y-33071D02*
X53150Y-33051D01*
X48413Y-29535D02*
X48425Y-29547D01*
X37165Y-33622D02*
X37165Y-33641D01*
G54D38*
X52716Y-42992D02*
X52894Y-42992D01*
G54D37*
X61259Y-33268D02*
X61161Y-33268D01*
G54D38*
X48287Y-42992D02*
X48268Y-42973D01*
G54D36*
X45590Y-36457D02*
X45590Y-36437D01*
X53583Y-37008D02*
X53583Y-36988D01*
X46063Y-31890D02*
X46083Y-31890D01*
G54D38*
X51260Y-46240D02*
X51240Y-46260D01*
G54D36*
X51976Y-34252D02*
X51968Y-34252D01*
X54331Y-34638D02*
X54331Y-34646D01*
X48425Y-29527D02*
X48425Y-29547D01*
X56693Y-36614D02*
X56693Y-36594D01*
G54D38*
X49941Y-46260D02*
X50118Y-46260D01*
X37146Y-36732D02*
X37146Y-36968D01*
X52913Y-46240D02*
X52893Y-46260D01*
G54D36*
X56693Y-34252D02*
X56673Y-34252D01*
X48031Y-29535D02*
X48413Y-29535D01*
G54D38*
X52185Y-46260D02*
X52008Y-46260D01*
G54D41*
X69291Y-45827D02*
X69409Y-45709D01*
G54D36*
X50355Y-35394D02*
X50354Y-35394D01*
X50354Y-35394D02*
X50354Y-35413D01*
X39370Y-34252D02*
X39409Y-34271D01*
X51968Y-37008D02*
X51968Y-36988D01*
X38110Y-33622D02*
X38071Y-33641D01*
X37165Y-31732D02*
X37165Y-31713D01*
G54D38*
X50118Y-42992D02*
X50296Y-42992D01*
G54D36*
X39055Y-31732D02*
X39075Y-31732D01*
X47252Y-29921D02*
X47252Y-29539D01*
X47244Y-29527D02*
X47264Y-29527D01*
X55157Y-37008D02*
X55157Y-36988D01*
X50394Y-37008D02*
X50354Y-37008D01*
G54D38*
X51241Y-42992D02*
X51260Y-42973D01*
G54D36*
X45669Y-26378D02*
X45669Y-26398D01*
X48779Y-35433D02*
X48779Y-35413D01*
X45669Y-30709D02*
X45689Y-30709D01*
G54D38*
X51240Y-46260D02*
X51063Y-46260D01*
X48976Y-46240D02*
X48996Y-46260D01*
G54D36*
X38740Y-32362D02*
X38760Y-32362D01*
G54D38*
X49173Y-42992D02*
X48995Y-42992D01*
G54D36*
X47047Y-31221D02*
X47165Y-31339D01*
G54D41*
X69291Y-48504D02*
X69291Y-45827D01*
G54D37*
X61161Y-33268D02*
X61023Y-33130D01*
G54D36*
X38740Y-33622D02*
X38760Y-33622D01*
X52756Y-34252D02*
X52756Y-34232D01*
X47244Y-30709D02*
X47264Y-30709D01*
G54D38*
X48268Y-46240D02*
X48288Y-46260D01*
G54D36*
X51575Y-33878D02*
X51575Y-33858D01*
X46063Y-37008D02*
X46063Y-36988D01*
X47236Y-31496D02*
X47165Y-31425D01*
G54D38*
X48995Y-42992D02*
X48976Y-42973D01*
G54D36*
X39685Y-34567D02*
X39685Y-34586D01*
X45669Y-34252D02*
X45689Y-34252D01*
X50354Y-37008D02*
X50354Y-36988D01*
G54D38*
X37146Y-35984D02*
X37264Y-35866D01*
G54D36*
X56693Y-32283D02*
X56673Y-32283D01*
G54D38*
X49921Y-46240D02*
X49941Y-46260D01*
G54D36*
X51968Y-35433D02*
X51968Y-35413D01*
X51968Y-33858D02*
X51968Y-33838D01*
G54D38*
X48464Y-42992D02*
X48287Y-42992D01*
G54D36*
X49212Y-34646D02*
X49212Y-34626D01*
G54D38*
X48996Y-46260D02*
X49173Y-46260D01*
G54D36*
X38740Y-33937D02*
X38760Y-33937D01*
G54D38*
X51063Y-42992D02*
X51241Y-42992D01*
G54D36*
X45866Y-32087D02*
X46063Y-31890D01*
G54D38*
X52186Y-42992D02*
X52205Y-42973D01*
G54D36*
X47047Y-30906D02*
X47244Y-30709D01*
X36858Y-37205D02*
X36850Y-37213D01*
G54D38*
X37146Y-36457D02*
X37146Y-35984D01*
G54D36*
X47244Y-37008D02*
X47244Y-36988D01*
X37480Y-31732D02*
X37480Y-31713D01*
X49606Y-34252D02*
X49606Y-34232D01*
X38071Y-31732D02*
X38071Y-31713D01*
X37480Y-33622D02*
X37480Y-33641D01*
X55118Y-33465D02*
X55098Y-33465D01*
X49626Y-34646D02*
X49606Y-34646D01*
X39370Y-31102D02*
X39389Y-31102D01*
X45590Y-32087D02*
X45866Y-32087D01*
G54D38*
X37146Y-36968D02*
X37146Y-37205D01*
X37146Y-36457D02*
X37146Y-36732D01*
G54D36*
X47252Y-29539D02*
X47264Y-29527D01*
X50394Y-35433D02*
X50355Y-35394D01*
X38425Y-31417D02*
X38406Y-31417D01*
X47244Y-33465D02*
X47264Y-33465D01*
X56299Y-37008D02*
X56299Y-36988D01*
X53543Y-37008D02*
X53583Y-37008D01*
X38740Y-32677D02*
X38760Y-32677D01*
X47638Y-35433D02*
X47638Y-35413D01*
X53937Y-32677D02*
X53917Y-32677D01*
G54D38*
X48288Y-46260D02*
X48464Y-46260D01*
G54D36*
X47165Y-31339D02*
X47165Y-31425D01*
X47047Y-31221D02*
X47047Y-30906D01*
X55118Y-32283D02*
X55098Y-32283D01*
G54D38*
X50296Y-42992D02*
X50315Y-42973D01*
G54D36*
X38110Y-31732D02*
X38071Y-31732D01*
X53945Y-32283D02*
X53937Y-32283D01*
X55118Y-37008D02*
X55157Y-37008D01*
X37146Y-37205D02*
X36858Y-37205D01*
G54D38*
X52894Y-42992D02*
X52913Y-42973D01*
G54D36*
X55118Y-33051D02*
X55118Y-33071D01*
X48819Y-35433D02*
X48779Y-35433D01*
X48031Y-33465D02*
X48051Y-33465D01*
G54D38*
X52893Y-46260D02*
X52716Y-46260D01*
X52205Y-46240D02*
X52185Y-46260D01*
G54D36*
X48819Y-37008D02*
X48819Y-36988D01*
X45669Y-28740D02*
X45689Y-28740D01*
X47244Y-32283D02*
X47264Y-32283D01*
G54D38*
X52008Y-42992D02*
X52186Y-42992D01*
G54D36*
X53543Y-35433D02*
X53543Y-35413D01*
X38740Y-33307D02*
X38760Y-33307D01*
X54724Y-35433D02*
X54724Y-35413D01*
X48425Y-29134D02*
X48425Y-29114D01*
X53937Y-33858D02*
X53937Y-33878D01*
X53937Y-29154D02*
X53937Y-29134D01*
X48425Y-33858D02*
X48425Y-33878D01*
G54D38*
X66457Y-22835D02*
X66634Y-22835D01*
G54D37*
X66024Y-23445D02*
X66004Y-23465D01*
G54D36*
X67598Y-25638D02*
X67598Y-25354D01*
X68464Y-25638D02*
X68464Y-25354D01*
G54D37*
X66634Y-22835D02*
X66653Y-22854D01*
G54D38*
X67598Y-24626D02*
X67401Y-24626D01*
X66004Y-23465D02*
X65827Y-23465D01*
G54D37*
X65473Y-21689D02*
X65473Y-21261D01*
G54D36*
X68905Y-29213D02*
X68583Y-29213D01*
X67709Y-36299D02*
X67709Y-35991D01*
X69047Y-34764D02*
X69047Y-34331D01*
X63457Y-31850D02*
X63457Y-31646D01*
G54D38*
X36968Y-29271D02*
X36968Y-28819D01*
G54D36*
X68905Y-28779D02*
X68583Y-28779D01*
X68905Y-30945D02*
X68583Y-30945D01*
G54D38*
X36968Y-28819D02*
X36771Y-28622D01*
G54D36*
X67008Y-29968D02*
X67008Y-29646D01*
G54D38*
X36378Y-29114D02*
X36811Y-29114D01*
G54D36*
X69047Y-33984D02*
X69055Y-33976D01*
G54D38*
X63937Y-35098D02*
X64055Y-35216D01*
G54D36*
X67835Y-27598D02*
X67835Y-27315D01*
X64023Y-31850D02*
X64023Y-31646D01*
X65441Y-31811D02*
X65157Y-31811D01*
G54D38*
X69271Y-29646D02*
X69567Y-29646D01*
G54D36*
X67008Y-29646D02*
X67008Y-29323D01*
X67709Y-35991D02*
X67716Y-35984D01*
G54D38*
X64055Y-35216D02*
X64173Y-35216D01*
G54D36*
X63512Y-32528D02*
X63425Y-32441D01*
G54D38*
X36771Y-28622D02*
X34449Y-28622D01*
G54D37*
X61810Y-33268D02*
X61909Y-33268D01*
G54D38*
X65177Y-33504D02*
X65059Y-33622D01*
G54D36*
X64023Y-31646D02*
X64094Y-31575D01*
G54D38*
X65059Y-33622D02*
X65059Y-33740D01*
X36811Y-29114D02*
X36968Y-29271D01*
G54D36*
X69047Y-34331D02*
X69047Y-33984D01*
X68905Y-28346D02*
X68583Y-28346D01*
G54D37*
X61909Y-33268D02*
X62047Y-33130D01*
G54D36*
X68905Y-31378D02*
X68583Y-31378D01*
G54D37*
X65473Y-21261D02*
X65472Y-21260D01*
G54D36*
X68740Y-27315D02*
X68740Y-27598D01*
X63512Y-32716D02*
X63512Y-32528D01*
X63457Y-31646D02*
X63386Y-31575D01*
G54D39*
X32480Y-48819D02*
X32480Y-48820D01*
X33661Y-48425D02*
X33661Y-48426D01*
X33268Y-48819D02*
X32480Y-48819D01*
X33661Y-48426D02*
X33268Y-48819D01*
X32874Y-53150D02*
X33661Y-53150D01*
X32874Y-48425D02*
X32087Y-48425D01*
X33661Y-48425D02*
X32874Y-48425D01*
X33937Y-48701D02*
X33661Y-48425D01*
X33661Y-53150D02*
X33268Y-53543D01*
X33661Y-50000D02*
X33268Y-50393D01*
X33268Y-52756D02*
X32480Y-52756D01*
X33268Y-52755D02*
X33268Y-52756D01*
X32087Y-53150D02*
X32874Y-53150D01*
X32087Y-53149D02*
X32087Y-53150D01*
X32480Y-52756D02*
X32087Y-53149D01*
X33268Y-53543D02*
X32480Y-53543D01*
X32480Y-51968D02*
X32087Y-52361D01*
X32087Y-51575D02*
X32874Y-51575D01*
X33661Y-51575D02*
X33268Y-51968D01*
X32087Y-51574D02*
X32087Y-51575D01*
X32874Y-51575D02*
X33661Y-51575D01*
X33661Y-50787D02*
X33268Y-51180D01*
X32874Y-50787D02*
X33661Y-50787D01*
X32480Y-51181D02*
X32087Y-51574D01*
X33268Y-50394D02*
X32480Y-50394D01*
X33268Y-50393D02*
X33268Y-50394D01*
X33268Y-51968D02*
X32480Y-51968D01*
X32874Y-50000D02*
X33661Y-50000D01*
X32087Y-50000D02*
X32874Y-50000D01*
X32087Y-49999D02*
X32087Y-50000D01*
X32480Y-49606D02*
X32087Y-49999D01*
X33268Y-49606D02*
X32480Y-49606D01*
X33661Y-49213D02*
X33268Y-49606D01*
X32874Y-49213D02*
X33661Y-49213D01*
X32087Y-49213D02*
X32874Y-49213D01*
X32480Y-48820D02*
X32087Y-49213D01*
X66417Y-48701D02*
X33937Y-48701D01*
X32087Y-50787D02*
X32874Y-50787D01*
X32480Y-50394D02*
X32087Y-50787D01*
X33268Y-51180D02*
X33268Y-51181D01*
X33661Y-52362D02*
X33268Y-52755D01*
X32874Y-52362D02*
X33661Y-52362D01*
X32087Y-52362D02*
X32874Y-52362D01*
X32087Y-52361D02*
X32087Y-52362D01*
X33268Y-51181D02*
X32480Y-51181D01*
G54D42*
X33898Y-37874D02*
X34409Y-37874D01*
X34409Y-37874D02*
X34409Y-38386D01*
X34409Y-38386D02*
X33898Y-38386D01*
X33898Y-37874D02*
X33898Y-38386D01*
X33898Y-37264D02*
X33898Y-37874D01*
G54D10*
G36*
X32608Y-38946D02*
X31661Y-38946D01*
X31661Y-31093D01*
X32608Y-31093D01*
X32608Y-32553D01*
X32605Y-32556D01*
X32578Y-32621D01*
X32578Y-32692D01*
X32605Y-32757D01*
X32608Y-32760D01*
X32608Y-37264D01*
X32551Y-37264D01*
X32518Y-37278D01*
X32493Y-37303D01*
X32480Y-37336D01*
X32480Y-37371D01*
X32480Y-37941D01*
X32494Y-37974D01*
X32519Y-37999D01*
X32552Y-38012D01*
X32587Y-38012D01*
X32608Y-38012D01*
X32608Y-38051D01*
X32522Y-38051D01*
X32489Y-38065D01*
X32464Y-38090D01*
X32451Y-38123D01*
X32451Y-38158D01*
X32451Y-38728D01*
X32465Y-38761D01*
X32490Y-38786D01*
X32523Y-38799D01*
X32558Y-38799D01*
X32608Y-38799D01*
X32608Y-38946D01*
X32608Y-38946D01*
G37*
X32608Y-38946D02*
X31661Y-38946D01*
X31661Y-31093D01*
X32608Y-31093D01*
X32608Y-32553D01*
X32605Y-32556D01*
X32578Y-32621D01*
X32578Y-32692D01*
X32605Y-32757D01*
X32608Y-32760D01*
X32608Y-37264D01*
X32551Y-37264D01*
X32518Y-37278D01*
X32493Y-37303D01*
X32480Y-37336D01*
X32480Y-37371D01*
X32480Y-37941D01*
X32494Y-37974D01*
X32519Y-37999D01*
X32552Y-38012D01*
X32587Y-38012D01*
X32608Y-38012D01*
X32608Y-38051D01*
X32522Y-38051D01*
X32489Y-38065D01*
X32464Y-38090D01*
X32451Y-38123D01*
X32451Y-38158D01*
X32451Y-38728D01*
X32465Y-38761D01*
X32490Y-38786D01*
X32523Y-38799D01*
X32558Y-38799D01*
X32608Y-38799D01*
X32608Y-38946D01*
G36*
X66190Y-19576D02*
X65620Y-19576D01*
X65620Y-19559D01*
X65621Y-19557D01*
X65621Y-19522D01*
X65621Y-18952D01*
X65620Y-18949D01*
X65620Y-18631D01*
X65006Y-18631D01*
X65033Y-18605D01*
X65060Y-18540D01*
X65060Y-18469D01*
X65033Y-18404D01*
X64983Y-18353D01*
X64918Y-18326D01*
X64847Y-18326D01*
X64782Y-18353D01*
X64731Y-18403D01*
X64704Y-18468D01*
X64704Y-18539D01*
X64731Y-18604D01*
X64757Y-18631D01*
X63825Y-18631D01*
X63852Y-18605D01*
X63879Y-18540D01*
X63879Y-18469D01*
X63852Y-18404D01*
X63802Y-18353D01*
X63737Y-18326D01*
X63666Y-18326D01*
X63601Y-18353D01*
X63550Y-18403D01*
X63523Y-18468D01*
X63523Y-18539D01*
X63550Y-18604D01*
X63576Y-18631D01*
X63170Y-18631D01*
X63170Y-18186D01*
X63170Y-18115D01*
X63143Y-18050D01*
X63093Y-17999D01*
X63028Y-17972D01*
X62957Y-17972D01*
X62892Y-17999D01*
X62841Y-18049D01*
X62814Y-18114D01*
X62814Y-18185D01*
X62841Y-18250D01*
X62891Y-18301D01*
X62956Y-18328D01*
X63027Y-18328D01*
X63092Y-18301D01*
X63143Y-18251D01*
X63170Y-18186D01*
X63170Y-18631D01*
X62308Y-18631D01*
X62306Y-18628D01*
X62241Y-18601D01*
X62170Y-18601D01*
X62105Y-18628D01*
X62101Y-18631D01*
X61462Y-18631D01*
X61489Y-18605D01*
X61516Y-18540D01*
X61516Y-18469D01*
X61489Y-18404D01*
X61439Y-18353D01*
X61374Y-18326D01*
X61303Y-18326D01*
X61238Y-18353D01*
X61187Y-18403D01*
X61160Y-18468D01*
X61160Y-18539D01*
X61187Y-18604D01*
X61213Y-18631D01*
X60281Y-18631D01*
X60308Y-18605D01*
X60335Y-18540D01*
X60335Y-18469D01*
X60308Y-18404D01*
X60258Y-18353D01*
X60193Y-18326D01*
X60122Y-18326D01*
X60057Y-18353D01*
X60006Y-18403D01*
X59979Y-18468D01*
X59979Y-18539D01*
X60006Y-18604D01*
X60032Y-18631D01*
X59827Y-18631D01*
X59864Y-18616D01*
X59915Y-18566D01*
X59942Y-18501D01*
X59942Y-18430D01*
X59915Y-18365D01*
X59865Y-18314D01*
X59800Y-18287D01*
X59729Y-18287D01*
X59664Y-18314D01*
X59613Y-18364D01*
X59586Y-18429D01*
X59586Y-18500D01*
X59613Y-18565D01*
X59663Y-18616D01*
X59699Y-18631D01*
X58470Y-18631D01*
X58497Y-18605D01*
X58524Y-18540D01*
X58524Y-18469D01*
X58497Y-18404D01*
X58447Y-18353D01*
X58382Y-18326D01*
X58311Y-18326D01*
X58246Y-18353D01*
X58195Y-18403D01*
X58168Y-18468D01*
X58168Y-18539D01*
X58195Y-18604D01*
X58221Y-18631D01*
X57504Y-18631D01*
X57541Y-18616D01*
X57592Y-18566D01*
X57619Y-18501D01*
X57619Y-18430D01*
X57592Y-18365D01*
X57542Y-18314D01*
X57477Y-18287D01*
X57406Y-18287D01*
X57341Y-18314D01*
X57290Y-18364D01*
X57263Y-18429D01*
X57263Y-18500D01*
X57290Y-18565D01*
X57340Y-18616D01*
X57376Y-18631D01*
X56835Y-18631D01*
X56794Y-18589D01*
X56729Y-18562D01*
X56658Y-18562D01*
X56593Y-18589D01*
X56550Y-18631D01*
X55890Y-18631D01*
X55927Y-18616D01*
X55978Y-18566D01*
X56005Y-18501D01*
X56005Y-18430D01*
X55978Y-18365D01*
X55928Y-18314D01*
X55863Y-18287D01*
X55792Y-18287D01*
X55727Y-18314D01*
X55676Y-18364D01*
X55649Y-18429D01*
X55649Y-18500D01*
X55676Y-18565D01*
X55726Y-18616D01*
X55762Y-18631D01*
X54709Y-18631D01*
X54746Y-18616D01*
X54797Y-18566D01*
X54824Y-18501D01*
X54824Y-18430D01*
X54797Y-18365D01*
X54747Y-18314D01*
X54682Y-18287D01*
X54611Y-18287D01*
X54546Y-18314D01*
X54495Y-18364D01*
X54468Y-18429D01*
X54468Y-18500D01*
X54495Y-18565D01*
X54545Y-18616D01*
X54581Y-18631D01*
X54315Y-18631D01*
X54352Y-18616D01*
X54403Y-18566D01*
X54430Y-18501D01*
X54430Y-18430D01*
X54403Y-18365D01*
X54353Y-18314D01*
X54288Y-18287D01*
X54217Y-18287D01*
X54152Y-18314D01*
X54101Y-18364D01*
X54074Y-18429D01*
X54074Y-18500D01*
X54101Y-18565D01*
X54151Y-18616D01*
X54187Y-18631D01*
X48882Y-18631D01*
X48841Y-18589D01*
X48776Y-18562D01*
X48705Y-18562D01*
X48640Y-18589D01*
X48597Y-18631D01*
X48016Y-18631D01*
X48053Y-18616D01*
X48104Y-18566D01*
X48131Y-18501D01*
X48131Y-18430D01*
X48104Y-18365D01*
X48054Y-18314D01*
X47989Y-18287D01*
X47918Y-18287D01*
X47853Y-18314D01*
X47802Y-18364D01*
X47775Y-18429D01*
X47775Y-18500D01*
X47802Y-18565D01*
X47852Y-18616D01*
X47888Y-18631D01*
X46835Y-18631D01*
X46872Y-18616D01*
X46923Y-18566D01*
X46950Y-18501D01*
X46950Y-18430D01*
X46923Y-18365D01*
X46873Y-18314D01*
X46808Y-18287D01*
X46737Y-18287D01*
X46672Y-18314D01*
X46621Y-18364D01*
X46594Y-18429D01*
X46594Y-18500D01*
X46621Y-18565D01*
X46671Y-18616D01*
X46707Y-18631D01*
X46441Y-18631D01*
X46478Y-18616D01*
X46529Y-18566D01*
X46556Y-18501D01*
X46556Y-18430D01*
X46529Y-18365D01*
X46479Y-18314D01*
X46414Y-18287D01*
X46343Y-18287D01*
X46278Y-18314D01*
X46227Y-18364D01*
X46200Y-18429D01*
X46200Y-18500D01*
X46227Y-18565D01*
X46277Y-18616D01*
X46313Y-18631D01*
X40081Y-18631D01*
X40081Y-18614D01*
X40045Y-18526D01*
X39978Y-18459D01*
X39890Y-18422D01*
X39795Y-18422D01*
X39707Y-18458D01*
X39640Y-18525D01*
X39603Y-18613D01*
X39603Y-18631D01*
X33739Y-18631D01*
X33681Y-18490D01*
X33479Y-18288D01*
X33214Y-18178D01*
X32928Y-18178D01*
X32663Y-18288D01*
X32461Y-18490D01*
X32402Y-18631D01*
X31717Y-18631D01*
X31771Y-18358D01*
X32075Y-17903D01*
X32532Y-17598D01*
X33082Y-17488D01*
X66190Y-17488D01*
X66190Y-18422D01*
X66173Y-18422D01*
X66085Y-18458D01*
X66018Y-18525D01*
X65981Y-18613D01*
X65981Y-18708D01*
X66017Y-18796D01*
X66084Y-18863D01*
X66172Y-18900D01*
X66190Y-18900D01*
X66190Y-19576D01*
X66190Y-19576D01*
G37*
X66190Y-19576D02*
X65620Y-19576D01*
X65620Y-19559D01*
X65621Y-19557D01*
X65621Y-19522D01*
X65621Y-18952D01*
X65620Y-18949D01*
X65620Y-18631D01*
X65006Y-18631D01*
X65033Y-18605D01*
X65060Y-18540D01*
X65060Y-18469D01*
X65033Y-18404D01*
X64983Y-18353D01*
X64918Y-18326D01*
X64847Y-18326D01*
X64782Y-18353D01*
X64731Y-18403D01*
X64704Y-18468D01*
X64704Y-18539D01*
X64731Y-18604D01*
X64757Y-18631D01*
X63825Y-18631D01*
X63852Y-18605D01*
X63879Y-18540D01*
X63879Y-18469D01*
X63852Y-18404D01*
X63802Y-18353D01*
X63737Y-18326D01*
X63666Y-18326D01*
X63601Y-18353D01*
X63550Y-18403D01*
X63523Y-18468D01*
X63523Y-18539D01*
X63550Y-18604D01*
X63576Y-18631D01*
X63170Y-18631D01*
X63170Y-18186D01*
X63170Y-18115D01*
X63143Y-18050D01*
X63093Y-17999D01*
X63028Y-17972D01*
X62957Y-17972D01*
X62892Y-17999D01*
X62841Y-18049D01*
X62814Y-18114D01*
X62814Y-18185D01*
X62841Y-18250D01*
X62891Y-18301D01*
X62956Y-18328D01*
X63027Y-18328D01*
X63092Y-18301D01*
X63143Y-18251D01*
X63170Y-18186D01*
X63170Y-18631D01*
X62308Y-18631D01*
X62306Y-18628D01*
X62241Y-18601D01*
X62170Y-18601D01*
X62105Y-18628D01*
X62101Y-18631D01*
X61462Y-18631D01*
X61489Y-18605D01*
X61516Y-18540D01*
X61516Y-18469D01*
X61489Y-18404D01*
X61439Y-18353D01*
X61374Y-18326D01*
X61303Y-18326D01*
X61238Y-18353D01*
X61187Y-18403D01*
X61160Y-18468D01*
X61160Y-18539D01*
X61187Y-18604D01*
X61213Y-18631D01*
X60281Y-18631D01*
X60308Y-18605D01*
X60335Y-18540D01*
X60335Y-18469D01*
X60308Y-18404D01*
X60258Y-18353D01*
X60193Y-18326D01*
X60122Y-18326D01*
X60057Y-18353D01*
X60006Y-18403D01*
X59979Y-18468D01*
X59979Y-18539D01*
X60006Y-18604D01*
X60032Y-18631D01*
X59827Y-18631D01*
X59864Y-18616D01*
X59915Y-18566D01*
X59942Y-18501D01*
X59942Y-18430D01*
X59915Y-18365D01*
X59865Y-18314D01*
X59800Y-18287D01*
X59729Y-18287D01*
X59664Y-18314D01*
X59613Y-18364D01*
X59586Y-18429D01*
X59586Y-18500D01*
X59613Y-18565D01*
X59663Y-18616D01*
X59699Y-18631D01*
X58470Y-18631D01*
X58497Y-18605D01*
X58524Y-18540D01*
X58524Y-18469D01*
X58497Y-18404D01*
X58447Y-18353D01*
X58382Y-18326D01*
X58311Y-18326D01*
X58246Y-18353D01*
X58195Y-18403D01*
X58168Y-18468D01*
X58168Y-18539D01*
X58195Y-18604D01*
X58221Y-18631D01*
X57504Y-18631D01*
X57541Y-18616D01*
X57592Y-18566D01*
X57619Y-18501D01*
X57619Y-18430D01*
X57592Y-18365D01*
X57542Y-18314D01*
X57477Y-18287D01*
X57406Y-18287D01*
X57341Y-18314D01*
X57290Y-18364D01*
X57263Y-18429D01*
X57263Y-18500D01*
X57290Y-18565D01*
X57340Y-18616D01*
X57376Y-18631D01*
X56835Y-18631D01*
X56794Y-18589D01*
X56729Y-18562D01*
X56658Y-18562D01*
X56593Y-18589D01*
X56550Y-18631D01*
X55890Y-18631D01*
X55927Y-18616D01*
X55978Y-18566D01*
X56005Y-18501D01*
X56005Y-18430D01*
X55978Y-18365D01*
X55928Y-18314D01*
X55863Y-18287D01*
X55792Y-18287D01*
X55727Y-18314D01*
X55676Y-18364D01*
X55649Y-18429D01*
X55649Y-18500D01*
X55676Y-18565D01*
X55726Y-18616D01*
X55762Y-18631D01*
X54709Y-18631D01*
X54746Y-18616D01*
X54797Y-18566D01*
X54824Y-18501D01*
X54824Y-18430D01*
X54797Y-18365D01*
X54747Y-18314D01*
X54682Y-18287D01*
X54611Y-18287D01*
X54546Y-18314D01*
X54495Y-18364D01*
X54468Y-18429D01*
X54468Y-18500D01*
X54495Y-18565D01*
X54545Y-18616D01*
X54581Y-18631D01*
X54315Y-18631D01*
X54352Y-18616D01*
X54403Y-18566D01*
X54430Y-18501D01*
X54430Y-18430D01*
X54403Y-18365D01*
X54353Y-18314D01*
X54288Y-18287D01*
X54217Y-18287D01*
X54152Y-18314D01*
X54101Y-18364D01*
X54074Y-18429D01*
X54074Y-18500D01*
X54101Y-18565D01*
X54151Y-18616D01*
X54187Y-18631D01*
X48882Y-18631D01*
X48841Y-18589D01*
X48776Y-18562D01*
X48705Y-18562D01*
X48640Y-18589D01*
X48597Y-18631D01*
X48016Y-18631D01*
X48053Y-18616D01*
X48104Y-18566D01*
X48131Y-18501D01*
X48131Y-18430D01*
X48104Y-18365D01*
X48054Y-18314D01*
X47989Y-18287D01*
X47918Y-18287D01*
X47853Y-18314D01*
X47802Y-18364D01*
X47775Y-18429D01*
X47775Y-18500D01*
X47802Y-18565D01*
X47852Y-18616D01*
X47888Y-18631D01*
X46835Y-18631D01*
X46872Y-18616D01*
X46923Y-18566D01*
X46950Y-18501D01*
X46950Y-18430D01*
X46923Y-18365D01*
X46873Y-18314D01*
X46808Y-18287D01*
X46737Y-18287D01*
X46672Y-18314D01*
X46621Y-18364D01*
X46594Y-18429D01*
X46594Y-18500D01*
X46621Y-18565D01*
X46671Y-18616D01*
X46707Y-18631D01*
X46441Y-18631D01*
X46478Y-18616D01*
X46529Y-18566D01*
X46556Y-18501D01*
X46556Y-18430D01*
X46529Y-18365D01*
X46479Y-18314D01*
X46414Y-18287D01*
X46343Y-18287D01*
X46278Y-18314D01*
X46227Y-18364D01*
X46200Y-18429D01*
X46200Y-18500D01*
X46227Y-18565D01*
X46277Y-18616D01*
X46313Y-18631D01*
X40081Y-18631D01*
X40081Y-18614D01*
X40045Y-18526D01*
X39978Y-18459D01*
X39890Y-18422D01*
X39795Y-18422D01*
X39707Y-18458D01*
X39640Y-18525D01*
X39603Y-18613D01*
X39603Y-18631D01*
X33739Y-18631D01*
X33681Y-18490D01*
X33479Y-18288D01*
X33214Y-18178D01*
X32928Y-18178D01*
X32663Y-18288D01*
X32461Y-18490D01*
X32402Y-18631D01*
X31717Y-18631D01*
X31771Y-18358D01*
X32075Y-17903D01*
X32532Y-17598D01*
X33082Y-17488D01*
X66190Y-17488D01*
X66190Y-18422D01*
X66173Y-18422D01*
X66085Y-18458D01*
X66018Y-18525D01*
X65981Y-18613D01*
X65981Y-18708D01*
X66017Y-18796D01*
X66084Y-18863D01*
X66172Y-18900D01*
X66190Y-18900D01*
X66190Y-19576D01*
G36*
X70701Y-55106D02*
X70590Y-55656D01*
X70285Y-56113D01*
X70160Y-56196D01*
X70160Y-50087D01*
X70160Y-49992D01*
X70160Y-49418D01*
X70160Y-49323D01*
X70124Y-49235D01*
X70057Y-49168D01*
X69969Y-49131D01*
X69874Y-49131D01*
X69786Y-49167D01*
X69719Y-49234D01*
X69682Y-49322D01*
X69682Y-49417D01*
X69718Y-49505D01*
X69785Y-49572D01*
X69873Y-49609D01*
X69968Y-49609D01*
X70056Y-49573D01*
X70123Y-49506D01*
X70160Y-49418D01*
X70160Y-49992D01*
X70124Y-49904D01*
X70057Y-49837D01*
X69969Y-49800D01*
X69874Y-49800D01*
X69786Y-49836D01*
X69719Y-49903D01*
X69682Y-49991D01*
X69682Y-50086D01*
X69718Y-50174D01*
X69785Y-50241D01*
X69873Y-50278D01*
X69968Y-50278D01*
X70056Y-50242D01*
X70123Y-50175D01*
X70160Y-50087D01*
X70160Y-56196D01*
X70011Y-56296D01*
X70011Y-55261D01*
X70011Y-54975D01*
X70011Y-52111D01*
X70011Y-51825D01*
X69901Y-51560D01*
X69699Y-51358D01*
X69530Y-51287D01*
X69530Y-50087D01*
X69530Y-49992D01*
X69530Y-49418D01*
X69530Y-49323D01*
X69494Y-49235D01*
X69427Y-49168D01*
X69339Y-49131D01*
X69244Y-49131D01*
X69156Y-49167D01*
X69089Y-49234D01*
X69052Y-49322D01*
X69052Y-49417D01*
X69088Y-49505D01*
X69155Y-49572D01*
X69243Y-49609D01*
X69338Y-49609D01*
X69426Y-49573D01*
X69493Y-49506D01*
X69530Y-49418D01*
X69530Y-49992D01*
X69494Y-49904D01*
X69427Y-49837D01*
X69339Y-49800D01*
X69244Y-49800D01*
X69156Y-49836D01*
X69089Y-49903D01*
X69052Y-49991D01*
X69052Y-50086D01*
X69088Y-50174D01*
X69155Y-50241D01*
X69243Y-50278D01*
X69338Y-50278D01*
X69426Y-50242D01*
X69493Y-50175D01*
X69530Y-50087D01*
X69530Y-51287D01*
X69434Y-51248D01*
X69148Y-51248D01*
X68883Y-51358D01*
X68861Y-51380D01*
X68861Y-50087D01*
X68861Y-49992D01*
X68861Y-49418D01*
X68861Y-49323D01*
X68825Y-49235D01*
X68758Y-49168D01*
X68670Y-49131D01*
X68575Y-49131D01*
X68487Y-49167D01*
X68420Y-49234D01*
X68383Y-49322D01*
X68383Y-49417D01*
X68419Y-49505D01*
X68486Y-49572D01*
X68574Y-49609D01*
X68669Y-49609D01*
X68757Y-49573D01*
X68824Y-49506D01*
X68861Y-49418D01*
X68861Y-49992D01*
X68825Y-49904D01*
X68758Y-49837D01*
X68670Y-49800D01*
X68575Y-49800D01*
X68487Y-49836D01*
X68420Y-49903D01*
X68383Y-49991D01*
X68383Y-50086D01*
X68419Y-50174D01*
X68486Y-50241D01*
X68574Y-50278D01*
X68669Y-50278D01*
X68757Y-50242D01*
X68824Y-50175D01*
X68861Y-50087D01*
X68861Y-51380D01*
X68681Y-51560D01*
X68571Y-51825D01*
X68571Y-52111D01*
X68681Y-52376D01*
X68883Y-52578D01*
X69148Y-52688D01*
X69434Y-52688D01*
X69699Y-52578D01*
X69901Y-52376D01*
X70011Y-52111D01*
X70011Y-54975D01*
X69901Y-54710D01*
X69699Y-54508D01*
X69434Y-54398D01*
X69148Y-54398D01*
X68883Y-54508D01*
X68681Y-54710D01*
X68571Y-54975D01*
X68571Y-55261D01*
X68681Y-55526D01*
X68883Y-55728D01*
X69148Y-55838D01*
X69434Y-55838D01*
X69699Y-55728D01*
X69901Y-55526D01*
X70011Y-55261D01*
X70011Y-56296D01*
X69830Y-56417D01*
X69274Y-56528D01*
X66595Y-56528D01*
X66595Y-47792D01*
X66595Y-47721D01*
X66568Y-47656D01*
X66518Y-47605D01*
X66453Y-47578D01*
X66382Y-47578D01*
X66317Y-47605D01*
X66266Y-47655D01*
X66239Y-47720D01*
X66239Y-47791D01*
X66266Y-47856D01*
X66316Y-47907D01*
X66381Y-47934D01*
X66452Y-47934D01*
X66517Y-47907D01*
X66568Y-47857D01*
X66595Y-47792D01*
X66595Y-56528D01*
X66359Y-56528D01*
X66359Y-48067D01*
X66359Y-47996D01*
X66332Y-47931D01*
X66282Y-47880D01*
X66217Y-47853D01*
X66146Y-47853D01*
X66081Y-47880D01*
X66044Y-47916D01*
X66044Y-47398D01*
X66044Y-47327D01*
X66017Y-47262D01*
X65967Y-47211D01*
X65902Y-47184D01*
X65831Y-47184D01*
X65766Y-47211D01*
X65715Y-47261D01*
X65688Y-47326D01*
X65688Y-47397D01*
X65715Y-47462D01*
X65765Y-47513D01*
X65830Y-47540D01*
X65901Y-47540D01*
X65966Y-47513D01*
X66017Y-47463D01*
X66044Y-47398D01*
X66044Y-47916D01*
X66030Y-47930D01*
X66003Y-47995D01*
X66003Y-48066D01*
X66030Y-48131D01*
X66080Y-48182D01*
X66145Y-48209D01*
X66216Y-48209D01*
X66281Y-48182D01*
X66332Y-48132D01*
X66359Y-48067D01*
X66359Y-56528D01*
X33791Y-56528D01*
X33791Y-55261D01*
X33791Y-54975D01*
X33681Y-54710D01*
X33479Y-54508D01*
X33214Y-54398D01*
X32928Y-54398D01*
X32663Y-54508D01*
X32461Y-54710D01*
X32351Y-54975D01*
X32351Y-55261D01*
X32461Y-55526D01*
X32663Y-55728D01*
X32928Y-55838D01*
X33214Y-55838D01*
X33479Y-55728D01*
X33681Y-55526D01*
X33791Y-55261D01*
X33791Y-56528D01*
X33082Y-56528D01*
X32532Y-56417D01*
X32075Y-56112D01*
X31771Y-55657D01*
X31661Y-55101D01*
X31661Y-48061D01*
X65187Y-48061D01*
X65187Y-41011D01*
X59833Y-35657D01*
X59833Y-30485D01*
X61075Y-29243D01*
X65526Y-29243D01*
X65568Y-29285D01*
X65633Y-29312D01*
X65704Y-29312D01*
X65769Y-29285D01*
X65811Y-29243D01*
X65915Y-29243D01*
X65915Y-30009D01*
X64824Y-30009D01*
X64824Y-30004D01*
X64797Y-29939D01*
X64747Y-29888D01*
X64682Y-29861D01*
X64611Y-29861D01*
X64546Y-29888D01*
X64507Y-29925D01*
X64471Y-29888D01*
X64406Y-29861D01*
X64335Y-29861D01*
X64270Y-29888D01*
X64231Y-29925D01*
X64195Y-29888D01*
X64130Y-29861D01*
X64059Y-29861D01*
X63994Y-29888D01*
X63956Y-29924D01*
X63920Y-29888D01*
X63855Y-29861D01*
X63784Y-29861D01*
X63719Y-29888D01*
X63680Y-29925D01*
X63644Y-29888D01*
X63579Y-29861D01*
X63508Y-29861D01*
X63443Y-29888D01*
X63392Y-29938D01*
X63365Y-30003D01*
X63365Y-30009D01*
X62310Y-30009D01*
X60847Y-31472D01*
X60847Y-30626D01*
X60847Y-30555D01*
X60820Y-30490D01*
X60802Y-30472D01*
X60820Y-30455D01*
X60847Y-30390D01*
X60847Y-30319D01*
X60820Y-30254D01*
X60770Y-30203D01*
X60705Y-30176D01*
X60634Y-30176D01*
X60569Y-30203D01*
X60518Y-30253D01*
X60491Y-30318D01*
X60491Y-30389D01*
X60518Y-30454D01*
X60535Y-30471D01*
X60518Y-30489D01*
X60491Y-30554D01*
X60491Y-30625D01*
X60518Y-30690D01*
X60568Y-30741D01*
X60633Y-30768D01*
X60704Y-30768D01*
X60769Y-30741D01*
X60820Y-30691D01*
X60847Y-30626D01*
X60847Y-31472D01*
X60679Y-31641D01*
X60679Y-35445D01*
X67082Y-41848D01*
X67000Y-41848D01*
X66912Y-41884D01*
X66845Y-41951D01*
X66808Y-42039D01*
X66808Y-42134D01*
X66844Y-42222D01*
X66911Y-42289D01*
X66999Y-42326D01*
X67094Y-42326D01*
X67096Y-42325D01*
X67096Y-48061D01*
X67165Y-48061D01*
X67143Y-48114D01*
X67143Y-48185D01*
X67170Y-48250D01*
X67220Y-48301D01*
X67285Y-48328D01*
X67356Y-48328D01*
X67421Y-48301D01*
X67472Y-48251D01*
X67499Y-48186D01*
X67499Y-48131D01*
X67537Y-48131D01*
X67537Y-48185D01*
X67564Y-48250D01*
X67614Y-48301D01*
X67679Y-48328D01*
X67750Y-48328D01*
X67815Y-48301D01*
X67866Y-48251D01*
X67893Y-48186D01*
X67893Y-48115D01*
X67870Y-48061D01*
X69149Y-48061D01*
X69149Y-48394D01*
X69140Y-48403D01*
X69113Y-48468D01*
X69113Y-48539D01*
X69140Y-48604D01*
X69190Y-48655D01*
X69255Y-48682D01*
X69326Y-48682D01*
X69391Y-48655D01*
X69442Y-48605D01*
X69469Y-48540D01*
X69469Y-48469D01*
X69442Y-48404D01*
X69433Y-48394D01*
X69433Y-48061D01*
X69731Y-48061D01*
X69758Y-48127D01*
X69825Y-48194D01*
X69913Y-48231D01*
X70008Y-48231D01*
X70096Y-48195D01*
X70163Y-48128D01*
X70191Y-48061D01*
X70203Y-48061D01*
X70230Y-48127D01*
X70297Y-48194D01*
X70385Y-48231D01*
X70480Y-48231D01*
X70568Y-48195D01*
X70635Y-48128D01*
X70663Y-48061D01*
X70701Y-48061D01*
X70701Y-55106D01*
X70701Y-55106D01*
G37*
X70701Y-55106D02*
X70590Y-55656D01*
X70285Y-56113D01*
X70160Y-56196D01*
X70160Y-50087D01*
X70160Y-49992D01*
X70160Y-49418D01*
X70160Y-49323D01*
X70124Y-49235D01*
X70057Y-49168D01*
X69969Y-49131D01*
X69874Y-49131D01*
X69786Y-49167D01*
X69719Y-49234D01*
X69682Y-49322D01*
X69682Y-49417D01*
X69718Y-49505D01*
X69785Y-49572D01*
X69873Y-49609D01*
X69968Y-49609D01*
X70056Y-49573D01*
X70123Y-49506D01*
X70160Y-49418D01*
X70160Y-49992D01*
X70124Y-49904D01*
X70057Y-49837D01*
X69969Y-49800D01*
X69874Y-49800D01*
X69786Y-49836D01*
X69719Y-49903D01*
X69682Y-49991D01*
X69682Y-50086D01*
X69718Y-50174D01*
X69785Y-50241D01*
X69873Y-50278D01*
X69968Y-50278D01*
X70056Y-50242D01*
X70123Y-50175D01*
X70160Y-50087D01*
X70160Y-56196D01*
X70011Y-56296D01*
X70011Y-55261D01*
X70011Y-54975D01*
X70011Y-52111D01*
X70011Y-51825D01*
X69901Y-51560D01*
X69699Y-51358D01*
X69530Y-51287D01*
X69530Y-50087D01*
X69530Y-49992D01*
X69530Y-49418D01*
X69530Y-49323D01*
X69494Y-49235D01*
X69427Y-49168D01*
X69339Y-49131D01*
X69244Y-49131D01*
X69156Y-49167D01*
X69089Y-49234D01*
X69052Y-49322D01*
X69052Y-49417D01*
X69088Y-49505D01*
X69155Y-49572D01*
X69243Y-49609D01*
X69338Y-49609D01*
X69426Y-49573D01*
X69493Y-49506D01*
X69530Y-49418D01*
X69530Y-49992D01*
X69494Y-49904D01*
X69427Y-49837D01*
X69339Y-49800D01*
X69244Y-49800D01*
X69156Y-49836D01*
X69089Y-49903D01*
X69052Y-49991D01*
X69052Y-50086D01*
X69088Y-50174D01*
X69155Y-50241D01*
X69243Y-50278D01*
X69338Y-50278D01*
X69426Y-50242D01*
X69493Y-50175D01*
X69530Y-50087D01*
X69530Y-51287D01*
X69434Y-51248D01*
X69148Y-51248D01*
X68883Y-51358D01*
X68861Y-51380D01*
X68861Y-50087D01*
X68861Y-49992D01*
X68861Y-49418D01*
X68861Y-49323D01*
X68825Y-49235D01*
X68758Y-49168D01*
X68670Y-49131D01*
X68575Y-49131D01*
X68487Y-49167D01*
X68420Y-49234D01*
X68383Y-49322D01*
X68383Y-49417D01*
X68419Y-49505D01*
X68486Y-49572D01*
X68574Y-49609D01*
X68669Y-49609D01*
X68757Y-49573D01*
X68824Y-49506D01*
X68861Y-49418D01*
X68861Y-49992D01*
X68825Y-49904D01*
X68758Y-49837D01*
X68670Y-49800D01*
X68575Y-49800D01*
X68487Y-49836D01*
X68420Y-49903D01*
X68383Y-49991D01*
X68383Y-50086D01*
X68419Y-50174D01*
X68486Y-50241D01*
X68574Y-50278D01*
X68669Y-50278D01*
X68757Y-50242D01*
X68824Y-50175D01*
X68861Y-50087D01*
X68861Y-51380D01*
X68681Y-51560D01*
X68571Y-51825D01*
X68571Y-52111D01*
X68681Y-52376D01*
X68883Y-52578D01*
X69148Y-52688D01*
X69434Y-52688D01*
X69699Y-52578D01*
X69901Y-52376D01*
X70011Y-52111D01*
X70011Y-54975D01*
X69901Y-54710D01*
X69699Y-54508D01*
X69434Y-54398D01*
X69148Y-54398D01*
X68883Y-54508D01*
X68681Y-54710D01*
X68571Y-54975D01*
X68571Y-55261D01*
X68681Y-55526D01*
X68883Y-55728D01*
X69148Y-55838D01*
X69434Y-55838D01*
X69699Y-55728D01*
X69901Y-55526D01*
X70011Y-55261D01*
X70011Y-56296D01*
X69830Y-56417D01*
X69274Y-56528D01*
X66595Y-56528D01*
X66595Y-47792D01*
X66595Y-47721D01*
X66568Y-47656D01*
X66518Y-47605D01*
X66453Y-47578D01*
X66382Y-47578D01*
X66317Y-47605D01*
X66266Y-47655D01*
X66239Y-47720D01*
X66239Y-47791D01*
X66266Y-47856D01*
X66316Y-47907D01*
X66381Y-47934D01*
X66452Y-47934D01*
X66517Y-47907D01*
X66568Y-47857D01*
X66595Y-47792D01*
X66595Y-56528D01*
X66359Y-56528D01*
X66359Y-48067D01*
X66359Y-47996D01*
X66332Y-47931D01*
X66282Y-47880D01*
X66217Y-47853D01*
X66146Y-47853D01*
X66081Y-47880D01*
X66044Y-47916D01*
X66044Y-47398D01*
X66044Y-47327D01*
X66017Y-47262D01*
X65967Y-47211D01*
X65902Y-47184D01*
X65831Y-47184D01*
X65766Y-47211D01*
X65715Y-47261D01*
X65688Y-47326D01*
X65688Y-47397D01*
X65715Y-47462D01*
X65765Y-47513D01*
X65830Y-47540D01*
X65901Y-47540D01*
X65966Y-47513D01*
X66017Y-47463D01*
X66044Y-47398D01*
X66044Y-47916D01*
X66030Y-47930D01*
X66003Y-47995D01*
X66003Y-48066D01*
X66030Y-48131D01*
X66080Y-48182D01*
X66145Y-48209D01*
X66216Y-48209D01*
X66281Y-48182D01*
X66332Y-48132D01*
X66359Y-48067D01*
X66359Y-56528D01*
X33791Y-56528D01*
X33791Y-55261D01*
X33791Y-54975D01*
X33681Y-54710D01*
X33479Y-54508D01*
X33214Y-54398D01*
X32928Y-54398D01*
X32663Y-54508D01*
X32461Y-54710D01*
X32351Y-54975D01*
X32351Y-55261D01*
X32461Y-55526D01*
X32663Y-55728D01*
X32928Y-55838D01*
X33214Y-55838D01*
X33479Y-55728D01*
X33681Y-55526D01*
X33791Y-55261D01*
X33791Y-56528D01*
X33082Y-56528D01*
X32532Y-56417D01*
X32075Y-56112D01*
X31771Y-55657D01*
X31661Y-55101D01*
X31661Y-48061D01*
X65187Y-48061D01*
X65187Y-41011D01*
X59833Y-35657D01*
X59833Y-30485D01*
X61075Y-29243D01*
X65526Y-29243D01*
X65568Y-29285D01*
X65633Y-29312D01*
X65704Y-29312D01*
X65769Y-29285D01*
X65811Y-29243D01*
X65915Y-29243D01*
X65915Y-30009D01*
X64824Y-30009D01*
X64824Y-30004D01*
X64797Y-29939D01*
X64747Y-29888D01*
X64682Y-29861D01*
X64611Y-29861D01*
X64546Y-29888D01*
X64507Y-29925D01*
X64471Y-29888D01*
X64406Y-29861D01*
X64335Y-29861D01*
X64270Y-29888D01*
X64231Y-29925D01*
X64195Y-29888D01*
X64130Y-29861D01*
X64059Y-29861D01*
X63994Y-29888D01*
X63956Y-29924D01*
X63920Y-29888D01*
X63855Y-29861D01*
X63784Y-29861D01*
X63719Y-29888D01*
X63680Y-29925D01*
X63644Y-29888D01*
X63579Y-29861D01*
X63508Y-29861D01*
X63443Y-29888D01*
X63392Y-29938D01*
X63365Y-30003D01*
X63365Y-30009D01*
X62310Y-30009D01*
X60847Y-31472D01*
X60847Y-30626D01*
X60847Y-30555D01*
X60820Y-30490D01*
X60802Y-30472D01*
X60820Y-30455D01*
X60847Y-30390D01*
X60847Y-30319D01*
X60820Y-30254D01*
X60770Y-30203D01*
X60705Y-30176D01*
X60634Y-30176D01*
X60569Y-30203D01*
X60518Y-30253D01*
X60491Y-30318D01*
X60491Y-30389D01*
X60518Y-30454D01*
X60535Y-30471D01*
X60518Y-30489D01*
X60491Y-30554D01*
X60491Y-30625D01*
X60518Y-30690D01*
X60568Y-30741D01*
X60633Y-30768D01*
X60704Y-30768D01*
X60769Y-30741D01*
X60820Y-30691D01*
X60847Y-30626D01*
X60847Y-31472D01*
X60679Y-31641D01*
X60679Y-35445D01*
X67082Y-41848D01*
X67000Y-41848D01*
X66912Y-41884D01*
X66845Y-41951D01*
X66808Y-42039D01*
X66808Y-42134D01*
X66844Y-42222D01*
X66911Y-42289D01*
X66999Y-42326D01*
X67094Y-42326D01*
X67096Y-42325D01*
X67096Y-48061D01*
X67165Y-48061D01*
X67143Y-48114D01*
X67143Y-48185D01*
X67170Y-48250D01*
X67220Y-48301D01*
X67285Y-48328D01*
X67356Y-48328D01*
X67421Y-48301D01*
X67472Y-48251D01*
X67499Y-48186D01*
X67499Y-48131D01*
X67537Y-48131D01*
X67537Y-48185D01*
X67564Y-48250D01*
X67614Y-48301D01*
X67679Y-48328D01*
X67750Y-48328D01*
X67815Y-48301D01*
X67866Y-48251D01*
X67893Y-48186D01*
X67893Y-48115D01*
X67870Y-48061D01*
X69149Y-48061D01*
X69149Y-48394D01*
X69140Y-48403D01*
X69113Y-48468D01*
X69113Y-48539D01*
X69140Y-48604D01*
X69190Y-48655D01*
X69255Y-48682D01*
X69326Y-48682D01*
X69391Y-48655D01*
X69442Y-48605D01*
X69469Y-48540D01*
X69469Y-48469D01*
X69442Y-48404D01*
X69433Y-48394D01*
X69433Y-48061D01*
X69731Y-48061D01*
X69758Y-48127D01*
X69825Y-48194D01*
X69913Y-48231D01*
X70008Y-48231D01*
X70096Y-48195D01*
X70163Y-48128D01*
X70191Y-48061D01*
X70203Y-48061D01*
X70230Y-48127D01*
X70297Y-48194D01*
X70385Y-48231D01*
X70480Y-48231D01*
X70568Y-48195D01*
X70635Y-48128D01*
X70663Y-48061D01*
X70701Y-48061D01*
X70701Y-55106D01*
G36*
X45006Y-21134D02*
X44916Y-21134D01*
X44888Y-21134D01*
X44809Y-21134D01*
X44720Y-21134D01*
X44691Y-21134D01*
X44613Y-21134D01*
X44523Y-21134D01*
X44495Y-21134D01*
X44416Y-21134D01*
X44298Y-21134D01*
X44211Y-21170D01*
X43200Y-21170D01*
X43200Y-20690D01*
X43258Y-20667D01*
X43389Y-20536D01*
X43461Y-20365D01*
X43461Y-20179D01*
X43428Y-20101D01*
X43532Y-20144D01*
X43719Y-20144D01*
X43892Y-20073D01*
X43978Y-19986D01*
X43987Y-20006D01*
X44088Y-20106D01*
X44220Y-20161D01*
X44300Y-20161D01*
X44302Y-20164D01*
X44403Y-20264D01*
X44535Y-20319D01*
X44585Y-20319D01*
X44585Y-20590D01*
X44608Y-20704D01*
X44672Y-20800D01*
X45006Y-21134D01*
X45006Y-21134D01*
G37*
G54D43*
X45006Y-21134D02*
X44916Y-21134D01*
X44888Y-21134D01*
X44809Y-21134D01*
X44720Y-21134D01*
X44691Y-21134D01*
X44613Y-21134D01*
X44523Y-21134D01*
X44495Y-21134D01*
X44416Y-21134D01*
X44298Y-21134D01*
X44211Y-21170D01*
X43200Y-21170D01*
X43200Y-20690D01*
X43258Y-20667D01*
X43389Y-20536D01*
X43461Y-20365D01*
X43461Y-20179D01*
X43428Y-20101D01*
X43532Y-20144D01*
X43719Y-20144D01*
X43892Y-20073D01*
X43978Y-19986D01*
X43987Y-20006D01*
X44088Y-20106D01*
X44220Y-20161D01*
X44300Y-20161D01*
X44302Y-20164D01*
X44403Y-20264D01*
X44535Y-20319D01*
X44585Y-20319D01*
X44585Y-20590D01*
X44608Y-20704D01*
X44672Y-20800D01*
X45006Y-21134D01*
G54D10*
G36*
X49690Y-21134D02*
X49641Y-21134D01*
X49613Y-21134D01*
X49534Y-21134D01*
X49469Y-21134D01*
X49438Y-21057D01*
X49337Y-20957D01*
X49205Y-20902D01*
X49063Y-20902D01*
X48931Y-20956D01*
X48831Y-21057D01*
X48798Y-21134D01*
X48746Y-21134D01*
X48657Y-21134D01*
X48628Y-21134D01*
X48550Y-21134D01*
X48460Y-21134D01*
X48432Y-21134D01*
X48353Y-21134D01*
X48288Y-21134D01*
X48257Y-21057D01*
X48156Y-20957D01*
X48024Y-20902D01*
X47882Y-20902D01*
X47750Y-20956D01*
X47650Y-21057D01*
X47617Y-21134D01*
X47565Y-21134D01*
X47475Y-21134D01*
X47447Y-21134D01*
X47368Y-21134D01*
X47279Y-21134D01*
X47250Y-21134D01*
X47172Y-21134D01*
X47107Y-21134D01*
X47076Y-21057D01*
X46975Y-20957D01*
X46843Y-20902D01*
X46701Y-20902D01*
X46569Y-20956D01*
X46469Y-21057D01*
X46436Y-21134D01*
X46384Y-21134D01*
X46294Y-21134D01*
X46266Y-21134D01*
X46187Y-21134D01*
X46097Y-21134D01*
X46069Y-21134D01*
X45990Y-21134D01*
X45925Y-21134D01*
X45894Y-21057D01*
X45793Y-20957D01*
X45707Y-20921D01*
X45698Y-20899D01*
X45597Y-20799D01*
X45465Y-20744D01*
X45456Y-20744D01*
X45179Y-20467D01*
X45179Y-20409D01*
X45191Y-20421D01*
X45323Y-20476D01*
X45465Y-20476D01*
X45597Y-20422D01*
X45676Y-20341D01*
X45716Y-20358D01*
X45858Y-20358D01*
X45873Y-20351D01*
X45877Y-20360D01*
X45978Y-20460D01*
X46110Y-20515D01*
X46252Y-20515D01*
X46384Y-20461D01*
X46484Y-20360D01*
X46511Y-20293D01*
X46581Y-20265D01*
X46611Y-20233D01*
X46664Y-20361D01*
X46765Y-20461D01*
X46897Y-20516D01*
X47039Y-20516D01*
X47167Y-20463D01*
X47291Y-20515D01*
X47433Y-20515D01*
X47565Y-20461D01*
X47665Y-20360D01*
X47692Y-20293D01*
X47762Y-20265D01*
X47793Y-20233D01*
X47845Y-20360D01*
X47946Y-20460D01*
X48078Y-20515D01*
X48220Y-20515D01*
X48352Y-20461D01*
X48376Y-20436D01*
X48472Y-20476D01*
X48614Y-20476D01*
X48746Y-20422D01*
X48846Y-20321D01*
X48849Y-20312D01*
X48866Y-20319D01*
X49008Y-20319D01*
X49140Y-20265D01*
X49177Y-20227D01*
X49349Y-20399D01*
X49349Y-20670D01*
X49372Y-20784D01*
X49436Y-20880D01*
X49690Y-21134D01*
X49690Y-21134D01*
G37*
G54D43*
X49690Y-21134D02*
X49641Y-21134D01*
X49613Y-21134D01*
X49534Y-21134D01*
X49469Y-21134D01*
X49438Y-21057D01*
X49337Y-20957D01*
X49205Y-20902D01*
X49063Y-20902D01*
X48931Y-20956D01*
X48831Y-21057D01*
X48798Y-21134D01*
X48746Y-21134D01*
X48657Y-21134D01*
X48628Y-21134D01*
X48550Y-21134D01*
X48460Y-21134D01*
X48432Y-21134D01*
X48353Y-21134D01*
X48288Y-21134D01*
X48257Y-21057D01*
X48156Y-20957D01*
X48024Y-20902D01*
X47882Y-20902D01*
X47750Y-20956D01*
X47650Y-21057D01*
X47617Y-21134D01*
X47565Y-21134D01*
X47475Y-21134D01*
X47447Y-21134D01*
X47368Y-21134D01*
X47279Y-21134D01*
X47250Y-21134D01*
X47172Y-21134D01*
X47107Y-21134D01*
X47076Y-21057D01*
X46975Y-20957D01*
X46843Y-20902D01*
X46701Y-20902D01*
X46569Y-20956D01*
X46469Y-21057D01*
X46436Y-21134D01*
X46384Y-21134D01*
X46294Y-21134D01*
X46266Y-21134D01*
X46187Y-21134D01*
X46097Y-21134D01*
X46069Y-21134D01*
X45990Y-21134D01*
X45925Y-21134D01*
X45894Y-21057D01*
X45793Y-20957D01*
X45707Y-20921D01*
X45698Y-20899D01*
X45597Y-20799D01*
X45465Y-20744D01*
X45456Y-20744D01*
X45179Y-20467D01*
X45179Y-20409D01*
X45191Y-20421D01*
X45323Y-20476D01*
X45465Y-20476D01*
X45597Y-20422D01*
X45676Y-20341D01*
X45716Y-20358D01*
X45858Y-20358D01*
X45873Y-20351D01*
X45877Y-20360D01*
X45978Y-20460D01*
X46110Y-20515D01*
X46252Y-20515D01*
X46384Y-20461D01*
X46484Y-20360D01*
X46511Y-20293D01*
X46581Y-20265D01*
X46611Y-20233D01*
X46664Y-20361D01*
X46765Y-20461D01*
X46897Y-20516D01*
X47039Y-20516D01*
X47167Y-20463D01*
X47291Y-20515D01*
X47433Y-20515D01*
X47565Y-20461D01*
X47665Y-20360D01*
X47692Y-20293D01*
X47762Y-20265D01*
X47793Y-20233D01*
X47845Y-20360D01*
X47946Y-20460D01*
X48078Y-20515D01*
X48220Y-20515D01*
X48352Y-20461D01*
X48376Y-20436D01*
X48472Y-20476D01*
X48614Y-20476D01*
X48746Y-20422D01*
X48846Y-20321D01*
X48849Y-20312D01*
X48866Y-20319D01*
X49008Y-20319D01*
X49140Y-20265D01*
X49177Y-20227D01*
X49349Y-20399D01*
X49349Y-20670D01*
X49372Y-20784D01*
X49436Y-20880D01*
X49690Y-21134D01*
G54D10*
G36*
X66839Y-21170D02*
X66708Y-21170D01*
X66548Y-21010D01*
X66452Y-20946D01*
X66338Y-20923D01*
X65748Y-20923D01*
X65643Y-20944D01*
X65543Y-20902D01*
X65401Y-20902D01*
X65269Y-20956D01*
X65177Y-21048D01*
X65085Y-20957D01*
X64953Y-20902D01*
X64811Y-20902D01*
X64679Y-20956D01*
X64579Y-21057D01*
X64546Y-21134D01*
X64494Y-21134D01*
X64405Y-21134D01*
X64376Y-21134D01*
X64298Y-21134D01*
X64208Y-21134D01*
X64180Y-21134D01*
X64101Y-21134D01*
X64036Y-21134D01*
X64005Y-21057D01*
X63904Y-20957D01*
X63772Y-20902D01*
X63630Y-20902D01*
X63498Y-20956D01*
X63398Y-21057D01*
X63365Y-21134D01*
X63313Y-21134D01*
X63223Y-21134D01*
X63195Y-21134D01*
X63116Y-21134D01*
X63027Y-21134D01*
X62998Y-21134D01*
X62920Y-21134D01*
X62855Y-21134D01*
X62824Y-21057D01*
X62723Y-20957D01*
X62591Y-20902D01*
X62449Y-20902D01*
X62317Y-20956D01*
X62217Y-21057D01*
X62184Y-21134D01*
X62132Y-21134D01*
X62042Y-21134D01*
X62014Y-21134D01*
X61935Y-21134D01*
X61845Y-21134D01*
X61817Y-21134D01*
X61738Y-21134D01*
X61673Y-21134D01*
X61642Y-21057D01*
X61541Y-20957D01*
X61409Y-20902D01*
X61267Y-20902D01*
X61135Y-20956D01*
X61035Y-21057D01*
X61002Y-21134D01*
X60951Y-21134D01*
X60861Y-21134D01*
X60833Y-21134D01*
X60754Y-21134D01*
X60664Y-21134D01*
X60636Y-21134D01*
X60557Y-21134D01*
X60468Y-21134D01*
X60439Y-21134D01*
X60361Y-21134D01*
X60271Y-21134D01*
X60243Y-21134D01*
X60164Y-21134D01*
X60046Y-21134D01*
X59959Y-21170D01*
X58189Y-21170D01*
X58105Y-21134D01*
X57998Y-21134D01*
X57908Y-21134D01*
X57880Y-21134D01*
X57801Y-21134D01*
X57712Y-21134D01*
X57683Y-21134D01*
X57605Y-21134D01*
X57515Y-21134D01*
X57487Y-21134D01*
X57408Y-21134D01*
X57343Y-21134D01*
X57312Y-21057D01*
X57211Y-20957D01*
X57079Y-20902D01*
X56937Y-20902D01*
X56805Y-20956D01*
X56705Y-21057D01*
X56672Y-21134D01*
X56620Y-21134D01*
X56531Y-21134D01*
X56502Y-21134D01*
X56424Y-21134D01*
X56334Y-21134D01*
X56306Y-21134D01*
X56227Y-21134D01*
X56162Y-21134D01*
X56131Y-21057D01*
X56030Y-20957D01*
X55898Y-20902D01*
X55756Y-20902D01*
X55624Y-20956D01*
X55524Y-21057D01*
X55491Y-21134D01*
X55439Y-21134D01*
X55349Y-21134D01*
X55321Y-21134D01*
X55242Y-21134D01*
X55153Y-21134D01*
X55124Y-21134D01*
X55046Y-21134D01*
X54981Y-21134D01*
X54950Y-21057D01*
X54849Y-20957D01*
X54717Y-20902D01*
X54575Y-20902D01*
X54443Y-20956D01*
X54343Y-21057D01*
X54310Y-21134D01*
X54258Y-21134D01*
X54168Y-21134D01*
X54140Y-21134D01*
X54061Y-21134D01*
X53971Y-21134D01*
X53943Y-21134D01*
X53864Y-21134D01*
X53799Y-21134D01*
X53768Y-21057D01*
X53667Y-20957D01*
X53535Y-20902D01*
X53393Y-20902D01*
X53261Y-20956D01*
X53161Y-21057D01*
X53128Y-21134D01*
X53077Y-21134D01*
X52987Y-21134D01*
X52959Y-21134D01*
X52880Y-21134D01*
X52790Y-21134D01*
X52762Y-21134D01*
X52683Y-21134D01*
X52594Y-21134D01*
X52565Y-21134D01*
X52487Y-21134D01*
X52397Y-21134D01*
X52369Y-21134D01*
X52290Y-21134D01*
X52172Y-21134D01*
X52085Y-21170D01*
X50842Y-21170D01*
X50139Y-20467D01*
X50139Y-20249D01*
X50224Y-20164D01*
X50279Y-20032D01*
X50279Y-20006D01*
X50321Y-19989D01*
X50421Y-19888D01*
X50468Y-19775D01*
X51932Y-19775D01*
X51979Y-19888D01*
X52080Y-19988D01*
X52212Y-20043D01*
X52323Y-20043D01*
X52373Y-20164D01*
X52474Y-20264D01*
X52522Y-20284D01*
X52570Y-20400D01*
X52671Y-20500D01*
X52803Y-20555D01*
X52945Y-20555D01*
X53077Y-20501D01*
X53177Y-20400D01*
X53194Y-20357D01*
X53197Y-20358D01*
X53339Y-20358D01*
X53465Y-20306D01*
X53590Y-20358D01*
X53732Y-20358D01*
X53859Y-20305D01*
X53984Y-20358D01*
X54126Y-20358D01*
X54253Y-20305D01*
X54378Y-20358D01*
X54520Y-20358D01*
X54646Y-20306D01*
X54771Y-20358D01*
X54913Y-20358D01*
X55038Y-20306D01*
X55165Y-20359D01*
X55307Y-20359D01*
X55435Y-20306D01*
X55559Y-20358D01*
X55701Y-20358D01*
X55828Y-20305D01*
X55953Y-20358D01*
X56095Y-20358D01*
X56221Y-20306D01*
X56346Y-20358D01*
X56488Y-20358D01*
X56615Y-20305D01*
X56740Y-20358D01*
X56882Y-20358D01*
X57009Y-20305D01*
X57134Y-20358D01*
X57276Y-20358D01*
X57402Y-20306D01*
X57527Y-20358D01*
X57669Y-20358D01*
X57796Y-20305D01*
X57921Y-20358D01*
X58063Y-20358D01*
X58195Y-20304D01*
X58295Y-20203D01*
X58350Y-20071D01*
X58350Y-19929D01*
X58296Y-19797D01*
X58289Y-19790D01*
X58289Y-19775D01*
X59806Y-19775D01*
X59853Y-19888D01*
X59954Y-19988D01*
X59996Y-20005D01*
X59996Y-20071D01*
X60050Y-20203D01*
X60151Y-20303D01*
X60283Y-20358D01*
X60425Y-20358D01*
X60552Y-20305D01*
X60677Y-20358D01*
X60819Y-20358D01*
X60946Y-20305D01*
X61071Y-20358D01*
X61213Y-20358D01*
X61339Y-20306D01*
X61464Y-20358D01*
X61606Y-20358D01*
X61733Y-20305D01*
X61858Y-20358D01*
X62000Y-20358D01*
X62127Y-20305D01*
X62252Y-20358D01*
X62394Y-20358D01*
X62520Y-20306D01*
X62645Y-20358D01*
X62787Y-20358D01*
X62914Y-20305D01*
X63039Y-20358D01*
X63181Y-20358D01*
X63308Y-20305D01*
X63433Y-20358D01*
X63575Y-20358D01*
X63702Y-20305D01*
X63827Y-20358D01*
X63969Y-20358D01*
X64095Y-20306D01*
X64220Y-20358D01*
X64362Y-20358D01*
X64489Y-20305D01*
X64614Y-20358D01*
X64756Y-20358D01*
X64888Y-20304D01*
X64889Y-20302D01*
X64929Y-20319D01*
X65071Y-20319D01*
X65177Y-20275D01*
X65283Y-20319D01*
X65425Y-20319D01*
X65557Y-20265D01*
X65657Y-20164D01*
X65683Y-20100D01*
X66010Y-20100D01*
X66017Y-20106D01*
X66149Y-20161D01*
X66291Y-20161D01*
X66423Y-20107D01*
X66435Y-20094D01*
X66556Y-20144D01*
X66743Y-20144D01*
X66839Y-20104D01*
X66839Y-20120D01*
X66815Y-20177D01*
X66815Y-20363D01*
X66839Y-20421D01*
X66839Y-21170D01*
X66839Y-21170D01*
G37*
G54D43*
X66839Y-21170D02*
X66708Y-21170D01*
X66548Y-21010D01*
X66452Y-20946D01*
X66338Y-20923D01*
X65748Y-20923D01*
X65643Y-20944D01*
X65543Y-20902D01*
X65401Y-20902D01*
X65269Y-20956D01*
X65177Y-21048D01*
X65085Y-20957D01*
X64953Y-20902D01*
X64811Y-20902D01*
X64679Y-20956D01*
X64579Y-21057D01*
X64546Y-21134D01*
X64494Y-21134D01*
X64405Y-21134D01*
X64376Y-21134D01*
X64298Y-21134D01*
X64208Y-21134D01*
X64180Y-21134D01*
X64101Y-21134D01*
X64036Y-21134D01*
X64005Y-21057D01*
X63904Y-20957D01*
X63772Y-20902D01*
X63630Y-20902D01*
X63498Y-20956D01*
X63398Y-21057D01*
X63365Y-21134D01*
X63313Y-21134D01*
X63223Y-21134D01*
X63195Y-21134D01*
X63116Y-21134D01*
X63027Y-21134D01*
X62998Y-21134D01*
X62920Y-21134D01*
X62855Y-21134D01*
X62824Y-21057D01*
X62723Y-20957D01*
X62591Y-20902D01*
X62449Y-20902D01*
X62317Y-20956D01*
X62217Y-21057D01*
X62184Y-21134D01*
X62132Y-21134D01*
X62042Y-21134D01*
X62014Y-21134D01*
X61935Y-21134D01*
X61845Y-21134D01*
X61817Y-21134D01*
X61738Y-21134D01*
X61673Y-21134D01*
X61642Y-21057D01*
X61541Y-20957D01*
X61409Y-20902D01*
X61267Y-20902D01*
X61135Y-20956D01*
X61035Y-21057D01*
X61002Y-21134D01*
X60951Y-21134D01*
X60861Y-21134D01*
X60833Y-21134D01*
X60754Y-21134D01*
X60664Y-21134D01*
X60636Y-21134D01*
X60557Y-21134D01*
X60468Y-21134D01*
X60439Y-21134D01*
X60361Y-21134D01*
X60271Y-21134D01*
X60243Y-21134D01*
X60164Y-21134D01*
X60046Y-21134D01*
X59959Y-21170D01*
X58189Y-21170D01*
X58105Y-21134D01*
X57998Y-21134D01*
X57908Y-21134D01*
X57880Y-21134D01*
X57801Y-21134D01*
X57712Y-21134D01*
X57683Y-21134D01*
X57605Y-21134D01*
X57515Y-21134D01*
X57487Y-21134D01*
X57408Y-21134D01*
X57343Y-21134D01*
X57312Y-21057D01*
X57211Y-20957D01*
X57079Y-20902D01*
X56937Y-20902D01*
X56805Y-20956D01*
X56705Y-21057D01*
X56672Y-21134D01*
X56620Y-21134D01*
X56531Y-21134D01*
X56502Y-21134D01*
X56424Y-21134D01*
X56334Y-21134D01*
X56306Y-21134D01*
X56227Y-21134D01*
X56162Y-21134D01*
X56131Y-21057D01*
X56030Y-20957D01*
X55898Y-20902D01*
X55756Y-20902D01*
X55624Y-20956D01*
X55524Y-21057D01*
X55491Y-21134D01*
X55439Y-21134D01*
X55349Y-21134D01*
X55321Y-21134D01*
X55242Y-21134D01*
X55153Y-21134D01*
X55124Y-21134D01*
X55046Y-21134D01*
X54981Y-21134D01*
X54950Y-21057D01*
X54849Y-20957D01*
X54717Y-20902D01*
X54575Y-20902D01*
X54443Y-20956D01*
X54343Y-21057D01*
X54310Y-21134D01*
X54258Y-21134D01*
X54168Y-21134D01*
X54140Y-21134D01*
X54061Y-21134D01*
X53971Y-21134D01*
X53943Y-21134D01*
X53864Y-21134D01*
X53799Y-21134D01*
X53768Y-21057D01*
X53667Y-20957D01*
X53535Y-20902D01*
X53393Y-20902D01*
X53261Y-20956D01*
X53161Y-21057D01*
X53128Y-21134D01*
X53077Y-21134D01*
X52987Y-21134D01*
X52959Y-21134D01*
X52880Y-21134D01*
X52790Y-21134D01*
X52762Y-21134D01*
X52683Y-21134D01*
X52594Y-21134D01*
X52565Y-21134D01*
X52487Y-21134D01*
X52397Y-21134D01*
X52369Y-21134D01*
X52290Y-21134D01*
X52172Y-21134D01*
X52085Y-21170D01*
X50842Y-21170D01*
X50139Y-20467D01*
X50139Y-20249D01*
X50224Y-20164D01*
X50279Y-20032D01*
X50279Y-20006D01*
X50321Y-19989D01*
X50421Y-19888D01*
X50468Y-19775D01*
X51932Y-19775D01*
X51979Y-19888D01*
X52080Y-19988D01*
X52212Y-20043D01*
X52323Y-20043D01*
X52373Y-20164D01*
X52474Y-20264D01*
X52522Y-20284D01*
X52570Y-20400D01*
X52671Y-20500D01*
X52803Y-20555D01*
X52945Y-20555D01*
X53077Y-20501D01*
X53177Y-20400D01*
X53194Y-20357D01*
X53197Y-20358D01*
X53339Y-20358D01*
X53465Y-20306D01*
X53590Y-20358D01*
X53732Y-20358D01*
X53859Y-20305D01*
X53984Y-20358D01*
X54126Y-20358D01*
X54253Y-20305D01*
X54378Y-20358D01*
X54520Y-20358D01*
X54646Y-20306D01*
X54771Y-20358D01*
X54913Y-20358D01*
X55038Y-20306D01*
X55165Y-20359D01*
X55307Y-20359D01*
X55435Y-20306D01*
X55559Y-20358D01*
X55701Y-20358D01*
X55828Y-20305D01*
X55953Y-20358D01*
X56095Y-20358D01*
X56221Y-20306D01*
X56346Y-20358D01*
X56488Y-20358D01*
X56615Y-20305D01*
X56740Y-20358D01*
X56882Y-20358D01*
X57009Y-20305D01*
X57134Y-20358D01*
X57276Y-20358D01*
X57402Y-20306D01*
X57527Y-20358D01*
X57669Y-20358D01*
X57796Y-20305D01*
X57921Y-20358D01*
X58063Y-20358D01*
X58195Y-20304D01*
X58295Y-20203D01*
X58350Y-20071D01*
X58350Y-19929D01*
X58296Y-19797D01*
X58289Y-19790D01*
X58289Y-19775D01*
X59806Y-19775D01*
X59853Y-19888D01*
X59954Y-19988D01*
X59996Y-20005D01*
X59996Y-20071D01*
X60050Y-20203D01*
X60151Y-20303D01*
X60283Y-20358D01*
X60425Y-20358D01*
X60552Y-20305D01*
X60677Y-20358D01*
X60819Y-20358D01*
X60946Y-20305D01*
X61071Y-20358D01*
X61213Y-20358D01*
X61339Y-20306D01*
X61464Y-20358D01*
X61606Y-20358D01*
X61733Y-20305D01*
X61858Y-20358D01*
X62000Y-20358D01*
X62127Y-20305D01*
X62252Y-20358D01*
X62394Y-20358D01*
X62520Y-20306D01*
X62645Y-20358D01*
X62787Y-20358D01*
X62914Y-20305D01*
X63039Y-20358D01*
X63181Y-20358D01*
X63308Y-20305D01*
X63433Y-20358D01*
X63575Y-20358D01*
X63702Y-20305D01*
X63827Y-20358D01*
X63969Y-20358D01*
X64095Y-20306D01*
X64220Y-20358D01*
X64362Y-20358D01*
X64489Y-20305D01*
X64614Y-20358D01*
X64756Y-20358D01*
X64888Y-20304D01*
X64889Y-20302D01*
X64929Y-20319D01*
X65071Y-20319D01*
X65177Y-20275D01*
X65283Y-20319D01*
X65425Y-20319D01*
X65557Y-20265D01*
X65657Y-20164D01*
X65683Y-20100D01*
X66010Y-20100D01*
X66017Y-20106D01*
X66149Y-20161D01*
X66291Y-20161D01*
X66423Y-20107D01*
X66435Y-20094D01*
X66556Y-20144D01*
X66743Y-20144D01*
X66839Y-20104D01*
X66839Y-20120D01*
X66815Y-20177D01*
X66815Y-20363D01*
X66839Y-20421D01*
X66839Y-21170D01*
M02*
