M48
;DRILL file {Pcbnew (2013-05-09 BZR 4147)-testing} date 20/07/2013 09:35:49
;FORMAT={2:4/ absolute / inch / suppress leading zeros}
FMAT,2
INCH,TZ
T1C0.025
T2C0.040
T3C0.120
%
G90
G05
M72
T1
X32118Y-20835
X36142Y-31378
X36353Y-22146
X36417Y-20161
X36721Y-20987
X36811Y-22165
X37002Y-19981
X37035Y-22764
X37499Y-20118
X37563Y-22437
X37992Y-20118
X38370Y-24705
X38386Y-24150
X38484Y-23555
X38669Y-20136
X39063Y-38909
X39488Y-41299
X39622Y-44374
X39831Y-29768
X39843Y-18661
X40236Y-35551
X40511Y-43464
X40591Y-20787
X40647Y-34214
X40945Y-43071
X41024Y-49232
X41197Y-22295
X41506Y-35323
X41776Y-33020
X41811Y-33602
X41953Y-41957
X42205Y-35197
X42264Y-36358
X42510Y-43294
X42638Y-20079
X42638Y-35276
X42677Y-41063
X42751Y-44816
X43117Y-35372
X43177Y-43531
X43280Y-44399
X43465Y-32992
X43583Y-42047
X43701Y-34075
X43858Y-20984
X43858Y-43969
X43898Y-50236
X44134Y-34961
X44252Y-33228
X44434Y-43892
X44447Y-35300
X44476Y-31675
X44528Y-30354
X44563Y-44697
X44685Y-22244
X44724Y-32323
X44921Y-33386
X45039Y-45118
X45295Y-42087
X45295Y-42657
X45433Y-22323
X45843Y-34592
X45857Y-34029
X45906Y-20866
X45906Y-46969
X46220Y-35472
X46496Y-43524
X46713Y-33602
X46732Y-36810
X47126Y-42165
X47528Y-18713
X47717Y-41063
X47752Y-22291
X48382Y-38015
X48602Y-20807
X48661Y-40669
X48937Y-22244
X48937Y-36890
X50394Y-20138
X50591Y-20866
X51623Y-36637
X51933Y-20197
X52172Y-36019
X52382Y-32382
X53161Y-22177
X53346Y-39764
X53472Y-20118
X53543Y-27323
X53937Y-20138
X53945Y-18817
X54231Y-27023
X54520Y-20110
X54925Y-18882
X55076Y-33219
X55123Y-19995
X55374Y-35339
X55500Y-22575
X55657Y-20807
X55721Y-40748
X55772Y-20059
X55894Y-22858
X55949Y-43618
X56161Y-31654
X56166Y-35351
X56201Y-48409
X56249Y-46109
X56433Y-20185
X56568Y-44255
X56693Y-29138
X56693Y-33807
X56763Y-42854
X56774Y-43329
X56840Y-41938
X56906Y-34228
X57052Y-46919
X57094Y-44557
X57134Y-28752
X57237Y-44089
X57244Y-28287
X57264Y-42794
X57283Y-35012
X57402Y-43386
X57495Y-29643
X57616Y-30115
X57657Y-36705
X57709Y-28382
X57839Y-31965
X57922Y-46036
X57949Y-46978
X58076Y-43484
X58109Y-35307
X58188Y-28443
X58228Y-33661
X58469Y-20862
X58504Y-42126
X58575Y-43254
X58788Y-48353
X58806Y-46974
X58858Y-42598
X58956Y-29096
X59047Y-48902
X59370Y-44331
X59679Y-30668
X59694Y-46862
X59821Y-31862
X60039Y-41957
X60165Y-34161
X60169Y-33713
X60214Y-44690
X60217Y-46850
X61057Y-35499
X61650Y-42094
X61654Y-34075
X61984Y-43972
X62052Y-42481
X62205Y-32949
X62441Y-30866
X63189Y-38858
T2
X33201Y-24067
X34201Y-24067
X34343Y-29846
X34343Y-30946
X34343Y-31996
X34343Y-33096
X34343Y-44531
X34343Y-45631
X34343Y-46681
X34343Y-47781
X35343Y-29296
X35343Y-30396
X35343Y-31496
X35343Y-32546
X35343Y-33646
X35343Y-43981
X35343Y-45081
X35343Y-46181
X35343Y-47231
X35343Y-48331
X40201Y-38280
X40201Y-39280
X41201Y-38280
X41201Y-39280
X42201Y-38280
X42201Y-39280
X42205Y-50280
X42205Y-51280
X42205Y-52280
X43201Y-38280
X43201Y-39280
X44201Y-38280
X44201Y-39280
X45197Y-50280
X45197Y-51280
X45197Y-52280
X45201Y-38280
X45201Y-39280
X46201Y-38280
X46201Y-39280
X47201Y-28280
X47201Y-31280
X47201Y-38280
X47201Y-39280
X47992Y-51272
X47992Y-52272
X48201Y-28280
X48201Y-31280
X49201Y-28280
X49201Y-31280
X50748Y-51272
X50748Y-52272
X52583Y-28280
X52622Y-31280
X53504Y-51272
X53504Y-52272
X53583Y-28280
X53622Y-31280
X54583Y-28280
X54622Y-31280
X55161Y-38280
X55161Y-39280
X56161Y-38280
X56161Y-39280
X56457Y-50240
X56457Y-51240
X56457Y-52240
X57161Y-38280
X57161Y-39280
X58161Y-38280
X58161Y-39280
X59161Y-38280
X59161Y-39280
X59843Y-50240
X59843Y-51240
X59843Y-52240
X60161Y-38280
X60161Y-39280
X61161Y-38280
X61161Y-39280
X62161Y-38280
X62161Y-39280
X67020Y-29267
X67020Y-30367
X67020Y-31417
X67020Y-32517
X67020Y-33617
X67020Y-43913
X67020Y-45013
X67020Y-46063
X67020Y-47163
X67020Y-48263
X68020Y-29817
X68020Y-30917
X68020Y-31967
X68020Y-33067
X68020Y-44463
X68020Y-45563
X68020Y-46613
X68020Y-47713
T3
X34343Y-26446
X34343Y-36446
X34343Y-41131
X34343Y-51131
X68020Y-26467
X68020Y-36467
X68020Y-41113
X68020Y-51113
T0
M30
