G04 (created by PCBNEW (2013-05-09 BZR 4147)-testing) date 20/07/2013 09:35:41*
%MOIN*%
G04 Gerber Fmt 3.4, Leading zero omitted, Abs format*
%FSLAX34Y34*%
G01*
G70*
G90*
G04 APERTURE LIST*
%ADD10C,0.005906*%
%ADD11R,0.023800X0.069100*%
%ADD12R,0.112000X0.028900*%
%ADD13R,0.197000X0.028900*%
%ADD14C,0.052200*%
%ADD15C,0.138000*%
%ADD16C,0.162000*%
%ADD17R,0.072000X0.072000*%
%ADD18C,0.072000*%
G04 APERTURE END LIST*
G54D10*
G54D11*
X36496Y-21523D03*
X36496Y-19421D03*
X36693Y-21523D03*
X36693Y-19421D03*
X36889Y-21523D03*
X36889Y-19421D03*
X37086Y-21523D03*
X37086Y-19421D03*
X37283Y-21523D03*
X37283Y-19421D03*
X37480Y-21523D03*
X37480Y-19421D03*
X37677Y-21523D03*
X37677Y-19421D03*
X37874Y-21523D03*
X37874Y-19421D03*
X38070Y-21523D03*
X38070Y-19421D03*
X38267Y-21523D03*
X38267Y-19421D03*
X38464Y-21523D03*
X38464Y-19421D03*
X38661Y-21523D03*
X38661Y-19421D03*
X38858Y-21523D03*
X38858Y-19421D03*
X39055Y-21523D03*
X39055Y-19421D03*
X39252Y-21523D03*
X39252Y-19421D03*
X39448Y-21523D03*
X39448Y-19421D03*
X39645Y-21523D03*
X39645Y-19421D03*
X39842Y-21523D03*
X39842Y-19421D03*
X40039Y-21523D03*
X40039Y-19421D03*
X40236Y-21523D03*
X40236Y-19421D03*
X40433Y-21523D03*
X40433Y-19421D03*
X40630Y-21523D03*
X40630Y-19421D03*
X40826Y-21523D03*
X40826Y-19421D03*
X41023Y-21523D03*
X41023Y-19421D03*
X41220Y-21523D03*
X41220Y-19421D03*
X41417Y-21523D03*
X41417Y-19421D03*
X41614Y-21523D03*
X41614Y-19421D03*
X41811Y-21523D03*
X41811Y-19421D03*
X42007Y-21523D03*
X42007Y-19421D03*
X42204Y-21523D03*
X42204Y-19421D03*
G54D12*
X36175Y-20472D03*
G54D13*
X38100Y-20472D03*
X40600Y-20472D03*
G54D12*
X42525Y-20472D03*
G54D11*
X44370Y-21523D03*
X44370Y-19421D03*
X44567Y-21523D03*
X44567Y-19421D03*
X44763Y-21523D03*
X44763Y-19421D03*
X44960Y-21523D03*
X44960Y-19421D03*
X45157Y-21523D03*
X45157Y-19421D03*
X45354Y-21523D03*
X45354Y-19421D03*
X45551Y-21523D03*
X45551Y-19421D03*
X45748Y-21523D03*
X45748Y-19421D03*
X45944Y-21523D03*
X45944Y-19421D03*
X46141Y-21523D03*
X46141Y-19421D03*
X46338Y-21523D03*
X46338Y-19421D03*
X46535Y-21523D03*
X46535Y-19421D03*
X46732Y-21523D03*
X46732Y-19421D03*
X46929Y-21523D03*
X46929Y-19421D03*
X47126Y-21523D03*
X47126Y-19421D03*
X47322Y-21523D03*
X47322Y-19421D03*
X47519Y-21523D03*
X47519Y-19421D03*
X47716Y-21523D03*
X47716Y-19421D03*
X47913Y-21523D03*
X47913Y-19421D03*
X48110Y-21523D03*
X48110Y-19421D03*
X48307Y-21523D03*
X48307Y-19421D03*
X48504Y-21523D03*
X48504Y-19421D03*
X48700Y-21523D03*
X48700Y-19421D03*
X48897Y-21523D03*
X48897Y-19421D03*
X49094Y-21523D03*
X49094Y-19421D03*
X49291Y-21523D03*
X49291Y-19421D03*
X49488Y-21523D03*
X49488Y-19421D03*
X49685Y-21523D03*
X49685Y-19421D03*
X49881Y-21523D03*
X49881Y-19421D03*
X50078Y-21523D03*
X50078Y-19421D03*
G54D12*
X44049Y-20472D03*
G54D13*
X45974Y-20472D03*
X48474Y-20472D03*
G54D12*
X50399Y-20472D03*
G54D11*
X52244Y-21523D03*
X52244Y-19421D03*
X52441Y-21523D03*
X52441Y-19421D03*
X52637Y-21523D03*
X52637Y-19421D03*
X52834Y-21523D03*
X52834Y-19421D03*
X53031Y-21523D03*
X53031Y-19421D03*
X53228Y-21523D03*
X53228Y-19421D03*
X53425Y-21523D03*
X53425Y-19421D03*
X53622Y-21523D03*
X53622Y-19421D03*
X53818Y-21523D03*
X53818Y-19421D03*
X54015Y-21523D03*
X54015Y-19421D03*
X54212Y-21523D03*
X54212Y-19421D03*
X54409Y-21523D03*
X54409Y-19421D03*
X54606Y-21523D03*
X54606Y-19421D03*
X54803Y-21523D03*
X54803Y-19421D03*
X55000Y-21523D03*
X55000Y-19421D03*
X55196Y-21523D03*
X55196Y-19421D03*
X55393Y-21523D03*
X55393Y-19421D03*
X55590Y-21523D03*
X55590Y-19421D03*
X55787Y-21523D03*
X55787Y-19421D03*
X55984Y-21523D03*
X55984Y-19421D03*
X56181Y-21523D03*
X56181Y-19421D03*
X56378Y-21523D03*
X56378Y-19421D03*
X56574Y-21523D03*
X56574Y-19421D03*
X56771Y-21523D03*
X56771Y-19421D03*
X56968Y-21523D03*
X56968Y-19421D03*
X57165Y-21523D03*
X57165Y-19421D03*
X57362Y-21523D03*
X57362Y-19421D03*
X57559Y-21523D03*
X57559Y-19421D03*
X57755Y-21523D03*
X57755Y-19421D03*
X57952Y-21523D03*
X57952Y-19421D03*
G54D12*
X51923Y-20472D03*
G54D13*
X53848Y-20472D03*
X56348Y-20472D03*
G54D12*
X58273Y-20472D03*
G54D14*
X35393Y-21523D03*
X59055Y-21523D03*
G54D15*
X33070Y-18897D03*
X69290Y-18897D03*
X33070Y-55118D03*
X69290Y-55118D03*
G54D16*
X34342Y-26446D03*
X34342Y-36446D03*
G54D17*
X35342Y-29296D03*
G54D18*
X35342Y-30396D03*
X35342Y-31496D03*
X35342Y-32546D03*
X35342Y-33646D03*
X34342Y-33096D03*
X34342Y-31996D03*
X34342Y-30946D03*
X34342Y-29846D03*
G54D16*
X34342Y-41131D03*
X34342Y-51131D03*
G54D17*
X35342Y-48331D03*
G54D18*
X35342Y-47231D03*
X35342Y-46181D03*
X35342Y-45081D03*
X35342Y-43981D03*
X34342Y-47781D03*
X34342Y-46681D03*
X34342Y-45631D03*
X34342Y-44531D03*
G54D17*
X40200Y-39279D03*
G54D18*
X40200Y-38279D03*
X41200Y-39279D03*
X41200Y-38279D03*
X42200Y-39279D03*
X42200Y-38279D03*
X43200Y-39279D03*
X43200Y-38279D03*
X44200Y-39279D03*
X44200Y-38279D03*
X45200Y-39279D03*
X45200Y-38279D03*
X46200Y-39279D03*
X46200Y-38279D03*
X47200Y-39279D03*
X47200Y-38279D03*
G54D17*
X42204Y-52279D03*
G54D18*
X42204Y-51279D03*
X42204Y-50279D03*
G54D17*
X47200Y-28279D03*
G54D18*
X48200Y-28279D03*
X49200Y-28279D03*
G54D17*
X47200Y-31279D03*
G54D18*
X48200Y-31279D03*
X49200Y-31279D03*
G54D17*
X45196Y-52279D03*
G54D18*
X45196Y-51279D03*
X45196Y-50279D03*
G54D17*
X47992Y-52271D03*
G54D18*
X47992Y-51271D03*
G54D17*
X34200Y-24066D03*
G54D18*
X33200Y-24066D03*
G54D16*
X68019Y-36467D03*
X68019Y-26467D03*
G54D17*
X67019Y-33617D03*
G54D18*
X67019Y-32517D03*
X67019Y-31417D03*
X67019Y-30367D03*
X67019Y-29267D03*
X68019Y-29817D03*
X68019Y-30917D03*
X68019Y-31967D03*
X68019Y-33067D03*
G54D16*
X68019Y-51112D03*
X68019Y-41112D03*
G54D17*
X67019Y-43912D03*
G54D18*
X67019Y-45012D03*
X67019Y-46062D03*
X67019Y-47162D03*
X67019Y-48262D03*
X68019Y-44462D03*
X68019Y-45562D03*
X68019Y-46612D03*
X68019Y-47712D03*
G54D17*
X53503Y-52271D03*
G54D18*
X53503Y-51271D03*
G54D17*
X59842Y-52240D03*
G54D18*
X59842Y-51240D03*
X59842Y-50240D03*
G54D17*
X54622Y-31279D03*
G54D18*
X53622Y-31279D03*
X52622Y-31279D03*
G54D17*
X54582Y-28279D03*
G54D18*
X53582Y-28279D03*
X52582Y-28279D03*
G54D17*
X56456Y-52240D03*
G54D18*
X56456Y-51240D03*
X56456Y-50240D03*
G54D17*
X55161Y-39279D03*
G54D18*
X55161Y-38279D03*
X56161Y-39279D03*
X56161Y-38279D03*
X57161Y-39279D03*
X57161Y-38279D03*
X58161Y-39279D03*
X58161Y-38279D03*
X59161Y-39279D03*
X59161Y-38279D03*
X60161Y-39279D03*
X60161Y-38279D03*
X61161Y-39279D03*
X61161Y-38279D03*
X62161Y-39279D03*
X62161Y-38279D03*
G54D17*
X50748Y-52271D03*
G54D18*
X50748Y-51271D03*
M02*
