G04 (created by PCBNEW (2013-05-09 BZR 4147)-testing) date 20/07/2013 09:35:41*
%MOIN*%
G04 Gerber Fmt 3.4, Leading zero omitted, Abs format*
%FSLAX34Y34*%
G01*
G70*
G90*
G04 APERTURE LIST*
%ADD10C,0.005906*%
%ADD11C,0.011811*%
%ADD12C,0.007874*%
%ADD13C,0.008000*%
%ADD14C,0.012000*%
%ADD15C,0.005000*%
%ADD16C,0.015000*%
G04 APERTURE END LIST*
G54D10*
G54D11*
X51133Y-47435D02*
X50542Y-47435D01*
X51133Y-47182D02*
X50823Y-47182D01*
X50767Y-47210D01*
X50739Y-47266D01*
X50739Y-47350D01*
X50767Y-47407D01*
X50795Y-47435D01*
X50739Y-46985D02*
X50739Y-46760D01*
X50542Y-46901D02*
X51048Y-46901D01*
X51105Y-46872D01*
X51133Y-46816D01*
X51133Y-46760D01*
X50739Y-46647D02*
X50739Y-46422D01*
X50542Y-46563D02*
X51048Y-46563D01*
X51105Y-46535D01*
X51133Y-46479D01*
X51133Y-46422D01*
X50739Y-46226D02*
X51330Y-46226D01*
X50767Y-46226D02*
X50739Y-46169D01*
X50739Y-46057D01*
X50767Y-46001D01*
X50795Y-45973D01*
X50852Y-45944D01*
X51020Y-45944D01*
X51077Y-45973D01*
X51105Y-46001D01*
X51133Y-46057D01*
X51133Y-46169D01*
X51105Y-46226D01*
X51077Y-45691D02*
X51105Y-45663D01*
X51133Y-45691D01*
X51105Y-45719D01*
X51077Y-45691D01*
X51133Y-45691D01*
X50767Y-45691D02*
X50795Y-45663D01*
X50823Y-45691D01*
X50795Y-45719D01*
X50767Y-45691D01*
X50823Y-45691D01*
X50514Y-44988D02*
X51273Y-45494D01*
X50514Y-44370D02*
X51273Y-44876D01*
X50739Y-43920D02*
X51217Y-43920D01*
X51273Y-43948D01*
X51302Y-43976D01*
X51330Y-44032D01*
X51330Y-44116D01*
X51302Y-44173D01*
X51105Y-43920D02*
X51133Y-43976D01*
X51133Y-44088D01*
X51105Y-44145D01*
X51077Y-44173D01*
X51020Y-44201D01*
X50852Y-44201D01*
X50795Y-44173D01*
X50767Y-44145D01*
X50739Y-44088D01*
X50739Y-43976D01*
X50767Y-43920D01*
X51133Y-43638D02*
X50739Y-43638D01*
X50852Y-43638D02*
X50795Y-43610D01*
X50767Y-43582D01*
X50739Y-43526D01*
X50739Y-43470D01*
X51105Y-43048D02*
X51133Y-43104D01*
X51133Y-43217D01*
X51105Y-43273D01*
X51048Y-43301D01*
X50823Y-43301D01*
X50767Y-43273D01*
X50739Y-43217D01*
X50739Y-43104D01*
X50767Y-43048D01*
X50823Y-43020D01*
X50880Y-43020D01*
X50936Y-43301D01*
X51133Y-42514D02*
X50823Y-42514D01*
X50767Y-42542D01*
X50739Y-42598D01*
X50739Y-42710D01*
X50767Y-42767D01*
X51105Y-42514D02*
X51133Y-42570D01*
X51133Y-42710D01*
X51105Y-42767D01*
X51048Y-42795D01*
X50992Y-42795D01*
X50936Y-42767D01*
X50908Y-42710D01*
X50908Y-42570D01*
X50880Y-42514D01*
X50739Y-42317D02*
X50739Y-42092D01*
X50542Y-42232D02*
X51048Y-42232D01*
X51105Y-42204D01*
X51133Y-42148D01*
X51133Y-42092D01*
X51105Y-41923D02*
X51133Y-41867D01*
X51133Y-41754D01*
X51105Y-41698D01*
X51048Y-41670D01*
X51020Y-41670D01*
X50964Y-41698D01*
X50936Y-41754D01*
X50936Y-41839D01*
X50908Y-41895D01*
X50852Y-41923D01*
X50823Y-41923D01*
X50767Y-41895D01*
X50739Y-41839D01*
X50739Y-41754D01*
X50767Y-41698D01*
X51105Y-41164D02*
X51133Y-41220D01*
X51133Y-41332D01*
X51105Y-41389D01*
X51077Y-41417D01*
X51020Y-41445D01*
X50852Y-41445D01*
X50795Y-41417D01*
X50767Y-41389D01*
X50739Y-41332D01*
X50739Y-41220D01*
X50767Y-41164D01*
X51133Y-40826D02*
X51105Y-40883D01*
X51077Y-40911D01*
X51020Y-40939D01*
X50852Y-40939D01*
X50795Y-40911D01*
X50767Y-40883D01*
X50739Y-40826D01*
X50739Y-40742D01*
X50767Y-40686D01*
X50795Y-40658D01*
X50852Y-40629D01*
X51020Y-40629D01*
X51077Y-40658D01*
X51105Y-40686D01*
X51133Y-40742D01*
X51133Y-40826D01*
X50739Y-40461D02*
X50739Y-40236D01*
X50542Y-40376D02*
X51048Y-40376D01*
X51105Y-40348D01*
X51133Y-40292D01*
X51133Y-40236D01*
X50739Y-40123D02*
X50739Y-39898D01*
X50542Y-40039D02*
X51048Y-40039D01*
X51105Y-40011D01*
X51133Y-39955D01*
X51133Y-39898D01*
X50739Y-39448D02*
X51217Y-39448D01*
X51273Y-39476D01*
X51302Y-39505D01*
X51330Y-39561D01*
X51330Y-39645D01*
X51302Y-39701D01*
X51105Y-39448D02*
X51133Y-39505D01*
X51133Y-39617D01*
X51105Y-39673D01*
X51077Y-39701D01*
X51020Y-39730D01*
X50852Y-39730D01*
X50795Y-39701D01*
X50767Y-39673D01*
X50739Y-39617D01*
X50739Y-39505D01*
X50767Y-39448D01*
X51133Y-38914D02*
X50823Y-38914D01*
X50767Y-38942D01*
X50739Y-38998D01*
X50739Y-39111D01*
X50767Y-39167D01*
X51105Y-38914D02*
X51133Y-38970D01*
X51133Y-39111D01*
X51105Y-39167D01*
X51048Y-39195D01*
X50992Y-39195D01*
X50936Y-39167D01*
X50908Y-39111D01*
X50908Y-38970D01*
X50880Y-38914D01*
X51133Y-38380D02*
X50542Y-38380D01*
X51105Y-38380D02*
X51133Y-38436D01*
X51133Y-38548D01*
X51105Y-38605D01*
X51077Y-38633D01*
X51020Y-38661D01*
X50852Y-38661D01*
X50795Y-38633D01*
X50767Y-38605D01*
X50739Y-38548D01*
X50739Y-38436D01*
X50767Y-38380D01*
X50739Y-37845D02*
X51217Y-37845D01*
X51273Y-37874D01*
X51302Y-37902D01*
X51330Y-37958D01*
X51330Y-38042D01*
X51302Y-38098D01*
X51105Y-37845D02*
X51133Y-37902D01*
X51133Y-38014D01*
X51105Y-38070D01*
X51077Y-38098D01*
X51020Y-38127D01*
X50852Y-38127D01*
X50795Y-38098D01*
X50767Y-38070D01*
X50739Y-38014D01*
X50739Y-37902D01*
X50767Y-37845D01*
X51105Y-37339D02*
X51133Y-37395D01*
X51133Y-37508D01*
X51105Y-37564D01*
X51048Y-37592D01*
X50823Y-37592D01*
X50767Y-37564D01*
X50739Y-37508D01*
X50739Y-37395D01*
X50767Y-37339D01*
X50823Y-37311D01*
X50880Y-37311D01*
X50936Y-37592D01*
X50739Y-37142D02*
X50739Y-36917D01*
X50542Y-37058D02*
X51048Y-37058D01*
X51105Y-37030D01*
X51133Y-36974D01*
X51133Y-36917D01*
X51105Y-36749D02*
X51133Y-36692D01*
X51133Y-36580D01*
X51105Y-36524D01*
X51048Y-36496D01*
X51020Y-36496D01*
X50964Y-36524D01*
X50936Y-36580D01*
X50936Y-36664D01*
X50908Y-36721D01*
X50852Y-36749D01*
X50823Y-36749D01*
X50767Y-36721D01*
X50739Y-36664D01*
X50739Y-36580D01*
X50767Y-36524D01*
X51077Y-36242D02*
X51105Y-36214D01*
X51133Y-36242D01*
X51105Y-36271D01*
X51077Y-36242D01*
X51133Y-36242D01*
X51105Y-35708D02*
X51133Y-35764D01*
X51133Y-35877D01*
X51105Y-35933D01*
X51077Y-35961D01*
X51020Y-35989D01*
X50852Y-35989D01*
X50795Y-35961D01*
X50767Y-35933D01*
X50739Y-35877D01*
X50739Y-35764D01*
X50767Y-35708D01*
X51133Y-35371D02*
X51105Y-35427D01*
X51077Y-35455D01*
X51020Y-35483D01*
X50852Y-35483D01*
X50795Y-35455D01*
X50767Y-35427D01*
X50739Y-35371D01*
X50739Y-35286D01*
X50767Y-35230D01*
X50795Y-35202D01*
X50852Y-35174D01*
X51020Y-35174D01*
X51077Y-35202D01*
X51105Y-35230D01*
X51133Y-35286D01*
X51133Y-35371D01*
X51133Y-34921D02*
X50739Y-34921D01*
X50795Y-34921D02*
X50767Y-34893D01*
X50739Y-34836D01*
X50739Y-34752D01*
X50767Y-34696D01*
X50823Y-34668D01*
X51133Y-34668D01*
X50823Y-34668D02*
X50767Y-34640D01*
X50739Y-34583D01*
X50739Y-34499D01*
X50767Y-34443D01*
X50823Y-34415D01*
X51133Y-34415D01*
X50514Y-33712D02*
X51273Y-34218D01*
X51133Y-33262D02*
X50542Y-33262D01*
X51105Y-33262D02*
X51133Y-33318D01*
X51133Y-33430D01*
X51105Y-33487D01*
X51077Y-33515D01*
X51020Y-33543D01*
X50852Y-33543D01*
X50795Y-33515D01*
X50767Y-33487D01*
X50739Y-33430D01*
X50739Y-33318D01*
X50767Y-33262D01*
X51133Y-32727D02*
X50823Y-32727D01*
X50767Y-32755D01*
X50739Y-32812D01*
X50739Y-32924D01*
X50767Y-32980D01*
X51105Y-32727D02*
X51133Y-32784D01*
X51133Y-32924D01*
X51105Y-32980D01*
X51048Y-33008D01*
X50992Y-33008D01*
X50936Y-32980D01*
X50908Y-32924D01*
X50908Y-32784D01*
X50880Y-32727D01*
X51133Y-32446D02*
X50739Y-32446D01*
X50542Y-32446D02*
X50570Y-32474D01*
X50598Y-32446D01*
X50570Y-32418D01*
X50542Y-32446D01*
X50598Y-32446D01*
X51105Y-32193D02*
X51133Y-32137D01*
X51133Y-32024D01*
X51105Y-31968D01*
X51048Y-31940D01*
X51020Y-31940D01*
X50964Y-31968D01*
X50936Y-32024D01*
X50936Y-32109D01*
X50908Y-32165D01*
X50852Y-32193D01*
X50823Y-32193D01*
X50767Y-32165D01*
X50739Y-32109D01*
X50739Y-32024D01*
X50767Y-31968D01*
X51133Y-31687D02*
X50542Y-31687D01*
X51133Y-31434D02*
X50823Y-31434D01*
X50767Y-31462D01*
X50739Y-31518D01*
X50739Y-31602D01*
X50767Y-31659D01*
X50795Y-31687D01*
X51133Y-31068D02*
X51105Y-31124D01*
X51077Y-31152D01*
X51020Y-31181D01*
X50852Y-31181D01*
X50795Y-31152D01*
X50767Y-31124D01*
X50739Y-31068D01*
X50739Y-30984D01*
X50767Y-30928D01*
X50795Y-30899D01*
X50852Y-30871D01*
X51020Y-30871D01*
X51077Y-30899D01*
X51105Y-30928D01*
X51133Y-30984D01*
X51133Y-31068D01*
X50514Y-30196D02*
X51273Y-30703D01*
X59406Y-53928D02*
X59406Y-53338D01*
X59631Y-53338D01*
X59687Y-53366D01*
X59715Y-53394D01*
X59744Y-53450D01*
X59744Y-53534D01*
X59715Y-53591D01*
X59687Y-53619D01*
X59631Y-53647D01*
X59406Y-53647D01*
X60025Y-53928D02*
X60137Y-53928D01*
X60194Y-53900D01*
X60222Y-53872D01*
X60278Y-53787D01*
X60306Y-53675D01*
X60306Y-53450D01*
X60278Y-53394D01*
X60250Y-53366D01*
X60194Y-53338D01*
X60081Y-53338D01*
X60025Y-53366D01*
X59997Y-53394D01*
X59969Y-53450D01*
X59969Y-53591D01*
X59997Y-53647D01*
X60025Y-53675D01*
X60081Y-53703D01*
X60194Y-53703D01*
X60250Y-53675D01*
X60278Y-53647D01*
X60306Y-53591D01*
X55660Y-53928D02*
X55660Y-53338D01*
X55885Y-53338D01*
X55942Y-53366D01*
X55970Y-53394D01*
X55998Y-53450D01*
X55998Y-53534D01*
X55970Y-53591D01*
X55942Y-53619D01*
X55885Y-53647D01*
X55660Y-53647D01*
X56560Y-53928D02*
X56223Y-53928D01*
X56392Y-53928D02*
X56392Y-53338D01*
X56335Y-53422D01*
X56279Y-53478D01*
X56223Y-53506D01*
X56785Y-53394D02*
X56813Y-53366D01*
X56870Y-53338D01*
X57010Y-53338D01*
X57066Y-53366D01*
X57095Y-53394D01*
X57123Y-53450D01*
X57123Y-53506D01*
X57095Y-53591D01*
X56757Y-53928D01*
X57123Y-53928D01*
X53107Y-49755D02*
X53107Y-49164D01*
X53332Y-49164D01*
X53388Y-49192D01*
X53416Y-49221D01*
X53444Y-49277D01*
X53444Y-49361D01*
X53416Y-49417D01*
X53388Y-49446D01*
X53332Y-49474D01*
X53107Y-49474D01*
X53782Y-49417D02*
X53726Y-49389D01*
X53697Y-49361D01*
X53669Y-49305D01*
X53669Y-49277D01*
X53697Y-49221D01*
X53726Y-49192D01*
X53782Y-49164D01*
X53894Y-49164D01*
X53951Y-49192D01*
X53979Y-49221D01*
X54007Y-49277D01*
X54007Y-49305D01*
X53979Y-49361D01*
X53951Y-49389D01*
X53894Y-49417D01*
X53782Y-49417D01*
X53726Y-49446D01*
X53697Y-49474D01*
X53669Y-49530D01*
X53669Y-49642D01*
X53697Y-49699D01*
X53726Y-49727D01*
X53782Y-49755D01*
X53894Y-49755D01*
X53951Y-49727D01*
X53979Y-49699D01*
X54007Y-49642D01*
X54007Y-49530D01*
X53979Y-49474D01*
X53951Y-49446D01*
X53894Y-49417D01*
X50070Y-49715D02*
X50070Y-49125D01*
X50295Y-49125D01*
X50351Y-49153D01*
X50379Y-49181D01*
X50407Y-49237D01*
X50407Y-49322D01*
X50379Y-49378D01*
X50351Y-49406D01*
X50295Y-49434D01*
X50070Y-49434D01*
X50970Y-49715D02*
X50632Y-49715D01*
X50801Y-49715D02*
X50801Y-49125D01*
X50745Y-49209D01*
X50688Y-49266D01*
X50632Y-49294D01*
X51476Y-49322D02*
X51476Y-49715D01*
X51335Y-49097D02*
X51195Y-49519D01*
X51560Y-49519D01*
G54D12*
X50408Y-53385D02*
X50371Y-53367D01*
X50314Y-53367D01*
X50258Y-53385D01*
X50221Y-53423D01*
X50202Y-53460D01*
X50183Y-53535D01*
X50183Y-53592D01*
X50202Y-53667D01*
X50221Y-53704D01*
X50258Y-53742D01*
X50314Y-53760D01*
X50352Y-53760D01*
X50408Y-53742D01*
X50427Y-53723D01*
X50427Y-53592D01*
X50352Y-53592D01*
X50596Y-53760D02*
X50596Y-53367D01*
X50821Y-53760D01*
X50821Y-53367D01*
X51008Y-53760D02*
X51008Y-53367D01*
X51102Y-53367D01*
X51158Y-53385D01*
X51196Y-53423D01*
X51214Y-53460D01*
X51233Y-53535D01*
X51233Y-53592D01*
X51214Y-53667D01*
X51196Y-53704D01*
X51158Y-53742D01*
X51102Y-53760D01*
X51008Y-53760D01*
X50103Y-49981D02*
X50346Y-49981D01*
X50215Y-50131D01*
X50271Y-50131D01*
X50309Y-50149D01*
X50328Y-50168D01*
X50346Y-50206D01*
X50346Y-50299D01*
X50328Y-50337D01*
X50309Y-50356D01*
X50271Y-50374D01*
X50159Y-50374D01*
X50121Y-50356D01*
X50103Y-50337D01*
X50459Y-49981D02*
X50590Y-50374D01*
X50721Y-49981D01*
X50815Y-49981D02*
X51059Y-49981D01*
X50928Y-50131D01*
X50984Y-50131D01*
X51021Y-50149D01*
X51040Y-50168D01*
X51059Y-50206D01*
X51059Y-50299D01*
X51040Y-50337D01*
X51021Y-50356D01*
X50984Y-50374D01*
X50871Y-50374D01*
X50834Y-50356D01*
X50815Y-50337D01*
X51359Y-50168D02*
X51415Y-50187D01*
X51434Y-50206D01*
X51452Y-50243D01*
X51452Y-50299D01*
X51434Y-50337D01*
X51415Y-50356D01*
X51377Y-50374D01*
X51227Y-50374D01*
X51227Y-49981D01*
X51359Y-49981D01*
X51396Y-50000D01*
X51415Y-50018D01*
X51434Y-50056D01*
X51434Y-50093D01*
X51415Y-50131D01*
X51396Y-50149D01*
X51359Y-50168D01*
X51227Y-50168D01*
X53203Y-53346D02*
X53166Y-53327D01*
X53110Y-53327D01*
X53053Y-53346D01*
X53016Y-53383D01*
X52997Y-53421D01*
X52979Y-53496D01*
X52979Y-53552D01*
X52997Y-53627D01*
X53016Y-53665D01*
X53053Y-53702D01*
X53110Y-53721D01*
X53147Y-53721D01*
X53203Y-53702D01*
X53222Y-53683D01*
X53222Y-53552D01*
X53147Y-53552D01*
X53391Y-53721D02*
X53391Y-53327D01*
X53616Y-53721D01*
X53616Y-53327D01*
X53803Y-53721D02*
X53803Y-53327D01*
X53897Y-53327D01*
X53953Y-53346D01*
X53991Y-53383D01*
X54010Y-53421D01*
X54028Y-53496D01*
X54028Y-53552D01*
X54010Y-53627D01*
X53991Y-53665D01*
X53953Y-53702D01*
X53897Y-53721D01*
X53803Y-53721D01*
X52859Y-49981D02*
X53102Y-49981D01*
X52971Y-50131D01*
X53027Y-50131D01*
X53065Y-50149D01*
X53083Y-50168D01*
X53102Y-50206D01*
X53102Y-50299D01*
X53083Y-50337D01*
X53065Y-50356D01*
X53027Y-50374D01*
X52915Y-50374D01*
X52877Y-50356D01*
X52859Y-50337D01*
X53215Y-49981D02*
X53346Y-50374D01*
X53477Y-49981D01*
X53571Y-49981D02*
X53815Y-49981D01*
X53683Y-50131D01*
X53740Y-50131D01*
X53777Y-50149D01*
X53796Y-50168D01*
X53815Y-50206D01*
X53815Y-50299D01*
X53796Y-50337D01*
X53777Y-50356D01*
X53740Y-50374D01*
X53627Y-50374D01*
X53590Y-50356D01*
X53571Y-50337D01*
X54208Y-50337D02*
X54190Y-50356D01*
X54133Y-50374D01*
X54096Y-50374D01*
X54040Y-50356D01*
X54002Y-50318D01*
X53983Y-50281D01*
X53965Y-50206D01*
X53965Y-50149D01*
X53983Y-50074D01*
X54002Y-50037D01*
X54040Y-50000D01*
X54096Y-49981D01*
X54133Y-49981D01*
X54190Y-50000D01*
X54208Y-50018D01*
G54D11*
X51763Y-27550D02*
X51763Y-26960D01*
X51988Y-26960D01*
X52044Y-26988D01*
X52072Y-27016D01*
X52100Y-27072D01*
X52100Y-27156D01*
X52072Y-27213D01*
X52044Y-27241D01*
X51988Y-27269D01*
X51763Y-27269D01*
X52663Y-27550D02*
X52325Y-27550D01*
X52494Y-27550D02*
X52494Y-26960D01*
X52438Y-27044D01*
X52381Y-27100D01*
X52325Y-27128D01*
X53225Y-27550D02*
X52888Y-27550D01*
X53056Y-27550D02*
X53056Y-26960D01*
X53000Y-27044D01*
X52944Y-27100D01*
X52888Y-27128D01*
X52353Y-30582D02*
X52353Y-29991D01*
X52578Y-29991D01*
X52634Y-30019D01*
X52663Y-30047D01*
X52691Y-30104D01*
X52691Y-30188D01*
X52663Y-30244D01*
X52634Y-30272D01*
X52578Y-30300D01*
X52353Y-30300D01*
X53253Y-30582D02*
X52916Y-30582D01*
X53084Y-30582D02*
X53084Y-29991D01*
X53028Y-30075D01*
X52972Y-30132D01*
X52916Y-30160D01*
X53619Y-29991D02*
X53675Y-29991D01*
X53731Y-30019D01*
X53759Y-30047D01*
X53787Y-30104D01*
X53816Y-30216D01*
X53816Y-30357D01*
X53787Y-30469D01*
X53759Y-30525D01*
X53731Y-30553D01*
X53675Y-30582D01*
X53619Y-30582D01*
X53562Y-30553D01*
X53534Y-30525D01*
X53506Y-30469D01*
X53478Y-30357D01*
X53478Y-30216D01*
X53506Y-30104D01*
X53534Y-30047D01*
X53562Y-30019D01*
X53619Y-29991D01*
X47949Y-27314D02*
X47949Y-26723D01*
X48174Y-26723D01*
X48231Y-26751D01*
X48259Y-26780D01*
X48287Y-26836D01*
X48287Y-26920D01*
X48259Y-26976D01*
X48231Y-27005D01*
X48174Y-27033D01*
X47949Y-27033D01*
X48484Y-26723D02*
X48849Y-26723D01*
X48652Y-26948D01*
X48737Y-26948D01*
X48793Y-26976D01*
X48821Y-27005D01*
X48849Y-27061D01*
X48849Y-27201D01*
X48821Y-27258D01*
X48793Y-27286D01*
X48737Y-27314D01*
X48568Y-27314D01*
X48512Y-27286D01*
X48484Y-27258D01*
X52826Y-39243D02*
X52826Y-38652D01*
X53051Y-38652D01*
X53107Y-38681D01*
X53135Y-38709D01*
X53163Y-38765D01*
X53163Y-38849D01*
X53135Y-38906D01*
X53107Y-38934D01*
X53051Y-38962D01*
X52826Y-38962D01*
X53726Y-39243D02*
X53388Y-39243D01*
X53557Y-39243D02*
X53557Y-38652D01*
X53501Y-38737D01*
X53444Y-38793D01*
X53388Y-38821D01*
X53922Y-38652D02*
X54288Y-38652D01*
X54091Y-38877D01*
X54176Y-38877D01*
X54232Y-38906D01*
X54260Y-38934D01*
X54288Y-38990D01*
X54288Y-39131D01*
X54260Y-39187D01*
X54232Y-39215D01*
X54176Y-39243D01*
X54007Y-39243D01*
X53951Y-39215D01*
X53922Y-39187D01*
X65708Y-41763D02*
X65708Y-42185D01*
X65680Y-42269D01*
X65624Y-42325D01*
X65539Y-42353D01*
X65483Y-42353D01*
X66271Y-41763D02*
X65989Y-41763D01*
X65961Y-42044D01*
X65989Y-42016D01*
X66046Y-41988D01*
X66186Y-41988D01*
X66242Y-42016D01*
X66271Y-42044D01*
X66299Y-42100D01*
X66299Y-42241D01*
X66271Y-42297D01*
X66242Y-42325D01*
X66186Y-42353D01*
X66046Y-42353D01*
X65989Y-42325D01*
X65961Y-42297D01*
X65708Y-25857D02*
X65708Y-26279D01*
X65680Y-26363D01*
X65624Y-26420D01*
X65539Y-26448D01*
X65483Y-26448D01*
X66242Y-26054D02*
X66242Y-26448D01*
X66102Y-25829D02*
X65961Y-26251D01*
X66327Y-26251D01*
X58281Y-27826D02*
X58281Y-27235D01*
X58422Y-27235D01*
X58506Y-27263D01*
X58562Y-27320D01*
X58591Y-27376D01*
X58619Y-27488D01*
X58619Y-27573D01*
X58591Y-27685D01*
X58562Y-27741D01*
X58506Y-27798D01*
X58422Y-27826D01*
X58281Y-27826D01*
X58787Y-27235D02*
X59125Y-27235D01*
X58956Y-27826D02*
X58956Y-27235D01*
X59322Y-27516D02*
X59519Y-27516D01*
X59603Y-27826D02*
X59322Y-27826D01*
X59322Y-27235D01*
X59603Y-27235D01*
X60475Y-28051D02*
X60447Y-28023D01*
X60390Y-27938D01*
X60362Y-27882D01*
X60334Y-27798D01*
X60306Y-27657D01*
X60306Y-27544D01*
X60334Y-27404D01*
X60362Y-27320D01*
X60390Y-27263D01*
X60447Y-27179D01*
X60475Y-27151D01*
X61037Y-27769D02*
X61009Y-27798D01*
X60925Y-27826D01*
X60868Y-27826D01*
X60784Y-27798D01*
X60728Y-27741D01*
X60700Y-27685D01*
X60672Y-27573D01*
X60672Y-27488D01*
X60700Y-27376D01*
X60728Y-27320D01*
X60784Y-27263D01*
X60868Y-27235D01*
X60925Y-27235D01*
X61009Y-27263D01*
X61037Y-27291D01*
X61234Y-28051D02*
X61262Y-28023D01*
X61318Y-27938D01*
X61347Y-27882D01*
X61375Y-27798D01*
X61403Y-27657D01*
X61403Y-27544D01*
X61375Y-27404D01*
X61347Y-27320D01*
X61318Y-27263D01*
X61262Y-27179D01*
X61234Y-27151D01*
X53250Y-47156D02*
X53250Y-46566D01*
X53391Y-46566D01*
X53475Y-46594D01*
X53532Y-46650D01*
X53560Y-46706D01*
X53588Y-46819D01*
X53588Y-46903D01*
X53560Y-47016D01*
X53532Y-47072D01*
X53475Y-47128D01*
X53391Y-47156D01*
X53250Y-47156D01*
X54178Y-47100D02*
X54150Y-47128D01*
X54066Y-47156D01*
X54010Y-47156D01*
X53925Y-47128D01*
X53869Y-47072D01*
X53841Y-47016D01*
X53813Y-46903D01*
X53813Y-46819D01*
X53841Y-46706D01*
X53869Y-46650D01*
X53925Y-46594D01*
X54010Y-46566D01*
X54066Y-46566D01*
X54150Y-46594D01*
X54178Y-46622D01*
X54431Y-46847D02*
X54628Y-46847D01*
X54713Y-47156D02*
X54431Y-47156D01*
X54431Y-46566D01*
X54713Y-46566D01*
X55584Y-47381D02*
X55556Y-47353D01*
X55500Y-47269D01*
X55472Y-47213D01*
X55444Y-47128D01*
X55416Y-46988D01*
X55416Y-46875D01*
X55444Y-46735D01*
X55472Y-46650D01*
X55500Y-46594D01*
X55556Y-46510D01*
X55584Y-46482D01*
X55809Y-47156D02*
X55809Y-46566D01*
X55950Y-46566D01*
X56034Y-46594D01*
X56091Y-46650D01*
X56119Y-46706D01*
X56147Y-46819D01*
X56147Y-46903D01*
X56119Y-47016D01*
X56091Y-47072D01*
X56034Y-47128D01*
X55950Y-47156D01*
X55809Y-47156D01*
X56344Y-47381D02*
X56372Y-47353D01*
X56428Y-47269D01*
X56456Y-47213D01*
X56484Y-47128D01*
X56512Y-46988D01*
X56512Y-46875D01*
X56484Y-46735D01*
X56456Y-46650D01*
X56428Y-46594D01*
X56372Y-46510D01*
X56344Y-46482D01*
X52857Y-23731D02*
X52857Y-23141D01*
X53082Y-23141D01*
X53138Y-23169D01*
X53166Y-23197D01*
X53194Y-23253D01*
X53194Y-23338D01*
X53166Y-23394D01*
X53138Y-23422D01*
X53082Y-23450D01*
X52857Y-23450D01*
X53757Y-23731D02*
X53419Y-23731D01*
X53588Y-23731D02*
X53588Y-23141D01*
X53532Y-23225D01*
X53475Y-23281D01*
X53419Y-23309D01*
X53953Y-23141D02*
X54319Y-23141D01*
X54122Y-23366D01*
X54206Y-23366D01*
X54263Y-23394D01*
X54291Y-23422D01*
X54319Y-23478D01*
X54319Y-23619D01*
X54291Y-23675D01*
X54263Y-23703D01*
X54206Y-23731D01*
X54038Y-23731D01*
X53982Y-23703D01*
X53953Y-23675D01*
X54994Y-23703D02*
X55050Y-23731D01*
X55163Y-23731D01*
X55219Y-23703D01*
X55247Y-23647D01*
X55247Y-23619D01*
X55219Y-23562D01*
X55163Y-23534D01*
X55078Y-23534D01*
X55022Y-23506D01*
X54994Y-23450D01*
X54994Y-23422D01*
X55022Y-23366D01*
X55078Y-23338D01*
X55163Y-23338D01*
X55219Y-23366D01*
X55500Y-23731D02*
X55500Y-23338D01*
X55500Y-23141D02*
X55472Y-23169D01*
X55500Y-23197D01*
X55528Y-23169D01*
X55500Y-23141D01*
X55500Y-23197D01*
X56034Y-23338D02*
X56034Y-23816D01*
X56006Y-23872D01*
X55978Y-23900D01*
X55922Y-23928D01*
X55838Y-23928D01*
X55781Y-23900D01*
X56034Y-23703D02*
X55978Y-23731D01*
X55866Y-23731D01*
X55809Y-23703D01*
X55781Y-23675D01*
X55753Y-23619D01*
X55753Y-23450D01*
X55781Y-23394D01*
X55809Y-23366D01*
X55866Y-23338D01*
X55978Y-23338D01*
X56034Y-23366D01*
X56316Y-23338D02*
X56316Y-23731D01*
X56316Y-23394D02*
X56344Y-23366D01*
X56400Y-23338D01*
X56484Y-23338D01*
X56541Y-23366D01*
X56569Y-23422D01*
X56569Y-23731D01*
X57103Y-23731D02*
X57103Y-23422D01*
X57075Y-23366D01*
X57019Y-23338D01*
X56906Y-23338D01*
X56850Y-23366D01*
X57103Y-23703D02*
X57047Y-23731D01*
X56906Y-23731D01*
X56850Y-23703D01*
X56822Y-23647D01*
X56822Y-23591D01*
X56850Y-23534D01*
X56906Y-23506D01*
X57047Y-23506D01*
X57103Y-23478D01*
X57469Y-23731D02*
X57412Y-23703D01*
X57384Y-23647D01*
X57384Y-23141D01*
X57665Y-23703D02*
X57722Y-23731D01*
X57834Y-23731D01*
X57890Y-23703D01*
X57919Y-23647D01*
X57919Y-23619D01*
X57890Y-23562D01*
X57834Y-23534D01*
X57750Y-23534D01*
X57694Y-23506D01*
X57665Y-23450D01*
X57665Y-23422D01*
X57694Y-23366D01*
X57750Y-23338D01*
X57834Y-23338D01*
X57890Y-23366D01*
X58790Y-23956D02*
X58762Y-23928D01*
X58706Y-23844D01*
X58678Y-23787D01*
X58650Y-23703D01*
X58622Y-23562D01*
X58622Y-23450D01*
X58650Y-23309D01*
X58678Y-23225D01*
X58706Y-23169D01*
X58762Y-23084D01*
X58790Y-23056D01*
X58931Y-23338D02*
X59156Y-23338D01*
X59015Y-23731D02*
X59015Y-23225D01*
X59043Y-23169D01*
X59100Y-23141D01*
X59156Y-23141D01*
X59353Y-23731D02*
X59353Y-23338D01*
X59353Y-23450D02*
X59381Y-23394D01*
X59409Y-23366D01*
X59465Y-23338D01*
X59521Y-23338D01*
X59803Y-23731D02*
X59746Y-23703D01*
X59718Y-23675D01*
X59690Y-23619D01*
X59690Y-23450D01*
X59718Y-23394D01*
X59746Y-23366D01*
X59803Y-23338D01*
X59887Y-23338D01*
X59943Y-23366D01*
X59971Y-23394D01*
X60000Y-23450D01*
X60000Y-23619D01*
X59971Y-23675D01*
X59943Y-23703D01*
X59887Y-23731D01*
X59803Y-23731D01*
X60253Y-23731D02*
X60253Y-23338D01*
X60253Y-23394D02*
X60281Y-23366D01*
X60337Y-23338D01*
X60421Y-23338D01*
X60478Y-23366D01*
X60506Y-23422D01*
X60506Y-23731D01*
X60506Y-23422D02*
X60534Y-23366D01*
X60590Y-23338D01*
X60674Y-23338D01*
X60731Y-23366D01*
X60759Y-23422D01*
X60759Y-23731D01*
X61574Y-23731D02*
X61518Y-23703D01*
X61490Y-23647D01*
X61490Y-23141D01*
X62024Y-23703D02*
X61968Y-23731D01*
X61856Y-23731D01*
X61799Y-23703D01*
X61771Y-23647D01*
X61771Y-23422D01*
X61799Y-23366D01*
X61856Y-23338D01*
X61968Y-23338D01*
X62024Y-23366D01*
X62052Y-23422D01*
X62052Y-23478D01*
X61771Y-23534D01*
X62221Y-23338D02*
X62446Y-23338D01*
X62305Y-23731D02*
X62305Y-23225D01*
X62334Y-23169D01*
X62390Y-23141D01*
X62446Y-23141D01*
X62559Y-23338D02*
X62784Y-23338D01*
X62643Y-23141D02*
X62643Y-23647D01*
X62671Y-23703D01*
X62727Y-23731D01*
X62784Y-23731D01*
X63346Y-23338D02*
X63571Y-23338D01*
X63430Y-23141D02*
X63430Y-23647D01*
X63458Y-23703D01*
X63515Y-23731D01*
X63571Y-23731D01*
X63852Y-23731D02*
X63796Y-23703D01*
X63768Y-23675D01*
X63740Y-23619D01*
X63740Y-23450D01*
X63768Y-23394D01*
X63796Y-23366D01*
X63852Y-23338D01*
X63937Y-23338D01*
X63993Y-23366D01*
X64021Y-23394D01*
X64049Y-23450D01*
X64049Y-23619D01*
X64021Y-23675D01*
X63993Y-23703D01*
X63937Y-23731D01*
X63852Y-23731D01*
X64752Y-23731D02*
X64752Y-23338D01*
X64752Y-23450D02*
X64780Y-23394D01*
X64808Y-23366D01*
X64865Y-23338D01*
X64921Y-23338D01*
X65118Y-23731D02*
X65118Y-23338D01*
X65118Y-23141D02*
X65089Y-23169D01*
X65118Y-23197D01*
X65146Y-23169D01*
X65118Y-23141D01*
X65118Y-23197D01*
X65652Y-23338D02*
X65652Y-23816D01*
X65624Y-23872D01*
X65596Y-23900D01*
X65539Y-23928D01*
X65455Y-23928D01*
X65399Y-23900D01*
X65652Y-23703D02*
X65596Y-23731D01*
X65483Y-23731D01*
X65427Y-23703D01*
X65399Y-23675D01*
X65371Y-23619D01*
X65371Y-23450D01*
X65399Y-23394D01*
X65427Y-23366D01*
X65483Y-23338D01*
X65596Y-23338D01*
X65652Y-23366D01*
X65933Y-23731D02*
X65933Y-23141D01*
X66186Y-23731D02*
X66186Y-23422D01*
X66158Y-23366D01*
X66102Y-23338D01*
X66017Y-23338D01*
X65961Y-23366D01*
X65933Y-23394D01*
X66383Y-23338D02*
X66608Y-23338D01*
X66467Y-23141D02*
X66467Y-23647D01*
X66496Y-23703D01*
X66552Y-23731D01*
X66608Y-23731D01*
X66749Y-23956D02*
X66777Y-23928D01*
X66833Y-23844D01*
X66861Y-23787D01*
X66889Y-23703D01*
X66917Y-23562D01*
X66917Y-23450D01*
X66889Y-23309D01*
X66861Y-23225D01*
X66833Y-23169D01*
X66777Y-23084D01*
X66749Y-23056D01*
X67199Y-23675D02*
X67227Y-23703D01*
X67199Y-23731D01*
X67170Y-23703D01*
X67199Y-23675D01*
X67199Y-23731D01*
X67199Y-23366D02*
X67227Y-23394D01*
X67199Y-23422D01*
X67170Y-23394D01*
X67199Y-23366D01*
X67199Y-23422D01*
X53194Y-24620D02*
X53166Y-24648D01*
X53082Y-24676D01*
X53025Y-24676D01*
X52941Y-24648D01*
X52885Y-24592D01*
X52857Y-24535D01*
X52829Y-24423D01*
X52829Y-24339D01*
X52857Y-24226D01*
X52885Y-24170D01*
X52941Y-24114D01*
X53025Y-24086D01*
X53082Y-24086D01*
X53166Y-24114D01*
X53194Y-24142D01*
X53447Y-24676D02*
X53447Y-24086D01*
X53588Y-24086D01*
X53672Y-24114D01*
X53728Y-24170D01*
X53757Y-24226D01*
X53785Y-24339D01*
X53785Y-24423D01*
X53757Y-24535D01*
X53728Y-24592D01*
X53672Y-24648D01*
X53588Y-24676D01*
X53447Y-24676D01*
X54066Y-24648D02*
X54066Y-24676D01*
X54038Y-24732D01*
X54010Y-24760D01*
X54769Y-24676D02*
X54769Y-24086D01*
X54910Y-24086D01*
X54994Y-24114D01*
X55050Y-24170D01*
X55078Y-24226D01*
X55106Y-24339D01*
X55106Y-24423D01*
X55078Y-24535D01*
X55050Y-24592D01*
X54994Y-24648D01*
X54910Y-24676D01*
X54769Y-24676D01*
X55275Y-24086D02*
X55613Y-24086D01*
X55444Y-24676D02*
X55444Y-24086D01*
X56147Y-24676D02*
X55950Y-24395D01*
X55809Y-24676D02*
X55809Y-24086D01*
X56034Y-24086D01*
X56091Y-24114D01*
X56119Y-24142D01*
X56147Y-24198D01*
X56147Y-24282D01*
X56119Y-24339D01*
X56091Y-24367D01*
X56034Y-24395D01*
X55809Y-24395D01*
X56428Y-24648D02*
X56428Y-24676D01*
X56400Y-24732D01*
X56372Y-24760D01*
X57047Y-24086D02*
X57384Y-24086D01*
X57215Y-24676D02*
X57215Y-24086D01*
X57525Y-24086D02*
X57919Y-24676D01*
X57919Y-24086D02*
X57525Y-24676D01*
X58143Y-24676D02*
X58143Y-24086D01*
X58284Y-24086D01*
X58368Y-24114D01*
X58425Y-24170D01*
X58453Y-24226D01*
X58481Y-24339D01*
X58481Y-24423D01*
X58453Y-24535D01*
X58425Y-24592D01*
X58368Y-24648D01*
X58284Y-24676D01*
X58143Y-24676D01*
X58762Y-24648D02*
X58762Y-24676D01*
X58734Y-24732D01*
X58706Y-24760D01*
X59803Y-24676D02*
X59606Y-24395D01*
X59465Y-24676D02*
X59465Y-24086D01*
X59690Y-24086D01*
X59746Y-24114D01*
X59775Y-24142D01*
X59803Y-24198D01*
X59803Y-24282D01*
X59775Y-24339D01*
X59746Y-24367D01*
X59690Y-24395D01*
X59465Y-24395D01*
X59971Y-24086D02*
X60309Y-24086D01*
X60140Y-24676D02*
X60140Y-24086D01*
X60478Y-24648D02*
X60562Y-24676D01*
X60703Y-24676D01*
X60759Y-24648D01*
X60787Y-24620D01*
X60815Y-24564D01*
X60815Y-24507D01*
X60787Y-24451D01*
X60759Y-24423D01*
X60703Y-24395D01*
X60590Y-24367D01*
X60534Y-24339D01*
X60506Y-24311D01*
X60478Y-24254D01*
X60478Y-24198D01*
X60506Y-24142D01*
X60534Y-24114D01*
X60590Y-24086D01*
X60731Y-24086D01*
X60815Y-24114D01*
X61096Y-24648D02*
X61096Y-24676D01*
X61068Y-24732D01*
X61040Y-24760D01*
X62137Y-24676D02*
X61940Y-24395D01*
X61799Y-24676D02*
X61799Y-24086D01*
X62024Y-24086D01*
X62080Y-24114D01*
X62109Y-24142D01*
X62137Y-24198D01*
X62137Y-24282D01*
X62109Y-24339D01*
X62080Y-24367D01*
X62024Y-24395D01*
X61799Y-24395D01*
X62390Y-24676D02*
X62390Y-24086D01*
X62699Y-24648D02*
X62699Y-24676D01*
X62671Y-24732D01*
X62643Y-24760D01*
X63740Y-24620D02*
X63712Y-24648D01*
X63627Y-24676D01*
X63571Y-24676D01*
X63487Y-24648D01*
X63430Y-24592D01*
X63402Y-24535D01*
X63374Y-24423D01*
X63374Y-24339D01*
X63402Y-24226D01*
X63430Y-24170D01*
X63487Y-24114D01*
X63571Y-24086D01*
X63627Y-24086D01*
X63712Y-24114D01*
X63740Y-24142D01*
X63908Y-24086D02*
X64246Y-24086D01*
X64077Y-24676D02*
X64077Y-24086D01*
X64415Y-24648D02*
X64499Y-24676D01*
X64640Y-24676D01*
X64696Y-24648D01*
X64724Y-24620D01*
X64752Y-24564D01*
X64752Y-24507D01*
X64724Y-24451D01*
X64696Y-24423D01*
X64640Y-24395D01*
X64527Y-24367D01*
X64471Y-24339D01*
X64443Y-24311D01*
X64415Y-24254D01*
X64415Y-24198D01*
X64443Y-24142D01*
X64471Y-24114D01*
X64527Y-24086D01*
X64668Y-24086D01*
X64752Y-24114D01*
X65033Y-24648D02*
X65033Y-24676D01*
X65005Y-24732D01*
X64977Y-24760D01*
X66074Y-24676D02*
X65877Y-24395D01*
X65736Y-24676D02*
X65736Y-24086D01*
X65961Y-24086D01*
X66017Y-24114D01*
X66046Y-24142D01*
X66074Y-24198D01*
X66074Y-24282D01*
X66046Y-24339D01*
X66017Y-24367D01*
X65961Y-24395D01*
X65736Y-24395D01*
X66271Y-24086D02*
X66664Y-24676D01*
X66664Y-24086D02*
X66271Y-24676D01*
X66889Y-24676D02*
X66889Y-24086D01*
X67030Y-24086D01*
X67114Y-24114D01*
X67170Y-24170D01*
X67199Y-24226D01*
X67227Y-24339D01*
X67227Y-24423D01*
X67199Y-24535D01*
X67170Y-24592D01*
X67114Y-24648D01*
X67030Y-24676D01*
X66889Y-24676D01*
X67508Y-24648D02*
X67508Y-24676D01*
X67480Y-24732D01*
X67452Y-24760D01*
X68211Y-24676D02*
X68211Y-24086D01*
X68352Y-24086D01*
X68436Y-24114D01*
X68492Y-24170D01*
X68520Y-24226D01*
X68548Y-24339D01*
X68548Y-24423D01*
X68520Y-24535D01*
X68492Y-24592D01*
X68436Y-24648D01*
X68352Y-24676D01*
X68211Y-24676D01*
X68773Y-24648D02*
X68858Y-24676D01*
X68998Y-24676D01*
X69055Y-24648D01*
X69083Y-24620D01*
X69111Y-24564D01*
X69111Y-24507D01*
X69083Y-24451D01*
X69055Y-24423D01*
X68998Y-24395D01*
X68886Y-24367D01*
X68830Y-24339D01*
X68802Y-24311D01*
X68773Y-24254D01*
X68773Y-24198D01*
X68802Y-24142D01*
X68830Y-24114D01*
X68886Y-24086D01*
X69026Y-24086D01*
X69111Y-24114D01*
X69701Y-24676D02*
X69505Y-24395D01*
X69364Y-24676D02*
X69364Y-24086D01*
X69589Y-24086D01*
X69645Y-24114D01*
X69673Y-24142D01*
X69701Y-24198D01*
X69701Y-24282D01*
X69673Y-24339D01*
X69645Y-24367D01*
X69589Y-24395D01*
X69364Y-24395D01*
X45219Y-46448D02*
X45219Y-45857D01*
X45359Y-45857D01*
X45444Y-45885D01*
X45500Y-45942D01*
X45528Y-45998D01*
X45556Y-46110D01*
X45556Y-46195D01*
X45528Y-46307D01*
X45500Y-46363D01*
X45444Y-46420D01*
X45359Y-46448D01*
X45219Y-46448D01*
X46147Y-46392D02*
X46119Y-46420D01*
X46034Y-46448D01*
X45978Y-46448D01*
X45894Y-46420D01*
X45838Y-46363D01*
X45809Y-46307D01*
X45781Y-46195D01*
X45781Y-46110D01*
X45809Y-45998D01*
X45838Y-45942D01*
X45894Y-45885D01*
X45978Y-45857D01*
X46034Y-45857D01*
X46119Y-45885D01*
X46147Y-45913D01*
X46400Y-46138D02*
X46597Y-46138D01*
X46681Y-46448D02*
X46400Y-46448D01*
X46400Y-45857D01*
X46681Y-45857D01*
X47553Y-46673D02*
X47525Y-46645D01*
X47469Y-46560D01*
X47440Y-46504D01*
X47412Y-46420D01*
X47384Y-46279D01*
X47384Y-46167D01*
X47412Y-46026D01*
X47440Y-45942D01*
X47469Y-45885D01*
X47525Y-45801D01*
X47553Y-45773D01*
X47975Y-46138D02*
X48059Y-46167D01*
X48087Y-46195D01*
X48115Y-46251D01*
X48115Y-46335D01*
X48087Y-46392D01*
X48059Y-46420D01*
X48003Y-46448D01*
X47778Y-46448D01*
X47778Y-45857D01*
X47975Y-45857D01*
X48031Y-45885D01*
X48059Y-45913D01*
X48087Y-45970D01*
X48087Y-46026D01*
X48059Y-46082D01*
X48031Y-46110D01*
X47975Y-46138D01*
X47778Y-46138D01*
X48312Y-46673D02*
X48340Y-46645D01*
X48397Y-46560D01*
X48425Y-46504D01*
X48453Y-46420D01*
X48481Y-46279D01*
X48481Y-46167D01*
X48453Y-46026D01*
X48425Y-45942D01*
X48397Y-45885D01*
X48340Y-45801D01*
X48312Y-45773D01*
X41001Y-27826D02*
X41001Y-27235D01*
X41141Y-27235D01*
X41226Y-27263D01*
X41282Y-27320D01*
X41310Y-27376D01*
X41338Y-27488D01*
X41338Y-27573D01*
X41310Y-27685D01*
X41282Y-27741D01*
X41226Y-27798D01*
X41141Y-27826D01*
X41001Y-27826D01*
X41507Y-27235D02*
X41844Y-27235D01*
X41676Y-27826D02*
X41676Y-27235D01*
X42041Y-27516D02*
X42238Y-27516D01*
X42322Y-27826D02*
X42041Y-27826D01*
X42041Y-27235D01*
X42322Y-27235D01*
X43194Y-28051D02*
X43166Y-28023D01*
X43110Y-27938D01*
X43082Y-27882D01*
X43053Y-27798D01*
X43025Y-27657D01*
X43025Y-27544D01*
X43053Y-27404D01*
X43082Y-27320D01*
X43110Y-27263D01*
X43166Y-27179D01*
X43194Y-27151D01*
X43391Y-27657D02*
X43672Y-27657D01*
X43335Y-27826D02*
X43532Y-27235D01*
X43728Y-27826D01*
X43869Y-28051D02*
X43897Y-28023D01*
X43953Y-27938D01*
X43982Y-27882D01*
X44010Y-27798D01*
X44038Y-27657D01*
X44038Y-27544D01*
X44010Y-27404D01*
X43982Y-27320D01*
X43953Y-27263D01*
X43897Y-27179D01*
X43869Y-27151D01*
X36220Y-41763D02*
X36220Y-42185D01*
X36192Y-42269D01*
X36136Y-42325D01*
X36051Y-42353D01*
X35995Y-42353D01*
X36445Y-41763D02*
X36811Y-41763D01*
X36614Y-41988D01*
X36698Y-41988D01*
X36754Y-42016D01*
X36782Y-42044D01*
X36811Y-42100D01*
X36811Y-42241D01*
X36782Y-42297D01*
X36754Y-42325D01*
X36698Y-42353D01*
X36529Y-42353D01*
X36473Y-42325D01*
X36445Y-42297D01*
X36220Y-25857D02*
X36220Y-26279D01*
X36192Y-26363D01*
X36136Y-26420D01*
X36051Y-26448D01*
X35995Y-26448D01*
X36473Y-25913D02*
X36501Y-25885D01*
X36557Y-25857D01*
X36698Y-25857D01*
X36754Y-25885D01*
X36782Y-25913D01*
X36811Y-25970D01*
X36811Y-26026D01*
X36782Y-26110D01*
X36445Y-26448D01*
X36811Y-26448D01*
X39460Y-24401D02*
X39460Y-23810D01*
X39600Y-23810D01*
X39685Y-23838D01*
X39741Y-23894D01*
X39769Y-23951D01*
X39797Y-24063D01*
X39797Y-24147D01*
X39769Y-24260D01*
X39741Y-24316D01*
X39685Y-24372D01*
X39600Y-24401D01*
X39460Y-24401D01*
X40303Y-24401D02*
X40303Y-24091D01*
X40275Y-24035D01*
X40219Y-24007D01*
X40106Y-24007D01*
X40050Y-24035D01*
X40303Y-24372D02*
X40247Y-24401D01*
X40106Y-24401D01*
X40050Y-24372D01*
X40022Y-24316D01*
X40022Y-24260D01*
X40050Y-24204D01*
X40106Y-24176D01*
X40247Y-24176D01*
X40303Y-24147D01*
X40584Y-24401D02*
X40584Y-24007D01*
X40584Y-23810D02*
X40556Y-23838D01*
X40584Y-23866D01*
X40613Y-23838D01*
X40584Y-23810D01*
X40584Y-23866D01*
X40838Y-24372D02*
X40894Y-24401D01*
X41006Y-24401D01*
X41062Y-24372D01*
X41091Y-24316D01*
X41091Y-24288D01*
X41062Y-24232D01*
X41006Y-24204D01*
X40922Y-24204D01*
X40866Y-24176D01*
X40838Y-24119D01*
X40838Y-24091D01*
X40866Y-24035D01*
X40922Y-24007D01*
X41006Y-24007D01*
X41062Y-24035D01*
X41344Y-24401D02*
X41344Y-23810D01*
X41597Y-24401D02*
X41597Y-24091D01*
X41569Y-24035D01*
X41512Y-24007D01*
X41428Y-24007D01*
X41372Y-24035D01*
X41344Y-24063D01*
X41962Y-24401D02*
X41906Y-24372D01*
X41878Y-24344D01*
X41850Y-24288D01*
X41850Y-24119D01*
X41878Y-24063D01*
X41906Y-24035D01*
X41962Y-24007D01*
X42047Y-24007D01*
X42103Y-24035D01*
X42131Y-24063D01*
X42159Y-24119D01*
X42159Y-24288D01*
X42131Y-24344D01*
X42103Y-24372D01*
X42047Y-24401D01*
X41962Y-24401D01*
X43059Y-24091D02*
X42862Y-24091D01*
X42862Y-24401D02*
X42862Y-23810D01*
X43143Y-23810D01*
X43368Y-24401D02*
X43368Y-24007D01*
X43368Y-24119D02*
X43397Y-24063D01*
X43425Y-24035D01*
X43481Y-24007D01*
X43537Y-24007D01*
X43818Y-24401D02*
X43762Y-24372D01*
X43734Y-24344D01*
X43706Y-24288D01*
X43706Y-24119D01*
X43734Y-24063D01*
X43762Y-24035D01*
X43818Y-24007D01*
X43903Y-24007D01*
X43959Y-24035D01*
X43987Y-24063D01*
X44015Y-24119D01*
X44015Y-24288D01*
X43987Y-24344D01*
X43959Y-24372D01*
X43903Y-24401D01*
X43818Y-24401D01*
X44268Y-24007D02*
X44268Y-24401D01*
X44268Y-24063D02*
X44296Y-24035D01*
X44353Y-24007D01*
X44437Y-24007D01*
X44493Y-24035D01*
X44521Y-24091D01*
X44521Y-24401D01*
X44718Y-24007D02*
X44943Y-24007D01*
X44803Y-23810D02*
X44803Y-24316D01*
X44831Y-24372D01*
X44887Y-24401D01*
X44943Y-24401D01*
X45590Y-24091D02*
X45787Y-24091D01*
X45871Y-24401D02*
X45590Y-24401D01*
X45590Y-23810D01*
X45871Y-23810D01*
X46124Y-24007D02*
X46124Y-24401D01*
X46124Y-24063D02*
X46152Y-24035D01*
X46209Y-24007D01*
X46293Y-24007D01*
X46349Y-24035D01*
X46377Y-24091D01*
X46377Y-24401D01*
X46912Y-24401D02*
X46912Y-23810D01*
X46912Y-24372D02*
X46856Y-24401D01*
X46743Y-24401D01*
X46687Y-24372D01*
X46659Y-24344D01*
X46631Y-24288D01*
X46631Y-24119D01*
X46659Y-24063D01*
X46687Y-24035D01*
X46743Y-24007D01*
X46856Y-24007D01*
X46912Y-24035D01*
X47980Y-24401D02*
X47784Y-24119D01*
X47643Y-24401D02*
X47643Y-23810D01*
X47868Y-23810D01*
X47924Y-23838D01*
X47952Y-23866D01*
X47980Y-23922D01*
X47980Y-24007D01*
X47952Y-24063D01*
X47924Y-24091D01*
X47868Y-24119D01*
X47643Y-24119D01*
X48205Y-24372D02*
X48290Y-24401D01*
X48430Y-24401D01*
X48487Y-24372D01*
X48515Y-24344D01*
X48543Y-24288D01*
X48543Y-24232D01*
X48515Y-24176D01*
X48487Y-24147D01*
X48430Y-24119D01*
X48318Y-24091D01*
X48262Y-24063D01*
X48233Y-24035D01*
X48205Y-23979D01*
X48205Y-23922D01*
X48233Y-23866D01*
X48262Y-23838D01*
X48318Y-23810D01*
X48458Y-23810D01*
X48543Y-23838D01*
X48796Y-24176D02*
X49246Y-24176D01*
X49499Y-23866D02*
X49527Y-23838D01*
X49583Y-23810D01*
X49724Y-23810D01*
X49780Y-23838D01*
X49808Y-23866D01*
X49836Y-23922D01*
X49836Y-23979D01*
X49808Y-24063D01*
X49471Y-24401D01*
X49836Y-24401D01*
X50033Y-23810D02*
X50399Y-23810D01*
X50202Y-24035D01*
X50286Y-24035D01*
X50343Y-24063D01*
X50371Y-24091D01*
X50399Y-24147D01*
X50399Y-24288D01*
X50371Y-24344D01*
X50343Y-24372D01*
X50286Y-24401D01*
X50118Y-24401D01*
X50061Y-24372D01*
X50033Y-24344D01*
X50624Y-23866D02*
X50652Y-23838D01*
X50708Y-23810D01*
X50849Y-23810D01*
X50905Y-23838D01*
X50933Y-23866D01*
X50961Y-23922D01*
X50961Y-23979D01*
X50933Y-24063D01*
X50596Y-24401D01*
X50961Y-24401D01*
X42637Y-25345D02*
X42300Y-25345D01*
X42469Y-25345D02*
X42469Y-24755D01*
X42412Y-24839D01*
X42356Y-24895D01*
X42300Y-24924D01*
X42919Y-25345D02*
X43031Y-25345D01*
X43087Y-25317D01*
X43115Y-25289D01*
X43172Y-25205D01*
X43200Y-25092D01*
X43200Y-24867D01*
X43172Y-24811D01*
X43143Y-24783D01*
X43087Y-24755D01*
X42975Y-24755D01*
X42919Y-24783D01*
X42890Y-24811D01*
X42862Y-24867D01*
X42862Y-25008D01*
X42890Y-25064D01*
X42919Y-25092D01*
X42975Y-25120D01*
X43087Y-25120D01*
X43143Y-25092D01*
X43172Y-25064D01*
X43200Y-25008D01*
X44071Y-24755D02*
X44071Y-25177D01*
X44043Y-25261D01*
X43987Y-25317D01*
X43903Y-25345D01*
X43847Y-25345D01*
X44606Y-24952D02*
X44606Y-25345D01*
X44353Y-24952D02*
X44353Y-25261D01*
X44381Y-25317D01*
X44437Y-25345D01*
X44521Y-25345D01*
X44578Y-25317D01*
X44606Y-25289D01*
X44971Y-25345D02*
X44915Y-25317D01*
X44887Y-25261D01*
X44887Y-24755D01*
X45140Y-24952D02*
X45281Y-25345D01*
X45421Y-24952D02*
X45281Y-25345D01*
X45224Y-25486D01*
X45196Y-25514D01*
X45140Y-25542D01*
X46068Y-24811D02*
X46096Y-24783D01*
X46152Y-24755D01*
X46293Y-24755D01*
X46349Y-24783D01*
X46377Y-24811D01*
X46406Y-24867D01*
X46406Y-24924D01*
X46377Y-25008D01*
X46040Y-25345D01*
X46406Y-25345D01*
X46771Y-24755D02*
X46827Y-24755D01*
X46884Y-24783D01*
X46912Y-24811D01*
X46940Y-24867D01*
X46968Y-24980D01*
X46968Y-25120D01*
X46940Y-25233D01*
X46912Y-25289D01*
X46884Y-25317D01*
X46827Y-25345D01*
X46771Y-25345D01*
X46715Y-25317D01*
X46687Y-25289D01*
X46659Y-25233D01*
X46631Y-25120D01*
X46631Y-24980D01*
X46659Y-24867D01*
X46687Y-24811D01*
X46715Y-24783D01*
X46771Y-24755D01*
X47530Y-25345D02*
X47193Y-25345D01*
X47362Y-25345D02*
X47362Y-24755D01*
X47305Y-24839D01*
X47249Y-24895D01*
X47193Y-24924D01*
X47727Y-24755D02*
X48093Y-24755D01*
X47896Y-24980D01*
X47980Y-24980D01*
X48037Y-25008D01*
X48065Y-25036D01*
X48093Y-25092D01*
X48093Y-25233D01*
X48065Y-25289D01*
X48037Y-25317D01*
X47980Y-25345D01*
X47812Y-25345D01*
X47755Y-25317D01*
X47727Y-25289D01*
X35257Y-24416D02*
X35257Y-23826D01*
X35482Y-23826D01*
X35538Y-23854D01*
X35566Y-23882D01*
X35594Y-23938D01*
X35594Y-24023D01*
X35566Y-24079D01*
X35538Y-24107D01*
X35482Y-24135D01*
X35257Y-24135D01*
X36156Y-24416D02*
X35819Y-24416D01*
X35988Y-24416D02*
X35988Y-23826D01*
X35931Y-23910D01*
X35875Y-23966D01*
X35819Y-23994D01*
X47989Y-30582D02*
X47989Y-29991D01*
X48214Y-29991D01*
X48270Y-30019D01*
X48298Y-30047D01*
X48326Y-30104D01*
X48326Y-30188D01*
X48298Y-30244D01*
X48270Y-30272D01*
X48214Y-30300D01*
X47989Y-30300D01*
X48832Y-30188D02*
X48832Y-30582D01*
X48692Y-29963D02*
X48551Y-30385D01*
X48917Y-30385D01*
G54D12*
X47532Y-49981D02*
X47776Y-49981D01*
X47645Y-50131D01*
X47701Y-50131D01*
X47739Y-50149D01*
X47757Y-50168D01*
X47776Y-50206D01*
X47776Y-50299D01*
X47757Y-50337D01*
X47739Y-50356D01*
X47701Y-50374D01*
X47589Y-50374D01*
X47551Y-50356D01*
X47532Y-50337D01*
X47889Y-49981D02*
X48020Y-50374D01*
X48151Y-49981D01*
X48245Y-49981D02*
X48488Y-49981D01*
X48357Y-50131D01*
X48413Y-50131D01*
X48451Y-50149D01*
X48470Y-50168D01*
X48488Y-50206D01*
X48488Y-50299D01*
X48470Y-50337D01*
X48451Y-50356D01*
X48413Y-50374D01*
X48301Y-50374D01*
X48263Y-50356D01*
X48245Y-50337D01*
X48638Y-50262D02*
X48826Y-50262D01*
X48601Y-50374D02*
X48732Y-49981D01*
X48863Y-50374D01*
X47692Y-53346D02*
X47654Y-53327D01*
X47598Y-53327D01*
X47542Y-53346D01*
X47504Y-53383D01*
X47485Y-53421D01*
X47467Y-53496D01*
X47467Y-53552D01*
X47485Y-53627D01*
X47504Y-53665D01*
X47542Y-53702D01*
X47598Y-53721D01*
X47635Y-53721D01*
X47692Y-53702D01*
X47710Y-53683D01*
X47710Y-53552D01*
X47635Y-53552D01*
X47879Y-53721D02*
X47879Y-53327D01*
X48104Y-53721D01*
X48104Y-53327D01*
X48292Y-53721D02*
X48292Y-53327D01*
X48385Y-53327D01*
X48442Y-53346D01*
X48479Y-53383D01*
X48498Y-53421D01*
X48517Y-53496D01*
X48517Y-53552D01*
X48498Y-53627D01*
X48479Y-53665D01*
X48442Y-53702D01*
X48385Y-53721D01*
X48292Y-53721D01*
G54D11*
X48186Y-39243D02*
X48186Y-38652D01*
X48411Y-38652D01*
X48467Y-38681D01*
X48495Y-38709D01*
X48523Y-38765D01*
X48523Y-38849D01*
X48495Y-38906D01*
X48467Y-38934D01*
X48411Y-38962D01*
X48186Y-38962D01*
X49029Y-38652D02*
X48917Y-38652D01*
X48861Y-38681D01*
X48832Y-38709D01*
X48776Y-38793D01*
X48748Y-38906D01*
X48748Y-39131D01*
X48776Y-39187D01*
X48804Y-39215D01*
X48861Y-39243D01*
X48973Y-39243D01*
X49029Y-39215D01*
X49057Y-39187D01*
X49086Y-39131D01*
X49086Y-38990D01*
X49057Y-38934D01*
X49029Y-38906D01*
X48973Y-38877D01*
X48861Y-38877D01*
X48804Y-38906D01*
X48776Y-38934D01*
X48748Y-38990D01*
X47753Y-49755D02*
X47753Y-49164D01*
X47978Y-49164D01*
X48034Y-49192D01*
X48062Y-49221D01*
X48090Y-49277D01*
X48090Y-49361D01*
X48062Y-49417D01*
X48034Y-49446D01*
X47978Y-49474D01*
X47753Y-49474D01*
X48287Y-49164D02*
X48681Y-49164D01*
X48428Y-49755D01*
X41808Y-53889D02*
X41808Y-53298D01*
X42033Y-53298D01*
X42089Y-53326D01*
X42117Y-53354D01*
X42145Y-53411D01*
X42145Y-53495D01*
X42117Y-53551D01*
X42089Y-53579D01*
X42033Y-53607D01*
X41808Y-53607D01*
X42370Y-53354D02*
X42398Y-53326D01*
X42455Y-53298D01*
X42595Y-53298D01*
X42651Y-53326D01*
X42679Y-53354D01*
X42708Y-53411D01*
X42708Y-53467D01*
X42679Y-53551D01*
X42342Y-53889D01*
X42708Y-53889D01*
X44800Y-53928D02*
X44800Y-53338D01*
X45025Y-53338D01*
X45081Y-53366D01*
X45109Y-53394D01*
X45137Y-53450D01*
X45137Y-53534D01*
X45109Y-53591D01*
X45081Y-53619D01*
X45025Y-53647D01*
X44800Y-53647D01*
X45672Y-53338D02*
X45390Y-53338D01*
X45362Y-53619D01*
X45390Y-53591D01*
X45447Y-53562D01*
X45587Y-53562D01*
X45643Y-53591D01*
X45672Y-53619D01*
X45700Y-53675D01*
X45700Y-53816D01*
X45672Y-53872D01*
X45643Y-53900D01*
X45587Y-53928D01*
X45447Y-53928D01*
X45390Y-53900D01*
X45362Y-53872D01*
X35573Y-55030D02*
X35573Y-54440D01*
X35798Y-54440D01*
X35854Y-54468D01*
X35883Y-54496D01*
X35911Y-54552D01*
X35911Y-54637D01*
X35883Y-54693D01*
X35854Y-54721D01*
X35798Y-54749D01*
X35573Y-54749D01*
X36417Y-54440D02*
X36304Y-54440D01*
X36248Y-54468D01*
X36220Y-54496D01*
X36164Y-54580D01*
X36136Y-54693D01*
X36136Y-54918D01*
X36164Y-54974D01*
X36192Y-55002D01*
X36248Y-55030D01*
X36361Y-55030D01*
X36417Y-55002D01*
X36445Y-54974D01*
X36473Y-54918D01*
X36473Y-54777D01*
X36445Y-54721D01*
X36417Y-54693D01*
X36361Y-54665D01*
X36248Y-54665D01*
X36192Y-54693D01*
X36164Y-54721D01*
X36136Y-54777D01*
X37148Y-55002D02*
X37204Y-55030D01*
X37317Y-55030D01*
X37373Y-55002D01*
X37401Y-54946D01*
X37401Y-54918D01*
X37373Y-54862D01*
X37317Y-54834D01*
X37232Y-54834D01*
X37176Y-54805D01*
X37148Y-54749D01*
X37148Y-54721D01*
X37176Y-54665D01*
X37232Y-54637D01*
X37317Y-54637D01*
X37373Y-54665D01*
X37654Y-55030D02*
X37654Y-54637D01*
X37654Y-54440D02*
X37626Y-54468D01*
X37654Y-54496D01*
X37682Y-54468D01*
X37654Y-54440D01*
X37654Y-54496D01*
X38188Y-54637D02*
X38188Y-55115D01*
X38160Y-55171D01*
X38132Y-55199D01*
X38076Y-55227D01*
X37992Y-55227D01*
X37935Y-55199D01*
X38188Y-55002D02*
X38132Y-55030D01*
X38020Y-55030D01*
X37964Y-55002D01*
X37935Y-54974D01*
X37907Y-54918D01*
X37907Y-54749D01*
X37935Y-54693D01*
X37964Y-54665D01*
X38020Y-54637D01*
X38132Y-54637D01*
X38188Y-54665D01*
X38470Y-54637D02*
X38470Y-55030D01*
X38470Y-54693D02*
X38498Y-54665D01*
X38554Y-54637D01*
X38638Y-54637D01*
X38695Y-54665D01*
X38723Y-54721D01*
X38723Y-55030D01*
X39257Y-55030D02*
X39257Y-54721D01*
X39229Y-54665D01*
X39173Y-54637D01*
X39060Y-54637D01*
X39004Y-54665D01*
X39257Y-55002D02*
X39201Y-55030D01*
X39060Y-55030D01*
X39004Y-55002D01*
X38976Y-54946D01*
X38976Y-54890D01*
X39004Y-54834D01*
X39060Y-54805D01*
X39201Y-54805D01*
X39257Y-54777D01*
X39623Y-55030D02*
X39566Y-55002D01*
X39538Y-54946D01*
X39538Y-54440D01*
X39820Y-55002D02*
X39876Y-55030D01*
X39988Y-55030D01*
X40044Y-55002D01*
X40073Y-54946D01*
X40073Y-54918D01*
X40044Y-54862D01*
X39988Y-54834D01*
X39904Y-54834D01*
X39848Y-54805D01*
X39820Y-54749D01*
X39820Y-54721D01*
X39848Y-54665D01*
X39904Y-54637D01*
X39988Y-54637D01*
X40044Y-54665D01*
X40944Y-55255D02*
X40916Y-55227D01*
X40860Y-55143D01*
X40832Y-55087D01*
X40804Y-55002D01*
X40776Y-54862D01*
X40776Y-54749D01*
X40804Y-54609D01*
X40832Y-54524D01*
X40860Y-54468D01*
X40916Y-54384D01*
X40944Y-54356D01*
X41085Y-54637D02*
X41310Y-54637D01*
X41169Y-55030D02*
X41169Y-54524D01*
X41197Y-54468D01*
X41254Y-54440D01*
X41310Y-54440D01*
X41507Y-55030D02*
X41507Y-54637D01*
X41507Y-54749D02*
X41535Y-54693D01*
X41563Y-54665D01*
X41619Y-54637D01*
X41676Y-54637D01*
X41957Y-55030D02*
X41901Y-55002D01*
X41872Y-54974D01*
X41844Y-54918D01*
X41844Y-54749D01*
X41872Y-54693D01*
X41901Y-54665D01*
X41957Y-54637D01*
X42041Y-54637D01*
X42097Y-54665D01*
X42125Y-54693D01*
X42154Y-54749D01*
X42154Y-54918D01*
X42125Y-54974D01*
X42097Y-55002D01*
X42041Y-55030D01*
X41957Y-55030D01*
X42407Y-55030D02*
X42407Y-54637D01*
X42407Y-54693D02*
X42435Y-54665D01*
X42491Y-54637D01*
X42575Y-54637D01*
X42632Y-54665D01*
X42660Y-54721D01*
X42660Y-55030D01*
X42660Y-54721D02*
X42688Y-54665D01*
X42744Y-54637D01*
X42829Y-54637D01*
X42885Y-54665D01*
X42913Y-54721D01*
X42913Y-55030D01*
X43728Y-55030D02*
X43672Y-55002D01*
X43644Y-54946D01*
X43644Y-54440D01*
X44178Y-55002D02*
X44122Y-55030D01*
X44010Y-55030D01*
X43953Y-55002D01*
X43925Y-54946D01*
X43925Y-54721D01*
X43953Y-54665D01*
X44010Y-54637D01*
X44122Y-54637D01*
X44178Y-54665D01*
X44206Y-54721D01*
X44206Y-54777D01*
X43925Y-54834D01*
X44375Y-54637D02*
X44600Y-54637D01*
X44460Y-55030D02*
X44460Y-54524D01*
X44488Y-54468D01*
X44544Y-54440D01*
X44600Y-54440D01*
X44713Y-54637D02*
X44938Y-54637D01*
X44797Y-54440D02*
X44797Y-54946D01*
X44825Y-55002D01*
X44881Y-55030D01*
X44938Y-55030D01*
X45500Y-54637D02*
X45725Y-54637D01*
X45584Y-54440D02*
X45584Y-54946D01*
X45613Y-55002D01*
X45669Y-55030D01*
X45725Y-55030D01*
X46006Y-55030D02*
X45950Y-55002D01*
X45922Y-54974D01*
X45894Y-54918D01*
X45894Y-54749D01*
X45922Y-54693D01*
X45950Y-54665D01*
X46006Y-54637D01*
X46091Y-54637D01*
X46147Y-54665D01*
X46175Y-54693D01*
X46203Y-54749D01*
X46203Y-54918D01*
X46175Y-54974D01*
X46147Y-55002D01*
X46091Y-55030D01*
X46006Y-55030D01*
X46906Y-55030D02*
X46906Y-54637D01*
X46906Y-54749D02*
X46934Y-54693D01*
X46962Y-54665D01*
X47019Y-54637D01*
X47075Y-54637D01*
X47272Y-55030D02*
X47272Y-54637D01*
X47272Y-54440D02*
X47244Y-54468D01*
X47272Y-54496D01*
X47300Y-54468D01*
X47272Y-54440D01*
X47272Y-54496D01*
X47806Y-54637D02*
X47806Y-55115D01*
X47778Y-55171D01*
X47750Y-55199D01*
X47694Y-55227D01*
X47609Y-55227D01*
X47553Y-55199D01*
X47806Y-55002D02*
X47750Y-55030D01*
X47637Y-55030D01*
X47581Y-55002D01*
X47553Y-54974D01*
X47525Y-54918D01*
X47525Y-54749D01*
X47553Y-54693D01*
X47581Y-54665D01*
X47637Y-54637D01*
X47750Y-54637D01*
X47806Y-54665D01*
X48087Y-55030D02*
X48087Y-54440D01*
X48340Y-55030D02*
X48340Y-54721D01*
X48312Y-54665D01*
X48256Y-54637D01*
X48172Y-54637D01*
X48115Y-54665D01*
X48087Y-54693D01*
X48537Y-54637D02*
X48762Y-54637D01*
X48622Y-54440D02*
X48622Y-54946D01*
X48650Y-55002D01*
X48706Y-55030D01*
X48762Y-55030D01*
X48903Y-55255D02*
X48931Y-55227D01*
X48987Y-55143D01*
X49015Y-55087D01*
X49043Y-55002D01*
X49071Y-54862D01*
X49071Y-54749D01*
X49043Y-54609D01*
X49015Y-54524D01*
X48987Y-54468D01*
X48931Y-54384D01*
X48903Y-54356D01*
X49353Y-54974D02*
X49381Y-55002D01*
X49353Y-55030D01*
X49325Y-55002D01*
X49353Y-54974D01*
X49353Y-55030D01*
X49353Y-54665D02*
X49381Y-54693D01*
X49353Y-54721D01*
X49325Y-54693D01*
X49353Y-54665D01*
X49353Y-54721D01*
X35911Y-55919D02*
X35883Y-55947D01*
X35798Y-55975D01*
X35742Y-55975D01*
X35658Y-55947D01*
X35601Y-55891D01*
X35573Y-55835D01*
X35545Y-55722D01*
X35545Y-55638D01*
X35573Y-55525D01*
X35601Y-55469D01*
X35658Y-55413D01*
X35742Y-55385D01*
X35798Y-55385D01*
X35883Y-55413D01*
X35911Y-55441D01*
X36164Y-55975D02*
X36164Y-55385D01*
X36304Y-55385D01*
X36389Y-55413D01*
X36445Y-55469D01*
X36473Y-55525D01*
X36501Y-55638D01*
X36501Y-55722D01*
X36473Y-55835D01*
X36445Y-55891D01*
X36389Y-55947D01*
X36304Y-55975D01*
X36164Y-55975D01*
X36782Y-55947D02*
X36782Y-55975D01*
X36754Y-56032D01*
X36726Y-56060D01*
X37485Y-55975D02*
X37485Y-55385D01*
X37626Y-55385D01*
X37710Y-55413D01*
X37767Y-55469D01*
X37795Y-55525D01*
X37823Y-55638D01*
X37823Y-55722D01*
X37795Y-55835D01*
X37767Y-55891D01*
X37710Y-55947D01*
X37626Y-55975D01*
X37485Y-55975D01*
X37992Y-55385D02*
X38329Y-55385D01*
X38160Y-55975D02*
X38160Y-55385D01*
X38863Y-55975D02*
X38667Y-55694D01*
X38526Y-55975D02*
X38526Y-55385D01*
X38751Y-55385D01*
X38807Y-55413D01*
X38835Y-55441D01*
X38863Y-55497D01*
X38863Y-55582D01*
X38835Y-55638D01*
X38807Y-55666D01*
X38751Y-55694D01*
X38526Y-55694D01*
X39145Y-55947D02*
X39145Y-55975D01*
X39116Y-56032D01*
X39088Y-56060D01*
X39763Y-55385D02*
X40101Y-55385D01*
X39932Y-55975D02*
X39932Y-55385D01*
X40241Y-55385D02*
X40635Y-55975D01*
X40635Y-55385D02*
X40241Y-55975D01*
X40860Y-55975D02*
X40860Y-55385D01*
X41001Y-55385D01*
X41085Y-55413D01*
X41141Y-55469D01*
X41169Y-55525D01*
X41197Y-55638D01*
X41197Y-55722D01*
X41169Y-55835D01*
X41141Y-55891D01*
X41085Y-55947D01*
X41001Y-55975D01*
X40860Y-55975D01*
X41479Y-55947D02*
X41479Y-55975D01*
X41451Y-56032D01*
X41422Y-56060D01*
X42519Y-55975D02*
X42322Y-55694D01*
X42182Y-55975D02*
X42182Y-55385D01*
X42407Y-55385D01*
X42463Y-55413D01*
X42491Y-55441D01*
X42519Y-55497D01*
X42519Y-55582D01*
X42491Y-55638D01*
X42463Y-55666D01*
X42407Y-55694D01*
X42182Y-55694D01*
X42688Y-55385D02*
X43025Y-55385D01*
X42857Y-55975D02*
X42857Y-55385D01*
X43194Y-55947D02*
X43278Y-55975D01*
X43419Y-55975D01*
X43475Y-55947D01*
X43503Y-55919D01*
X43532Y-55863D01*
X43532Y-55807D01*
X43503Y-55750D01*
X43475Y-55722D01*
X43419Y-55694D01*
X43307Y-55666D01*
X43250Y-55638D01*
X43222Y-55610D01*
X43194Y-55553D01*
X43194Y-55497D01*
X43222Y-55441D01*
X43250Y-55413D01*
X43307Y-55385D01*
X43447Y-55385D01*
X43532Y-55413D01*
X43813Y-55947D02*
X43813Y-55975D01*
X43785Y-56032D01*
X43757Y-56060D01*
X44853Y-55975D02*
X44656Y-55694D01*
X44516Y-55975D02*
X44516Y-55385D01*
X44741Y-55385D01*
X44797Y-55413D01*
X44825Y-55441D01*
X44853Y-55497D01*
X44853Y-55582D01*
X44825Y-55638D01*
X44797Y-55666D01*
X44741Y-55694D01*
X44516Y-55694D01*
X45106Y-55975D02*
X45106Y-55385D01*
X45416Y-55947D02*
X45416Y-55975D01*
X45388Y-56032D01*
X45359Y-56060D01*
X46456Y-55919D02*
X46428Y-55947D01*
X46344Y-55975D01*
X46287Y-55975D01*
X46203Y-55947D01*
X46147Y-55891D01*
X46119Y-55835D01*
X46091Y-55722D01*
X46091Y-55638D01*
X46119Y-55525D01*
X46147Y-55469D01*
X46203Y-55413D01*
X46287Y-55385D01*
X46344Y-55385D01*
X46428Y-55413D01*
X46456Y-55441D01*
X46625Y-55385D02*
X46962Y-55385D01*
X46794Y-55975D02*
X46794Y-55385D01*
X47131Y-55947D02*
X47215Y-55975D01*
X47356Y-55975D01*
X47412Y-55947D01*
X47440Y-55919D01*
X47469Y-55863D01*
X47469Y-55807D01*
X47440Y-55750D01*
X47412Y-55722D01*
X47356Y-55694D01*
X47244Y-55666D01*
X47187Y-55638D01*
X47159Y-55610D01*
X47131Y-55553D01*
X47131Y-55497D01*
X47159Y-55441D01*
X47187Y-55413D01*
X47244Y-55385D01*
X47384Y-55385D01*
X47469Y-55413D01*
X47750Y-55947D02*
X47750Y-55975D01*
X47722Y-56032D01*
X47694Y-56060D01*
X48790Y-55975D02*
X48593Y-55694D01*
X48453Y-55975D02*
X48453Y-55385D01*
X48678Y-55385D01*
X48734Y-55413D01*
X48762Y-55441D01*
X48790Y-55497D01*
X48790Y-55582D01*
X48762Y-55638D01*
X48734Y-55666D01*
X48678Y-55694D01*
X48453Y-55694D01*
X48987Y-55385D02*
X49381Y-55975D01*
X49381Y-55385D02*
X48987Y-55975D01*
X49606Y-55975D02*
X49606Y-55385D01*
X49746Y-55385D01*
X49831Y-55413D01*
X49887Y-55469D01*
X49915Y-55525D01*
X49943Y-55638D01*
X49943Y-55722D01*
X49915Y-55835D01*
X49887Y-55891D01*
X49831Y-55947D01*
X49746Y-55975D01*
X49606Y-55975D01*
X50224Y-55947D02*
X50224Y-55975D01*
X50196Y-56032D01*
X50168Y-56060D01*
X50928Y-55975D02*
X50928Y-55385D01*
X51068Y-55385D01*
X51152Y-55413D01*
X51209Y-55469D01*
X51237Y-55525D01*
X51265Y-55638D01*
X51265Y-55722D01*
X51237Y-55835D01*
X51209Y-55891D01*
X51152Y-55947D01*
X51068Y-55975D01*
X50928Y-55975D01*
X51490Y-55947D02*
X51574Y-55975D01*
X51715Y-55975D01*
X51771Y-55947D01*
X51799Y-55919D01*
X51827Y-55863D01*
X51827Y-55807D01*
X51799Y-55750D01*
X51771Y-55722D01*
X51715Y-55694D01*
X51602Y-55666D01*
X51546Y-55638D01*
X51518Y-55610D01*
X51490Y-55553D01*
X51490Y-55497D01*
X51518Y-55441D01*
X51546Y-55413D01*
X51602Y-55385D01*
X51743Y-55385D01*
X51827Y-55413D01*
X52418Y-55975D02*
X52221Y-55694D01*
X52080Y-55975D02*
X52080Y-55385D01*
X52305Y-55385D01*
X52362Y-55413D01*
X52390Y-55441D01*
X52418Y-55497D01*
X52418Y-55582D01*
X52390Y-55638D01*
X52362Y-55666D01*
X52305Y-55694D01*
X52080Y-55694D01*
G54D13*
X34251Y-18897D02*
G75*
G03X34251Y-18897I-1181J0D01*
G74*
G01*
X70471Y-18897D02*
G75*
G03X70471Y-18897I-1181J0D01*
G74*
G01*
X34251Y-55118D02*
G75*
G03X34251Y-55118I-1181J0D01*
G74*
G01*
X70471Y-55118D02*
G75*
G03X70471Y-55118I-1181J0D01*
G74*
G01*
X40089Y-29925D02*
X41169Y-29925D01*
X41169Y-29925D02*
X41169Y-29445D01*
X41169Y-29445D02*
X40089Y-29445D01*
X40089Y-29445D02*
X40089Y-29925D01*
X41113Y-28862D02*
X42193Y-28862D01*
X42193Y-28862D02*
X42193Y-28382D01*
X42193Y-28382D02*
X41113Y-28382D01*
X41113Y-28382D02*
X41113Y-28862D01*
X45161Y-29713D02*
X45161Y-28633D01*
X45161Y-28633D02*
X44681Y-28633D01*
X44681Y-28633D02*
X44681Y-29713D01*
X44681Y-29713D02*
X45161Y-29713D01*
X41492Y-43593D02*
X41492Y-44673D01*
X41492Y-44673D02*
X41972Y-44673D01*
X41972Y-44673D02*
X41972Y-43593D01*
X41972Y-43593D02*
X41492Y-43593D01*
X44122Y-28342D02*
X43042Y-28342D01*
X43042Y-28342D02*
X43042Y-28822D01*
X43042Y-28822D02*
X44122Y-28822D01*
X44122Y-28822D02*
X44122Y-28342D01*
X41231Y-49491D02*
X42311Y-49491D01*
X42311Y-49491D02*
X42311Y-49011D01*
X42311Y-49011D02*
X41231Y-49011D01*
X41231Y-49011D02*
X41231Y-49491D01*
X42036Y-48263D02*
X40956Y-48263D01*
X40956Y-48263D02*
X40956Y-48743D01*
X40956Y-48743D02*
X42036Y-48743D01*
X42036Y-48743D02*
X42036Y-48263D01*
X41248Y-44051D02*
X40168Y-44051D01*
X40168Y-44051D02*
X40168Y-44531D01*
X40168Y-44531D02*
X41248Y-44531D01*
X41248Y-44531D02*
X41248Y-44051D01*
X44656Y-30436D02*
X45736Y-30436D01*
X45736Y-30436D02*
X45736Y-29956D01*
X45736Y-29956D02*
X44656Y-29956D01*
X44656Y-29956D02*
X44656Y-30436D01*
X40633Y-45854D02*
X40633Y-44774D01*
X40633Y-44774D02*
X40153Y-44774D01*
X40153Y-44774D02*
X40153Y-45854D01*
X40153Y-45854D02*
X40633Y-45854D01*
G54D14*
X35742Y-37846D02*
X35742Y-25046D01*
X35742Y-25046D02*
X28742Y-25046D01*
X28742Y-25046D02*
X28742Y-37846D01*
X28742Y-37846D02*
X35742Y-37846D01*
X28742Y-35046D02*
X31742Y-35046D01*
X31742Y-35046D02*
X31742Y-27846D01*
X31742Y-27846D02*
X28742Y-27846D01*
X28742Y-34446D02*
X25342Y-34446D01*
X25342Y-34446D02*
X25342Y-28446D01*
X25342Y-28446D02*
X28742Y-28446D01*
X35742Y-52531D02*
X35742Y-39731D01*
X35742Y-39731D02*
X28742Y-39731D01*
X28742Y-39731D02*
X28742Y-52531D01*
X28742Y-52531D02*
X35742Y-52531D01*
X28742Y-49731D02*
X31742Y-49731D01*
X31742Y-49731D02*
X31742Y-42531D01*
X31742Y-42531D02*
X28742Y-42531D01*
X28742Y-49131D02*
X25342Y-49131D01*
X25342Y-49131D02*
X25342Y-43131D01*
X25342Y-43131D02*
X28742Y-43131D01*
G54D13*
X35121Y-20894D02*
X35121Y-19814D01*
X35121Y-19814D02*
X34641Y-19814D01*
X34641Y-19814D02*
X34641Y-20894D01*
X34641Y-20894D02*
X35121Y-20894D01*
X35696Y-23595D02*
X35696Y-22515D01*
X35696Y-22515D02*
X35216Y-22515D01*
X35216Y-22515D02*
X35216Y-23595D01*
X35216Y-23595D02*
X35696Y-23595D01*
X45736Y-30626D02*
X44656Y-30626D01*
X44656Y-30626D02*
X44656Y-31106D01*
X44656Y-31106D02*
X45736Y-31106D01*
X45736Y-31106D02*
X45736Y-30626D01*
X45712Y-49516D02*
X45712Y-48436D01*
X45712Y-48436D02*
X45232Y-48436D01*
X45232Y-48436D02*
X45232Y-49516D01*
X45232Y-49516D02*
X45712Y-49516D01*
X45673Y-47823D02*
X45673Y-46743D01*
X45673Y-46743D02*
X45193Y-46743D01*
X45193Y-46743D02*
X45193Y-47823D01*
X45193Y-47823D02*
X45673Y-47823D01*
G54D14*
X39800Y-39679D02*
X39800Y-37879D01*
X39800Y-37879D02*
X47600Y-37879D01*
X47600Y-37879D02*
X47600Y-39679D01*
X47600Y-39679D02*
X39800Y-39679D01*
G54D13*
X45736Y-31256D02*
X44656Y-31256D01*
X44656Y-31256D02*
X44656Y-31736D01*
X44656Y-31736D02*
X45736Y-31736D01*
X45736Y-31736D02*
X45736Y-31256D01*
X47784Y-29287D02*
X46704Y-29287D01*
X46704Y-29287D02*
X46704Y-29767D01*
X46704Y-29767D02*
X47784Y-29767D01*
X47784Y-29767D02*
X47784Y-29287D01*
G54D15*
X32469Y-20997D02*
X32419Y-20997D01*
X32419Y-20997D02*
X32419Y-23097D01*
X33919Y-23097D02*
X33919Y-20997D01*
X33919Y-20997D02*
X32469Y-20997D01*
X33369Y-20997D02*
X33369Y-21197D01*
X33369Y-21197D02*
X32969Y-21197D01*
X32969Y-21197D02*
X32969Y-20997D01*
X33919Y-23097D02*
X32419Y-23097D01*
X43534Y-29073D02*
X42134Y-29073D01*
X43534Y-32973D02*
X42134Y-32973D01*
X43534Y-32973D02*
X43534Y-29073D01*
X42134Y-29073D02*
X42134Y-32973D01*
X42546Y-29373D02*
G75*
G03X42546Y-29373I-111J0D01*
G74*
G01*
X40963Y-45756D02*
X40963Y-47156D01*
X44863Y-45756D02*
X44863Y-47156D01*
X44863Y-45756D02*
X40963Y-45756D01*
X40963Y-47156D02*
X44863Y-47156D01*
X41375Y-46856D02*
G75*
G03X41375Y-46856I-111J0D01*
G74*
G01*
G54D16*
X41704Y-52779D02*
X41704Y-49779D01*
X41704Y-49779D02*
X42704Y-49779D01*
X42704Y-49779D02*
X42704Y-52779D01*
X42954Y-51779D02*
X41454Y-51779D01*
X41454Y-51779D02*
X41454Y-53029D01*
X41454Y-53029D02*
X42954Y-53029D01*
X41704Y-52779D02*
X42704Y-52779D01*
X42954Y-53029D02*
X42954Y-51779D01*
X46700Y-27779D02*
X49700Y-27779D01*
X49700Y-27779D02*
X49700Y-28779D01*
X49700Y-28779D02*
X46700Y-28779D01*
X47700Y-29029D02*
X47700Y-27529D01*
X47700Y-27529D02*
X46450Y-27529D01*
X46450Y-27529D02*
X46450Y-29029D01*
X46700Y-27779D02*
X46700Y-28779D01*
X46450Y-29029D02*
X47700Y-29029D01*
X46700Y-30779D02*
X49700Y-30779D01*
X49700Y-30779D02*
X49700Y-31779D01*
X49700Y-31779D02*
X46700Y-31779D01*
X47700Y-32029D02*
X47700Y-30529D01*
X47700Y-30529D02*
X46450Y-30529D01*
X46450Y-30529D02*
X46450Y-32029D01*
X46700Y-30779D02*
X46700Y-31779D01*
X46450Y-32029D02*
X47700Y-32029D01*
X44696Y-52779D02*
X44696Y-49779D01*
X44696Y-49779D02*
X45696Y-49779D01*
X45696Y-49779D02*
X45696Y-52779D01*
X45946Y-51779D02*
X44446Y-51779D01*
X44446Y-51779D02*
X44446Y-53029D01*
X44446Y-53029D02*
X45946Y-53029D01*
X44696Y-52779D02*
X45696Y-52779D01*
X45946Y-53029D02*
X45946Y-51779D01*
G54D13*
X49358Y-29287D02*
X48278Y-29287D01*
X48278Y-29287D02*
X48278Y-29767D01*
X48278Y-29767D02*
X49358Y-29767D01*
X49358Y-29767D02*
X49358Y-29287D01*
X48059Y-32594D02*
X46979Y-32594D01*
X46979Y-32594D02*
X46979Y-33074D01*
X46979Y-33074D02*
X48059Y-33074D01*
X48059Y-33074D02*
X48059Y-32594D01*
X49358Y-32594D02*
X48278Y-32594D01*
X48278Y-32594D02*
X48278Y-33074D01*
X48278Y-33074D02*
X49358Y-33074D01*
X49358Y-33074D02*
X49358Y-32594D01*
X40508Y-52412D02*
X40508Y-53492D01*
X40508Y-53492D02*
X40988Y-53492D01*
X40988Y-53492D02*
X40988Y-52412D01*
X40988Y-52412D02*
X40508Y-52412D01*
X40508Y-50444D02*
X40508Y-51524D01*
X40508Y-51524D02*
X40988Y-51524D01*
X40988Y-51524D02*
X40988Y-50444D01*
X40988Y-50444D02*
X40508Y-50444D01*
X44531Y-49555D02*
X44531Y-48475D01*
X44531Y-48475D02*
X44051Y-48475D01*
X44051Y-48475D02*
X44051Y-49555D01*
X44051Y-49555D02*
X44531Y-49555D01*
X43657Y-52412D02*
X43657Y-53492D01*
X43657Y-53492D02*
X44137Y-53492D01*
X44137Y-53492D02*
X44137Y-52412D01*
X44137Y-52412D02*
X43657Y-52412D01*
X43657Y-50444D02*
X43657Y-51524D01*
X43657Y-51524D02*
X44137Y-51524D01*
X44137Y-51524D02*
X44137Y-50444D01*
X44137Y-50444D02*
X43657Y-50444D01*
G54D16*
X47492Y-52771D02*
X47492Y-50771D01*
X47492Y-50771D02*
X48492Y-50771D01*
X48492Y-50771D02*
X48492Y-52771D01*
X48742Y-51771D02*
X47242Y-51771D01*
X47242Y-51771D02*
X47242Y-53021D01*
X47242Y-53021D02*
X48742Y-53021D01*
X47492Y-52771D02*
X48492Y-52771D01*
X48742Y-53021D02*
X48742Y-51771D01*
G54D13*
X42234Y-37106D02*
X42174Y-37106D01*
X42204Y-37006D02*
X42074Y-37166D01*
X42074Y-37166D02*
X42334Y-37166D01*
X42334Y-37166D02*
X42204Y-37006D01*
X41964Y-36546D02*
X41964Y-37626D01*
X41964Y-37626D02*
X42444Y-37626D01*
X42444Y-37626D02*
X42444Y-36546D01*
X42444Y-36546D02*
X41964Y-36546D01*
X45226Y-37106D02*
X45166Y-37106D01*
X45196Y-37006D02*
X45066Y-37166D01*
X45066Y-37166D02*
X45326Y-37166D01*
X45326Y-37166D02*
X45196Y-37006D01*
X44956Y-36546D02*
X44956Y-37626D01*
X44956Y-37626D02*
X45436Y-37626D01*
X45436Y-37626D02*
X45436Y-36546D01*
X45436Y-36546D02*
X44956Y-36546D01*
X41211Y-37106D02*
X41151Y-37106D01*
X41181Y-37006D02*
X41051Y-37166D01*
X41051Y-37166D02*
X41311Y-37166D01*
X41311Y-37166D02*
X41181Y-37006D01*
X40941Y-36546D02*
X40941Y-37626D01*
X40941Y-37626D02*
X41421Y-37626D01*
X41421Y-37626D02*
X41421Y-36546D01*
X41421Y-36546D02*
X40941Y-36546D01*
X44203Y-37106D02*
X44143Y-37106D01*
X44173Y-37006D02*
X44043Y-37166D01*
X44043Y-37166D02*
X44303Y-37166D01*
X44303Y-37166D02*
X44173Y-37006D01*
X43933Y-36546D02*
X43933Y-37626D01*
X43933Y-37626D02*
X44413Y-37626D01*
X44413Y-37626D02*
X44413Y-36546D01*
X44413Y-36546D02*
X43933Y-36546D01*
X43179Y-37106D02*
X43119Y-37106D01*
X43149Y-37006D02*
X43019Y-37166D01*
X43019Y-37166D02*
X43279Y-37166D01*
X43279Y-37166D02*
X43149Y-37006D01*
X42909Y-36546D02*
X42909Y-37626D01*
X42909Y-37626D02*
X43389Y-37626D01*
X43389Y-37626D02*
X43389Y-36546D01*
X43389Y-36546D02*
X42909Y-36546D01*
X47195Y-37106D02*
X47135Y-37106D01*
X47165Y-37006D02*
X47035Y-37166D01*
X47035Y-37166D02*
X47295Y-37166D01*
X47295Y-37166D02*
X47165Y-37006D01*
X46925Y-36546D02*
X46925Y-37626D01*
X46925Y-37626D02*
X47405Y-37626D01*
X47405Y-37626D02*
X47405Y-36546D01*
X47405Y-36546D02*
X46925Y-36546D01*
X40266Y-37106D02*
X40206Y-37106D01*
X40236Y-37006D02*
X40106Y-37166D01*
X40106Y-37166D02*
X40366Y-37166D01*
X40366Y-37166D02*
X40236Y-37006D01*
X39996Y-36546D02*
X39996Y-37626D01*
X39996Y-37626D02*
X40476Y-37626D01*
X40476Y-37626D02*
X40476Y-36546D01*
X40476Y-36546D02*
X39996Y-36546D01*
X46250Y-37106D02*
X46190Y-37106D01*
X46220Y-37006D02*
X46090Y-37166D01*
X46090Y-37166D02*
X46350Y-37166D01*
X46350Y-37166D02*
X46220Y-37006D01*
X45980Y-36546D02*
X45980Y-37626D01*
X45980Y-37626D02*
X46460Y-37626D01*
X46460Y-37626D02*
X46460Y-36546D01*
X46460Y-36546D02*
X45980Y-36546D01*
X41151Y-40452D02*
X41211Y-40452D01*
X41181Y-40552D02*
X41311Y-40392D01*
X41311Y-40392D02*
X41051Y-40392D01*
X41051Y-40392D02*
X41181Y-40552D01*
X41421Y-41012D02*
X41421Y-39932D01*
X41421Y-39932D02*
X40941Y-39932D01*
X40941Y-39932D02*
X40941Y-41012D01*
X40941Y-41012D02*
X41421Y-41012D01*
X45166Y-40452D02*
X45226Y-40452D01*
X45196Y-40552D02*
X45326Y-40392D01*
X45326Y-40392D02*
X45066Y-40392D01*
X45066Y-40392D02*
X45196Y-40552D01*
X45436Y-41012D02*
X45436Y-39932D01*
X45436Y-39932D02*
X44956Y-39932D01*
X44956Y-39932D02*
X44956Y-41012D01*
X44956Y-41012D02*
X45436Y-41012D01*
X42174Y-40452D02*
X42234Y-40452D01*
X42204Y-40552D02*
X42334Y-40392D01*
X42334Y-40392D02*
X42074Y-40392D01*
X42074Y-40392D02*
X42204Y-40552D01*
X42444Y-41012D02*
X42444Y-39932D01*
X42444Y-39932D02*
X41964Y-39932D01*
X41964Y-39932D02*
X41964Y-41012D01*
X41964Y-41012D02*
X42444Y-41012D01*
X44143Y-40452D02*
X44203Y-40452D01*
X44173Y-40552D02*
X44303Y-40392D01*
X44303Y-40392D02*
X44043Y-40392D01*
X44043Y-40392D02*
X44173Y-40552D01*
X44413Y-41012D02*
X44413Y-39932D01*
X44413Y-39932D02*
X43933Y-39932D01*
X43933Y-39932D02*
X43933Y-41012D01*
X43933Y-41012D02*
X44413Y-41012D01*
X43119Y-40452D02*
X43179Y-40452D01*
X43149Y-40552D02*
X43279Y-40392D01*
X43279Y-40392D02*
X43019Y-40392D01*
X43019Y-40392D02*
X43149Y-40552D01*
X43389Y-41012D02*
X43389Y-39932D01*
X43389Y-39932D02*
X42909Y-39932D01*
X42909Y-39932D02*
X42909Y-41012D01*
X42909Y-41012D02*
X43389Y-41012D01*
X47135Y-40452D02*
X47195Y-40452D01*
X47165Y-40552D02*
X47295Y-40392D01*
X47295Y-40392D02*
X47035Y-40392D01*
X47035Y-40392D02*
X47165Y-40552D01*
X47405Y-41012D02*
X47405Y-39932D01*
X47405Y-39932D02*
X46925Y-39932D01*
X46925Y-39932D02*
X46925Y-41012D01*
X46925Y-41012D02*
X47405Y-41012D01*
X40206Y-40452D02*
X40266Y-40452D01*
X40236Y-40552D02*
X40366Y-40392D01*
X40366Y-40392D02*
X40106Y-40392D01*
X40106Y-40392D02*
X40236Y-40552D01*
X40476Y-41012D02*
X40476Y-39932D01*
X40476Y-39932D02*
X39996Y-39932D01*
X39996Y-39932D02*
X39996Y-41012D01*
X39996Y-41012D02*
X40476Y-41012D01*
X46190Y-40452D02*
X46250Y-40452D01*
X46220Y-40552D02*
X46350Y-40392D01*
X46350Y-40392D02*
X46090Y-40392D01*
X46090Y-40392D02*
X46220Y-40552D01*
X46460Y-41012D02*
X46460Y-39932D01*
X46460Y-39932D02*
X45980Y-39932D01*
X45980Y-39932D02*
X45980Y-41012D01*
X45980Y-41012D02*
X46460Y-41012D01*
X41782Y-36263D02*
X42862Y-36263D01*
X42862Y-36263D02*
X42862Y-35783D01*
X42862Y-35783D02*
X41782Y-35783D01*
X41782Y-35783D02*
X41782Y-36263D01*
X46602Y-35783D02*
X45522Y-35783D01*
X45522Y-35783D02*
X45522Y-36263D01*
X45522Y-36263D02*
X46602Y-36263D01*
X46602Y-36263D02*
X46602Y-35783D01*
X40208Y-36263D02*
X41288Y-36263D01*
X41288Y-36263D02*
X41288Y-35783D01*
X41288Y-35783D02*
X40208Y-35783D01*
X40208Y-35783D02*
X40208Y-36263D01*
X45421Y-35783D02*
X44341Y-35783D01*
X44341Y-35783D02*
X44341Y-36263D01*
X44341Y-36263D02*
X45421Y-36263D01*
X45421Y-36263D02*
X45421Y-35783D01*
X43160Y-36263D02*
X44240Y-36263D01*
X44240Y-36263D02*
X44240Y-35783D01*
X44240Y-35783D02*
X43160Y-35783D01*
X43160Y-35783D02*
X43160Y-36263D01*
X48807Y-37161D02*
X47727Y-37161D01*
X47727Y-37161D02*
X47727Y-37641D01*
X47727Y-37641D02*
X48807Y-37641D01*
X48807Y-37641D02*
X48807Y-37161D01*
X38672Y-37641D02*
X39752Y-37641D01*
X39752Y-37641D02*
X39752Y-37161D01*
X39752Y-37161D02*
X38672Y-37161D01*
X38672Y-37161D02*
X38672Y-37641D01*
X47784Y-35783D02*
X46704Y-35783D01*
X46704Y-35783D02*
X46704Y-36263D01*
X46704Y-36263D02*
X47784Y-36263D01*
X47784Y-36263D02*
X47784Y-35783D01*
X40247Y-41736D02*
X41327Y-41736D01*
X41327Y-41736D02*
X41327Y-41256D01*
X41327Y-41256D02*
X40247Y-41256D01*
X40247Y-41256D02*
X40247Y-41736D01*
X46760Y-41256D02*
X45680Y-41256D01*
X45680Y-41256D02*
X45680Y-41736D01*
X45680Y-41736D02*
X46760Y-41736D01*
X46760Y-41736D02*
X46760Y-41256D01*
X42823Y-41256D02*
X41743Y-41256D01*
X41743Y-41256D02*
X41743Y-41736D01*
X41743Y-41736D02*
X42823Y-41736D01*
X42823Y-41736D02*
X42823Y-41256D01*
X45500Y-41256D02*
X44420Y-41256D01*
X44420Y-41256D02*
X44420Y-41736D01*
X44420Y-41736D02*
X45500Y-41736D01*
X45500Y-41736D02*
X45500Y-41256D01*
X44240Y-41256D02*
X43160Y-41256D01*
X43160Y-41256D02*
X43160Y-41736D01*
X43160Y-41736D02*
X44240Y-41736D01*
X44240Y-41736D02*
X44240Y-41256D01*
X48807Y-39956D02*
X47727Y-39956D01*
X47727Y-39956D02*
X47727Y-40436D01*
X47727Y-40436D02*
X48807Y-40436D01*
X48807Y-40436D02*
X48807Y-39956D01*
X39831Y-40547D02*
X38751Y-40547D01*
X38751Y-40547D02*
X38751Y-41027D01*
X38751Y-41027D02*
X39831Y-41027D01*
X39831Y-41027D02*
X39831Y-40547D01*
X47941Y-41256D02*
X46861Y-41256D01*
X46861Y-41256D02*
X46861Y-41736D01*
X46861Y-41736D02*
X47941Y-41736D01*
X47941Y-41736D02*
X47941Y-41256D01*
X41141Y-34202D02*
X41929Y-34202D01*
X41929Y-34202D02*
X41929Y-34694D01*
X41929Y-34694D02*
X41141Y-34694D01*
X41141Y-34694D02*
X41141Y-34202D01*
X41378Y-34566D02*
G75*
G03X41378Y-34566I-40J0D01*
G74*
G01*
X45079Y-34694D02*
X44291Y-34694D01*
X44291Y-34694D02*
X44291Y-34202D01*
X44291Y-34202D02*
X45079Y-34202D01*
X45079Y-34202D02*
X45079Y-34694D01*
X44922Y-34330D02*
G75*
G03X44922Y-34330I-40J0D01*
G74*
G01*
X42716Y-34202D02*
X43504Y-34202D01*
X43504Y-34202D02*
X43504Y-34694D01*
X43504Y-34694D02*
X42716Y-34694D01*
X42716Y-34694D02*
X42716Y-34202D01*
X42953Y-34566D02*
G75*
G03X42953Y-34566I-40J0D01*
G74*
G01*
X46850Y-34694D02*
X46062Y-34694D01*
X46062Y-34694D02*
X46062Y-34202D01*
X46062Y-34202D02*
X46850Y-34202D01*
X46850Y-34202D02*
X46850Y-34694D01*
X46693Y-34330D02*
G75*
G03X46693Y-34330I-40J0D01*
G74*
G01*
X41141Y-42431D02*
X41929Y-42431D01*
X41929Y-42431D02*
X41929Y-42923D01*
X41929Y-42923D02*
X41141Y-42923D01*
X41141Y-42923D02*
X41141Y-42431D01*
X41378Y-42795D02*
G75*
G03X41378Y-42795I-40J0D01*
G74*
G01*
X45079Y-42883D02*
X44291Y-42883D01*
X44291Y-42883D02*
X44291Y-42391D01*
X44291Y-42391D02*
X45079Y-42391D01*
X45079Y-42391D02*
X45079Y-42883D01*
X44922Y-42519D02*
G75*
G03X44922Y-42519I-40J0D01*
G74*
G01*
X42716Y-42391D02*
X43504Y-42391D01*
X43504Y-42391D02*
X43504Y-42883D01*
X43504Y-42883D02*
X42716Y-42883D01*
X42716Y-42883D02*
X42716Y-42391D01*
X42953Y-42755D02*
G75*
G03X42953Y-42755I-40J0D01*
G74*
G01*
X46890Y-42883D02*
X46102Y-42883D01*
X46102Y-42883D02*
X46102Y-42391D01*
X46102Y-42391D02*
X46890Y-42391D01*
X46890Y-42391D02*
X46890Y-42883D01*
X46733Y-42519D02*
G75*
G03X46733Y-42519I-40J0D01*
G74*
G01*
G54D16*
X34700Y-24566D02*
X32700Y-24566D01*
X32700Y-24566D02*
X32700Y-23566D01*
X32700Y-23566D02*
X34700Y-23566D01*
X33700Y-23316D02*
X33700Y-24816D01*
X33700Y-24816D02*
X34950Y-24816D01*
X34950Y-24816D02*
X34950Y-23316D01*
X34700Y-24566D02*
X34700Y-23566D01*
X34950Y-23316D02*
X33700Y-23316D01*
G54D13*
X62351Y-32240D02*
X61271Y-32240D01*
X61271Y-32240D02*
X61271Y-32720D01*
X61271Y-32720D02*
X62351Y-32720D01*
X62351Y-32720D02*
X62351Y-32240D01*
X61917Y-32948D02*
X60837Y-32948D01*
X60837Y-32948D02*
X60837Y-33428D01*
X60837Y-33428D02*
X61917Y-33428D01*
X61917Y-33428D02*
X61917Y-32948D01*
X55916Y-32995D02*
X56996Y-32995D01*
X56996Y-32995D02*
X56996Y-32515D01*
X56996Y-32515D02*
X55916Y-32515D01*
X55916Y-32515D02*
X55916Y-32995D01*
X55877Y-32326D02*
X56957Y-32326D01*
X56957Y-32326D02*
X56957Y-31846D01*
X56957Y-31846D02*
X55877Y-31846D01*
X55877Y-31846D02*
X55877Y-32326D01*
X57759Y-33256D02*
X57759Y-32176D01*
X57759Y-32176D02*
X57279Y-32176D01*
X57279Y-32176D02*
X57279Y-33256D01*
X57279Y-33256D02*
X57759Y-33256D01*
X61721Y-43618D02*
X60641Y-43618D01*
X60641Y-43618D02*
X60641Y-44098D01*
X60641Y-44098D02*
X61721Y-44098D01*
X61721Y-44098D02*
X61721Y-43618D01*
X60798Y-44767D02*
X61878Y-44767D01*
X61878Y-44767D02*
X61878Y-44287D01*
X61878Y-44287D02*
X60798Y-44287D01*
X60798Y-44287D02*
X60798Y-44767D01*
X61169Y-48972D02*
X60089Y-48972D01*
X60089Y-48972D02*
X60089Y-49452D01*
X60089Y-49452D02*
X61169Y-49452D01*
X61169Y-49452D02*
X61169Y-48972D01*
X59830Y-49512D02*
X59830Y-48432D01*
X59830Y-48432D02*
X59350Y-48432D01*
X59350Y-48432D02*
X59350Y-49512D01*
X59350Y-49512D02*
X59830Y-49512D01*
X60562Y-48743D02*
X61642Y-48743D01*
X61642Y-48743D02*
X61642Y-48263D01*
X61642Y-48263D02*
X60562Y-48263D01*
X60562Y-48263D02*
X60562Y-48743D01*
X57195Y-37106D02*
X57135Y-37106D01*
X57165Y-37006D02*
X57035Y-37166D01*
X57035Y-37166D02*
X57295Y-37166D01*
X57295Y-37166D02*
X57165Y-37006D01*
X56925Y-36546D02*
X56925Y-37626D01*
X56925Y-37626D02*
X57405Y-37626D01*
X57405Y-37626D02*
X57405Y-36546D01*
X57405Y-36546D02*
X56925Y-36546D01*
X60187Y-37106D02*
X60127Y-37106D01*
X60157Y-37006D02*
X60027Y-37166D01*
X60027Y-37166D02*
X60287Y-37166D01*
X60287Y-37166D02*
X60157Y-37006D01*
X59917Y-36546D02*
X59917Y-37626D01*
X59917Y-37626D02*
X60397Y-37626D01*
X60397Y-37626D02*
X60397Y-36546D01*
X60397Y-36546D02*
X59917Y-36546D01*
X56171Y-37106D02*
X56111Y-37106D01*
X56141Y-37006D02*
X56011Y-37166D01*
X56011Y-37166D02*
X56271Y-37166D01*
X56271Y-37166D02*
X56141Y-37006D01*
X55901Y-36546D02*
X55901Y-37626D01*
X55901Y-37626D02*
X56381Y-37626D01*
X56381Y-37626D02*
X56381Y-36546D01*
X56381Y-36546D02*
X55901Y-36546D01*
X59203Y-37106D02*
X59143Y-37106D01*
X59173Y-37006D02*
X59043Y-37166D01*
X59043Y-37166D02*
X59303Y-37166D01*
X59303Y-37166D02*
X59173Y-37006D01*
X58933Y-36546D02*
X58933Y-37626D01*
X58933Y-37626D02*
X59413Y-37626D01*
X59413Y-37626D02*
X59413Y-36546D01*
X59413Y-36546D02*
X58933Y-36546D01*
X58179Y-37106D02*
X58119Y-37106D01*
X58149Y-37006D02*
X58019Y-37166D01*
X58019Y-37166D02*
X58279Y-37166D01*
X58279Y-37166D02*
X58149Y-37006D01*
X57909Y-36546D02*
X57909Y-37626D01*
X57909Y-37626D02*
X58389Y-37626D01*
X58389Y-37626D02*
X58389Y-36546D01*
X58389Y-36546D02*
X57909Y-36546D01*
X62195Y-37106D02*
X62135Y-37106D01*
X62165Y-37006D02*
X62035Y-37166D01*
X62035Y-37166D02*
X62295Y-37166D01*
X62295Y-37166D02*
X62165Y-37006D01*
X61925Y-36546D02*
X61925Y-37626D01*
X61925Y-37626D02*
X62405Y-37626D01*
X62405Y-37626D02*
X62405Y-36546D01*
X62405Y-36546D02*
X61925Y-36546D01*
X55187Y-37106D02*
X55127Y-37106D01*
X55157Y-37006D02*
X55027Y-37166D01*
X55027Y-37166D02*
X55287Y-37166D01*
X55287Y-37166D02*
X55157Y-37006D01*
X54917Y-36546D02*
X54917Y-37626D01*
X54917Y-37626D02*
X55397Y-37626D01*
X55397Y-37626D02*
X55397Y-36546D01*
X55397Y-36546D02*
X54917Y-36546D01*
X61171Y-37106D02*
X61111Y-37106D01*
X61141Y-37006D02*
X61011Y-37166D01*
X61011Y-37166D02*
X61271Y-37166D01*
X61271Y-37166D02*
X61141Y-37006D01*
X60901Y-36546D02*
X60901Y-37626D01*
X60901Y-37626D02*
X61381Y-37626D01*
X61381Y-37626D02*
X61381Y-36546D01*
X61381Y-36546D02*
X60901Y-36546D01*
X56111Y-40452D02*
X56171Y-40452D01*
X56141Y-40552D02*
X56271Y-40392D01*
X56271Y-40392D02*
X56011Y-40392D01*
X56011Y-40392D02*
X56141Y-40552D01*
X56381Y-41012D02*
X56381Y-39932D01*
X56381Y-39932D02*
X55901Y-39932D01*
X55901Y-39932D02*
X55901Y-41012D01*
X55901Y-41012D02*
X56381Y-41012D01*
X60127Y-40452D02*
X60187Y-40452D01*
X60157Y-40552D02*
X60287Y-40392D01*
X60287Y-40392D02*
X60027Y-40392D01*
X60027Y-40392D02*
X60157Y-40552D01*
X60397Y-41012D02*
X60397Y-39932D01*
X60397Y-39932D02*
X59917Y-39932D01*
X59917Y-39932D02*
X59917Y-41012D01*
X59917Y-41012D02*
X60397Y-41012D01*
X57135Y-40452D02*
X57195Y-40452D01*
X57165Y-40552D02*
X57295Y-40392D01*
X57295Y-40392D02*
X57035Y-40392D01*
X57035Y-40392D02*
X57165Y-40552D01*
X57405Y-41012D02*
X57405Y-39932D01*
X57405Y-39932D02*
X56925Y-39932D01*
X56925Y-39932D02*
X56925Y-41012D01*
X56925Y-41012D02*
X57405Y-41012D01*
X59143Y-40452D02*
X59203Y-40452D01*
X59173Y-40552D02*
X59303Y-40392D01*
X59303Y-40392D02*
X59043Y-40392D01*
X59043Y-40392D02*
X59173Y-40552D01*
X59413Y-41012D02*
X59413Y-39932D01*
X59413Y-39932D02*
X58933Y-39932D01*
X58933Y-39932D02*
X58933Y-41012D01*
X58933Y-41012D02*
X59413Y-41012D01*
X58158Y-40452D02*
X58218Y-40452D01*
X58188Y-40552D02*
X58318Y-40392D01*
X58318Y-40392D02*
X58058Y-40392D01*
X58058Y-40392D02*
X58188Y-40552D01*
X58428Y-41012D02*
X58428Y-39932D01*
X58428Y-39932D02*
X57948Y-39932D01*
X57948Y-39932D02*
X57948Y-41012D01*
X57948Y-41012D02*
X58428Y-41012D01*
X62135Y-40452D02*
X62195Y-40452D01*
X62165Y-40552D02*
X62295Y-40392D01*
X62295Y-40392D02*
X62035Y-40392D01*
X62035Y-40392D02*
X62165Y-40552D01*
X62405Y-41012D02*
X62405Y-39932D01*
X62405Y-39932D02*
X61925Y-39932D01*
X61925Y-39932D02*
X61925Y-41012D01*
X61925Y-41012D02*
X62405Y-41012D01*
X55127Y-40452D02*
X55187Y-40452D01*
X55157Y-40552D02*
X55287Y-40392D01*
X55287Y-40392D02*
X55027Y-40392D01*
X55027Y-40392D02*
X55157Y-40552D01*
X55397Y-41012D02*
X55397Y-39932D01*
X55397Y-39932D02*
X54917Y-39932D01*
X54917Y-39932D02*
X54917Y-41012D01*
X54917Y-41012D02*
X55397Y-41012D01*
X61151Y-40452D02*
X61211Y-40452D01*
X61181Y-40552D02*
X61311Y-40392D01*
X61311Y-40392D02*
X61051Y-40392D01*
X61051Y-40392D02*
X61181Y-40552D01*
X61421Y-41012D02*
X61421Y-39932D01*
X61421Y-39932D02*
X60941Y-39932D01*
X60941Y-39932D02*
X60941Y-41012D01*
X60941Y-41012D02*
X61421Y-41012D01*
G54D14*
X66619Y-25067D02*
X66619Y-37867D01*
X66619Y-37867D02*
X73619Y-37867D01*
X73619Y-37867D02*
X73619Y-25067D01*
X73619Y-25067D02*
X66619Y-25067D01*
X73619Y-27867D02*
X70619Y-27867D01*
X70619Y-27867D02*
X70619Y-35067D01*
X70619Y-35067D02*
X73619Y-35067D01*
X73619Y-28467D02*
X77019Y-28467D01*
X77019Y-28467D02*
X77019Y-34467D01*
X77019Y-34467D02*
X73619Y-34467D01*
X66619Y-39712D02*
X66619Y-52512D01*
X66619Y-52512D02*
X73619Y-52512D01*
X73619Y-52512D02*
X73619Y-39712D01*
X73619Y-39712D02*
X66619Y-39712D01*
X73619Y-42512D02*
X70619Y-42512D01*
X70619Y-42512D02*
X70619Y-49712D01*
X70619Y-49712D02*
X73619Y-49712D01*
X73619Y-43112D02*
X77019Y-43112D01*
X77019Y-43112D02*
X77019Y-49112D01*
X77019Y-49112D02*
X73619Y-49112D01*
G54D16*
X53003Y-52771D02*
X53003Y-50771D01*
X53003Y-50771D02*
X54003Y-50771D01*
X54003Y-50771D02*
X54003Y-52771D01*
X54253Y-51771D02*
X52753Y-51771D01*
X52753Y-51771D02*
X52753Y-53021D01*
X52753Y-53021D02*
X54253Y-53021D01*
X53003Y-52771D02*
X54003Y-52771D01*
X54253Y-53021D02*
X54253Y-51771D01*
X59342Y-52740D02*
X59342Y-49740D01*
X59342Y-49740D02*
X60342Y-49740D01*
X60342Y-49740D02*
X60342Y-52740D01*
X60592Y-51740D02*
X59092Y-51740D01*
X59092Y-51740D02*
X59092Y-52990D01*
X59092Y-52990D02*
X60592Y-52990D01*
X59342Y-52740D02*
X60342Y-52740D01*
X60592Y-52990D02*
X60592Y-51740D01*
X55122Y-31779D02*
X52122Y-31779D01*
X52122Y-31779D02*
X52122Y-30779D01*
X52122Y-30779D02*
X55122Y-30779D01*
X54122Y-30529D02*
X54122Y-32029D01*
X54122Y-32029D02*
X55372Y-32029D01*
X55372Y-32029D02*
X55372Y-30529D01*
X55122Y-31779D02*
X55122Y-30779D01*
X55372Y-30529D02*
X54122Y-30529D01*
X55082Y-28779D02*
X52082Y-28779D01*
X52082Y-28779D02*
X52082Y-27779D01*
X52082Y-27779D02*
X55082Y-27779D01*
X54082Y-27529D02*
X54082Y-29029D01*
X54082Y-29029D02*
X55332Y-29029D01*
X55332Y-29029D02*
X55332Y-27529D01*
X55082Y-28779D02*
X55082Y-27779D01*
X55332Y-27529D02*
X54082Y-27529D01*
X55956Y-52740D02*
X55956Y-49740D01*
X55956Y-49740D02*
X56956Y-49740D01*
X56956Y-49740D02*
X56956Y-52740D01*
X57206Y-51740D02*
X55706Y-51740D01*
X55706Y-51740D02*
X55706Y-52990D01*
X55706Y-52990D02*
X57206Y-52990D01*
X55956Y-52740D02*
X56956Y-52740D01*
X57206Y-52990D02*
X57206Y-51740D01*
G54D14*
X54761Y-39679D02*
X54761Y-37879D01*
X54761Y-37879D02*
X62561Y-37879D01*
X62561Y-37879D02*
X62561Y-39679D01*
X62561Y-39679D02*
X54761Y-39679D01*
G54D13*
X55708Y-34202D02*
X56496Y-34202D01*
X56496Y-34202D02*
X56496Y-34694D01*
X56496Y-34694D02*
X55708Y-34694D01*
X55708Y-34694D02*
X55708Y-34202D01*
X55945Y-34566D02*
G75*
G03X55945Y-34566I-40J0D01*
G74*
G01*
X59842Y-34694D02*
X59054Y-34694D01*
X59054Y-34694D02*
X59054Y-34202D01*
X59054Y-34202D02*
X59842Y-34202D01*
X59842Y-34202D02*
X59842Y-34694D01*
X59685Y-34330D02*
G75*
G03X59685Y-34330I-40J0D01*
G74*
G01*
X57480Y-34202D02*
X58268Y-34202D01*
X58268Y-34202D02*
X58268Y-34694D01*
X58268Y-34694D02*
X57480Y-34694D01*
X57480Y-34694D02*
X57480Y-34202D01*
X57717Y-34566D02*
G75*
G03X57717Y-34566I-40J0D01*
G74*
G01*
X61417Y-34694D02*
X60629Y-34694D01*
X60629Y-34694D02*
X60629Y-34202D01*
X60629Y-34202D02*
X61417Y-34202D01*
X61417Y-34202D02*
X61417Y-34694D01*
X61260Y-34330D02*
G75*
G03X61260Y-34330I-40J0D01*
G74*
G01*
X55708Y-42391D02*
X56496Y-42391D01*
X56496Y-42391D02*
X56496Y-42883D01*
X56496Y-42883D02*
X55708Y-42883D01*
X55708Y-42883D02*
X55708Y-42391D01*
X55945Y-42755D02*
G75*
G03X55945Y-42755I-40J0D01*
G74*
G01*
X59842Y-42883D02*
X59054Y-42883D01*
X59054Y-42883D02*
X59054Y-42391D01*
X59054Y-42391D02*
X59842Y-42391D01*
X59842Y-42391D02*
X59842Y-42883D01*
X59685Y-42519D02*
G75*
G03X59685Y-42519I-40J0D01*
G74*
G01*
X57480Y-42391D02*
X58268Y-42391D01*
X58268Y-42391D02*
X58268Y-42883D01*
X58268Y-42883D02*
X57480Y-42883D01*
X57480Y-42883D02*
X57480Y-42391D01*
X57717Y-42755D02*
G75*
G03X57717Y-42755I-40J0D01*
G74*
G01*
X61417Y-42883D02*
X60629Y-42883D01*
X60629Y-42883D02*
X60629Y-42391D01*
X60629Y-42391D02*
X61417Y-42391D01*
X61417Y-42391D02*
X61417Y-42883D01*
X61260Y-42519D02*
G75*
G03X61260Y-42519I-40J0D01*
G74*
G01*
X56507Y-31617D02*
X57587Y-31617D01*
X57587Y-31617D02*
X57587Y-31137D01*
X57587Y-31137D02*
X56507Y-31137D01*
X56507Y-31137D02*
X56507Y-31617D01*
X56507Y-30909D02*
X57587Y-30909D01*
X57587Y-30909D02*
X57587Y-30429D01*
X57587Y-30429D02*
X56507Y-30429D01*
X56507Y-30429D02*
X56507Y-30909D01*
X53672Y-33074D02*
X54752Y-33074D01*
X54752Y-33074D02*
X54752Y-32594D01*
X54752Y-32594D02*
X53672Y-32594D01*
X53672Y-32594D02*
X53672Y-33074D01*
X52137Y-33074D02*
X53217Y-33074D01*
X53217Y-33074D02*
X53217Y-32594D01*
X53217Y-32594D02*
X52137Y-32594D01*
X52137Y-32594D02*
X52137Y-33074D01*
X53869Y-29767D02*
X54949Y-29767D01*
X54949Y-29767D02*
X54949Y-29287D01*
X54949Y-29287D02*
X53869Y-29287D01*
X53869Y-29287D02*
X53869Y-29767D01*
X52097Y-29767D02*
X53177Y-29767D01*
X53177Y-29767D02*
X53177Y-29287D01*
X53177Y-29287D02*
X52097Y-29287D01*
X52097Y-29287D02*
X52097Y-29767D01*
X60941Y-52373D02*
X60941Y-53453D01*
X60941Y-53453D02*
X61421Y-53453D01*
X61421Y-53453D02*
X61421Y-52373D01*
X61421Y-52373D02*
X60941Y-52373D01*
X60941Y-49932D02*
X60941Y-51012D01*
X60941Y-51012D02*
X61421Y-51012D01*
X61421Y-51012D02*
X61421Y-49932D01*
X61421Y-49932D02*
X60941Y-49932D01*
X55916Y-45554D02*
X56996Y-45554D01*
X56996Y-45554D02*
X56996Y-45074D01*
X56996Y-45074D02*
X55916Y-45074D01*
X55916Y-45074D02*
X55916Y-45554D01*
X57476Y-52373D02*
X57476Y-53453D01*
X57476Y-53453D02*
X57956Y-53453D01*
X57956Y-53453D02*
X57956Y-52373D01*
X57956Y-52373D02*
X57476Y-52373D01*
X57476Y-49932D02*
X57476Y-51012D01*
X57476Y-51012D02*
X57956Y-51012D01*
X57956Y-51012D02*
X57956Y-49932D01*
X57956Y-49932D02*
X57476Y-49932D01*
X57437Y-43751D02*
X57437Y-44831D01*
X57437Y-44831D02*
X57917Y-44831D01*
X57917Y-44831D02*
X57917Y-43751D01*
X57917Y-43751D02*
X57437Y-43751D01*
X57208Y-48610D02*
X57208Y-47530D01*
X57208Y-47530D02*
X56728Y-47530D01*
X56728Y-47530D02*
X56728Y-48610D01*
X56728Y-48610D02*
X57208Y-48610D01*
X56231Y-36263D02*
X57311Y-36263D01*
X57311Y-36263D02*
X57311Y-35783D01*
X57311Y-35783D02*
X56231Y-35783D01*
X56231Y-35783D02*
X56231Y-36263D01*
X61248Y-35783D02*
X60168Y-35783D01*
X60168Y-35783D02*
X60168Y-36263D01*
X60168Y-36263D02*
X61248Y-36263D01*
X61248Y-36263D02*
X61248Y-35783D01*
X54971Y-36263D02*
X56051Y-36263D01*
X56051Y-36263D02*
X56051Y-35783D01*
X56051Y-35783D02*
X54971Y-35783D01*
X54971Y-35783D02*
X54971Y-36263D01*
X59988Y-35783D02*
X58908Y-35783D01*
X58908Y-35783D02*
X58908Y-36263D01*
X58908Y-36263D02*
X59988Y-36263D01*
X59988Y-36263D02*
X59988Y-35783D01*
X57570Y-36263D02*
X58650Y-36263D01*
X58650Y-36263D02*
X58650Y-35783D01*
X58650Y-35783D02*
X57570Y-35783D01*
X57570Y-35783D02*
X57570Y-36263D01*
X63650Y-37161D02*
X62570Y-37161D01*
X62570Y-37161D02*
X62570Y-37641D01*
X62570Y-37641D02*
X63650Y-37641D01*
X63650Y-37641D02*
X63650Y-37161D01*
X53554Y-37641D02*
X54634Y-37641D01*
X54634Y-37641D02*
X54634Y-37161D01*
X54634Y-37161D02*
X53554Y-37161D01*
X53554Y-37161D02*
X53554Y-37641D01*
X62547Y-35783D02*
X61467Y-35783D01*
X61467Y-35783D02*
X61467Y-36263D01*
X61467Y-36263D02*
X62547Y-36263D01*
X62547Y-36263D02*
X62547Y-35783D01*
X54932Y-41736D02*
X56012Y-41736D01*
X56012Y-41736D02*
X56012Y-41256D01*
X56012Y-41256D02*
X54932Y-41256D01*
X54932Y-41256D02*
X54932Y-41736D01*
X61051Y-41256D02*
X59971Y-41256D01*
X59971Y-41256D02*
X59971Y-41736D01*
X59971Y-41736D02*
X61051Y-41736D01*
X61051Y-41736D02*
X61051Y-41256D01*
X57272Y-41256D02*
X56192Y-41256D01*
X56192Y-41256D02*
X56192Y-41736D01*
X56192Y-41736D02*
X57272Y-41736D01*
X57272Y-41736D02*
X57272Y-41256D01*
X59791Y-41256D02*
X58711Y-41256D01*
X58711Y-41256D02*
X58711Y-41736D01*
X58711Y-41736D02*
X59791Y-41736D01*
X59791Y-41736D02*
X59791Y-41256D01*
X58532Y-41256D02*
X57452Y-41256D01*
X57452Y-41256D02*
X57452Y-41736D01*
X57452Y-41736D02*
X58532Y-41736D01*
X58532Y-41736D02*
X58532Y-41256D01*
X63650Y-40547D02*
X62570Y-40547D01*
X62570Y-40547D02*
X62570Y-41027D01*
X62570Y-41027D02*
X63650Y-41027D01*
X63650Y-41027D02*
X63650Y-40547D01*
X53554Y-40436D02*
X54634Y-40436D01*
X54634Y-40436D02*
X54634Y-39956D01*
X54634Y-39956D02*
X53554Y-39956D01*
X53554Y-39956D02*
X53554Y-40436D01*
X62351Y-41256D02*
X61271Y-41256D01*
X61271Y-41256D02*
X61271Y-41736D01*
X61271Y-41736D02*
X62351Y-41736D01*
X62351Y-41736D02*
X62351Y-41256D01*
G54D15*
X58827Y-32973D02*
X60227Y-32973D01*
X58827Y-29073D02*
X60227Y-29073D01*
X58827Y-29073D02*
X58827Y-32973D01*
X60227Y-32973D02*
X60227Y-29073D01*
X60039Y-32673D02*
G75*
G03X60039Y-32673I-111J0D01*
G74*
G01*
X61398Y-47156D02*
X61398Y-45756D01*
X57498Y-47156D02*
X57498Y-45756D01*
X57498Y-47156D02*
X61398Y-47156D01*
X61398Y-45756D02*
X57498Y-45756D01*
X61210Y-46056D02*
G75*
G03X61210Y-46056I-111J0D01*
G74*
G01*
G54D16*
X50248Y-52771D02*
X50248Y-50771D01*
X50248Y-50771D02*
X51248Y-50771D01*
X51248Y-50771D02*
X51248Y-52771D01*
X51498Y-51771D02*
X49998Y-51771D01*
X49998Y-51771D02*
X49998Y-53021D01*
X49998Y-53021D02*
X51498Y-53021D01*
X50248Y-52771D02*
X51248Y-52771D01*
X51498Y-53021D02*
X51498Y-51771D01*
M02*
