G04 (created by PCBNEW (2013-05-09 BZR 4147)-testing) date 20/07/2013 09:35:41*
%MOIN*%
G04 Gerber Fmt 3.4, Leading zero omitted, Abs format*
%FSLAX34Y34*%
G01*
G70*
G90*
G04 APERTURE LIST*
%ADD10C,0.005906*%
%ADD11C,0.052200*%
%ADD12C,0.138000*%
%ADD13R,0.042000X0.042000*%
%ADD14C,0.162000*%
%ADD15R,0.072000X0.072000*%
%ADD16C,0.072000*%
%ADD17R,0.057000X0.032000*%
%ADD18R,0.069900X0.028500*%
%ADD19R,0.028500X0.069900*%
%ADD20R,0.030000X0.051000*%
G04 APERTURE END LIST*
G54D10*
G54D11*
X35393Y-21523D03*
X59055Y-21523D03*
G54D12*
X33070Y-18897D03*
X69290Y-18897D03*
X33070Y-55118D03*
X69290Y-55118D03*
G54D13*
X40329Y-29685D03*
X40929Y-29685D03*
X41353Y-28622D03*
X41953Y-28622D03*
X44921Y-29473D03*
X44921Y-28873D03*
X41732Y-43833D03*
X41732Y-44433D03*
X43882Y-28582D03*
X43282Y-28582D03*
X41471Y-49251D03*
X42071Y-49251D03*
X41796Y-48503D03*
X41196Y-48503D03*
X41008Y-44291D03*
X40408Y-44291D03*
X44896Y-30196D03*
X45496Y-30196D03*
X40393Y-45614D03*
X40393Y-45014D03*
G54D14*
X34342Y-26446D03*
X34342Y-36446D03*
G54D15*
X35342Y-29296D03*
G54D16*
X35342Y-30396D03*
X35342Y-31496D03*
X35342Y-32546D03*
X35342Y-33646D03*
X34342Y-33096D03*
X34342Y-31996D03*
X34342Y-30946D03*
X34342Y-29846D03*
G54D14*
X34342Y-41131D03*
X34342Y-51131D03*
G54D15*
X35342Y-48331D03*
G54D16*
X35342Y-47231D03*
X35342Y-46181D03*
X35342Y-45081D03*
X35342Y-43981D03*
X34342Y-47781D03*
X34342Y-46681D03*
X34342Y-45631D03*
X34342Y-44531D03*
G54D13*
X34881Y-20654D03*
X34881Y-20054D03*
X35456Y-23355D03*
X35456Y-22755D03*
X45496Y-30866D03*
X44896Y-30866D03*
X45472Y-49276D03*
X45472Y-48676D03*
X45433Y-47583D03*
X45433Y-46983D03*
G54D15*
X40200Y-39279D03*
G54D16*
X40200Y-38279D03*
X41200Y-39279D03*
X41200Y-38279D03*
X42200Y-39279D03*
X42200Y-38279D03*
X43200Y-39279D03*
X43200Y-38279D03*
X44200Y-39279D03*
X44200Y-38279D03*
X45200Y-39279D03*
X45200Y-38279D03*
X46200Y-39279D03*
X46200Y-38279D03*
X47200Y-39279D03*
X47200Y-38279D03*
G54D13*
X45496Y-31496D03*
X44896Y-31496D03*
X47544Y-29527D03*
X46944Y-29527D03*
G54D17*
X34219Y-21297D03*
X32119Y-21297D03*
X34219Y-21797D03*
X34219Y-22297D03*
X34219Y-22797D03*
X32119Y-21797D03*
X32119Y-22297D03*
X32119Y-22797D03*
G54D18*
X41732Y-30895D03*
X41732Y-31151D03*
X41732Y-31407D03*
X41732Y-31663D03*
X43934Y-30131D03*
X41732Y-30127D03*
X41732Y-30383D03*
X41732Y-30639D03*
X43936Y-31919D03*
X43936Y-31663D03*
X43936Y-31407D03*
X43936Y-31151D03*
X43936Y-30895D03*
X43936Y-30639D03*
X41732Y-31919D03*
X43934Y-30383D03*
X41732Y-29871D03*
X41732Y-32175D03*
X43936Y-32175D03*
X43936Y-29871D03*
X41732Y-29616D03*
X41732Y-32430D03*
X43936Y-32430D03*
X43936Y-29616D03*
X41732Y-29360D03*
X41732Y-32686D03*
X43936Y-32686D03*
X43936Y-29360D03*
G54D19*
X42785Y-47558D03*
X43041Y-47558D03*
X43297Y-47558D03*
X43553Y-47558D03*
X42021Y-45356D03*
X42017Y-47558D03*
X42273Y-47558D03*
X42529Y-47558D03*
X43809Y-45354D03*
X43553Y-45354D03*
X43297Y-45354D03*
X43041Y-45354D03*
X42785Y-45354D03*
X42529Y-45354D03*
X43809Y-47558D03*
X42273Y-45356D03*
X41761Y-47558D03*
X44065Y-47558D03*
X44065Y-45354D03*
X41761Y-45354D03*
X41506Y-47558D03*
X44320Y-47558D03*
X44320Y-45354D03*
X41506Y-45354D03*
X41250Y-47558D03*
X44576Y-47558D03*
X44576Y-45354D03*
X41250Y-45354D03*
G54D15*
X42204Y-52279D03*
G54D16*
X42204Y-51279D03*
X42204Y-50279D03*
G54D15*
X47200Y-28279D03*
G54D16*
X48200Y-28279D03*
X49200Y-28279D03*
G54D15*
X47200Y-31279D03*
G54D16*
X48200Y-31279D03*
X49200Y-31279D03*
G54D15*
X45196Y-52279D03*
G54D16*
X45196Y-51279D03*
X45196Y-50279D03*
G54D13*
X49118Y-29527D03*
X48518Y-29527D03*
X47819Y-32834D03*
X47219Y-32834D03*
X49118Y-32834D03*
X48518Y-32834D03*
X40748Y-52652D03*
X40748Y-53252D03*
X40748Y-50684D03*
X40748Y-51284D03*
X44291Y-49315D03*
X44291Y-48715D03*
X43897Y-52652D03*
X43897Y-53252D03*
X43897Y-50684D03*
X43897Y-51284D03*
G54D15*
X47992Y-52271D03*
G54D16*
X47992Y-51271D03*
G54D13*
X42204Y-36786D03*
X42204Y-37386D03*
X45196Y-36786D03*
X45196Y-37386D03*
X41181Y-36786D03*
X41181Y-37386D03*
X44173Y-36786D03*
X44173Y-37386D03*
X43149Y-36786D03*
X43149Y-37386D03*
X47165Y-36786D03*
X47165Y-37386D03*
X40236Y-36786D03*
X40236Y-37386D03*
X46220Y-36786D03*
X46220Y-37386D03*
X41181Y-40772D03*
X41181Y-40172D03*
X45196Y-40772D03*
X45196Y-40172D03*
X42204Y-40772D03*
X42204Y-40172D03*
X44173Y-40772D03*
X44173Y-40172D03*
X43149Y-40772D03*
X43149Y-40172D03*
X47165Y-40772D03*
X47165Y-40172D03*
X40236Y-40772D03*
X40236Y-40172D03*
X46220Y-40772D03*
X46220Y-40172D03*
X42022Y-36023D03*
X42622Y-36023D03*
X46362Y-36023D03*
X45762Y-36023D03*
X40448Y-36023D03*
X41048Y-36023D03*
X45181Y-36023D03*
X44581Y-36023D03*
X43400Y-36023D03*
X44000Y-36023D03*
X48567Y-37401D03*
X47967Y-37401D03*
X38912Y-37401D03*
X39512Y-37401D03*
X47544Y-36023D03*
X46944Y-36023D03*
X40487Y-41496D03*
X41087Y-41496D03*
X46520Y-41496D03*
X45920Y-41496D03*
X42583Y-41496D03*
X41983Y-41496D03*
X45260Y-41496D03*
X44660Y-41496D03*
X44000Y-41496D03*
X43400Y-41496D03*
X48567Y-40196D03*
X47967Y-40196D03*
X39591Y-40787D03*
X38991Y-40787D03*
X47701Y-41496D03*
X47101Y-41496D03*
G54D20*
X41275Y-34843D03*
X41535Y-34843D03*
X41795Y-34843D03*
X41795Y-34053D03*
X41535Y-34053D03*
X41275Y-34053D03*
X44945Y-34053D03*
X44685Y-34053D03*
X44425Y-34053D03*
X44425Y-34843D03*
X44685Y-34843D03*
X44945Y-34843D03*
X42850Y-34843D03*
X43110Y-34843D03*
X43370Y-34843D03*
X43370Y-34053D03*
X43110Y-34053D03*
X42850Y-34053D03*
X46716Y-34053D03*
X46456Y-34053D03*
X46196Y-34053D03*
X46196Y-34843D03*
X46456Y-34843D03*
X46716Y-34843D03*
X41275Y-43072D03*
X41535Y-43072D03*
X41795Y-43072D03*
X41795Y-42282D03*
X41535Y-42282D03*
X41275Y-42282D03*
X44945Y-42242D03*
X44685Y-42242D03*
X44425Y-42242D03*
X44425Y-43032D03*
X44685Y-43032D03*
X44945Y-43032D03*
X42850Y-43032D03*
X43110Y-43032D03*
X43370Y-43032D03*
X43370Y-42242D03*
X43110Y-42242D03*
X42850Y-42242D03*
X46756Y-42242D03*
X46496Y-42242D03*
X46236Y-42242D03*
X46236Y-43032D03*
X46496Y-43032D03*
X46756Y-43032D03*
G54D15*
X34200Y-24066D03*
G54D16*
X33200Y-24066D03*
G54D13*
X62111Y-32480D03*
X61511Y-32480D03*
X61677Y-33188D03*
X61077Y-33188D03*
X56156Y-32755D03*
X56756Y-32755D03*
X56117Y-32086D03*
X56717Y-32086D03*
X57519Y-33016D03*
X57519Y-32416D03*
X61481Y-43858D03*
X60881Y-43858D03*
X61038Y-44527D03*
X61638Y-44527D03*
X60929Y-49212D03*
X60329Y-49212D03*
X59590Y-49272D03*
X59590Y-48672D03*
X60802Y-48503D03*
X61402Y-48503D03*
X57165Y-36786D03*
X57165Y-37386D03*
X60157Y-36786D03*
X60157Y-37386D03*
X56141Y-36786D03*
X56141Y-37386D03*
X59173Y-36786D03*
X59173Y-37386D03*
X58149Y-36786D03*
X58149Y-37386D03*
X62165Y-36786D03*
X62165Y-37386D03*
X55157Y-36786D03*
X55157Y-37386D03*
X61141Y-36786D03*
X61141Y-37386D03*
X56141Y-40772D03*
X56141Y-40172D03*
X60157Y-40772D03*
X60157Y-40172D03*
X57165Y-40772D03*
X57165Y-40172D03*
X59173Y-40772D03*
X59173Y-40172D03*
X58188Y-40772D03*
X58188Y-40172D03*
X62165Y-40772D03*
X62165Y-40172D03*
X55157Y-40772D03*
X55157Y-40172D03*
X61181Y-40772D03*
X61181Y-40172D03*
G54D14*
X68019Y-36467D03*
X68019Y-26467D03*
G54D15*
X67019Y-33617D03*
G54D16*
X67019Y-32517D03*
X67019Y-31417D03*
X67019Y-30367D03*
X67019Y-29267D03*
X68019Y-29817D03*
X68019Y-30917D03*
X68019Y-31967D03*
X68019Y-33067D03*
G54D14*
X68019Y-51112D03*
X68019Y-41112D03*
G54D15*
X67019Y-43912D03*
G54D16*
X67019Y-45012D03*
X67019Y-46062D03*
X67019Y-47162D03*
X67019Y-48262D03*
X68019Y-44462D03*
X68019Y-45562D03*
X68019Y-46612D03*
X68019Y-47712D03*
G54D15*
X53503Y-52271D03*
G54D16*
X53503Y-51271D03*
G54D15*
X59842Y-52240D03*
G54D16*
X59842Y-51240D03*
X59842Y-50240D03*
G54D15*
X54622Y-31279D03*
G54D16*
X53622Y-31279D03*
X52622Y-31279D03*
G54D15*
X54582Y-28279D03*
G54D16*
X53582Y-28279D03*
X52582Y-28279D03*
G54D15*
X56456Y-52240D03*
G54D16*
X56456Y-51240D03*
X56456Y-50240D03*
G54D15*
X55161Y-39279D03*
G54D16*
X55161Y-38279D03*
X56161Y-39279D03*
X56161Y-38279D03*
X57161Y-39279D03*
X57161Y-38279D03*
X58161Y-39279D03*
X58161Y-38279D03*
X59161Y-39279D03*
X59161Y-38279D03*
X60161Y-39279D03*
X60161Y-38279D03*
X61161Y-39279D03*
X61161Y-38279D03*
X62161Y-39279D03*
X62161Y-38279D03*
G54D20*
X55842Y-34843D03*
X56102Y-34843D03*
X56362Y-34843D03*
X56362Y-34053D03*
X56102Y-34053D03*
X55842Y-34053D03*
X59708Y-34053D03*
X59448Y-34053D03*
X59188Y-34053D03*
X59188Y-34843D03*
X59448Y-34843D03*
X59708Y-34843D03*
X57614Y-34843D03*
X57874Y-34843D03*
X58134Y-34843D03*
X58134Y-34053D03*
X57874Y-34053D03*
X57614Y-34053D03*
X61283Y-34053D03*
X61023Y-34053D03*
X60763Y-34053D03*
X60763Y-34843D03*
X61023Y-34843D03*
X61283Y-34843D03*
X55842Y-43032D03*
X56102Y-43032D03*
X56362Y-43032D03*
X56362Y-42242D03*
X56102Y-42242D03*
X55842Y-42242D03*
X59708Y-42242D03*
X59448Y-42242D03*
X59188Y-42242D03*
X59188Y-43032D03*
X59448Y-43032D03*
X59708Y-43032D03*
X57614Y-43032D03*
X57874Y-43032D03*
X58134Y-43032D03*
X58134Y-42242D03*
X57874Y-42242D03*
X57614Y-42242D03*
X61283Y-42242D03*
X61023Y-42242D03*
X60763Y-42242D03*
X60763Y-43032D03*
X61023Y-43032D03*
X61283Y-43032D03*
G54D13*
X56747Y-31377D03*
X57347Y-31377D03*
X56747Y-30669D03*
X57347Y-30669D03*
X53912Y-32834D03*
X54512Y-32834D03*
X52377Y-32834D03*
X52977Y-32834D03*
X54109Y-29527D03*
X54709Y-29527D03*
X52337Y-29527D03*
X52937Y-29527D03*
X61181Y-52613D03*
X61181Y-53213D03*
X61181Y-50172D03*
X61181Y-50772D03*
X56156Y-45314D03*
X56756Y-45314D03*
X57716Y-52613D03*
X57716Y-53213D03*
X57716Y-50172D03*
X57716Y-50772D03*
X57677Y-43991D03*
X57677Y-44591D03*
X56968Y-48370D03*
X56968Y-47770D03*
X56471Y-36023D03*
X57071Y-36023D03*
X61008Y-36023D03*
X60408Y-36023D03*
X55211Y-36023D03*
X55811Y-36023D03*
X59748Y-36023D03*
X59148Y-36023D03*
X57810Y-36023D03*
X58410Y-36023D03*
X63410Y-37401D03*
X62810Y-37401D03*
X53794Y-37401D03*
X54394Y-37401D03*
X62307Y-36023D03*
X61707Y-36023D03*
X55172Y-41496D03*
X55772Y-41496D03*
X60811Y-41496D03*
X60211Y-41496D03*
X57032Y-41496D03*
X56432Y-41496D03*
X59551Y-41496D03*
X58951Y-41496D03*
X58292Y-41496D03*
X57692Y-41496D03*
X63410Y-40787D03*
X62810Y-40787D03*
X53794Y-40196D03*
X54394Y-40196D03*
X62111Y-41496D03*
X61511Y-41496D03*
G54D18*
X60629Y-31151D03*
X60629Y-30895D03*
X60629Y-30639D03*
X60629Y-30383D03*
X58427Y-31915D03*
X60629Y-31919D03*
X60629Y-31663D03*
X60629Y-31407D03*
X58425Y-30127D03*
X58425Y-30383D03*
X58425Y-30639D03*
X58425Y-30895D03*
X58425Y-31151D03*
X58425Y-31407D03*
X60629Y-30127D03*
X58427Y-31663D03*
X60629Y-32175D03*
X60629Y-29871D03*
X58425Y-29871D03*
X58425Y-32175D03*
X60629Y-32430D03*
X60629Y-29616D03*
X58425Y-29616D03*
X58425Y-32430D03*
X60629Y-32686D03*
X60629Y-29360D03*
X58425Y-29360D03*
X58425Y-32686D03*
G54D19*
X59576Y-45354D03*
X59320Y-45354D03*
X59064Y-45354D03*
X58808Y-45354D03*
X60340Y-47556D03*
X60344Y-45354D03*
X60088Y-45354D03*
X59832Y-45354D03*
X58552Y-47558D03*
X58808Y-47558D03*
X59064Y-47558D03*
X59320Y-47558D03*
X59576Y-47558D03*
X59832Y-47558D03*
X58552Y-45354D03*
X60088Y-47556D03*
X60600Y-45354D03*
X58296Y-45354D03*
X58296Y-47558D03*
X60600Y-47558D03*
X60855Y-45354D03*
X58041Y-45354D03*
X58041Y-47558D03*
X60855Y-47558D03*
X61111Y-45354D03*
X57785Y-45354D03*
X57785Y-47558D03*
X61111Y-47558D03*
G54D15*
X50748Y-52271D03*
G54D16*
X50748Y-51271D03*
M02*
