G04 (created by PCBNEW (2013-05-09 BZR 4147)-testing) date 20/07/2013 09:35:41*
%MOIN*%
G04 Gerber Fmt 3.4, Leading zero omitted, Abs format*
%FSLAX34Y34*%
G01*
G70*
G90*
G04 APERTURE LIST*
%ADD10C,0.005906*%
%ADD11C,0.150000*%
%ADD12R,0.060000X0.060000*%
%ADD13C,0.060000*%
%ADD14C,0.035000*%
%ADD15C,0.010000*%
G04 APERTURE END LIST*
G54D10*
G54D11*
X34342Y-26446D03*
X34342Y-36446D03*
G54D12*
X35342Y-29296D03*
G54D13*
X35342Y-30396D03*
X35342Y-31496D03*
X35342Y-32546D03*
X35342Y-33646D03*
X34342Y-33096D03*
X34342Y-31996D03*
X34342Y-30946D03*
X34342Y-29846D03*
G54D11*
X34342Y-41131D03*
X34342Y-51131D03*
G54D12*
X35342Y-48331D03*
G54D13*
X35342Y-47231D03*
X35342Y-46181D03*
X35342Y-45081D03*
X35342Y-43981D03*
X34342Y-47781D03*
X34342Y-46681D03*
X34342Y-45631D03*
X34342Y-44531D03*
G54D12*
X40200Y-39279D03*
G54D13*
X40200Y-38279D03*
X41200Y-39279D03*
X41200Y-38279D03*
X42200Y-39279D03*
X42200Y-38279D03*
X43200Y-39279D03*
X43200Y-38279D03*
X44200Y-39279D03*
X44200Y-38279D03*
X45200Y-39279D03*
X45200Y-38279D03*
X46200Y-39279D03*
X46200Y-38279D03*
X47200Y-39279D03*
X47200Y-38279D03*
G54D12*
X42204Y-52279D03*
G54D13*
X42204Y-51279D03*
X42204Y-50279D03*
G54D12*
X47200Y-28279D03*
G54D13*
X48200Y-28279D03*
X49200Y-28279D03*
G54D12*
X47200Y-31279D03*
G54D13*
X48200Y-31279D03*
X49200Y-31279D03*
G54D12*
X45196Y-52279D03*
G54D13*
X45196Y-51279D03*
X45196Y-50279D03*
G54D12*
X47992Y-52271D03*
G54D13*
X47992Y-51271D03*
G54D12*
X34200Y-24066D03*
G54D13*
X33200Y-24066D03*
G54D11*
X68019Y-36467D03*
X68019Y-26467D03*
G54D12*
X67019Y-33617D03*
G54D13*
X67019Y-32517D03*
X67019Y-31417D03*
X67019Y-30367D03*
X67019Y-29267D03*
X68019Y-29817D03*
X68019Y-30917D03*
X68019Y-31967D03*
X68019Y-33067D03*
G54D11*
X68019Y-51112D03*
X68019Y-41112D03*
G54D12*
X67019Y-43912D03*
G54D13*
X67019Y-45012D03*
X67019Y-46062D03*
X67019Y-47162D03*
X67019Y-48262D03*
X68019Y-44462D03*
X68019Y-45562D03*
X68019Y-46612D03*
X68019Y-47712D03*
G54D12*
X53503Y-52271D03*
G54D13*
X53503Y-51271D03*
G54D12*
X59842Y-52240D03*
G54D13*
X59842Y-51240D03*
X59842Y-50240D03*
G54D12*
X54622Y-31279D03*
G54D13*
X53622Y-31279D03*
X52622Y-31279D03*
G54D12*
X54582Y-28279D03*
G54D13*
X53582Y-28279D03*
X52582Y-28279D03*
G54D12*
X56456Y-52240D03*
G54D13*
X56456Y-51240D03*
X56456Y-50240D03*
G54D12*
X55161Y-39279D03*
G54D13*
X55161Y-38279D03*
X56161Y-39279D03*
X56161Y-38279D03*
X57161Y-39279D03*
X57161Y-38279D03*
X58161Y-39279D03*
X58161Y-38279D03*
X59161Y-39279D03*
X59161Y-38279D03*
X60161Y-39279D03*
X60161Y-38279D03*
X61161Y-39279D03*
X61161Y-38279D03*
X62161Y-39279D03*
X62161Y-38279D03*
G54D12*
X50748Y-52271D03*
G54D13*
X50748Y-51271D03*
G54D14*
X37992Y-20118D03*
X57237Y-44089D03*
X52171Y-36019D03*
X53472Y-20118D03*
X38385Y-24149D03*
X57495Y-29642D03*
X38370Y-24704D03*
X57616Y-30114D03*
X37499Y-20117D03*
X57093Y-44557D03*
X36811Y-22165D03*
X36353Y-22146D03*
X39842Y-18661D03*
X37001Y-19980D03*
X36141Y-31377D03*
X60214Y-44689D03*
X62440Y-30866D03*
X37035Y-22763D03*
X39622Y-44374D03*
X41196Y-22295D03*
X42263Y-36358D03*
X40236Y-35551D03*
X48661Y-40669D03*
X47716Y-41062D03*
X53346Y-39763D03*
X48937Y-22244D03*
X45433Y-22322D03*
X42677Y-41062D03*
X39488Y-41299D03*
X46220Y-35472D03*
X47527Y-18712D03*
X48937Y-36889D03*
X47751Y-22291D03*
X59047Y-48901D03*
X56200Y-48409D03*
X53161Y-22177D03*
X55771Y-20059D03*
X42204Y-35196D03*
X42510Y-43294D03*
X55075Y-33219D03*
X57133Y-28751D03*
X58788Y-48353D03*
X56763Y-42854D03*
X53543Y-27322D03*
X54519Y-20110D03*
X44251Y-33228D03*
X45295Y-42086D03*
X48382Y-38015D03*
X58805Y-46974D03*
X63188Y-38858D03*
X58858Y-42598D03*
X45857Y-34029D03*
X44476Y-31674D03*
X60165Y-34161D03*
X59821Y-31861D03*
X60216Y-46850D03*
X59370Y-44330D03*
X40646Y-34214D03*
X43858Y-43968D03*
X57244Y-28287D03*
X56774Y-43329D03*
X37562Y-22437D03*
X36720Y-20987D03*
X38484Y-23555D03*
X56692Y-29137D03*
X58468Y-20862D03*
X56433Y-20185D03*
X53937Y-20137D03*
X50393Y-20137D03*
X50590Y-20866D03*
X36417Y-20161D03*
X40590Y-20787D03*
X42637Y-20078D03*
X44685Y-22244D03*
X43858Y-20984D03*
X45905Y-20866D03*
X48602Y-20807D03*
X44133Y-34960D03*
X57401Y-43385D03*
X41023Y-49232D03*
X46712Y-33602D03*
X43700Y-34074D03*
X58228Y-33661D03*
X58503Y-42125D03*
X44527Y-30354D03*
X57283Y-35011D03*
X32118Y-20834D03*
X56692Y-33807D03*
X55374Y-35338D03*
X40944Y-43070D03*
X41952Y-41956D03*
X61984Y-43972D03*
X55948Y-43618D03*
X60039Y-41956D03*
X61649Y-42094D03*
X61653Y-34074D03*
X60169Y-33712D03*
X62204Y-32948D03*
X52381Y-32381D03*
X56161Y-31653D03*
X57838Y-31964D03*
X51933Y-20196D03*
X39830Y-29767D03*
X44921Y-33385D03*
X43582Y-42047D03*
X47125Y-42165D03*
X43897Y-50236D03*
X41811Y-33602D03*
X42637Y-35275D03*
X45295Y-42657D03*
X45039Y-45118D03*
X45905Y-46968D03*
X40511Y-43463D03*
X44562Y-44696D03*
X38668Y-20136D03*
X56249Y-46109D03*
X51622Y-36637D03*
X53945Y-18816D03*
X56567Y-44255D03*
X57052Y-46919D03*
X45843Y-34592D03*
X46732Y-36809D03*
X55720Y-40747D03*
X57264Y-42794D03*
X56905Y-34228D03*
X57657Y-36705D03*
X43464Y-32992D03*
X44447Y-35299D03*
X44434Y-43891D03*
X58955Y-29096D03*
X55893Y-22858D03*
X55657Y-20807D03*
X57948Y-46978D03*
X58574Y-43254D03*
X43117Y-35371D03*
X41775Y-33019D03*
X43177Y-43531D03*
X39062Y-38909D03*
X58109Y-35307D03*
X58187Y-28443D03*
X55123Y-19995D03*
X55500Y-22574D03*
X58075Y-43483D03*
X57922Y-46036D03*
X44724Y-32322D03*
X42751Y-44816D03*
X46496Y-43523D03*
X59678Y-30668D03*
X61056Y-35498D03*
X62052Y-42480D03*
X59693Y-46862D03*
X41505Y-35323D03*
X43279Y-44398D03*
X57708Y-28381D03*
X56166Y-35350D03*
X56839Y-41937D03*
X54925Y-18882D03*
X54231Y-27022D03*
G54D10*
G36*
X70541Y-55088D02*
X70440Y-55592D01*
X70171Y-55996D01*
X70171Y-54943D01*
X70171Y-18723D01*
X70037Y-18400D01*
X69790Y-18152D01*
X69466Y-18018D01*
X69116Y-18017D01*
X68793Y-18151D01*
X68545Y-18398D01*
X68411Y-18722D01*
X68410Y-19072D01*
X68544Y-19395D01*
X68791Y-19643D01*
X69115Y-19777D01*
X69465Y-19778D01*
X69788Y-19644D01*
X70036Y-19397D01*
X70170Y-19073D01*
X70171Y-18723D01*
X70171Y-54943D01*
X70037Y-54620D01*
X69790Y-54372D01*
X69466Y-54238D01*
X69116Y-54237D01*
X69019Y-54277D01*
X69019Y-50914D01*
X69019Y-40914D01*
X69019Y-36269D01*
X69019Y-26269D01*
X68867Y-25901D01*
X68586Y-25620D01*
X68219Y-25467D01*
X67821Y-25467D01*
X67453Y-25619D01*
X67172Y-25900D01*
X67019Y-26267D01*
X67019Y-26665D01*
X67171Y-27033D01*
X67452Y-27314D01*
X67819Y-27467D01*
X68217Y-27467D01*
X68585Y-27315D01*
X68866Y-27034D01*
X69019Y-26667D01*
X69019Y-26269D01*
X69019Y-36269D01*
X68867Y-35901D01*
X68586Y-35620D01*
X68569Y-35612D01*
X68569Y-32958D01*
X68486Y-32756D01*
X68331Y-32601D01*
X68129Y-32517D01*
X68128Y-32517D01*
X68330Y-32433D01*
X68485Y-32279D01*
X68569Y-32077D01*
X68569Y-31858D01*
X68486Y-31656D01*
X68331Y-31501D01*
X68189Y-31442D01*
X68330Y-31383D01*
X68485Y-31229D01*
X68569Y-31027D01*
X68569Y-30808D01*
X68486Y-30606D01*
X68331Y-30451D01*
X68129Y-30367D01*
X68128Y-30367D01*
X68330Y-30283D01*
X68485Y-30129D01*
X68569Y-29927D01*
X68569Y-29708D01*
X68486Y-29506D01*
X68331Y-29351D01*
X68129Y-29267D01*
X67910Y-29267D01*
X67708Y-29350D01*
X67574Y-29484D01*
X67574Y-29349D01*
X67563Y-29130D01*
X67500Y-28979D01*
X67405Y-28952D01*
X67334Y-29022D01*
X67334Y-28881D01*
X67307Y-28786D01*
X67101Y-28712D01*
X66882Y-28723D01*
X66731Y-28786D01*
X66704Y-28881D01*
X67019Y-29196D01*
X67334Y-28881D01*
X67334Y-29022D01*
X67090Y-29267D01*
X67405Y-29582D01*
X67500Y-29555D01*
X67574Y-29349D01*
X67574Y-29484D01*
X67553Y-29505D01*
X67469Y-29707D01*
X67469Y-29926D01*
X67553Y-30128D01*
X67707Y-30283D01*
X67909Y-30367D01*
X68128Y-30367D01*
X67910Y-30367D01*
X67708Y-30450D01*
X67553Y-30605D01*
X67469Y-30807D01*
X67469Y-31026D01*
X67553Y-31228D01*
X67707Y-31383D01*
X67849Y-31442D01*
X67708Y-31500D01*
X67553Y-31655D01*
X67469Y-31857D01*
X67469Y-32076D01*
X67553Y-32278D01*
X67707Y-32433D01*
X67909Y-32517D01*
X68128Y-32517D01*
X67910Y-32517D01*
X67708Y-32600D01*
X67553Y-32755D01*
X67469Y-32957D01*
X67469Y-33113D01*
X67461Y-33105D01*
X67369Y-33067D01*
X67270Y-33067D01*
X67128Y-33067D01*
X67330Y-32983D01*
X67485Y-32829D01*
X67569Y-32627D01*
X67569Y-32408D01*
X67486Y-32206D01*
X67331Y-32051D01*
X67129Y-31967D01*
X67128Y-31967D01*
X67330Y-31883D01*
X67485Y-31729D01*
X67569Y-31527D01*
X67569Y-31308D01*
X67486Y-31106D01*
X67331Y-30951D01*
X67189Y-30892D01*
X67330Y-30833D01*
X67485Y-30679D01*
X67569Y-30477D01*
X67569Y-30258D01*
X67486Y-30056D01*
X67331Y-29901D01*
X67129Y-29817D01*
X67033Y-29817D01*
X67156Y-29811D01*
X67307Y-29748D01*
X67334Y-29653D01*
X67019Y-29338D01*
X66948Y-29408D01*
X66948Y-29267D01*
X66633Y-28952D01*
X66538Y-28979D01*
X66464Y-29185D01*
X66475Y-29404D01*
X66538Y-29555D01*
X66633Y-29582D01*
X66948Y-29267D01*
X66948Y-29408D01*
X66704Y-29653D01*
X66731Y-29748D01*
X66924Y-29817D01*
X66910Y-29817D01*
X66708Y-29900D01*
X66553Y-30055D01*
X66469Y-30257D01*
X66469Y-30476D01*
X66553Y-30678D01*
X66707Y-30833D01*
X66849Y-30892D01*
X66708Y-30950D01*
X66553Y-31105D01*
X66469Y-31307D01*
X66469Y-31526D01*
X66553Y-31728D01*
X66707Y-31883D01*
X66909Y-31967D01*
X67128Y-31967D01*
X66910Y-31967D01*
X66708Y-32050D01*
X66553Y-32205D01*
X66469Y-32407D01*
X66469Y-32626D01*
X66553Y-32828D01*
X66707Y-32983D01*
X66909Y-33067D01*
X66970Y-33067D01*
X66670Y-33067D01*
X66578Y-33105D01*
X66507Y-33175D01*
X66469Y-33267D01*
X66469Y-33366D01*
X66469Y-33966D01*
X66507Y-34058D01*
X66577Y-34129D01*
X66669Y-34167D01*
X66769Y-34167D01*
X67369Y-34167D01*
X67461Y-34129D01*
X67531Y-34059D01*
X67569Y-33967D01*
X67569Y-33867D01*
X67569Y-33395D01*
X67707Y-33533D01*
X67909Y-33617D01*
X68128Y-33617D01*
X68330Y-33533D01*
X68485Y-33379D01*
X68569Y-33177D01*
X68569Y-32958D01*
X68569Y-35612D01*
X68219Y-35467D01*
X67821Y-35467D01*
X67453Y-35619D01*
X67172Y-35900D01*
X67019Y-36267D01*
X67019Y-36665D01*
X67171Y-37033D01*
X67452Y-37314D01*
X67819Y-37467D01*
X68217Y-37467D01*
X68585Y-37315D01*
X68866Y-37034D01*
X69019Y-36667D01*
X69019Y-36269D01*
X69019Y-40914D01*
X68867Y-40547D01*
X68586Y-40265D01*
X68219Y-40113D01*
X67821Y-40112D01*
X67453Y-40264D01*
X67172Y-40545D01*
X67019Y-40913D01*
X67019Y-41311D01*
X67171Y-41678D01*
X67452Y-41960D01*
X67819Y-42112D01*
X68217Y-42113D01*
X68585Y-41961D01*
X68866Y-41680D01*
X69019Y-41312D01*
X69019Y-40914D01*
X69019Y-50914D01*
X68867Y-50547D01*
X68586Y-50265D01*
X68569Y-50258D01*
X68569Y-47604D01*
X68486Y-47401D01*
X68331Y-47246D01*
X68129Y-47163D01*
X68128Y-47163D01*
X68330Y-47079D01*
X68485Y-46924D01*
X68569Y-46722D01*
X68569Y-46504D01*
X68486Y-46301D01*
X68331Y-46146D01*
X68189Y-46087D01*
X68330Y-46029D01*
X68485Y-45874D01*
X68569Y-45672D01*
X68569Y-45454D01*
X68486Y-45251D01*
X68331Y-45096D01*
X68129Y-45013D01*
X68128Y-45013D01*
X68330Y-44929D01*
X68485Y-44774D01*
X68569Y-44572D01*
X68569Y-44354D01*
X68486Y-44151D01*
X68331Y-43996D01*
X68129Y-43913D01*
X67910Y-43912D01*
X67708Y-43996D01*
X67569Y-44135D01*
X67569Y-43563D01*
X67531Y-43471D01*
X67461Y-43401D01*
X67369Y-43363D01*
X67270Y-43362D01*
X66670Y-43362D01*
X66578Y-43400D01*
X66507Y-43471D01*
X66469Y-43563D01*
X66469Y-43662D01*
X66469Y-44262D01*
X66507Y-44354D01*
X66577Y-44424D01*
X66669Y-44462D01*
X66769Y-44463D01*
X66910Y-44463D01*
X66708Y-44546D01*
X66553Y-44701D01*
X66469Y-44903D01*
X66469Y-45121D01*
X66553Y-45324D01*
X66707Y-45478D01*
X66849Y-45538D01*
X66708Y-45596D01*
X66553Y-45751D01*
X66469Y-45953D01*
X66469Y-46171D01*
X66553Y-46374D01*
X66707Y-46528D01*
X66909Y-46612D01*
X67128Y-46613D01*
X66910Y-46612D01*
X66708Y-46696D01*
X66553Y-46851D01*
X66469Y-47053D01*
X66469Y-47271D01*
X66553Y-47474D01*
X66707Y-47628D01*
X66909Y-47712D01*
X67006Y-47712D01*
X66882Y-47719D01*
X66731Y-47781D01*
X66704Y-47877D01*
X67019Y-48192D01*
X67334Y-47877D01*
X67307Y-47781D01*
X67115Y-47713D01*
X67128Y-47713D01*
X67330Y-47629D01*
X67485Y-47474D01*
X67569Y-47272D01*
X67569Y-47054D01*
X67486Y-46851D01*
X67331Y-46696D01*
X67129Y-46613D01*
X67128Y-46613D01*
X67330Y-46529D01*
X67485Y-46374D01*
X67569Y-46172D01*
X67569Y-45954D01*
X67486Y-45751D01*
X67331Y-45596D01*
X67189Y-45537D01*
X67330Y-45479D01*
X67485Y-45324D01*
X67569Y-45122D01*
X67569Y-44904D01*
X67486Y-44701D01*
X67331Y-44546D01*
X67129Y-44463D01*
X67069Y-44463D01*
X67369Y-44463D01*
X67461Y-44425D01*
X67469Y-44416D01*
X67469Y-44571D01*
X67553Y-44774D01*
X67707Y-44928D01*
X67909Y-45012D01*
X68128Y-45013D01*
X67910Y-45012D01*
X67708Y-45096D01*
X67553Y-45251D01*
X67469Y-45453D01*
X67469Y-45671D01*
X67553Y-45874D01*
X67707Y-46028D01*
X67849Y-46088D01*
X67708Y-46146D01*
X67553Y-46301D01*
X67469Y-46503D01*
X67469Y-46721D01*
X67553Y-46924D01*
X67707Y-47078D01*
X67909Y-47162D01*
X68128Y-47163D01*
X67910Y-47162D01*
X67708Y-47246D01*
X67553Y-47401D01*
X67469Y-47603D01*
X67469Y-47821D01*
X67553Y-48024D01*
X67707Y-48178D01*
X67909Y-48262D01*
X68128Y-48263D01*
X68330Y-48179D01*
X68485Y-48024D01*
X68569Y-47822D01*
X68569Y-47604D01*
X68569Y-50258D01*
X68219Y-50113D01*
X67821Y-50112D01*
X67574Y-50214D01*
X67574Y-48344D01*
X67563Y-48126D01*
X67500Y-47975D01*
X67405Y-47947D01*
X67090Y-48262D01*
X67405Y-48578D01*
X67500Y-48550D01*
X67574Y-48344D01*
X67574Y-50214D01*
X67453Y-50264D01*
X67334Y-50383D01*
X67334Y-48648D01*
X67019Y-48333D01*
X66948Y-48404D01*
X66948Y-48262D01*
X66633Y-47947D01*
X66538Y-47975D01*
X66464Y-48181D01*
X66475Y-48399D01*
X66538Y-48550D01*
X66633Y-48578D01*
X66948Y-48262D01*
X66948Y-48404D01*
X66704Y-48648D01*
X66731Y-48744D01*
X66937Y-48817D01*
X67156Y-48806D01*
X67307Y-48744D01*
X67334Y-48648D01*
X67334Y-50383D01*
X67172Y-50545D01*
X67019Y-50913D01*
X67019Y-51311D01*
X67171Y-51678D01*
X67452Y-51960D01*
X67819Y-52112D01*
X68217Y-52113D01*
X68585Y-51961D01*
X68866Y-51680D01*
X69019Y-51312D01*
X69019Y-50914D01*
X69019Y-54277D01*
X68793Y-54371D01*
X68545Y-54618D01*
X68411Y-54942D01*
X68410Y-55292D01*
X68544Y-55615D01*
X68791Y-55863D01*
X69115Y-55997D01*
X69465Y-55998D01*
X69788Y-55864D01*
X70036Y-55617D01*
X70170Y-55293D01*
X70171Y-54943D01*
X70171Y-55996D01*
X70169Y-55998D01*
X69768Y-56266D01*
X69258Y-56368D01*
X63614Y-56368D01*
X63614Y-38774D01*
X63549Y-38617D01*
X63430Y-38498D01*
X63273Y-38433D01*
X63104Y-38433D01*
X62948Y-38497D01*
X62866Y-38580D01*
X62866Y-30781D01*
X62801Y-30625D01*
X62682Y-30506D01*
X62525Y-30441D01*
X62356Y-30441D01*
X62200Y-30505D01*
X62080Y-30625D01*
X62016Y-30781D01*
X62015Y-30950D01*
X62080Y-31106D01*
X62199Y-31226D01*
X62356Y-31291D01*
X62525Y-31291D01*
X62681Y-31226D01*
X62801Y-31107D01*
X62865Y-30951D01*
X62866Y-30781D01*
X62866Y-38580D01*
X62828Y-38617D01*
X62764Y-38773D01*
X62763Y-38942D01*
X62828Y-39098D01*
X62947Y-39218D01*
X63104Y-39283D01*
X63273Y-39283D01*
X63429Y-39218D01*
X63549Y-39099D01*
X63613Y-38943D01*
X63614Y-38774D01*
X63614Y-56368D01*
X62711Y-56368D01*
X62711Y-39170D01*
X62627Y-38968D01*
X62473Y-38813D01*
X62391Y-38779D01*
X62472Y-38746D01*
X62627Y-38591D01*
X62711Y-38389D01*
X62711Y-38170D01*
X62627Y-37968D01*
X62473Y-37813D01*
X62271Y-37729D01*
X62052Y-37729D01*
X61850Y-37812D01*
X61695Y-37967D01*
X61661Y-38049D01*
X61627Y-37968D01*
X61481Y-37822D01*
X61481Y-35414D01*
X61417Y-35258D01*
X61297Y-35138D01*
X61141Y-35073D01*
X60972Y-35073D01*
X60816Y-35138D01*
X60696Y-35257D01*
X60631Y-35413D01*
X60631Y-35582D01*
X60696Y-35739D01*
X60815Y-35858D01*
X60971Y-35923D01*
X61141Y-35923D01*
X61297Y-35859D01*
X61416Y-35739D01*
X61481Y-35583D01*
X61481Y-35414D01*
X61481Y-37822D01*
X61473Y-37813D01*
X61271Y-37729D01*
X61052Y-37729D01*
X60850Y-37812D01*
X60695Y-37967D01*
X60661Y-38049D01*
X60627Y-37968D01*
X60590Y-37930D01*
X60590Y-34077D01*
X60525Y-33920D01*
X60406Y-33801D01*
X60250Y-33736D01*
X60246Y-33736D01*
X60246Y-31777D01*
X60181Y-31621D01*
X60103Y-31543D01*
X60103Y-30584D01*
X60039Y-30427D01*
X59919Y-30308D01*
X59763Y-30243D01*
X59594Y-30243D01*
X59506Y-30279D01*
X59506Y-21434D01*
X59437Y-21268D01*
X59311Y-21141D01*
X59145Y-21072D01*
X58966Y-21072D01*
X58800Y-21140D01*
X58673Y-21267D01*
X58604Y-21433D01*
X58604Y-21612D01*
X58672Y-21778D01*
X58799Y-21905D01*
X58965Y-21974D01*
X59144Y-21974D01*
X59310Y-21906D01*
X59437Y-21779D01*
X59506Y-21613D01*
X59506Y-21434D01*
X59506Y-30279D01*
X59438Y-30307D01*
X59380Y-30365D01*
X59380Y-29011D01*
X59316Y-28855D01*
X59196Y-28735D01*
X59040Y-28671D01*
X58871Y-28670D01*
X58715Y-28735D01*
X58612Y-28838D01*
X58612Y-28359D01*
X58548Y-28202D01*
X58428Y-28083D01*
X58272Y-28018D01*
X58103Y-28018D01*
X57992Y-28064D01*
X57949Y-28021D01*
X57793Y-27956D01*
X57624Y-27956D01*
X57546Y-27988D01*
X57485Y-27927D01*
X57329Y-27862D01*
X57159Y-27862D01*
X57003Y-27926D01*
X56884Y-28046D01*
X56819Y-28202D01*
X56819Y-28371D01*
X56846Y-28438D01*
X56773Y-28510D01*
X56708Y-28667D01*
X56708Y-28712D01*
X56608Y-28712D01*
X56452Y-28777D01*
X56332Y-28896D01*
X56318Y-28930D01*
X56318Y-22774D01*
X56254Y-22617D01*
X56196Y-22560D01*
X56196Y-19974D01*
X56132Y-19818D01*
X56012Y-19698D01*
X55856Y-19634D01*
X55687Y-19633D01*
X55531Y-19698D01*
X55479Y-19750D01*
X55364Y-19635D01*
X55350Y-19629D01*
X55350Y-18798D01*
X55285Y-18641D01*
X55166Y-18522D01*
X55010Y-18457D01*
X54841Y-18457D01*
X54685Y-18521D01*
X54565Y-18641D01*
X54500Y-18797D01*
X54500Y-18966D01*
X54564Y-19122D01*
X54684Y-19242D01*
X54840Y-19307D01*
X55009Y-19307D01*
X55165Y-19242D01*
X55285Y-19123D01*
X55350Y-18967D01*
X55350Y-18798D01*
X55350Y-19629D01*
X55208Y-19570D01*
X55039Y-19570D01*
X54882Y-19634D01*
X54763Y-19753D01*
X54760Y-19750D01*
X54604Y-19685D01*
X54435Y-19685D01*
X54370Y-19712D01*
X54370Y-18732D01*
X54305Y-18576D01*
X54186Y-18456D01*
X54030Y-18391D01*
X53861Y-18391D01*
X53704Y-18456D01*
X53585Y-18575D01*
X53520Y-18731D01*
X53520Y-18900D01*
X53584Y-19057D01*
X53704Y-19176D01*
X53860Y-19241D01*
X54029Y-19241D01*
X54185Y-19177D01*
X54305Y-19057D01*
X54370Y-18901D01*
X54370Y-18732D01*
X54370Y-19712D01*
X54279Y-19749D01*
X54159Y-19869D01*
X54094Y-20025D01*
X54094Y-20194D01*
X54159Y-20350D01*
X54278Y-20470D01*
X54434Y-20535D01*
X54603Y-20535D01*
X54760Y-20470D01*
X54878Y-20352D01*
X54882Y-20355D01*
X55038Y-20420D01*
X55207Y-20420D01*
X55363Y-20355D01*
X55415Y-20303D01*
X55516Y-20405D01*
X55417Y-20446D01*
X55297Y-20566D01*
X55232Y-20722D01*
X55232Y-20891D01*
X55296Y-21047D01*
X55416Y-21167D01*
X55572Y-21232D01*
X55741Y-21232D01*
X55897Y-21167D01*
X56017Y-21048D01*
X56082Y-20891D01*
X56082Y-20722D01*
X56017Y-20566D01*
X55912Y-20460D01*
X56012Y-20419D01*
X56131Y-20300D01*
X56196Y-20143D01*
X56196Y-19974D01*
X56196Y-22560D01*
X56134Y-22498D01*
X55978Y-22433D01*
X55901Y-22433D01*
X55860Y-22334D01*
X55741Y-22214D01*
X55584Y-22149D01*
X55415Y-22149D01*
X55259Y-22214D01*
X55139Y-22333D01*
X55075Y-22489D01*
X55074Y-22658D01*
X55139Y-22815D01*
X55258Y-22934D01*
X55415Y-22999D01*
X55492Y-22999D01*
X55533Y-23098D01*
X55652Y-23218D01*
X55808Y-23283D01*
X55977Y-23283D01*
X56134Y-23218D01*
X56253Y-23099D01*
X56318Y-22943D01*
X56318Y-22774D01*
X56318Y-28930D01*
X56267Y-29052D01*
X56267Y-29221D01*
X56332Y-29378D01*
X56451Y-29497D01*
X56608Y-29562D01*
X56777Y-29562D01*
X56933Y-29498D01*
X57053Y-29378D01*
X57117Y-29222D01*
X57117Y-29176D01*
X57218Y-29177D01*
X57374Y-29112D01*
X57493Y-28993D01*
X57558Y-28836D01*
X57558Y-28779D01*
X57623Y-28806D01*
X57792Y-28806D01*
X57904Y-28760D01*
X57946Y-28803D01*
X58102Y-28868D01*
X58271Y-28868D01*
X58427Y-28803D01*
X58547Y-28684D01*
X58612Y-28528D01*
X58612Y-28359D01*
X58612Y-28838D01*
X58595Y-28855D01*
X58530Y-29011D01*
X58530Y-29180D01*
X58595Y-29336D01*
X58714Y-29456D01*
X58870Y-29520D01*
X59039Y-29521D01*
X59196Y-29456D01*
X59315Y-29337D01*
X59380Y-29180D01*
X59380Y-29011D01*
X59380Y-30365D01*
X59318Y-30427D01*
X59253Y-30583D01*
X59253Y-30752D01*
X59318Y-30908D01*
X59437Y-31028D01*
X59593Y-31093D01*
X59762Y-31093D01*
X59919Y-31028D01*
X60038Y-30909D01*
X60103Y-30753D01*
X60103Y-30584D01*
X60103Y-31543D01*
X60062Y-31501D01*
X59906Y-31437D01*
X59736Y-31436D01*
X59580Y-31501D01*
X59461Y-31620D01*
X59396Y-31777D01*
X59396Y-31946D01*
X59460Y-32102D01*
X59580Y-32222D01*
X59736Y-32286D01*
X59905Y-32287D01*
X60061Y-32222D01*
X60181Y-32102D01*
X60246Y-31946D01*
X60246Y-31777D01*
X60246Y-33736D01*
X60081Y-33736D01*
X59924Y-33800D01*
X59805Y-33920D01*
X59740Y-34076D01*
X59740Y-34245D01*
X59804Y-34401D01*
X59924Y-34521D01*
X60080Y-34586D01*
X60249Y-34586D01*
X60405Y-34521D01*
X60525Y-34402D01*
X60590Y-34246D01*
X60590Y-34077D01*
X60590Y-37930D01*
X60473Y-37813D01*
X60271Y-37729D01*
X60052Y-37729D01*
X59850Y-37812D01*
X59695Y-37967D01*
X59661Y-38049D01*
X59627Y-37968D01*
X59473Y-37813D01*
X59271Y-37729D01*
X59052Y-37729D01*
X58850Y-37812D01*
X58695Y-37967D01*
X58661Y-38049D01*
X58627Y-37968D01*
X58534Y-37874D01*
X58534Y-35223D01*
X58469Y-35066D01*
X58350Y-34947D01*
X58194Y-34882D01*
X58041Y-34882D01*
X58041Y-30030D01*
X57976Y-29874D01*
X57893Y-29791D01*
X57920Y-29727D01*
X57920Y-29558D01*
X57855Y-29402D01*
X57736Y-29282D01*
X57580Y-29217D01*
X57411Y-29217D01*
X57254Y-29282D01*
X57135Y-29401D01*
X57070Y-29557D01*
X57070Y-29726D01*
X57134Y-29882D01*
X57217Y-29966D01*
X57191Y-30030D01*
X57191Y-30199D01*
X57255Y-30355D01*
X57375Y-30475D01*
X57531Y-30539D01*
X57700Y-30539D01*
X57856Y-30475D01*
X57976Y-30355D01*
X58041Y-30199D01*
X58041Y-30030D01*
X58041Y-34882D01*
X58025Y-34882D01*
X57868Y-34946D01*
X57749Y-35066D01*
X57684Y-35222D01*
X57684Y-35391D01*
X57748Y-35547D01*
X57868Y-35667D01*
X58024Y-35732D01*
X58193Y-35732D01*
X58349Y-35667D01*
X58469Y-35548D01*
X58534Y-35392D01*
X58534Y-35223D01*
X58534Y-37874D01*
X58473Y-37813D01*
X58271Y-37729D01*
X58082Y-37729D01*
X58082Y-36620D01*
X58017Y-36464D01*
X57898Y-36345D01*
X57742Y-36280D01*
X57573Y-36280D01*
X57417Y-36344D01*
X57330Y-36430D01*
X57330Y-34144D01*
X57266Y-33987D01*
X57146Y-33868D01*
X56990Y-33803D01*
X56821Y-33803D01*
X56665Y-33867D01*
X56545Y-33987D01*
X56480Y-34143D01*
X56480Y-34312D01*
X56545Y-34468D01*
X56664Y-34588D01*
X56820Y-34653D01*
X56989Y-34653D01*
X57145Y-34588D01*
X57265Y-34469D01*
X57330Y-34313D01*
X57330Y-34144D01*
X57330Y-36430D01*
X57297Y-36464D01*
X57232Y-36620D01*
X57232Y-36789D01*
X57296Y-36945D01*
X57416Y-37065D01*
X57572Y-37130D01*
X57741Y-37130D01*
X57897Y-37065D01*
X58017Y-36946D01*
X58082Y-36790D01*
X58082Y-36620D01*
X58082Y-37729D01*
X58052Y-37729D01*
X57850Y-37812D01*
X57695Y-37967D01*
X57661Y-38049D01*
X57627Y-37968D01*
X57473Y-37813D01*
X57271Y-37729D01*
X57052Y-37729D01*
X56850Y-37812D01*
X56695Y-37967D01*
X56661Y-38049D01*
X56627Y-37968D01*
X56591Y-37931D01*
X56591Y-35266D01*
X56527Y-35110D01*
X56407Y-34990D01*
X56251Y-34925D01*
X56082Y-34925D01*
X55926Y-34990D01*
X55806Y-35109D01*
X55741Y-35265D01*
X55741Y-35434D01*
X55805Y-35590D01*
X55925Y-35710D01*
X56081Y-35775D01*
X56250Y-35775D01*
X56406Y-35711D01*
X56526Y-35591D01*
X56591Y-35435D01*
X56591Y-35266D01*
X56591Y-37931D01*
X56473Y-37813D01*
X56271Y-37729D01*
X56052Y-37729D01*
X55850Y-37812D01*
X55695Y-37967D01*
X55661Y-38049D01*
X55627Y-37968D01*
X55501Y-37841D01*
X55501Y-33134D01*
X55436Y-32978D01*
X55317Y-32859D01*
X55172Y-32798D01*
X55172Y-31530D01*
X55172Y-30930D01*
X55134Y-30838D01*
X55132Y-30836D01*
X55132Y-28530D01*
X55132Y-27930D01*
X55094Y-27838D01*
X55024Y-27767D01*
X54932Y-27729D01*
X54833Y-27729D01*
X54233Y-27729D01*
X54141Y-27767D01*
X54070Y-27837D01*
X54032Y-27929D01*
X54032Y-27951D01*
X53894Y-27813D01*
X53692Y-27729D01*
X53671Y-27729D01*
X53783Y-27683D01*
X53903Y-27563D01*
X53968Y-27407D01*
X53968Y-27360D01*
X53990Y-27382D01*
X54146Y-27447D01*
X54315Y-27447D01*
X54471Y-27383D01*
X54591Y-27263D01*
X54656Y-27107D01*
X54656Y-26938D01*
X54591Y-26782D01*
X54472Y-26662D01*
X54316Y-26597D01*
X54147Y-26597D01*
X53990Y-26662D01*
X53897Y-26755D01*
X53897Y-20033D01*
X53832Y-19877D01*
X53713Y-19758D01*
X53557Y-19693D01*
X53388Y-19693D01*
X53232Y-19757D01*
X53112Y-19877D01*
X53047Y-20033D01*
X53047Y-20202D01*
X53111Y-20358D01*
X53231Y-20478D01*
X53387Y-20543D01*
X53556Y-20543D01*
X53712Y-20478D01*
X53832Y-20359D01*
X53897Y-20203D01*
X53897Y-20033D01*
X53897Y-26755D01*
X53871Y-26781D01*
X53806Y-26937D01*
X53806Y-26984D01*
X53784Y-26962D01*
X53628Y-26897D01*
X53586Y-26897D01*
X53586Y-22092D01*
X53521Y-21936D01*
X53402Y-21817D01*
X53246Y-21752D01*
X53077Y-21752D01*
X52920Y-21816D01*
X52801Y-21936D01*
X52736Y-22092D01*
X52736Y-22261D01*
X52800Y-22417D01*
X52920Y-22537D01*
X53076Y-22602D01*
X53245Y-22602D01*
X53401Y-22537D01*
X53521Y-22418D01*
X53586Y-22262D01*
X53586Y-22092D01*
X53586Y-26897D01*
X53459Y-26897D01*
X53302Y-26962D01*
X53183Y-27081D01*
X53118Y-27237D01*
X53118Y-27407D01*
X53182Y-27563D01*
X53302Y-27682D01*
X53443Y-27741D01*
X53271Y-27812D01*
X53116Y-27967D01*
X53085Y-28043D01*
X53063Y-27991D01*
X52968Y-27964D01*
X52897Y-28035D01*
X52897Y-27893D01*
X52870Y-27798D01*
X52664Y-27724D01*
X52445Y-27735D01*
X52294Y-27798D01*
X52267Y-27893D01*
X52582Y-28208D01*
X52897Y-27893D01*
X52897Y-28035D01*
X52653Y-28279D01*
X52968Y-28594D01*
X53063Y-28567D01*
X53083Y-28512D01*
X53116Y-28590D01*
X53270Y-28745D01*
X53472Y-28829D01*
X53691Y-28829D01*
X53893Y-28746D01*
X54032Y-28607D01*
X54032Y-28629D01*
X54070Y-28720D01*
X54140Y-28791D01*
X54232Y-28829D01*
X54332Y-28829D01*
X54932Y-28829D01*
X55024Y-28791D01*
X55094Y-28721D01*
X55132Y-28629D01*
X55132Y-28530D01*
X55132Y-30836D01*
X55063Y-30767D01*
X54971Y-30729D01*
X54872Y-30729D01*
X54272Y-30729D01*
X54180Y-30767D01*
X54110Y-30837D01*
X54072Y-30929D01*
X54072Y-30951D01*
X53934Y-30813D01*
X53731Y-30729D01*
X53513Y-30729D01*
X53310Y-30812D01*
X53156Y-30967D01*
X53124Y-31043D01*
X53103Y-30991D01*
X53007Y-30964D01*
X52937Y-31035D01*
X52937Y-30893D01*
X52909Y-30798D01*
X52897Y-30793D01*
X52897Y-28665D01*
X52582Y-28350D01*
X52511Y-28420D01*
X52511Y-28279D01*
X52196Y-27964D01*
X52101Y-27991D01*
X52027Y-28197D01*
X52038Y-28416D01*
X52101Y-28567D01*
X52196Y-28594D01*
X52511Y-28279D01*
X52511Y-28420D01*
X52267Y-28665D01*
X52294Y-28760D01*
X52500Y-28834D01*
X52719Y-28823D01*
X52870Y-28760D01*
X52897Y-28665D01*
X52897Y-30793D01*
X52703Y-30724D01*
X52485Y-30735D01*
X52334Y-30798D01*
X52306Y-30893D01*
X52622Y-31208D01*
X52937Y-30893D01*
X52937Y-31035D01*
X52692Y-31279D01*
X53007Y-31594D01*
X53103Y-31567D01*
X53123Y-31512D01*
X53155Y-31590D01*
X53310Y-31745D01*
X53512Y-31829D01*
X53730Y-31829D01*
X53933Y-31746D01*
X54072Y-31607D01*
X54072Y-31629D01*
X54109Y-31720D01*
X54180Y-31791D01*
X54272Y-31829D01*
X54371Y-31829D01*
X54971Y-31829D01*
X55063Y-31791D01*
X55133Y-31721D01*
X55172Y-31629D01*
X55172Y-31530D01*
X55172Y-32798D01*
X55160Y-32794D01*
X54991Y-32794D01*
X54835Y-32858D01*
X54715Y-32978D01*
X54651Y-33134D01*
X54650Y-33303D01*
X54715Y-33459D01*
X54834Y-33579D01*
X54991Y-33644D01*
X55160Y-33644D01*
X55316Y-33579D01*
X55436Y-33460D01*
X55500Y-33304D01*
X55501Y-33134D01*
X55501Y-37841D01*
X55473Y-37813D01*
X55271Y-37729D01*
X55052Y-37729D01*
X54850Y-37812D01*
X54695Y-37967D01*
X54611Y-38169D01*
X54611Y-38388D01*
X54694Y-38590D01*
X54833Y-38729D01*
X54811Y-38729D01*
X54719Y-38767D01*
X54649Y-38837D01*
X54611Y-38929D01*
X54611Y-39029D01*
X54611Y-39629D01*
X54649Y-39720D01*
X54719Y-39791D01*
X54811Y-39829D01*
X54910Y-39829D01*
X55510Y-39829D01*
X55602Y-39791D01*
X55673Y-39721D01*
X55711Y-39629D01*
X55711Y-39607D01*
X55849Y-39745D01*
X56051Y-39829D01*
X56270Y-39829D01*
X56472Y-39746D01*
X56627Y-39591D01*
X56661Y-39509D01*
X56694Y-39590D01*
X56849Y-39745D01*
X57051Y-39829D01*
X57270Y-39829D01*
X57472Y-39746D01*
X57627Y-39591D01*
X57661Y-39509D01*
X57694Y-39590D01*
X57849Y-39745D01*
X58051Y-39829D01*
X58270Y-39829D01*
X58472Y-39746D01*
X58627Y-39591D01*
X58661Y-39509D01*
X58694Y-39590D01*
X58849Y-39745D01*
X59051Y-39829D01*
X59270Y-39829D01*
X59472Y-39746D01*
X59627Y-39591D01*
X59661Y-39509D01*
X59694Y-39590D01*
X59849Y-39745D01*
X60051Y-39829D01*
X60270Y-39829D01*
X60472Y-39746D01*
X60627Y-39591D01*
X60661Y-39509D01*
X60694Y-39590D01*
X60849Y-39745D01*
X61051Y-39829D01*
X61270Y-39829D01*
X61472Y-39746D01*
X61627Y-39591D01*
X61661Y-39509D01*
X61694Y-39590D01*
X61849Y-39745D01*
X62051Y-39829D01*
X62270Y-39829D01*
X62472Y-39746D01*
X62627Y-39591D01*
X62711Y-39389D01*
X62711Y-39170D01*
X62711Y-56368D01*
X62477Y-56368D01*
X62477Y-42396D01*
X62412Y-42240D01*
X62293Y-42120D01*
X62136Y-42055D01*
X61967Y-42055D01*
X61811Y-42120D01*
X61691Y-42239D01*
X61627Y-42395D01*
X61627Y-42565D01*
X61691Y-42721D01*
X61811Y-42840D01*
X61967Y-42905D01*
X62136Y-42905D01*
X62292Y-42841D01*
X62412Y-42721D01*
X62477Y-42565D01*
X62477Y-42396D01*
X62477Y-56368D01*
X60641Y-56368D01*
X60641Y-46766D01*
X60639Y-46760D01*
X60639Y-44605D01*
X60574Y-44449D01*
X60455Y-44329D01*
X60299Y-44264D01*
X60130Y-44264D01*
X59973Y-44329D01*
X59854Y-44448D01*
X59795Y-44590D01*
X59795Y-44246D01*
X59730Y-44090D01*
X59611Y-43970D01*
X59454Y-43905D01*
X59285Y-43905D01*
X59283Y-43906D01*
X59283Y-42514D01*
X59218Y-42357D01*
X59099Y-42238D01*
X58943Y-42173D01*
X58774Y-42173D01*
X58617Y-42237D01*
X58498Y-42357D01*
X58433Y-42513D01*
X58433Y-42682D01*
X58493Y-42829D01*
X58490Y-42829D01*
X58334Y-42893D01*
X58214Y-43013D01*
X58190Y-43071D01*
X58160Y-43058D01*
X57991Y-43058D01*
X57835Y-43123D01*
X57715Y-43242D01*
X57689Y-43305D01*
X57689Y-42710D01*
X57624Y-42553D01*
X57505Y-42434D01*
X57349Y-42369D01*
X57264Y-42369D01*
X57264Y-41853D01*
X57200Y-41697D01*
X57080Y-41577D01*
X56924Y-41513D01*
X56755Y-41512D01*
X56599Y-41577D01*
X56479Y-41696D01*
X56414Y-41853D01*
X56414Y-42022D01*
X56479Y-42178D01*
X56598Y-42298D01*
X56754Y-42362D01*
X56923Y-42363D01*
X57079Y-42298D01*
X57199Y-42179D01*
X57264Y-42022D01*
X57264Y-41853D01*
X57264Y-42369D01*
X57180Y-42369D01*
X57023Y-42433D01*
X56975Y-42482D01*
X56848Y-42429D01*
X56679Y-42429D01*
X56522Y-42493D01*
X56403Y-42613D01*
X56338Y-42769D01*
X56338Y-42938D01*
X56402Y-43094D01*
X56408Y-43100D01*
X56349Y-43244D01*
X56349Y-43413D01*
X56413Y-43569D01*
X56533Y-43689D01*
X56689Y-43754D01*
X56858Y-43754D01*
X57014Y-43689D01*
X57134Y-43570D01*
X57199Y-43414D01*
X57199Y-43245D01*
X57188Y-43219D01*
X57348Y-43219D01*
X57504Y-43154D01*
X57624Y-43035D01*
X57689Y-42879D01*
X57689Y-42710D01*
X57689Y-43305D01*
X57650Y-43398D01*
X57650Y-43567D01*
X57715Y-43723D01*
X57834Y-43843D01*
X57990Y-43908D01*
X58159Y-43908D01*
X58316Y-43844D01*
X58435Y-43724D01*
X58459Y-43666D01*
X58490Y-43679D01*
X58659Y-43679D01*
X58815Y-43614D01*
X58935Y-43495D01*
X58999Y-43339D01*
X58999Y-43170D01*
X58939Y-43023D01*
X58942Y-43023D01*
X59098Y-42958D01*
X59218Y-42839D01*
X59283Y-42683D01*
X59283Y-42514D01*
X59283Y-43906D01*
X59129Y-43970D01*
X59009Y-44089D01*
X58945Y-44245D01*
X58945Y-44414D01*
X59009Y-44571D01*
X59129Y-44690D01*
X59285Y-44755D01*
X59454Y-44755D01*
X59610Y-44691D01*
X59730Y-44571D01*
X59795Y-44415D01*
X59795Y-44246D01*
X59795Y-44590D01*
X59789Y-44604D01*
X59789Y-44773D01*
X59853Y-44930D01*
X59973Y-45049D01*
X60129Y-45114D01*
X60298Y-45114D01*
X60454Y-45050D01*
X60574Y-44930D01*
X60639Y-44774D01*
X60639Y-44605D01*
X60639Y-46760D01*
X60577Y-46609D01*
X60457Y-46490D01*
X60301Y-46425D01*
X60132Y-46425D01*
X59976Y-46489D01*
X59949Y-46516D01*
X59934Y-46501D01*
X59778Y-46437D01*
X59609Y-46436D01*
X59453Y-46501D01*
X59333Y-46620D01*
X59268Y-46777D01*
X59268Y-46946D01*
X59333Y-47102D01*
X59452Y-47222D01*
X59608Y-47286D01*
X59778Y-47287D01*
X59934Y-47222D01*
X59960Y-47195D01*
X59975Y-47210D01*
X60131Y-47275D01*
X60300Y-47275D01*
X60456Y-47210D01*
X60576Y-47091D01*
X60641Y-46935D01*
X60641Y-46766D01*
X60641Y-56368D01*
X60397Y-56368D01*
X60397Y-50321D01*
X60386Y-50103D01*
X60323Y-49952D01*
X60228Y-49924D01*
X60157Y-49995D01*
X60157Y-49854D01*
X60130Y-49758D01*
X59924Y-49685D01*
X59705Y-49696D01*
X59554Y-49758D01*
X59527Y-49854D01*
X59842Y-50169D01*
X60157Y-49854D01*
X60157Y-49995D01*
X59913Y-50240D01*
X60228Y-50555D01*
X60323Y-50528D01*
X60397Y-50321D01*
X60397Y-56368D01*
X60392Y-56368D01*
X60392Y-51131D01*
X60309Y-50929D01*
X60154Y-50774D01*
X60078Y-50742D01*
X60130Y-50721D01*
X60157Y-50626D01*
X59842Y-50310D01*
X59771Y-50381D01*
X59771Y-50240D01*
X59472Y-49940D01*
X59472Y-48817D01*
X59407Y-48661D01*
X59288Y-48541D01*
X59230Y-48517D01*
X59230Y-46890D01*
X59166Y-46733D01*
X59046Y-46614D01*
X58890Y-46549D01*
X58721Y-46549D01*
X58565Y-46613D01*
X58445Y-46733D01*
X58380Y-46889D01*
X58380Y-47058D01*
X58445Y-47214D01*
X58564Y-47334D01*
X58720Y-47399D01*
X58889Y-47399D01*
X59046Y-47334D01*
X59165Y-47215D01*
X59230Y-47059D01*
X59230Y-46890D01*
X59230Y-48517D01*
X59187Y-48499D01*
X59213Y-48438D01*
X59213Y-48269D01*
X59148Y-48112D01*
X59029Y-47993D01*
X58873Y-47928D01*
X58704Y-47928D01*
X58548Y-47992D01*
X58428Y-48112D01*
X58374Y-48243D01*
X58374Y-46893D01*
X58347Y-46828D01*
X58347Y-45952D01*
X58282Y-45795D01*
X58163Y-45676D01*
X58006Y-45611D01*
X57837Y-45611D01*
X57681Y-45675D01*
X57662Y-45694D01*
X57662Y-44005D01*
X57597Y-43848D01*
X57478Y-43729D01*
X57322Y-43664D01*
X57153Y-43664D01*
X56996Y-43728D01*
X56877Y-43848D01*
X56843Y-43929D01*
X56808Y-43895D01*
X56652Y-43830D01*
X56483Y-43830D01*
X56327Y-43894D01*
X56207Y-44014D01*
X56145Y-44163D01*
X56145Y-40663D01*
X56081Y-40507D01*
X55961Y-40387D01*
X55805Y-40322D01*
X55636Y-40322D01*
X55480Y-40387D01*
X55360Y-40506D01*
X55295Y-40662D01*
X55295Y-40831D01*
X55360Y-40988D01*
X55479Y-41107D01*
X55635Y-41172D01*
X55804Y-41172D01*
X55960Y-41108D01*
X56080Y-40988D01*
X56145Y-40832D01*
X56145Y-40663D01*
X56145Y-44163D01*
X56142Y-44170D01*
X56142Y-44339D01*
X56207Y-44495D01*
X56326Y-44615D01*
X56483Y-44680D01*
X56652Y-44680D01*
X56680Y-44668D01*
X56733Y-44797D01*
X56852Y-44917D01*
X57009Y-44982D01*
X57178Y-44982D01*
X57334Y-44917D01*
X57454Y-44798D01*
X57518Y-44642D01*
X57519Y-44473D01*
X57500Y-44427D01*
X57597Y-44330D01*
X57662Y-44174D01*
X57662Y-44005D01*
X57662Y-45694D01*
X57561Y-45795D01*
X57497Y-45951D01*
X57497Y-46120D01*
X57561Y-46276D01*
X57681Y-46396D01*
X57837Y-46461D01*
X58006Y-46461D01*
X58162Y-46396D01*
X58282Y-46277D01*
X58347Y-46121D01*
X58347Y-45952D01*
X58347Y-46828D01*
X58309Y-46737D01*
X58189Y-46617D01*
X58033Y-46553D01*
X57864Y-46552D01*
X57708Y-46617D01*
X57588Y-46737D01*
X57524Y-46893D01*
X57523Y-47062D01*
X57588Y-47218D01*
X57707Y-47338D01*
X57864Y-47402D01*
X58033Y-47403D01*
X58189Y-47338D01*
X58309Y-47219D01*
X58373Y-47062D01*
X58374Y-46893D01*
X58374Y-48243D01*
X58363Y-48268D01*
X58363Y-48437D01*
X58427Y-48593D01*
X58547Y-48713D01*
X58647Y-48755D01*
X58622Y-48816D01*
X58622Y-48985D01*
X58686Y-49142D01*
X58806Y-49261D01*
X58962Y-49326D01*
X59131Y-49326D01*
X59287Y-49262D01*
X59407Y-49142D01*
X59472Y-48986D01*
X59472Y-48817D01*
X59472Y-49940D01*
X59456Y-49924D01*
X59361Y-49952D01*
X59287Y-50158D01*
X59298Y-50376D01*
X59361Y-50528D01*
X59456Y-50555D01*
X59771Y-50240D01*
X59771Y-50381D01*
X59527Y-50626D01*
X59554Y-50721D01*
X59609Y-50741D01*
X59531Y-50773D01*
X59376Y-50928D01*
X59292Y-51130D01*
X59292Y-51349D01*
X59375Y-51551D01*
X59514Y-51690D01*
X59493Y-51690D01*
X59401Y-51728D01*
X59330Y-51798D01*
X59292Y-51890D01*
X59292Y-51989D01*
X59292Y-52589D01*
X59330Y-52681D01*
X59400Y-52751D01*
X59492Y-52790D01*
X59592Y-52790D01*
X60192Y-52790D01*
X60283Y-52752D01*
X60354Y-52681D01*
X60392Y-52590D01*
X60392Y-52490D01*
X60392Y-51890D01*
X60354Y-51798D01*
X60284Y-51728D01*
X60192Y-51690D01*
X60170Y-51690D01*
X60308Y-51552D01*
X60392Y-51350D01*
X60392Y-51131D01*
X60392Y-56368D01*
X57477Y-56368D01*
X57477Y-46835D01*
X57412Y-46679D01*
X57293Y-46559D01*
X57137Y-46494D01*
X56968Y-46494D01*
X56811Y-46558D01*
X56692Y-46678D01*
X56674Y-46721D01*
X56674Y-46024D01*
X56609Y-45868D01*
X56490Y-45749D01*
X56334Y-45684D01*
X56165Y-45684D01*
X56009Y-45748D01*
X55889Y-45868D01*
X55824Y-46024D01*
X55824Y-46193D01*
X55888Y-46349D01*
X56008Y-46469D01*
X56164Y-46534D01*
X56333Y-46534D01*
X56489Y-46469D01*
X56609Y-46350D01*
X56674Y-46194D01*
X56674Y-46024D01*
X56674Y-46721D01*
X56627Y-46834D01*
X56627Y-47003D01*
X56691Y-47159D01*
X56811Y-47279D01*
X56967Y-47344D01*
X57136Y-47344D01*
X57292Y-47279D01*
X57412Y-47160D01*
X57477Y-47004D01*
X57477Y-46835D01*
X57477Y-56368D01*
X57011Y-56368D01*
X57011Y-50321D01*
X57000Y-50103D01*
X56937Y-49952D01*
X56842Y-49924D01*
X56771Y-49995D01*
X56771Y-49854D01*
X56744Y-49758D01*
X56625Y-49716D01*
X56625Y-48325D01*
X56561Y-48169D01*
X56441Y-48049D01*
X56285Y-47984D01*
X56116Y-47984D01*
X55960Y-48048D01*
X55840Y-48168D01*
X55775Y-48324D01*
X55775Y-48493D01*
X55840Y-48649D01*
X55959Y-48769D01*
X56115Y-48834D01*
X56284Y-48834D01*
X56441Y-48769D01*
X56560Y-48650D01*
X56625Y-48494D01*
X56625Y-48325D01*
X56625Y-49716D01*
X56538Y-49685D01*
X56319Y-49696D01*
X56168Y-49758D01*
X56141Y-49854D01*
X56456Y-50169D01*
X56771Y-49854D01*
X56771Y-49995D01*
X56527Y-50240D01*
X56842Y-50555D01*
X56937Y-50528D01*
X57011Y-50321D01*
X57011Y-56368D01*
X57006Y-56368D01*
X57006Y-51131D01*
X56923Y-50929D01*
X56768Y-50774D01*
X56693Y-50742D01*
X56744Y-50721D01*
X56771Y-50626D01*
X56456Y-50310D01*
X56385Y-50381D01*
X56385Y-50240D01*
X56070Y-49924D01*
X55975Y-49952D01*
X55901Y-50158D01*
X55912Y-50376D01*
X55975Y-50528D01*
X56070Y-50555D01*
X56385Y-50240D01*
X56385Y-50381D01*
X56141Y-50626D01*
X56168Y-50721D01*
X56224Y-50741D01*
X56145Y-50773D01*
X55990Y-50928D01*
X55906Y-51130D01*
X55906Y-51349D01*
X55990Y-51551D01*
X56128Y-51690D01*
X56107Y-51690D01*
X56015Y-51728D01*
X55944Y-51798D01*
X55906Y-51890D01*
X55906Y-51989D01*
X55906Y-52589D01*
X55944Y-52681D01*
X56014Y-52751D01*
X56106Y-52790D01*
X56206Y-52790D01*
X56806Y-52790D01*
X56898Y-52752D01*
X56968Y-52681D01*
X57006Y-52590D01*
X57006Y-52490D01*
X57006Y-51890D01*
X56968Y-51798D01*
X56898Y-51728D01*
X56806Y-51690D01*
X56784Y-51690D01*
X56922Y-51552D01*
X57006Y-51350D01*
X57006Y-51131D01*
X57006Y-56368D01*
X54054Y-56368D01*
X54054Y-51162D01*
X53970Y-50960D01*
X53815Y-50805D01*
X53771Y-50787D01*
X53771Y-39679D01*
X53706Y-39523D01*
X53587Y-39403D01*
X53431Y-39338D01*
X53262Y-39338D01*
X53106Y-39403D01*
X52986Y-39522D01*
X52937Y-39641D01*
X52937Y-31665D01*
X52622Y-31350D01*
X52551Y-31420D01*
X52551Y-31279D01*
X52236Y-30964D01*
X52140Y-30991D01*
X52067Y-31197D01*
X52078Y-31416D01*
X52140Y-31567D01*
X52236Y-31594D01*
X52551Y-31279D01*
X52551Y-31420D01*
X52306Y-31665D01*
X52334Y-31760D01*
X52540Y-31834D01*
X52758Y-31823D01*
X52909Y-31760D01*
X52937Y-31665D01*
X52937Y-39641D01*
X52921Y-39678D01*
X52921Y-39847D01*
X52985Y-40004D01*
X53105Y-40123D01*
X53261Y-40188D01*
X53430Y-40188D01*
X53586Y-40124D01*
X53706Y-40004D01*
X53771Y-39848D01*
X53771Y-39679D01*
X53771Y-50787D01*
X53613Y-50721D01*
X53395Y-50721D01*
X53192Y-50805D01*
X53037Y-50959D01*
X52954Y-51161D01*
X52953Y-51380D01*
X53037Y-51582D01*
X53176Y-51721D01*
X53153Y-51721D01*
X53062Y-51759D01*
X52991Y-51830D01*
X52953Y-51922D01*
X52953Y-52159D01*
X53016Y-52221D01*
X53403Y-52221D01*
X53453Y-52221D01*
X53553Y-52221D01*
X53603Y-52221D01*
X53991Y-52221D01*
X54053Y-52159D01*
X54053Y-51922D01*
X54016Y-51830D01*
X53945Y-51759D01*
X53853Y-51721D01*
X53831Y-51721D01*
X53969Y-51583D01*
X54053Y-51381D01*
X54054Y-51162D01*
X54054Y-56368D01*
X54053Y-56368D01*
X54053Y-52621D01*
X54053Y-52384D01*
X53991Y-52321D01*
X53553Y-52321D01*
X53553Y-52759D01*
X53616Y-52821D01*
X53754Y-52821D01*
X53853Y-52821D01*
X53945Y-52783D01*
X54016Y-52713D01*
X54053Y-52621D01*
X54053Y-56368D01*
X53453Y-56368D01*
X53453Y-52759D01*
X53453Y-52321D01*
X53016Y-52321D01*
X52953Y-52384D01*
X52953Y-52621D01*
X52991Y-52713D01*
X53062Y-52783D01*
X53153Y-52821D01*
X53253Y-52821D01*
X53391Y-52821D01*
X53453Y-52759D01*
X53453Y-56368D01*
X52596Y-56368D01*
X52596Y-35934D01*
X52532Y-35778D01*
X52412Y-35658D01*
X52256Y-35594D01*
X52087Y-35593D01*
X51931Y-35658D01*
X51811Y-35777D01*
X51746Y-35934D01*
X51746Y-36103D01*
X51809Y-36254D01*
X51707Y-36212D01*
X51538Y-36212D01*
X51382Y-36276D01*
X51262Y-36396D01*
X51197Y-36552D01*
X51197Y-36721D01*
X51262Y-36877D01*
X51381Y-36997D01*
X51537Y-37062D01*
X51706Y-37062D01*
X51863Y-36997D01*
X51982Y-36878D01*
X52047Y-36722D01*
X52047Y-36553D01*
X51985Y-36401D01*
X52086Y-36443D01*
X52256Y-36444D01*
X52412Y-36379D01*
X52531Y-36260D01*
X52596Y-36103D01*
X52596Y-35934D01*
X52596Y-56368D01*
X51298Y-56368D01*
X51298Y-51162D01*
X51214Y-50960D01*
X51059Y-50805D01*
X50857Y-50721D01*
X50639Y-50721D01*
X50436Y-50805D01*
X50282Y-50959D01*
X50198Y-51161D01*
X50197Y-51380D01*
X50281Y-51582D01*
X50420Y-51721D01*
X50398Y-51721D01*
X50306Y-51759D01*
X50235Y-51830D01*
X50197Y-51922D01*
X50198Y-52159D01*
X50260Y-52221D01*
X50648Y-52221D01*
X50698Y-52221D01*
X50798Y-52221D01*
X50848Y-52221D01*
X51235Y-52221D01*
X51298Y-52159D01*
X51298Y-51922D01*
X51260Y-51830D01*
X51189Y-51759D01*
X51097Y-51721D01*
X51075Y-51721D01*
X51214Y-51583D01*
X51297Y-51381D01*
X51298Y-51162D01*
X51298Y-56368D01*
X51298Y-56368D01*
X51298Y-52621D01*
X51298Y-52384D01*
X51235Y-52321D01*
X50798Y-52321D01*
X50798Y-52759D01*
X50860Y-52821D01*
X50998Y-52821D01*
X51097Y-52821D01*
X51189Y-52783D01*
X51260Y-52713D01*
X51298Y-52621D01*
X51298Y-56368D01*
X50698Y-56368D01*
X50698Y-52759D01*
X50698Y-52321D01*
X50260Y-52321D01*
X50198Y-52384D01*
X50197Y-52621D01*
X50235Y-52713D01*
X50306Y-52783D01*
X50398Y-52821D01*
X50497Y-52821D01*
X50635Y-52821D01*
X50698Y-52759D01*
X50698Y-56368D01*
X49755Y-56368D01*
X49755Y-31361D01*
X49755Y-28361D01*
X49744Y-28142D01*
X49682Y-27991D01*
X49586Y-27964D01*
X49515Y-28035D01*
X49515Y-27893D01*
X49488Y-27798D01*
X49362Y-27753D01*
X49362Y-22159D01*
X49297Y-22003D01*
X49178Y-21884D01*
X49021Y-21819D01*
X48852Y-21819D01*
X48696Y-21883D01*
X48576Y-22003D01*
X48512Y-22159D01*
X48511Y-22328D01*
X48576Y-22484D01*
X48695Y-22604D01*
X48852Y-22669D01*
X49021Y-22669D01*
X49177Y-22604D01*
X49297Y-22485D01*
X49361Y-22329D01*
X49362Y-22159D01*
X49362Y-27753D01*
X49282Y-27724D01*
X49064Y-27735D01*
X48912Y-27798D01*
X48885Y-27893D01*
X49200Y-28208D01*
X49515Y-27893D01*
X49515Y-28035D01*
X49271Y-28279D01*
X49586Y-28594D01*
X49682Y-28567D01*
X49755Y-28361D01*
X49755Y-31361D01*
X49744Y-31142D01*
X49682Y-30991D01*
X49586Y-30964D01*
X49515Y-31035D01*
X49515Y-30893D01*
X49515Y-28665D01*
X49200Y-28350D01*
X49130Y-28420D01*
X49130Y-28279D01*
X48814Y-27964D01*
X48719Y-27991D01*
X48699Y-28046D01*
X48667Y-27968D01*
X48512Y-27813D01*
X48310Y-27729D01*
X48177Y-27729D01*
X48177Y-22207D01*
X48112Y-22050D01*
X47993Y-21931D01*
X47952Y-21914D01*
X47952Y-18628D01*
X47888Y-18472D01*
X47768Y-18352D01*
X47612Y-18287D01*
X47443Y-18287D01*
X47287Y-18352D01*
X47167Y-18471D01*
X47102Y-18627D01*
X47102Y-18796D01*
X47167Y-18953D01*
X47286Y-19072D01*
X47442Y-19137D01*
X47611Y-19137D01*
X47767Y-19073D01*
X47887Y-18953D01*
X47952Y-18797D01*
X47952Y-18628D01*
X47952Y-21914D01*
X47836Y-21866D01*
X47667Y-21866D01*
X47511Y-21930D01*
X47391Y-22050D01*
X47327Y-22206D01*
X47326Y-22375D01*
X47391Y-22531D01*
X47510Y-22651D01*
X47667Y-22716D01*
X47836Y-22716D01*
X47992Y-22651D01*
X48112Y-22532D01*
X48176Y-22376D01*
X48177Y-22207D01*
X48177Y-27729D01*
X48091Y-27729D01*
X47889Y-27812D01*
X47750Y-27951D01*
X47750Y-27930D01*
X47712Y-27838D01*
X47642Y-27767D01*
X47550Y-27729D01*
X47451Y-27729D01*
X46851Y-27729D01*
X46759Y-27767D01*
X46688Y-27837D01*
X46650Y-27929D01*
X46650Y-28029D01*
X46650Y-28629D01*
X46688Y-28720D01*
X46758Y-28791D01*
X46850Y-28829D01*
X46950Y-28829D01*
X47550Y-28829D01*
X47642Y-28791D01*
X47712Y-28721D01*
X47750Y-28629D01*
X47750Y-28607D01*
X47888Y-28745D01*
X48090Y-28829D01*
X48309Y-28829D01*
X48511Y-28746D01*
X48666Y-28591D01*
X48698Y-28515D01*
X48719Y-28567D01*
X48814Y-28594D01*
X49130Y-28279D01*
X49130Y-28420D01*
X48885Y-28665D01*
X48912Y-28760D01*
X49119Y-28834D01*
X49337Y-28823D01*
X49488Y-28760D01*
X49515Y-28665D01*
X49515Y-30893D01*
X49488Y-30798D01*
X49282Y-30724D01*
X49064Y-30735D01*
X48912Y-30798D01*
X48885Y-30893D01*
X49200Y-31208D01*
X49515Y-30893D01*
X49515Y-31035D01*
X49271Y-31279D01*
X49586Y-31594D01*
X49682Y-31567D01*
X49755Y-31361D01*
X49755Y-56368D01*
X49515Y-56368D01*
X49515Y-31665D01*
X49200Y-31350D01*
X49130Y-31420D01*
X49130Y-31279D01*
X48814Y-30964D01*
X48719Y-30991D01*
X48699Y-31046D01*
X48667Y-30968D01*
X48512Y-30813D01*
X48310Y-30729D01*
X48091Y-30729D01*
X47889Y-30812D01*
X47750Y-30951D01*
X47750Y-30930D01*
X47712Y-30838D01*
X47642Y-30767D01*
X47550Y-30729D01*
X47451Y-30729D01*
X46851Y-30729D01*
X46759Y-30767D01*
X46688Y-30837D01*
X46650Y-30929D01*
X46650Y-31029D01*
X46650Y-31629D01*
X46688Y-31720D01*
X46758Y-31791D01*
X46850Y-31829D01*
X46950Y-31829D01*
X47550Y-31829D01*
X47642Y-31791D01*
X47712Y-31721D01*
X47750Y-31629D01*
X47750Y-31607D01*
X47888Y-31745D01*
X48090Y-31829D01*
X48309Y-31829D01*
X48511Y-31746D01*
X48666Y-31591D01*
X48698Y-31515D01*
X48719Y-31567D01*
X48814Y-31594D01*
X49130Y-31279D01*
X49130Y-31420D01*
X48885Y-31665D01*
X48912Y-31760D01*
X49119Y-31834D01*
X49337Y-31823D01*
X49488Y-31760D01*
X49515Y-31665D01*
X49515Y-56368D01*
X49362Y-56368D01*
X49362Y-36805D01*
X49297Y-36649D01*
X49178Y-36529D01*
X49021Y-36464D01*
X48852Y-36464D01*
X48696Y-36529D01*
X48576Y-36648D01*
X48512Y-36804D01*
X48511Y-36973D01*
X48576Y-37130D01*
X48695Y-37249D01*
X48852Y-37314D01*
X49021Y-37314D01*
X49177Y-37250D01*
X49297Y-37130D01*
X49361Y-36974D01*
X49362Y-36805D01*
X49362Y-56368D01*
X49086Y-56368D01*
X49086Y-40585D01*
X49021Y-40428D01*
X48902Y-40309D01*
X48807Y-40269D01*
X48807Y-37931D01*
X48742Y-37774D01*
X48623Y-37655D01*
X48467Y-37590D01*
X48298Y-37590D01*
X48141Y-37654D01*
X48022Y-37774D01*
X47957Y-37930D01*
X47957Y-38099D01*
X48021Y-38255D01*
X48141Y-38375D01*
X48297Y-38440D01*
X48466Y-38440D01*
X48622Y-38375D01*
X48742Y-38256D01*
X48807Y-38100D01*
X48807Y-37931D01*
X48807Y-40269D01*
X48746Y-40244D01*
X48577Y-40244D01*
X48420Y-40308D01*
X48301Y-40428D01*
X48236Y-40584D01*
X48236Y-40753D01*
X48300Y-40909D01*
X48420Y-41029D01*
X48576Y-41094D01*
X48745Y-41094D01*
X48901Y-41029D01*
X49021Y-40910D01*
X49086Y-40754D01*
X49086Y-40585D01*
X49086Y-56368D01*
X48542Y-56368D01*
X48542Y-51162D01*
X48458Y-50960D01*
X48304Y-50805D01*
X48141Y-50738D01*
X48141Y-40978D01*
X48077Y-40822D01*
X47957Y-40702D01*
X47801Y-40638D01*
X47750Y-40638D01*
X47750Y-39170D01*
X47667Y-38968D01*
X47512Y-38813D01*
X47430Y-38779D01*
X47511Y-38746D01*
X47666Y-38591D01*
X47750Y-38389D01*
X47750Y-38170D01*
X47667Y-37968D01*
X47512Y-37813D01*
X47310Y-37729D01*
X47157Y-37729D01*
X47157Y-36725D01*
X47092Y-36569D01*
X46973Y-36449D01*
X46817Y-36384D01*
X46648Y-36384D01*
X46645Y-36385D01*
X46645Y-35388D01*
X46580Y-35232D01*
X46461Y-35112D01*
X46305Y-35047D01*
X46282Y-35047D01*
X46282Y-33944D01*
X46217Y-33788D01*
X46098Y-33668D01*
X45941Y-33604D01*
X45858Y-33604D01*
X45858Y-22238D01*
X45793Y-22082D01*
X45674Y-21962D01*
X45517Y-21897D01*
X45348Y-21897D01*
X45192Y-21962D01*
X45072Y-22081D01*
X45008Y-22237D01*
X45007Y-22407D01*
X45072Y-22563D01*
X45192Y-22682D01*
X45348Y-22747D01*
X45517Y-22747D01*
X45673Y-22683D01*
X45793Y-22563D01*
X45857Y-22407D01*
X45858Y-22238D01*
X45858Y-33604D01*
X45772Y-33603D01*
X45616Y-33668D01*
X45496Y-33787D01*
X45432Y-33944D01*
X45432Y-34113D01*
X45496Y-34269D01*
X45530Y-34303D01*
X45483Y-34351D01*
X45418Y-34507D01*
X45418Y-34676D01*
X45482Y-34832D01*
X45602Y-34952D01*
X45758Y-35017D01*
X45927Y-35017D01*
X46083Y-34952D01*
X46203Y-34833D01*
X46268Y-34677D01*
X46268Y-34508D01*
X46203Y-34351D01*
X46169Y-34317D01*
X46217Y-34270D01*
X46282Y-34113D01*
X46282Y-33944D01*
X46282Y-35047D01*
X46136Y-35047D01*
X45980Y-35111D01*
X45860Y-35231D01*
X45795Y-35387D01*
X45795Y-35556D01*
X45859Y-35712D01*
X45979Y-35832D01*
X46135Y-35897D01*
X46304Y-35897D01*
X46460Y-35832D01*
X46580Y-35713D01*
X46645Y-35557D01*
X46645Y-35388D01*
X46645Y-36385D01*
X46491Y-36449D01*
X46372Y-36568D01*
X46307Y-36724D01*
X46307Y-36893D01*
X46371Y-37049D01*
X46491Y-37169D01*
X46647Y-37234D01*
X46816Y-37234D01*
X46972Y-37170D01*
X47092Y-37050D01*
X47157Y-36894D01*
X47157Y-36725D01*
X47157Y-37729D01*
X47091Y-37729D01*
X46889Y-37812D01*
X46734Y-37967D01*
X46700Y-38049D01*
X46667Y-37968D01*
X46512Y-37813D01*
X46310Y-37729D01*
X46091Y-37729D01*
X45889Y-37812D01*
X45734Y-37967D01*
X45700Y-38049D01*
X45667Y-37968D01*
X45512Y-37813D01*
X45310Y-37729D01*
X45149Y-37729D01*
X45149Y-32238D01*
X45084Y-32082D01*
X44965Y-31962D01*
X44838Y-31910D01*
X44901Y-31759D01*
X44901Y-31590D01*
X44836Y-31434D01*
X44717Y-31314D01*
X44561Y-31249D01*
X44392Y-31249D01*
X44235Y-31314D01*
X44116Y-31433D01*
X44051Y-31589D01*
X44051Y-31758D01*
X44115Y-31914D01*
X44235Y-32034D01*
X44362Y-32087D01*
X44299Y-32237D01*
X44299Y-32407D01*
X44363Y-32563D01*
X44483Y-32682D01*
X44639Y-32747D01*
X44808Y-32747D01*
X44964Y-32683D01*
X45084Y-32563D01*
X45149Y-32407D01*
X45149Y-32238D01*
X45149Y-37729D01*
X45091Y-37729D01*
X44889Y-37812D01*
X44872Y-37830D01*
X44872Y-35215D01*
X44807Y-35059D01*
X44688Y-34939D01*
X44677Y-34935D01*
X44677Y-33144D01*
X44612Y-32987D01*
X44493Y-32868D01*
X44336Y-32803D01*
X44167Y-32803D01*
X44011Y-32867D01*
X43891Y-32987D01*
X43889Y-32992D01*
X43889Y-32907D01*
X43825Y-32751D01*
X43705Y-32632D01*
X43549Y-32567D01*
X43380Y-32567D01*
X43224Y-32631D01*
X43104Y-32751D01*
X43039Y-32907D01*
X43039Y-33076D01*
X43104Y-33232D01*
X43223Y-33352D01*
X43379Y-33417D01*
X43548Y-33417D01*
X43704Y-33352D01*
X43824Y-33233D01*
X43826Y-33227D01*
X43826Y-33312D01*
X43891Y-33468D01*
X44010Y-33588D01*
X44167Y-33653D01*
X44336Y-33653D01*
X44492Y-33588D01*
X44612Y-33469D01*
X44676Y-33313D01*
X44677Y-33144D01*
X44677Y-34935D01*
X44532Y-34875D01*
X44363Y-34874D01*
X44206Y-34939D01*
X44087Y-35058D01*
X44022Y-35215D01*
X44022Y-35384D01*
X44086Y-35540D01*
X44206Y-35660D01*
X44362Y-35724D01*
X44531Y-35725D01*
X44687Y-35660D01*
X44807Y-35541D01*
X44872Y-35384D01*
X44872Y-35215D01*
X44872Y-37830D01*
X44734Y-37967D01*
X44700Y-38049D01*
X44667Y-37968D01*
X44512Y-37813D01*
X44310Y-37729D01*
X44091Y-37729D01*
X43889Y-37812D01*
X43734Y-37967D01*
X43700Y-38049D01*
X43667Y-37968D01*
X43542Y-37843D01*
X43542Y-35287D01*
X43477Y-35131D01*
X43358Y-35011D01*
X43202Y-34946D01*
X43033Y-34946D01*
X42876Y-35011D01*
X42757Y-35130D01*
X42692Y-35286D01*
X42692Y-35455D01*
X42756Y-35612D01*
X42876Y-35731D01*
X43032Y-35796D01*
X43201Y-35796D01*
X43357Y-35732D01*
X43477Y-35612D01*
X43542Y-35456D01*
X43542Y-35287D01*
X43542Y-37843D01*
X43512Y-37813D01*
X43310Y-37729D01*
X43091Y-37729D01*
X42889Y-37812D01*
X42734Y-37967D01*
X42700Y-38049D01*
X42688Y-38020D01*
X42688Y-36274D01*
X42629Y-36131D01*
X42629Y-35112D01*
X42565Y-34956D01*
X42445Y-34836D01*
X42289Y-34771D01*
X42200Y-34771D01*
X42200Y-32935D01*
X42136Y-32779D01*
X42016Y-32659D01*
X41860Y-32594D01*
X41691Y-32594D01*
X41621Y-32623D01*
X41621Y-22211D01*
X41557Y-22054D01*
X41437Y-21935D01*
X41281Y-21870D01*
X41112Y-21870D01*
X40956Y-21934D01*
X40836Y-22054D01*
X40771Y-22210D01*
X40771Y-22379D01*
X40836Y-22535D01*
X40955Y-22655D01*
X41111Y-22720D01*
X41281Y-22720D01*
X41437Y-22655D01*
X41556Y-22536D01*
X41621Y-22380D01*
X41621Y-22211D01*
X41621Y-32623D01*
X41535Y-32659D01*
X41415Y-32778D01*
X41350Y-32934D01*
X41350Y-33103D01*
X41415Y-33260D01*
X41534Y-33379D01*
X41690Y-33444D01*
X41859Y-33444D01*
X42016Y-33380D01*
X42135Y-33260D01*
X42200Y-33104D01*
X42200Y-32935D01*
X42200Y-34771D01*
X42120Y-34771D01*
X41964Y-34836D01*
X41844Y-34955D01*
X41813Y-35029D01*
X41746Y-34962D01*
X41590Y-34898D01*
X41421Y-34897D01*
X41265Y-34962D01*
X41145Y-35082D01*
X41080Y-35238D01*
X41080Y-35407D01*
X41145Y-35563D01*
X41264Y-35683D01*
X41420Y-35747D01*
X41590Y-35748D01*
X41746Y-35683D01*
X41865Y-35564D01*
X41896Y-35489D01*
X41963Y-35556D01*
X42119Y-35621D01*
X42288Y-35621D01*
X42445Y-35557D01*
X42564Y-35437D01*
X42629Y-35281D01*
X42629Y-35112D01*
X42629Y-36131D01*
X42624Y-36117D01*
X42504Y-35998D01*
X42348Y-35933D01*
X42179Y-35933D01*
X42023Y-35997D01*
X41903Y-36117D01*
X41838Y-36273D01*
X41838Y-36442D01*
X41903Y-36598D01*
X42022Y-36718D01*
X42178Y-36783D01*
X42347Y-36783D01*
X42504Y-36718D01*
X42623Y-36599D01*
X42688Y-36443D01*
X42688Y-36274D01*
X42688Y-38020D01*
X42667Y-37968D01*
X42512Y-37813D01*
X42310Y-37729D01*
X42091Y-37729D01*
X41889Y-37812D01*
X41734Y-37967D01*
X41700Y-38049D01*
X41667Y-37968D01*
X41512Y-37813D01*
X41310Y-37729D01*
X41091Y-37729D01*
X41071Y-37737D01*
X41071Y-34129D01*
X41007Y-33973D01*
X40887Y-33854D01*
X40731Y-33789D01*
X40562Y-33789D01*
X40406Y-33853D01*
X40286Y-33973D01*
X40267Y-34019D01*
X40267Y-18577D01*
X40203Y-18420D01*
X40083Y-18301D01*
X39927Y-18236D01*
X39758Y-18236D01*
X39602Y-18300D01*
X39482Y-18420D01*
X39417Y-18576D01*
X39417Y-18745D01*
X39482Y-18901D01*
X39601Y-19021D01*
X39757Y-19086D01*
X39926Y-19086D01*
X40082Y-19021D01*
X40202Y-18902D01*
X40267Y-18746D01*
X40267Y-18577D01*
X40267Y-34019D01*
X40221Y-34129D01*
X40221Y-34298D01*
X40286Y-34454D01*
X40405Y-34574D01*
X40561Y-34639D01*
X40731Y-34639D01*
X40887Y-34574D01*
X41006Y-34455D01*
X41071Y-34299D01*
X41071Y-34129D01*
X41071Y-37737D01*
X40889Y-37812D01*
X40734Y-37967D01*
X40700Y-38049D01*
X40667Y-37968D01*
X40661Y-37962D01*
X40661Y-35467D01*
X40596Y-35310D01*
X40477Y-35191D01*
X40321Y-35126D01*
X40152Y-35126D01*
X39995Y-35190D01*
X39876Y-35310D01*
X39811Y-35466D01*
X39811Y-35635D01*
X39875Y-35791D01*
X39995Y-35911D01*
X40151Y-35976D01*
X40320Y-35976D01*
X40476Y-35911D01*
X40596Y-35792D01*
X40661Y-35636D01*
X40661Y-35467D01*
X40661Y-37962D01*
X40512Y-37813D01*
X40310Y-37729D01*
X40091Y-37729D01*
X39889Y-37812D01*
X39734Y-37967D01*
X39650Y-38169D01*
X39650Y-38388D01*
X39734Y-38590D01*
X39872Y-38729D01*
X39851Y-38729D01*
X39759Y-38767D01*
X39688Y-38837D01*
X39650Y-38929D01*
X39650Y-39029D01*
X39650Y-39629D01*
X39688Y-39720D01*
X39758Y-39791D01*
X39850Y-39829D01*
X39950Y-39829D01*
X40550Y-39829D01*
X40642Y-39791D01*
X40712Y-39721D01*
X40750Y-39629D01*
X40750Y-39607D01*
X40888Y-39745D01*
X41090Y-39829D01*
X41309Y-39829D01*
X41511Y-39746D01*
X41666Y-39591D01*
X41700Y-39509D01*
X41734Y-39590D01*
X41888Y-39745D01*
X42090Y-39829D01*
X42309Y-39829D01*
X42511Y-39746D01*
X42666Y-39591D01*
X42700Y-39509D01*
X42734Y-39590D01*
X42888Y-39745D01*
X43090Y-39829D01*
X43309Y-39829D01*
X43511Y-39746D01*
X43666Y-39591D01*
X43700Y-39509D01*
X43734Y-39590D01*
X43888Y-39745D01*
X44090Y-39829D01*
X44309Y-39829D01*
X44511Y-39746D01*
X44666Y-39591D01*
X44700Y-39509D01*
X44734Y-39590D01*
X44888Y-39745D01*
X45090Y-39829D01*
X45309Y-39829D01*
X45511Y-39746D01*
X45666Y-39591D01*
X45700Y-39509D01*
X45734Y-39590D01*
X45888Y-39745D01*
X46090Y-39829D01*
X46309Y-39829D01*
X46511Y-39746D01*
X46666Y-39591D01*
X46700Y-39509D01*
X46734Y-39590D01*
X46888Y-39745D01*
X47090Y-39829D01*
X47309Y-39829D01*
X47511Y-39746D01*
X47666Y-39591D01*
X47750Y-39389D01*
X47750Y-39170D01*
X47750Y-40638D01*
X47632Y-40637D01*
X47476Y-40702D01*
X47356Y-40821D01*
X47291Y-40978D01*
X47291Y-41147D01*
X47356Y-41303D01*
X47475Y-41423D01*
X47631Y-41487D01*
X47800Y-41488D01*
X47956Y-41423D01*
X48076Y-41304D01*
X48141Y-41147D01*
X48141Y-40978D01*
X48141Y-50738D01*
X48102Y-50721D01*
X47883Y-50721D01*
X47680Y-50805D01*
X47526Y-50959D01*
X47442Y-51161D01*
X47442Y-51380D01*
X47525Y-51582D01*
X47664Y-51721D01*
X47642Y-51721D01*
X47550Y-51759D01*
X47480Y-51830D01*
X47442Y-51922D01*
X47442Y-52159D01*
X47504Y-52221D01*
X47892Y-52221D01*
X47942Y-52221D01*
X48042Y-52221D01*
X48092Y-52221D01*
X48479Y-52221D01*
X48542Y-52159D01*
X48542Y-51922D01*
X48504Y-51830D01*
X48433Y-51759D01*
X48342Y-51721D01*
X48319Y-51721D01*
X48458Y-51583D01*
X48542Y-51381D01*
X48542Y-51162D01*
X48542Y-56368D01*
X48542Y-56368D01*
X48542Y-52621D01*
X48542Y-52384D01*
X48479Y-52321D01*
X48042Y-52321D01*
X48042Y-52759D01*
X48104Y-52821D01*
X48242Y-52821D01*
X48342Y-52821D01*
X48433Y-52783D01*
X48504Y-52713D01*
X48542Y-52621D01*
X48542Y-56368D01*
X47942Y-56368D01*
X47942Y-52759D01*
X47942Y-52321D01*
X47504Y-52321D01*
X47442Y-52384D01*
X47442Y-52621D01*
X47480Y-52713D01*
X47550Y-52783D01*
X47642Y-52821D01*
X47741Y-52821D01*
X47879Y-52821D01*
X47942Y-52759D01*
X47942Y-56368D01*
X46921Y-56368D01*
X46921Y-43439D01*
X46856Y-43283D01*
X46737Y-43163D01*
X46580Y-43098D01*
X46411Y-43098D01*
X46255Y-43163D01*
X46135Y-43282D01*
X46071Y-43438D01*
X46070Y-43607D01*
X46135Y-43764D01*
X46255Y-43883D01*
X46411Y-43948D01*
X46580Y-43948D01*
X46736Y-43884D01*
X46856Y-43764D01*
X46920Y-43608D01*
X46921Y-43439D01*
X46921Y-56368D01*
X46330Y-56368D01*
X46330Y-46884D01*
X46266Y-46728D01*
X46146Y-46608D01*
X45990Y-46543D01*
X45821Y-46543D01*
X45720Y-46585D01*
X45720Y-42002D01*
X45655Y-41846D01*
X45536Y-41726D01*
X45380Y-41661D01*
X45211Y-41661D01*
X45054Y-41726D01*
X44935Y-41845D01*
X44870Y-42001D01*
X44870Y-42170D01*
X44934Y-42327D01*
X45054Y-42446D01*
X45210Y-42511D01*
X45379Y-42511D01*
X45535Y-42447D01*
X45655Y-42327D01*
X45720Y-42171D01*
X45720Y-42002D01*
X45720Y-46585D01*
X45665Y-46607D01*
X45545Y-46727D01*
X45480Y-46883D01*
X45480Y-47052D01*
X45545Y-47208D01*
X45664Y-47328D01*
X45820Y-47393D01*
X45989Y-47393D01*
X46145Y-47329D01*
X46265Y-47209D01*
X46330Y-47053D01*
X46330Y-46884D01*
X46330Y-56368D01*
X45751Y-56368D01*
X45751Y-50361D01*
X45740Y-50142D01*
X45678Y-49991D01*
X45582Y-49964D01*
X45512Y-50035D01*
X45512Y-49893D01*
X45484Y-49798D01*
X45464Y-49791D01*
X45464Y-45033D01*
X45399Y-44877D01*
X45280Y-44758D01*
X45124Y-44693D01*
X44987Y-44693D01*
X44988Y-44612D01*
X44923Y-44456D01*
X44804Y-44336D01*
X44647Y-44271D01*
X44627Y-44271D01*
X44674Y-44252D01*
X44794Y-44132D01*
X44859Y-43976D01*
X44859Y-43807D01*
X44794Y-43651D01*
X44675Y-43531D01*
X44519Y-43466D01*
X44350Y-43466D01*
X44193Y-43531D01*
X44107Y-43617D01*
X44099Y-43608D01*
X43943Y-43543D01*
X43774Y-43543D01*
X43617Y-43607D01*
X43596Y-43628D01*
X43602Y-43616D01*
X43602Y-43447D01*
X43537Y-43291D01*
X43418Y-43171D01*
X43262Y-43106D01*
X43102Y-43106D01*
X43102Y-40978D01*
X43037Y-40822D01*
X42918Y-40702D01*
X42762Y-40638D01*
X42592Y-40637D01*
X42436Y-40702D01*
X42317Y-40821D01*
X42252Y-40978D01*
X42252Y-41147D01*
X42316Y-41303D01*
X42436Y-41423D01*
X42592Y-41487D01*
X42761Y-41488D01*
X42917Y-41423D01*
X43037Y-41304D01*
X43102Y-41147D01*
X43102Y-40978D01*
X43102Y-43106D01*
X43092Y-43106D01*
X42936Y-43170D01*
X42924Y-43183D01*
X42870Y-43054D01*
X42751Y-42934D01*
X42595Y-42869D01*
X42426Y-42869D01*
X42269Y-42933D01*
X42150Y-43053D01*
X42085Y-43209D01*
X42085Y-43378D01*
X42149Y-43534D01*
X42269Y-43654D01*
X42425Y-43719D01*
X42594Y-43719D01*
X42750Y-43654D01*
X42763Y-43642D01*
X42816Y-43771D01*
X42936Y-43891D01*
X43092Y-43956D01*
X43261Y-43956D01*
X43417Y-43892D01*
X43438Y-43871D01*
X43433Y-43883D01*
X43433Y-44002D01*
X43364Y-43973D01*
X43195Y-43973D01*
X43039Y-44038D01*
X42919Y-44157D01*
X42854Y-44313D01*
X42854Y-44398D01*
X42836Y-44391D01*
X42667Y-44391D01*
X42510Y-44455D01*
X42391Y-44575D01*
X42326Y-44731D01*
X42326Y-44900D01*
X42390Y-45056D01*
X42510Y-45176D01*
X42666Y-45241D01*
X42835Y-45241D01*
X42991Y-45176D01*
X43111Y-45057D01*
X43176Y-44901D01*
X43176Y-44816D01*
X43194Y-44823D01*
X43363Y-44823D01*
X43519Y-44759D01*
X43639Y-44639D01*
X43704Y-44483D01*
X43704Y-44364D01*
X43773Y-44393D01*
X43942Y-44393D01*
X44098Y-44329D01*
X44184Y-44243D01*
X44193Y-44251D01*
X44349Y-44316D01*
X44370Y-44316D01*
X44322Y-44336D01*
X44202Y-44455D01*
X44138Y-44611D01*
X44137Y-44781D01*
X44202Y-44937D01*
X44321Y-45056D01*
X44478Y-45121D01*
X44614Y-45121D01*
X44614Y-45202D01*
X44678Y-45358D01*
X44798Y-45478D01*
X44954Y-45543D01*
X45123Y-45543D01*
X45279Y-45478D01*
X45399Y-45359D01*
X45464Y-45203D01*
X45464Y-45033D01*
X45464Y-49791D01*
X45278Y-49724D01*
X45060Y-49735D01*
X44908Y-49798D01*
X44881Y-49893D01*
X45196Y-50208D01*
X45512Y-49893D01*
X45512Y-50035D01*
X45267Y-50279D01*
X45582Y-50594D01*
X45678Y-50567D01*
X45751Y-50361D01*
X45751Y-56368D01*
X45746Y-56368D01*
X45746Y-51170D01*
X45663Y-50968D01*
X45508Y-50813D01*
X45433Y-50782D01*
X45484Y-50760D01*
X45512Y-50665D01*
X45196Y-50350D01*
X45126Y-50420D01*
X45126Y-50279D01*
X44810Y-49964D01*
X44715Y-49991D01*
X44642Y-50197D01*
X44653Y-50416D01*
X44715Y-50567D01*
X44810Y-50594D01*
X45126Y-50279D01*
X45126Y-50420D01*
X44881Y-50665D01*
X44908Y-50760D01*
X44964Y-50780D01*
X44885Y-50812D01*
X44730Y-50967D01*
X44646Y-51169D01*
X44646Y-51388D01*
X44730Y-51590D01*
X44868Y-51729D01*
X44847Y-51729D01*
X44755Y-51767D01*
X44685Y-51837D01*
X44646Y-51929D01*
X44646Y-52029D01*
X44646Y-52629D01*
X44684Y-52720D01*
X44755Y-52791D01*
X44846Y-52829D01*
X44946Y-52829D01*
X45546Y-52829D01*
X45638Y-52791D01*
X45708Y-52721D01*
X45746Y-52629D01*
X45746Y-52530D01*
X45746Y-51930D01*
X45708Y-51838D01*
X45638Y-51767D01*
X45546Y-51729D01*
X45524Y-51729D01*
X45662Y-51591D01*
X45746Y-51389D01*
X45746Y-51170D01*
X45746Y-56368D01*
X42759Y-56368D01*
X42759Y-50361D01*
X42748Y-50142D01*
X42685Y-49991D01*
X42590Y-49964D01*
X42519Y-50035D01*
X42519Y-49893D01*
X42492Y-49798D01*
X42286Y-49724D01*
X42067Y-49735D01*
X41916Y-49798D01*
X41889Y-49893D01*
X42204Y-50208D01*
X42519Y-49893D01*
X42519Y-50035D01*
X42275Y-50279D01*
X42590Y-50594D01*
X42685Y-50567D01*
X42759Y-50361D01*
X42759Y-56368D01*
X42754Y-56368D01*
X42754Y-51170D01*
X42671Y-50968D01*
X42516Y-50813D01*
X42441Y-50782D01*
X42492Y-50760D01*
X42519Y-50665D01*
X42204Y-50350D01*
X42134Y-50420D01*
X42134Y-50279D01*
X41818Y-49964D01*
X41723Y-49991D01*
X41649Y-50197D01*
X41660Y-50416D01*
X41723Y-50567D01*
X41818Y-50594D01*
X42134Y-50279D01*
X42134Y-50420D01*
X41889Y-50665D01*
X41916Y-50760D01*
X41972Y-50780D01*
X41893Y-50812D01*
X41738Y-50967D01*
X41654Y-51169D01*
X41654Y-51388D01*
X41738Y-51590D01*
X41876Y-51729D01*
X41855Y-51729D01*
X41763Y-51767D01*
X41692Y-51837D01*
X41654Y-51929D01*
X41654Y-52029D01*
X41654Y-52629D01*
X41692Y-52720D01*
X41762Y-52791D01*
X41854Y-52829D01*
X41954Y-52829D01*
X42554Y-52829D01*
X42646Y-52791D01*
X42716Y-52721D01*
X42754Y-52629D01*
X42754Y-52530D01*
X42754Y-51930D01*
X42716Y-51838D01*
X42646Y-51767D01*
X42554Y-51729D01*
X42532Y-51729D01*
X42670Y-51591D01*
X42754Y-51389D01*
X42754Y-51170D01*
X42754Y-56368D01*
X40936Y-56368D01*
X40936Y-43379D01*
X40871Y-43223D01*
X40752Y-43103D01*
X40595Y-43038D01*
X40426Y-43038D01*
X40270Y-43103D01*
X40150Y-43222D01*
X40086Y-43378D01*
X40085Y-43547D01*
X40150Y-43704D01*
X40269Y-43823D01*
X40426Y-43888D01*
X40595Y-43888D01*
X40751Y-43824D01*
X40871Y-43704D01*
X40935Y-43548D01*
X40936Y-43379D01*
X40936Y-56368D01*
X40047Y-56368D01*
X40047Y-44289D01*
X39982Y-44133D01*
X39913Y-44064D01*
X39913Y-41215D01*
X39848Y-41058D01*
X39729Y-40939D01*
X39573Y-40874D01*
X39488Y-40874D01*
X39488Y-38825D01*
X39423Y-38669D01*
X39304Y-38549D01*
X39147Y-38484D01*
X39093Y-38484D01*
X39093Y-20052D01*
X39029Y-19896D01*
X38909Y-19776D01*
X38753Y-19711D01*
X38584Y-19711D01*
X38428Y-19775D01*
X38339Y-19864D01*
X38233Y-19758D01*
X38077Y-19693D01*
X37907Y-19693D01*
X37751Y-19757D01*
X37745Y-19763D01*
X37740Y-19757D01*
X37584Y-19692D01*
X37414Y-19692D01*
X37343Y-19721D01*
X37242Y-19620D01*
X37086Y-19556D01*
X36917Y-19555D01*
X36761Y-19620D01*
X36641Y-19739D01*
X36576Y-19896D01*
X36576Y-20065D01*
X36641Y-20221D01*
X36760Y-20341D01*
X36916Y-20405D01*
X37085Y-20406D01*
X37157Y-20376D01*
X37258Y-20477D01*
X37414Y-20542D01*
X37583Y-20542D01*
X37739Y-20478D01*
X37745Y-20472D01*
X37751Y-20478D01*
X37907Y-20543D01*
X38076Y-20543D01*
X38232Y-20478D01*
X38321Y-20389D01*
X38427Y-20496D01*
X38583Y-20561D01*
X38753Y-20561D01*
X38909Y-20496D01*
X39028Y-20377D01*
X39093Y-20221D01*
X39093Y-20052D01*
X39093Y-38484D01*
X38978Y-38484D01*
X38909Y-38513D01*
X38909Y-23470D01*
X38844Y-23314D01*
X38725Y-23195D01*
X38569Y-23130D01*
X38400Y-23130D01*
X38243Y-23194D01*
X38124Y-23314D01*
X38059Y-23470D01*
X38059Y-23639D01*
X38123Y-23795D01*
X38131Y-23803D01*
X38025Y-23908D01*
X37988Y-23999D01*
X37988Y-22352D01*
X37923Y-22196D01*
X37804Y-22076D01*
X37647Y-22012D01*
X37478Y-22011D01*
X37322Y-22076D01*
X37236Y-22162D01*
X37236Y-22081D01*
X37171Y-21924D01*
X37145Y-21899D01*
X37145Y-20902D01*
X37081Y-20746D01*
X36961Y-20627D01*
X36805Y-20562D01*
X36636Y-20562D01*
X36480Y-20626D01*
X36360Y-20746D01*
X36295Y-20902D01*
X36295Y-21071D01*
X36360Y-21227D01*
X36479Y-21347D01*
X36635Y-21412D01*
X36804Y-21412D01*
X36961Y-21347D01*
X37080Y-21228D01*
X37145Y-21072D01*
X37145Y-20902D01*
X37145Y-21899D01*
X37052Y-21805D01*
X36895Y-21740D01*
X36726Y-21740D01*
X36600Y-21792D01*
X36594Y-21786D01*
X36437Y-21721D01*
X36268Y-21721D01*
X36112Y-21785D01*
X35992Y-21905D01*
X35928Y-22061D01*
X35927Y-22230D01*
X35992Y-22386D01*
X36112Y-22506D01*
X36268Y-22571D01*
X36437Y-22571D01*
X36563Y-22519D01*
X36569Y-22525D01*
X36658Y-22562D01*
X36610Y-22678D01*
X36610Y-22847D01*
X36674Y-23004D01*
X36794Y-23123D01*
X36950Y-23188D01*
X37119Y-23188D01*
X37275Y-23124D01*
X37395Y-23004D01*
X37458Y-22853D01*
X37478Y-22861D01*
X37647Y-22862D01*
X37803Y-22797D01*
X37923Y-22678D01*
X37987Y-22521D01*
X37988Y-22352D01*
X37988Y-23999D01*
X37960Y-24064D01*
X37960Y-24233D01*
X38025Y-24390D01*
X38054Y-24419D01*
X38009Y-24463D01*
X37945Y-24619D01*
X37945Y-24788D01*
X38009Y-24945D01*
X38129Y-25064D01*
X38285Y-25129D01*
X38454Y-25129D01*
X38610Y-25065D01*
X38730Y-24945D01*
X38795Y-24789D01*
X38795Y-24620D01*
X38730Y-24464D01*
X38701Y-24435D01*
X38745Y-24390D01*
X38810Y-24234D01*
X38810Y-24065D01*
X38746Y-23909D01*
X38738Y-23901D01*
X38844Y-23796D01*
X38909Y-23640D01*
X38909Y-23470D01*
X38909Y-38513D01*
X38822Y-38548D01*
X38702Y-38668D01*
X38638Y-38824D01*
X38637Y-38993D01*
X38702Y-39149D01*
X38821Y-39269D01*
X38978Y-39334D01*
X39147Y-39334D01*
X39303Y-39269D01*
X39423Y-39150D01*
X39487Y-38994D01*
X39488Y-38825D01*
X39488Y-40874D01*
X39404Y-40874D01*
X39247Y-40938D01*
X39128Y-41058D01*
X39063Y-41214D01*
X39063Y-41383D01*
X39127Y-41539D01*
X39247Y-41659D01*
X39403Y-41724D01*
X39572Y-41724D01*
X39728Y-41659D01*
X39848Y-41540D01*
X39913Y-41384D01*
X39913Y-41215D01*
X39913Y-44064D01*
X39863Y-44013D01*
X39706Y-43949D01*
X39537Y-43948D01*
X39381Y-44013D01*
X39261Y-44132D01*
X39197Y-44289D01*
X39196Y-44458D01*
X39261Y-44614D01*
X39380Y-44734D01*
X39537Y-44798D01*
X39706Y-44799D01*
X39862Y-44734D01*
X39982Y-44615D01*
X40046Y-44458D01*
X40047Y-44289D01*
X40047Y-56368D01*
X36566Y-56368D01*
X36566Y-31293D01*
X36502Y-31137D01*
X36382Y-31017D01*
X36226Y-30953D01*
X36057Y-30952D01*
X35901Y-31017D01*
X35781Y-31136D01*
X35775Y-31151D01*
X35654Y-31030D01*
X35452Y-30946D01*
X35451Y-30946D01*
X35653Y-30862D01*
X35808Y-30708D01*
X35892Y-30505D01*
X35892Y-30287D01*
X35809Y-30084D01*
X35654Y-29930D01*
X35452Y-29846D01*
X35391Y-29846D01*
X35692Y-29846D01*
X35783Y-29808D01*
X35854Y-29737D01*
X35892Y-29646D01*
X35892Y-29546D01*
X35892Y-28946D01*
X35854Y-28854D01*
X35844Y-28844D01*
X35844Y-21434D01*
X35775Y-21268D01*
X35649Y-21141D01*
X35483Y-21072D01*
X35304Y-21072D01*
X35138Y-21140D01*
X35011Y-21267D01*
X34942Y-21433D01*
X34942Y-21612D01*
X35010Y-21778D01*
X35137Y-21905D01*
X35303Y-21974D01*
X35482Y-21974D01*
X35648Y-21906D01*
X35775Y-21779D01*
X35844Y-21613D01*
X35844Y-21434D01*
X35844Y-28844D01*
X35784Y-28784D01*
X35692Y-28746D01*
X35593Y-28746D01*
X35342Y-28746D01*
X35342Y-26248D01*
X35190Y-25880D01*
X34909Y-25598D01*
X34750Y-25532D01*
X34750Y-24317D01*
X34750Y-23717D01*
X34712Y-23625D01*
X34642Y-23555D01*
X34550Y-23516D01*
X34451Y-23516D01*
X33951Y-23516D01*
X33951Y-18723D01*
X33817Y-18400D01*
X33570Y-18152D01*
X33246Y-18018D01*
X32896Y-18017D01*
X32573Y-18151D01*
X32325Y-18398D01*
X32191Y-18722D01*
X32190Y-19072D01*
X32324Y-19395D01*
X32571Y-19643D01*
X32895Y-19777D01*
X33245Y-19778D01*
X33568Y-19644D01*
X33816Y-19397D01*
X33950Y-19073D01*
X33951Y-18723D01*
X33951Y-23516D01*
X33851Y-23516D01*
X33759Y-23554D01*
X33688Y-23625D01*
X33650Y-23716D01*
X33650Y-23770D01*
X33586Y-23751D01*
X33515Y-23822D01*
X33515Y-23681D01*
X33488Y-23585D01*
X33282Y-23512D01*
X33064Y-23523D01*
X32912Y-23585D01*
X32885Y-23681D01*
X33200Y-23996D01*
X33515Y-23681D01*
X33515Y-23822D01*
X33271Y-24066D01*
X33586Y-24382D01*
X33650Y-24363D01*
X33650Y-24416D01*
X33688Y-24508D01*
X33758Y-24578D01*
X33850Y-24616D01*
X33950Y-24616D01*
X34550Y-24616D01*
X34642Y-24578D01*
X34712Y-24508D01*
X34750Y-24416D01*
X34750Y-24317D01*
X34750Y-25532D01*
X34542Y-25446D01*
X34144Y-25445D01*
X33776Y-25597D01*
X33515Y-25858D01*
X33515Y-24452D01*
X33200Y-24137D01*
X33130Y-24208D01*
X33130Y-24066D01*
X32814Y-23751D01*
X32719Y-23779D01*
X32646Y-23985D01*
X32656Y-24203D01*
X32719Y-24354D01*
X32814Y-24382D01*
X33130Y-24066D01*
X33130Y-24208D01*
X32885Y-24452D01*
X32912Y-24548D01*
X33119Y-24621D01*
X33337Y-24610D01*
X33488Y-24548D01*
X33515Y-24452D01*
X33515Y-25858D01*
X33495Y-25878D01*
X33342Y-26246D01*
X33342Y-26644D01*
X33494Y-27011D01*
X33775Y-27293D01*
X34142Y-27445D01*
X34540Y-27446D01*
X34908Y-27294D01*
X35189Y-27013D01*
X35342Y-26645D01*
X35342Y-26248D01*
X35342Y-28746D01*
X34993Y-28746D01*
X34901Y-28783D01*
X34830Y-28854D01*
X34792Y-28946D01*
X34792Y-29045D01*
X34792Y-29518D01*
X34654Y-29380D01*
X34452Y-29296D01*
X34233Y-29295D01*
X34031Y-29379D01*
X33876Y-29534D01*
X33792Y-29736D01*
X33792Y-29954D01*
X33875Y-30157D01*
X34030Y-30312D01*
X34232Y-30395D01*
X34451Y-30396D01*
X34233Y-30395D01*
X34031Y-30479D01*
X33876Y-30634D01*
X33792Y-30836D01*
X33792Y-31054D01*
X33875Y-31257D01*
X34030Y-31412D01*
X34172Y-31471D01*
X34031Y-31529D01*
X33876Y-31684D01*
X33792Y-31886D01*
X33792Y-32104D01*
X33875Y-32307D01*
X34030Y-32462D01*
X34232Y-32545D01*
X34451Y-32546D01*
X34233Y-32545D01*
X34031Y-32629D01*
X33876Y-32784D01*
X33792Y-32986D01*
X33792Y-33204D01*
X33875Y-33407D01*
X34030Y-33562D01*
X34232Y-33645D01*
X34451Y-33646D01*
X34653Y-33562D01*
X34808Y-33408D01*
X34892Y-33205D01*
X34892Y-32987D01*
X34809Y-32784D01*
X34654Y-32630D01*
X34452Y-32546D01*
X34451Y-32546D01*
X34653Y-32462D01*
X34808Y-32308D01*
X34892Y-32105D01*
X34892Y-31887D01*
X34809Y-31684D01*
X34654Y-31530D01*
X34512Y-31471D01*
X34653Y-31412D01*
X34808Y-31258D01*
X34892Y-31055D01*
X34892Y-30837D01*
X34809Y-30634D01*
X34654Y-30480D01*
X34452Y-30396D01*
X34451Y-30396D01*
X34653Y-30312D01*
X34808Y-30158D01*
X34892Y-29955D01*
X34892Y-29799D01*
X34900Y-29807D01*
X34992Y-29846D01*
X35092Y-29846D01*
X35233Y-29846D01*
X35031Y-29929D01*
X34876Y-30084D01*
X34792Y-30286D01*
X34792Y-30504D01*
X34875Y-30707D01*
X35030Y-30862D01*
X35232Y-30945D01*
X35451Y-30946D01*
X35233Y-30945D01*
X35031Y-31029D01*
X34876Y-31184D01*
X34792Y-31386D01*
X34792Y-31604D01*
X34875Y-31807D01*
X35030Y-31962D01*
X35172Y-32021D01*
X35031Y-32079D01*
X34876Y-32234D01*
X34792Y-32436D01*
X34792Y-32654D01*
X34875Y-32857D01*
X35030Y-33012D01*
X35232Y-33095D01*
X35329Y-33096D01*
X35205Y-33102D01*
X35054Y-33164D01*
X35027Y-33260D01*
X35342Y-33575D01*
X35657Y-33260D01*
X35630Y-33164D01*
X35437Y-33096D01*
X35451Y-33096D01*
X35653Y-33012D01*
X35808Y-32858D01*
X35892Y-32655D01*
X35892Y-32437D01*
X35809Y-32234D01*
X35654Y-32080D01*
X35512Y-32021D01*
X35653Y-31962D01*
X35808Y-31808D01*
X35856Y-31693D01*
X35900Y-31738D01*
X36056Y-31802D01*
X36225Y-31803D01*
X36382Y-31738D01*
X36501Y-31619D01*
X36566Y-31462D01*
X36566Y-31293D01*
X36566Y-56368D01*
X35897Y-56368D01*
X35897Y-44062D01*
X35897Y-33727D01*
X35886Y-33509D01*
X35823Y-33358D01*
X35728Y-33330D01*
X35413Y-33646D01*
X35728Y-33961D01*
X35823Y-33933D01*
X35897Y-33727D01*
X35897Y-44062D01*
X35886Y-43844D01*
X35823Y-43693D01*
X35728Y-43665D01*
X35657Y-43736D01*
X35657Y-43595D01*
X35657Y-34031D01*
X35342Y-33716D01*
X35271Y-33787D01*
X35271Y-33646D01*
X34956Y-33330D01*
X34861Y-33358D01*
X34787Y-33564D01*
X34798Y-33782D01*
X34861Y-33933D01*
X34956Y-33961D01*
X35271Y-33646D01*
X35271Y-33787D01*
X35027Y-34031D01*
X35054Y-34127D01*
X35260Y-34200D01*
X35479Y-34189D01*
X35630Y-34127D01*
X35657Y-34031D01*
X35657Y-43595D01*
X35630Y-43499D01*
X35424Y-43426D01*
X35342Y-43430D01*
X35342Y-40933D01*
X35342Y-36248D01*
X35190Y-35880D01*
X34909Y-35598D01*
X34542Y-35446D01*
X34144Y-35445D01*
X33776Y-35597D01*
X33495Y-35878D01*
X33342Y-36246D01*
X33342Y-36644D01*
X33494Y-37011D01*
X33775Y-37293D01*
X34142Y-37445D01*
X34540Y-37446D01*
X34908Y-37294D01*
X35189Y-37013D01*
X35342Y-36645D01*
X35342Y-36248D01*
X35342Y-40933D01*
X35190Y-40565D01*
X34909Y-40283D01*
X34542Y-40131D01*
X34144Y-40130D01*
X33776Y-40282D01*
X33495Y-40563D01*
X33342Y-40931D01*
X33342Y-41329D01*
X33494Y-41696D01*
X33775Y-41978D01*
X34142Y-42130D01*
X34540Y-42131D01*
X34908Y-41979D01*
X35189Y-41698D01*
X35342Y-41330D01*
X35342Y-40933D01*
X35342Y-43430D01*
X35205Y-43437D01*
X35054Y-43499D01*
X35027Y-43595D01*
X35342Y-43910D01*
X35657Y-43595D01*
X35657Y-43736D01*
X35413Y-43981D01*
X35728Y-44296D01*
X35823Y-44268D01*
X35897Y-44062D01*
X35897Y-56368D01*
X35892Y-56368D01*
X35892Y-47122D01*
X35809Y-46919D01*
X35654Y-46765D01*
X35512Y-46706D01*
X35653Y-46647D01*
X35808Y-46493D01*
X35892Y-46290D01*
X35892Y-46072D01*
X35809Y-45869D01*
X35654Y-45715D01*
X35452Y-45631D01*
X35451Y-45631D01*
X35653Y-45547D01*
X35808Y-45393D01*
X35892Y-45190D01*
X35892Y-44972D01*
X35809Y-44769D01*
X35654Y-44615D01*
X35452Y-44531D01*
X35356Y-44531D01*
X35479Y-44524D01*
X35630Y-44462D01*
X35657Y-44367D01*
X35342Y-44051D01*
X35271Y-44122D01*
X35271Y-43981D01*
X34956Y-43665D01*
X34861Y-43693D01*
X34787Y-43899D01*
X34798Y-44117D01*
X34861Y-44268D01*
X34956Y-44296D01*
X35271Y-43981D01*
X35271Y-44122D01*
X35027Y-44367D01*
X35054Y-44462D01*
X35247Y-44531D01*
X35233Y-44531D01*
X35031Y-44614D01*
X34876Y-44769D01*
X34792Y-44971D01*
X34792Y-45190D01*
X34875Y-45392D01*
X35030Y-45547D01*
X35232Y-45631D01*
X35451Y-45631D01*
X35233Y-45631D01*
X35031Y-45714D01*
X34876Y-45869D01*
X34792Y-46071D01*
X34792Y-46290D01*
X34875Y-46492D01*
X35030Y-46647D01*
X35172Y-46706D01*
X35031Y-46764D01*
X34876Y-46919D01*
X34792Y-47121D01*
X34792Y-47340D01*
X34875Y-47542D01*
X35030Y-47697D01*
X35232Y-47781D01*
X35293Y-47781D01*
X34993Y-47781D01*
X34901Y-47819D01*
X34892Y-47827D01*
X34892Y-47672D01*
X34809Y-47469D01*
X34654Y-47315D01*
X34452Y-47231D01*
X34451Y-47231D01*
X34653Y-47147D01*
X34808Y-46993D01*
X34892Y-46790D01*
X34892Y-46572D01*
X34809Y-46369D01*
X34654Y-46215D01*
X34512Y-46156D01*
X34653Y-46097D01*
X34808Y-45943D01*
X34892Y-45740D01*
X34892Y-45522D01*
X34809Y-45319D01*
X34654Y-45165D01*
X34452Y-45081D01*
X34451Y-45081D01*
X34653Y-44997D01*
X34808Y-44843D01*
X34892Y-44640D01*
X34892Y-44422D01*
X34809Y-44219D01*
X34654Y-44065D01*
X34452Y-43981D01*
X34233Y-43981D01*
X34031Y-44064D01*
X33876Y-44219D01*
X33792Y-44421D01*
X33792Y-44640D01*
X33875Y-44842D01*
X34030Y-44997D01*
X34232Y-45081D01*
X34451Y-45081D01*
X34233Y-45081D01*
X34031Y-45164D01*
X33876Y-45319D01*
X33792Y-45521D01*
X33792Y-45740D01*
X33875Y-45942D01*
X34030Y-46097D01*
X34172Y-46156D01*
X34031Y-46214D01*
X33876Y-46369D01*
X33792Y-46571D01*
X33792Y-46790D01*
X33875Y-46992D01*
X34030Y-47147D01*
X34232Y-47231D01*
X34451Y-47231D01*
X34233Y-47231D01*
X34031Y-47314D01*
X33876Y-47469D01*
X33792Y-47671D01*
X33792Y-47890D01*
X33875Y-48092D01*
X34030Y-48247D01*
X34232Y-48331D01*
X34451Y-48331D01*
X34653Y-48247D01*
X34792Y-48109D01*
X34792Y-48680D01*
X34830Y-48772D01*
X34900Y-48842D01*
X34992Y-48881D01*
X35092Y-48881D01*
X35692Y-48881D01*
X35783Y-48843D01*
X35854Y-48772D01*
X35892Y-48681D01*
X35892Y-48581D01*
X35892Y-47981D01*
X35854Y-47889D01*
X35784Y-47819D01*
X35692Y-47781D01*
X35593Y-47781D01*
X35451Y-47781D01*
X35653Y-47697D01*
X35808Y-47543D01*
X35892Y-47340D01*
X35892Y-47122D01*
X35892Y-56368D01*
X35342Y-56368D01*
X35342Y-50933D01*
X35190Y-50565D01*
X34909Y-50283D01*
X34542Y-50131D01*
X34144Y-50130D01*
X33776Y-50282D01*
X33495Y-50563D01*
X33342Y-50931D01*
X33342Y-51329D01*
X33494Y-51696D01*
X33775Y-51978D01*
X34142Y-52130D01*
X34540Y-52131D01*
X34908Y-51979D01*
X35189Y-51698D01*
X35342Y-51330D01*
X35342Y-50933D01*
X35342Y-56368D01*
X33951Y-56368D01*
X33951Y-54943D01*
X33817Y-54620D01*
X33570Y-54372D01*
X33246Y-54238D01*
X32896Y-54237D01*
X32573Y-54371D01*
X32325Y-54618D01*
X32191Y-54942D01*
X32190Y-55292D01*
X32324Y-55615D01*
X32571Y-55863D01*
X32895Y-55997D01*
X33245Y-55998D01*
X33568Y-55864D01*
X33816Y-55617D01*
X33950Y-55293D01*
X33951Y-54943D01*
X33951Y-56368D01*
X33100Y-56368D01*
X32596Y-56267D01*
X32190Y-55996D01*
X31922Y-55595D01*
X31821Y-55085D01*
X31821Y-18930D01*
X31922Y-18420D01*
X32190Y-18019D01*
X32596Y-17748D01*
X33100Y-17648D01*
X69258Y-17648D01*
X69768Y-17749D01*
X70169Y-18017D01*
X70440Y-18423D01*
X70541Y-18927D01*
X70541Y-55088D01*
X70541Y-55088D01*
G37*
G54D15*
X70541Y-55088D02*
X70440Y-55592D01*
X70171Y-55996D01*
X70171Y-54943D01*
X70171Y-18723D01*
X70037Y-18400D01*
X69790Y-18152D01*
X69466Y-18018D01*
X69116Y-18017D01*
X68793Y-18151D01*
X68545Y-18398D01*
X68411Y-18722D01*
X68410Y-19072D01*
X68544Y-19395D01*
X68791Y-19643D01*
X69115Y-19777D01*
X69465Y-19778D01*
X69788Y-19644D01*
X70036Y-19397D01*
X70170Y-19073D01*
X70171Y-18723D01*
X70171Y-54943D01*
X70037Y-54620D01*
X69790Y-54372D01*
X69466Y-54238D01*
X69116Y-54237D01*
X69019Y-54277D01*
X69019Y-50914D01*
X69019Y-40914D01*
X69019Y-36269D01*
X69019Y-26269D01*
X68867Y-25901D01*
X68586Y-25620D01*
X68219Y-25467D01*
X67821Y-25467D01*
X67453Y-25619D01*
X67172Y-25900D01*
X67019Y-26267D01*
X67019Y-26665D01*
X67171Y-27033D01*
X67452Y-27314D01*
X67819Y-27467D01*
X68217Y-27467D01*
X68585Y-27315D01*
X68866Y-27034D01*
X69019Y-26667D01*
X69019Y-26269D01*
X69019Y-36269D01*
X68867Y-35901D01*
X68586Y-35620D01*
X68569Y-35612D01*
X68569Y-32958D01*
X68486Y-32756D01*
X68331Y-32601D01*
X68129Y-32517D01*
X68128Y-32517D01*
X68330Y-32433D01*
X68485Y-32279D01*
X68569Y-32077D01*
X68569Y-31858D01*
X68486Y-31656D01*
X68331Y-31501D01*
X68189Y-31442D01*
X68330Y-31383D01*
X68485Y-31229D01*
X68569Y-31027D01*
X68569Y-30808D01*
X68486Y-30606D01*
X68331Y-30451D01*
X68129Y-30367D01*
X68128Y-30367D01*
X68330Y-30283D01*
X68485Y-30129D01*
X68569Y-29927D01*
X68569Y-29708D01*
X68486Y-29506D01*
X68331Y-29351D01*
X68129Y-29267D01*
X67910Y-29267D01*
X67708Y-29350D01*
X67574Y-29484D01*
X67574Y-29349D01*
X67563Y-29130D01*
X67500Y-28979D01*
X67405Y-28952D01*
X67334Y-29022D01*
X67334Y-28881D01*
X67307Y-28786D01*
X67101Y-28712D01*
X66882Y-28723D01*
X66731Y-28786D01*
X66704Y-28881D01*
X67019Y-29196D01*
X67334Y-28881D01*
X67334Y-29022D01*
X67090Y-29267D01*
X67405Y-29582D01*
X67500Y-29555D01*
X67574Y-29349D01*
X67574Y-29484D01*
X67553Y-29505D01*
X67469Y-29707D01*
X67469Y-29926D01*
X67553Y-30128D01*
X67707Y-30283D01*
X67909Y-30367D01*
X68128Y-30367D01*
X67910Y-30367D01*
X67708Y-30450D01*
X67553Y-30605D01*
X67469Y-30807D01*
X67469Y-31026D01*
X67553Y-31228D01*
X67707Y-31383D01*
X67849Y-31442D01*
X67708Y-31500D01*
X67553Y-31655D01*
X67469Y-31857D01*
X67469Y-32076D01*
X67553Y-32278D01*
X67707Y-32433D01*
X67909Y-32517D01*
X68128Y-32517D01*
X67910Y-32517D01*
X67708Y-32600D01*
X67553Y-32755D01*
X67469Y-32957D01*
X67469Y-33113D01*
X67461Y-33105D01*
X67369Y-33067D01*
X67270Y-33067D01*
X67128Y-33067D01*
X67330Y-32983D01*
X67485Y-32829D01*
X67569Y-32627D01*
X67569Y-32408D01*
X67486Y-32206D01*
X67331Y-32051D01*
X67129Y-31967D01*
X67128Y-31967D01*
X67330Y-31883D01*
X67485Y-31729D01*
X67569Y-31527D01*
X67569Y-31308D01*
X67486Y-31106D01*
X67331Y-30951D01*
X67189Y-30892D01*
X67330Y-30833D01*
X67485Y-30679D01*
X67569Y-30477D01*
X67569Y-30258D01*
X67486Y-30056D01*
X67331Y-29901D01*
X67129Y-29817D01*
X67033Y-29817D01*
X67156Y-29811D01*
X67307Y-29748D01*
X67334Y-29653D01*
X67019Y-29338D01*
X66948Y-29408D01*
X66948Y-29267D01*
X66633Y-28952D01*
X66538Y-28979D01*
X66464Y-29185D01*
X66475Y-29404D01*
X66538Y-29555D01*
X66633Y-29582D01*
X66948Y-29267D01*
X66948Y-29408D01*
X66704Y-29653D01*
X66731Y-29748D01*
X66924Y-29817D01*
X66910Y-29817D01*
X66708Y-29900D01*
X66553Y-30055D01*
X66469Y-30257D01*
X66469Y-30476D01*
X66553Y-30678D01*
X66707Y-30833D01*
X66849Y-30892D01*
X66708Y-30950D01*
X66553Y-31105D01*
X66469Y-31307D01*
X66469Y-31526D01*
X66553Y-31728D01*
X66707Y-31883D01*
X66909Y-31967D01*
X67128Y-31967D01*
X66910Y-31967D01*
X66708Y-32050D01*
X66553Y-32205D01*
X66469Y-32407D01*
X66469Y-32626D01*
X66553Y-32828D01*
X66707Y-32983D01*
X66909Y-33067D01*
X66970Y-33067D01*
X66670Y-33067D01*
X66578Y-33105D01*
X66507Y-33175D01*
X66469Y-33267D01*
X66469Y-33366D01*
X66469Y-33966D01*
X66507Y-34058D01*
X66577Y-34129D01*
X66669Y-34167D01*
X66769Y-34167D01*
X67369Y-34167D01*
X67461Y-34129D01*
X67531Y-34059D01*
X67569Y-33967D01*
X67569Y-33867D01*
X67569Y-33395D01*
X67707Y-33533D01*
X67909Y-33617D01*
X68128Y-33617D01*
X68330Y-33533D01*
X68485Y-33379D01*
X68569Y-33177D01*
X68569Y-32958D01*
X68569Y-35612D01*
X68219Y-35467D01*
X67821Y-35467D01*
X67453Y-35619D01*
X67172Y-35900D01*
X67019Y-36267D01*
X67019Y-36665D01*
X67171Y-37033D01*
X67452Y-37314D01*
X67819Y-37467D01*
X68217Y-37467D01*
X68585Y-37315D01*
X68866Y-37034D01*
X69019Y-36667D01*
X69019Y-36269D01*
X69019Y-40914D01*
X68867Y-40547D01*
X68586Y-40265D01*
X68219Y-40113D01*
X67821Y-40112D01*
X67453Y-40264D01*
X67172Y-40545D01*
X67019Y-40913D01*
X67019Y-41311D01*
X67171Y-41678D01*
X67452Y-41960D01*
X67819Y-42112D01*
X68217Y-42113D01*
X68585Y-41961D01*
X68866Y-41680D01*
X69019Y-41312D01*
X69019Y-40914D01*
X69019Y-50914D01*
X68867Y-50547D01*
X68586Y-50265D01*
X68569Y-50258D01*
X68569Y-47604D01*
X68486Y-47401D01*
X68331Y-47246D01*
X68129Y-47163D01*
X68128Y-47163D01*
X68330Y-47079D01*
X68485Y-46924D01*
X68569Y-46722D01*
X68569Y-46504D01*
X68486Y-46301D01*
X68331Y-46146D01*
X68189Y-46087D01*
X68330Y-46029D01*
X68485Y-45874D01*
X68569Y-45672D01*
X68569Y-45454D01*
X68486Y-45251D01*
X68331Y-45096D01*
X68129Y-45013D01*
X68128Y-45013D01*
X68330Y-44929D01*
X68485Y-44774D01*
X68569Y-44572D01*
X68569Y-44354D01*
X68486Y-44151D01*
X68331Y-43996D01*
X68129Y-43913D01*
X67910Y-43912D01*
X67708Y-43996D01*
X67569Y-44135D01*
X67569Y-43563D01*
X67531Y-43471D01*
X67461Y-43401D01*
X67369Y-43363D01*
X67270Y-43362D01*
X66670Y-43362D01*
X66578Y-43400D01*
X66507Y-43471D01*
X66469Y-43563D01*
X66469Y-43662D01*
X66469Y-44262D01*
X66507Y-44354D01*
X66577Y-44424D01*
X66669Y-44462D01*
X66769Y-44463D01*
X66910Y-44463D01*
X66708Y-44546D01*
X66553Y-44701D01*
X66469Y-44903D01*
X66469Y-45121D01*
X66553Y-45324D01*
X66707Y-45478D01*
X66849Y-45538D01*
X66708Y-45596D01*
X66553Y-45751D01*
X66469Y-45953D01*
X66469Y-46171D01*
X66553Y-46374D01*
X66707Y-46528D01*
X66909Y-46612D01*
X67128Y-46613D01*
X66910Y-46612D01*
X66708Y-46696D01*
X66553Y-46851D01*
X66469Y-47053D01*
X66469Y-47271D01*
X66553Y-47474D01*
X66707Y-47628D01*
X66909Y-47712D01*
X67006Y-47712D01*
X66882Y-47719D01*
X66731Y-47781D01*
X66704Y-47877D01*
X67019Y-48192D01*
X67334Y-47877D01*
X67307Y-47781D01*
X67115Y-47713D01*
X67128Y-47713D01*
X67330Y-47629D01*
X67485Y-47474D01*
X67569Y-47272D01*
X67569Y-47054D01*
X67486Y-46851D01*
X67331Y-46696D01*
X67129Y-46613D01*
X67128Y-46613D01*
X67330Y-46529D01*
X67485Y-46374D01*
X67569Y-46172D01*
X67569Y-45954D01*
X67486Y-45751D01*
X67331Y-45596D01*
X67189Y-45537D01*
X67330Y-45479D01*
X67485Y-45324D01*
X67569Y-45122D01*
X67569Y-44904D01*
X67486Y-44701D01*
X67331Y-44546D01*
X67129Y-44463D01*
X67069Y-44463D01*
X67369Y-44463D01*
X67461Y-44425D01*
X67469Y-44416D01*
X67469Y-44571D01*
X67553Y-44774D01*
X67707Y-44928D01*
X67909Y-45012D01*
X68128Y-45013D01*
X67910Y-45012D01*
X67708Y-45096D01*
X67553Y-45251D01*
X67469Y-45453D01*
X67469Y-45671D01*
X67553Y-45874D01*
X67707Y-46028D01*
X67849Y-46088D01*
X67708Y-46146D01*
X67553Y-46301D01*
X67469Y-46503D01*
X67469Y-46721D01*
X67553Y-46924D01*
X67707Y-47078D01*
X67909Y-47162D01*
X68128Y-47163D01*
X67910Y-47162D01*
X67708Y-47246D01*
X67553Y-47401D01*
X67469Y-47603D01*
X67469Y-47821D01*
X67553Y-48024D01*
X67707Y-48178D01*
X67909Y-48262D01*
X68128Y-48263D01*
X68330Y-48179D01*
X68485Y-48024D01*
X68569Y-47822D01*
X68569Y-47604D01*
X68569Y-50258D01*
X68219Y-50113D01*
X67821Y-50112D01*
X67574Y-50214D01*
X67574Y-48344D01*
X67563Y-48126D01*
X67500Y-47975D01*
X67405Y-47947D01*
X67090Y-48262D01*
X67405Y-48578D01*
X67500Y-48550D01*
X67574Y-48344D01*
X67574Y-50214D01*
X67453Y-50264D01*
X67334Y-50383D01*
X67334Y-48648D01*
X67019Y-48333D01*
X66948Y-48404D01*
X66948Y-48262D01*
X66633Y-47947D01*
X66538Y-47975D01*
X66464Y-48181D01*
X66475Y-48399D01*
X66538Y-48550D01*
X66633Y-48578D01*
X66948Y-48262D01*
X66948Y-48404D01*
X66704Y-48648D01*
X66731Y-48744D01*
X66937Y-48817D01*
X67156Y-48806D01*
X67307Y-48744D01*
X67334Y-48648D01*
X67334Y-50383D01*
X67172Y-50545D01*
X67019Y-50913D01*
X67019Y-51311D01*
X67171Y-51678D01*
X67452Y-51960D01*
X67819Y-52112D01*
X68217Y-52113D01*
X68585Y-51961D01*
X68866Y-51680D01*
X69019Y-51312D01*
X69019Y-50914D01*
X69019Y-54277D01*
X68793Y-54371D01*
X68545Y-54618D01*
X68411Y-54942D01*
X68410Y-55292D01*
X68544Y-55615D01*
X68791Y-55863D01*
X69115Y-55997D01*
X69465Y-55998D01*
X69788Y-55864D01*
X70036Y-55617D01*
X70170Y-55293D01*
X70171Y-54943D01*
X70171Y-55996D01*
X70169Y-55998D01*
X69768Y-56266D01*
X69258Y-56368D01*
X63614Y-56368D01*
X63614Y-38774D01*
X63549Y-38617D01*
X63430Y-38498D01*
X63273Y-38433D01*
X63104Y-38433D01*
X62948Y-38497D01*
X62866Y-38580D01*
X62866Y-30781D01*
X62801Y-30625D01*
X62682Y-30506D01*
X62525Y-30441D01*
X62356Y-30441D01*
X62200Y-30505D01*
X62080Y-30625D01*
X62016Y-30781D01*
X62015Y-30950D01*
X62080Y-31106D01*
X62199Y-31226D01*
X62356Y-31291D01*
X62525Y-31291D01*
X62681Y-31226D01*
X62801Y-31107D01*
X62865Y-30951D01*
X62866Y-30781D01*
X62866Y-38580D01*
X62828Y-38617D01*
X62764Y-38773D01*
X62763Y-38942D01*
X62828Y-39098D01*
X62947Y-39218D01*
X63104Y-39283D01*
X63273Y-39283D01*
X63429Y-39218D01*
X63549Y-39099D01*
X63613Y-38943D01*
X63614Y-38774D01*
X63614Y-56368D01*
X62711Y-56368D01*
X62711Y-39170D01*
X62627Y-38968D01*
X62473Y-38813D01*
X62391Y-38779D01*
X62472Y-38746D01*
X62627Y-38591D01*
X62711Y-38389D01*
X62711Y-38170D01*
X62627Y-37968D01*
X62473Y-37813D01*
X62271Y-37729D01*
X62052Y-37729D01*
X61850Y-37812D01*
X61695Y-37967D01*
X61661Y-38049D01*
X61627Y-37968D01*
X61481Y-37822D01*
X61481Y-35414D01*
X61417Y-35258D01*
X61297Y-35138D01*
X61141Y-35073D01*
X60972Y-35073D01*
X60816Y-35138D01*
X60696Y-35257D01*
X60631Y-35413D01*
X60631Y-35582D01*
X60696Y-35739D01*
X60815Y-35858D01*
X60971Y-35923D01*
X61141Y-35923D01*
X61297Y-35859D01*
X61416Y-35739D01*
X61481Y-35583D01*
X61481Y-35414D01*
X61481Y-37822D01*
X61473Y-37813D01*
X61271Y-37729D01*
X61052Y-37729D01*
X60850Y-37812D01*
X60695Y-37967D01*
X60661Y-38049D01*
X60627Y-37968D01*
X60590Y-37930D01*
X60590Y-34077D01*
X60525Y-33920D01*
X60406Y-33801D01*
X60250Y-33736D01*
X60246Y-33736D01*
X60246Y-31777D01*
X60181Y-31621D01*
X60103Y-31543D01*
X60103Y-30584D01*
X60039Y-30427D01*
X59919Y-30308D01*
X59763Y-30243D01*
X59594Y-30243D01*
X59506Y-30279D01*
X59506Y-21434D01*
X59437Y-21268D01*
X59311Y-21141D01*
X59145Y-21072D01*
X58966Y-21072D01*
X58800Y-21140D01*
X58673Y-21267D01*
X58604Y-21433D01*
X58604Y-21612D01*
X58672Y-21778D01*
X58799Y-21905D01*
X58965Y-21974D01*
X59144Y-21974D01*
X59310Y-21906D01*
X59437Y-21779D01*
X59506Y-21613D01*
X59506Y-21434D01*
X59506Y-30279D01*
X59438Y-30307D01*
X59380Y-30365D01*
X59380Y-29011D01*
X59316Y-28855D01*
X59196Y-28735D01*
X59040Y-28671D01*
X58871Y-28670D01*
X58715Y-28735D01*
X58612Y-28838D01*
X58612Y-28359D01*
X58548Y-28202D01*
X58428Y-28083D01*
X58272Y-28018D01*
X58103Y-28018D01*
X57992Y-28064D01*
X57949Y-28021D01*
X57793Y-27956D01*
X57624Y-27956D01*
X57546Y-27988D01*
X57485Y-27927D01*
X57329Y-27862D01*
X57159Y-27862D01*
X57003Y-27926D01*
X56884Y-28046D01*
X56819Y-28202D01*
X56819Y-28371D01*
X56846Y-28438D01*
X56773Y-28510D01*
X56708Y-28667D01*
X56708Y-28712D01*
X56608Y-28712D01*
X56452Y-28777D01*
X56332Y-28896D01*
X56318Y-28930D01*
X56318Y-22774D01*
X56254Y-22617D01*
X56196Y-22560D01*
X56196Y-19974D01*
X56132Y-19818D01*
X56012Y-19698D01*
X55856Y-19634D01*
X55687Y-19633D01*
X55531Y-19698D01*
X55479Y-19750D01*
X55364Y-19635D01*
X55350Y-19629D01*
X55350Y-18798D01*
X55285Y-18641D01*
X55166Y-18522D01*
X55010Y-18457D01*
X54841Y-18457D01*
X54685Y-18521D01*
X54565Y-18641D01*
X54500Y-18797D01*
X54500Y-18966D01*
X54564Y-19122D01*
X54684Y-19242D01*
X54840Y-19307D01*
X55009Y-19307D01*
X55165Y-19242D01*
X55285Y-19123D01*
X55350Y-18967D01*
X55350Y-18798D01*
X55350Y-19629D01*
X55208Y-19570D01*
X55039Y-19570D01*
X54882Y-19634D01*
X54763Y-19753D01*
X54760Y-19750D01*
X54604Y-19685D01*
X54435Y-19685D01*
X54370Y-19712D01*
X54370Y-18732D01*
X54305Y-18576D01*
X54186Y-18456D01*
X54030Y-18391D01*
X53861Y-18391D01*
X53704Y-18456D01*
X53585Y-18575D01*
X53520Y-18731D01*
X53520Y-18900D01*
X53584Y-19057D01*
X53704Y-19176D01*
X53860Y-19241D01*
X54029Y-19241D01*
X54185Y-19177D01*
X54305Y-19057D01*
X54370Y-18901D01*
X54370Y-18732D01*
X54370Y-19712D01*
X54279Y-19749D01*
X54159Y-19869D01*
X54094Y-20025D01*
X54094Y-20194D01*
X54159Y-20350D01*
X54278Y-20470D01*
X54434Y-20535D01*
X54603Y-20535D01*
X54760Y-20470D01*
X54878Y-20352D01*
X54882Y-20355D01*
X55038Y-20420D01*
X55207Y-20420D01*
X55363Y-20355D01*
X55415Y-20303D01*
X55516Y-20405D01*
X55417Y-20446D01*
X55297Y-20566D01*
X55232Y-20722D01*
X55232Y-20891D01*
X55296Y-21047D01*
X55416Y-21167D01*
X55572Y-21232D01*
X55741Y-21232D01*
X55897Y-21167D01*
X56017Y-21048D01*
X56082Y-20891D01*
X56082Y-20722D01*
X56017Y-20566D01*
X55912Y-20460D01*
X56012Y-20419D01*
X56131Y-20300D01*
X56196Y-20143D01*
X56196Y-19974D01*
X56196Y-22560D01*
X56134Y-22498D01*
X55978Y-22433D01*
X55901Y-22433D01*
X55860Y-22334D01*
X55741Y-22214D01*
X55584Y-22149D01*
X55415Y-22149D01*
X55259Y-22214D01*
X55139Y-22333D01*
X55075Y-22489D01*
X55074Y-22658D01*
X55139Y-22815D01*
X55258Y-22934D01*
X55415Y-22999D01*
X55492Y-22999D01*
X55533Y-23098D01*
X55652Y-23218D01*
X55808Y-23283D01*
X55977Y-23283D01*
X56134Y-23218D01*
X56253Y-23099D01*
X56318Y-22943D01*
X56318Y-22774D01*
X56318Y-28930D01*
X56267Y-29052D01*
X56267Y-29221D01*
X56332Y-29378D01*
X56451Y-29497D01*
X56608Y-29562D01*
X56777Y-29562D01*
X56933Y-29498D01*
X57053Y-29378D01*
X57117Y-29222D01*
X57117Y-29176D01*
X57218Y-29177D01*
X57374Y-29112D01*
X57493Y-28993D01*
X57558Y-28836D01*
X57558Y-28779D01*
X57623Y-28806D01*
X57792Y-28806D01*
X57904Y-28760D01*
X57946Y-28803D01*
X58102Y-28868D01*
X58271Y-28868D01*
X58427Y-28803D01*
X58547Y-28684D01*
X58612Y-28528D01*
X58612Y-28359D01*
X58612Y-28838D01*
X58595Y-28855D01*
X58530Y-29011D01*
X58530Y-29180D01*
X58595Y-29336D01*
X58714Y-29456D01*
X58870Y-29520D01*
X59039Y-29521D01*
X59196Y-29456D01*
X59315Y-29337D01*
X59380Y-29180D01*
X59380Y-29011D01*
X59380Y-30365D01*
X59318Y-30427D01*
X59253Y-30583D01*
X59253Y-30752D01*
X59318Y-30908D01*
X59437Y-31028D01*
X59593Y-31093D01*
X59762Y-31093D01*
X59919Y-31028D01*
X60038Y-30909D01*
X60103Y-30753D01*
X60103Y-30584D01*
X60103Y-31543D01*
X60062Y-31501D01*
X59906Y-31437D01*
X59736Y-31436D01*
X59580Y-31501D01*
X59461Y-31620D01*
X59396Y-31777D01*
X59396Y-31946D01*
X59460Y-32102D01*
X59580Y-32222D01*
X59736Y-32286D01*
X59905Y-32287D01*
X60061Y-32222D01*
X60181Y-32102D01*
X60246Y-31946D01*
X60246Y-31777D01*
X60246Y-33736D01*
X60081Y-33736D01*
X59924Y-33800D01*
X59805Y-33920D01*
X59740Y-34076D01*
X59740Y-34245D01*
X59804Y-34401D01*
X59924Y-34521D01*
X60080Y-34586D01*
X60249Y-34586D01*
X60405Y-34521D01*
X60525Y-34402D01*
X60590Y-34246D01*
X60590Y-34077D01*
X60590Y-37930D01*
X60473Y-37813D01*
X60271Y-37729D01*
X60052Y-37729D01*
X59850Y-37812D01*
X59695Y-37967D01*
X59661Y-38049D01*
X59627Y-37968D01*
X59473Y-37813D01*
X59271Y-37729D01*
X59052Y-37729D01*
X58850Y-37812D01*
X58695Y-37967D01*
X58661Y-38049D01*
X58627Y-37968D01*
X58534Y-37874D01*
X58534Y-35223D01*
X58469Y-35066D01*
X58350Y-34947D01*
X58194Y-34882D01*
X58041Y-34882D01*
X58041Y-30030D01*
X57976Y-29874D01*
X57893Y-29791D01*
X57920Y-29727D01*
X57920Y-29558D01*
X57855Y-29402D01*
X57736Y-29282D01*
X57580Y-29217D01*
X57411Y-29217D01*
X57254Y-29282D01*
X57135Y-29401D01*
X57070Y-29557D01*
X57070Y-29726D01*
X57134Y-29882D01*
X57217Y-29966D01*
X57191Y-30030D01*
X57191Y-30199D01*
X57255Y-30355D01*
X57375Y-30475D01*
X57531Y-30539D01*
X57700Y-30539D01*
X57856Y-30475D01*
X57976Y-30355D01*
X58041Y-30199D01*
X58041Y-30030D01*
X58041Y-34882D01*
X58025Y-34882D01*
X57868Y-34946D01*
X57749Y-35066D01*
X57684Y-35222D01*
X57684Y-35391D01*
X57748Y-35547D01*
X57868Y-35667D01*
X58024Y-35732D01*
X58193Y-35732D01*
X58349Y-35667D01*
X58469Y-35548D01*
X58534Y-35392D01*
X58534Y-35223D01*
X58534Y-37874D01*
X58473Y-37813D01*
X58271Y-37729D01*
X58082Y-37729D01*
X58082Y-36620D01*
X58017Y-36464D01*
X57898Y-36345D01*
X57742Y-36280D01*
X57573Y-36280D01*
X57417Y-36344D01*
X57330Y-36430D01*
X57330Y-34144D01*
X57266Y-33987D01*
X57146Y-33868D01*
X56990Y-33803D01*
X56821Y-33803D01*
X56665Y-33867D01*
X56545Y-33987D01*
X56480Y-34143D01*
X56480Y-34312D01*
X56545Y-34468D01*
X56664Y-34588D01*
X56820Y-34653D01*
X56989Y-34653D01*
X57145Y-34588D01*
X57265Y-34469D01*
X57330Y-34313D01*
X57330Y-34144D01*
X57330Y-36430D01*
X57297Y-36464D01*
X57232Y-36620D01*
X57232Y-36789D01*
X57296Y-36945D01*
X57416Y-37065D01*
X57572Y-37130D01*
X57741Y-37130D01*
X57897Y-37065D01*
X58017Y-36946D01*
X58082Y-36790D01*
X58082Y-36620D01*
X58082Y-37729D01*
X58052Y-37729D01*
X57850Y-37812D01*
X57695Y-37967D01*
X57661Y-38049D01*
X57627Y-37968D01*
X57473Y-37813D01*
X57271Y-37729D01*
X57052Y-37729D01*
X56850Y-37812D01*
X56695Y-37967D01*
X56661Y-38049D01*
X56627Y-37968D01*
X56591Y-37931D01*
X56591Y-35266D01*
X56527Y-35110D01*
X56407Y-34990D01*
X56251Y-34925D01*
X56082Y-34925D01*
X55926Y-34990D01*
X55806Y-35109D01*
X55741Y-35265D01*
X55741Y-35434D01*
X55805Y-35590D01*
X55925Y-35710D01*
X56081Y-35775D01*
X56250Y-35775D01*
X56406Y-35711D01*
X56526Y-35591D01*
X56591Y-35435D01*
X56591Y-35266D01*
X56591Y-37931D01*
X56473Y-37813D01*
X56271Y-37729D01*
X56052Y-37729D01*
X55850Y-37812D01*
X55695Y-37967D01*
X55661Y-38049D01*
X55627Y-37968D01*
X55501Y-37841D01*
X55501Y-33134D01*
X55436Y-32978D01*
X55317Y-32859D01*
X55172Y-32798D01*
X55172Y-31530D01*
X55172Y-30930D01*
X55134Y-30838D01*
X55132Y-30836D01*
X55132Y-28530D01*
X55132Y-27930D01*
X55094Y-27838D01*
X55024Y-27767D01*
X54932Y-27729D01*
X54833Y-27729D01*
X54233Y-27729D01*
X54141Y-27767D01*
X54070Y-27837D01*
X54032Y-27929D01*
X54032Y-27951D01*
X53894Y-27813D01*
X53692Y-27729D01*
X53671Y-27729D01*
X53783Y-27683D01*
X53903Y-27563D01*
X53968Y-27407D01*
X53968Y-27360D01*
X53990Y-27382D01*
X54146Y-27447D01*
X54315Y-27447D01*
X54471Y-27383D01*
X54591Y-27263D01*
X54656Y-27107D01*
X54656Y-26938D01*
X54591Y-26782D01*
X54472Y-26662D01*
X54316Y-26597D01*
X54147Y-26597D01*
X53990Y-26662D01*
X53897Y-26755D01*
X53897Y-20033D01*
X53832Y-19877D01*
X53713Y-19758D01*
X53557Y-19693D01*
X53388Y-19693D01*
X53232Y-19757D01*
X53112Y-19877D01*
X53047Y-20033D01*
X53047Y-20202D01*
X53111Y-20358D01*
X53231Y-20478D01*
X53387Y-20543D01*
X53556Y-20543D01*
X53712Y-20478D01*
X53832Y-20359D01*
X53897Y-20203D01*
X53897Y-20033D01*
X53897Y-26755D01*
X53871Y-26781D01*
X53806Y-26937D01*
X53806Y-26984D01*
X53784Y-26962D01*
X53628Y-26897D01*
X53586Y-26897D01*
X53586Y-22092D01*
X53521Y-21936D01*
X53402Y-21817D01*
X53246Y-21752D01*
X53077Y-21752D01*
X52920Y-21816D01*
X52801Y-21936D01*
X52736Y-22092D01*
X52736Y-22261D01*
X52800Y-22417D01*
X52920Y-22537D01*
X53076Y-22602D01*
X53245Y-22602D01*
X53401Y-22537D01*
X53521Y-22418D01*
X53586Y-22262D01*
X53586Y-22092D01*
X53586Y-26897D01*
X53459Y-26897D01*
X53302Y-26962D01*
X53183Y-27081D01*
X53118Y-27237D01*
X53118Y-27407D01*
X53182Y-27563D01*
X53302Y-27682D01*
X53443Y-27741D01*
X53271Y-27812D01*
X53116Y-27967D01*
X53085Y-28043D01*
X53063Y-27991D01*
X52968Y-27964D01*
X52897Y-28035D01*
X52897Y-27893D01*
X52870Y-27798D01*
X52664Y-27724D01*
X52445Y-27735D01*
X52294Y-27798D01*
X52267Y-27893D01*
X52582Y-28208D01*
X52897Y-27893D01*
X52897Y-28035D01*
X52653Y-28279D01*
X52968Y-28594D01*
X53063Y-28567D01*
X53083Y-28512D01*
X53116Y-28590D01*
X53270Y-28745D01*
X53472Y-28829D01*
X53691Y-28829D01*
X53893Y-28746D01*
X54032Y-28607D01*
X54032Y-28629D01*
X54070Y-28720D01*
X54140Y-28791D01*
X54232Y-28829D01*
X54332Y-28829D01*
X54932Y-28829D01*
X55024Y-28791D01*
X55094Y-28721D01*
X55132Y-28629D01*
X55132Y-28530D01*
X55132Y-30836D01*
X55063Y-30767D01*
X54971Y-30729D01*
X54872Y-30729D01*
X54272Y-30729D01*
X54180Y-30767D01*
X54110Y-30837D01*
X54072Y-30929D01*
X54072Y-30951D01*
X53934Y-30813D01*
X53731Y-30729D01*
X53513Y-30729D01*
X53310Y-30812D01*
X53156Y-30967D01*
X53124Y-31043D01*
X53103Y-30991D01*
X53007Y-30964D01*
X52937Y-31035D01*
X52937Y-30893D01*
X52909Y-30798D01*
X52897Y-30793D01*
X52897Y-28665D01*
X52582Y-28350D01*
X52511Y-28420D01*
X52511Y-28279D01*
X52196Y-27964D01*
X52101Y-27991D01*
X52027Y-28197D01*
X52038Y-28416D01*
X52101Y-28567D01*
X52196Y-28594D01*
X52511Y-28279D01*
X52511Y-28420D01*
X52267Y-28665D01*
X52294Y-28760D01*
X52500Y-28834D01*
X52719Y-28823D01*
X52870Y-28760D01*
X52897Y-28665D01*
X52897Y-30793D01*
X52703Y-30724D01*
X52485Y-30735D01*
X52334Y-30798D01*
X52306Y-30893D01*
X52622Y-31208D01*
X52937Y-30893D01*
X52937Y-31035D01*
X52692Y-31279D01*
X53007Y-31594D01*
X53103Y-31567D01*
X53123Y-31512D01*
X53155Y-31590D01*
X53310Y-31745D01*
X53512Y-31829D01*
X53730Y-31829D01*
X53933Y-31746D01*
X54072Y-31607D01*
X54072Y-31629D01*
X54109Y-31720D01*
X54180Y-31791D01*
X54272Y-31829D01*
X54371Y-31829D01*
X54971Y-31829D01*
X55063Y-31791D01*
X55133Y-31721D01*
X55172Y-31629D01*
X55172Y-31530D01*
X55172Y-32798D01*
X55160Y-32794D01*
X54991Y-32794D01*
X54835Y-32858D01*
X54715Y-32978D01*
X54651Y-33134D01*
X54650Y-33303D01*
X54715Y-33459D01*
X54834Y-33579D01*
X54991Y-33644D01*
X55160Y-33644D01*
X55316Y-33579D01*
X55436Y-33460D01*
X55500Y-33304D01*
X55501Y-33134D01*
X55501Y-37841D01*
X55473Y-37813D01*
X55271Y-37729D01*
X55052Y-37729D01*
X54850Y-37812D01*
X54695Y-37967D01*
X54611Y-38169D01*
X54611Y-38388D01*
X54694Y-38590D01*
X54833Y-38729D01*
X54811Y-38729D01*
X54719Y-38767D01*
X54649Y-38837D01*
X54611Y-38929D01*
X54611Y-39029D01*
X54611Y-39629D01*
X54649Y-39720D01*
X54719Y-39791D01*
X54811Y-39829D01*
X54910Y-39829D01*
X55510Y-39829D01*
X55602Y-39791D01*
X55673Y-39721D01*
X55711Y-39629D01*
X55711Y-39607D01*
X55849Y-39745D01*
X56051Y-39829D01*
X56270Y-39829D01*
X56472Y-39746D01*
X56627Y-39591D01*
X56661Y-39509D01*
X56694Y-39590D01*
X56849Y-39745D01*
X57051Y-39829D01*
X57270Y-39829D01*
X57472Y-39746D01*
X57627Y-39591D01*
X57661Y-39509D01*
X57694Y-39590D01*
X57849Y-39745D01*
X58051Y-39829D01*
X58270Y-39829D01*
X58472Y-39746D01*
X58627Y-39591D01*
X58661Y-39509D01*
X58694Y-39590D01*
X58849Y-39745D01*
X59051Y-39829D01*
X59270Y-39829D01*
X59472Y-39746D01*
X59627Y-39591D01*
X59661Y-39509D01*
X59694Y-39590D01*
X59849Y-39745D01*
X60051Y-39829D01*
X60270Y-39829D01*
X60472Y-39746D01*
X60627Y-39591D01*
X60661Y-39509D01*
X60694Y-39590D01*
X60849Y-39745D01*
X61051Y-39829D01*
X61270Y-39829D01*
X61472Y-39746D01*
X61627Y-39591D01*
X61661Y-39509D01*
X61694Y-39590D01*
X61849Y-39745D01*
X62051Y-39829D01*
X62270Y-39829D01*
X62472Y-39746D01*
X62627Y-39591D01*
X62711Y-39389D01*
X62711Y-39170D01*
X62711Y-56368D01*
X62477Y-56368D01*
X62477Y-42396D01*
X62412Y-42240D01*
X62293Y-42120D01*
X62136Y-42055D01*
X61967Y-42055D01*
X61811Y-42120D01*
X61691Y-42239D01*
X61627Y-42395D01*
X61627Y-42565D01*
X61691Y-42721D01*
X61811Y-42840D01*
X61967Y-42905D01*
X62136Y-42905D01*
X62292Y-42841D01*
X62412Y-42721D01*
X62477Y-42565D01*
X62477Y-42396D01*
X62477Y-56368D01*
X60641Y-56368D01*
X60641Y-46766D01*
X60639Y-46760D01*
X60639Y-44605D01*
X60574Y-44449D01*
X60455Y-44329D01*
X60299Y-44264D01*
X60130Y-44264D01*
X59973Y-44329D01*
X59854Y-44448D01*
X59795Y-44590D01*
X59795Y-44246D01*
X59730Y-44090D01*
X59611Y-43970D01*
X59454Y-43905D01*
X59285Y-43905D01*
X59283Y-43906D01*
X59283Y-42514D01*
X59218Y-42357D01*
X59099Y-42238D01*
X58943Y-42173D01*
X58774Y-42173D01*
X58617Y-42237D01*
X58498Y-42357D01*
X58433Y-42513D01*
X58433Y-42682D01*
X58493Y-42829D01*
X58490Y-42829D01*
X58334Y-42893D01*
X58214Y-43013D01*
X58190Y-43071D01*
X58160Y-43058D01*
X57991Y-43058D01*
X57835Y-43123D01*
X57715Y-43242D01*
X57689Y-43305D01*
X57689Y-42710D01*
X57624Y-42553D01*
X57505Y-42434D01*
X57349Y-42369D01*
X57264Y-42369D01*
X57264Y-41853D01*
X57200Y-41697D01*
X57080Y-41577D01*
X56924Y-41513D01*
X56755Y-41512D01*
X56599Y-41577D01*
X56479Y-41696D01*
X56414Y-41853D01*
X56414Y-42022D01*
X56479Y-42178D01*
X56598Y-42298D01*
X56754Y-42362D01*
X56923Y-42363D01*
X57079Y-42298D01*
X57199Y-42179D01*
X57264Y-42022D01*
X57264Y-41853D01*
X57264Y-42369D01*
X57180Y-42369D01*
X57023Y-42433D01*
X56975Y-42482D01*
X56848Y-42429D01*
X56679Y-42429D01*
X56522Y-42493D01*
X56403Y-42613D01*
X56338Y-42769D01*
X56338Y-42938D01*
X56402Y-43094D01*
X56408Y-43100D01*
X56349Y-43244D01*
X56349Y-43413D01*
X56413Y-43569D01*
X56533Y-43689D01*
X56689Y-43754D01*
X56858Y-43754D01*
X57014Y-43689D01*
X57134Y-43570D01*
X57199Y-43414D01*
X57199Y-43245D01*
X57188Y-43219D01*
X57348Y-43219D01*
X57504Y-43154D01*
X57624Y-43035D01*
X57689Y-42879D01*
X57689Y-42710D01*
X57689Y-43305D01*
X57650Y-43398D01*
X57650Y-43567D01*
X57715Y-43723D01*
X57834Y-43843D01*
X57990Y-43908D01*
X58159Y-43908D01*
X58316Y-43844D01*
X58435Y-43724D01*
X58459Y-43666D01*
X58490Y-43679D01*
X58659Y-43679D01*
X58815Y-43614D01*
X58935Y-43495D01*
X58999Y-43339D01*
X58999Y-43170D01*
X58939Y-43023D01*
X58942Y-43023D01*
X59098Y-42958D01*
X59218Y-42839D01*
X59283Y-42683D01*
X59283Y-42514D01*
X59283Y-43906D01*
X59129Y-43970D01*
X59009Y-44089D01*
X58945Y-44245D01*
X58945Y-44414D01*
X59009Y-44571D01*
X59129Y-44690D01*
X59285Y-44755D01*
X59454Y-44755D01*
X59610Y-44691D01*
X59730Y-44571D01*
X59795Y-44415D01*
X59795Y-44246D01*
X59795Y-44590D01*
X59789Y-44604D01*
X59789Y-44773D01*
X59853Y-44930D01*
X59973Y-45049D01*
X60129Y-45114D01*
X60298Y-45114D01*
X60454Y-45050D01*
X60574Y-44930D01*
X60639Y-44774D01*
X60639Y-44605D01*
X60639Y-46760D01*
X60577Y-46609D01*
X60457Y-46490D01*
X60301Y-46425D01*
X60132Y-46425D01*
X59976Y-46489D01*
X59949Y-46516D01*
X59934Y-46501D01*
X59778Y-46437D01*
X59609Y-46436D01*
X59453Y-46501D01*
X59333Y-46620D01*
X59268Y-46777D01*
X59268Y-46946D01*
X59333Y-47102D01*
X59452Y-47222D01*
X59608Y-47286D01*
X59778Y-47287D01*
X59934Y-47222D01*
X59960Y-47195D01*
X59975Y-47210D01*
X60131Y-47275D01*
X60300Y-47275D01*
X60456Y-47210D01*
X60576Y-47091D01*
X60641Y-46935D01*
X60641Y-46766D01*
X60641Y-56368D01*
X60397Y-56368D01*
X60397Y-50321D01*
X60386Y-50103D01*
X60323Y-49952D01*
X60228Y-49924D01*
X60157Y-49995D01*
X60157Y-49854D01*
X60130Y-49758D01*
X59924Y-49685D01*
X59705Y-49696D01*
X59554Y-49758D01*
X59527Y-49854D01*
X59842Y-50169D01*
X60157Y-49854D01*
X60157Y-49995D01*
X59913Y-50240D01*
X60228Y-50555D01*
X60323Y-50528D01*
X60397Y-50321D01*
X60397Y-56368D01*
X60392Y-56368D01*
X60392Y-51131D01*
X60309Y-50929D01*
X60154Y-50774D01*
X60078Y-50742D01*
X60130Y-50721D01*
X60157Y-50626D01*
X59842Y-50310D01*
X59771Y-50381D01*
X59771Y-50240D01*
X59472Y-49940D01*
X59472Y-48817D01*
X59407Y-48661D01*
X59288Y-48541D01*
X59230Y-48517D01*
X59230Y-46890D01*
X59166Y-46733D01*
X59046Y-46614D01*
X58890Y-46549D01*
X58721Y-46549D01*
X58565Y-46613D01*
X58445Y-46733D01*
X58380Y-46889D01*
X58380Y-47058D01*
X58445Y-47214D01*
X58564Y-47334D01*
X58720Y-47399D01*
X58889Y-47399D01*
X59046Y-47334D01*
X59165Y-47215D01*
X59230Y-47059D01*
X59230Y-46890D01*
X59230Y-48517D01*
X59187Y-48499D01*
X59213Y-48438D01*
X59213Y-48269D01*
X59148Y-48112D01*
X59029Y-47993D01*
X58873Y-47928D01*
X58704Y-47928D01*
X58548Y-47992D01*
X58428Y-48112D01*
X58374Y-48243D01*
X58374Y-46893D01*
X58347Y-46828D01*
X58347Y-45952D01*
X58282Y-45795D01*
X58163Y-45676D01*
X58006Y-45611D01*
X57837Y-45611D01*
X57681Y-45675D01*
X57662Y-45694D01*
X57662Y-44005D01*
X57597Y-43848D01*
X57478Y-43729D01*
X57322Y-43664D01*
X57153Y-43664D01*
X56996Y-43728D01*
X56877Y-43848D01*
X56843Y-43929D01*
X56808Y-43895D01*
X56652Y-43830D01*
X56483Y-43830D01*
X56327Y-43894D01*
X56207Y-44014D01*
X56145Y-44163D01*
X56145Y-40663D01*
X56081Y-40507D01*
X55961Y-40387D01*
X55805Y-40322D01*
X55636Y-40322D01*
X55480Y-40387D01*
X55360Y-40506D01*
X55295Y-40662D01*
X55295Y-40831D01*
X55360Y-40988D01*
X55479Y-41107D01*
X55635Y-41172D01*
X55804Y-41172D01*
X55960Y-41108D01*
X56080Y-40988D01*
X56145Y-40832D01*
X56145Y-40663D01*
X56145Y-44163D01*
X56142Y-44170D01*
X56142Y-44339D01*
X56207Y-44495D01*
X56326Y-44615D01*
X56483Y-44680D01*
X56652Y-44680D01*
X56680Y-44668D01*
X56733Y-44797D01*
X56852Y-44917D01*
X57009Y-44982D01*
X57178Y-44982D01*
X57334Y-44917D01*
X57454Y-44798D01*
X57518Y-44642D01*
X57519Y-44473D01*
X57500Y-44427D01*
X57597Y-44330D01*
X57662Y-44174D01*
X57662Y-44005D01*
X57662Y-45694D01*
X57561Y-45795D01*
X57497Y-45951D01*
X57497Y-46120D01*
X57561Y-46276D01*
X57681Y-46396D01*
X57837Y-46461D01*
X58006Y-46461D01*
X58162Y-46396D01*
X58282Y-46277D01*
X58347Y-46121D01*
X58347Y-45952D01*
X58347Y-46828D01*
X58309Y-46737D01*
X58189Y-46617D01*
X58033Y-46553D01*
X57864Y-46552D01*
X57708Y-46617D01*
X57588Y-46737D01*
X57524Y-46893D01*
X57523Y-47062D01*
X57588Y-47218D01*
X57707Y-47338D01*
X57864Y-47402D01*
X58033Y-47403D01*
X58189Y-47338D01*
X58309Y-47219D01*
X58373Y-47062D01*
X58374Y-46893D01*
X58374Y-48243D01*
X58363Y-48268D01*
X58363Y-48437D01*
X58427Y-48593D01*
X58547Y-48713D01*
X58647Y-48755D01*
X58622Y-48816D01*
X58622Y-48985D01*
X58686Y-49142D01*
X58806Y-49261D01*
X58962Y-49326D01*
X59131Y-49326D01*
X59287Y-49262D01*
X59407Y-49142D01*
X59472Y-48986D01*
X59472Y-48817D01*
X59472Y-49940D01*
X59456Y-49924D01*
X59361Y-49952D01*
X59287Y-50158D01*
X59298Y-50376D01*
X59361Y-50528D01*
X59456Y-50555D01*
X59771Y-50240D01*
X59771Y-50381D01*
X59527Y-50626D01*
X59554Y-50721D01*
X59609Y-50741D01*
X59531Y-50773D01*
X59376Y-50928D01*
X59292Y-51130D01*
X59292Y-51349D01*
X59375Y-51551D01*
X59514Y-51690D01*
X59493Y-51690D01*
X59401Y-51728D01*
X59330Y-51798D01*
X59292Y-51890D01*
X59292Y-51989D01*
X59292Y-52589D01*
X59330Y-52681D01*
X59400Y-52751D01*
X59492Y-52790D01*
X59592Y-52790D01*
X60192Y-52790D01*
X60283Y-52752D01*
X60354Y-52681D01*
X60392Y-52590D01*
X60392Y-52490D01*
X60392Y-51890D01*
X60354Y-51798D01*
X60284Y-51728D01*
X60192Y-51690D01*
X60170Y-51690D01*
X60308Y-51552D01*
X60392Y-51350D01*
X60392Y-51131D01*
X60392Y-56368D01*
X57477Y-56368D01*
X57477Y-46835D01*
X57412Y-46679D01*
X57293Y-46559D01*
X57137Y-46494D01*
X56968Y-46494D01*
X56811Y-46558D01*
X56692Y-46678D01*
X56674Y-46721D01*
X56674Y-46024D01*
X56609Y-45868D01*
X56490Y-45749D01*
X56334Y-45684D01*
X56165Y-45684D01*
X56009Y-45748D01*
X55889Y-45868D01*
X55824Y-46024D01*
X55824Y-46193D01*
X55888Y-46349D01*
X56008Y-46469D01*
X56164Y-46534D01*
X56333Y-46534D01*
X56489Y-46469D01*
X56609Y-46350D01*
X56674Y-46194D01*
X56674Y-46024D01*
X56674Y-46721D01*
X56627Y-46834D01*
X56627Y-47003D01*
X56691Y-47159D01*
X56811Y-47279D01*
X56967Y-47344D01*
X57136Y-47344D01*
X57292Y-47279D01*
X57412Y-47160D01*
X57477Y-47004D01*
X57477Y-46835D01*
X57477Y-56368D01*
X57011Y-56368D01*
X57011Y-50321D01*
X57000Y-50103D01*
X56937Y-49952D01*
X56842Y-49924D01*
X56771Y-49995D01*
X56771Y-49854D01*
X56744Y-49758D01*
X56625Y-49716D01*
X56625Y-48325D01*
X56561Y-48169D01*
X56441Y-48049D01*
X56285Y-47984D01*
X56116Y-47984D01*
X55960Y-48048D01*
X55840Y-48168D01*
X55775Y-48324D01*
X55775Y-48493D01*
X55840Y-48649D01*
X55959Y-48769D01*
X56115Y-48834D01*
X56284Y-48834D01*
X56441Y-48769D01*
X56560Y-48650D01*
X56625Y-48494D01*
X56625Y-48325D01*
X56625Y-49716D01*
X56538Y-49685D01*
X56319Y-49696D01*
X56168Y-49758D01*
X56141Y-49854D01*
X56456Y-50169D01*
X56771Y-49854D01*
X56771Y-49995D01*
X56527Y-50240D01*
X56842Y-50555D01*
X56937Y-50528D01*
X57011Y-50321D01*
X57011Y-56368D01*
X57006Y-56368D01*
X57006Y-51131D01*
X56923Y-50929D01*
X56768Y-50774D01*
X56693Y-50742D01*
X56744Y-50721D01*
X56771Y-50626D01*
X56456Y-50310D01*
X56385Y-50381D01*
X56385Y-50240D01*
X56070Y-49924D01*
X55975Y-49952D01*
X55901Y-50158D01*
X55912Y-50376D01*
X55975Y-50528D01*
X56070Y-50555D01*
X56385Y-50240D01*
X56385Y-50381D01*
X56141Y-50626D01*
X56168Y-50721D01*
X56224Y-50741D01*
X56145Y-50773D01*
X55990Y-50928D01*
X55906Y-51130D01*
X55906Y-51349D01*
X55990Y-51551D01*
X56128Y-51690D01*
X56107Y-51690D01*
X56015Y-51728D01*
X55944Y-51798D01*
X55906Y-51890D01*
X55906Y-51989D01*
X55906Y-52589D01*
X55944Y-52681D01*
X56014Y-52751D01*
X56106Y-52790D01*
X56206Y-52790D01*
X56806Y-52790D01*
X56898Y-52752D01*
X56968Y-52681D01*
X57006Y-52590D01*
X57006Y-52490D01*
X57006Y-51890D01*
X56968Y-51798D01*
X56898Y-51728D01*
X56806Y-51690D01*
X56784Y-51690D01*
X56922Y-51552D01*
X57006Y-51350D01*
X57006Y-51131D01*
X57006Y-56368D01*
X54054Y-56368D01*
X54054Y-51162D01*
X53970Y-50960D01*
X53815Y-50805D01*
X53771Y-50787D01*
X53771Y-39679D01*
X53706Y-39523D01*
X53587Y-39403D01*
X53431Y-39338D01*
X53262Y-39338D01*
X53106Y-39403D01*
X52986Y-39522D01*
X52937Y-39641D01*
X52937Y-31665D01*
X52622Y-31350D01*
X52551Y-31420D01*
X52551Y-31279D01*
X52236Y-30964D01*
X52140Y-30991D01*
X52067Y-31197D01*
X52078Y-31416D01*
X52140Y-31567D01*
X52236Y-31594D01*
X52551Y-31279D01*
X52551Y-31420D01*
X52306Y-31665D01*
X52334Y-31760D01*
X52540Y-31834D01*
X52758Y-31823D01*
X52909Y-31760D01*
X52937Y-31665D01*
X52937Y-39641D01*
X52921Y-39678D01*
X52921Y-39847D01*
X52985Y-40004D01*
X53105Y-40123D01*
X53261Y-40188D01*
X53430Y-40188D01*
X53586Y-40124D01*
X53706Y-40004D01*
X53771Y-39848D01*
X53771Y-39679D01*
X53771Y-50787D01*
X53613Y-50721D01*
X53395Y-50721D01*
X53192Y-50805D01*
X53037Y-50959D01*
X52954Y-51161D01*
X52953Y-51380D01*
X53037Y-51582D01*
X53176Y-51721D01*
X53153Y-51721D01*
X53062Y-51759D01*
X52991Y-51830D01*
X52953Y-51922D01*
X52953Y-52159D01*
X53016Y-52221D01*
X53403Y-52221D01*
X53453Y-52221D01*
X53553Y-52221D01*
X53603Y-52221D01*
X53991Y-52221D01*
X54053Y-52159D01*
X54053Y-51922D01*
X54016Y-51830D01*
X53945Y-51759D01*
X53853Y-51721D01*
X53831Y-51721D01*
X53969Y-51583D01*
X54053Y-51381D01*
X54054Y-51162D01*
X54054Y-56368D01*
X54053Y-56368D01*
X54053Y-52621D01*
X54053Y-52384D01*
X53991Y-52321D01*
X53553Y-52321D01*
X53553Y-52759D01*
X53616Y-52821D01*
X53754Y-52821D01*
X53853Y-52821D01*
X53945Y-52783D01*
X54016Y-52713D01*
X54053Y-52621D01*
X54053Y-56368D01*
X53453Y-56368D01*
X53453Y-52759D01*
X53453Y-52321D01*
X53016Y-52321D01*
X52953Y-52384D01*
X52953Y-52621D01*
X52991Y-52713D01*
X53062Y-52783D01*
X53153Y-52821D01*
X53253Y-52821D01*
X53391Y-52821D01*
X53453Y-52759D01*
X53453Y-56368D01*
X52596Y-56368D01*
X52596Y-35934D01*
X52532Y-35778D01*
X52412Y-35658D01*
X52256Y-35594D01*
X52087Y-35593D01*
X51931Y-35658D01*
X51811Y-35777D01*
X51746Y-35934D01*
X51746Y-36103D01*
X51809Y-36254D01*
X51707Y-36212D01*
X51538Y-36212D01*
X51382Y-36276D01*
X51262Y-36396D01*
X51197Y-36552D01*
X51197Y-36721D01*
X51262Y-36877D01*
X51381Y-36997D01*
X51537Y-37062D01*
X51706Y-37062D01*
X51863Y-36997D01*
X51982Y-36878D01*
X52047Y-36722D01*
X52047Y-36553D01*
X51985Y-36401D01*
X52086Y-36443D01*
X52256Y-36444D01*
X52412Y-36379D01*
X52531Y-36260D01*
X52596Y-36103D01*
X52596Y-35934D01*
X52596Y-56368D01*
X51298Y-56368D01*
X51298Y-51162D01*
X51214Y-50960D01*
X51059Y-50805D01*
X50857Y-50721D01*
X50639Y-50721D01*
X50436Y-50805D01*
X50282Y-50959D01*
X50198Y-51161D01*
X50197Y-51380D01*
X50281Y-51582D01*
X50420Y-51721D01*
X50398Y-51721D01*
X50306Y-51759D01*
X50235Y-51830D01*
X50197Y-51922D01*
X50198Y-52159D01*
X50260Y-52221D01*
X50648Y-52221D01*
X50698Y-52221D01*
X50798Y-52221D01*
X50848Y-52221D01*
X51235Y-52221D01*
X51298Y-52159D01*
X51298Y-51922D01*
X51260Y-51830D01*
X51189Y-51759D01*
X51097Y-51721D01*
X51075Y-51721D01*
X51214Y-51583D01*
X51297Y-51381D01*
X51298Y-51162D01*
X51298Y-56368D01*
X51298Y-56368D01*
X51298Y-52621D01*
X51298Y-52384D01*
X51235Y-52321D01*
X50798Y-52321D01*
X50798Y-52759D01*
X50860Y-52821D01*
X50998Y-52821D01*
X51097Y-52821D01*
X51189Y-52783D01*
X51260Y-52713D01*
X51298Y-52621D01*
X51298Y-56368D01*
X50698Y-56368D01*
X50698Y-52759D01*
X50698Y-52321D01*
X50260Y-52321D01*
X50198Y-52384D01*
X50197Y-52621D01*
X50235Y-52713D01*
X50306Y-52783D01*
X50398Y-52821D01*
X50497Y-52821D01*
X50635Y-52821D01*
X50698Y-52759D01*
X50698Y-56368D01*
X49755Y-56368D01*
X49755Y-31361D01*
X49755Y-28361D01*
X49744Y-28142D01*
X49682Y-27991D01*
X49586Y-27964D01*
X49515Y-28035D01*
X49515Y-27893D01*
X49488Y-27798D01*
X49362Y-27753D01*
X49362Y-22159D01*
X49297Y-22003D01*
X49178Y-21884D01*
X49021Y-21819D01*
X48852Y-21819D01*
X48696Y-21883D01*
X48576Y-22003D01*
X48512Y-22159D01*
X48511Y-22328D01*
X48576Y-22484D01*
X48695Y-22604D01*
X48852Y-22669D01*
X49021Y-22669D01*
X49177Y-22604D01*
X49297Y-22485D01*
X49361Y-22329D01*
X49362Y-22159D01*
X49362Y-27753D01*
X49282Y-27724D01*
X49064Y-27735D01*
X48912Y-27798D01*
X48885Y-27893D01*
X49200Y-28208D01*
X49515Y-27893D01*
X49515Y-28035D01*
X49271Y-28279D01*
X49586Y-28594D01*
X49682Y-28567D01*
X49755Y-28361D01*
X49755Y-31361D01*
X49744Y-31142D01*
X49682Y-30991D01*
X49586Y-30964D01*
X49515Y-31035D01*
X49515Y-30893D01*
X49515Y-28665D01*
X49200Y-28350D01*
X49130Y-28420D01*
X49130Y-28279D01*
X48814Y-27964D01*
X48719Y-27991D01*
X48699Y-28046D01*
X48667Y-27968D01*
X48512Y-27813D01*
X48310Y-27729D01*
X48177Y-27729D01*
X48177Y-22207D01*
X48112Y-22050D01*
X47993Y-21931D01*
X47952Y-21914D01*
X47952Y-18628D01*
X47888Y-18472D01*
X47768Y-18352D01*
X47612Y-18287D01*
X47443Y-18287D01*
X47287Y-18352D01*
X47167Y-18471D01*
X47102Y-18627D01*
X47102Y-18796D01*
X47167Y-18953D01*
X47286Y-19072D01*
X47442Y-19137D01*
X47611Y-19137D01*
X47767Y-19073D01*
X47887Y-18953D01*
X47952Y-18797D01*
X47952Y-18628D01*
X47952Y-21914D01*
X47836Y-21866D01*
X47667Y-21866D01*
X47511Y-21930D01*
X47391Y-22050D01*
X47327Y-22206D01*
X47326Y-22375D01*
X47391Y-22531D01*
X47510Y-22651D01*
X47667Y-22716D01*
X47836Y-22716D01*
X47992Y-22651D01*
X48112Y-22532D01*
X48176Y-22376D01*
X48177Y-22207D01*
X48177Y-27729D01*
X48091Y-27729D01*
X47889Y-27812D01*
X47750Y-27951D01*
X47750Y-27930D01*
X47712Y-27838D01*
X47642Y-27767D01*
X47550Y-27729D01*
X47451Y-27729D01*
X46851Y-27729D01*
X46759Y-27767D01*
X46688Y-27837D01*
X46650Y-27929D01*
X46650Y-28029D01*
X46650Y-28629D01*
X46688Y-28720D01*
X46758Y-28791D01*
X46850Y-28829D01*
X46950Y-28829D01*
X47550Y-28829D01*
X47642Y-28791D01*
X47712Y-28721D01*
X47750Y-28629D01*
X47750Y-28607D01*
X47888Y-28745D01*
X48090Y-28829D01*
X48309Y-28829D01*
X48511Y-28746D01*
X48666Y-28591D01*
X48698Y-28515D01*
X48719Y-28567D01*
X48814Y-28594D01*
X49130Y-28279D01*
X49130Y-28420D01*
X48885Y-28665D01*
X48912Y-28760D01*
X49119Y-28834D01*
X49337Y-28823D01*
X49488Y-28760D01*
X49515Y-28665D01*
X49515Y-30893D01*
X49488Y-30798D01*
X49282Y-30724D01*
X49064Y-30735D01*
X48912Y-30798D01*
X48885Y-30893D01*
X49200Y-31208D01*
X49515Y-30893D01*
X49515Y-31035D01*
X49271Y-31279D01*
X49586Y-31594D01*
X49682Y-31567D01*
X49755Y-31361D01*
X49755Y-56368D01*
X49515Y-56368D01*
X49515Y-31665D01*
X49200Y-31350D01*
X49130Y-31420D01*
X49130Y-31279D01*
X48814Y-30964D01*
X48719Y-30991D01*
X48699Y-31046D01*
X48667Y-30968D01*
X48512Y-30813D01*
X48310Y-30729D01*
X48091Y-30729D01*
X47889Y-30812D01*
X47750Y-30951D01*
X47750Y-30930D01*
X47712Y-30838D01*
X47642Y-30767D01*
X47550Y-30729D01*
X47451Y-30729D01*
X46851Y-30729D01*
X46759Y-30767D01*
X46688Y-30837D01*
X46650Y-30929D01*
X46650Y-31029D01*
X46650Y-31629D01*
X46688Y-31720D01*
X46758Y-31791D01*
X46850Y-31829D01*
X46950Y-31829D01*
X47550Y-31829D01*
X47642Y-31791D01*
X47712Y-31721D01*
X47750Y-31629D01*
X47750Y-31607D01*
X47888Y-31745D01*
X48090Y-31829D01*
X48309Y-31829D01*
X48511Y-31746D01*
X48666Y-31591D01*
X48698Y-31515D01*
X48719Y-31567D01*
X48814Y-31594D01*
X49130Y-31279D01*
X49130Y-31420D01*
X48885Y-31665D01*
X48912Y-31760D01*
X49119Y-31834D01*
X49337Y-31823D01*
X49488Y-31760D01*
X49515Y-31665D01*
X49515Y-56368D01*
X49362Y-56368D01*
X49362Y-36805D01*
X49297Y-36649D01*
X49178Y-36529D01*
X49021Y-36464D01*
X48852Y-36464D01*
X48696Y-36529D01*
X48576Y-36648D01*
X48512Y-36804D01*
X48511Y-36973D01*
X48576Y-37130D01*
X48695Y-37249D01*
X48852Y-37314D01*
X49021Y-37314D01*
X49177Y-37250D01*
X49297Y-37130D01*
X49361Y-36974D01*
X49362Y-36805D01*
X49362Y-56368D01*
X49086Y-56368D01*
X49086Y-40585D01*
X49021Y-40428D01*
X48902Y-40309D01*
X48807Y-40269D01*
X48807Y-37931D01*
X48742Y-37774D01*
X48623Y-37655D01*
X48467Y-37590D01*
X48298Y-37590D01*
X48141Y-37654D01*
X48022Y-37774D01*
X47957Y-37930D01*
X47957Y-38099D01*
X48021Y-38255D01*
X48141Y-38375D01*
X48297Y-38440D01*
X48466Y-38440D01*
X48622Y-38375D01*
X48742Y-38256D01*
X48807Y-38100D01*
X48807Y-37931D01*
X48807Y-40269D01*
X48746Y-40244D01*
X48577Y-40244D01*
X48420Y-40308D01*
X48301Y-40428D01*
X48236Y-40584D01*
X48236Y-40753D01*
X48300Y-40909D01*
X48420Y-41029D01*
X48576Y-41094D01*
X48745Y-41094D01*
X48901Y-41029D01*
X49021Y-40910D01*
X49086Y-40754D01*
X49086Y-40585D01*
X49086Y-56368D01*
X48542Y-56368D01*
X48542Y-51162D01*
X48458Y-50960D01*
X48304Y-50805D01*
X48141Y-50738D01*
X48141Y-40978D01*
X48077Y-40822D01*
X47957Y-40702D01*
X47801Y-40638D01*
X47750Y-40638D01*
X47750Y-39170D01*
X47667Y-38968D01*
X47512Y-38813D01*
X47430Y-38779D01*
X47511Y-38746D01*
X47666Y-38591D01*
X47750Y-38389D01*
X47750Y-38170D01*
X47667Y-37968D01*
X47512Y-37813D01*
X47310Y-37729D01*
X47157Y-37729D01*
X47157Y-36725D01*
X47092Y-36569D01*
X46973Y-36449D01*
X46817Y-36384D01*
X46648Y-36384D01*
X46645Y-36385D01*
X46645Y-35388D01*
X46580Y-35232D01*
X46461Y-35112D01*
X46305Y-35047D01*
X46282Y-35047D01*
X46282Y-33944D01*
X46217Y-33788D01*
X46098Y-33668D01*
X45941Y-33604D01*
X45858Y-33604D01*
X45858Y-22238D01*
X45793Y-22082D01*
X45674Y-21962D01*
X45517Y-21897D01*
X45348Y-21897D01*
X45192Y-21962D01*
X45072Y-22081D01*
X45008Y-22237D01*
X45007Y-22407D01*
X45072Y-22563D01*
X45192Y-22682D01*
X45348Y-22747D01*
X45517Y-22747D01*
X45673Y-22683D01*
X45793Y-22563D01*
X45857Y-22407D01*
X45858Y-22238D01*
X45858Y-33604D01*
X45772Y-33603D01*
X45616Y-33668D01*
X45496Y-33787D01*
X45432Y-33944D01*
X45432Y-34113D01*
X45496Y-34269D01*
X45530Y-34303D01*
X45483Y-34351D01*
X45418Y-34507D01*
X45418Y-34676D01*
X45482Y-34832D01*
X45602Y-34952D01*
X45758Y-35017D01*
X45927Y-35017D01*
X46083Y-34952D01*
X46203Y-34833D01*
X46268Y-34677D01*
X46268Y-34508D01*
X46203Y-34351D01*
X46169Y-34317D01*
X46217Y-34270D01*
X46282Y-34113D01*
X46282Y-33944D01*
X46282Y-35047D01*
X46136Y-35047D01*
X45980Y-35111D01*
X45860Y-35231D01*
X45795Y-35387D01*
X45795Y-35556D01*
X45859Y-35712D01*
X45979Y-35832D01*
X46135Y-35897D01*
X46304Y-35897D01*
X46460Y-35832D01*
X46580Y-35713D01*
X46645Y-35557D01*
X46645Y-35388D01*
X46645Y-36385D01*
X46491Y-36449D01*
X46372Y-36568D01*
X46307Y-36724D01*
X46307Y-36893D01*
X46371Y-37049D01*
X46491Y-37169D01*
X46647Y-37234D01*
X46816Y-37234D01*
X46972Y-37170D01*
X47092Y-37050D01*
X47157Y-36894D01*
X47157Y-36725D01*
X47157Y-37729D01*
X47091Y-37729D01*
X46889Y-37812D01*
X46734Y-37967D01*
X46700Y-38049D01*
X46667Y-37968D01*
X46512Y-37813D01*
X46310Y-37729D01*
X46091Y-37729D01*
X45889Y-37812D01*
X45734Y-37967D01*
X45700Y-38049D01*
X45667Y-37968D01*
X45512Y-37813D01*
X45310Y-37729D01*
X45149Y-37729D01*
X45149Y-32238D01*
X45084Y-32082D01*
X44965Y-31962D01*
X44838Y-31910D01*
X44901Y-31759D01*
X44901Y-31590D01*
X44836Y-31434D01*
X44717Y-31314D01*
X44561Y-31249D01*
X44392Y-31249D01*
X44235Y-31314D01*
X44116Y-31433D01*
X44051Y-31589D01*
X44051Y-31758D01*
X44115Y-31914D01*
X44235Y-32034D01*
X44362Y-32087D01*
X44299Y-32237D01*
X44299Y-32407D01*
X44363Y-32563D01*
X44483Y-32682D01*
X44639Y-32747D01*
X44808Y-32747D01*
X44964Y-32683D01*
X45084Y-32563D01*
X45149Y-32407D01*
X45149Y-32238D01*
X45149Y-37729D01*
X45091Y-37729D01*
X44889Y-37812D01*
X44872Y-37830D01*
X44872Y-35215D01*
X44807Y-35059D01*
X44688Y-34939D01*
X44677Y-34935D01*
X44677Y-33144D01*
X44612Y-32987D01*
X44493Y-32868D01*
X44336Y-32803D01*
X44167Y-32803D01*
X44011Y-32867D01*
X43891Y-32987D01*
X43889Y-32992D01*
X43889Y-32907D01*
X43825Y-32751D01*
X43705Y-32632D01*
X43549Y-32567D01*
X43380Y-32567D01*
X43224Y-32631D01*
X43104Y-32751D01*
X43039Y-32907D01*
X43039Y-33076D01*
X43104Y-33232D01*
X43223Y-33352D01*
X43379Y-33417D01*
X43548Y-33417D01*
X43704Y-33352D01*
X43824Y-33233D01*
X43826Y-33227D01*
X43826Y-33312D01*
X43891Y-33468D01*
X44010Y-33588D01*
X44167Y-33653D01*
X44336Y-33653D01*
X44492Y-33588D01*
X44612Y-33469D01*
X44676Y-33313D01*
X44677Y-33144D01*
X44677Y-34935D01*
X44532Y-34875D01*
X44363Y-34874D01*
X44206Y-34939D01*
X44087Y-35058D01*
X44022Y-35215D01*
X44022Y-35384D01*
X44086Y-35540D01*
X44206Y-35660D01*
X44362Y-35724D01*
X44531Y-35725D01*
X44687Y-35660D01*
X44807Y-35541D01*
X44872Y-35384D01*
X44872Y-35215D01*
X44872Y-37830D01*
X44734Y-37967D01*
X44700Y-38049D01*
X44667Y-37968D01*
X44512Y-37813D01*
X44310Y-37729D01*
X44091Y-37729D01*
X43889Y-37812D01*
X43734Y-37967D01*
X43700Y-38049D01*
X43667Y-37968D01*
X43542Y-37843D01*
X43542Y-35287D01*
X43477Y-35131D01*
X43358Y-35011D01*
X43202Y-34946D01*
X43033Y-34946D01*
X42876Y-35011D01*
X42757Y-35130D01*
X42692Y-35286D01*
X42692Y-35455D01*
X42756Y-35612D01*
X42876Y-35731D01*
X43032Y-35796D01*
X43201Y-35796D01*
X43357Y-35732D01*
X43477Y-35612D01*
X43542Y-35456D01*
X43542Y-35287D01*
X43542Y-37843D01*
X43512Y-37813D01*
X43310Y-37729D01*
X43091Y-37729D01*
X42889Y-37812D01*
X42734Y-37967D01*
X42700Y-38049D01*
X42688Y-38020D01*
X42688Y-36274D01*
X42629Y-36131D01*
X42629Y-35112D01*
X42565Y-34956D01*
X42445Y-34836D01*
X42289Y-34771D01*
X42200Y-34771D01*
X42200Y-32935D01*
X42136Y-32779D01*
X42016Y-32659D01*
X41860Y-32594D01*
X41691Y-32594D01*
X41621Y-32623D01*
X41621Y-22211D01*
X41557Y-22054D01*
X41437Y-21935D01*
X41281Y-21870D01*
X41112Y-21870D01*
X40956Y-21934D01*
X40836Y-22054D01*
X40771Y-22210D01*
X40771Y-22379D01*
X40836Y-22535D01*
X40955Y-22655D01*
X41111Y-22720D01*
X41281Y-22720D01*
X41437Y-22655D01*
X41556Y-22536D01*
X41621Y-22380D01*
X41621Y-22211D01*
X41621Y-32623D01*
X41535Y-32659D01*
X41415Y-32778D01*
X41350Y-32934D01*
X41350Y-33103D01*
X41415Y-33260D01*
X41534Y-33379D01*
X41690Y-33444D01*
X41859Y-33444D01*
X42016Y-33380D01*
X42135Y-33260D01*
X42200Y-33104D01*
X42200Y-32935D01*
X42200Y-34771D01*
X42120Y-34771D01*
X41964Y-34836D01*
X41844Y-34955D01*
X41813Y-35029D01*
X41746Y-34962D01*
X41590Y-34898D01*
X41421Y-34897D01*
X41265Y-34962D01*
X41145Y-35082D01*
X41080Y-35238D01*
X41080Y-35407D01*
X41145Y-35563D01*
X41264Y-35683D01*
X41420Y-35747D01*
X41590Y-35748D01*
X41746Y-35683D01*
X41865Y-35564D01*
X41896Y-35489D01*
X41963Y-35556D01*
X42119Y-35621D01*
X42288Y-35621D01*
X42445Y-35557D01*
X42564Y-35437D01*
X42629Y-35281D01*
X42629Y-35112D01*
X42629Y-36131D01*
X42624Y-36117D01*
X42504Y-35998D01*
X42348Y-35933D01*
X42179Y-35933D01*
X42023Y-35997D01*
X41903Y-36117D01*
X41838Y-36273D01*
X41838Y-36442D01*
X41903Y-36598D01*
X42022Y-36718D01*
X42178Y-36783D01*
X42347Y-36783D01*
X42504Y-36718D01*
X42623Y-36599D01*
X42688Y-36443D01*
X42688Y-36274D01*
X42688Y-38020D01*
X42667Y-37968D01*
X42512Y-37813D01*
X42310Y-37729D01*
X42091Y-37729D01*
X41889Y-37812D01*
X41734Y-37967D01*
X41700Y-38049D01*
X41667Y-37968D01*
X41512Y-37813D01*
X41310Y-37729D01*
X41091Y-37729D01*
X41071Y-37737D01*
X41071Y-34129D01*
X41007Y-33973D01*
X40887Y-33854D01*
X40731Y-33789D01*
X40562Y-33789D01*
X40406Y-33853D01*
X40286Y-33973D01*
X40267Y-34019D01*
X40267Y-18577D01*
X40203Y-18420D01*
X40083Y-18301D01*
X39927Y-18236D01*
X39758Y-18236D01*
X39602Y-18300D01*
X39482Y-18420D01*
X39417Y-18576D01*
X39417Y-18745D01*
X39482Y-18901D01*
X39601Y-19021D01*
X39757Y-19086D01*
X39926Y-19086D01*
X40082Y-19021D01*
X40202Y-18902D01*
X40267Y-18746D01*
X40267Y-18577D01*
X40267Y-34019D01*
X40221Y-34129D01*
X40221Y-34298D01*
X40286Y-34454D01*
X40405Y-34574D01*
X40561Y-34639D01*
X40731Y-34639D01*
X40887Y-34574D01*
X41006Y-34455D01*
X41071Y-34299D01*
X41071Y-34129D01*
X41071Y-37737D01*
X40889Y-37812D01*
X40734Y-37967D01*
X40700Y-38049D01*
X40667Y-37968D01*
X40661Y-37962D01*
X40661Y-35467D01*
X40596Y-35310D01*
X40477Y-35191D01*
X40321Y-35126D01*
X40152Y-35126D01*
X39995Y-35190D01*
X39876Y-35310D01*
X39811Y-35466D01*
X39811Y-35635D01*
X39875Y-35791D01*
X39995Y-35911D01*
X40151Y-35976D01*
X40320Y-35976D01*
X40476Y-35911D01*
X40596Y-35792D01*
X40661Y-35636D01*
X40661Y-35467D01*
X40661Y-37962D01*
X40512Y-37813D01*
X40310Y-37729D01*
X40091Y-37729D01*
X39889Y-37812D01*
X39734Y-37967D01*
X39650Y-38169D01*
X39650Y-38388D01*
X39734Y-38590D01*
X39872Y-38729D01*
X39851Y-38729D01*
X39759Y-38767D01*
X39688Y-38837D01*
X39650Y-38929D01*
X39650Y-39029D01*
X39650Y-39629D01*
X39688Y-39720D01*
X39758Y-39791D01*
X39850Y-39829D01*
X39950Y-39829D01*
X40550Y-39829D01*
X40642Y-39791D01*
X40712Y-39721D01*
X40750Y-39629D01*
X40750Y-39607D01*
X40888Y-39745D01*
X41090Y-39829D01*
X41309Y-39829D01*
X41511Y-39746D01*
X41666Y-39591D01*
X41700Y-39509D01*
X41734Y-39590D01*
X41888Y-39745D01*
X42090Y-39829D01*
X42309Y-39829D01*
X42511Y-39746D01*
X42666Y-39591D01*
X42700Y-39509D01*
X42734Y-39590D01*
X42888Y-39745D01*
X43090Y-39829D01*
X43309Y-39829D01*
X43511Y-39746D01*
X43666Y-39591D01*
X43700Y-39509D01*
X43734Y-39590D01*
X43888Y-39745D01*
X44090Y-39829D01*
X44309Y-39829D01*
X44511Y-39746D01*
X44666Y-39591D01*
X44700Y-39509D01*
X44734Y-39590D01*
X44888Y-39745D01*
X45090Y-39829D01*
X45309Y-39829D01*
X45511Y-39746D01*
X45666Y-39591D01*
X45700Y-39509D01*
X45734Y-39590D01*
X45888Y-39745D01*
X46090Y-39829D01*
X46309Y-39829D01*
X46511Y-39746D01*
X46666Y-39591D01*
X46700Y-39509D01*
X46734Y-39590D01*
X46888Y-39745D01*
X47090Y-39829D01*
X47309Y-39829D01*
X47511Y-39746D01*
X47666Y-39591D01*
X47750Y-39389D01*
X47750Y-39170D01*
X47750Y-40638D01*
X47632Y-40637D01*
X47476Y-40702D01*
X47356Y-40821D01*
X47291Y-40978D01*
X47291Y-41147D01*
X47356Y-41303D01*
X47475Y-41423D01*
X47631Y-41487D01*
X47800Y-41488D01*
X47956Y-41423D01*
X48076Y-41304D01*
X48141Y-41147D01*
X48141Y-40978D01*
X48141Y-50738D01*
X48102Y-50721D01*
X47883Y-50721D01*
X47680Y-50805D01*
X47526Y-50959D01*
X47442Y-51161D01*
X47442Y-51380D01*
X47525Y-51582D01*
X47664Y-51721D01*
X47642Y-51721D01*
X47550Y-51759D01*
X47480Y-51830D01*
X47442Y-51922D01*
X47442Y-52159D01*
X47504Y-52221D01*
X47892Y-52221D01*
X47942Y-52221D01*
X48042Y-52221D01*
X48092Y-52221D01*
X48479Y-52221D01*
X48542Y-52159D01*
X48542Y-51922D01*
X48504Y-51830D01*
X48433Y-51759D01*
X48342Y-51721D01*
X48319Y-51721D01*
X48458Y-51583D01*
X48542Y-51381D01*
X48542Y-51162D01*
X48542Y-56368D01*
X48542Y-56368D01*
X48542Y-52621D01*
X48542Y-52384D01*
X48479Y-52321D01*
X48042Y-52321D01*
X48042Y-52759D01*
X48104Y-52821D01*
X48242Y-52821D01*
X48342Y-52821D01*
X48433Y-52783D01*
X48504Y-52713D01*
X48542Y-52621D01*
X48542Y-56368D01*
X47942Y-56368D01*
X47942Y-52759D01*
X47942Y-52321D01*
X47504Y-52321D01*
X47442Y-52384D01*
X47442Y-52621D01*
X47480Y-52713D01*
X47550Y-52783D01*
X47642Y-52821D01*
X47741Y-52821D01*
X47879Y-52821D01*
X47942Y-52759D01*
X47942Y-56368D01*
X46921Y-56368D01*
X46921Y-43439D01*
X46856Y-43283D01*
X46737Y-43163D01*
X46580Y-43098D01*
X46411Y-43098D01*
X46255Y-43163D01*
X46135Y-43282D01*
X46071Y-43438D01*
X46070Y-43607D01*
X46135Y-43764D01*
X46255Y-43883D01*
X46411Y-43948D01*
X46580Y-43948D01*
X46736Y-43884D01*
X46856Y-43764D01*
X46920Y-43608D01*
X46921Y-43439D01*
X46921Y-56368D01*
X46330Y-56368D01*
X46330Y-46884D01*
X46266Y-46728D01*
X46146Y-46608D01*
X45990Y-46543D01*
X45821Y-46543D01*
X45720Y-46585D01*
X45720Y-42002D01*
X45655Y-41846D01*
X45536Y-41726D01*
X45380Y-41661D01*
X45211Y-41661D01*
X45054Y-41726D01*
X44935Y-41845D01*
X44870Y-42001D01*
X44870Y-42170D01*
X44934Y-42327D01*
X45054Y-42446D01*
X45210Y-42511D01*
X45379Y-42511D01*
X45535Y-42447D01*
X45655Y-42327D01*
X45720Y-42171D01*
X45720Y-42002D01*
X45720Y-46585D01*
X45665Y-46607D01*
X45545Y-46727D01*
X45480Y-46883D01*
X45480Y-47052D01*
X45545Y-47208D01*
X45664Y-47328D01*
X45820Y-47393D01*
X45989Y-47393D01*
X46145Y-47329D01*
X46265Y-47209D01*
X46330Y-47053D01*
X46330Y-46884D01*
X46330Y-56368D01*
X45751Y-56368D01*
X45751Y-50361D01*
X45740Y-50142D01*
X45678Y-49991D01*
X45582Y-49964D01*
X45512Y-50035D01*
X45512Y-49893D01*
X45484Y-49798D01*
X45464Y-49791D01*
X45464Y-45033D01*
X45399Y-44877D01*
X45280Y-44758D01*
X45124Y-44693D01*
X44987Y-44693D01*
X44988Y-44612D01*
X44923Y-44456D01*
X44804Y-44336D01*
X44647Y-44271D01*
X44627Y-44271D01*
X44674Y-44252D01*
X44794Y-44132D01*
X44859Y-43976D01*
X44859Y-43807D01*
X44794Y-43651D01*
X44675Y-43531D01*
X44519Y-43466D01*
X44350Y-43466D01*
X44193Y-43531D01*
X44107Y-43617D01*
X44099Y-43608D01*
X43943Y-43543D01*
X43774Y-43543D01*
X43617Y-43607D01*
X43596Y-43628D01*
X43602Y-43616D01*
X43602Y-43447D01*
X43537Y-43291D01*
X43418Y-43171D01*
X43262Y-43106D01*
X43102Y-43106D01*
X43102Y-40978D01*
X43037Y-40822D01*
X42918Y-40702D01*
X42762Y-40638D01*
X42592Y-40637D01*
X42436Y-40702D01*
X42317Y-40821D01*
X42252Y-40978D01*
X42252Y-41147D01*
X42316Y-41303D01*
X42436Y-41423D01*
X42592Y-41487D01*
X42761Y-41488D01*
X42917Y-41423D01*
X43037Y-41304D01*
X43102Y-41147D01*
X43102Y-40978D01*
X43102Y-43106D01*
X43092Y-43106D01*
X42936Y-43170D01*
X42924Y-43183D01*
X42870Y-43054D01*
X42751Y-42934D01*
X42595Y-42869D01*
X42426Y-42869D01*
X42269Y-42933D01*
X42150Y-43053D01*
X42085Y-43209D01*
X42085Y-43378D01*
X42149Y-43534D01*
X42269Y-43654D01*
X42425Y-43719D01*
X42594Y-43719D01*
X42750Y-43654D01*
X42763Y-43642D01*
X42816Y-43771D01*
X42936Y-43891D01*
X43092Y-43956D01*
X43261Y-43956D01*
X43417Y-43892D01*
X43438Y-43871D01*
X43433Y-43883D01*
X43433Y-44002D01*
X43364Y-43973D01*
X43195Y-43973D01*
X43039Y-44038D01*
X42919Y-44157D01*
X42854Y-44313D01*
X42854Y-44398D01*
X42836Y-44391D01*
X42667Y-44391D01*
X42510Y-44455D01*
X42391Y-44575D01*
X42326Y-44731D01*
X42326Y-44900D01*
X42390Y-45056D01*
X42510Y-45176D01*
X42666Y-45241D01*
X42835Y-45241D01*
X42991Y-45176D01*
X43111Y-45057D01*
X43176Y-44901D01*
X43176Y-44816D01*
X43194Y-44823D01*
X43363Y-44823D01*
X43519Y-44759D01*
X43639Y-44639D01*
X43704Y-44483D01*
X43704Y-44364D01*
X43773Y-44393D01*
X43942Y-44393D01*
X44098Y-44329D01*
X44184Y-44243D01*
X44193Y-44251D01*
X44349Y-44316D01*
X44370Y-44316D01*
X44322Y-44336D01*
X44202Y-44455D01*
X44138Y-44611D01*
X44137Y-44781D01*
X44202Y-44937D01*
X44321Y-45056D01*
X44478Y-45121D01*
X44614Y-45121D01*
X44614Y-45202D01*
X44678Y-45358D01*
X44798Y-45478D01*
X44954Y-45543D01*
X45123Y-45543D01*
X45279Y-45478D01*
X45399Y-45359D01*
X45464Y-45203D01*
X45464Y-45033D01*
X45464Y-49791D01*
X45278Y-49724D01*
X45060Y-49735D01*
X44908Y-49798D01*
X44881Y-49893D01*
X45196Y-50208D01*
X45512Y-49893D01*
X45512Y-50035D01*
X45267Y-50279D01*
X45582Y-50594D01*
X45678Y-50567D01*
X45751Y-50361D01*
X45751Y-56368D01*
X45746Y-56368D01*
X45746Y-51170D01*
X45663Y-50968D01*
X45508Y-50813D01*
X45433Y-50782D01*
X45484Y-50760D01*
X45512Y-50665D01*
X45196Y-50350D01*
X45126Y-50420D01*
X45126Y-50279D01*
X44810Y-49964D01*
X44715Y-49991D01*
X44642Y-50197D01*
X44653Y-50416D01*
X44715Y-50567D01*
X44810Y-50594D01*
X45126Y-50279D01*
X45126Y-50420D01*
X44881Y-50665D01*
X44908Y-50760D01*
X44964Y-50780D01*
X44885Y-50812D01*
X44730Y-50967D01*
X44646Y-51169D01*
X44646Y-51388D01*
X44730Y-51590D01*
X44868Y-51729D01*
X44847Y-51729D01*
X44755Y-51767D01*
X44685Y-51837D01*
X44646Y-51929D01*
X44646Y-52029D01*
X44646Y-52629D01*
X44684Y-52720D01*
X44755Y-52791D01*
X44846Y-52829D01*
X44946Y-52829D01*
X45546Y-52829D01*
X45638Y-52791D01*
X45708Y-52721D01*
X45746Y-52629D01*
X45746Y-52530D01*
X45746Y-51930D01*
X45708Y-51838D01*
X45638Y-51767D01*
X45546Y-51729D01*
X45524Y-51729D01*
X45662Y-51591D01*
X45746Y-51389D01*
X45746Y-51170D01*
X45746Y-56368D01*
X42759Y-56368D01*
X42759Y-50361D01*
X42748Y-50142D01*
X42685Y-49991D01*
X42590Y-49964D01*
X42519Y-50035D01*
X42519Y-49893D01*
X42492Y-49798D01*
X42286Y-49724D01*
X42067Y-49735D01*
X41916Y-49798D01*
X41889Y-49893D01*
X42204Y-50208D01*
X42519Y-49893D01*
X42519Y-50035D01*
X42275Y-50279D01*
X42590Y-50594D01*
X42685Y-50567D01*
X42759Y-50361D01*
X42759Y-56368D01*
X42754Y-56368D01*
X42754Y-51170D01*
X42671Y-50968D01*
X42516Y-50813D01*
X42441Y-50782D01*
X42492Y-50760D01*
X42519Y-50665D01*
X42204Y-50350D01*
X42134Y-50420D01*
X42134Y-50279D01*
X41818Y-49964D01*
X41723Y-49991D01*
X41649Y-50197D01*
X41660Y-50416D01*
X41723Y-50567D01*
X41818Y-50594D01*
X42134Y-50279D01*
X42134Y-50420D01*
X41889Y-50665D01*
X41916Y-50760D01*
X41972Y-50780D01*
X41893Y-50812D01*
X41738Y-50967D01*
X41654Y-51169D01*
X41654Y-51388D01*
X41738Y-51590D01*
X41876Y-51729D01*
X41855Y-51729D01*
X41763Y-51767D01*
X41692Y-51837D01*
X41654Y-51929D01*
X41654Y-52029D01*
X41654Y-52629D01*
X41692Y-52720D01*
X41762Y-52791D01*
X41854Y-52829D01*
X41954Y-52829D01*
X42554Y-52829D01*
X42646Y-52791D01*
X42716Y-52721D01*
X42754Y-52629D01*
X42754Y-52530D01*
X42754Y-51930D01*
X42716Y-51838D01*
X42646Y-51767D01*
X42554Y-51729D01*
X42532Y-51729D01*
X42670Y-51591D01*
X42754Y-51389D01*
X42754Y-51170D01*
X42754Y-56368D01*
X40936Y-56368D01*
X40936Y-43379D01*
X40871Y-43223D01*
X40752Y-43103D01*
X40595Y-43038D01*
X40426Y-43038D01*
X40270Y-43103D01*
X40150Y-43222D01*
X40086Y-43378D01*
X40085Y-43547D01*
X40150Y-43704D01*
X40269Y-43823D01*
X40426Y-43888D01*
X40595Y-43888D01*
X40751Y-43824D01*
X40871Y-43704D01*
X40935Y-43548D01*
X40936Y-43379D01*
X40936Y-56368D01*
X40047Y-56368D01*
X40047Y-44289D01*
X39982Y-44133D01*
X39913Y-44064D01*
X39913Y-41215D01*
X39848Y-41058D01*
X39729Y-40939D01*
X39573Y-40874D01*
X39488Y-40874D01*
X39488Y-38825D01*
X39423Y-38669D01*
X39304Y-38549D01*
X39147Y-38484D01*
X39093Y-38484D01*
X39093Y-20052D01*
X39029Y-19896D01*
X38909Y-19776D01*
X38753Y-19711D01*
X38584Y-19711D01*
X38428Y-19775D01*
X38339Y-19864D01*
X38233Y-19758D01*
X38077Y-19693D01*
X37907Y-19693D01*
X37751Y-19757D01*
X37745Y-19763D01*
X37740Y-19757D01*
X37584Y-19692D01*
X37414Y-19692D01*
X37343Y-19721D01*
X37242Y-19620D01*
X37086Y-19556D01*
X36917Y-19555D01*
X36761Y-19620D01*
X36641Y-19739D01*
X36576Y-19896D01*
X36576Y-20065D01*
X36641Y-20221D01*
X36760Y-20341D01*
X36916Y-20405D01*
X37085Y-20406D01*
X37157Y-20376D01*
X37258Y-20477D01*
X37414Y-20542D01*
X37583Y-20542D01*
X37739Y-20478D01*
X37745Y-20472D01*
X37751Y-20478D01*
X37907Y-20543D01*
X38076Y-20543D01*
X38232Y-20478D01*
X38321Y-20389D01*
X38427Y-20496D01*
X38583Y-20561D01*
X38753Y-20561D01*
X38909Y-20496D01*
X39028Y-20377D01*
X39093Y-20221D01*
X39093Y-20052D01*
X39093Y-38484D01*
X38978Y-38484D01*
X38909Y-38513D01*
X38909Y-23470D01*
X38844Y-23314D01*
X38725Y-23195D01*
X38569Y-23130D01*
X38400Y-23130D01*
X38243Y-23194D01*
X38124Y-23314D01*
X38059Y-23470D01*
X38059Y-23639D01*
X38123Y-23795D01*
X38131Y-23803D01*
X38025Y-23908D01*
X37988Y-23999D01*
X37988Y-22352D01*
X37923Y-22196D01*
X37804Y-22076D01*
X37647Y-22012D01*
X37478Y-22011D01*
X37322Y-22076D01*
X37236Y-22162D01*
X37236Y-22081D01*
X37171Y-21924D01*
X37145Y-21899D01*
X37145Y-20902D01*
X37081Y-20746D01*
X36961Y-20627D01*
X36805Y-20562D01*
X36636Y-20562D01*
X36480Y-20626D01*
X36360Y-20746D01*
X36295Y-20902D01*
X36295Y-21071D01*
X36360Y-21227D01*
X36479Y-21347D01*
X36635Y-21412D01*
X36804Y-21412D01*
X36961Y-21347D01*
X37080Y-21228D01*
X37145Y-21072D01*
X37145Y-20902D01*
X37145Y-21899D01*
X37052Y-21805D01*
X36895Y-21740D01*
X36726Y-21740D01*
X36600Y-21792D01*
X36594Y-21786D01*
X36437Y-21721D01*
X36268Y-21721D01*
X36112Y-21785D01*
X35992Y-21905D01*
X35928Y-22061D01*
X35927Y-22230D01*
X35992Y-22386D01*
X36112Y-22506D01*
X36268Y-22571D01*
X36437Y-22571D01*
X36563Y-22519D01*
X36569Y-22525D01*
X36658Y-22562D01*
X36610Y-22678D01*
X36610Y-22847D01*
X36674Y-23004D01*
X36794Y-23123D01*
X36950Y-23188D01*
X37119Y-23188D01*
X37275Y-23124D01*
X37395Y-23004D01*
X37458Y-22853D01*
X37478Y-22861D01*
X37647Y-22862D01*
X37803Y-22797D01*
X37923Y-22678D01*
X37987Y-22521D01*
X37988Y-22352D01*
X37988Y-23999D01*
X37960Y-24064D01*
X37960Y-24233D01*
X38025Y-24390D01*
X38054Y-24419D01*
X38009Y-24463D01*
X37945Y-24619D01*
X37945Y-24788D01*
X38009Y-24945D01*
X38129Y-25064D01*
X38285Y-25129D01*
X38454Y-25129D01*
X38610Y-25065D01*
X38730Y-24945D01*
X38795Y-24789D01*
X38795Y-24620D01*
X38730Y-24464D01*
X38701Y-24435D01*
X38745Y-24390D01*
X38810Y-24234D01*
X38810Y-24065D01*
X38746Y-23909D01*
X38738Y-23901D01*
X38844Y-23796D01*
X38909Y-23640D01*
X38909Y-23470D01*
X38909Y-38513D01*
X38822Y-38548D01*
X38702Y-38668D01*
X38638Y-38824D01*
X38637Y-38993D01*
X38702Y-39149D01*
X38821Y-39269D01*
X38978Y-39334D01*
X39147Y-39334D01*
X39303Y-39269D01*
X39423Y-39150D01*
X39487Y-38994D01*
X39488Y-38825D01*
X39488Y-40874D01*
X39404Y-40874D01*
X39247Y-40938D01*
X39128Y-41058D01*
X39063Y-41214D01*
X39063Y-41383D01*
X39127Y-41539D01*
X39247Y-41659D01*
X39403Y-41724D01*
X39572Y-41724D01*
X39728Y-41659D01*
X39848Y-41540D01*
X39913Y-41384D01*
X39913Y-41215D01*
X39913Y-44064D01*
X39863Y-44013D01*
X39706Y-43949D01*
X39537Y-43948D01*
X39381Y-44013D01*
X39261Y-44132D01*
X39197Y-44289D01*
X39196Y-44458D01*
X39261Y-44614D01*
X39380Y-44734D01*
X39537Y-44798D01*
X39706Y-44799D01*
X39862Y-44734D01*
X39982Y-44615D01*
X40046Y-44458D01*
X40047Y-44289D01*
X40047Y-56368D01*
X36566Y-56368D01*
X36566Y-31293D01*
X36502Y-31137D01*
X36382Y-31017D01*
X36226Y-30953D01*
X36057Y-30952D01*
X35901Y-31017D01*
X35781Y-31136D01*
X35775Y-31151D01*
X35654Y-31030D01*
X35452Y-30946D01*
X35451Y-30946D01*
X35653Y-30862D01*
X35808Y-30708D01*
X35892Y-30505D01*
X35892Y-30287D01*
X35809Y-30084D01*
X35654Y-29930D01*
X35452Y-29846D01*
X35391Y-29846D01*
X35692Y-29846D01*
X35783Y-29808D01*
X35854Y-29737D01*
X35892Y-29646D01*
X35892Y-29546D01*
X35892Y-28946D01*
X35854Y-28854D01*
X35844Y-28844D01*
X35844Y-21434D01*
X35775Y-21268D01*
X35649Y-21141D01*
X35483Y-21072D01*
X35304Y-21072D01*
X35138Y-21140D01*
X35011Y-21267D01*
X34942Y-21433D01*
X34942Y-21612D01*
X35010Y-21778D01*
X35137Y-21905D01*
X35303Y-21974D01*
X35482Y-21974D01*
X35648Y-21906D01*
X35775Y-21779D01*
X35844Y-21613D01*
X35844Y-21434D01*
X35844Y-28844D01*
X35784Y-28784D01*
X35692Y-28746D01*
X35593Y-28746D01*
X35342Y-28746D01*
X35342Y-26248D01*
X35190Y-25880D01*
X34909Y-25598D01*
X34750Y-25532D01*
X34750Y-24317D01*
X34750Y-23717D01*
X34712Y-23625D01*
X34642Y-23555D01*
X34550Y-23516D01*
X34451Y-23516D01*
X33951Y-23516D01*
X33951Y-18723D01*
X33817Y-18400D01*
X33570Y-18152D01*
X33246Y-18018D01*
X32896Y-18017D01*
X32573Y-18151D01*
X32325Y-18398D01*
X32191Y-18722D01*
X32190Y-19072D01*
X32324Y-19395D01*
X32571Y-19643D01*
X32895Y-19777D01*
X33245Y-19778D01*
X33568Y-19644D01*
X33816Y-19397D01*
X33950Y-19073D01*
X33951Y-18723D01*
X33951Y-23516D01*
X33851Y-23516D01*
X33759Y-23554D01*
X33688Y-23625D01*
X33650Y-23716D01*
X33650Y-23770D01*
X33586Y-23751D01*
X33515Y-23822D01*
X33515Y-23681D01*
X33488Y-23585D01*
X33282Y-23512D01*
X33064Y-23523D01*
X32912Y-23585D01*
X32885Y-23681D01*
X33200Y-23996D01*
X33515Y-23681D01*
X33515Y-23822D01*
X33271Y-24066D01*
X33586Y-24382D01*
X33650Y-24363D01*
X33650Y-24416D01*
X33688Y-24508D01*
X33758Y-24578D01*
X33850Y-24616D01*
X33950Y-24616D01*
X34550Y-24616D01*
X34642Y-24578D01*
X34712Y-24508D01*
X34750Y-24416D01*
X34750Y-24317D01*
X34750Y-25532D01*
X34542Y-25446D01*
X34144Y-25445D01*
X33776Y-25597D01*
X33515Y-25858D01*
X33515Y-24452D01*
X33200Y-24137D01*
X33130Y-24208D01*
X33130Y-24066D01*
X32814Y-23751D01*
X32719Y-23779D01*
X32646Y-23985D01*
X32656Y-24203D01*
X32719Y-24354D01*
X32814Y-24382D01*
X33130Y-24066D01*
X33130Y-24208D01*
X32885Y-24452D01*
X32912Y-24548D01*
X33119Y-24621D01*
X33337Y-24610D01*
X33488Y-24548D01*
X33515Y-24452D01*
X33515Y-25858D01*
X33495Y-25878D01*
X33342Y-26246D01*
X33342Y-26644D01*
X33494Y-27011D01*
X33775Y-27293D01*
X34142Y-27445D01*
X34540Y-27446D01*
X34908Y-27294D01*
X35189Y-27013D01*
X35342Y-26645D01*
X35342Y-26248D01*
X35342Y-28746D01*
X34993Y-28746D01*
X34901Y-28783D01*
X34830Y-28854D01*
X34792Y-28946D01*
X34792Y-29045D01*
X34792Y-29518D01*
X34654Y-29380D01*
X34452Y-29296D01*
X34233Y-29295D01*
X34031Y-29379D01*
X33876Y-29534D01*
X33792Y-29736D01*
X33792Y-29954D01*
X33875Y-30157D01*
X34030Y-30312D01*
X34232Y-30395D01*
X34451Y-30396D01*
X34233Y-30395D01*
X34031Y-30479D01*
X33876Y-30634D01*
X33792Y-30836D01*
X33792Y-31054D01*
X33875Y-31257D01*
X34030Y-31412D01*
X34172Y-31471D01*
X34031Y-31529D01*
X33876Y-31684D01*
X33792Y-31886D01*
X33792Y-32104D01*
X33875Y-32307D01*
X34030Y-32462D01*
X34232Y-32545D01*
X34451Y-32546D01*
X34233Y-32545D01*
X34031Y-32629D01*
X33876Y-32784D01*
X33792Y-32986D01*
X33792Y-33204D01*
X33875Y-33407D01*
X34030Y-33562D01*
X34232Y-33645D01*
X34451Y-33646D01*
X34653Y-33562D01*
X34808Y-33408D01*
X34892Y-33205D01*
X34892Y-32987D01*
X34809Y-32784D01*
X34654Y-32630D01*
X34452Y-32546D01*
X34451Y-32546D01*
X34653Y-32462D01*
X34808Y-32308D01*
X34892Y-32105D01*
X34892Y-31887D01*
X34809Y-31684D01*
X34654Y-31530D01*
X34512Y-31471D01*
X34653Y-31412D01*
X34808Y-31258D01*
X34892Y-31055D01*
X34892Y-30837D01*
X34809Y-30634D01*
X34654Y-30480D01*
X34452Y-30396D01*
X34451Y-30396D01*
X34653Y-30312D01*
X34808Y-30158D01*
X34892Y-29955D01*
X34892Y-29799D01*
X34900Y-29807D01*
X34992Y-29846D01*
X35092Y-29846D01*
X35233Y-29846D01*
X35031Y-29929D01*
X34876Y-30084D01*
X34792Y-30286D01*
X34792Y-30504D01*
X34875Y-30707D01*
X35030Y-30862D01*
X35232Y-30945D01*
X35451Y-30946D01*
X35233Y-30945D01*
X35031Y-31029D01*
X34876Y-31184D01*
X34792Y-31386D01*
X34792Y-31604D01*
X34875Y-31807D01*
X35030Y-31962D01*
X35172Y-32021D01*
X35031Y-32079D01*
X34876Y-32234D01*
X34792Y-32436D01*
X34792Y-32654D01*
X34875Y-32857D01*
X35030Y-33012D01*
X35232Y-33095D01*
X35329Y-33096D01*
X35205Y-33102D01*
X35054Y-33164D01*
X35027Y-33260D01*
X35342Y-33575D01*
X35657Y-33260D01*
X35630Y-33164D01*
X35437Y-33096D01*
X35451Y-33096D01*
X35653Y-33012D01*
X35808Y-32858D01*
X35892Y-32655D01*
X35892Y-32437D01*
X35809Y-32234D01*
X35654Y-32080D01*
X35512Y-32021D01*
X35653Y-31962D01*
X35808Y-31808D01*
X35856Y-31693D01*
X35900Y-31738D01*
X36056Y-31802D01*
X36225Y-31803D01*
X36382Y-31738D01*
X36501Y-31619D01*
X36566Y-31462D01*
X36566Y-31293D01*
X36566Y-56368D01*
X35897Y-56368D01*
X35897Y-44062D01*
X35897Y-33727D01*
X35886Y-33509D01*
X35823Y-33358D01*
X35728Y-33330D01*
X35413Y-33646D01*
X35728Y-33961D01*
X35823Y-33933D01*
X35897Y-33727D01*
X35897Y-44062D01*
X35886Y-43844D01*
X35823Y-43693D01*
X35728Y-43665D01*
X35657Y-43736D01*
X35657Y-43595D01*
X35657Y-34031D01*
X35342Y-33716D01*
X35271Y-33787D01*
X35271Y-33646D01*
X34956Y-33330D01*
X34861Y-33358D01*
X34787Y-33564D01*
X34798Y-33782D01*
X34861Y-33933D01*
X34956Y-33961D01*
X35271Y-33646D01*
X35271Y-33787D01*
X35027Y-34031D01*
X35054Y-34127D01*
X35260Y-34200D01*
X35479Y-34189D01*
X35630Y-34127D01*
X35657Y-34031D01*
X35657Y-43595D01*
X35630Y-43499D01*
X35424Y-43426D01*
X35342Y-43430D01*
X35342Y-40933D01*
X35342Y-36248D01*
X35190Y-35880D01*
X34909Y-35598D01*
X34542Y-35446D01*
X34144Y-35445D01*
X33776Y-35597D01*
X33495Y-35878D01*
X33342Y-36246D01*
X33342Y-36644D01*
X33494Y-37011D01*
X33775Y-37293D01*
X34142Y-37445D01*
X34540Y-37446D01*
X34908Y-37294D01*
X35189Y-37013D01*
X35342Y-36645D01*
X35342Y-36248D01*
X35342Y-40933D01*
X35190Y-40565D01*
X34909Y-40283D01*
X34542Y-40131D01*
X34144Y-40130D01*
X33776Y-40282D01*
X33495Y-40563D01*
X33342Y-40931D01*
X33342Y-41329D01*
X33494Y-41696D01*
X33775Y-41978D01*
X34142Y-42130D01*
X34540Y-42131D01*
X34908Y-41979D01*
X35189Y-41698D01*
X35342Y-41330D01*
X35342Y-40933D01*
X35342Y-43430D01*
X35205Y-43437D01*
X35054Y-43499D01*
X35027Y-43595D01*
X35342Y-43910D01*
X35657Y-43595D01*
X35657Y-43736D01*
X35413Y-43981D01*
X35728Y-44296D01*
X35823Y-44268D01*
X35897Y-44062D01*
X35897Y-56368D01*
X35892Y-56368D01*
X35892Y-47122D01*
X35809Y-46919D01*
X35654Y-46765D01*
X35512Y-46706D01*
X35653Y-46647D01*
X35808Y-46493D01*
X35892Y-46290D01*
X35892Y-46072D01*
X35809Y-45869D01*
X35654Y-45715D01*
X35452Y-45631D01*
X35451Y-45631D01*
X35653Y-45547D01*
X35808Y-45393D01*
X35892Y-45190D01*
X35892Y-44972D01*
X35809Y-44769D01*
X35654Y-44615D01*
X35452Y-44531D01*
X35356Y-44531D01*
X35479Y-44524D01*
X35630Y-44462D01*
X35657Y-44367D01*
X35342Y-44051D01*
X35271Y-44122D01*
X35271Y-43981D01*
X34956Y-43665D01*
X34861Y-43693D01*
X34787Y-43899D01*
X34798Y-44117D01*
X34861Y-44268D01*
X34956Y-44296D01*
X35271Y-43981D01*
X35271Y-44122D01*
X35027Y-44367D01*
X35054Y-44462D01*
X35247Y-44531D01*
X35233Y-44531D01*
X35031Y-44614D01*
X34876Y-44769D01*
X34792Y-44971D01*
X34792Y-45190D01*
X34875Y-45392D01*
X35030Y-45547D01*
X35232Y-45631D01*
X35451Y-45631D01*
X35233Y-45631D01*
X35031Y-45714D01*
X34876Y-45869D01*
X34792Y-46071D01*
X34792Y-46290D01*
X34875Y-46492D01*
X35030Y-46647D01*
X35172Y-46706D01*
X35031Y-46764D01*
X34876Y-46919D01*
X34792Y-47121D01*
X34792Y-47340D01*
X34875Y-47542D01*
X35030Y-47697D01*
X35232Y-47781D01*
X35293Y-47781D01*
X34993Y-47781D01*
X34901Y-47819D01*
X34892Y-47827D01*
X34892Y-47672D01*
X34809Y-47469D01*
X34654Y-47315D01*
X34452Y-47231D01*
X34451Y-47231D01*
X34653Y-47147D01*
X34808Y-46993D01*
X34892Y-46790D01*
X34892Y-46572D01*
X34809Y-46369D01*
X34654Y-46215D01*
X34512Y-46156D01*
X34653Y-46097D01*
X34808Y-45943D01*
X34892Y-45740D01*
X34892Y-45522D01*
X34809Y-45319D01*
X34654Y-45165D01*
X34452Y-45081D01*
X34451Y-45081D01*
X34653Y-44997D01*
X34808Y-44843D01*
X34892Y-44640D01*
X34892Y-44422D01*
X34809Y-44219D01*
X34654Y-44065D01*
X34452Y-43981D01*
X34233Y-43981D01*
X34031Y-44064D01*
X33876Y-44219D01*
X33792Y-44421D01*
X33792Y-44640D01*
X33875Y-44842D01*
X34030Y-44997D01*
X34232Y-45081D01*
X34451Y-45081D01*
X34233Y-45081D01*
X34031Y-45164D01*
X33876Y-45319D01*
X33792Y-45521D01*
X33792Y-45740D01*
X33875Y-45942D01*
X34030Y-46097D01*
X34172Y-46156D01*
X34031Y-46214D01*
X33876Y-46369D01*
X33792Y-46571D01*
X33792Y-46790D01*
X33875Y-46992D01*
X34030Y-47147D01*
X34232Y-47231D01*
X34451Y-47231D01*
X34233Y-47231D01*
X34031Y-47314D01*
X33876Y-47469D01*
X33792Y-47671D01*
X33792Y-47890D01*
X33875Y-48092D01*
X34030Y-48247D01*
X34232Y-48331D01*
X34451Y-48331D01*
X34653Y-48247D01*
X34792Y-48109D01*
X34792Y-48680D01*
X34830Y-48772D01*
X34900Y-48842D01*
X34992Y-48881D01*
X35092Y-48881D01*
X35692Y-48881D01*
X35783Y-48843D01*
X35854Y-48772D01*
X35892Y-48681D01*
X35892Y-48581D01*
X35892Y-47981D01*
X35854Y-47889D01*
X35784Y-47819D01*
X35692Y-47781D01*
X35593Y-47781D01*
X35451Y-47781D01*
X35653Y-47697D01*
X35808Y-47543D01*
X35892Y-47340D01*
X35892Y-47122D01*
X35892Y-56368D01*
X35342Y-56368D01*
X35342Y-50933D01*
X35190Y-50565D01*
X34909Y-50283D01*
X34542Y-50131D01*
X34144Y-50130D01*
X33776Y-50282D01*
X33495Y-50563D01*
X33342Y-50931D01*
X33342Y-51329D01*
X33494Y-51696D01*
X33775Y-51978D01*
X34142Y-52130D01*
X34540Y-52131D01*
X34908Y-51979D01*
X35189Y-51698D01*
X35342Y-51330D01*
X35342Y-50933D01*
X35342Y-56368D01*
X33951Y-56368D01*
X33951Y-54943D01*
X33817Y-54620D01*
X33570Y-54372D01*
X33246Y-54238D01*
X32896Y-54237D01*
X32573Y-54371D01*
X32325Y-54618D01*
X32191Y-54942D01*
X32190Y-55292D01*
X32324Y-55615D01*
X32571Y-55863D01*
X32895Y-55997D01*
X33245Y-55998D01*
X33568Y-55864D01*
X33816Y-55617D01*
X33950Y-55293D01*
X33951Y-54943D01*
X33951Y-56368D01*
X33100Y-56368D01*
X32596Y-56267D01*
X32190Y-55996D01*
X31922Y-55595D01*
X31821Y-55085D01*
X31821Y-18930D01*
X31922Y-18420D01*
X32190Y-18019D01*
X32596Y-17748D01*
X33100Y-17648D01*
X69258Y-17648D01*
X69768Y-17749D01*
X70169Y-18017D01*
X70440Y-18423D01*
X70541Y-18927D01*
X70541Y-55088D01*
M02*
