G04 (created by PCBNEW (2013-05-09 BZR 4147)-testing) date 20/07/2013 09:35:41*
%MOIN*%
G04 Gerber Fmt 3.4, Leading zero omitted, Abs format*
%FSLAX34Y34*%
G01*
G70*
G90*
G04 APERTURE LIST*
%ADD10C,0.005906*%
%ADD11R,0.011800X0.057100*%
%ADD12R,0.100000X0.016900*%
%ADD13R,0.185000X0.016900*%
%ADD14C,0.150000*%
%ADD15R,0.060000X0.060000*%
%ADD16C,0.060000*%
%ADD17C,0.035000*%
%ADD18C,0.007000*%
%ADD19C,0.012000*%
%ADD20C,0.010000*%
G04 APERTURE END LIST*
G54D10*
G54D11*
X36496Y-21523D03*
X36496Y-19421D03*
X36693Y-21523D03*
X36693Y-19421D03*
X36889Y-21523D03*
X36889Y-19421D03*
X37086Y-21523D03*
X37086Y-19421D03*
X37283Y-21523D03*
X37283Y-19421D03*
X37480Y-21523D03*
X37480Y-19421D03*
X37677Y-21523D03*
X37677Y-19421D03*
X37874Y-21523D03*
X37874Y-19421D03*
X38070Y-21523D03*
X38070Y-19421D03*
X38267Y-21523D03*
X38267Y-19421D03*
X38464Y-21523D03*
X38464Y-19421D03*
X38661Y-21523D03*
X38661Y-19421D03*
X38858Y-21523D03*
X38858Y-19421D03*
X39055Y-21523D03*
X39055Y-19421D03*
X39252Y-21523D03*
X39252Y-19421D03*
X39448Y-21523D03*
X39448Y-19421D03*
X39645Y-21523D03*
X39645Y-19421D03*
X39842Y-21523D03*
X39842Y-19421D03*
X40039Y-21523D03*
X40039Y-19421D03*
X40236Y-21523D03*
X40236Y-19421D03*
X40433Y-21523D03*
X40433Y-19421D03*
X40630Y-21523D03*
X40630Y-19421D03*
X40826Y-21523D03*
X40826Y-19421D03*
X41023Y-21523D03*
X41023Y-19421D03*
X41220Y-21523D03*
X41220Y-19421D03*
X41417Y-21523D03*
X41417Y-19421D03*
X41614Y-21523D03*
X41614Y-19421D03*
X41811Y-21523D03*
X41811Y-19421D03*
X42007Y-21523D03*
X42007Y-19421D03*
X42204Y-21523D03*
X42204Y-19421D03*
G54D12*
X36175Y-20472D03*
G54D13*
X38100Y-20472D03*
X40600Y-20472D03*
G54D12*
X42525Y-20472D03*
G54D11*
X44370Y-21523D03*
X44370Y-19421D03*
X44567Y-21523D03*
X44567Y-19421D03*
X44763Y-21523D03*
X44763Y-19421D03*
X44960Y-21523D03*
X44960Y-19421D03*
X45157Y-21523D03*
X45157Y-19421D03*
X45354Y-21523D03*
X45354Y-19421D03*
X45551Y-21523D03*
X45551Y-19421D03*
X45748Y-21523D03*
X45748Y-19421D03*
X45944Y-21523D03*
X45944Y-19421D03*
X46141Y-21523D03*
X46141Y-19421D03*
X46338Y-21523D03*
X46338Y-19421D03*
X46535Y-21523D03*
X46535Y-19421D03*
X46732Y-21523D03*
X46732Y-19421D03*
X46929Y-21523D03*
X46929Y-19421D03*
X47126Y-21523D03*
X47126Y-19421D03*
X47322Y-21523D03*
X47322Y-19421D03*
X47519Y-21523D03*
X47519Y-19421D03*
X47716Y-21523D03*
X47716Y-19421D03*
X47913Y-21523D03*
X47913Y-19421D03*
X48110Y-21523D03*
X48110Y-19421D03*
X48307Y-21523D03*
X48307Y-19421D03*
X48504Y-21523D03*
X48504Y-19421D03*
X48700Y-21523D03*
X48700Y-19421D03*
X48897Y-21523D03*
X48897Y-19421D03*
X49094Y-21523D03*
X49094Y-19421D03*
X49291Y-21523D03*
X49291Y-19421D03*
X49488Y-21523D03*
X49488Y-19421D03*
X49685Y-21523D03*
X49685Y-19421D03*
X49881Y-21523D03*
X49881Y-19421D03*
X50078Y-21523D03*
X50078Y-19421D03*
G54D12*
X44049Y-20472D03*
G54D13*
X45974Y-20472D03*
X48474Y-20472D03*
G54D12*
X50399Y-20472D03*
G54D11*
X52244Y-21523D03*
X52244Y-19421D03*
X52441Y-21523D03*
X52441Y-19421D03*
X52637Y-21523D03*
X52637Y-19421D03*
X52834Y-21523D03*
X52834Y-19421D03*
X53031Y-21523D03*
X53031Y-19421D03*
X53228Y-21523D03*
X53228Y-19421D03*
X53425Y-21523D03*
X53425Y-19421D03*
X53622Y-21523D03*
X53622Y-19421D03*
X53818Y-21523D03*
X53818Y-19421D03*
X54015Y-21523D03*
X54015Y-19421D03*
X54212Y-21523D03*
X54212Y-19421D03*
X54409Y-21523D03*
X54409Y-19421D03*
X54606Y-21523D03*
X54606Y-19421D03*
X54803Y-21523D03*
X54803Y-19421D03*
X55000Y-21523D03*
X55000Y-19421D03*
X55196Y-21523D03*
X55196Y-19421D03*
X55393Y-21523D03*
X55393Y-19421D03*
X55590Y-21523D03*
X55590Y-19421D03*
X55787Y-21523D03*
X55787Y-19421D03*
X55984Y-21523D03*
X55984Y-19421D03*
X56181Y-21523D03*
X56181Y-19421D03*
X56378Y-21523D03*
X56378Y-19421D03*
X56574Y-21523D03*
X56574Y-19421D03*
X56771Y-21523D03*
X56771Y-19421D03*
X56968Y-21523D03*
X56968Y-19421D03*
X57165Y-21523D03*
X57165Y-19421D03*
X57362Y-21523D03*
X57362Y-19421D03*
X57559Y-21523D03*
X57559Y-19421D03*
X57755Y-21523D03*
X57755Y-19421D03*
X57952Y-21523D03*
X57952Y-19421D03*
G54D12*
X51923Y-20472D03*
G54D13*
X53848Y-20472D03*
X56348Y-20472D03*
G54D12*
X58273Y-20472D03*
G54D14*
X34342Y-26446D03*
X34342Y-36446D03*
G54D15*
X35342Y-29296D03*
G54D16*
X35342Y-30396D03*
X35342Y-31496D03*
X35342Y-32546D03*
X35342Y-33646D03*
X34342Y-33096D03*
X34342Y-31996D03*
X34342Y-30946D03*
X34342Y-29846D03*
G54D14*
X34342Y-41131D03*
X34342Y-51131D03*
G54D15*
X35342Y-48331D03*
G54D16*
X35342Y-47231D03*
X35342Y-46181D03*
X35342Y-45081D03*
X35342Y-43981D03*
X34342Y-47781D03*
X34342Y-46681D03*
X34342Y-45631D03*
X34342Y-44531D03*
G54D15*
X40200Y-39279D03*
G54D16*
X40200Y-38279D03*
X41200Y-39279D03*
X41200Y-38279D03*
X42200Y-39279D03*
X42200Y-38279D03*
X43200Y-39279D03*
X43200Y-38279D03*
X44200Y-39279D03*
X44200Y-38279D03*
X45200Y-39279D03*
X45200Y-38279D03*
X46200Y-39279D03*
X46200Y-38279D03*
X47200Y-39279D03*
X47200Y-38279D03*
G54D15*
X42204Y-52279D03*
G54D16*
X42204Y-51279D03*
X42204Y-50279D03*
G54D15*
X47200Y-28279D03*
G54D16*
X48200Y-28279D03*
X49200Y-28279D03*
G54D15*
X47200Y-31279D03*
G54D16*
X48200Y-31279D03*
X49200Y-31279D03*
G54D15*
X45196Y-52279D03*
G54D16*
X45196Y-51279D03*
X45196Y-50279D03*
G54D15*
X47992Y-52271D03*
G54D16*
X47992Y-51271D03*
G54D15*
X34200Y-24066D03*
G54D16*
X33200Y-24066D03*
G54D14*
X68019Y-36467D03*
X68019Y-26467D03*
G54D15*
X67019Y-33617D03*
G54D16*
X67019Y-32517D03*
X67019Y-31417D03*
X67019Y-30367D03*
X67019Y-29267D03*
X68019Y-29817D03*
X68019Y-30917D03*
X68019Y-31967D03*
X68019Y-33067D03*
G54D14*
X68019Y-51112D03*
X68019Y-41112D03*
G54D15*
X67019Y-43912D03*
G54D16*
X67019Y-45012D03*
X67019Y-46062D03*
X67019Y-47162D03*
X67019Y-48262D03*
X68019Y-44462D03*
X68019Y-45562D03*
X68019Y-46612D03*
X68019Y-47712D03*
G54D15*
X53503Y-52271D03*
G54D16*
X53503Y-51271D03*
G54D15*
X59842Y-52240D03*
G54D16*
X59842Y-51240D03*
X59842Y-50240D03*
G54D15*
X54622Y-31279D03*
G54D16*
X53622Y-31279D03*
X52622Y-31279D03*
G54D15*
X54582Y-28279D03*
G54D16*
X53582Y-28279D03*
X52582Y-28279D03*
G54D15*
X56456Y-52240D03*
G54D16*
X56456Y-51240D03*
X56456Y-50240D03*
G54D15*
X55161Y-39279D03*
G54D16*
X55161Y-38279D03*
X56161Y-39279D03*
X56161Y-38279D03*
X57161Y-39279D03*
X57161Y-38279D03*
X58161Y-39279D03*
X58161Y-38279D03*
X59161Y-39279D03*
X59161Y-38279D03*
X60161Y-39279D03*
X60161Y-38279D03*
X61161Y-39279D03*
X61161Y-38279D03*
X62161Y-39279D03*
X62161Y-38279D03*
G54D15*
X50748Y-52271D03*
G54D16*
X50748Y-51271D03*
G54D17*
X37992Y-20118D03*
X57237Y-44089D03*
X52171Y-36019D03*
X53472Y-20118D03*
X38385Y-24149D03*
X57495Y-29642D03*
X38370Y-24704D03*
X57616Y-30114D03*
X37499Y-20117D03*
X57093Y-44557D03*
X36811Y-22165D03*
X36353Y-22146D03*
X39842Y-18661D03*
X37001Y-19980D03*
X36141Y-31377D03*
X60214Y-44689D03*
X62440Y-30866D03*
X37035Y-22763D03*
X39622Y-44374D03*
X41196Y-22295D03*
X42263Y-36358D03*
X40236Y-35551D03*
X48661Y-40669D03*
X47716Y-41062D03*
X53346Y-39763D03*
X48937Y-22244D03*
X45433Y-22322D03*
X42677Y-41062D03*
X39488Y-41299D03*
X46220Y-35472D03*
X47527Y-18712D03*
X48937Y-36889D03*
X47751Y-22291D03*
X59047Y-48901D03*
X56200Y-48409D03*
X53161Y-22177D03*
X55771Y-20059D03*
X42204Y-35196D03*
X42510Y-43294D03*
X55075Y-33219D03*
X57133Y-28751D03*
X58788Y-48353D03*
X56763Y-42854D03*
X53543Y-27322D03*
X54519Y-20110D03*
X44251Y-33228D03*
X45295Y-42086D03*
X48382Y-38015D03*
X58805Y-46974D03*
X63188Y-38858D03*
X58858Y-42598D03*
X45857Y-34029D03*
X44476Y-31674D03*
X60165Y-34161D03*
X59821Y-31861D03*
X60216Y-46850D03*
X59370Y-44330D03*
X40646Y-34214D03*
X43858Y-43968D03*
X57244Y-28287D03*
X56774Y-43329D03*
X37562Y-22437D03*
X36720Y-20987D03*
X38484Y-23555D03*
X56692Y-29137D03*
X58468Y-20862D03*
X56433Y-20185D03*
X53937Y-20137D03*
X50393Y-20137D03*
X50590Y-20866D03*
X36417Y-20161D03*
X40590Y-20787D03*
X42637Y-20078D03*
X44685Y-22244D03*
X43858Y-20984D03*
X45905Y-20866D03*
X48602Y-20807D03*
X44133Y-34960D03*
X57401Y-43385D03*
X41023Y-49232D03*
X46712Y-33602D03*
X43700Y-34074D03*
X58228Y-33661D03*
X58503Y-42125D03*
X44527Y-30354D03*
X57283Y-35011D03*
X32118Y-20834D03*
X56692Y-33807D03*
X55374Y-35338D03*
X40944Y-43070D03*
X41952Y-41956D03*
X61984Y-43972D03*
X55948Y-43618D03*
X60039Y-41956D03*
X61649Y-42094D03*
X61653Y-34074D03*
X60169Y-33712D03*
X62204Y-32948D03*
X52381Y-32381D03*
X56161Y-31653D03*
X57838Y-31964D03*
X51933Y-20196D03*
X39830Y-29767D03*
X44921Y-33385D03*
X43582Y-42047D03*
X47125Y-42165D03*
X43897Y-50236D03*
X41811Y-33602D03*
X42637Y-35275D03*
X45295Y-42657D03*
X45039Y-45118D03*
X45905Y-46968D03*
X40511Y-43463D03*
X44562Y-44696D03*
X38668Y-20136D03*
X56249Y-46109D03*
X51622Y-36637D03*
X53945Y-18816D03*
X56567Y-44255D03*
X57052Y-46919D03*
X45843Y-34592D03*
X46732Y-36809D03*
X55720Y-40747D03*
X57264Y-42794D03*
X56905Y-34228D03*
X57657Y-36705D03*
X43464Y-32992D03*
X44447Y-35299D03*
X44434Y-43891D03*
X58955Y-29096D03*
X55893Y-22858D03*
X55657Y-20807D03*
X57948Y-46978D03*
X58574Y-43254D03*
X43117Y-35371D03*
X41775Y-33019D03*
X43177Y-43531D03*
X39062Y-38909D03*
X58109Y-35307D03*
X58187Y-28443D03*
X55123Y-19995D03*
X55500Y-22574D03*
X58075Y-43483D03*
X57922Y-46036D03*
X44724Y-32322D03*
X42751Y-44816D03*
X46496Y-43523D03*
X59678Y-30668D03*
X61056Y-35498D03*
X62052Y-42480D03*
X59693Y-46862D03*
X41505Y-35323D03*
X43279Y-44398D03*
X57708Y-28381D03*
X56166Y-35350D03*
X56839Y-41937D03*
X54925Y-18882D03*
X54231Y-27022D03*
G54D18*
X35710Y-36181D02*
X35710Y-36379D01*
X37874Y-20000D02*
X37992Y-20118D01*
X37874Y-19421D02*
X37874Y-20000D01*
X53515Y-20118D02*
X53818Y-19815D01*
X53818Y-19421D02*
X53818Y-19815D01*
X57138Y-44089D02*
X57237Y-44089D01*
X52171Y-39123D02*
X57138Y-44089D01*
X52171Y-36019D02*
X52171Y-39123D01*
X53472Y-20118D02*
X53515Y-20118D01*
X38070Y-23832D02*
X38385Y-24149D01*
X38070Y-21523D02*
X38070Y-23832D01*
X57495Y-29642D02*
X56658Y-29642D01*
X53818Y-22003D02*
X54185Y-22370D01*
X54185Y-22370D02*
X54185Y-23870D01*
X54185Y-23870D02*
X56397Y-26082D01*
X56397Y-26082D02*
X56397Y-29381D01*
X53818Y-22003D02*
X53818Y-21523D01*
X56658Y-29642D02*
X56397Y-29381D01*
X38370Y-24704D02*
X38358Y-24704D01*
X37874Y-24220D02*
X37874Y-21523D01*
X38358Y-24704D02*
X37874Y-24220D01*
X57616Y-30114D02*
X56764Y-30114D01*
X53622Y-22081D02*
X54027Y-22486D01*
X54027Y-22486D02*
X54027Y-23944D01*
X54027Y-23944D02*
X56236Y-26153D01*
X56236Y-26153D02*
X56236Y-29586D01*
X53622Y-22081D02*
X53622Y-21523D01*
X56764Y-30114D02*
X56236Y-29586D01*
X37677Y-19939D02*
X37677Y-19421D01*
X37499Y-20117D02*
X37677Y-19939D01*
X53622Y-19421D02*
X53622Y-19720D01*
X53327Y-19826D02*
X52344Y-20809D01*
X53515Y-19826D02*
X53327Y-19826D01*
X53622Y-19720D02*
X53515Y-19826D01*
X57093Y-44557D02*
X56863Y-44327D01*
X56863Y-44327D02*
X56863Y-44038D01*
X56863Y-44038D02*
X51926Y-39101D01*
X51926Y-39101D02*
X51926Y-36170D01*
X51926Y-36170D02*
X51891Y-36135D01*
X51891Y-36135D02*
X51891Y-21179D01*
X51891Y-21179D02*
X52261Y-20809D01*
X52261Y-20809D02*
X52344Y-20809D01*
X36693Y-21523D02*
X36693Y-22047D01*
X36693Y-22047D02*
X36811Y-22165D01*
X36353Y-22146D02*
X36496Y-22003D01*
X36496Y-21523D02*
X36496Y-22003D01*
X36496Y-19421D02*
X36693Y-19421D01*
X39842Y-19421D02*
X39838Y-18811D01*
X39838Y-18811D02*
X39842Y-18807D01*
X39842Y-18807D02*
X39842Y-18661D01*
X37480Y-19421D02*
X37480Y-19094D01*
X37480Y-19094D02*
X37547Y-19027D01*
X37547Y-19027D02*
X38583Y-19027D01*
X38583Y-19027D02*
X38583Y-19030D01*
X38583Y-19030D02*
X38661Y-19108D01*
X38661Y-19108D02*
X38661Y-19421D01*
X37001Y-19980D02*
X37223Y-19980D01*
X37223Y-19980D02*
X37480Y-19724D01*
X37480Y-19724D02*
X37480Y-19421D01*
X41023Y-19421D02*
X41023Y-19421D01*
X39842Y-19421D02*
X39842Y-19421D01*
X39842Y-19803D02*
X39842Y-19421D01*
X39881Y-19842D02*
X39842Y-19803D01*
X40944Y-19842D02*
X39881Y-19842D01*
X41023Y-19763D02*
X40944Y-19842D01*
X41023Y-19421D02*
X41023Y-19763D01*
X34342Y-30946D02*
X35709Y-30946D01*
X35709Y-30946D02*
X36141Y-31377D01*
X64251Y-44031D02*
X66901Y-44031D01*
X66901Y-44031D02*
X67019Y-43912D01*
X64263Y-44031D02*
X64251Y-44031D01*
X64251Y-44031D02*
X64134Y-44031D01*
X60214Y-44689D02*
X63475Y-44689D01*
X64134Y-44031D02*
X63475Y-44689D01*
X68019Y-29817D02*
X65263Y-29817D01*
X62440Y-30866D02*
X62677Y-30866D01*
X62677Y-30866D02*
X63725Y-29817D01*
X65263Y-29817D02*
X63725Y-29817D01*
G54D19*
X37480Y-22003D02*
X37035Y-22448D01*
X37480Y-22003D02*
X37480Y-21523D01*
X37035Y-22448D02*
X37035Y-22763D01*
X41023Y-22121D02*
X41023Y-21523D01*
X41023Y-22121D02*
X41196Y-22295D01*
G54D20*
X37543Y-21117D02*
X38661Y-21117D01*
X37480Y-21181D02*
X37543Y-21117D01*
X37480Y-21523D02*
X37480Y-21181D01*
X40960Y-21117D02*
X39842Y-21117D01*
X41023Y-21180D02*
X40960Y-21117D01*
X41023Y-21523D02*
X41023Y-21180D01*
X39842Y-21117D02*
X38661Y-21117D01*
X38661Y-21523D02*
X38661Y-21117D01*
X39842Y-21523D02*
X39842Y-21320D01*
X39842Y-21320D02*
X39842Y-21117D01*
X39842Y-21320D02*
X39842Y-21523D01*
X39842Y-21320D02*
X39842Y-21320D01*
X45200Y-52279D02*
X45196Y-52279D01*
X41023Y-21523D02*
X41023Y-21523D01*
G54D19*
X48814Y-21952D02*
X48814Y-22122D01*
X48814Y-22122D02*
X48937Y-22244D01*
X45472Y-21976D02*
X45472Y-22283D01*
X45472Y-22283D02*
X45433Y-22322D01*
X47716Y-19031D02*
X47716Y-18901D01*
X47716Y-18901D02*
X47527Y-18712D01*
X48897Y-21523D02*
X48897Y-21870D01*
X48814Y-21952D02*
X47716Y-21952D01*
X48897Y-21870D02*
X48814Y-21952D01*
X47716Y-21523D02*
X47716Y-21952D01*
X47716Y-21952D02*
X47716Y-22255D01*
X47716Y-22255D02*
X47751Y-22291D01*
X45354Y-21523D02*
X45354Y-21866D01*
X45464Y-21976D02*
X45472Y-21976D01*
X45472Y-21976D02*
X46586Y-21976D01*
X45354Y-21866D02*
X45464Y-21976D01*
X46535Y-21523D02*
X46535Y-21925D01*
X47716Y-21866D02*
X47716Y-21523D01*
X47606Y-21976D02*
X47716Y-21866D01*
X46586Y-21976D02*
X47606Y-21976D01*
X46535Y-21925D02*
X46586Y-21976D01*
G54D20*
X47716Y-19421D02*
X47716Y-19031D01*
X47716Y-19031D02*
X47716Y-19015D01*
X48897Y-19421D02*
X48897Y-19015D01*
X47716Y-19015D02*
X48897Y-19015D01*
X47716Y-19015D02*
X46535Y-19015D01*
X46535Y-19421D02*
X46535Y-19015D01*
X46535Y-19015D02*
X45354Y-19015D01*
X45354Y-19421D02*
X45354Y-19015D01*
G54D19*
X56771Y-19421D02*
X56771Y-19881D01*
X56771Y-21122D02*
X56771Y-21523D01*
X57000Y-20893D02*
X56771Y-21122D01*
X57251Y-20893D02*
X57000Y-20893D01*
X57503Y-20641D02*
X57251Y-20893D01*
X57503Y-20362D02*
X57503Y-20641D01*
X57177Y-20035D02*
X57503Y-20362D01*
X56925Y-20035D02*
X57177Y-20035D01*
X56771Y-19881D02*
X56925Y-20035D01*
X53228Y-22110D02*
X53161Y-22177D01*
X53228Y-21523D02*
X53228Y-22110D01*
X55732Y-20019D02*
X55771Y-20059D01*
X55732Y-20019D02*
X55732Y-19870D01*
X55590Y-19421D02*
X55590Y-19759D01*
X55590Y-19759D02*
X55700Y-19870D01*
X55700Y-19870D02*
X55732Y-19870D01*
X56771Y-19783D02*
X56771Y-19421D01*
X55732Y-19870D02*
X56685Y-19870D01*
X56685Y-19870D02*
X56771Y-19783D01*
X53228Y-21523D02*
X53228Y-21173D01*
X53307Y-21094D02*
X54488Y-21094D01*
X53228Y-21173D02*
X53307Y-21094D01*
X55590Y-21523D02*
X55590Y-21180D01*
X55590Y-21180D02*
X55503Y-21094D01*
X55503Y-21094D02*
X54488Y-21094D01*
X54409Y-21173D02*
X54409Y-21523D01*
X54488Y-21094D02*
X54409Y-21173D01*
X55590Y-19421D02*
X55590Y-18846D01*
X54598Y-18511D02*
X54409Y-18700D01*
X55255Y-18511D02*
X54598Y-18511D01*
X55590Y-18846D02*
X55255Y-18511D01*
X54409Y-19421D02*
X54409Y-18700D01*
X53228Y-18944D02*
X53228Y-19421D01*
X53700Y-18472D02*
X53228Y-18944D01*
X54181Y-18472D02*
X53700Y-18472D01*
X54409Y-18700D02*
X54181Y-18472D01*
G54D18*
X40200Y-38279D02*
X40200Y-37937D01*
X38858Y-22149D02*
X38996Y-22287D01*
X38996Y-22287D02*
X38996Y-36732D01*
X38858Y-22149D02*
X38858Y-21523D01*
X40200Y-37937D02*
X38996Y-36732D01*
X40513Y-38279D02*
X40200Y-38279D01*
X40920Y-38687D02*
X40513Y-38279D01*
X42373Y-38687D02*
X40920Y-38687D01*
X42626Y-38434D02*
X42373Y-38687D01*
X42626Y-35775D02*
X42626Y-38434D01*
X42204Y-35354D02*
X42626Y-35775D01*
X42204Y-35196D02*
X42204Y-35354D01*
X40200Y-39279D02*
X40200Y-39177D01*
X40200Y-39177D02*
X37795Y-36771D01*
X35570Y-21217D02*
X35587Y-21217D01*
X35587Y-21217D02*
X35905Y-21535D01*
X35905Y-21535D02*
X35905Y-22913D01*
X35905Y-22913D02*
X37795Y-24803D01*
X37795Y-24803D02*
X37795Y-36771D01*
X38858Y-19421D02*
X38858Y-19090D01*
X35570Y-21217D02*
X35570Y-19658D01*
X36350Y-18877D02*
X35570Y-19658D01*
X38645Y-18877D02*
X36350Y-18877D01*
X38858Y-19090D02*
X38645Y-18877D01*
X40066Y-39279D02*
X40200Y-39279D01*
X42510Y-43294D02*
X40200Y-40985D01*
X40200Y-40985D02*
X40200Y-39279D01*
X55075Y-33219D02*
X55075Y-38194D01*
X55161Y-38279D02*
X55075Y-38194D01*
X54606Y-21523D02*
X54606Y-23610D01*
X56929Y-28547D02*
X57133Y-28751D01*
X56929Y-25933D02*
X56929Y-28547D01*
X54606Y-23610D02*
X56929Y-25933D01*
X56763Y-42854D02*
X56830Y-42854D01*
X57598Y-44015D02*
X57598Y-47163D01*
X57086Y-43503D02*
X57598Y-44015D01*
X57086Y-43110D02*
X57086Y-43503D01*
X56830Y-42854D02*
X57086Y-43110D01*
X58788Y-48353D02*
X57598Y-47163D01*
X55161Y-39279D02*
X55161Y-39684D01*
X54608Y-20021D02*
X54606Y-19421D01*
X54519Y-20110D02*
X54608Y-20021D01*
X55434Y-41525D02*
X55434Y-39957D01*
X56763Y-42854D02*
X55434Y-41525D01*
X56076Y-39957D02*
X55434Y-39957D01*
X56590Y-39444D02*
X56076Y-39957D01*
X56590Y-39128D02*
X56590Y-39444D01*
X56195Y-38733D02*
X56590Y-39128D01*
X56017Y-38733D02*
X56195Y-38733D01*
X55661Y-38377D02*
X56017Y-38733D01*
X55661Y-33180D02*
X55661Y-38377D01*
X54097Y-31616D02*
X55661Y-33180D01*
X54097Y-27883D02*
X54097Y-31616D01*
X53543Y-27322D02*
X54097Y-27883D01*
X55434Y-39957D02*
X55161Y-39684D01*
X44727Y-33703D02*
X44251Y-33228D01*
X44727Y-37806D02*
X44727Y-33703D01*
X45200Y-38279D02*
X44727Y-37806D01*
X40039Y-29133D02*
X40039Y-25328D01*
X44133Y-33228D02*
X40039Y-29133D01*
X44251Y-33228D02*
X44133Y-33228D01*
X40039Y-25328D02*
X40039Y-21523D01*
X40039Y-25328D02*
X40039Y-21523D01*
X40039Y-25328D02*
X40039Y-25328D01*
X45210Y-42001D02*
X45295Y-42086D01*
X45200Y-39279D02*
X45210Y-42001D01*
X40039Y-19421D02*
X40039Y-19159D01*
X50402Y-35995D02*
X48382Y-38015D01*
X50402Y-21141D02*
X50402Y-35995D01*
X50033Y-20772D02*
X50402Y-21141D01*
X49943Y-20772D02*
X50033Y-20772D01*
X49018Y-19847D02*
X49943Y-20772D01*
X44300Y-19847D02*
X49018Y-19847D01*
X43179Y-18726D02*
X44300Y-19847D01*
X40210Y-18726D02*
X43179Y-18726D01*
X40039Y-18897D02*
X40210Y-18726D01*
X40039Y-19159D02*
X40039Y-18897D01*
X40039Y-19159D02*
X40039Y-19421D01*
X40039Y-19159D02*
X40039Y-19159D01*
X59329Y-37447D02*
X60161Y-38279D01*
X59329Y-25653D02*
X59329Y-37447D01*
X55787Y-22111D02*
X59329Y-25653D01*
X55787Y-21523D02*
X55787Y-22111D01*
X58858Y-42598D02*
X58897Y-42598D01*
X60161Y-41111D02*
X60161Y-39279D01*
X60161Y-41334D02*
X60161Y-41111D01*
X58897Y-42598D02*
X60161Y-41334D01*
X58976Y-43149D02*
X58976Y-42716D01*
X58976Y-43149D02*
X58976Y-46803D01*
X58976Y-46803D02*
X58805Y-46974D01*
X58976Y-42716D02*
X58858Y-42598D01*
X62940Y-33129D02*
X62940Y-38610D01*
X56051Y-18736D02*
X55787Y-19000D01*
X55787Y-19421D02*
X55787Y-19000D01*
X56051Y-18736D02*
X58177Y-18736D01*
X61598Y-31787D02*
X62940Y-33129D01*
X61598Y-22062D02*
X61598Y-31787D01*
X58271Y-18736D02*
X61598Y-22062D01*
X58271Y-18736D02*
X58177Y-18736D01*
X62940Y-38610D02*
X63188Y-38858D01*
X58952Y-42598D02*
X58858Y-42598D01*
X45857Y-34029D02*
X47200Y-35372D01*
X47200Y-35372D02*
X47200Y-38279D01*
X40433Y-27631D02*
X40433Y-24577D01*
X44476Y-31674D02*
X40433Y-27631D01*
X40433Y-24577D02*
X40433Y-21523D01*
X40433Y-24577D02*
X40433Y-21523D01*
X40433Y-24577D02*
X40433Y-24577D01*
X40433Y-19094D02*
X40433Y-19257D01*
X40496Y-19030D02*
X40433Y-19094D01*
X42320Y-19030D02*
X40496Y-19030D01*
X43149Y-19859D02*
X42320Y-19030D01*
X43149Y-21476D02*
X43149Y-19859D01*
X45551Y-23877D02*
X43149Y-21476D01*
X45551Y-34719D02*
X45551Y-23877D01*
X45574Y-34743D02*
X45551Y-34719D01*
X45574Y-36709D02*
X45574Y-34743D01*
X46795Y-37930D02*
X45574Y-36709D01*
X46795Y-38874D02*
X46795Y-37930D01*
X47200Y-39279D02*
X46795Y-38874D01*
X40433Y-19257D02*
X40433Y-19421D01*
X40433Y-19257D02*
X40433Y-19421D01*
X40433Y-19257D02*
X40433Y-19257D01*
X59821Y-31861D02*
X59821Y-33817D01*
X61523Y-37641D02*
X62161Y-38279D01*
X61523Y-35519D02*
X61523Y-37641D01*
X59821Y-33817D02*
X60165Y-34161D01*
X60165Y-34161D02*
X61523Y-35519D01*
X56181Y-21912D02*
X56181Y-21523D01*
X59967Y-25698D02*
X56181Y-21912D01*
X59967Y-31861D02*
X59967Y-25698D01*
X59967Y-31861D02*
X59821Y-31861D01*
X59842Y-47224D02*
X59429Y-47224D01*
X59842Y-47224D02*
X60216Y-46850D01*
X59291Y-44409D02*
X59291Y-47086D01*
X59370Y-44330D02*
X59291Y-44409D01*
X59429Y-47224D02*
X59291Y-47086D01*
X58078Y-19030D02*
X56181Y-19030D01*
X56181Y-19421D02*
X56181Y-19030D01*
X62161Y-39279D02*
X62577Y-38863D01*
X62577Y-38863D02*
X62577Y-34273D01*
X62577Y-34273D02*
X61051Y-32747D01*
X61051Y-32747D02*
X61051Y-22003D01*
X61051Y-22003D02*
X58078Y-19030D01*
X39236Y-32980D02*
X39413Y-32980D01*
X39413Y-32980D02*
X40646Y-34214D01*
X41200Y-38279D02*
X40980Y-38279D01*
X39236Y-36535D02*
X39236Y-32980D01*
X39236Y-32980D02*
X39236Y-22259D01*
X40980Y-38279D02*
X39236Y-36535D01*
X39055Y-21523D02*
X39055Y-22079D01*
X39055Y-22079D02*
X39236Y-22259D01*
X41200Y-38279D02*
X41192Y-38279D01*
X39055Y-20012D02*
X39055Y-20138D01*
X39055Y-19421D02*
X39055Y-20012D01*
X39232Y-20531D02*
X39101Y-20662D01*
X39232Y-20314D02*
X39232Y-20531D01*
X39055Y-20138D02*
X39232Y-20314D01*
X36653Y-20662D02*
X36621Y-20662D01*
X38031Y-36702D02*
X40020Y-38691D01*
X38031Y-24724D02*
X38031Y-36702D01*
X36062Y-22755D02*
X38031Y-24724D01*
X36062Y-21220D02*
X36062Y-22755D01*
X36621Y-20662D02*
X36062Y-21220D01*
X36646Y-20662D02*
X36653Y-20662D01*
X36653Y-20662D02*
X39101Y-20662D01*
X42790Y-42278D02*
X42790Y-43633D01*
X41200Y-39279D02*
X41200Y-40688D01*
X41200Y-40688D02*
X42790Y-42278D01*
X43125Y-43968D02*
X43858Y-43968D01*
X42790Y-43633D02*
X43125Y-43968D01*
X40612Y-38691D02*
X41200Y-39279D01*
X40020Y-38691D02*
X40612Y-38691D01*
X38208Y-36879D02*
X40020Y-38691D01*
X57230Y-25816D02*
X57230Y-28273D01*
X57230Y-28273D02*
X57244Y-28287D01*
X54803Y-21523D02*
X54803Y-23390D01*
X54803Y-23390D02*
X57230Y-25816D01*
X52316Y-20958D02*
X53163Y-20958D01*
X53437Y-20685D02*
X54803Y-20685D01*
X53163Y-20958D02*
X53437Y-20685D01*
X54977Y-38685D02*
X53082Y-36791D01*
X53082Y-36791D02*
X53082Y-26653D01*
X53082Y-26653D02*
X52078Y-25649D01*
X52078Y-25649D02*
X52078Y-21196D01*
X52078Y-21196D02*
X52316Y-20958D01*
X54895Y-20188D02*
X54803Y-20096D01*
X54803Y-20685D02*
X54895Y-20592D01*
X54895Y-20592D02*
X54895Y-20188D01*
X54803Y-20096D02*
X54803Y-19421D01*
X54756Y-38906D02*
X54977Y-38685D01*
X54756Y-41311D02*
X54756Y-38906D01*
X56774Y-43329D02*
X54756Y-41311D01*
X55616Y-38734D02*
X56161Y-39279D01*
X55025Y-38734D02*
X55616Y-38734D01*
X54977Y-38685D02*
X55025Y-38734D01*
X37677Y-21523D02*
X37681Y-22318D01*
X37681Y-22318D02*
X37562Y-22437D01*
X36889Y-21155D02*
X36720Y-20987D01*
X36889Y-21523D02*
X36889Y-21155D01*
X38267Y-23346D02*
X38267Y-21523D01*
X38267Y-23346D02*
X38484Y-23555D01*
X54015Y-21877D02*
X54366Y-22228D01*
X54366Y-22228D02*
X54366Y-23771D01*
X54366Y-23771D02*
X56708Y-26114D01*
X56708Y-26114D02*
X56692Y-29137D01*
X54015Y-21877D02*
X54015Y-21523D01*
G54D20*
X58468Y-20862D02*
X58468Y-20667D01*
X58468Y-20667D02*
X58273Y-20472D01*
X56348Y-20472D02*
X56348Y-20269D01*
X56348Y-20269D02*
X56433Y-20185D01*
X53848Y-20472D02*
X53848Y-20226D01*
X53848Y-20226D02*
X53937Y-20137D01*
X50393Y-20137D02*
X50393Y-20466D01*
X50393Y-20466D02*
X50399Y-20472D01*
G54D18*
X50393Y-20137D02*
X50387Y-20143D01*
G54D20*
X50387Y-20143D02*
X50393Y-20137D01*
X50590Y-20866D02*
X50590Y-20663D01*
X50590Y-20663D02*
X50399Y-20472D01*
X36175Y-20472D02*
X36175Y-20403D01*
X36175Y-20403D02*
X36417Y-20161D01*
X36175Y-20472D02*
X38100Y-20472D01*
X38100Y-20507D02*
X38100Y-20472D01*
X38135Y-20472D02*
X38100Y-20507D01*
X40590Y-20787D02*
X40590Y-20482D01*
G54D18*
X40600Y-20777D02*
X40590Y-20787D01*
G54D20*
X40590Y-20482D02*
X40600Y-20472D01*
X42637Y-20078D02*
X42637Y-20360D01*
X42637Y-20360D02*
X42525Y-20472D01*
X43858Y-20984D02*
X43858Y-20663D01*
X43858Y-20663D02*
X44049Y-20472D01*
X45905Y-20866D02*
X45905Y-20541D01*
G54D18*
X45974Y-20797D02*
X45905Y-20866D01*
G54D20*
X45905Y-20541D02*
X45974Y-20472D01*
X48602Y-20807D02*
X48602Y-20600D01*
X48602Y-20600D02*
X48474Y-20472D01*
G54D18*
X53848Y-20472D02*
X53232Y-20472D01*
X51923Y-20472D02*
X51923Y-20206D01*
X51923Y-20206D02*
X51933Y-20196D01*
X36175Y-20472D02*
X36220Y-20427D01*
X45905Y-46968D02*
X45905Y-45984D01*
X44562Y-44696D02*
X44192Y-44696D01*
X43255Y-44818D02*
X41900Y-43463D01*
X44070Y-44818D02*
X43255Y-44818D01*
X44192Y-44696D02*
X44070Y-44818D01*
X41900Y-43463D02*
X40511Y-43463D01*
X45905Y-45984D02*
X45039Y-45118D01*
X38070Y-19421D02*
X38070Y-19763D01*
X38443Y-20136D02*
X38070Y-19763D01*
X38668Y-20136D02*
X38443Y-20136D01*
X51622Y-41482D02*
X51622Y-36637D01*
X56249Y-46109D02*
X51622Y-41482D01*
X54015Y-18886D02*
X54015Y-19421D01*
X53945Y-18816D02*
X54015Y-18886D01*
X56567Y-49630D02*
X56567Y-44255D01*
X56877Y-49940D02*
X56567Y-49630D01*
X56877Y-50819D02*
X56877Y-49940D01*
X56456Y-51240D02*
X56877Y-50819D01*
X57052Y-48450D02*
X57052Y-46919D01*
X59842Y-51240D02*
X57052Y-48450D01*
X46732Y-35481D02*
X46732Y-36809D01*
X45843Y-34592D02*
X46732Y-35481D01*
X55720Y-41250D02*
X55720Y-40747D01*
X57264Y-42794D02*
X55720Y-41250D01*
X57657Y-36705D02*
X57657Y-36200D01*
X56905Y-35448D02*
X56905Y-34228D01*
X57657Y-36200D02*
X56905Y-35448D01*
X39645Y-21523D02*
X39645Y-21917D01*
X40118Y-29606D02*
X40118Y-29881D01*
X40118Y-29881D02*
X43228Y-32992D01*
X43228Y-32992D02*
X43464Y-32992D01*
X39877Y-29366D02*
X40118Y-29606D01*
X39877Y-22149D02*
X39877Y-29366D01*
X39645Y-21917D02*
X39877Y-22149D01*
X44447Y-33974D02*
X43464Y-32992D01*
X44447Y-35299D02*
X44447Y-33974D01*
X44447Y-38033D02*
X44447Y-35299D01*
X44200Y-38279D02*
X44447Y-38033D01*
X34929Y-19865D02*
X34929Y-21172D01*
X39645Y-18980D02*
X39232Y-18566D01*
X39232Y-18566D02*
X36228Y-18566D01*
X36228Y-18566D02*
X34929Y-19865D01*
X39645Y-19421D02*
X39645Y-18980D01*
X37362Y-38545D02*
X37358Y-38541D01*
X37362Y-25039D02*
X37362Y-38545D01*
X34803Y-22480D02*
X37362Y-25039D01*
X34803Y-21299D02*
X34803Y-22480D01*
X34929Y-21172D02*
X34803Y-21299D01*
X44391Y-43891D02*
X43980Y-44302D01*
X44391Y-43891D02*
X44434Y-43891D01*
X43980Y-44302D02*
X43579Y-44302D01*
X43579Y-44302D02*
X43395Y-44118D01*
X43395Y-44118D02*
X42935Y-44118D01*
X42935Y-44118D02*
X37358Y-38541D01*
X44434Y-39512D02*
X44200Y-39279D01*
X44434Y-43891D02*
X44434Y-39512D01*
X39645Y-19264D02*
X39645Y-19421D01*
X39645Y-19264D02*
X39645Y-19421D01*
X39645Y-19264D02*
X39645Y-19264D01*
X58955Y-38073D02*
X58955Y-29096D01*
X59161Y-38279D02*
X58955Y-38073D01*
X55393Y-21923D02*
X55393Y-21523D01*
X58955Y-25485D02*
X55393Y-21923D01*
X58955Y-29096D02*
X58955Y-25485D01*
X59161Y-39279D02*
X59161Y-39240D01*
X59161Y-39240D02*
X58756Y-38835D01*
X58574Y-43254D02*
X58574Y-42468D01*
X59161Y-41881D02*
X59161Y-39279D01*
X58574Y-42468D02*
X59161Y-41881D01*
X55657Y-20807D02*
X55507Y-20807D01*
X55393Y-19771D02*
X55393Y-19421D01*
X55417Y-19795D02*
X55393Y-19771D01*
X55417Y-20133D02*
X55417Y-19795D01*
X55314Y-20236D02*
X55417Y-20133D01*
X55314Y-20614D02*
X55314Y-20236D01*
X55507Y-20807D02*
X55314Y-20614D01*
X55893Y-22858D02*
X55917Y-22858D01*
X58675Y-25615D02*
X58675Y-29212D01*
X58675Y-29212D02*
X58756Y-29292D01*
X58756Y-29292D02*
X58756Y-38835D01*
X55917Y-22858D02*
X58675Y-25615D01*
X58553Y-43233D02*
X58574Y-43254D01*
X58574Y-46352D02*
X57948Y-46978D01*
X58574Y-43254D02*
X58574Y-46352D01*
X41775Y-33019D02*
X41775Y-32917D01*
X39448Y-21934D02*
X39688Y-22175D01*
X39688Y-22175D02*
X39688Y-29421D01*
X39688Y-29421D02*
X39535Y-29574D01*
X39535Y-29574D02*
X39535Y-30677D01*
X39448Y-21934D02*
X39448Y-21523D01*
X41775Y-32917D02*
X39535Y-30677D01*
X41775Y-33019D02*
X41878Y-33019D01*
X43117Y-34258D02*
X43117Y-35371D01*
X41878Y-33019D02*
X43117Y-34258D01*
X43117Y-38195D02*
X43117Y-35371D01*
X43200Y-38279D02*
X43117Y-38195D01*
X35069Y-20118D02*
X35069Y-21308D01*
X37598Y-37444D02*
X39062Y-38909D01*
X37598Y-24960D02*
X37598Y-37444D01*
X34960Y-22322D02*
X37598Y-24960D01*
X34960Y-21417D02*
X34960Y-22322D01*
X35069Y-21308D02*
X34960Y-21417D01*
X43200Y-39279D02*
X43200Y-43507D01*
X43200Y-43507D02*
X43177Y-43531D01*
X39011Y-38858D02*
X39062Y-38909D01*
X39448Y-19421D02*
X39448Y-19066D01*
X39448Y-19066D02*
X39106Y-18724D01*
X39106Y-18724D02*
X36279Y-18724D01*
X36279Y-18724D02*
X35069Y-19934D01*
X35069Y-19934D02*
X35069Y-20118D01*
X35069Y-20118D02*
X35069Y-20124D01*
X35069Y-20124D02*
X35069Y-20124D01*
X43200Y-39279D02*
X43200Y-39437D01*
X58358Y-33043D02*
X57909Y-33492D01*
X57909Y-33492D02*
X57909Y-34728D01*
X58358Y-31547D02*
X58358Y-33043D01*
X58187Y-28443D02*
X58187Y-31376D01*
X57909Y-34728D02*
X58109Y-34928D01*
X58187Y-31376D02*
X58358Y-31547D01*
X58109Y-35307D02*
X58109Y-34928D01*
X58187Y-28443D02*
X58187Y-26045D01*
X58187Y-26045D02*
X55196Y-23054D01*
X55196Y-23054D02*
X55196Y-21523D01*
X58109Y-38227D02*
X58109Y-35307D01*
X58161Y-38279D02*
X58109Y-38227D01*
X58075Y-42992D02*
X58075Y-42288D01*
X57874Y-39566D02*
X58161Y-39279D01*
X57874Y-42086D02*
X57874Y-39566D01*
X58075Y-42288D02*
X57874Y-42086D01*
X58075Y-43483D02*
X58075Y-42992D01*
X58075Y-42992D02*
X58075Y-42985D01*
X58579Y-38861D02*
X58579Y-29370D01*
X58161Y-39279D02*
X58579Y-38861D01*
X58579Y-29370D02*
X58467Y-29259D01*
X55500Y-22574D02*
X55500Y-22948D01*
X58467Y-25916D02*
X58467Y-29259D01*
X55123Y-19995D02*
X55196Y-19922D01*
X55196Y-19922D02*
X55196Y-19421D01*
X55500Y-22948D02*
X58467Y-25916D01*
X58161Y-39279D02*
X58075Y-39365D01*
X58075Y-45882D02*
X57922Y-46036D01*
X58075Y-43483D02*
X58075Y-45882D01*
X45236Y-37314D02*
X46200Y-38279D01*
X45236Y-32637D02*
X45236Y-37314D01*
X44921Y-32322D02*
X45236Y-32637D01*
X44724Y-32322D02*
X44921Y-32322D01*
X40236Y-27834D02*
X40236Y-24679D01*
X44724Y-32322D02*
X40236Y-27834D01*
X40236Y-24679D02*
X40236Y-21523D01*
X40236Y-24678D02*
X40236Y-21523D01*
X40236Y-24679D02*
X40236Y-24678D01*
X45944Y-24035D02*
X45944Y-33700D01*
X40236Y-19202D02*
X40236Y-18984D01*
X40236Y-18984D02*
X40342Y-18877D01*
X40342Y-18877D02*
X42421Y-18877D01*
X42421Y-18877D02*
X43346Y-19803D01*
X43346Y-19803D02*
X43346Y-21437D01*
X43346Y-21437D02*
X45944Y-24035D01*
X47500Y-37814D02*
X47637Y-37952D01*
X47637Y-37952D02*
X47637Y-39665D01*
X47637Y-39665D02*
X47598Y-39704D01*
X47598Y-39704D02*
X46625Y-39704D01*
X46625Y-39704D02*
X46200Y-39279D01*
X47500Y-35255D02*
X47500Y-37814D01*
X45944Y-33700D02*
X47500Y-35255D01*
X42751Y-44816D02*
X42751Y-44983D01*
X46220Y-43523D02*
X46496Y-43523D01*
X44405Y-45338D02*
X46220Y-43523D01*
X43106Y-45338D02*
X44405Y-45338D01*
X42751Y-44983D02*
X43106Y-45338D01*
X46200Y-43228D02*
X46496Y-43523D01*
X46200Y-39279D02*
X46200Y-43228D01*
X40236Y-19421D02*
X40236Y-19202D01*
X40236Y-19203D02*
X40236Y-19421D01*
X40236Y-19202D02*
X40236Y-19203D01*
X55984Y-21523D02*
X55984Y-21914D01*
X59678Y-25608D02*
X59678Y-30668D01*
X55984Y-21914D02*
X59678Y-25608D01*
X61056Y-38174D02*
X61161Y-38279D01*
X61056Y-35498D02*
X61056Y-38174D01*
X59540Y-33982D02*
X61056Y-35498D01*
X59540Y-30805D02*
X59540Y-33982D01*
X59678Y-30668D02*
X59540Y-30805D01*
X56122Y-18878D02*
X58137Y-18878D01*
X55984Y-19421D02*
X55984Y-19016D01*
X55984Y-19016D02*
X56122Y-18878D01*
X61279Y-32458D02*
X62717Y-33896D01*
X62717Y-33896D02*
X62717Y-39327D01*
X62717Y-39327D02*
X62343Y-39702D01*
X62343Y-39702D02*
X62052Y-39702D01*
X61279Y-22020D02*
X61279Y-32458D01*
X58137Y-18878D02*
X61279Y-22020D01*
X59693Y-44787D02*
X59693Y-46862D01*
X62000Y-42480D02*
X59693Y-44787D01*
X62052Y-42480D02*
X62000Y-42480D01*
X62052Y-39702D02*
X62052Y-42480D01*
X61583Y-39702D02*
X61161Y-39279D01*
X62052Y-39702D02*
X61583Y-39702D01*
X42200Y-38279D02*
X41984Y-38279D01*
X41356Y-35173D02*
X41505Y-35323D01*
X40019Y-35173D02*
X41356Y-35173D01*
X39488Y-35704D02*
X40019Y-35173D01*
X39488Y-36330D02*
X39488Y-35704D01*
X40433Y-37275D02*
X39488Y-36330D01*
X40980Y-37275D02*
X40433Y-37275D01*
X41984Y-38279D02*
X40980Y-37275D01*
X39252Y-21523D02*
X39252Y-21980D01*
X39385Y-29488D02*
X39385Y-32556D01*
X39515Y-29358D02*
X39385Y-29488D01*
X39515Y-22244D02*
X39515Y-29358D01*
X39252Y-21980D02*
X39515Y-22244D01*
X41505Y-34677D02*
X39385Y-32556D01*
X41505Y-35323D02*
X41505Y-34677D01*
X43279Y-44398D02*
X43304Y-44398D01*
X44714Y-44012D02*
X44714Y-38873D01*
X44187Y-44539D02*
X44714Y-44012D01*
X43444Y-44539D02*
X44187Y-44539D01*
X43304Y-44398D02*
X43444Y-44539D01*
X39252Y-19421D02*
X39252Y-19787D01*
X41311Y-20019D02*
X45396Y-24104D01*
X45396Y-24104D02*
X45396Y-36836D01*
X45396Y-36836D02*
X46620Y-38061D01*
X46620Y-38061D02*
X46620Y-38432D01*
X46620Y-38432D02*
X46180Y-38873D01*
X46180Y-38873D02*
X44714Y-38873D01*
X39252Y-19787D02*
X39484Y-20019D01*
X39484Y-20019D02*
X41311Y-20019D01*
X42607Y-38873D02*
X42200Y-39279D01*
X44714Y-38873D02*
X42607Y-38873D01*
X57913Y-29377D02*
X57913Y-30362D01*
X56166Y-32109D02*
X56166Y-35350D01*
X57913Y-30362D02*
X56166Y-32109D01*
X57708Y-28381D02*
X57708Y-29173D01*
X57708Y-29173D02*
X57913Y-29377D01*
X55000Y-21523D02*
X55000Y-23150D01*
X57708Y-25858D02*
X57708Y-28381D01*
X55000Y-23150D02*
X57708Y-25858D01*
X57161Y-36345D02*
X57161Y-38279D01*
X56166Y-35350D02*
X57161Y-36345D01*
X54231Y-27022D02*
X55857Y-28649D01*
X57161Y-39279D02*
X57161Y-41616D01*
X57161Y-41616D02*
X56839Y-41937D01*
X55000Y-18957D02*
X54925Y-18882D01*
X55000Y-19421D02*
X55000Y-18957D01*
X56661Y-38779D02*
X57161Y-39279D01*
X56661Y-37610D02*
X56661Y-38779D01*
X55857Y-36806D02*
X56661Y-37610D01*
X55857Y-28649D02*
X55857Y-36806D01*
M02*
